<?xml version="1.0" encoding="UTF-8" standalone="no"?>
<!DOCTYPE svg  PUBLIC '-//W3C//DTD SVG 1.1//EN'  'http://www.w3.org/Graphics/SVG/1.1/DTD/svg11.dtd'>
<svg xmlns="http://www.w3.org/2000/svg" xmlns:xlink="http://www.w3.org/1999/xlink" version="1.1">
 <metadata>Created by FontForge 20150612 at Thu Apr 28 11:38:49 2016
 By Etienne
Digitized data copyright (c) 2010 Google Corporation.
Copyright (c) 2012 Red Hat, Inc.</metadata>
 <defs>
  <font id="LiberationSerif-Bold" horiz-adv-x="0">
   <font-face underline-position="-126" font-weight="700" descent="-410" panose-1="2 2 8 3 7 5 5 2 3 4" units-per-em="2048" unicode-range="U+0020-FFFC" bbox="-1114 -621 2753 2064" x-height="940" underline-thickness="195" font-family="Liberation Serif" ascent="1638" cap-height="1341"/>
   <missing-glyph horiz-adv-x="1593"/>
   <glyph glyph-name=".notdef" horiz-adv-x="1593"/>
   <glyph glyph-name="space" horiz-adv-x="512" unicode=" "/>
   <glyph glyph-name="exclam" horiz-adv-x="682" unicode="!" d="M397 420h-115l-92 921h299zM340 -29c-46 0 -85.167 16 -117.5 48s-48.5 71.333 -48.5 118c0 46 16 85.167 48 117.5s71.333 48.5 118 48.5c46 0 85.167 -16 117.5 -48s48.5 -71.333 48.5 -118c0 -46 -16 -85.167 -48 -117.5s-71.333 -48.5 -118 -48.5z"/>
   <glyph glyph-name="quotedbl" horiz-adv-x="1137" unicode='&quot;' d="M653 1341h258l-78 -481h-104zM227 1341h258l-78 -481h-104z"/>
   <glyph glyph-name="numbersign" horiz-adv-x="1024" unicode="#" d="M741 411l-76 -411h-143l76 411h-270l-74 -411h-146l76 411h-157v123h182l53 287h-235v123h258l73 397h144l-74 -397h270l74 397h143l-74 -397h156v-123h-178l-51 -287h229v-123h-256zM405 821l-53 -287h270l54 287h-271z"/>
   <glyph glyph-name="dollar" horiz-adv-x="1024" unicode="$" d="M466 -20c-71.333 1.33301 -145.5 9.33105 -222.5 23.998s-133.833 30.334 -170.5 47.001v320h93l36 -186c20 -27.333 58.167 -51.666 114.5 -72.999c56.334 -21.333 106.167 -32.666 149.5 -33.999v488c-112 44 -190.333 83.833 -235 119.5s-79.5 79.5 -104.5 131.5 s-37.5 117.667 -37.5 197c0 96 34.333 174.333 103 235s160 95.667 274 105v129h102v-127c100.667 -4 202.667 -18.333 306 -43v-279h-91l-32 143c-19.335 19.333 -45.668 36.5 -79 51.5c-33.333 15 -68 24.167 -104 27.5v-415c83.333 -33.3359 142 -59.1689 176 -77.499 c34 -18.334 64.333 -38.667 91 -61c26.667 -22.335 49.667 -48.168 69 -77.5c19.333 -29.335 34.5 -63.668 45.5 -103c11 -39.333 16.5 -84.333 16.5 -135c0 -116.667 -35.833 -210.834 -107.5 -282.501s-168.5 -111.834 -290.5 -120.501v-140h-102v136zM752 329.998 c0 32.667 -6 60.668 -18 84.001s-29.5 43.333 -52.5 60s-60.833 34.667 -113.5 54v-451c59.333 10.667 104.833 37.167 136.5 79.5s47.5 100.166 47.5 173.499zM303 1067c0 -30.667 5 -56.832 15 -78.499s25 -40.334 45 -56.001s54.333 -33.5 103 -53.5v375 c-52.667 -8 -93 -28.5 -121 -61.5s-42 -74.833 -42 -125.5z"/>
   <glyph glyph-name="percent" horiz-adv-x="2048" unicode="%" d="M640 -20h-150l948 1382h151zM861 995c0 -248 -110.001 -371.999 -330.001 -371.999c-107.333 0 -187.666 31.667 -240.999 95s-80 155.666 -80 276.999c0 244.667 109 367 327 367c106 0 186.5 -30.667 241.5 -92s82.5 -153 82.5 -275zM644.999 995.001 c0 97.3359 -9.16699 167.17 -27.5 209.501c-18.3359 42.333 -47.1689 63.5 -86.5 63.5c-37.333 0 -64.333 -20.333 -81 -61c-16.667 -40.6689 -25 -111.336 -25 -212.001c0 -103.334 8.5 -175.667 25.5 -216.999c17 -41.333 43.833 -62 80.5 -62 c38.6689 0 67.3359 21.667 86 65c18.667 43.333 28 114.666 28 213.999zM1856 346.002c0 -248.667 -109.667 -372.999 -329 -372.999c-107.333 0 -187.833 31.667 -241.5 95s-80.5 156 -80.5 278c0 118.667 27 209.5 81 272.5s136.333 94.5 247 94.5 c106 0 186.333 -30.667 241 -92c54.667 -61.334 82 -153.001 82 -275.001zM1641 346.003c0 97.333 -9.16895 167.168 -27.502 209.501s-47.166 63.5 -86.499 63.5c-37.333 0 -64.333 -20.333 -81 -61s-25 -111.334 -25 -212.001c0 -103.333 8.5 -175.666 25.5 -216.999 s43.833 -62 80.5 -62c38.667 0 67.334 21.667 86.001 65s28 114.666 28 213.999z"/>
   <glyph glyph-name="ampersand" horiz-adv-x="1706" unicode="&amp;" d="M1043 1073c0 -50.667 -9.99902 -94.666 -29.999 -131.999c-20 -37.335 -48.833 -70.168 -86.5 -98.5c-37.667 -28.334 -95.834 -58.167 -174.501 -89.5l380 -343c34 87.333 53.667 189.666 59 306.999l-111 26v64h477v-64l-110 -26l-27 -91 c-40.667 -137.333 -90.667 -250.666 -150 -339.999l220 -198l116 -25v-63h-384l-119 110c-117.333 -86.667 -265 -130 -443 -130c-183.333 0 -319.5 31.333 -408.5 94s-133.5 156.667 -133.5 282c0 64 11.667 119.833 35 167.5s55.5 88.667 96.5 123 s101.167 67.166 180.5 98.499c-84 96.667 -126 204 -126 322c0 92.667 32.667 165 98 217c65.334 52 158.334 78 279 78c116.667 0 206.167 -24.667 268.5 -74s93.5 -121 93.5 -215zM660.001 86.001c138.667 0 251.667 40 339 120l-477 444 c-45.333 -30.667 -78 -69 -98 -115s-30 -102 -30 -168c0 -95.333 23.667 -166 71 -212s112.333 -69 195 -69zM554.001 1089c0 -42.6689 7.16699 -82.5029 21.5 -119.501c14.333 -37 42.833 -78.833 85.5 -125.5c50.668 27.333 85.335 59.333 104 96 c18.667 36.667 28 86.334 28 149.001c0 115.333 -37.333 173 -112 173c-45.333 0 -77.833 -14.5 -97.5 -43.5s-29.5 -72.167 -29.5 -129.5z"/>
   <glyph glyph-name="quotesingle" horiz-adv-x="569" unicode="&apos;" d="M156 1341h258l-78 -481h-104z"/>
   <glyph glyph-name="parenleft" horiz-adv-x="682" unicode="(" d="M363 494c0 -158 8.50098 -285.332 25.501 -381.999s44 -181.667 81 -255s85.833 -133 146.5 -179v-114c-132 70 -235.167 146.5 -309.5 229.5s-129 180.667 -164 293s-52.5 248.5 -52.5 408.5c0 158.667 17.5 294 52.5 406s89.667 209.333 164 292 s177.5 158.667 309.5 228v-114c-60.667 -46 -109.334 -105.333 -146.001 -178s-63.667 -157.334 -81 -254.001s-26 -223.667 -26 -381z"/>
   <glyph glyph-name="parenright" horiz-adv-x="682" unicode=")" d="M66 -436l0.000976562 113.998c60.667 46.667 109.5 106.667 146.5 180s64 158.833 81 256.5s25.5 224.167 25.5 379.5c0 158 -8.66699 285.333 -26 382s-44.333 181 -81 253s-85.334 131.333 -146.001 178v114c133.333 -71.333 237 -148.166 311 -230.499 s128.333 -179.333 163 -291s52 -246.5 52 -404.5c0 -159.333 -17.333 -295.166 -52 -407.499s-89.167 -210 -163.5 -293s-177.833 -159.833 -310.5 -230.5z"/>
   <glyph glyph-name="asterisk" horiz-adv-x="1024" unicode="*" d="M556 895l73 -316h-233l70 320l-287 -236l-94 213l307 88l-307 90l94 213l287 -233l-70 317h233l-73 -317l288 227l95 -209l-312 -88l312 -86l-95 -211z"/>
   <glyph glyph-name="plus" horiz-adv-x="1167" unicode="+" d="M655 608v-405h-143v405h-404v143h404v406h143v-406h405v-143h-405z"/>
   <glyph glyph-name="comma" horiz-adv-x="512" unicode="," d="M434 106c0 -104 -34.667 -191.835 -104 -263.502s-170.333 -124.834 -303 -159.501v92c42 12.666 78 29.333 108 50s53.167 43.5 69.5 68.5s24.5 48.833 24.5 71.5c0 14.667 -5 27.334 -15 38.001s-30 24.334 -60 41.001c-50.667 26.667 -76 68 -76 124 c0 43.333 15 76.333 45 99s68 34 114 34c56.667 0 103.667 -18.167 141 -54.5s56 -83.166 56 -140.499z"/>
   <glyph glyph-name="hyphen" horiz-adv-x="682" unicode="-" d="M75 395v174h532v-174h-532z"/>
   <glyph glyph-name="period" horiz-adv-x="512" unicode="." d="M256 -29c-46 0 -85.167 16 -117.5 48s-48.5 71.333 -48.5 118c0 46 16 85.167 48 117.5s71.333 48.5 118 48.5c46 0 85.167 -16 117.5 -48s48.5 -71.333 48.5 -118c0 -46 -16 -85.167 -48 -117.5s-71.333 -48.5 -118 -48.5z"/>
   <glyph glyph-name="slash" horiz-adv-x="569" unicode="/" d="M121 -20h-141l470 1369h140z"/>
   <glyph glyph-name="zero" horiz-adv-x="1024" unicode="0" d="M946 676c0 -464 -146.666 -696.001 -439.999 -696.001c-141.333 0 -248 59.333 -320 178s-108 291.334 -108 518.001c0 222 36 391.833 108 509.5s181.333 176.5 328 176.5c141.333 0 248.666 -58.167 321.999 -174.5s110 -286.833 110 -511.5zM653.001 675.999 c0 208 -11.667 357.5 -35 448.5s-60 136.5 -110 136.5c-49.333 0 -84.5 -44 -105.5 -132s-31.5 -239 -31.5 -453c0 -217.333 10.667 -371 32 -461s56.333 -135 105 -135c49.333 0 85.833 46.167 109.5 138.5s35.5 244.833 35.5 457.5z"/>
   <glyph glyph-name="one" horiz-adv-x="1024" unicode="1" d="M685 110l233 -24v-86h-754v86l232 24v1011l-231 -76v85l378 222h142v-1242z"/>
   <glyph glyph-name="two" horiz-adv-x="1024" unicode="2" d="M936 0h-849.999v189c57.333 61.333 110.333 116.333 159 165c106.667 105.333 184.667 188.166 234 248.499s85.5 122.833 108.5 187.5s34.5 138.334 34.5 221c0 72.667 -17.667 131.334 -53 176.001c-35.334 44.667 -82.334 67 -141 67 c-41.333 0 -74.333 -4.33301 -99 -13s-47.334 -21.667 -68 -39l-43 -194h-87v305c53.333 12 105.5 22.167 156.5 30.5s106.5 12.5 166.5 12.5c147.333 0 260.166 -30.333 338.499 -91s117.5 -147 117.5 -259c0 -70 -11.667 -133.5 -35 -190.5 c-23.334 -57 -60.167 -112.5 -110.5 -166.5s-150.5 -142 -300.5 -264c-57.333 -46.667 -119.333 -99.667 -186 -159h658v-226z"/>
   <glyph glyph-name="three" horiz-adv-x="1024" unicode="3" d="M954 365c0 -122 -43.667 -216.669 -131 -284.002c-87.334 -67.333 -208.667 -101 -364 -101c-124 0 -247.333 13.333 -370 40l-12 325h92l52 -215c58 -32.667 118.667 -49 182 -49c80.667 0 143.667 25.833 189 77.5s68 123.834 68 216.501 c0 80.667 -18.167 142.5 -54.5 185.5s-95.166 67.167 -176.499 72.5l-116 7v121l112 8c59.333 4 103.166 25.833 131.499 65.5s42.5 99.5 42.5 179.5c0 74.667 -16.833 133.334 -50.5 176.001s-81.5 64 -143.5 64c-36 0 -65.5 -5.5 -88.5 -16.5s-44.833 -22.833 -65.5 -35.5 l-43 -194h-87v305c68 17.333 126.667 28.833 176 34.5s98 8.5 146 8.5c300.667 0 451 -110 451 -330c0 -90.667 -24 -164 -72 -220s-116.667 -90.667 -206 -104c225.333 -27.334 338 -139.667 338 -337z"/>
   <glyph glyph-name="four" horiz-adv-x="1024" unicode="4" d="M852 265v-265h-269v265h-555v163l604 920h220v-878h134v-205h-134zM583 867c0 74.668 3.33301 145.334 10 212l-399 -609h389v397z"/>
   <glyph glyph-name="five" horiz-adv-x="1024" unicode="5" d="M480 793c158.667 0 276.499 -32.668 353.499 -98.001s115.5 -164 115.5 -296c0 -134.667 -41.833 -238.167 -125.5 -310.5s-203.5 -108.5 -359.5 -108.5c-124 0 -247.333 13.333 -370 40l-12 325h92l52 -215c26 -14.667 58 -26.5 96 -35.5s72.333 -13.5 103 -13.5 c153.333 0 230 102.667 230 308c0 106.667 -19.5 183.834 -58.5 231.501s-101.167 71.5 -186.5 71.5c-47.333 0 -90.666 -8.66699 -129.999 -26l-31 -13h-100v688h700v-223h-589v-352c81.334 18 154.667 27 220 27z"/>
   <glyph glyph-name="six" horiz-adv-x="1024" unicode="6" d="M964 416c0 -140.667 -36.332 -248.501 -108.999 -323.501s-176 -112.5 -310 -112.5c-153.333 0 -270.833 58.333 -352.5 175s-122.5 285.667 -122.5 507c0 144 21.5 268.333 64.5 373s103.167 184.334 180.5 239.001s166.333 82 267 82c104 0 204.333 -14.333 301 -43 v-305h-87l-43 194c-46 34.667 -96.333 52 -151 52c-66.667 0 -120.834 -42.667 -162.501 -128s-66.167 -204.666 -73.5 -357.999c72.667 31.333 144.667 47 216 47c122 0 216.167 -34.333 282.5 -103s99.5 -167.334 99.5 -296.001zM541.001 80.999 c48.668 0 82.333 26.333 100.999 79c18.667 52.667 28 131.667 28 237c0 94 -13 166.333 -39 217s-64.667 76 -116 76c-49.333 0 -99.666 -7.66699 -150.999 -23v-5c0 -387.333 59 -581 177 -581z"/>
   <glyph glyph-name="seven" horiz-adv-x="1024" unicode="7" d="M204 958h-87v383h857v-79l-521 -1262h-239l565 1118h-529z"/>
   <glyph glyph-name="eight" horiz-adv-x="1024" unicode="8" d="M925 1011c0 -73.333 -17.998 -135.834 -53.998 -187.501s-86.667 -89.167 -152 -112.5c76.667 -28.667 135.334 -73 176 -133c40.667 -60 61 -132 61 -216c0 -126.667 -36.5 -222 -109.5 -286s-186.5 -96 -340.5 -96c-292 0 -438 127.333 -438 382 c0 85.333 20.667 158 62 218s98.666 103.667 171.999 131c-64.667 24.667 -114.667 62.667 -150 114s-53 114.333 -53 189c0 109.336 36.167 194.669 108.5 256c72.333 61.333 174.5 92 306.5 92c129.333 0 230.166 -31.167 302.499 -93.5s108.5 -148.166 108.5 -257.499z M672.002 361.999c0 102.667 -13.333 177.332 -40 223.999s-68.667 70 -126 70c-54.667 0 -94 -22.667 -118 -68s-36 -120.666 -36 -225.999c0 -103.333 12.167 -176 36.5 -218s63.5 -63 117.5 -63c57.333 0 99.333 22 126 66s40 115.667 40 215zM641.002 1011 c0 87.333 -11 150.833 -33 190.5s-55.333 59.5 -100 59.5c-42.667 0 -74.167 -19.667 -94.5 -59s-30.5 -103 -30.5 -191c0 -90.667 10 -154.667 30 -192s51.667 -56 95 -56c46 0 79.667 19.167 101 57.5s32 101.833 32 190.5z"/>
   <glyph glyph-name="nine" horiz-adv-x="1024" unicode="9" d="M56 932c0 136 39.002 240.666 117.002 313.999s186.333 110 325 110c156.667 0 271.167 -55 343.5 -165s108.5 -282.333 108.5 -517c0 -150.667 -21.167 -277.667 -63.5 -381c-42.334 -103.333 -103.167 -181.333 -182.5 -234c-79.334 -52.667 -174.667 -79 -286 -79 c-110.667 0 -214.334 14.333 -311.001 43v305h87l43 -194c23.334 -16.667 51.167 -29.667 83.5 -39s63.5 -14 93.5 -14c72 0 128.167 40.833 168.5 122.5s63.833 199.834 70.5 354.501c-69.333 -24.667 -138.333 -37 -207 -37c-120.667 0 -215.834 36 -285.501 108 s-104.5 173 -104.5 303zM350.002 927.999c0 -190.667 52 -286 156 -286c50.667 0 100.667 6 150 18v14c0 192.667 -11.5 337.667 -34.5 435s-63.5 146 -121.5 146c-100 0 -150 -109 -150 -327z"/>
   <glyph glyph-name="colon" horiz-adv-x="682" unicode=":" d="M333 -29c-46.667 0 -85.834 16 -117.501 48s-47.5 71.333 -47.5 118s15.833 86 47.5 118s70.834 48 117.501 48c46 0 85.167 -16 117.5 -48s48.5 -71.333 48.5 -118c0 -46 -16 -85.167 -48 -117.5s-71.333 -48.5 -118 -48.5zM333 628c-46.667 0 -85.833 16 -117.5 48 s-47.5 71.333 -47.5 118s15.5 86 46.5 118s70.5 48 118.5 48c47.333 0 86.833 -16.167 118.5 -48.5s47.5 -71.5 47.5 -117.5s-16 -85.167 -48 -117.5s-71.333 -48.5 -118 -48.5z"/>
   <glyph glyph-name="semicolon" horiz-adv-x="682" unicode=";" d="M335 628c-46.667 0 -85.833 16 -117.5 48s-47.5 71.333 -47.5 118s15.5 86 46.5 118s70.5 48 118.5 48c47.333 0 86.833 -16.167 118.5 -48.5s47.5 -71.5 47.5 -117.5s-16 -85.167 -48 -117.5s-71.333 -48.5 -118 -48.5zM514.001 106 c0 -104 -34.667 -191.669 -104 -263.002s-170.666 -124.666 -303.999 -159.999v92c42 12.666 78.167 29.333 108.5 50s53.666 43.667 69.999 69s24.5 49 24.5 71c0 14.667 -5.33301 27.5 -16 38.5s-31 24.5 -61 40.5c-51.333 26.667 -77 68 -77 124 c0 40 14.5 72.167 43.5 96.5s68.5 36.5 118.5 36.5c55.333 0 102 -18.167 140 -54.5s57 -83.166 57 -140.499z"/>
   <glyph glyph-name="less" horiz-adv-x="1167" unicode="&lt;" d="M102 635v90l952 468v-143l-767 -370l767 -371v-143z"/>
   <glyph glyph-name="equal" horiz-adv-x="1167" unicode="=" d="M1054 547v-144h-952v144h952zM1054 956v-143h-952v143h952z"/>
   <glyph glyph-name="greater" horiz-adv-x="1167" unicode="&gt;" d="M104 166v143l768 371l-768 370v143l952 -468v-90z"/>
   <glyph glyph-name="question" horiz-adv-x="1024" unicode="?" d="M445 -29c-46.667 0 -85.835 16 -117.501 48c-31.667 32 -47.5 71.333 -47.5 118s15.833 86 47.5 118s70.834 48 117.501 48c46 0 85.167 -16 117.5 -48s48.5 -71.333 48.5 -118c0 -46 -16 -85.167 -48 -117.5s-71.333 -48.5 -118 -48.5zM490.999 390l-102.999 0.00195312 l-57 313l95 25c69.334 18 117.834 48.5 145.5 91.5c27.667 43 41.5 101.167 41.5 174.5c0 91.333 -16 157.5 -48 198.5s-85.333 61.5 -160 61.5c-56 0 -105.667 -14 -149 -42l-43 -194h-89v295c110.667 28.667 218.667 43 324 43c302.667 0 454 -118.333 454 -355 c0 -96.667 -25.833 -178.334 -77.5 -245.001s-124.834 -113.334 -219.501 -140.001l-87 -24z"/>
   <glyph glyph-name="at" horiz-adv-x="1905" unicode="@" d="M1798 752c0 -125.333 -32.333 -243.835 -97 -355.502s-152.667 -201.5 -264 -269.5s-228.666 -102 -351.999 -102c-82.667 0 -125.334 41.667 -128.001 125l-52 -43c-66.667 -54.667 -139.667 -82 -219 -82c-57.334 0 -102.667 23.333 -136 70 c-33.334 46.667 -50.001 109.334 -50 188.001c0 86 17 169.833 51 251.5s81.167 152 141.5 211s127.833 103.5 202.5 133.5s171 45 289 45c58 0 119 -3.66699 183 -11l-121 -541c-6 -24.667 -11.333 -53.667 -16 -87s-7 -56.666 -7 -69.999 c0 -15.333 2.83301 -28.5 8.5 -39.5s19.5 -16.5 41.5 -16.5c62.667 0 120 26.667 172 80c52 53.334 93.167 126.667 123.5 220s45.5 190.666 45.5 291.999c0 162 -47.5 287.833 -142.5 377.5s-225.833 134.5 -392.5 134.5c-150.667 0 -285.5 -37.5 -404.5 -112.5 s-212.667 -182 -281 -321s-102.5 -294.5 -102.5 -466.5c0 -126 24.333 -238.167 73 -336.5s118.5 -174.666 209.5 -228.999s198.167 -81.5 321.5 -81.5c98 0 190 13.333 276 40s174.333 71.667 265 135l44 -64c-94.667 -76 -191.667 -131 -291 -165 s-207.666 -51 -324.999 -51c-152 0 -285.333 31.333 -400 94s-202.834 151.167 -264.501 265.5s-92.5 244.833 -92.5 391.5c0 190.667 43 363 129 517s203.333 273.333 352 358s313.667 127 495 127c227.333 0 403.333 -53.5 528 -160.5s187 -257.5 187 -451.5zM740 315.998 c0 -48 7.16504 -84.5 21.498 -109.5s30.833 -37.5 49.5 -37.5c22.668 0 48.835 6.66699 78.5 20c29.6689 13.333 54.8359 29.333 75.501 48l120 561c-11.333 3.33301 -31.666 5 -60.999 5c-68 0 -120 -17.5 -156 -52.5s-66.333 -94.833 -91 -179.5s-37 -169.667 -37 -255z "/>
   <glyph glyph-name="A" horiz-adv-x="1479" unicode="A" d="M428 73v-73h-408v73l100 27l477 1252h290l475 -1252l102 -27v-73h-597v73l155 27l-128 347h-515l-123 -347zM641 1150l-221 -593h436z"/>
   <glyph glyph-name="B" horiz-adv-x="1366" unicode="B" d="M878 1010c0 78 -16.833 134.334 -50.5 169.001s-89.167 52 -166.5 52h-139v-467h147c71.333 0 124 18.667 158 56s51 100.666 51 189.999zM979 391.001c0 88.667 -22.167 154.667 -66.5 198s-116.833 65 -217.5 65h-173v-544c96 -4 171.667 -6 227 -6 c78 0 135.833 23.667 173.5 71s56.5 119.333 56.5 216zM34 0.000976562v73l173 27v1142l-173 26v73h651c178 0 309.333 -23.833 394 -71.5c84.667 -47.6689 127 -124.836 127 -231.5c0 -80 -25 -149 -75 -207s-117 -96 -201 -114c124.667 -12.667 219 -46.5 283 -101.5 s96 -129.833 96 -224.5c0 -130 -48 -228.667 -144 -296s-233.667 -101 -413 -101l-456 6h-262z"/>
   <glyph glyph-name="C" horiz-adv-x="1479" unicode="C" d="M815 -20c-224.667 0 -399.998 59.667 -525.998 179s-189 284.666 -189 495.999c0 229.333 60.167 403.5 180.5 522.5s298.166 178.5 533.499 178.5c155.333 0 316.333 -22.333 483 -67l6 -322h-90l-28 194c-88 60 -190.333 90 -307 90 c-154.667 0 -267.667 -48.167 -339 -144.5s-107 -245.833 -107 -448.5c0 -187.333 37.333 -330 112 -428s183.334 -147 326 -147c75.333 0 141.166 10 197.499 30s100.5 43.667 132.5 71l32 220h91l-6 -340c-60 -23.333 -138 -43.166 -234 -59.499 s-185.333 -24.5 -268 -24.5z"/>
   <glyph glyph-name="D" horiz-adv-x="1479" unicode="D" d="M1047 670c0 193.333 -35.332 335.167 -105.999 425.5s-185.667 135.5 -345 135.5h-74v-1117c64 -5.33301 122 -8 174 -8c86.667 0 155.167 18.667 205.5 56s87.166 95.833 110.499 175.5s35 190.5 35 332.5zM673.001 1341c240.667 0 418.5 -54.5 533.5 -163.5 s172.5 -275.5 172.5 -499.5c0 -230 -55 -401.167 -165 -513.5s-276.333 -168.5 -499 -168.5l-449 4h-230v73l172 27v1142l-172 26v73h637z"/>
   <glyph glyph-name="E" horiz-adv-x="1366" unicode="E" d="M35 73l172 27v1142l-172 26v73h1142v-341h-91l-32 217c-74.667 9.33301 -182.667 14 -324 14h-208v-492h351l31 148h89v-412h-89l-31 152h-351v-517h253c172.001 0 284.668 5.33301 338 16l57 248h91l-19 -374h-1207v73z"/>
   <glyph glyph-name="F" horiz-adv-x="1251" unicode="F" d="M522 572v-472l223 -27v-73h-697v73l159 27v1142l-172 26v73h1118v-361h-94l-32 237c-32.667 4.66699 -86.667 8.16699 -162 10.5c-75.334 2.33301 -134.667 3.5 -178 3.5h-165v-549h327l31 170h89v-452h-89l-31 172h-327z"/>
   <glyph glyph-name="G" horiz-adv-x="1593" unicode="G" d="M1406 70c-82.667 -27.333 -178.668 -49.166 -288.001 -65.499c-109.334 -16.333 -207.667 -24.5 -295 -24.5c-146 0 -273.5 26.667 -382.5 80s-193 131 -252 233s-88.5 222.667 -88.5 362c0 224.667 64.167 397.667 192.5 519s311.5 182 549.5 182 c58 0 110.833 -2.33301 158.5 -7s92.167 -11 133.5 -19s117.333 -27.667 228 -59v-308h-90l-24 174c-52.667 36 -110.667 64 -174 84c-63.334 20 -128.667 30 -195.999 30c-155.333 0 -268.5 -48.333 -339.5 -145s-106.5 -246.334 -106.5 -449.001 c0 -188.667 37.5 -331.5 112.5 -428.5s183.5 -145.5 325.5 -145.5c77.333 0 151 11.667 221 35v388l-172 26v74h618v-74l-131 -26v-436z"/>
   <glyph glyph-name="H" horiz-adv-x="1593" unicode="H" d="M35 0v74l172 26v1141l-172 27v73h659v-73l-172 -27v-496h548v496l-172 27v73h661v-73l-173 -27v-1141l173 -26v-74h-661v74l172 26v535h-548v-535l172 -26v-74h-659z"/>
   <glyph glyph-name="I" horiz-adv-x="797" unicode="I" d="M556 100l172 -26v-74h-659v74l172 26v1141l-172 27v73h659v-73l-172 -27v-1141z"/>
   <glyph glyph-name="J" horiz-adv-x="1024" unicode="J" d="M501 1242l-172 25.999v73h639v-73l-152 -26v-810c0 -144.667 -40 -256.167 -120 -334.5s-194 -117.5 -342 -117.5c-50 0 -99.167 2.83301 -147.5 8.5s-86.833 12.834 -115.5 21.501v304h89l30 -179c12.667 -15.333 30.667 -27.333 54 -36s49 -13 77 -13 c46 0 84.167 16 114.5 48s45.5 79.333 45.5 142v966z"/>
   <glyph glyph-name="K" horiz-adv-x="1593" unicode="K" d="M1469 1341v-73l-164 -26l-443 -391l590 -751l125 -27v-73h-438l-501 646l-116 -100v-446l193 -27v-73h-680v73l172 27v1142l-172 26v73h660v-73l-173 -26v-546l611 546l-123 26v73h459z"/>
   <glyph glyph-name="L" horiz-adv-x="1366" unicode="L" d="M729 1268l-207 -26v-1136h273c142 0 246.333 6.66699 313 20l82 279h90l-38 -405h-1207v73l172 27v1142l-171 26v73h693v-73z"/>
   <glyph glyph-name="M" horiz-adv-x="1933" unicode="M" d="M882 0h-55l-495 1133v-1033l180 -27v-73h-477v73l172 27v1142l-172 26v73h527l383 -882l391 882h538v-73l-172 -26v-1142l172 -27v-73h-667v73l180 27v1033z"/>
   <glyph glyph-name="N" horiz-adv-x="1479" unicode="N" d="M1155 1242l-180 26v73h477v-73l-172 -26v-1242h-117l-827 1078v-978l180 -27v-73h-477v73l172 27v1142l-172 26v73h459l657 -857v758z"/>
   <glyph glyph-name="O" horiz-adv-x="1593" unicode="O" d="M432 672c0 -212.667 29.167 -364.5 87.5 -455.5s150.833 -136.5 277.5 -136.5c126 0 218.167 45.667 276.5 137s87.5 243 87.5 455c0 211.333 -29.167 361.333 -87.5 450s-150.5 133 -276.5 133c-126.667 0 -219.167 -44.333 -277.5 -133s-87.5 -238.667 -87.5 -450z M100 672c0 456 232.335 684.001 697.002 684.001c229.334 0 402.667 -57.833 519.999 -173.5c117.333 -115.667 176 -285.834 176 -510.501c0 -227.333 -59.333 -399.5 -178 -516.5s-291.334 -175.5 -518.001 -175.5c-226 0 -398.667 58.333 -518 175s-179 289 -179 517z "/>
   <glyph glyph-name="P" horiz-adv-x="1251" unicode="P" d="M871 944c0 106.667 -19.833 181.167 -59.5 223.5s-109.5 63.5 -209.5 63.5h-79v-595h83c92.667 0 160 23.333 202 70s63 126 63 238zM523 526v-426l223 -27v-73h-698v73l159 27v1142l-172 26v73h591c190 0 332 -31.833 426 -95.5s141 -163.5 141 -299.5 c0 -280 -163.333 -420 -490 -420h-180z"/>
   <glyph glyph-name="Q" horiz-adv-x="1593" unicode="Q" d="M100 672c0 456 232.334 683.999 697.001 683.999c229.334 0 402.667 -57.833 519.999 -173.5c117.333 -115.667 176 -285.834 176 -510.501c0 -331.333 -124.667 -544.666 -374 -639.999l50 -61c98 -122.667 182 -184 252 -184c34.667 0 62 2.66699 82 8v-86 c-14 -6.66699 -46.5 -15.167 -97.5 -25.5s-97.167 -15.5 -138.5 -15.5c-48.6709 0 -91.8379 4.5 -129.5 13.5c-37.667 9 -72.667 23 -105 42s-64 44 -95 75s-81.833 91.5 -152.5 181.5c-222 1.33301 -391.667 60.833 -509 178.5s-176 288.834 -176 513.501zM432.001 671.999 c0 -212.667 29.167 -364.5 87.5 -455.5s150.833 -136.5 277.5 -136.5c126 0 218.167 45.667 276.5 137s87.5 243 87.5 455c0 211.333 -29.167 361.333 -87.5 450s-150.5 133 -276.5 133c-126.667 0 -219.167 -44.333 -277.5 -133s-87.5 -238.667 -87.5 -450z"/>
   <glyph glyph-name="R" horiz-adv-x="1479" unicode="R" d="M523 568l0.000976562 -468l172 -27v-73h-647v73l159 27v1142l-172 26v73h641c197.333 0 344.666 -30.333 441.999 -91s146 -155.334 146 -284c0 -192 -90 -315.333 -270 -370l358 -496l145 -27v-73h-434l-374 568h-166zM952.001 964c0 100 -20.667 169.5 -62 208.5 s-117 58.5 -227 58.5h-140v-553h145c102.667 0 175.667 21.333 219 64s65 116.667 65 222z"/>
   <glyph glyph-name="S" horiz-adv-x="1139" unicode="S" d="M109 411l88 0.00195312l45 -215c28 -32.667 70.333 -60 127 -82s115.334 -33 176.001 -33c191.333 0 287 78.667 287 236c0 49.333 -18.167 91 -54.5 125s-93.5 64.333 -171.5 91c-114.667 38 -197.167 68.833 -247.5 92.5s-92.833 51.5 -127.5 83.5 s-62.334 70.833 -83.001 116.5s-31 101.834 -31 168.5c0 118 40.167 207.833 120.5 269.5s197.833 92.5 352.5 92.5c112 0 236 -14.333 372 -43v-319h-89l-45 184c-68 49.333 -147.333 74 -238 74c-82 0 -145 -15.167 -189 -45.5s-66 -76.833 -66 -139.5 c0 -44.667 18.333 -82.834 55 -114.501s94 -59.834 172 -84.501c152.667 -50 257.5 -93.5 314.5 -130.5s100.5 -82.833 130.5 -137.5s45 -119 45 -193c0 -284.667 -167.667 -427 -503 -427c-76.667 0 -154.834 6.5 -234.5 19.5c-79.667 13 -148.167 30.167 -205.5 51.5v360z "/>
   <glyph glyph-name="T" horiz-adv-x="1366" unicode="T" d="M310 0l-0.000976562 73l213 27v1135h-51c-152.667 0 -260 -6.66699 -322 -20l-27 -249h-91v375h1303v-375h-92l-27 249c-55.333 12 -164.666 18 -327.999 18h-49v-1133l213 -27v-73h-742z"/>
   <glyph glyph-name="U" horiz-adv-x="1479" unicode="U" d="M838 122c100 0 177.333 28 232 84s82 138.333 82 247v789l-180 26v73h456v-73l-152 -26v-781c0 -154.667 -44.667 -273.334 -134 -356.001s-217 -124 -383 -124c-179.333 0 -316.833 41.833 -412.5 125.5s-143.5 204.5 -143.5 362.5v773l-152 26v73h639v-73l-172 -26 v-787c0 -107.333 27.167 -189.666 81.5 -246.999s133.833 -86 238.5 -86z"/>
   <glyph glyph-name="V" horiz-adv-x="1479" unicode="V" d="M1456 1341v-73l-127 -27l-518 -1272h-133l-545 1272l-110 27v73h583v-73l-139 -27l377 -879l352 879l-135 27v73h395z"/>
   <glyph glyph-name="W" horiz-adv-x="2048" unicode="W" d="M1501 -31h-123l-334 827l-331 -827h-123l-444 1273l-117 26v73h602v-73l-157 -26l286 -799l314 784h125l315 -782l237 797l-169 26v73h434v-73l-117 -26z"/>
   <glyph glyph-name="X" horiz-adv-x="1479" unicode="X" d="M330 100l166 -27v-73h-458v73l148 27l431 548l-384 594l-151 26v73h653v-73l-170 -26l234 -362l285 362l-166 26v73h459v-73l-148 -26l-365 -463l439 -679l152 -27v-73h-653v73l170 27l-290 447z"/>
   <glyph glyph-name="Y" horiz-adv-x="1479" unicode="Y" d="M911 528v-428l213 -27v-73h-742v73l213 27v422l-408 720l-151 26v73h690v-73l-180 -26l306 -562l296 562l-164 26v73h456v-73l-142 -26z"/>
   <glyph glyph-name="Z" horiz-adv-x="1366" unicode="Z" d="M98 114l741.999 1121h-240c-151.333 0 -258 -6.66699 -320 -20l-31 -211h-89v337h1036v-106l-747 -1131h280c76 0 150.833 3.66699 224.5 11s126.834 14.666 159.501 21.999l59 256h90l-27 -393h-1137v114z"/>
   <glyph glyph-name="bracketleft" horiz-adv-x="682" unicode="[" d="M152 -274v1695h456v-67l-203 -41v-1479l203 -41v-67h-456z"/>
   <glyph glyph-name="backslash" horiz-adv-x="569" unicode="\" d="M-20 1349h140l470 -1369h-141z"/>
   <glyph glyph-name="bracketright" horiz-adv-x="682" unicode="]" d="M74 -274v67l203 41v1479l-203 41v67h456v-1695h-456z"/>
   <glyph glyph-name="asciicircum" horiz-adv-x="1190" unicode="^" d="M925 389l-330 761l-330 -761h-143l428 952h90l428 -952h-143z"/>
   <glyph glyph-name="underscore" horiz-adv-x="1024" unicode="_" d="M-16 -285v144h1056v-144h-1056z"/>
   <glyph glyph-name="grave" horiz-adv-x="682" unicode="`" d="M452 1118l-364 268v37h285l165 -273v-32h-86z"/>
   <glyph glyph-name="a" horiz-adv-x="1024" unicode="a" d="M546 961c235.333 0 353 -86.667 353 -260v-611l94 -24v-66h-346l-22 72c-52 -35.333 -99 -59.5 -141 -72.5s-84.333 -19.5 -127 -19.5c-194 0 -291 93.333 -291 280c0 70.667 14.333 127.167 43 169.5c28.667 42.334 70 73.667 124 94s139 31.833 255 34.5l122 3v137 c0 113.333 -46.333 170 -139 170c-56 0 -118.667 -17.333 -188 -52l-38 -117h-66v227c100.667 15.333 174.667 25 222 29c47.334 4 95.667 6 145 6zM610 472l-83.999 -2.99902c-64.667 -2.66699 -109.5 -19.667 -134.5 -51s-37.5 -82 -37.5 -152 c0 -56.667 10 -98.334 30 -125.001s46 -40 78 -40c45.333 0 94.666 11.667 147.999 35v336z"/>
   <glyph glyph-name="b" horiz-adv-x="1139" unicode="b" d="M763 497c0 123.333 -15.167 213.667 -45.5 271c-30.335 57.333 -80.168 86 -149.5 86c-25.333 0 -53 -2.83301 -83 -8.5s-54.667 -14.167 -74 -25.5v-719c42.667 -10.667 95 -16 157 -16c66 0 115 32.167 147 96.5s48 169.5 48 315.5zM122 1333l-96 22.999v65h385v-345 c0 -62 -3.33301 -125 -10 -189c26.667 22 65.167 40.5 115.5 55.5s99.5 22.5 147.5 22.5c136 0 235.333 -37.333 298 -112s94 -193.667 94 -357c0 -161.333 -40.167 -287.666 -120.5 -378.999s-193.5 -137 -339.5 -137c-108 0 -266 22.667 -474 68v1285z"/>
   <glyph glyph-name="c" horiz-adv-x="909" unicode="c" d="M858 57c-30 -24 -71.5 -42.667 -124.5 -56s-107.5 -20 -163.5 -20c-167.333 0 -292.5 40.333 -375.5 121s-124.5 204 -124.5 370c0 103.333 18.833 191.833 56.5 265.5s91.5 130 161.5 169s151.333 58.5 244 58.5c93.333 0 195 -11.667 305 -35v-278h-72l-42 165 c-22.667 16.6699 -45 28.3369 -67 35c-22 6.66699 -51 10 -87 10c-39.334 0 -75.001 -15.667 -107.001 -47s-56.833 -75.5 -74.5 -132.5s-26.5 -125.167 -26.5 -204.5c0 -134 20.833 -229.667 62.5 -287s107.834 -86 198.501 -86c92 0 170.667 9.66699 236 29v-77z"/>
   <glyph glyph-name="d" horiz-adv-x="1139" unicode="d" d="M733 53c-37.333 -24 -66 -39.832 -86 -47.499s-42.667 -13.834 -68 -18.501s-53.333 -7 -84 -7c-138.667 0 -242 39.833 -310 119.5s-102 202.167 -102 367.5c0 162.667 36.5 286.334 109.5 371c73 84.667 178.833 127 317.5 127c72.667 0 146 -9 220 -27 c-4 22 -6 73.667 -6 155v238l-96 24v66h385v-1331l103 -24v-66h-362zM376 475.001c0 -124.667 15.668 -219.833 47.001 -285.5s76.333 -98.5 135 -98.5c53.333 0 108.666 14.333 165.999 43v708c-52 14 -104.667 21 -158 21c-60 0 -106.667 -32.833 -140 -98.5 s-50 -162.167 -50 -289.5z"/>
   <glyph glyph-name="e" horiz-adv-x="909" unicode="e" d="M494 963c127.333 0 219.5 -34 276.5 -102s85.5 -173.667 85.5 -317v-82h-493v-16c0 -99.333 8 -170 24 -212s42 -74 78 -96s85.333 -33 148 -33c58.667 0 132.667 9.66699 222 29v-77c-36.667 -22 -84.167 -40.167 -142.5 -54.5 c-58.334 -14.333 -115.167 -21.5 -170.5 -21.5c-154 0 -267.833 40.167 -341.5 120.5s-110.5 204.833 -110.5 373.5c0 164 35.167 286.333 105.5 367s176.5 121 318.5 121zM483 862c-40 0 -69.834 -21.665 -89.501 -64.998s-29.5 -120 -29.5 -230h218 c0 89.333 -3 152.166 -9 188.499s-16.167 63.166 -30.5 80.499s-34.166 26 -59.499 26z"/>
   <glyph glyph-name="f" horiz-adv-x="682" unicode="f" d="M157 836h-142v69l142 39v101c0 128 32.667 226.167 98 294.5s159 102.5 281 102.5c66 0 121.333 -6.33301 166 -19v-224h-64l-29 109c-16 16 -37 24 -63 24c-66.667 0 -100 -85 -100 -255v-137h191v-104h-191v-746l153 -24v-66h-544v66l102 24v746z"/>
   <glyph glyph-name="g" horiz-adv-x="1024" unicode="g" d="M257 347c-118.667 50 -178 147.667 -178 293c0 104 36.333 184.167 109 240.5s176.667 84.5 312 84.5c28.667 0 65.5 -2.5 110.5 -7.5s77.833 -10.833 98.5 -17.5l225 111l35 -43l-114 -162c41.333 -50.667 62 -119.334 62 -206.001c0 -106 -35.833 -187.5 -107.5 -244.5 s-176.167 -85.5 -313.5 -85.5c-52.667 0 -103.667 4 -153 12l-24 -76c1.33398 -19.333 13.667 -37.5 37 -54.5s52 -25.5 86 -25.5h219c228.667 0 343 -88 343 -264c0 -72.667 -19.833 -135.167 -59.5 -187.5s-98 -93.166 -175 -122.499s-172.833 -44 -287.5 -44 c-136 0 -241.333 19.5 -316 58.5s-112 92.5 -112 160.5c0 30 12.167 59 36.5 87s71.5 62.333 141.5 103c-39.333 15.333 -72.833 42 -100.5 80s-41.5 78 -41.5 120zM785 -166c0 63.333 -42.333 95 -127 95h-317c-58.667 -42.667 -88 -91 -88 -145 c0 -42.667 20.5 -74.667 61.5 -96s97.167 -32 168.5 -32c96.667 0 171.167 15.667 223.5 47s78.5 75 78.5 131zM494 410c49.333 0 84.999 19.167 106.999 57.5s33 95.833 33 172.5s-10.833 133.167 -32.5 169.5s-57.5 54.5 -107.5 54.5c-46 0 -79.5 -18.167 -100.5 -54.5 s-31.5 -92.833 -31.5 -169.5s10.333 -134.167 31 -172.5s54.334 -57.5 101.001 -57.5z"/>
   <glyph glyph-name="h" horiz-adv-x="1139" unicode="h" d="M436 1014c0 -44 -1.99902 -96 -5.99902 -156l69 35c94.667 48 179.667 72 255 72c173.333 0 260 -92.333 260 -277v-598l94 -24v-66h-467v66l84 24v559c0 56 -11.833 99.667 -35.5 131s-57.5 47 -101.5 47c-50.667 0 -101.334 -11.333 -152.001 -34v-703l86 -24v-66h-467 v66l92 24v1241l-96 24v66h385v-407z"/>
   <glyph glyph-name="i" horiz-adv-x="569" unicode="i" d="M436 90l103 -24v-66h-494v66l102 24v760l-96 24v66h385v-850zM137 1268c0 43.3379 15.165 79.6729 45.498 109.001c30.333 29.333 66.5 44 108.5 44c42.667 0 78.834 -14.833 108.501 -44.5c29.667 -29.6719 44.5 -65.8389 44.5 -108.501 c0 -42 -14.667 -78.167 -44 -108.5s-65.666 -45.5 -108.999 -45.5c-42.667 0 -79 14.833 -109 44.5s-45 66.167 -45 109.5z"/>
   <glyph glyph-name="j" horiz-adv-x="682" unicode="j" d="M553 1268c0 -42.667 -14.833 -78.999 -44.5 -108.999s-65.834 -45 -108.5 -45c-42.667 0 -79 14.833 -109 44.5s-45 66.167 -45 109.5c0 42 14.833 78 44.5 108s66.167 45 109.5 45c42 0 78 -14.833 108 -44.5c30 -29.6719 45 -65.8389 45 -108.501zM545 -38.999 c0 -125.333 -33.833 -222.832 -101.5 -292.499s-163.834 -104.5 -288.501 -104.5c-59.333 0 -116.666 6 -171.999 18v225h64l43 -114c16 -12.667 32.333 -19 49 -19c36 0 64.5 22.167 85.5 66.5s31.5 107.166 31.5 188.499v911l-166 34v66h455v-979z"/>
   <glyph glyph-name="k" horiz-adv-x="1139" unicode="k" d="M436 451l367 400l-100 23v66h358v-66l-108 -22l-224 -236l323 -526l84 -24v-66h-452v66l55 24l-188 329l-115 -80v-249l93 -24v-66h-471v66l89 24v1241l-96 24v66h385v-970z"/>
   <glyph glyph-name="l" horiz-adv-x="569" unicode="l" d="M431 90l103 -24v-66h-494v66l102 24v1241l-96 24v66h385v-1331z"/>
   <glyph glyph-name="m" horiz-adv-x="1706" unicode="m" d="M434 858l67.999 35c93.333 48 177 72 251 72c112 0 186.667 -40.667 224 -122c136.667 81.333 252 122 346 122c169.333 0 254 -92.333 254 -277v-598l94 -24v-66h-467v66l84 24v559c0 56 -10.833 99.667 -32.5 131s-54.5 47 -98.5 47 c-49.333 0 -102.666 -14 -159.999 -42c6.66699 -28 10 -60.333 10 -97v-598l94 -24v-66h-467v66l84 24v559c0 56 -10.833 99.667 -32.5 131s-54.5 47 -98.5 47s-94.333 -13 -151 -39v-698l86 -24v-66h-467v66l92 24v760l-92 24v66h365z"/>
   <glyph glyph-name="n" horiz-adv-x="1139" unicode="n" d="M434 858l68.001 35c93.333 48 177.333 72 252 72c173.333 0 260 -92.333 260 -277v-598l94 -24v-66h-467v66l84 24v559c0 56 -11.833 99.667 -35.5 131s-57.5 47 -101.5 47c-50.667 0 -101.334 -11.333 -152.001 -34v-703l86 -24v-66h-467v66l92 24v760l-92 24v66h365z "/>
   <glyph glyph-name="o" horiz-adv-x="1024" unicode="o" d="M946 475c0 -168.667 -36.167 -293.334 -108.5 -374.001s-182.833 -121 -331.5 -121c-144 0 -251.333 40.833 -322 122.5s-106 205.834 -106 372.501c0 166 35.833 289.167 107.5 369.5s181.167 120.5 328.5 120.5c148.667 0 257.834 -41.5 327.5 -124.5 c69.667 -83 104.5 -204.833 104.5 -365.5zM653 475c0 146.667 -10.833 248.167 -32.5 304.5s-59.167 84.5 -112.5 84.5c-51.333 0 -87 -27 -107 -81s-30 -156.667 -30 -308c0 -154 10.167 -258.333 30.5 -313s55.833 -82 106.5 -82c52.667 0 90 28.833 112 86.5 s33 160.5 33 308.5z"/>
   <glyph glyph-name="p" horiz-adv-x="1139" unicode="p" d="M409 892c71.333 48.667 158 73 260 73c130.667 0 227.834 -38.333 291.5 -115c63.667 -76.667 95.5 -197.667 95.5 -363c0 -164 -37 -289.5 -111 -376.5s-180.333 -130.5 -319 -130.5c-70.667 0 -142 9 -214 27c4 -44 6 -93.333 6 -148v-205l138 -24v-66h-529v66l102 24 v1196l-103 24v66h381zM763 480c0 249.333 -57.999 374 -173.999 374c-62 0 -119 -12.667 -171 -38v-709c54 -14 110.333 -21 168.999 -21c117.333 0 176 131.333 176 394z"/>
   <glyph glyph-name="q" horiz-adv-x="1139" unicode="q" d="M377 448c0 -120 15.502 -209.5 46.502 -268.5s82.167 -88.5 153.5 -88.5c25.333 0 52.166 3.5 80.499 10.5s52.166 16.167 71.499 27.5v716c-45.333 11.333 -96 17 -152 17c-68 0 -118.333 -33.667 -151 -101c-32.667 -67.334 -49 -171.667 -49 -313zM1018 -346l102 -24 v-66h-529v66l138 24v215c0 62 3.33301 125 10 189c-65.333 -52 -147 -78 -245 -78c-139.333 0 -242.5 41.167 -309.5 123.5s-100.5 205.833 -100.5 370.5c0 160.667 37.5 282.667 112.5 366s185.833 125 332.5 125c48 0 141 -7.66699 279 -23l119 43h91v-1331z"/>
   <glyph glyph-name="r" horiz-adv-x="909" unicode="r" d="M461 745c72 80 136.5 137.5 193.5 172.5s109.167 52.5 156.5 52.5h54v-343h-56l-59 126c-42 0 -89.667 -9.16699 -143 -27.5s-100.333 -39.833 -141 -64.5v-571l151 -24v-66h-562v66l122 24v760l-122 24v66h395z"/>
   <glyph glyph-name="s" horiz-adv-x="797" unicode="s" d="M747 298c0 -104.667 -32.167 -183.831 -96.5 -237.498s-157.833 -80.5 -280.5 -80.5c-50.667 0 -106.5 5.5 -167.5 16.5s-107.167 22.5 -138.5 34.5v256h66l38 -132c23.333 -23.333 54 -42.833 92 -58.5s76.667 -23.5 116 -23.5c58 0 101.167 12.5 129.5 37.5 s42.5 56.833 42.5 95.5c0 36.667 -13.667 66 -41 88s-87 47.333 -179 76c-96.667 30 -165.167 71 -205.5 123s-60.5 116 -60.5 192c0 85.333 31.667 153.333 95 204s145 76 245 76c68.667 0 161 -9.66699 277 -29v-241h-66l-32 110 c-19.333 19.333 -46.5 35.166 -81.5 47.499s-68.167 18.5 -99.5 18.5c-48 0 -83.5 -9.83301 -106.5 -29.5s-34.5 -46.5 -34.5 -80.5c0 -35.333 14.333 -64.333 43 -87s87.667 -47.334 177 -74.001c97.333 -30 166.333 -69.5 207 -118.5s61 -110.167 61 -183.5z"/>
   <glyph glyph-name="t" horiz-adv-x="682" unicode="t" d="M438 -20c-90 0 -159.498 20.332 -208.498 60.999s-73.5 99.334 -73.5 176.001v619h-123v65l145 39l117 213h150v-213h198v-104h-198v-601c0 -43.333 9 -76 27 -98s41.667 -33 71 -33c35.333 0 78.666 5.33301 129.999 16v-85c-20 -14 -54.167 -26.667 -102.5 -38 c-48.334 -11.333 -92.501 -17 -132.501 -17z"/>
   <glyph glyph-name="u" horiz-adv-x="1139" unicode="u" d="M705 82l-68 -35c-93.334 -48 -177.334 -72 -252 -72c-173.333 0 -260 92.333 -260 277v598l-94 24v66h383v-649c0 -56 11.833 -99.667 35.5 -131s57.5 -47 101.5 -47c50.668 0 101.335 11.333 152 34v703l-86 24v66h375v-850l92 -24v-66h-365z"/>
   <glyph glyph-name="v" horiz-adv-x="1024" unicode="v" d="M580 -20h-121l-393 870l-66 24v66h481v-66l-112 -26l241 -536l217 538l-110 24v66h307v-66l-68 -20z"/>
   <glyph glyph-name="w" horiz-adv-x="1479" unicode="w" d="M874 846l217 -535l182 539l-110 24v66h305v-66l-72 -20l-316 -874h-121l-215 527l-214 -527h-121l-333 870l-70 24v66h465v-66l-112 -26l202 -537l218 535h95z"/>
   <glyph glyph-name="x" horiz-adv-x="1024" unicode="x" d="M31 875v65h502v-65l-105 -27l137 -211l181 213l-94 25v65h320v-65l-83 -21l-264 -310l298 -458l90 -21v-65h-502v65l105 23l-164 253l-218 -255l94 -21v-65h-320v65l84 16l300 352l-270 417z"/>
   <glyph glyph-name="y" horiz-adv-x="1024" unicode="y" d="M462 -29l-375.998 879l-66 24v66h481v-66l-112 -26l221 -520l197 522l-110 24v66h307v-66l-68 -20l-371 -913c-42.667 -108.667 -80 -187.5 -112 -236.5s-67.5 -85.667 -106.5 -110s-83.5 -36.5 -133.5 -36.5c-54 0 -109 6.33301 -165 19v242h60l43 -126 c19.333 -15.333 44 -23 74 -23c25.333 0 47.666 6 66.999 18s37.5 29.333 54.5 52s33.167 50.5 48.5 83.5c15.334 33 37.667 82.167 66.999 147.5z"/>
   <glyph glyph-name="z" horiz-adv-x="909" unicode="z" d="M40 0v45l432 805h-107c-37.333 0 -73.333 -3.16699 -108 -9.5s-58.667 -14.833 -72 -25.5l-31 -155h-72v280h730v-49l-432 -801h150c38 0 78 4.5 120 13.5s71.667 20.167 89 33.5l53 217h72l-27 -354h-797z"/>
   <glyph glyph-name="braceleft" horiz-adv-x="807" unicode="{" d="M592 -274c-100 0 -176.833 25.668 -230.5 77.001s-80.5 123.666 -80.5 216.999v295c0 70.667 -17.167 124 -51.5 160s-88.833 55.333 -163.5 58v85c68 2 120.833 19.5 158.5 52.5s56.5 87.5 56.5 163.5v294c0 94 26 166.333 78 217s129.667 76 233 76h135v-87h-62 c-46 0 -78.833 -14.667 -98.5 -44s-29.5 -73 -29.5 -131v-330c0 -62.667 -18.333 -117 -55 -163s-85.667 -75.333 -147 -88v-3c62.667 -14 112 -43.333 148 -88s54 -99.667 54 -165v-334c0 -57.333 9.83301 -100.833 29.5 -130.5s52.5 -44.5 98.5 -44.5h62v-87h-135z"/>
   <glyph glyph-name="bar" horiz-adv-x="451" unicode="|" d="M154 -442v1863h143v-1863h-143z"/>
   <glyph glyph-name="braceright" horiz-adv-x="807" unicode="}" d="M80 -274v86.999h62c46 0 78.833 14.833 98.5 44.5s29.5 73.167 29.5 130.5v334c0 65.333 18 120.333 54 165s85.333 74 148 88v3c-61.333 12.667 -110.333 41.5 -147 86.5s-55 99.833 -55 164.5v330c0 58 -9.83301 101.667 -29.5 131s-52.5 44 -98.5 44h-62v87h135 c103.333 0 181 -25.333 233 -76s78 -123 78 -217v-294c0 -76 18.833 -130.5 56.5 -163.5s90.5 -50.5 158.5 -52.5v-85c-75.333 -2.66699 -130 -22.167 -164 -58.5s-51 -89.5 -51 -159.5v-295c0 -93.333 -27 -165.666 -81 -216.999s-130.667 -77 -230 -77h-135z"/>
   <glyph glyph-name="asciitilde" horiz-adv-x="1065" unicode="~" d="M761 481c-38 0 -77.333 9.83301 -118 29.5s-85.667 50.167 -135 91.5c-57.333 48 -99.833 80.167 -127.5 96.5s-52.5 24.5 -74.5 24.5c-47.333 0 -81.833 -18.5 -103.5 -55.5s-36.834 -99.167 -45.501 -186.5h-141c10 99.333 26 174.333 48 225s52.5 90 91.5 118 s89.167 42 150.5 42c37.333 0 75.833 -9 115.5 -27s87.834 -50 144.501 -96c52 -46 92.333 -77.333 121 -94c28.6689 -16.667 53.3359 -25 74 -25c44 0 77 19.167 99 57.5s38 99.833 48 184.5h144c-13.333 -100.667 -31.333 -176.167 -54 -226.5s-53.167 -89.333 -91.5 -117 s-86.833 -41.5 -145.5 -41.5z"/>
   <glyph glyph-name="uni00A0" horiz-adv-x="512" unicode=" "/>
   <glyph glyph-name="exclamdown" horiz-adv-x="682" unicode="¡" d="M283 512h115l92 -921h-299zM340 961c46 0 85.167 -16 117.5 -48s48.5 -71.333 48.5 -118c0 -46 -16 -85.167 -48 -117.5s-71.333 -48.5 -118 -48.5c-46 0 -85.167 16 -117.5 48s-48.5 71.333 -48.5 118c0 46 16 85.167 48 117.5s71.333 48.5 118 48.5z"/>
   <glyph glyph-name="cent" horiz-adv-x="1024" unicode="¢" d="M927 262c-29.333 -21.333 -67.333 -38.333 -114 -51s-94.667 -20.667 -144 -24v-187h-92v187c-325.333 12.667 -488 176 -488 490c0 102.667 19.667 191 59 265s95.5 130.5 168.5 169.5s159.167 58.5 258.5 58.5h2v171h92v-175c86.667 -6.66699 165.667 -17 237 -31v-278 h-72l-54 165c-34 22 -71 36 -111 42v-754c98 0 184 9.66699 258 29v-77zM380 683c0 -110 16.001 -194.168 48.001 -252.501s81.667 -95.166 149 -110.499v743c-61.334 -12.667 -109.501 -52.667 -144.501 -120s-52.5 -154 -52.5 -260z"/>
   <glyph glyph-name="sterling" horiz-adv-x="1024" unicode="£" d="M960 223v-223h-873v123l71 62c95.333 80 143 161.667 143 245c0 30 -5.5 60.5 -16.5 91.5s-24.167 63.833 -39.5 98.5h-163v101h88c-44.667 100.667 -67 195.667 -67 285c0 112 39.5 198.333 118.5 259s197.167 91 354.5 91c40 0 80.667 -2.33301 122 -7 s104.333 -16.667 189 -36v-305h-87l-43 194c-58 35.333 -118.333 53 -181 53c-119.333 0 -179 -83 -179 -249c0 -89.333 8.66699 -184.333 26 -285h251v-101h-238c9.33301 -59.333 14 -110.333 14 -153c0 -56 -9 -103.333 -27 -142s-39 -73 -63 -103z"/>
   <glyph glyph-name="currency" horiz-adv-x="1024" unicode="¤" d="M735 352c-64.667 -46 -139 -68.999 -223 -68.999c-80 0 -154.333 23 -223 69l-105 -104l-100 102l102 103c-44.667 67.333 -67 141.666 -67 222.999c0 82 22.333 156.333 67 223l-102 105l104 104l101 -107c70 46.667 144.333 70 223 70s153 -23.333 223 -70l105 105 l102 -100l-104 -107c46 -68.667 69 -143 69 -223c0 -79.334 -23 -153.667 -69 -223l104 -103l-100 -102zM512 932.001c-70.667 0 -130.667 -25.167 -180 -75.5s-74 -110.5 -74 -180.5s24.833 -129.833 74.5 -179.5s109.5 -74.5 179.5 -74.5s130.167 24.667 180.5 74 s75.5 109.333 75.5 180s-25 131 -75 181s-110.333 75 -181 75z"/>
   <glyph glyph-name="yen" horiz-adv-x="1024" unicode="¥" d="M2 1275v66h499v-66l-112 -26l206 -540l212 542l-110 24v66h325v-66l-86 -20l-257 -616h226v-102h-244v-138h244v-102h-244v-207l143 -24v-66h-574v66l142 24v207h-257v102h257v138h-257v102h233l-262 612z"/>
   <glyph glyph-name="brokenbar" horiz-adv-x="451" unicode="¦" d="M154 801v620h142v-620h-142zM154 -442v622h142v-622h-142z"/>
   <glyph glyph-name="section" horiz-adv-x="1024" unicode="§" d="M855 42c0 -94.667 -32.5 -167.831 -97.5 -219.498s-158.167 -77.5 -279.5 -77.5c-50.667 0 -106.5 5.5 -167.5 16.5s-107.167 22.5 -138.5 34.5v261h66l38 -132c26 -26 58 -47 96 -63s75.333 -24 112 -24c54 0 95.667 12.5 125 37.5s44 56.833 44 95.5 c0 39.333 -13.833 75.166 -41.5 107.499s-68.834 62.833 -123.501 91.5l-96 50c-71.333 37.333 -123.666 71.333 -156.999 102s-59.166 65.5 -77.499 104.5s-27.5 83.5 -27.5 133.5c0 66.667 19.333 124 58 172s92 82 160 102c-62.667 34 -108.167 73.333 -136.5 118 s-42.5 97.334 -42.5 158.001c0 85.333 31.667 153.333 95 204s145 76 245 76c68.667 0 161 -9.66699 277 -29v-241h-66l-32 110c-19.333 19.3428 -46.5 35.1758 -81.5 47.499c-35 12.333 -68.167 18.5 -99.5 18.5c-48 0 -83.5 -9.83301 -106.5 -29.5 s-34.5 -46.5 -34.5 -80.5c0 -38 13.333 -71.333 40 -100c26.667 -28.6709 69 -55.3379 127 -80.001c105.333 -46 174.5 -79.167 207.5 -99.5s60.833 -43.333 83.5 -69s40 -54.167 52 -85.5s18 -68 18 -110c0 -73.333 -19.833 -136 -59.5 -188s-95.834 -88.667 -168.501 -110 c64.668 -40 112.335 -84.667 143 -134c30.667 -49.333 46 -105.333 46 -168zM692 571.003c0 28.667 -6.49902 53.667 -19.499 75s-32 41 -57 59s-69.833 41 -134.5 69c-42.667 -5.33301 -79 -21.833 -109 -49.5s-45 -57.167 -45 -88.5c0 -28 6.66699 -53.333 20 -76 c13.334 -22.667 32.667 -44 58 -64s70.666 -47.333 135.999 -82c44 8 80.167 27.5 108.5 58.5s42.5 63.833 42.5 98.5z"/>
   <glyph glyph-name="dieresis" horiz-adv-x="682" unicode="¨" d="M510 1130c-32 0 -60.167 11.833 -84.5 35.5s-36.5 52.167 -36.5 85.5s12.167 61.5 36.5 84.5s52.5 34.5 84.5 34.5c32.667 0 60.667 -11.333 84 -34s35 -51 35 -85c0 -33.333 -11.667 -61.833 -35 -85.5s-51.333 -35.5 -84 -35.5zM174 1130 c-32 0 -60.167 12.333 -84.5 37s-36.5 52.667 -36.5 84c0 32 12 59.833 36 83.5s52.333 35.5 85 35.5s60.667 -11.833 84 -35.5s35 -51.5 35 -83.5c0 -33.333 -11.667 -61.833 -35 -85.5s-51.333 -35.5 -84 -35.5z"/>
   <glyph glyph-name="copyright" horiz-adv-x="1530" unicode="©" d="M88 670c0 126 31.166 242.5 93.499 349.5s146.333 190.833 252 251.5s220.5 91 344.5 91c124.667 0 240.334 -30.667 347 -92c106.667 -61.333 190.834 -145.166 252.501 -251.499s92.5 -222.5 92.5 -348.5c0 -123.334 -30.167 -237.834 -90.5 -343.5 c-60.333 -105.667 -144 -189.834 -251 -252.501s-223.833 -94 -350.5 -94c-124 0 -239.333 30.667 -346 92s-190.667 145.333 -252 252s-92 222 -92 346zM812.999 254c-132.667 0 -236.833 37.001 -312.5 111.001s-113.5 173.667 -113.5 299 c0 138.667 36.833 244.167 110.5 316.5s179.5 108.5 317.5 108.5c78.667 0 168 -10 268 -30l4 -207h-69l-19 105c-27.334 16.6738 -54.667 29.3408 -82 38c-27.333 8.66699 -60 13 -98 13c-86.667 0 -148.667 -25.333 -186 -76s-56 -139.334 -56 -266.001 c0 -110 17.833 -192.833 53.5 -248.5s96.5 -83.5 182.5 -83.5c81.333 0 146.333 19.667 195 59l22 119h70l-4 -219c-84.667 -26 -179 -39 -283 -39zM778 1278c-107.333 0 -207.333 -27.001 -300 -81.001s-165.834 -128 -219.501 -222s-80.5 -195.667 -80.5 -305 c0 -108.667 26.833 -210.167 80.5 -304.5s126.667 -168.333 219 -222s192.5 -80.5 300.5 -80.5c106.667 0 206.5 26.833 299.5 80.5s166.667 127.834 221 222.501s81.5 196 81.5 304s-26.667 208.833 -80 302.5s-126.166 168 -218.499 223s-193.5 82.5 -303.5 82.5z"/>
   <glyph glyph-name="ordfeminine" horiz-adv-x="614" unicode="ª" d="M323 1362c66.667 0 119.331 -15.667 157.998 -47s58 -74.333 58 -129v-336l56 -15v-49h-214l-7 43c-17.333 -17.333 -40.333 -30.833 -69 -40.5s-58 -14.5 -88 -14.5c-126 0 -189 56 -189 168c0 59.333 21 104.166 63 134.499s112.667 46.5 212 48.5l62 2v69 c0 33.333 -9.16699 58.333 -27.5 75s-41.5 25 -69.5 25c-22 0 -40.167 -3 -54.5 -9c-14.334 -6 -30.167 -13.333 -47.5 -22l-23 -77h-49v153c70.667 10.667 119.834 16.834 147.501 18.501s54.834 2.5 81.501 2.5zM364.997 1064l-56.001 -2.00098 c-41.333 -1.33301 -69.666 -11.166 -84.999 -29.499s-23 -47.5 -23 -87.5c0 -59.333 21 -89 63 -89c31.333 0 65 9 101 27v181z"/>
   <glyph glyph-name="guillemotleft" horiz-adv-x="1024" unicode="«" d="M106 496l330 356h101l-183 -389l183 -389h-101l-330 356v66zM516 496l330 356h100l-182 -389l182 -389h-100l-330 356v66z"/>
   <glyph glyph-name="logicalnot" horiz-adv-x="1167" unicode="¬" d="M1055 752v-549h-142v405h-811v144h953z"/>
   <glyph glyph-name="uni00AD" horiz-adv-x="682" unicode="­" d="M75 395v174h532v-174h-532z"/>
   <glyph glyph-name="registered" horiz-adv-x="1530" unicode="®" d="M1470 670c0 -123.334 -30.168 -237.834 -90.501 -343.5c-60.333 -105.667 -144 -189.834 -251 -252.501s-223.833 -94 -350.5 -94c-124 0 -239.333 30.667 -346 92s-190.667 145.333 -252 252s-92 222 -92 346c0 126 31.167 242.5 93.5 349.5s146.333 190.833 252 251.5 s220.5 91 344.5 91c124.667 0 240.334 -30.667 347 -92c106.667 -61.333 190.834 -145.166 252.501 -251.499s92.5 -222.5 92.5 -348.5zM966.999 276l-230 343.001h-49v-269l94 -16v-58h-346v58l76 16v660l-84 16v55h350c104 0 182.667 -19.167 236 -57.5 s80 -92.833 80 -163.5c0 -51.333 -15.167 -96.333 -45.5 -135s-74.833 -67.334 -133.5 -86.001l207 -289l70 -16v-58h-225zM910.999 858.001c0 54.667 -14 93 -42 115s-82 33 -162 33h-19v-312h23c69.333 0 120 12 152 36s48 66.667 48 128zM777.999 1278 c-107.333 0 -207.334 -27.001 -300.001 -81.001s-165.834 -128 -219.5 -222c-53.667 -94 -80.5 -195.667 -80.5 -305c0 -108.667 26.833 -210.167 80.5 -304.5s126.667 -168.333 219 -222s192.5 -80.5 300.5 -80.5c106.667 0 206.5 26.833 299.5 80.5 s166.667 127.834 221 222.501s81.5 196 81.5 304s-26.667 208.833 -80 302.5s-126.166 168 -218.499 223s-193.5 82.5 -303.5 82.5z"/>
   <glyph glyph-name="overscore" horiz-adv-x="1024" unicode="¯" d="M1042 1392h-1059v149h1059v-149z"/>
   <glyph glyph-name="degree" horiz-adv-x="819" unicode="°" d="M98 1051c0 55.333 13.668 107 41.001 155s65.166 86 113.499 114c48.334 28 100.167 42 155.5 42s107 -13.833 155 -41.5s86 -65.5 114 -113.5s42 -100 42 -156s-14.167 -108.167 -42.5 -156.5s-66.5 -86 -114.5 -113s-99.333 -40.5 -154 -40.5 c-86.667 0 -160 30 -220 90s-90 133.333 -90 220zM407.001 1250c-53.333 0 -98.333 -19.168 -135 -57.501s-55 -86.166 -55 -143.499c0 -55.333 18.5 -102.333 55.5 -141s81.833 -58 134.5 -58c54 0 99.5 19.333 136.5 58s55.5 85.667 55.5 141 c0 57.3379 -18.333 105.171 -55 143.5c-36.667 38.333 -82.334 57.5 -137 57.5z"/>
   <glyph glyph-name="plusminus" horiz-adv-x="1124" unicode="±" d="M633 608v-405h-143v405h-404v144h404v405h143v-405h406v-144h-406zM1039 141v-141h-953v141h953z"/>
   <glyph glyph-name="twosuperior" horiz-adv-x="614" unicode="²" d="M566 536h-510v113c51.333 55.333 96.666 102.333 135.999 141c39.333 38.668 72.333 75.335 99 110c26.667 34.667 46.834 70.667 60.501 108s20.5 82.333 20.5 135c0 44 -9.66699 77.5 -29 100.5s-46.666 34.5 -81.999 34.5s-65.333 -10.333 -90 -31l-26 -116h-62v193 c75.333 17.333 139.666 26 192.999 26c88.667 0 156.5 -18.333 203.5 -55c47 -36.6709 70.5 -88.3379 70.5 -155c0 -45.333 -7.33301 -86 -22 -122s-38.5 -71.5 -71.5 -106.5s-84.833 -81.5 -155.5 -139.5l-110 -95h375v-141z"/>
   <glyph glyph-name="threesuperior" horiz-adv-x="614" unicode="³" d="M571 754c0 -72.667 -25.6689 -129.333 -77.002 -170s-124.666 -61 -219.999 -61c-79.333 0 -153.333 8 -222 24l-7 205h65l32 -132c30 -17.333 63 -26 99 -26c99.333 0 149 55.333 149 166c0 46.667 -10.5 82.5 -31.5 107.5s-56.833 39.167 -107.5 42.5l-64 4v83l62 4 c36 2.66699 62.333 15 79 37s25 57 25 105c0 89.333 -37 134 -111 134c-25.333 0 -52.666 -9.33301 -81.999 -28l-26 -119h-62v193c68 17.333 132.333 26 193 26c180 0 270 -66 270 -198c0 -50.667 -13.167 -93.5 -39.5 -128.5s-68.5 -57.167 -126.5 -66.5 c69.333 -8.66699 120.333 -29.5 153 -62.5s49 -79.5 49 -139.5z"/>
   <glyph glyph-name="acute" horiz-adv-x="682" unicode="´" d="M145 1118v33l166 272h285v-37l-365 -268h-86z"/>
   <glyph glyph-name="mu1" horiz-adv-x="1180" unicode="µ" d="M768 92c-42 -42 -80.499 -71.166 -115.499 -87.499s-71.167 -24.5 -108.5 -24.5c-60 0 -108 17.333 -144 52c0 -73.333 -4.33301 -229.333 -13 -468h-282v45c16 173.333 24 338 24 494v746l-94 25v66h383v-652c0 -60.667 12.667 -104.834 38 -132.501 c25.334 -27.667 64.334 -41.5 117 -41.5c63.333 0 126.666 26.333 189.999 79v656l-86 25v66h375v-850l92 -25v-65h-357z"/>
   <glyph glyph-name="paragraph" horiz-adv-x="1106" unicode="¶" d="M936 1245v-1503h-140v1503h-135v-1503h-140v803c-129.334 4.66797 -232.334 42.835 -309 114.501c-76.667 71.667 -115 169.167 -115 292.5c0 124 37.667 219.833 113 287.5s182.333 101.5 321 101.5h488v-73z"/>
   <glyph glyph-name="middot" horiz-adv-x="683" unicode="·" d="M341 511c-46 0 -85.167 16 -117.5 48s-48.5 71.333 -48.5 118c0 46 16 85.167 48 117.5s71.333 48.5 118 48.5c46 0 85.167 -16 117.5 -48s48.5 -71.333 48.5 -118c0 -46 -16 -85.167 -48 -117.5s-71.333 -48.5 -118 -48.5z"/>
   <glyph glyph-name="cedilla" horiz-adv-x="682" unicode="¸" d="M283 -422c-60 0 -113.333 10.333 -160 31v90c48 -12.667 93 -19 135 -19c61.333 0 92 28.667 92 86c0 29.333 -10.333 51.833 -31 67.5s-54 25.167 -100 28.5l51 195h111l-23 -110c123.333 -18 185 -74 185 -168c0 -62.666 -24 -111.833 -72 -147.5 s-110.667 -53.5 -188 -53.5z"/>
   <glyph glyph-name="onesuperior" horiz-adv-x="614" unicode="¹" d="M393 616l140 -14v-67h-457v67l139 14v577l-139 -46v66l227 134h90v-731z"/>
   <glyph glyph-name="ordmasculine" horiz-adv-x="676" unicode="º" d="M618 1067c0 -96 -23.5 -169.5 -70.5 -220.5s-118.167 -76.5 -213.5 -76.5c-90 0 -158.667 25.167 -206 75.5s-71 124.166 -71 221.499c0 96 23.667 169 71 219s117.333 75 210 75c90 0 159.167 -24.667 207.5 -74s72.5 -122.666 72.5 -219.999zM442 1067 c0 148.667 -35.667 223 -107 223c-35.333 0 -61.166 -17.667 -77.499 -53s-24.5 -92 -24.5 -170c0 -78.667 8.16699 -136.167 24.5 -172.5s42.166 -54.5 77.499 -54.5c36 0 62.833 18.167 80.5 54.5s26.5 93.833 26.5 172.5z"/>
   <glyph glyph-name="guillemotright" horiz-adv-x="1024" unicode="»" d="M918 430l-330 -356h-101l183 389l-183 389h101l330 -356v-66zM508 430l-330 -356h-100l182 389l-182 389h100l330 -356v-66z"/>
   <glyph glyph-name="onequarter" horiz-adv-x="1536" unicode="¼" d="M386 0h-123l965 1341h120zM403 616l140 -14v-67h-457v67l139 14v577l-139 -46v66l227 134h90v-731zM1318 157v-159h-168v159h-327v98l361 552h134v-527h80v-123h-80zM1150 613h-3l-215 -333h218v333z"/>
   <glyph glyph-name="onehalf" horiz-adv-x="1536" unicode="½" d="M389 0h-123l965 1341h120zM396 616l140 -14v-67h-457v67l139 14v577l-139 -46v66l227 134h90v-731zM1457 2h-510v113c51.333 55.333 96.666 102.333 135.999 141s72.333 75.334 99 110.001s46.834 70.667 60.501 108s20.5 82.333 20.5 135c0 44 -9.66699 77.5 -29 100.5 s-46.666 34.5 -81.999 34.5s-65.333 -10.333 -90 -31l-26 -116h-62v193c75.335 17.333 139.668 26 192.999 26c88.667 0 156.5 -18.333 203.5 -55s70.5 -88.334 70.5 -155.001c0 -45.333 -7.33301 -86 -22 -122s-38.5 -71.5 -71.5 -106.5s-84.833 -81.5 -155.5 -139.5 l-110 -95h375v-141z"/>
   <glyph glyph-name="threequarters" horiz-adv-x="1536" unicode="¾" d="M386 0h-123l965 1341h120zM622 754c0 -72.667 -25.668 -129.333 -77.001 -170s-124.666 -61 -219.999 -61c-79.333 0 -153.333 8 -222 24l-7 205h65l32 -132c30 -17.333 63 -26 99 -26c99.333 0 149 55.333 149 166c0 46.667 -10.5 82.5 -31.5 107.5 s-56.833 39.167 -107.5 42.5l-64 4v83l62 4c36 2.66699 62.333 15 79 37s25 57 25 105c0 89.333 -37 134 -111 134c-25.333 0 -52.666 -9.33301 -81.999 -28l-26 -119h-62v193c68 17.333 132.333 26 193 26c180 0 270 -66 270 -198c0 -50.667 -13.167 -93.5 -39.5 -128.5 c-26.334 -35 -68.501 -57.167 -126.501 -66.5c69.334 -8.66699 120.334 -29.5 153 -62.5c32.667 -33 49 -79.5 49 -139.5zM1339 157.001v-159h-168v159h-327v98l361 552h134v-527h80v-123h-80zM1171 613.001h-3l-215 -333h218v333z"/>
   <glyph glyph-name="questiondown" horiz-adv-x="1024" unicode="¿" d="M581 961c46.668 0 85.8369 -16 117.502 -48c31.667 -32 47.5 -71.333 47.5 -118s-15.833 -86 -47.5 -118s-70.834 -48 -117.501 -48c-46 0 -85.167 16 -117.5 48s-48.5 71.333 -48.5 118c0 46 16 85.167 48 117.5s71.333 48.5 117.999 48.5zM535.002 542 l102.999 -0.00195312l57 -313l-95 -25c-69.334 -18 -117.834 -48.5 -145.5 -91.5c-27.667 -43 -41.5 -101.167 -41.5 -174.5c0 -91.333 16 -157.5 48 -198.5s85.333 -61.5 160 -61.5c56 0 105.667 14 149 42l43 194h89v-295c-110.667 -28.667 -218.667 -43 -324 -43 c-302.667 0 -454 118.333 -454 355c0 96.667 25.833 178.334 77.5 245.001s124.834 113.334 219.501 140.001l87 24z"/>
   <glyph glyph-name="Agrave" horiz-adv-x="1479" unicode="À" d="M428 73v-73h-408v73l100 27l477 1252h290l475 -1252l102 -27v-73h-597v73l155 27l-128 347h-515l-123 -347zM641 1150l-221 -593h436zM815 1452l-364 268v37h285l165 -273v-32h-86z"/>
   <glyph glyph-name="Aacute" horiz-adv-x="1479" unicode="Á" d="M428 73v-73h-408v73l100 27l477 1252h290l475 -1252l102 -27v-73h-597v73l155 27l-128 347h-515l-123 -347zM641 1150l-221 -593h436zM602 1452v33l166 272h285v-37l-365 -268h-86z"/>
   <glyph glyph-name="Acircumflex" horiz-adv-x="1479" unicode="Â" d="M428 73v-73h-408v73l100 27l477 1252h290l475 -1252l102 -27v-73h-597v73l155 27l-128 347h-515l-123 -347zM641 1150l-221 -593h436zM416 1452v33l218 293h213l217 -293v-33h-76l-248 162l-248 -162h-76z"/>
   <glyph glyph-name="Atilde" horiz-adv-x="1479" unicode="Ã" d="M428 73v-73h-408v73l100 27l477 1252h290l475 -1252l102 -27v-73h-597v73l155 27l-128 347h-515l-123 -347zM641 1150l-221 -593h436zM854 1454c-56.667 0 -122.333 29.333 -197 88c-38 30 -68 45 -90 45c-22.667 0 -38.334 -7.5 -47.001 -22.5s-16 -45.833 -22 -92.5 h-105c7.33301 102.667 28.833 176.167 64.5 220.5s85.834 66.5 150.501 66.5c32.667 0 62.167 -6 88.5 -18s62.833 -34.667 109.5 -68c40.668 -30 70.335 -45 89 -45c12.668 0 22.835 2.16699 30.5 6.5c7.66699 4.33301 14 11.5 19 21.5s11.5 38 19.5 84h105 c-7.33301 -101.333 -28.5 -174.333 -63.5 -219s-85.5 -67 -151.5 -67z"/>
   <glyph glyph-name="Adieresis" horiz-adv-x="1479" unicode="Ä" d="M428 73v-73h-408v73l100 27l477 1252h290l475 -1252l102 -27v-73h-597v73l155 27l-128 347h-515l-123 -347zM641 1150l-221 -593h436zM905 1464c-32 0 -60.167 11.833 -84.5 35.5s-36.5 52.167 -36.5 85.5s12.167 61.5 36.5 84.5s52.5 34.5 84.5 34.5 c32.667 0 60.667 -11.333 84 -34s35 -51 35 -85c0 -33.333 -11.667 -61.833 -35 -85.5s-51.333 -35.5 -84 -35.5zM569 1464c-32 0 -60.167 12.333 -84.5 37s-36.5 52.667 -36.5 84c0 32 12 59.833 36 83.5s52.333 35.5 85 35.5s60.667 -11.833 84 -35.5s35 -51.5 35 -83.5 c0 -33.333 -11.667 -61.833 -35 -85.5s-51.333 -35.5 -84 -35.5z"/>
   <glyph glyph-name="Aring" horiz-adv-x="1479" unicode="Å" d="M428 73v-73h-408v73l100 27l477 1252h290l475 -1252l102 -27v-73h-597v73l155 27l-128 347h-515l-123 -347zM641 1150l-221 -593h436zM732 1272c-58 0 -107.667 20.499 -149 61.499s-62 91.5 -62 151.5s20.5 110.167 61.5 150.5s90.833 60.5 149.5 60.5 s108.5 -20.167 149.5 -60.5s61.5 -90.5 61.5 -150.5c0 -59.333 -20.5 -109.666 -61.5 -150.999s-90.833 -62 -149.5 -62zM732 1584c-26 0 -48.833 -9.83301 -68.5 -29.5c-19.667 -19.6729 -29.5 -42.8398 -29.5 -69.501c0 -26 9.83301 -48.833 29.5 -68.5 s42.5 -29.5 68.5 -29.5s48.833 9.83301 68.5 29.5s29.5 42.5 29.5 68.5c0 26.667 -10 49.834 -30 69.501s-42.667 29.5 -68 29.5z"/>
   <glyph glyph-name="AE" horiz-adv-x="2048" unicode="Æ" d="M827 1252l-143 18v71h1174v-341h-91l-32 217c-74.667 9.33301 -162.667 14 -264 14h-200v-492h283l31 148h89v-412h-89l-31 152h-283v-517h245c132 0 224.667 5.33301 278 16l57 248h91l-19 -374h-1139v73l172 27v347h-461l-205 -347l152 -27v-73h-428v73l122 27z M956 557v679l-396 -679h396z"/>
   <glyph glyph-name="Ccedilla" horiz-adv-x="1479" unicode="Ç" d="M815 -20c-224.667 0 -399.998 59.667 -525.998 179s-189 284.666 -189 495.999c0 229.333 60.167 403.5 180.5 522.5s298.166 178.5 533.499 178.5c155.333 0 316.333 -22.333 483 -67l6 -322h-90l-28 194c-88 60 -190.333 90 -307 90 c-154.667 0 -267.667 -48.167 -339 -144.5s-107 -245.833 -107 -448.5c0 -187.333 37.333 -330 112 -428s183.334 -147 326 -147c75.333 0 141.166 10 197.499 30s100.5 43.667 132.5 71l32 220h91l-6 -340c-60 -23.333 -138 -43.166 -234 -59.499 s-185.333 -24.5 -268 -24.5zM740.002 -422c-60 0 -113.333 10.333 -160 31v90c48 -12.667 93 -19 135 -19c61.333 0 92 28.667 92 86c0 29.333 -10.333 51.833 -31 67.5s-54 25.167 -100 28.5l51 195h111l-23 -110c123.333 -18 185 -74 185 -168 c0 -62.666 -24 -111.833 -72 -147.5s-110.667 -53.5 -188 -53.5z"/>
   <glyph glyph-name="Egrave" horiz-adv-x="1366" unicode="È" d="M35 73l172 27v1142l-172 26v73h1142v-341h-91l-32 217c-74.667 9.33301 -182.667 14 -324 14h-208v-492h351l31 148h89v-412h-89l-31 152h-351v-517h253c172.001 0 284.668 5.33301 338 16l57 248h91l-19 -374h-1207v73zM794 1452l-364 268v37h285l165 -273v-32h-86z"/>
   <glyph glyph-name="Eacute" horiz-adv-x="1366" unicode="É" d="M35 73l172 27v1142l-172 26v73h1142v-341h-91l-32 217c-74.667 9.33301 -182.667 14 -324 14h-208v-492h351l31 148h89v-412h-89l-31 152h-351v-517h253c172.001 0 284.668 5.33301 338 16l57 248h91l-19 -374h-1207v73zM538 1452v33l166 272h285v-37l-365 -268h-86z"/>
   <glyph glyph-name="Ecircumflex" horiz-adv-x="1366" unicode="Ê" d="M35 73l172 27v1142l-172 26v73h1142v-341h-91l-32 217c-74.667 9.33301 -182.667 14 -324 14h-208v-492h351l31 148h89v-412h-89l-31 152h-351v-517h253c172.001 0 284.668 5.33301 338 16l57 248h91l-19 -374h-1207v73zM358 1452v33l218 293h213l217 -293v-33h-76 l-248 162l-248 -162h-76z"/>
   <glyph glyph-name="Edieresis" horiz-adv-x="1366" unicode="Ë" d="M35 73l172 27v1142l-172 26v73h1142v-341h-91l-32 217c-74.667 9.33301 -182.667 14 -324 14h-208v-492h351l31 148h89v-412h-89l-31 152h-351v-517h253c172.001 0 284.668 5.33301 338 16l57 248h91l-19 -374h-1207v73zM852 1464c-32 0 -60.167 11.833 -84.5 35.5 s-36.5 52.167 -36.5 85.5s12.167 61.5 36.5 84.5s52.5 34.5 84.5 34.5c32.667 0 60.667 -11.333 84 -34s35 -51 35 -85c0 -33.333 -11.667 -61.833 -35 -85.5s-51.333 -35.5 -84 -35.5zM516 1464c-32 0 -60.167 12.333 -84.5 37s-36.5 52.667 -36.5 84 c0 32 12 59.833 36 83.5s52.333 35.5 85 35.5s60.667 -11.833 84 -35.5s35 -51.5 35 -83.5c0 -33.333 -11.667 -61.833 -35 -85.5s-51.333 -35.5 -84 -35.5z"/>
   <glyph glyph-name="Igrave" horiz-adv-x="797" unicode="Ì" d="M556 100l172 -26v-74h-659v74l172 26v1141l-172 27v73h659v-73l-172 -27v-1141zM503 1452l-364 268v37h285l165 -273v-32h-86z"/>
   <glyph glyph-name="Iacute" horiz-adv-x="797" unicode="Í" d="M556 100l172 -26v-74h-659v74l172 26v1141l-172 27v73h659v-73l-172 -27v-1141zM238 1452v33l166 272h285v-37l-365 -268h-86z"/>
   <glyph glyph-name="Icircumflex" horiz-adv-x="797" unicode="Î" d="M556 100l172 -26v-74h-659v74l172 26v1141l-172 27v73h659v-73l-172 -27v-1141zM71 1452v33l218 293h213l217 -293v-33h-76l-248 162l-248 -162h-76z"/>
   <glyph glyph-name="Idieresis" horiz-adv-x="797" unicode="Ï" d="M556 100l172 -26v-74h-659v74l172 26v1141l-172 27v73h659v-73l-172 -27v-1141zM565 1464c-32 0 -60.167 11.833 -84.5 35.5s-36.5 52.167 -36.5 85.5s12.167 61.5 36.5 84.5s52.5 34.5 84.5 34.5c32.667 0 60.667 -11.333 84 -34s35 -51 35 -85 c0 -33.333 -11.667 -61.833 -35 -85.5s-51.333 -35.5 -84 -35.5zM229 1464c-32 0 -60.167 12.333 -84.5 37s-36.5 52.667 -36.5 84c0 32 12 59.833 36 83.5s52.333 35.5 85 35.5s60.667 -11.833 84 -35.5s35 -51.5 35 -83.5c0 -33.333 -11.667 -61.833 -35 -85.5 s-51.333 -35.5 -84 -35.5z"/>
   <glyph glyph-name="Eth" horiz-adv-x="1479" unicode="Ð" d="M695 1341c240.667 0 418.5 -54.5 533.5 -163.5s172.5 -275.5 172.5 -499.5c0 -230 -55 -401.167 -165 -513.5s-276.333 -168.5 -499 -168.5l-449 4h-208v73l150 27v509h-179v122h179v511l-172 26v73h637zM1069 670c0 193.333 -35.332 335.167 -105.999 425.5 s-185.667 135.5 -345 135.5h-74v-500h256v-122h-256v-495c64 -5.33301 122 -8 174 -8c86.667 0 155.167 18.667 205.5 56s87.166 95.833 110.499 175.5s35 190.5 35 332.5z"/>
   <glyph glyph-name="Ntilde" horiz-adv-x="1479" unicode="Ñ" d="M1155 1242l-180 26v73h477v-73l-172 -26v-1242h-117l-827 1078v-978l180 -27v-73h-477v73l172 27v1142l-172 26v73h459l657 -857v758zM874 1454c-56.667 0 -122.332 29.333 -196.999 88c-38 30 -68 45 -90 45c-22.667 0 -38.334 -7.5 -47.001 -22.5 s-16 -45.833 -22 -92.5h-105c7.33301 102.667 28.833 176.167 64.5 220.5s85.834 66.5 150.5 66.5c32.667 0 62.167 -6 88.5 -18s62.833 -34.667 109.5 -68c40.668 -30 70.335 -45 89 -45c12.6738 0 22.8408 2.16699 30.5 6.5c7.66699 4.33301 14 11.5 19 21.5 s11.5 38 19.5 84h105c-7.33301 -101.333 -28.5 -174.333 -63.5 -219s-85.5 -67 -151.5 -67z"/>
   <glyph glyph-name="Ograve" horiz-adv-x="1593" unicode="Ò" d="M432 672c0 -212.667 29.167 -364.5 87.5 -455.5s150.833 -136.5 277.5 -136.5c126 0 218.167 45.667 276.5 137s87.5 243 87.5 455c0 211.333 -29.167 361.333 -87.5 450s-150.5 133 -276.5 133c-126.667 0 -219.167 -44.333 -277.5 -133s-87.5 -238.667 -87.5 -450z M100 672c0 456 232.335 684.001 697.002 684.001c229.334 0 402.667 -57.833 519.999 -173.5c117.333 -115.667 176 -285.834 176 -510.501c0 -227.333 -59.333 -399.5 -178 -516.5s-291.334 -175.5 -518.001 -175.5c-226 0 -398.667 58.333 -518 175s-179 289 -179 517z M855.002 1452l-364 268v37h285l165 -273v-32h-86z"/>
   <glyph glyph-name="Oacute" horiz-adv-x="1593" unicode="Ó" d="M432 672c0 -212.667 29.167 -364.5 87.5 -455.5s150.833 -136.5 277.5 -136.5c126 0 218.167 45.667 276.5 137s87.5 243 87.5 455c0 211.333 -29.167 361.333 -87.5 450s-150.5 133 -276.5 133c-126.667 0 -219.167 -44.333 -277.5 -133s-87.5 -238.667 -87.5 -450z M100 672c0 456 232.335 684.001 697.002 684.001c229.334 0 402.667 -57.833 519.999 -173.5c117.333 -115.667 176 -285.834 176 -510.501c0 -227.333 -59.333 -399.5 -178 -516.5s-291.334 -175.5 -518.001 -175.5c-226 0 -398.667 58.333 -518 175s-179 289 -179 517z M695.002 1452v33l166 272h285v-37l-365 -268h-86z"/>
   <glyph glyph-name="Ocircumflex" horiz-adv-x="1593" unicode="Ô" d="M432 672c0 -212.667 29.167 -364.5 87.5 -455.5s150.833 -136.5 277.5 -136.5c126 0 218.167 45.667 276.5 137s87.5 243 87.5 455c0 211.333 -29.167 361.333 -87.5 450s-150.5 133 -276.5 133c-126.667 0 -219.167 -44.333 -277.5 -133s-87.5 -238.667 -87.5 -450z M100 672c0 456 232.335 684.001 697.002 684.001c229.334 0 402.667 -57.833 519.999 -173.5c117.333 -115.667 176 -285.834 176 -510.501c0 -227.333 -59.333 -399.5 -178 -516.5s-291.334 -175.5 -518.001 -175.5c-226 0 -398.667 58.333 -518 175s-179 289 -179 517z M473.002 1452v33l218 293h213l217 -293v-33h-76l-248 162l-248 -162h-76z"/>
   <glyph glyph-name="Otilde" horiz-adv-x="1593" unicode="Õ" d="M432 672c0 -212.667 29.167 -364.5 87.5 -455.5s150.833 -136.5 277.5 -136.5c126 0 218.167 45.667 276.5 137s87.5 243 87.5 455c0 211.333 -29.167 361.333 -87.5 450s-150.5 133 -276.5 133c-126.667 0 -219.167 -44.333 -277.5 -133s-87.5 -238.667 -87.5 -450z M100 672c0 456 232.335 684.001 697.002 684.001c229.334 0 402.667 -57.833 519.999 -173.5c117.333 -115.667 176 -285.834 176 -510.501c0 -227.333 -59.333 -399.5 -178 -516.5s-291.334 -175.5 -518.001 -175.5c-226 0 -398.667 58.333 -518 175s-179 289 -179 517z M918.002 1454c-56.667 0 -122.333 29.333 -197 88c-38 30 -68 45 -90 45c-22.667 0 -38.334 -7.5 -47.001 -22.5s-16 -45.833 -22 -92.5h-105c7.33301 102.667 28.833 176.167 64.5 220.5s85.834 66.5 150.5 66.5c32.667 0 62.167 -6 88.5 -18s62.833 -34.667 109.5 -68 c40.668 -30 70.335 -45 89 -45c12.6689 0 22.8359 2.16699 30.501 6.5c7.66699 4.33301 14 11.5 19 21.5s11.5 38 19.5 84h105c-7.33301 -101.333 -28.5 -174.333 -63.5 -219s-85.5 -67 -151.5 -67z"/>
   <glyph glyph-name="Odieresis" horiz-adv-x="1593" unicode="Ö" d="M432 672c0 -212.667 29.167 -364.5 87.5 -455.5s150.833 -136.5 277.5 -136.5c126 0 218.167 45.667 276.5 137s87.5 243 87.5 455c0 211.333 -29.167 361.333 -87.5 450s-150.5 133 -276.5 133c-126.667 0 -219.167 -44.333 -277.5 -133s-87.5 -238.667 -87.5 -450z M100 672c0 456 232.335 684.001 697.002 684.001c229.334 0 402.667 -57.833 519.999 -173.5c117.333 -115.667 176 -285.834 176 -510.501c0 -227.333 -59.333 -399.5 -178 -516.5s-291.334 -175.5 -518.001 -175.5c-226 0 -398.667 58.333 -518 175s-179 289 -179 517z M971.002 1464c-32 0 -60.167 11.833 -84.5 35.5s-36.5 52.167 -36.5 85.5s12.167 61.5 36.5 84.5s52.5 34.5 84.5 34.5c32.6709 0 60.6709 -11.333 84 -34c23.333 -22.667 35 -51 35 -85c0 -33.333 -11.667 -61.833 -35 -85.5s-51.333 -35.5 -84 -35.5zM635.002 1464 c-32 0 -60.167 12.333 -84.5 37s-36.5 52.667 -36.5 84c0 32 12 59.833 36 83.5s52.333 35.5 85 35.5s60.667 -11.833 84 -35.5s35 -51.5 35 -83.5c0 -33.333 -11.667 -61.833 -35 -85.5s-51.333 -35.5 -84 -35.5z"/>
   <glyph glyph-name="multiply" horiz-adv-x="1167" unicode="×" d="M578 578l-325 -324l-101 102l324 326l-324 322l104 104l322 -324l326 324l101 -102l-324 -324l324 -326l-101 -102z"/>
   <glyph glyph-name="Oslash" horiz-adv-x="1593" unicode="Ø" d="M291 144c-127.333 116.667 -190.999 292.667 -190.999 528c0 456 232.333 684 697 684c168 0 306.667 -31.667 416 -95l108 130h145l-162 -197c126 -115.333 189 -289.333 189 -522c0 -227.333 -59.333 -399.5 -178 -516.5s-291.334 -175.5 -518.001 -175.5 c-165.333 0 -303.333 31.667 -414 95l-107 -130h-149zM432.001 672c0 -132.667 10.333 -239 31 -319l621 751c-57.333 100.667 -153 151 -287 151c-126.667 0 -219.167 -44.333 -277.5 -133s-87.5 -238.667 -87.5 -450zM1161 672c0 129.333 -10.332 233 -30.999 311 l-619 -752c57.333 -100.667 152.666 -151 285.999 -151c126 0 218.167 45.667 276.5 137s87.5 243 87.5 455z"/>
   <glyph glyph-name="Ugrave" horiz-adv-x="1479" unicode="Ù" d="M838 122c100 0 177.333 28 232 84s82 138.333 82 247v789l-180 26v73h456v-73l-152 -26v-781c0 -154.667 -44.667 -273.334 -134 -356.001s-217 -124 -383 -124c-179.333 0 -316.833 41.833 -412.5 125.5s-143.5 204.5 -143.5 362.5v773l-152 26v73h639v-73l-172 -26 v-787c0 -107.333 27.167 -189.666 81.5 -246.999s133.833 -86 238.5 -86zM849 1452l-364 268v37h285l165 -273v-32h-86z"/>
   <glyph glyph-name="Uacute" horiz-adv-x="1479" unicode="Ú" d="M838 122c100 0 177.333 28 232 84s82 138.333 82 247v789l-180 26v73h456v-73l-152 -26v-781c0 -154.667 -44.667 -273.334 -134 -356.001s-217 -124 -383 -124c-179.333 0 -316.833 41.833 -412.5 125.5s-143.5 204.5 -143.5 362.5v773l-152 26v73h639v-73l-172 -26 v-787c0 -107.333 27.167 -189.666 81.5 -246.999s133.833 -86 238.5 -86zM706 1452v33l166 272h285v-37l-365 -268h-86z"/>
   <glyph glyph-name="Ucircumflex" horiz-adv-x="1479" unicode="Û" d="M838 122c100 0 177.333 28 232 84s82 138.333 82 247v789l-180 26v73h456v-73l-152 -26v-781c0 -154.667 -44.667 -273.334 -134 -356.001s-217 -124 -383 -124c-179.333 0 -316.833 41.833 -412.5 125.5s-143.5 204.5 -143.5 362.5v773l-152 26v73h639v-73l-172 -26 v-787c0 -107.333 27.167 -189.666 81.5 -246.999s133.833 -86 238.5 -86zM478 1452v33l218 293h213l217 -293v-33h-76l-248 162l-248 -162h-76z"/>
   <glyph glyph-name="Udieresis" horiz-adv-x="1479" unicode="Ü" d="M838 122c100 0 177.333 28 232 84s82 138.333 82 247v789l-180 26v73h456v-73l-152 -26v-781c0 -154.667 -44.667 -273.334 -134 -356.001s-217 -124 -383 -124c-179.333 0 -316.833 41.833 -412.5 125.5s-143.5 204.5 -143.5 362.5v773l-152 26v73h639v-73l-172 -26 v-787c0 -107.333 27.167 -189.666 81.5 -246.999s133.833 -86 238.5 -86zM965 1464c-32 0 -60.167 11.833 -84.5 35.5s-36.5 52.167 -36.5 85.5s12.167 61.5 36.5 84.5s52.5 34.5 84.5 34.5c32.6689 0 60.6689 -11.333 84 -34c23.333 -22.667 35 -51 35 -85 c0 -33.333 -11.667 -61.833 -35 -85.5s-51.333 -35.5 -84 -35.5zM629 1464c-32 0 -60.167 12.333 -84.5 37s-36.5 52.667 -36.5 84c0 32 12 59.833 36 83.5s52.333 35.5 85 35.5s60.667 -11.833 84 -35.5s35 -51.5 35 -83.5c0 -33.333 -11.667 -61.833 -35 -85.5 s-51.333 -35.5 -84 -35.5z"/>
   <glyph glyph-name="Yacute" horiz-adv-x="1479" unicode="Ý" d="M911 528v-428l213 -27v-73h-742v73l213 27v422l-408 720l-151 26v73h690v-73l-180 -26l306 -562l296 562l-164 26v73h456v-73l-142 -26zM643 1452v33l166 272h285v-37l-365 -268h-86z"/>
   <glyph glyph-name="Thorn" horiz-adv-x="1251" unicode="Þ" d="M530 100l172 -26v-74h-659v74l172 26v1141l-172 27v73h659v-73l-172 -27v-158h56c190 0 332 -31.833 426 -95.5s141 -163.5 141 -299.5c0 -280 -163.333 -420 -490 -420h-133v-168zM831 686c0 106.667 -19.833 181.167 -59.5 223.5s-109.5 63.5 -209.5 63.5h-32v-595h36 c92.667 0 160 23.333 202 70s63 126 63 238z"/>
   <glyph glyph-name="germandbls" horiz-adv-x="1139" unicode="ß" d="M537 785c0 60 14.998 113.169 44.998 159.502s71.333 80.166 124 101.499c-4 99.333 -17.667 173.333 -41 222s-61 73 -113 73c-51.333 0 -87.166 -26.833 -107.499 -80.5s-30.5 -156.5 -30.5 -308.5v-952h-371v66l82 24v862c0 167.333 35.667 290.833 107 370.5 s180 119.5 326 119.5c283.334 0 429.001 -152.333 437.001 -457c-68.667 0 -120.667 -12.333 -156 -37s-53 -60.334 -53 -107.001c0 -37.333 9.16699 -73.5 27.5 -108.5s51.5 -76.833 99.5 -125.5c58.667 -59.333 97.667 -102.833 117 -130.5s33.833 -58.167 43.5 -91.5 s14.5 -69.333 14.5 -108c0 -92 -31 -164.5 -93 -217.5s-147 -79.5 -255 -79.5c-45.333 0 -92.5 4.33301 -141.5 13s-83.167 18 -102.5 28v248h66l38 -142c28.667 -36 65.667 -54 111 -54h10c32.667 1.33301 59.667 15.833 81 43.5s32 60.834 32 99.501 s-10.333 75.167 -31 109.5s-55.667 75.166 -105 122.499c-28 27.334 -56 60.667 -84 100s-47.833 78 -59.5 116s-17.5 78.333 -17.5 121z"/>
   <glyph glyph-name="agrave" horiz-adv-x="1024" unicode="à" d="M546 961c235.333 0 353 -86.667 353 -260v-611l94 -24v-66h-346l-22 72c-52 -35.333 -99 -59.5 -141 -72.5s-84.333 -19.5 -127 -19.5c-194 0 -291 93.333 -291 280c0 70.667 14.333 127.167 43 169.5c28.667 42.334 70 73.667 124 94s139 31.833 255 34.5l122 3v137 c0 113.333 -46.333 170 -139 170c-56 0 -118.667 -17.333 -188 -52l-38 -117h-66v227c100.667 15.333 174.667 25 222 29c47.334 4 95.667 6 145 6zM610 472l-83.999 -2.99902c-64.667 -2.66699 -109.5 -19.667 -134.5 -51s-37.5 -82 -37.5 -152 c0 -56.667 10 -98.334 30 -125.001s46 -40 78 -40c45.333 0 94.666 11.667 147.999 35v336zM622.001 1118l-364 268v37h285l165 -273v-32h-86z"/>
   <glyph glyph-name="aacute" horiz-adv-x="1024" unicode="á" d="M546 961c235.333 0 353 -86.667 353 -260v-611l94 -24v-66h-346l-22 72c-52 -35.333 -99 -59.5 -141 -72.5s-84.333 -19.5 -127 -19.5c-194 0 -291 93.333 -291 280c0 70.667 14.333 127.167 43 169.5c28.667 42.334 70 73.667 124 94s139 31.833 255 34.5l122 3v137 c0 113.333 -46.333 170 -139 170c-56 0 -118.667 -17.333 -188 -52l-38 -117h-66v227c100.667 15.333 174.667 25 222 29c47.334 4 95.667 6 145 6zM610 472l-83.999 -2.99902c-64.667 -2.66699 -109.5 -19.667 -134.5 -51s-37.5 -82 -37.5 -152 c0 -56.667 10 -98.334 30 -125.001s46 -40 78 -40c45.333 0 94.666 11.667 147.999 35v336zM363.001 1118v33l166 272h285v-37l-365 -268h-86z"/>
   <glyph glyph-name="acircumflex" horiz-adv-x="1024" unicode="â" d="M546 961c235.333 0 353 -86.667 353 -260v-611l94 -24v-66h-346l-22 72c-52 -35.333 -99 -59.5 -141 -72.5s-84.333 -19.5 -127 -19.5c-194 0 -291 93.333 -291 280c0 70.667 14.333 127.167 43 169.5c28.667 42.334 70 73.667 124 94s139 31.833 255 34.5l122 3v137 c0 113.333 -46.333 170 -139 170c-56 0 -118.667 -17.333 -188 -52l-38 -117h-66v227c100.667 15.333 174.667 25 222 29c47.334 4 95.667 6 145 6zM610 472l-83.999 -2.99902c-64.667 -2.66699 -109.5 -19.667 -134.5 -51s-37.5 -82 -37.5 -152 c0 -56.667 10 -98.334 30 -125.001s46 -40 78 -40c45.333 0 94.666 11.667 147.999 35v336zM186.001 1118v33l218 293h213l217 -293v-33h-76l-248 162l-248 -162h-76z"/>
   <glyph glyph-name="atilde" horiz-adv-x="1024" unicode="ã" d="M546 961c235.333 0 353 -86.667 353 -260v-611l94 -24v-66h-346l-22 72c-52 -35.333 -99 -59.5 -141 -72.5s-84.333 -19.5 -127 -19.5c-194 0 -291 93.333 -291 280c0 70.667 14.333 127.167 43 169.5c28.667 42.334 70 73.667 124 94s139 31.833 255 34.5l122 3v137 c0 113.333 -46.333 170 -139 170c-56 0 -118.667 -17.333 -188 -52l-38 -117h-66v227c100.667 15.333 174.667 25 222 29c47.334 4 95.667 6 145 6zM610 472l-83.999 -2.99902c-64.667 -2.66699 -109.5 -19.667 -134.5 -51s-37.5 -82 -37.5 -152 c0 -56.667 10 -98.334 30 -125.001s46 -40 78 -40c45.333 0 94.666 11.667 147.999 35v336zM631.001 1122c-56.667 0 -122.334 29.333 -197.001 88c-38 30 -68 45 -90 45c-22.667 0 -38.334 -7.5 -47 -22.5c-8.66699 -15 -16 -45.833 -22 -92.5h-105 c7.33301 102.667 28.833 176.167 64.5 220.5s85.834 66.5 150.501 66.5c32.667 0 62.167 -6 88.5 -18s62.833 -34.667 109.5 -68c40.668 -30 70.335 -45 89 -45c12.6719 0 22.8389 2.16699 30.5 6.5c7.66699 4.33301 14 11.5 19 21.5s11.5 38 19.5 84h105 c-7.33301 -101.333 -28.5 -174.333 -63.5 -219s-85.5 -67 -151.5 -67z"/>
   <glyph glyph-name="adieresis" horiz-adv-x="1024" unicode="ä" d="M546 961c235.333 0 353 -86.667 353 -260v-611l94 -24v-66h-346l-22 72c-52 -35.333 -99 -59.5 -141 -72.5s-84.333 -19.5 -127 -19.5c-194 0 -291 93.333 -291 280c0 70.667 14.333 127.167 43 169.5c28.667 42.334 70 73.667 124 94s139 31.833 255 34.5l122 3v137 c0 113.333 -46.333 170 -139 170c-56 0 -118.667 -17.333 -188 -52l-38 -117h-66v227c100.667 15.333 174.667 25 222 29c47.334 4 95.667 6 145 6zM610 472l-83.999 -2.99902c-64.667 -2.66699 -109.5 -19.667 -134.5 -51s-37.5 -82 -37.5 -152 c0 -56.667 10 -98.334 30 -125.001s46 -40 78 -40c45.333 0 94.666 11.667 147.999 35v336zM682.001 1130c-32 0 -60.167 11.833 -84.5 35.5s-36.5 52.167 -36.5 85.5s12.167 61.5 36.5 84.5s52.5 34.5 84.5 34.5c32.667 0 60.667 -11.333 84 -34s35 -51 35 -85 c0 -33.333 -11.667 -61.833 -35 -85.5s-51.333 -35.5 -84 -35.5zM346.001 1130c-32 0 -60.167 12.333 -84.5 37s-36.5 52.667 -36.5 84c0 32 12 59.833 36 83.5s52.333 35.5 85 35.5s60.667 -11.833 84 -35.5s35 -51.5 35 -83.5c0 -33.333 -11.667 -61.833 -35 -85.5 s-51.333 -35.5 -84 -35.5z"/>
   <glyph glyph-name="aring" horiz-adv-x="1024" unicode="å" d="M546 961c235.333 0 353 -86.667 353 -260v-611l94 -24v-66h-346l-22 72c-52 -35.333 -99 -59.5 -141 -72.5s-84.333 -19.5 -127 -19.5c-194 0 -291 93.333 -291 280c0 70.667 14.333 127.167 43 169.5c28.667 42.334 70 73.667 124 94s139 31.833 255 34.5l122 3v137 c0 113.333 -46.333 170 -139 170c-56 0 -118.667 -17.333 -188 -52l-38 -117h-66v227c100.667 15.333 174.667 25 222 29c47.334 4 95.667 6 145 6zM610 472l-83.999 -2.99902c-64.667 -2.66699 -109.5 -19.667 -134.5 -51s-37.5 -82 -37.5 -152 c0 -56.667 10 -98.334 30 -125.001s46 -40 78 -40c45.333 0 94.666 11.667 147.999 35v336zM518.001 1059c-58 0 -107.667 20.499 -149 61.499s-62 91.5 -62 151.5s20.5 110.167 61.5 150.5s90.833 60.5 149.5 60.5s108.5 -20.167 149.5 -60.5s61.5 -90.5 61.5 -150.5 c0 -59.333 -20.5 -109.666 -61.5 -150.999s-90.833 -62 -149.5 -62zM518.001 1371c-26 0 -48.833 -9.83398 -68.5 -29.501c-19.667 -19.6689 -29.5 -42.8359 -29.5 -69.5c0 -26 9.83301 -48.833 29.5 -68.5s42.5 -29.5 68.5 -29.5s48.833 9.83301 68.5 29.5 s29.5 42.5 29.5 68.5c0 26.667 -10 49.834 -30 69.501s-42.667 29.5 -68 29.5z"/>
   <glyph glyph-name="ae" horiz-adv-x="1479" unicode="æ" d="M988 965c136.667 0 239.663 -35.5 308.996 -106.5s104 -175.833 104 -314.5v-82h-523v-53c1.33301 -77.333 11.333 -136.333 30 -177c18.6689 -40.667 47.3359 -72 86.001 -94c38.667 -22 90.334 -33 155.001 -33c30.667 0 66.834 3 108.501 9s75.834 12.667 102.501 20 v-77c-34.667 -22.667 -78.667 -41 -132 -55s-106 -21 -158 -21c-90.667 0 -164.5 10.5 -221.5 31.5s-103.167 51.833 -138.5 92.5c-105.334 -83.333 -223.667 -125 -355 -125c-96 0 -168.167 22.833 -216.5 68.5s-72.5 116.167 -72.5 211.5c0 50 8 93 24 129 s39.5 65.833 70.5 89.5s72.167 42 123.5 55s124.333 21.167 219 24.5l99 3v135c0 59.333 -11.333 102.833 -34 130.5s-57.667 41.5 -105 41.5c-61.333 0 -121.333 -17 -180 -51l-39 -118h-65v226c116.667 24 228.334 36 335.001 36c105.333 0 182.666 -23.333 231.999 -70 c62 49.333 142.667 74 242 74zM465.996 101c37.333 0 71.667 6.16895 103 18.502s62 27.166 92 44.499c-17.333 21.333 -31.5 55.5 -42.5 102.5s-16.5 98.167 -16.5 153.5v52l-74 -3c-47.333 -2.66699 -82.5 -10.667 -105.5 -24s-40.167 -34.333 -51.5 -63 s-17 -67.334 -17 -116c0 -56.667 10.667 -98.334 32 -125.001s48 -40 80 -40zM1004 862.002c-42.667 0 -74.167 -21.833 -94.5 -65.5s-30.5 -120.167 -30.5 -229.5h228c0 111.333 -7.83301 188.333 -23.5 231s-42.167 64 -79.5 64z"/>
   <glyph glyph-name="ccedilla" horiz-adv-x="909" unicode="ç" d="M858 57c-30 -24 -71.5 -42.667 -124.5 -56s-107.5 -20 -163.5 -20c-167.333 0 -292.5 40.333 -375.5 121s-124.5 204 -124.5 370c0 103.333 18.833 191.833 56.5 265.5s91.5 130 161.5 169s151.333 58.5 244 58.5c93.333 0 195 -11.667 305 -35v-278h-72l-42 165 c-22.667 16.6699 -45 28.3369 -67 35c-22 6.66699 -51 10 -87 10c-39.334 0 -75.001 -15.667 -107.001 -47s-56.833 -75.5 -74.5 -132.5s-26.5 -125.167 -26.5 -204.5c0 -134 20.833 -229.667 62.5 -287s107.834 -86 198.501 -86c92 0 170.667 9.66699 236 29v-77zM440 -422 c-60 0 -113.333 10.333 -160 31v90c48 -12.667 93 -19 135 -19c61.333 0 92 28.667 92 86c0 29.333 -10.333 51.833 -31 67.5s-54 25.167 -100 28.5l51 195h111l-23 -110c123.333 -18 185 -74 185 -168c0 -62.666 -24 -111.833 -72 -147.5s-110.667 -53.5 -188 -53.5z"/>
   <glyph glyph-name="egrave" horiz-adv-x="909" unicode="è" d="M494 963c127.333 0 219.5 -34 276.5 -102s85.5 -173.667 85.5 -317v-82h-493v-16c0 -99.333 8 -170 24 -212s42 -74 78 -96s85.333 -33 148 -33c58.667 0 132.667 9.66699 222 29v-77c-36.667 -22 -84.167 -40.167 -142.5 -54.5 c-58.334 -14.333 -115.167 -21.5 -170.5 -21.5c-154 0 -267.833 40.167 -341.5 120.5s-110.5 204.833 -110.5 373.5c0 164 35.167 286.333 105.5 367s176.5 121 318.5 121zM483 862c-40 0 -69.834 -21.665 -89.501 -64.998s-29.5 -120 -29.5 -230h218 c0 89.333 -3 152.166 -9 188.499s-16.167 63.166 -30.5 80.499s-34.166 26 -59.499 26zM570.999 1118l-364 268v37h285l165 -273v-32h-86z"/>
   <glyph glyph-name="eacute" horiz-adv-x="909" unicode="é" d="M494 963c127.333 0 219.5 -34 276.5 -102s85.5 -173.667 85.5 -317v-82h-493v-16c0 -99.333 8 -170 24 -212s42 -74 78 -96s85.333 -33 148 -33c58.667 0 132.667 9.66699 222 29v-77c-36.667 -22 -84.167 -40.167 -142.5 -54.5 c-58.334 -14.333 -115.167 -21.5 -170.5 -21.5c-154 0 -267.833 40.167 -341.5 120.5s-110.5 204.833 -110.5 373.5c0 164 35.167 286.333 105.5 367s176.5 121 318.5 121zM483 862c-40 0 -69.834 -21.665 -89.501 -64.998s-29.5 -120 -29.5 -230h218 c0 89.333 -3 152.166 -9 188.499s-16.167 63.166 -30.5 80.499s-34.166 26 -59.499 26zM357.999 1118v33l166 272h285v-37l-365 -268h-86z"/>
   <glyph glyph-name="ecircumflex" horiz-adv-x="909" unicode="ê" d="M494 963c127.333 0 219.5 -34 276.5 -102s85.5 -173.667 85.5 -317v-82h-493v-16c0 -99.333 8 -170 24 -212s42 -74 78 -96s85.333 -33 148 -33c58.667 0 132.667 9.66699 222 29v-77c-36.667 -22 -84.167 -40.167 -142.5 -54.5 c-58.334 -14.333 -115.167 -21.5 -170.5 -21.5c-154 0 -267.833 40.167 -341.5 120.5s-110.5 204.833 -110.5 373.5c0 164 35.167 286.333 105.5 367s176.5 121 318.5 121zM483 862c-40 0 -69.834 -21.665 -89.501 -64.998s-29.5 -120 -29.5 -230h218 c0 89.333 -3 152.166 -9 188.499s-16.167 63.166 -30.5 80.499s-34.166 26 -59.499 26zM153.999 1118v33l218 293h213l217 -293v-33h-76l-248 162l-248 -162h-76z"/>
   <glyph glyph-name="edieresis" horiz-adv-x="909" unicode="ë" d="M494 963c127.333 0 219.5 -34 276.5 -102s85.5 -173.667 85.5 -317v-82h-493v-16c0 -99.333 8 -170 24 -212s42 -74 78 -96s85.333 -33 148 -33c58.667 0 132.667 9.66699 222 29v-77c-36.667 -22 -84.167 -40.167 -142.5 -54.5 c-58.334 -14.333 -115.167 -21.5 -170.5 -21.5c-154 0 -267.833 40.167 -341.5 120.5s-110.5 204.833 -110.5 373.5c0 164 35.167 286.333 105.5 367s176.5 121 318.5 121zM483 862c-40 0 -69.834 -21.665 -89.501 -64.998s-29.5 -120 -29.5 -230h218 c0 89.333 -3 152.166 -9 188.499s-16.167 63.166 -30.5 80.499s-34.166 26 -59.499 26zM641.999 1130c-32 0 -60.167 11.833 -84.5 35.5s-36.5 52.167 -36.5 85.5s12.167 61.5 36.5 84.5s52.5 34.5 84.5 34.5c32.667 0 60.667 -11.333 84 -34s35 -51 35 -85 c0 -33.333 -11.667 -61.833 -35 -85.5s-51.333 -35.5 -84 -35.5zM305.999 1130c-32 0 -60.167 12.333 -84.5 37s-36.5 52.667 -36.5 84c0 32 12 59.833 36 83.5s52.333 35.5 85 35.5s60.667 -11.833 84 -35.5s35 -51.5 35 -83.5c0 -33.333 -11.667 -61.833 -35 -85.5 s-51.333 -35.5 -84 -35.5z"/>
   <glyph glyph-name="igrave" horiz-adv-x="569" unicode="ì" d="M436 90l103 -24v-66h-494v66l102 24v760l-96 24v66h385v-850zM352 1118l-364 268v37h285l165 -273v-32h-86z"/>
   <glyph glyph-name="iacute" horiz-adv-x="569" unicode="í" d="M436 90l103 -24v-66h-494v66l102 24v760l-96 24v66h385v-850zM143 1118v33l166 272h285v-37l-365 -268h-86z"/>
   <glyph glyph-name="icircumflex" horiz-adv-x="569" unicode="î" d="M436 90l103 -24v-66h-494v66l102 24v760l-96 24v66h385v-850zM-36 1118v33l218 293h213l217 -293v-33h-76l-248 162l-248 -162h-76z"/>
   <glyph glyph-name="idieresis" horiz-adv-x="569" unicode="ï" d="M436 90l103 -24v-66h-494v66l102 24v760l-96 24v66h385v-850zM460 1130c-32 0 -60.167 11.833 -84.5 35.5s-36.5 52.167 -36.5 85.5s12.167 61.5 36.5 84.5s52.5 34.5 84.5 34.5c32.667 0 60.667 -11.333 84 -34s35 -51 35 -85c0 -33.333 -11.667 -61.833 -35 -85.5 c-23.334 -23.667 -51.334 -35.5 -84 -35.5zM124 1130c-32 0 -60.167 12.333 -84.5 37s-36.5 52.667 -36.5 84c0 32 12 59.833 36 83.5s52.333 35.5 85 35.5s60.667 -11.833 84 -35.5s35 -51.5 35 -83.5c0 -33.333 -11.667 -61.833 -35 -85.5s-51.333 -35.5 -84 -35.5z"/>
   <glyph glyph-name="eth" horiz-adv-x="1024" unicode="ð" d="M229 1117l172.999 99.999c-59.333 44 -120.666 76 -183.999 96v108c114.667 -26 220 -68.333 316 -127l285 165v-124l-191 -111c207.333 -172 313.333 -420.333 318 -744.999v-35c0 -309.333 -146.667 -464 -440 -464c-141.333 0 -248 39.667 -320 119 s-108 194.333 -108 345c0 148.667 36 262.334 108 341c72 78.667 181.333 118 328 118c44 0 78.333 -2.66699 103 -8c-22 92 -66.333 173.333 -133 244l-255 -148v126zM652.999 444.999c0 124.667 -11.667 215.667 -35 273s-60 86 -110 86 c-48.667 0 -83.667 -27.333 -105 -82s-32 -147 -32 -277c0 -133.333 10.833 -227.5 32.5 -282.5s56.5 -82.5 104.5 -82.5c50 0 86.667 29.833 110 89.5s35 151.5 35 275.5z"/>
   <glyph glyph-name="ntilde" horiz-adv-x="1139" unicode="ñ" d="M434 858l68.001 35c93.333 48 177.333 72 252 72c173.333 0 260 -92.333 260 -277v-598l94 -24v-66h-467v66l84 24v559c0 56 -11.833 99.667 -35.5 131s-57.5 47 -101.5 47c-50.667 0 -101.334 -11.333 -152.001 -34v-703l86 -24v-66h-467v66l92 24v760l-92 24v66h365z M707.001 1122c-56.667 0 -122.335 29.333 -197.002 88c-38 30 -68 45 -90 45c-22.667 0 -38.334 -7.5 -47 -22.5c-8.66699 -15 -16 -45.833 -22 -92.5h-105c7.33301 102.667 28.833 176.167 64.5 220.5s85.834 66.5 150.501 66.5c32.667 0 62.167 -6 88.5 -18 s62.833 -34.667 109.5 -68c40.668 -30 70.335 -45 89 -45c12.6729 0 22.8398 2.16699 30.501 6.5c7.66699 4.33301 14 11.5 19 21.5s11.5 38 19.5 84h105c-7.33301 -101.333 -28.5 -174.333 -63.5 -219s-85.5 -67 -151.5 -67z"/>
   <glyph glyph-name="ograve" horiz-adv-x="1024" unicode="ò" d="M946 475c0 -168.667 -36.167 -293.334 -108.5 -374.001s-182.833 -121 -331.5 -121c-144 0 -251.333 40.833 -322 122.5s-106 205.834 -106 372.501c0 166 35.833 289.167 107.5 369.5s181.167 120.5 328.5 120.5c148.667 0 257.834 -41.5 327.5 -124.5 c69.667 -83 104.5 -204.833 104.5 -365.5zM653 475c0 146.667 -10.833 248.167 -32.5 304.5s-59.167 84.5 -112.5 84.5c-51.333 0 -87 -27 -107 -81s-30 -156.667 -30 -308c0 -154 10.167 -258.333 30.5 -313s55.833 -82 106.5 -82c52.667 0 90 28.833 112 86.5 s33 160.5 33 308.5zM591 1118l-364 268v37h285l165 -273v-32h-86z"/>
   <glyph glyph-name="oacute" horiz-adv-x="1024" unicode="ó" d="M946 475c0 -168.667 -36.167 -293.334 -108.5 -374.001s-182.833 -121 -331.5 -121c-144 0 -251.333 40.833 -322 122.5s-106 205.834 -106 372.501c0 166 35.833 289.167 107.5 369.5s181.167 120.5 328.5 120.5c148.667 0 257.834 -41.5 327.5 -124.5 c69.667 -83 104.5 -204.833 104.5 -365.5zM653 475c0 146.667 -10.833 248.167 -32.5 304.5s-59.167 84.5 -112.5 84.5c-51.333 0 -87 -27 -107 -81s-30 -156.667 -30 -308c0 -154 10.167 -258.333 30.5 -313s55.833 -82 106.5 -82c52.667 0 90 28.833 112 86.5 s33 160.5 33 308.5zM375 1118v33l166 272h285v-37l-365 -268h-86z"/>
   <glyph glyph-name="ocircumflex" horiz-adv-x="1024" unicode="ô" d="M946 475c0 -168.667 -36.167 -293.334 -108.5 -374.001s-182.833 -121 -331.5 -121c-144 0 -251.333 40.833 -322 122.5s-106 205.834 -106 372.501c0 166 35.833 289.167 107.5 369.5s181.167 120.5 328.5 120.5c148.667 0 257.834 -41.5 327.5 -124.5 c69.667 -83 104.5 -204.833 104.5 -365.5zM653 475c0 146.667 -10.833 248.167 -32.5 304.5s-59.167 84.5 -112.5 84.5c-51.333 0 -87 -27 -107 -81s-30 -156.667 -30 -308c0 -154 10.167 -258.333 30.5 -313s55.833 -82 106.5 -82c52.667 0 90 28.833 112 86.5 s33 160.5 33 308.5zM186 1118v33l218 293h213l217 -293v-33h-76l-248 162l-248 -162h-76z"/>
   <glyph glyph-name="otilde" horiz-adv-x="1024" unicode="õ" d="M946 475c0 -168.667 -36.167 -293.334 -108.5 -374.001s-182.833 -121 -331.5 -121c-144 0 -251.333 40.833 -322 122.5s-106 205.834 -106 372.501c0 166 35.833 289.167 107.5 369.5s181.167 120.5 328.5 120.5c148.667 0 257.834 -41.5 327.5 -124.5 c69.667 -83 104.5 -204.833 104.5 -365.5zM653 475c0 146.667 -10.833 248.167 -32.5 304.5s-59.167 84.5 -112.5 84.5c-51.333 0 -87 -27 -107 -81s-30 -156.667 -30 -308c0 -154 10.167 -258.333 30.5 -313s55.833 -82 106.5 -82c52.667 0 90 28.833 112 86.5 s33 160.5 33 308.5zM629 1122c-56.667 0 -122.334 29.333 -197.001 88c-38 30 -68 45 -90 45c-22.667 0 -38.334 -7.5 -47 -22.5c-8.66699 -15 -16 -45.833 -22 -92.5h-105c7.33301 102.667 28.833 176.167 64.5 220.5s85.834 66.5 150.501 66.5 c32.667 0 62.167 -6 88.5 -18s62.833 -34.667 109.5 -68c40.668 -30 70.335 -45 89 -45c12.668 0 22.835 2.16699 30.5 6.5c7.66699 4.33301 14 11.5 19 21.5s11.5 38 19.5 84h105c-7.33301 -101.333 -28.5 -174.333 -63.5 -219s-85.5 -67 -151.5 -67z"/>
   <glyph glyph-name="odieresis" horiz-adv-x="1024" unicode="ö" d="M946 475c0 -168.667 -36.167 -293.334 -108.5 -374.001s-182.833 -121 -331.5 -121c-144 0 -251.333 40.833 -322 122.5s-106 205.834 -106 372.501c0 166 35.833 289.167 107.5 369.5s181.167 120.5 328.5 120.5c148.667 0 257.834 -41.5 327.5 -124.5 c69.667 -83 104.5 -204.833 104.5 -365.5zM653 475c0 146.667 -10.833 248.167 -32.5 304.5s-59.167 84.5 -112.5 84.5c-51.333 0 -87 -27 -107 -81s-30 -156.667 -30 -308c0 -154 10.167 -258.333 30.5 -313s55.833 -82 106.5 -82c52.667 0 90 28.833 112 86.5 s33 160.5 33 308.5zM680 1130c-32 0 -60.167 11.833 -84.5 35.5s-36.5 52.167 -36.5 85.5s12.167 61.5 36.5 84.5s52.5 34.5 84.5 34.5c32.667 0 60.667 -11.333 84 -34s35 -51 35 -85c0 -33.333 -11.667 -61.833 -35 -85.5s-51.333 -35.5 -84 -35.5zM344 1130 c-32 0 -60.167 12.333 -84.5 37s-36.5 52.667 -36.5 84c0 32 12 59.833 36 83.5s52.333 35.5 85 35.5s60.667 -11.833 84 -35.5s35 -51.5 35 -83.5c0 -33.333 -11.667 -61.833 -35 -85.5s-51.333 -35.5 -84 -35.5z"/>
   <glyph glyph-name="divide" horiz-adv-x="1124" unicode="÷" d="M1038 751v-143h-952v143h952zM561 183c-37.334 0 -69.001 13 -95 39c-26 26 -39 57.667 -39 95s13 69 39 95s57.667 39 95 39s69 -13 95 -39s39 -57.667 39 -95s-13 -69 -39 -95s-57.667 -39 -95 -39zM561 909c-37.334 0 -69.001 13 -95 39c-26 26 -39 57.667 -39 95 s13 69 39 95s57.667 39 95 39s69 -13 95 -39s39 -57.667 39 -95s-13 -69 -39 -95s-57.667 -39 -95 -39z"/>
   <glyph glyph-name="oslash" horiz-adv-x="1024" unicode="ø" d="M192 94c-76 81.333 -114 208.334 -114 381.001c0 166 35.833 289.167 107.5 369.5s181.167 120.5 328.5 120.5c96 0 175.667 -17.667 239 -53l75 110h124l-118 -173c74.667 -81.333 112 -206 112 -374c0 -168.667 -36.167 -293.334 -108.5 -374.001 s-182.833 -121 -331.5 -121c-91.333 0 -168.333 16.667 -231 50l-77 -114h-128zM371 475.001v-61l2 -56l260 380c-10 42 -24.833 73.5 -44.5 94.5s-46.5 31.5 -80.5 31.5c-51.333 0 -87 -27 -107 -81s-30 -156.667 -30 -308zM653 475.001l-2 106l-261 -382 c9.33301 -40 23.333 -69.833 42 -89.5s44 -29.5 76 -29.5c52.667 0 90 28.833 112 86.5s33 160.5 33 308.5z"/>
   <glyph glyph-name="ugrave" horiz-adv-x="1139" unicode="ù" d="M705 82l-68 -35c-93.334 -48 -177.334 -72 -252 -72c-173.333 0 -260 92.333 -260 277v598l-94 24v66h383v-649c0 -56 11.833 -99.667 35.5 -131s57.5 -47 101.5 -47c50.668 0 101.335 11.333 152 34v703l-86 24v66h375v-850l92 -24v-66h-365zM631 1118l-364 268v37h285 l165 -273v-32h-86z"/>
   <glyph glyph-name="uacute" horiz-adv-x="1139" unicode="ú" d="M705 82l-68 -35c-93.334 -48 -177.334 -72 -252 -72c-173.333 0 -260 92.333 -260 277v598l-94 24v66h383v-649c0 -56 11.833 -99.667 35.5 -131s57.5 -47 101.5 -47c50.668 0 101.335 11.333 152 34v703l-86 24v66h375v-850l92 -24v-66h-365zM416 1118v33l166 272h285 v-37l-365 -268h-86z"/>
   <glyph glyph-name="ucircumflex" horiz-adv-x="1139" unicode="û" d="M705 82l-68 -35c-93.334 -48 -177.334 -72 -252 -72c-173.333 0 -260 92.333 -260 277v598l-94 24v66h383v-649c0 -56 11.833 -99.667 35.5 -131s57.5 -47 101.5 -47c50.668 0 101.335 11.333 152 34v703l-86 24v66h375v-850l92 -24v-66h-365zM239 1118v33l218 293h213 l217 -293v-33h-76l-248 162l-248 -162h-76z"/>
   <glyph glyph-name="udieresis" horiz-adv-x="1139" unicode="ü" d="M705 82l-68 -35c-93.334 -48 -177.334 -72 -252 -72c-173.333 0 -260 92.333 -260 277v598l-94 24v66h383v-649c0 -56 11.833 -99.667 35.5 -131s57.5 -47 101.5 -47c50.668 0 101.335 11.333 152 34v703l-86 24v66h375v-850l92 -24v-66h-365zM735 1130 c-32 0 -60.167 11.833 -84.5 35.5s-36.5 52.167 -36.5 85.5s12.167 61.5 36.5 84.5s52.5 34.5 84.5 34.5c32.667 0 60.667 -11.333 84 -34s35 -51 35 -85c0 -33.333 -11.667 -61.833 -35 -85.5s-51.333 -35.5 -84 -35.5zM399 1130c-32 0 -60.167 12.333 -84.5 37 s-36.5 52.667 -36.5 84c0 32 12 59.833 36 83.5s52.333 35.5 85 35.5s60.667 -11.833 84 -35.5s35 -51.5 35 -83.5c0 -33.333 -11.667 -61.833 -35 -85.5s-51.333 -35.5 -84 -35.5z"/>
   <glyph glyph-name="yacute" horiz-adv-x="1024" unicode="ý" d="M462 -29l-375.998 879l-66 24v66h481v-66l-112 -26l221 -520l197 522l-110 24v66h307v-66l-68 -20l-371 -913c-42.667 -108.667 -80 -187.5 -112 -236.5s-67.5 -85.667 -106.5 -110s-83.5 -36.5 -133.5 -36.5c-54 0 -109 6.33301 -165 19v242h60l43 -126 c19.333 -15.333 44 -23 74 -23c25.333 0 47.666 6 66.999 18s37.5 29.333 54.5 52s33.167 50.5 48.5 83.5c15.334 33 37.667 82.167 66.999 147.5zM412.002 1118v33l166 272h285v-37l-365 -268h-86z"/>
   <glyph glyph-name="thorn" horiz-adv-x="1139" unicode="þ" d="M129 1333l-115.001 23v65h404v-345c0 -66 -3 -127.333 -9 -184c40 27.333 80.333 46.333 121 57c40.668 10.667 83.335 16 128.001 16c138.667 0 242.834 -39.833 312.5 -119.5c69.667 -79.667 104.5 -202.167 104.5 -367.5c0 -160 -36.667 -283 -110 -369 c-73.334 -86 -180.667 -129 -322 -129c-82 0 -159 9 -231 27c4 -44 6 -93.333 6 -148v-205l138 -24v-66h-529v66l102 24v1679zM781.999 470c0 123.333 -16.332 218.167 -48.999 284.5s-78.667 99.5 -138 99.5c-60.667 0 -119.667 -14.333 -177 -43v-708 c54 -14 110.333 -21 168.999 -21c60 0 107.5 32.833 142.5 98.5s52.5 162.167 52.5 289.5z"/>
   <glyph glyph-name="ydieresis" horiz-adv-x="1024" unicode="ÿ" d="M462 -29l-375.998 879l-66 24v66h481v-66l-112 -26l221 -520l197 522l-110 24v66h307v-66l-68 -20l-371 -913c-42.667 -108.667 -80 -187.5 -112 -236.5s-67.5 -85.667 -106.5 -110s-83.5 -36.5 -133.5 -36.5c-54 0 -109 6.33301 -165 19v242h60l43 -126 c19.333 -15.333 44 -23 74 -23c25.333 0 47.666 6 66.999 18s37.5 29.333 54.5 52s33.167 50.5 48.5 83.5c15.334 33 37.667 82.167 66.999 147.5zM707.002 1130c-32 0 -60.167 11.833 -84.5 35.5s-36.5 52.167 -36.5 85.5s12.167 61.5 36.5 84.5s52.5 34.5 84.5 34.5 c32.667 0 60.667 -11.333 84 -34s35 -51 35 -85c0 -33.333 -11.667 -61.833 -35 -85.5s-51.333 -35.5 -84 -35.5zM371.002 1130c-32 0 -60.167 12.333 -84.5 37s-36.5 52.667 -36.5 84c0 32 12 59.833 36 83.5s52.333 35.5 85 35.5s60.667 -11.833 84 -35.5 s35 -51.5 35 -83.5c0 -33.333 -11.667 -61.833 -35 -85.5s-51.333 -35.5 -84 -35.5z"/>
   <glyph glyph-name="Amacron" horiz-adv-x="1479" unicode="Ā" d="M428 73v-73h-408v73l100 27l477 1252h290l475 -1252l102 -27v-73h-597v73l155 27l-128 347h-515l-123 -347zM641 1150l-221 -593h436zM425 1455v150h628v-150h-628z"/>
   <glyph glyph-name="amacron" horiz-adv-x="1024" unicode="ā" d="M546 961c235.333 0 353 -86.667 353 -260v-611l94 -24v-66h-346l-22 72c-52 -35.333 -99 -59.5 -141 -72.5s-84.333 -19.5 -127 -19.5c-194 0 -291 93.333 -291 280c0 70.667 14.333 127.167 43 169.5c28.667 42.334 70 73.667 124 94s139 31.833 255 34.5l122 3v137 c0 113.333 -46.333 170 -139 170c-56 0 -118.667 -17.333 -188 -52l-38 -117h-66v227c100.667 15.333 174.667 25 222 29c47.334 4 95.667 6 145 6zM610 472l-83.999 -2.99902c-64.667 -2.66699 -109.5 -19.667 -134.5 -51s-37.5 -82 -37.5 -152 c0 -56.667 10 -98.334 30 -125.001s46 -40 78 -40c45.333 0 94.666 11.667 147.999 35v336zM198.001 1121v150h628v-150h-628z"/>
   <glyph glyph-name="Abreve" horiz-adv-x="1479" unicode="Ă" d="M428 73v-73h-408v73l100 27l477 1252h290l475 -1252l102 -27v-73h-597v73l155 27l-128 347h-515l-123 -347zM641 1150l-221 -593h436zM739 1454c-94 0 -167.334 28.333 -220.001 85s-79.667 136 -81 238h101c11.333 -55.333 34 -94.333 68 -117s78 -34 132 -34 c58 0 102.333 11.667 133 35s53 62 67 116h101c-3.33301 -105.333 -31.166 -185.5 -83.499 -240.5s-124.833 -82.5 -217.5 -82.5z"/>
   <glyph glyph-name="abreve" horiz-adv-x="1024" unicode="ă" d="M546 961c235.333 0 353 -86.667 353 -260v-611l94 -24v-66h-346l-22 72c-52 -35.333 -99 -59.5 -141 -72.5s-84.333 -19.5 -127 -19.5c-194 0 -291 93.333 -291 280c0 70.667 14.333 127.167 43 169.5c28.667 42.334 70 73.667 124 94s139 31.833 255 34.5l122 3v137 c0 113.333 -46.333 170 -139 170c-56 0 -118.667 -17.333 -188 -52l-38 -117h-66v227c100.667 15.333 174.667 25 222 29c47.334 4 95.667 6 145 6zM610 472l-83.999 -2.99902c-64.667 -2.66699 -109.5 -19.667 -134.5 -51s-37.5 -82 -37.5 -152 c0 -56.667 10 -98.334 30 -125.001s46 -40 78 -40c45.333 0 94.666 11.667 147.999 35v336zM512.001 1120c-94 0 -167.333 28.333 -220 85s-79.667 136 -81 238h101c11.333 -55.333 34 -94.333 68 -117s78 -34 132 -34c58 0 102.333 11.667 133 35s53 62 67 116h101 c-3.33496 -105.333 -31.168 -185.5 -83.5 -240.5c-52.333 -55 -124.833 -82.5 -217.5 -82.5z"/>
   <glyph glyph-name="Aogonek" horiz-adv-x="1479" unicode="Ą" d="M428 73v-73h-408v73l100 27l477 1252h290l475 -1252l102 -27v-73h-597v73l155 27l-128 347h-515l-123 -347zM641 1150l-221 -593h436zM1139 -430c-75.333 0 -133.333 18.833 -174 56.5s-61 90.5 -61 158.5c0 46 12.167 89.333 36.5 130s56.5 73.667 96.5 99h127 c-49.333 -70.667 -74 -141.667 -74 -213c0 -38.667 9.66699 -68.5 29 -89.5s47 -31.5 83 -31.5c40 0 86 9.66699 138 29v-85c-60.667 -36 -127.667 -54 -201 -54z"/>
   <glyph glyph-name="aogonek" horiz-adv-x="1024" unicode="ą" d="M546 961c235.333 0 353 -86.667 353 -260v-611l94 -24v-66h-346l-22 72c-52 -35.333 -99 -59.5 -141 -72.5s-84.333 -19.5 -127 -19.5c-194 0 -291 93.333 -291 280c0 70.667 14.333 127.167 43 169.5c28.667 42.334 70 73.667 124 94s139 31.833 255 34.5l122 3v137 c0 113.333 -46.333 170 -139 170c-56 0 -118.667 -17.333 -188 -52l-38 -117h-66v227c100.667 15.333 174.667 25 222 29c47.334 4 95.667 6 145 6zM610 472l-83.999 -2.99902c-64.667 -2.66699 -109.5 -19.667 -134.5 -51s-37.5 -82 -37.5 -152 c0 -56.667 10 -98.334 30 -125.001s46 -40 78 -40c45.333 0 94.666 11.667 147.999 35v336zM769.001 -429.999c-75.333 0 -133.333 18.833 -174 56.5s-61 90.5 -61 158.5c0 46 12.167 89.333 36.5 130s56.5 73.667 96.5 99h127c-49.333 -70.667 -74 -141.667 -74 -213 c0 -38.667 9.66699 -68.5 29 -89.5s47 -31.5 83 -31.5c40 0 86 9.66699 138 29v-85c-60.667 -36 -127.667 -54 -201 -54z"/>
   <glyph glyph-name="Cacute" horiz-adv-x="1479" unicode="Ć" d="M815 -20c-224.667 0 -399.998 59.667 -525.998 179s-189 284.666 -189 495.999c0 229.333 60.167 403.5 180.5 522.5s298.166 178.5 533.499 178.5c155.333 0 316.333 -22.333 483 -67l6 -322h-90l-28 194c-88 60 -190.333 90 -307 90 c-154.667 0 -267.667 -48.167 -339 -144.5s-107 -245.833 -107 -448.5c0 -187.333 37.333 -330 112 -428s183.334 -147 326 -147c75.333 0 141.166 10 197.499 30s100.5 43.667 132.5 71l32 220h91l-6 -340c-60 -23.333 -138 -43.166 -234 -59.499 s-185.333 -24.5 -268 -24.5zM676.002 1452v33l166 272h285v-37l-365 -268h-86z"/>
   <glyph glyph-name="cacute" horiz-adv-x="909" unicode="ć" d="M858 57c-30 -24 -71.5 -42.667 -124.5 -56s-107.5 -20 -163.5 -20c-167.333 0 -292.5 40.333 -375.5 121s-124.5 204 -124.5 370c0 103.333 18.833 191.833 56.5 265.5s91.5 130 161.5 169s151.333 58.5 244 58.5c93.333 0 195 -11.667 305 -35v-278h-72l-42 165 c-22.667 16.6699 -45 28.3369 -67 35c-22 6.66699 -51 10 -87 10c-39.334 0 -75.001 -15.667 -107.001 -47s-56.833 -75.5 -74.5 -132.5s-26.5 -125.167 -26.5 -204.5c0 -134 20.833 -229.667 62.5 -287s107.834 -86 198.501 -86c92 0 170.667 9.66699 236 29v-77zM380 1118 v33l166 272h285v-37l-365 -268h-86z"/>
   <glyph glyph-name="Ccircumflex" horiz-adv-x="1479" unicode="Ĉ" d="M815 -20c-224.667 0 -399.998 59.667 -525.998 179s-189 284.666 -189 495.999c0 229.333 60.167 403.5 180.5 522.5s298.166 178.5 533.499 178.5c155.333 0 316.333 -22.333 483 -67l6 -322h-90l-28 194c-88 60 -190.333 90 -307 90 c-154.667 0 -267.667 -48.167 -339 -144.5s-107 -245.833 -107 -448.5c0 -187.333 37.333 -330 112 -428s183.334 -147 326 -147c75.333 0 141.166 10 197.499 30s100.5 43.667 132.5 71l32 220h91l-6 -340c-60 -23.333 -138 -43.166 -234 -59.499 s-185.333 -24.5 -268 -24.5zM492.002 1519v33l218 293h213l217 -293v-33h-76l-248 162l-248 -162h-76z"/>
   <glyph glyph-name="ccircumflex" horiz-adv-x="909" unicode="ĉ" d="M858 57c-30 -24 -71.5 -42.667 -124.5 -56s-107.5 -20 -163.5 -20c-167.333 0 -292.5 40.333 -375.5 121s-124.5 204 -124.5 370c0 103.333 18.833 191.833 56.5 265.5s91.5 130 161.5 169s151.333 58.5 244 58.5c93.333 0 195 -11.667 305 -35v-278h-72l-42 165 c-22.667 16.6699 -45 28.3369 -67 35c-22 6.66699 -51 10 -87 10c-39.334 0 -75.001 -15.667 -107.001 -47s-56.833 -75.5 -74.5 -132.5s-26.5 -125.167 -26.5 -204.5c0 -134 20.833 -229.667 62.5 -287s107.834 -86 198.501 -86c92 0 170.667 9.66699 236 29v-77zM197 1118 v33l218 293h213l217 -293v-33h-76l-248 162l-248 -162h-76z"/>
   <glyph glyph-name="Cdotaccent" horiz-adv-x="1479" unicode="Ċ" d="M815 -20c-224.667 0 -399.998 59.667 -525.998 179s-189 284.666 -189 495.999c0 229.333 60.167 403.5 180.5 522.5s298.166 178.5 533.499 178.5c155.333 0 316.333 -22.333 483 -67l6 -322h-90l-28 194c-88 60 -190.333 90 -307 90 c-154.667 0 -267.667 -48.167 -339 -144.5s-107 -245.833 -107 -448.5c0 -187.333 37.333 -330 112 -428s183.334 -147 326 -147c75.333 0 141.166 10 197.499 30s100.5 43.667 132.5 71l32 220h91l-6 -340c-60 -23.333 -138 -43.166 -234 -59.499 s-185.333 -24.5 -268 -24.5zM689.002 1602c0 43.334 15.167 79.668 45.5 109c30.333 29.333 66.5 44 108.5 44c42.668 0 78.835 -14.833 108.5 -44.5c29.667 -29.667 44.5 -65.834 44.5 -108.5c0 -42 -14.667 -78.167 -44 -108.5c-29.335 -30.333 -65.668 -45.5 -109 -45.5 c-42.667 0 -79 14.833 -109 44.5s-45 66.167 -45 109.5z"/>
   <glyph glyph-name="cdotaccent" horiz-adv-x="909" unicode="ċ" d="M858 57c-30 -24 -71.5 -42.667 -124.5 -56s-107.5 -20 -163.5 -20c-167.333 0 -292.5 40.333 -375.5 121s-124.5 204 -124.5 370c0 103.333 18.833 191.833 56.5 265.5s91.5 130 161.5 169s151.333 58.5 244 58.5c93.333 0 195 -11.667 305 -35v-278h-72l-42 165 c-22.667 16.6699 -45 28.3369 -67 35c-22 6.66699 -51 10 -87 10c-39.334 0 -75.001 -15.667 -107.001 -47s-56.833 -75.5 -74.5 -132.5s-26.5 -125.167 -26.5 -204.5c0 -134 20.833 -229.667 62.5 -287s107.834 -86 198.501 -86c92 0 170.667 9.66699 236 29v-77zM364 1268 c0 43.3379 15.166 79.6729 45.499 109.001c30.333 29.333 66.5 44 108.5 44c42.668 0 78.835 -14.833 108.501 -44.5c29.667 -29.6719 44.5 -65.8389 44.5 -108.501c0 -42 -14.667 -78.167 -44 -108.5c-29.335 -30.333 -65.668 -45.5 -109 -45.5 c-42.667 0 -79 14.833 -109 44.5s-45 66.167 -45 109.5z"/>
   <glyph glyph-name="Ccaron" horiz-adv-x="1479" unicode="Č" d="M815 -20c-224.667 0 -399.998 59.667 -525.998 179s-189 284.666 -189 495.999c0 229.333 60.167 403.5 180.5 522.5s298.166 178.5 533.499 178.5c155.333 0 316.333 -22.333 483 -67l6 -322h-90l-28 194c-88 60 -190.333 90 -307 90 c-154.667 0 -267.667 -48.167 -339 -144.5s-107 -245.833 -107 -448.5c0 -187.333 37.333 -330 112 -428s183.334 -147 326 -147c75.333 0 141.166 10 197.499 30s100.5 43.667 132.5 71l32 220h91l-6 -340c-60 -23.333 -138 -43.166 -234 -59.499 s-185.333 -24.5 -268 -24.5zM1166 1778v-33l-218 -293h-213l-217 293v33h76l248 -162l248 162h76z"/>
   <glyph glyph-name="ccaron" horiz-adv-x="909" unicode="č" d="M858 57c-30 -24 -71.5 -42.667 -124.5 -56s-107.5 -20 -163.5 -20c-167.333 0 -292.5 40.333 -375.5 121s-124.5 204 -124.5 370c0 103.333 18.833 191.833 56.5 265.5s91.5 130 161.5 169s151.333 58.5 244 58.5c93.333 0 195 -11.667 305 -35v-278h-72l-42 165 c-22.667 16.6699 -45 28.3369 -67 35c-22 6.66699 -51 10 -87 10c-39.334 0 -75.001 -15.667 -107.001 -47s-56.833 -75.5 -74.5 -132.5s-26.5 -125.167 -26.5 -204.5c0 -134 20.833 -229.667 62.5 -287s107.834 -86 198.501 -86c92 0 170.667 9.66699 236 29v-77zM856 1444 v-33l-218 -293h-213l-217 293v33h76l248 -162l248 162h76z"/>
   <glyph glyph-name="Dcaron" horiz-adv-x="1479" unicode="Ď" d="M1047 670c0 193.333 -35.332 335.167 -105.999 425.5s-185.667 135.5 -345 135.5h-74v-1117c64 -5.33301 122 -8 174 -8c86.667 0 155.167 18.667 205.5 56s87.166 95.833 110.499 175.5s35 190.5 35 332.5zM673.001 1341c240.667 0 418.5 -54.5 533.5 -163.5 s172.5 -275.5 172.5 -499.5c0 -230 -55 -401.167 -165 -513.5s-276.333 -168.5 -499 -168.5l-449 4h-230v73l172 27v1142l-172 26v73h637zM1016 1778v-33l-218 -293h-213l-217 293v33h76l248 -162l248 162h76z"/>
   <glyph glyph-name="dcaron" horiz-adv-x="1502" unicode="ď" d="M733 53c-37.333 -24 -66 -39.832 -86 -47.499s-42.667 -13.834 -68 -18.501s-53.333 -7 -84 -7c-138.667 0 -242 39.833 -310 119.5s-102 202.167 -102 367.5c0 162.667 36.5 286.334 109.5 371c73 84.667 178.833 127 317.5 127c72.667 0 146 -9 220 -27 c-4 22 -6 73.667 -6 155v238l-96 24v66h385v-1331l103 -24v-66h-362zM376 475.001c0 -124.667 15.668 -219.833 47.001 -285.5s76.333 -98.5 135 -98.5c53.333 0 108.666 14.333 165.999 43v708c-52 14 -104.667 21 -158 21c-60 0 -106.667 -32.833 -140 -98.5 s-50 -162.167 -50 -289.5zM1501 1254c0 -88 -30.167 -162.833 -90.5 -224.5s-149.5 -108.167 -267.5 -139.5v80c53.333 16 96.333 39.167 129 69.5s49 61.5 49 93.5c0 13.333 -5 25 -15 35s-27 21 -51 33c-44.667 22.667 -67 58.334 -67 107.001 c0 37.3389 13.167 65.6719 39.5 85c26.333 19.333 59.833 29 100.5 29c48 0 88.833 -15.333 122.5 -46c33.667 -30.6719 50.5 -71.3389 50.5 -122.001z"/>
   <glyph glyph-name="Dcroat" horiz-adv-x="1479" unicode="Đ" d="M695 1341c240.667 0 418.5 -54.5 533.5 -163.5s172.5 -275.5 172.5 -499.5c0 -230 -55 -401.167 -165 -513.5s-276.333 -168.5 -499 -168.5l-449 4h-208v73l150 27v509h-179v122h179v511l-172 26v73h637zM1069 670c0 193.333 -35.332 335.167 -105.999 425.5 s-185.667 135.5 -345 135.5h-74v-500h256v-122h-256v-495c64 -5.33301 122 -8 174 -8c86.667 0 155.167 18.667 205.5 56s87.166 95.833 110.499 175.5s35 190.5 35 332.5z"/>
   <glyph glyph-name="dcroat" horiz-adv-x="1139" unicode="đ" d="M733 53c-37.333 -24 -66 -39.833 -86 -47.5s-42.667 -13.834 -68 -18.501s-53.333 -7 -84 -7c-139.333 0 -242.833 38.833 -310.5 116.5s-101.5 197.834 -101.5 360.501c0 160 36.667 281.333 110 364s179 124 317 124c72.667 0 146 -9 220 -27c-4 22 -6 79 -6 171v10 h-218v103h218v129l-96 24v66h385v-219h103v-103h-103v-1009l103 -24v-66h-362zM376 465c0 -122 15.835 -214.833 47.502 -278.5s76.5 -95.5 134.5 -95.5c51.333 0 106.666 14 165.999 42v690c-54.667 13.333 -107.334 20 -158.001 20c-60 0 -106.667 -32 -140 -96 s-50 -158 -50 -282z"/>
   <glyph glyph-name="Emacron" horiz-adv-x="1366" unicode="Ē" d="M35 73l172 27v1142l-172 26v73h1142v-341h-91l-32 217c-74.667 9.33301 -182.667 14 -324 14h-208v-492h351l31 148h89v-412h-89l-31 152h-351v-517h253c172.001 0 284.668 5.33301 338 16l57 248h91l-19 -374h-1207v73zM362 1455v150h628v-150h-628z"/>
   <glyph glyph-name="emacron" horiz-adv-x="909" unicode="ē" d="M494 963c127.333 0 219.5 -34 276.5 -102s85.5 -173.667 85.5 -317v-82h-493v-16c0 -99.333 8 -170 24 -212s42 -74 78 -96s85.333 -33 148 -33c58.667 0 132.667 9.66699 222 29v-77c-36.667 -22 -84.167 -40.167 -142.5 -54.5 c-58.334 -14.333 -115.167 -21.5 -170.5 -21.5c-154 0 -267.833 40.167 -341.5 120.5s-110.5 204.833 -110.5 373.5c0 164 35.167 286.333 105.5 367s176.5 121 318.5 121zM483 862c-40 0 -69.834 -21.665 -89.501 -64.998s-29.5 -120 -29.5 -230h218 c0 89.333 -3 152.166 -9 188.499s-16.167 63.166 -30.5 80.499s-34.166 26 -59.499 26zM166.999 1121v150h628v-150h-628z"/>
   <glyph glyph-name="Ebreve" horiz-adv-x="1366" unicode="Ĕ" d="M35 73l172 27v1142l-172 26v73h1142v-341h-91l-32 217c-74.667 9.33301 -182.667 14 -324 14h-208v-492h351l31 148h89v-412h-89l-31 152h-351v-517h253c172.001 0 284.668 5.33301 338 16l57 248h91l-19 -374h-1207v73zM683 1454c-94 0 -167.333 28.333 -220 85 s-79.667 136 -81 238h101c11.333 -55.333 34 -94.333 68 -117s78 -34 132 -34c58 0 102.333 11.667 133 35s53 62 67 116h101c-3.33691 -105.333 -31.1699 -185.5 -83.5 -240.5c-52.333 -55 -124.833 -82.5 -217.5 -82.5z"/>
   <glyph glyph-name="ebreve" horiz-adv-x="909" unicode="ĕ" d="M494 963c127.333 0 219.5 -34 276.5 -102s85.5 -173.667 85.5 -317v-82h-493v-16c0 -99.333 8 -170 24 -212s42 -74 78 -96s85.333 -33 148 -33c58.667 0 132.667 9.66699 222 29v-77c-36.667 -22 -84.167 -40.167 -142.5 -54.5 c-58.334 -14.333 -115.167 -21.5 -170.5 -21.5c-154 0 -267.833 40.167 -341.5 120.5s-110.5 204.833 -110.5 373.5c0 164 35.167 286.333 105.5 367s176.5 121 318.5 121zM483 862c-40 0 -69.834 -21.665 -89.501 -64.998s-29.5 -120 -29.5 -230h218 c0 89.333 -3 152.166 -9 188.499s-16.167 63.166 -30.5 80.499s-34.166 26 -59.499 26zM481.999 1120c-94 0 -167.333 28.333 -220 85s-79.667 136 -81 238h101c11.333 -55.333 34 -94.333 68 -117s78 -34 132 -34c58 0 102.333 11.667 133 35s53 62 67 116h101 c-3.33496 -105.333 -31.168 -185.5 -83.5 -240.5c-52.333 -55 -124.833 -82.5 -217.5 -82.5z"/>
   <glyph glyph-name="Edotaccent" horiz-adv-x="1366" unicode="Ė" d="M35 73l172 27v1142l-172 26v73h1142v-341h-91l-32 217c-74.667 9.33301 -182.667 14 -324 14h-208v-492h351l31 148h89v-412h-89l-31 152h-351v-517h253c172.001 0 284.668 5.33301 338 16l57 248h91l-19 -374h-1207v73zM522 1602c0 43.334 15.167 79.668 45.5 109 c30.333 29.333 66.5 44 108.5 44c42.667 0 78.834 -14.833 108.5 -44.5c29.667 -29.667 44.5 -65.834 44.5 -108.5c0 -42 -14.667 -78.167 -44 -108.5c-29.334 -30.333 -65.667 -45.5 -109 -45.5c-42.667 0 -79 14.833 -109 44.5s-45 66.167 -45 109.5z"/>
   <glyph glyph-name="edotaccent" horiz-adv-x="909" unicode="ė" d="M494 963c127.333 0 219.5 -34 276.5 -102s85.5 -173.667 85.5 -317v-82h-493v-16c0 -99.333 8 -170 24 -212s42 -74 78 -96s85.333 -33 148 -33c58.667 0 132.667 9.66699 222 29v-77c-36.667 -22 -84.167 -40.167 -142.5 -54.5 c-58.334 -14.333 -115.167 -21.5 -170.5 -21.5c-154 0 -267.833 40.167 -341.5 120.5s-110.5 204.833 -110.5 373.5c0 164 35.167 286.333 105.5 367s176.5 121 318.5 121zM483 862c-40 0 -69.834 -21.665 -89.501 -64.998s-29.5 -120 -29.5 -230h218 c0 89.333 -3 152.166 -9 188.499s-16.167 63.166 -30.5 80.499s-34.166 26 -59.499 26zM328.999 1268c0 43.3379 15.167 79.6729 45.5 109.001c30.333 29.333 66.5 44 108.5 44c42.667 0 78.834 -14.833 108.5 -44.5c29.667 -29.6719 44.5 -65.8389 44.5 -108.501 c0 -42 -14.667 -78.167 -44 -108.5c-29.334 -30.333 -65.667 -45.5 -109 -45.5c-42.667 0 -79 14.833 -109 44.5s-45 66.167 -45 109.5z"/>
   <glyph glyph-name="Eogonek" horiz-adv-x="1366" unicode="Ę" d="M35 73l172 27v1142l-172 26v73h1142v-341h-91l-32 217c-74.667 9.33301 -182.667 14 -324 14h-208v-492h351l31 148h89v-412h-89l-31 152h-351v-517h253c172.001 0 284.668 5.33301 338 16l57 248h91l-19 -374h-1207v73zM1032 -430c-75.333 0 -133.333 18.833 -174 56.5 s-61 90.5 -61 158.5c0 46 12.167 89.333 36.5 130s56.5 73.667 96.5 99h127c-49.333 -70.667 -74 -141.667 -74 -213c0 -38.667 9.66699 -68.5 29 -89.5s47 -31.5 83 -31.5c40 0 86 9.66699 138 29v-85c-60.667 -36 -127.667 -54 -201 -54z"/>
   <glyph glyph-name="eogonek" horiz-adv-x="909" unicode="ę" d="M494 963c127.333 0 219.5 -34 276.5 -102s85.5 -173.667 85.5 -317v-82h-493v-16c0 -99.333 8 -170 24 -212s42 -74 78 -96s85.333 -33 148 -33c58.667 0 132.667 9.66699 222 29v-77c-36.667 -22 -84.167 -40.167 -142.5 -54.5 c-58.334 -14.333 -115.167 -21.5 -170.5 -21.5c-154 0 -267.833 40.167 -341.5 120.5s-110.5 204.833 -110.5 373.5c0 164 35.167 286.333 105.5 367s176.5 121 318.5 121zM483 862c-40 0 -69.834 -21.665 -89.501 -64.998s-29.5 -120 -29.5 -230h218 c0 89.333 -3 152.166 -9 188.499s-16.167 63.166 -30.5 80.499s-34.166 26 -59.499 26zM640.999 -429.998c-75.333 0 -133.333 18.833 -174 56.5s-61 90.5 -61 158.5c0 46 12.167 89.333 36.5 130s56.5 73.667 96.5 99h127c-49.333 -70.667 -74 -141.667 -74 -213 c0 -38.667 9.66699 -68.5 29 -89.5s47 -31.5 83 -31.5c40 0 86 9.66699 138 29v-85c-60.667 -36 -127.667 -54 -201 -54z"/>
   <glyph glyph-name="Ecaron" horiz-adv-x="1366" unicode="Ě" d="M35 73l172 27v1142l-172 26v73h1142v-341h-91l-32 217c-74.667 9.33301 -182.667 14 -324 14h-208v-492h351l31 148h89v-412h-89l-31 152h-351v-517h253c172.001 0 284.668 5.33301 338 16l57 248h91l-19 -374h-1207v73zM987 1778v-33l-218 -293h-213l-217 293v33h76 l248 -162l248 162h76z"/>
   <glyph glyph-name="ecaron" horiz-adv-x="909" unicode="ě" d="M494 963c127.333 0 219.5 -34 276.5 -102s85.5 -173.667 85.5 -317v-82h-493v-16c0 -99.333 8 -170 24 -212s42 -74 78 -96s85.333 -33 148 -33c58.667 0 132.667 9.66699 222 29v-77c-36.667 -22 -84.167 -40.167 -142.5 -54.5 c-58.334 -14.333 -115.167 -21.5 -170.5 -21.5c-154 0 -267.833 40.167 -341.5 120.5s-110.5 204.833 -110.5 373.5c0 164 35.167 286.333 105.5 367s176.5 121 318.5 121zM483 862c-40 0 -69.834 -21.665 -89.501 -64.998s-29.5 -120 -29.5 -230h218 c0 89.333 -3 152.166 -9 188.499s-16.167 63.166 -30.5 80.499s-34.166 26 -59.499 26zM799.999 1444v-33l-218 -293h-213l-217 293v33h76l248 -162l248 162h76z"/>
   <glyph glyph-name="Gcircumflex" horiz-adv-x="1593" unicode="Ĝ" d="M1406 70c-82.667 -27.333 -178.668 -49.166 -288.001 -65.499c-109.334 -16.333 -207.667 -24.5 -295 -24.5c-146 0 -273.5 26.667 -382.5 80s-193 131 -252 233s-88.5 222.667 -88.5 362c0 224.667 64.167 397.667 192.5 519s311.5 182 549.5 182 c58 0 110.833 -2.33301 158.5 -7s92.167 -11 133.5 -19s117.333 -27.667 228 -59v-308h-90l-24 174c-52.667 36 -110.667 64 -174 84c-63.334 20 -128.667 30 -195.999 30c-155.333 0 -268.5 -48.333 -339.5 -145s-106.5 -246.334 -106.5 -449.001 c0 -188.667 37.5 -331.5 112.5 -428.5s183.5 -145.5 325.5 -145.5c77.333 0 151 11.667 221 35v388l-172 26v74h618v-74l-131 -26v-436zM510.999 1519v33l218 293h213l217 -293v-33h-76l-248 162l-248 -162h-76z"/>
   <glyph glyph-name="gcircumflex" horiz-adv-x="1024" unicode="ĝ" d="M257 347c-118.667 50 -178 147.667 -178 293c0 104 36.333 184.167 109 240.5s176.667 84.5 312 84.5c28.667 0 65.5 -2.5 110.5 -7.5s77.833 -10.833 98.5 -17.5l225 111l35 -43l-114 -162c41.333 -50.667 62 -119.334 62 -206.001c0 -106 -35.833 -187.5 -107.5 -244.5 s-176.167 -85.5 -313.5 -85.5c-52.667 0 -103.667 4 -153 12l-24 -76c1.33398 -19.333 13.667 -37.5 37 -54.5s52 -25.5 86 -25.5h219c228.667 0 343 -88 343 -264c0 -72.667 -19.833 -135.167 -59.5 -187.5s-98 -93.166 -175 -122.499s-172.833 -44 -287.5 -44 c-136 0 -241.333 19.5 -316 58.5s-112 92.5 -112 160.5c0 30 12.167 59 36.5 87s71.5 62.333 141.5 103c-39.333 15.333 -72.833 42 -100.5 80s-41.5 78 -41.5 120zM785 -166c0 63.333 -42.333 95 -127 95h-317c-58.667 -42.667 -88 -91 -88 -145 c0 -42.667 20.5 -74.667 61.5 -96s97.167 -32 168.5 -32c96.667 0 171.167 15.667 223.5 47s78.5 75 78.5 131zM494 410c49.333 0 84.999 19.167 106.999 57.5s33 95.833 33 172.5s-10.833 133.167 -32.5 169.5s-57.5 54.5 -107.5 54.5c-46 0 -79.5 -18.167 -100.5 -54.5 s-31.5 -92.833 -31.5 -169.5s10.333 -134.167 31 -172.5s54.334 -57.5 101.001 -57.5zM171.999 1118v33l218 293h213l217 -293v-33h-76l-248 162l-248 -162h-76z"/>
   <glyph glyph-name="Gbreve" horiz-adv-x="1593" unicode="Ğ" d="M1406 70c-82.667 -27.333 -178.668 -49.166 -288.001 -65.499c-109.334 -16.333 -207.667 -24.5 -295 -24.5c-146 0 -273.5 26.667 -382.5 80s-193 131 -252 233s-88.5 222.667 -88.5 362c0 224.667 64.167 397.667 192.5 519s311.5 182 549.5 182 c58 0 110.833 -2.33301 158.5 -7s92.167 -11 133.5 -19s117.333 -27.667 228 -59v-308h-90l-24 174c-52.667 36 -110.667 64 -174 84c-63.334 20 -128.667 30 -195.999 30c-155.333 0 -268.5 -48.333 -339.5 -145s-106.5 -246.334 -106.5 -449.001 c0 -188.667 37.5 -331.5 112.5 -428.5s183.5 -145.5 325.5 -145.5c77.333 0 151 11.667 221 35v388l-172 26v74h618v-74l-131 -26v-436zM847.999 1454c-94 0 -167.334 28.333 -220.001 85s-79.667 136 -81 238h101c11.333 -55.333 34 -94.333 68 -117s78 -34 132 -34 c58 0 102.333 11.667 133 35s53 62 67 116h101c-3.33301 -105.333 -31.166 -185.5 -83.499 -240.5s-124.833 -82.5 -217.5 -82.5z"/>
   <glyph glyph-name="gbreve" horiz-adv-x="1024" unicode="ğ" d="M257 347c-118.667 50 -178 147.667 -178 293c0 104 36.333 184.167 109 240.5s176.667 84.5 312 84.5c28.667 0 65.5 -2.5 110.5 -7.5s77.833 -10.833 98.5 -17.5l225 111l35 -43l-114 -162c41.333 -50.667 62 -119.334 62 -206.001c0 -106 -35.833 -187.5 -107.5 -244.5 s-176.167 -85.5 -313.5 -85.5c-52.667 0 -103.667 4 -153 12l-24 -76c1.33398 -19.333 13.667 -37.5 37 -54.5s52 -25.5 86 -25.5h219c228.667 0 343 -88 343 -264c0 -72.667 -19.833 -135.167 -59.5 -187.5s-98 -93.166 -175 -122.499s-172.833 -44 -287.5 -44 c-136 0 -241.333 19.5 -316 58.5s-112 92.5 -112 160.5c0 30 12.167 59 36.5 87s71.5 62.333 141.5 103c-39.333 15.333 -72.833 42 -100.5 80s-41.5 78 -41.5 120zM785 -166c0 63.333 -42.333 95 -127 95h-317c-58.667 -42.667 -88 -91 -88 -145 c0 -42.667 20.5 -74.667 61.5 -96s97.167 -32 168.5 -32c96.667 0 171.167 15.667 223.5 47s78.5 75 78.5 131zM494 410c49.333 0 84.999 19.167 106.999 57.5s33 95.833 33 172.5s-10.833 133.167 -32.5 169.5s-57.5 54.5 -107.5 54.5c-46 0 -79.5 -18.167 -100.5 -54.5 s-31.5 -92.833 -31.5 -169.5s10.333 -134.167 31 -172.5s54.334 -57.5 101.001 -57.5zM508.999 1120c-94 0 -167.334 28.333 -220.001 85s-79.667 136 -81 238h101c11.333 -55.333 34 -94.333 68 -117s78 -34 132 -34c58 0 102.333 11.667 133 35s53 62 67 116h101 c-3.33594 -105.333 -31.1689 -185.5 -83.499 -240.5c-52.333 -55 -124.833 -82.5 -217.5 -82.5z"/>
   <glyph glyph-name="Gdotaccent" horiz-adv-x="1593" unicode="Ġ" d="M1406 70c-82.667 -27.333 -178.668 -49.166 -288.001 -65.499c-109.334 -16.333 -207.667 -24.5 -295 -24.5c-146 0 -273.5 26.667 -382.5 80s-193 131 -252 233s-88.5 222.667 -88.5 362c0 224.667 64.167 397.667 192.5 519s311.5 182 549.5 182 c58 0 110.833 -2.33301 158.5 -7s92.167 -11 133.5 -19s117.333 -27.667 228 -59v-308h-90l-24 174c-52.667 36 -110.667 64 -174 84c-63.334 20 -128.667 30 -195.999 30c-155.333 0 -268.5 -48.333 -339.5 -145s-106.5 -246.334 -106.5 -449.001 c0 -188.667 37.5 -331.5 112.5 -428.5s183.5 -145.5 325.5 -145.5c77.333 0 151 11.667 221 35v388l-172 26v74h618v-74l-131 -26v-436zM688.999 1602c0 43.334 15.167 79.668 45.5 109c30.333 29.333 66.5 44 108.5 44c42.668 0 78.835 -14.833 108.5 -44.5 c29.667 -29.667 44.5 -65.834 44.5 -108.5c0 -42 -14.667 -78.167 -44 -108.5c-29.335 -30.333 -65.668 -45.5 -109 -45.5c-42.667 0 -79 14.833 -109 44.5s-45 66.167 -45 109.5z"/>
   <glyph glyph-name="gdotaccent" horiz-adv-x="1024" unicode="ġ" d="M257 347c-118.667 50 -178 147.667 -178 293c0 104 36.333 184.167 109 240.5s176.667 84.5 312 84.5c28.667 0 65.5 -2.5 110.5 -7.5s77.833 -10.833 98.5 -17.5l225 111l35 -43l-114 -162c41.333 -50.667 62 -119.334 62 -206.001c0 -106 -35.833 -187.5 -107.5 -244.5 s-176.167 -85.5 -313.5 -85.5c-52.667 0 -103.667 4 -153 12l-24 -76c1.33398 -19.333 13.667 -37.5 37 -54.5s52 -25.5 86 -25.5h219c228.667 0 343 -88 343 -264c0 -72.667 -19.833 -135.167 -59.5 -187.5s-98 -93.166 -175 -122.499s-172.833 -44 -287.5 -44 c-136 0 -241.333 19.5 -316 58.5s-112 92.5 -112 160.5c0 30 12.167 59 36.5 87s71.5 62.333 141.5 103c-39.333 15.333 -72.833 42 -100.5 80s-41.5 78 -41.5 120zM785 -166c0 63.333 -42.333 95 -127 95h-317c-58.667 -42.667 -88 -91 -88 -145 c0 -42.667 20.5 -74.667 61.5 -96s97.167 -32 168.5 -32c96.667 0 171.167 15.667 223.5 47s78.5 75 78.5 131zM494 410c49.333 0 84.999 19.167 106.999 57.5s33 95.833 33 172.5s-10.833 133.167 -32.5 169.5s-57.5 54.5 -107.5 54.5c-46 0 -79.5 -18.167 -100.5 -54.5 s-31.5 -92.833 -31.5 -169.5s10.333 -134.167 31 -172.5s54.334 -57.5 101.001 -57.5zM352.999 1268c0 43.3379 15.165 79.6729 45.498 109.001c30.333 29.333 66.5 44 108.5 44c42.668 0 78.835 -14.833 108.501 -44.5c29.667 -29.6719 44.5 -65.8389 44.5 -108.501 c0 -42 -14.667 -78.167 -44 -108.5c-29.334 -30.333 -65.667 -45.5 -108.999 -45.5c-42.667 0 -79 14.833 -109 44.5s-45 66.167 -45 109.5z"/>
   <glyph glyph-name="Gcommaaccent" horiz-adv-x="1593" unicode="Ģ" d="M1406 70c-82.667 -27.333 -178.668 -49.166 -288.001 -65.499c-109.334 -16.333 -207.667 -24.5 -295 -24.5c-146 0 -273.5 26.667 -382.5 80s-193 131 -252 233s-88.5 222.667 -88.5 362c0 224.667 64.167 397.667 192.5 519s311.5 182 549.5 182 c58 0 110.833 -2.33301 158.5 -7s92.167 -11 133.5 -19s117.333 -27.667 228 -59v-308h-90l-24 174c-52.667 36 -110.667 64 -174 84c-63.334 20 -128.667 30 -195.999 30c-155.333 0 -268.5 -48.333 -339.5 -145s-106.5 -246.334 -106.5 -449.001 c0 -188.667 37.5 -331.5 112.5 -428.5s183.5 -145.5 325.5 -145.5c77.333 0 151 11.667 221 35v388l-172 26v74h618v-74l-131 -26v-436zM971.999 -238c0 -75.333 -27.5 -136.833 -82.5 -184.5s-134.833 -81.167 -239.5 -100.5v69c50.667 13.333 88.167 29 112.5 47 s36.5 41.667 36.5 71c0 16.667 -5.83301 30.334 -17.5 41.001s-24.667 21 -39 31s-27.333 21.5 -39 34.5s-17.5 30.5 -17.5 52.5c0 31.333 12.167 56.666 36.5 75.999s57.5 29 99.5 29c46 0 82.5 -14.667 109.5 -44s40.5 -70 40.5 -122z"/>
   <glyph glyph-name="gcommaaccent" horiz-adv-x="1024" unicode="ģ" d="M257 347c-118.667 50 -178 147.667 -178 293c0 104 36.333 184.167 109 240.5s176.667 84.5 312 84.5c28.667 0 65.5 -2.5 110.5 -7.5s77.833 -10.833 98.5 -17.5l225 111l35 -43l-114 -162c41.333 -50.667 62 -119.334 62 -206.001c0 -106 -35.833 -187.5 -107.5 -244.5 s-176.167 -85.5 -313.5 -85.5c-52.667 0 -103.667 4 -153 12l-24 -76c1.33398 -19.333 13.667 -37.5 37 -54.5s52 -25.5 86 -25.5h219c228.667 0 343 -88 343 -264c0 -72.667 -19.833 -135.167 -59.5 -187.5s-98 -93.166 -175 -122.499s-172.833 -44 -287.5 -44 c-136 0 -241.333 19.5 -316 58.5s-112 92.5 -112 160.5c0 30 12.167 59 36.5 87s71.5 62.333 141.5 103c-39.333 15.333 -72.833 42 -100.5 80s-41.5 78 -41.5 120zM785 -166c0 63.333 -42.333 95 -127 95h-317c-58.667 -42.667 -88 -91 -88 -145 c0 -42.667 20.5 -74.667 61.5 -96s97.167 -32 168.5 -32c96.667 0 171.167 15.667 223.5 47s78.5 75 78.5 131zM494 410c49.333 0 84.999 19.167 106.999 57.5s33 95.833 33 172.5s-10.833 133.167 -32.5 169.5s-57.5 54.5 -107.5 54.5c-46 0 -79.5 -18.167 -100.5 -54.5 s-31.5 -92.833 -31.5 -169.5s10.333 -134.167 31 -172.5s54.334 -57.5 101.001 -57.5zM348.999 1286c0 75.333 27.5 136.832 82.5 184.499s134.833 81.167 239.5 100.5v-69c-50.667 -13.333 -88.167 -29 -112.5 -47s-36.5 -41.667 -36.5 -71 c0 -16.6719 5.83301 -30.3389 17.5 -41c11.667 -10.667 24.667 -21 39 -31s27.333 -21.5 39 -34.5s17.5 -30.5 17.5 -52.5c0 -31.333 -12.167 -56.666 -36.5 -75.999s-57.5 -29 -99.5 -29c-46 0 -82.5 14.667 -109.5 44s-40.5 70 -40.5 122z"/>
   <glyph glyph-name="Hcircumflex" horiz-adv-x="1593" unicode="Ĥ" d="M35 0v74l172 26v1141l-172 27v73h659v-73l-172 -27v-496h548v496l-172 27v73h661v-73l-173 -27v-1141l173 -26v-74h-661v74l172 26v535h-548v-535l172 -26v-74h-659zM472 1452v33l218 293h213l217 -293v-33h-76l-248 162l-248 -162h-76z"/>
   <glyph glyph-name="hcircumflex" horiz-adv-x="1139" unicode="ĥ" d="M436 1014c0 -44 -1.99902 -96 -5.99902 -156l69 35c94.667 48 179.667 72 255 72c173.333 0 260 -92.333 260 -277v-598l94 -24v-66h-467v66l84 24v559c0 56 -11.833 99.667 -35.5 131s-57.5 47 -101.5 47c-50.667 0 -101.334 -11.333 -152.001 -34v-703l86 -24v-66h-467 v66l92 24v1241l-96 24v66h385v-407zM245.001 1532v33l218 293h213l217 -293v-33h-76l-248 162l-248 -162h-76z"/>
   <glyph glyph-name="Hbar" horiz-adv-x="1593" unicode="Ħ" d="M35 0v74l172 26v852h-172v110h172v179l-172 27v73h659v-73l-172 -27v-179h548v179l-172 27v73h661v-73l-173 -27v-179h173v-110h-173v-852l173 -26v-74h-661v74l172 26v535h-548v-535l172 -26v-74h-659zM1070 745v207h-548v-207h548z"/>
   <glyph glyph-name="hbar" horiz-adv-x="1139" unicode="ħ" d="M687 1099h-250.999v-105c0 -44 -2 -96 -6 -156l69 35c94.667 48 179.667 72 255 72c173.333 0 260 -92.333 260 -277v-578l94 -24v-66h-467v66l84 24v539c0 56 -11.833 99.667 -35.5 131s-57.5 47 -101.5 47c-50.667 0 -101.334 -11.333 -152.001 -34v-683l86 -24v-66 h-467v66l92 24v1009h-145v103h145v129l-96 24v66h385v-219h251v-103z"/>
   <glyph glyph-name="Itilde" horiz-adv-x="797" unicode="Ĩ" d="M556 100l172 -26v-74h-659v74l172 26v1141l-172 27v73h659v-73l-172 -27v-1141zM521 1454c-56.667 0 -122.335 29.333 -197.001 88c-38 30 -68 45 -90 45c-22.667 0 -38.334 -7.5 -47.001 -22.5s-16 -45.833 -22 -92.5h-105c7.33301 102.667 28.833 176.167 64.5 220.5 s85.834 66.5 150.501 66.5c32.667 0 62.167 -6 88.5 -18s62.833 -34.667 109.5 -68c40.668 -30 70.335 -45 89.001 -45c12.6709 0 22.8379 2.16699 30.5 6.5c7.66699 4.33301 14 11.5 19 21.5s11.5 38 19.5 84h105c-7.33301 -101.333 -28.5 -174.333 -63.5 -219 s-85.5 -67 -151.5 -67z"/>
   <glyph glyph-name="itilde" horiz-adv-x="569" unicode="ĩ" d="M436 90l103 -24v-66h-494v66l102 24v760l-96 24v66h385v-850zM410 1120c-56.667 0 -122.335 29.333 -197.002 88c-38 30 -68 45 -90 45c-22.667 0 -38.334 -7.5 -47.001 -22.5s-16 -45.833 -22 -92.5h-105c7.33301 102.667 28.833 176.167 64.5 220.5 s85.834 66.5 150.501 66.5c32.667 0 62.167 -6 88.5 -18s62.833 -34.667 109.5 -68c40.667 -30 70.334 -45 89.001 -45c12.667 0 22.834 2.16699 30.501 6.5s14 11.5 19 21.5s11.5 38 19.5 84h105c-7.33301 -101.333 -28.5 -174.333 -63.5 -219s-85.5 -67 -151.5 -67z"/>
   <glyph glyph-name="Imacron" horiz-adv-x="797" unicode="Ī" d="M556 100l172 -26v-74h-659v74l172 26v1141l-172 27v73h659v-73l-172 -27v-1141zM84 1455v150h628v-150h-628z"/>
   <glyph glyph-name="imacron" horiz-adv-x="569" unicode="ī" d="M436 90l103 -24v-66h-494v66l102 24v760l-96 24v66h385v-850zM-28 1121v150h628v-150h-628z"/>
   <glyph glyph-name="Ibreve" horiz-adv-x="797" unicode="Ĭ" d="M556 100l172 -26v-74h-659v74l172 26v1141l-172 27v73h659v-73l-172 -27v-1141zM398 1454c-94 0 -167.333 28.333 -220 85s-79.667 136 -81 238h101c11.333 -55.333 34 -94.333 68 -117s78 -34 132 -34c58 0 102.333 11.667 133 35s53 62 67 116h101 c-3.33594 -105.333 -31.1689 -185.5 -83.5 -240.5c-52.333 -55 -124.833 -82.5 -217.5 -82.5z"/>
   <glyph glyph-name="ibreve" horiz-adv-x="569" unicode="ĭ" d="M436 90l103 -24v-66h-494v66l102 24v760l-96 24v66h385v-850zM289 1120c-94 0 -167.334 28.333 -220.001 85s-79.667 136 -81 238h101c11.333 -55.333 34 -94.333 68 -117s78 -34 132 -34c58 0 102.333 11.667 133 35s53 62 67 116h101 c-3.33398 -105.333 -31.167 -185.5 -83.499 -240.5c-52.333 -55 -124.833 -82.5 -217.5 -82.5z"/>
   <glyph glyph-name="Iogonek" horiz-adv-x="797" unicode="Į" d="M556 100l172 -26v-74h-659v74l172 26v1141l-172 27v73h659v-73l-172 -27v-1141zM464 -430c-75.333 0 -133.333 18.833 -174 56.5s-61 90.5 -61 158.5c0 46 12.167 89.333 36.5 130s56.5 73.667 96.5 99h127c-49.333 -70.667 -74 -141.667 -74 -213 c0 -38.667 9.66699 -68.5 29 -89.5s47 -31.5 83 -31.5c40 0 86 9.66699 138 29v-85c-60.667 -36 -127.667 -54 -201 -54z"/>
   <glyph glyph-name="iogonek" horiz-adv-x="569" unicode="į" d="M436 90l103 -24v-66h-494v66l102 24v760l-96 24v66h385v-850zM137 1268c0 43.3379 15.165 79.6729 45.498 109.001c30.333 29.333 66.5 44 108.5 44c42.667 0 78.834 -14.833 108.501 -44.5c29.667 -29.6719 44.5 -65.8389 44.5 -108.501 c0 -42 -14.667 -78.167 -44 -108.5s-65.666 -45.5 -108.999 -45.5c-42.667 0 -79 14.833 -109 44.5s-45 66.167 -45 109.5zM338.998 -429.998c-75.333 0 -133.333 18.833 -174 56.5s-61 90.5 -61 158.5c0 46 12.167 89.333 36.5 130s56.5 73.667 96.5 99h127 c-49.333 -70.667 -74 -141.667 -74 -213c0 -38.667 9.66699 -68.5 29 -89.5s47 -31.5 83 -31.5c40 0 86 9.66699 138 29v-85c-60.667 -36 -127.667 -54 -201 -54z"/>
   <glyph glyph-name="Idotaccent" horiz-adv-x="797" unicode="İ" d="M556 100l172 -26v-74h-659v74l172 26v1141l-172 27v73h659v-73l-172 -27v-1141zM245 1602c0 43.334 15.165 79.668 45.498 109c30.333 29.333 66.5 44 108.5 44c42.667 0 78.834 -14.833 108.501 -44.5s44.5 -65.834 44.5 -108.5c0 -42 -14.667 -78.167 -44 -108.5 s-65.666 -45.5 -108.999 -45.5c-42.667 0 -79 14.833 -109 44.5s-45 66.167 -45 109.5z"/>
   <glyph glyph-name="dotlessi" horiz-adv-x="569" unicode="ı" d="M436 90l103 -24v-66h-494v66l102 24v760l-96 24v66h385v-850z"/>
   <glyph glyph-name="IJ" horiz-adv-x="1685" unicode="Ĳ" d="M556 100l172 -26v-74h-659v74l172 26v1141l-172 27v73h659v-73l-172 -27v-1141zM1172 1242l-172 25.999v73h639v-73l-152 -26v-810c0 -144.667 -40 -256.167 -120 -334.5s-194 -117.5 -342 -117.5c-50 0 -99.167 2.83301 -147.5 8.5s-86.833 12.834 -115.5 21.501v304h89 l30 -179c12.667 -15.333 30.667 -27.333 54 -36s49 -13 77 -13c46 0 84.167 16 114.5 48s45.5 79.333 45.5 142v966z"/>
   <glyph glyph-name="ij" horiz-adv-x="1131" unicode="ĳ" d="M436 90l103 -24v-66h-494v66l102 24v760l-96 24v66h385v-850zM137 1268c0 43.3379 15.165 79.6729 45.498 109.001c30.333 29.333 66.5 44 108.5 44c42.667 0 78.834 -14.833 108.501 -44.5c29.667 -29.6719 44.5 -65.8389 44.5 -108.501 c0 -42 -14.667 -78.167 -44 -108.5s-65.666 -45.5 -108.999 -45.5c-42.667 0 -79 14.833 -109 44.5s-45 66.167 -45 109.5zM1002 1268c0 -42.667 -14.832 -78.999 -44.499 -108.999s-65.834 -45 -108.501 -45s-79 14.833 -109 44.5s-45 66.167 -45 109.5 c0 42 14.833 78 44.5 108s66.167 45 109.5 45c42 0 78 -14.833 108 -44.5c30 -29.6719 45 -65.8389 45 -108.501zM993.999 -38.9971c0 -125.333 -33.833 -222.832 -101.5 -292.499s-163.834 -104.5 -288.501 -104.5c-59.333 0 -116.666 6 -171.999 18v225h64l43 -114 c16 -12.667 32.333 -19 49 -19c36 0 64.5 22.167 85.5 66.5s31.5 107.166 31.5 188.499v911l-166 34v66h455v-979z"/>
   <glyph glyph-name="Jcircumflex" horiz-adv-x="1024" unicode="Ĵ" d="M501 1242l-172 25.999v73h639v-73l-152 -26v-810c0 -144.667 -40 -256.167 -120 -334.5s-194 -117.5 -342 -117.5c-50 0 -99.167 2.83301 -147.5 8.5s-86.833 12.834 -115.5 21.501v304h89l30 -179c12.667 -15.333 30.667 -27.333 54 -36s49 -13 77 -13 c46 0 84.167 16 114.5 48s45.5 79.333 45.5 142v966zM328 1452v33l218 293h213l217 -293v-33h-76l-248 162l-248 -162h-76z"/>
   <glyph glyph-name="jcircumflex" horiz-adv-x="682" unicode="ĵ" d="M545 -39c0 -125.333 -33.833 -222.832 -101.5 -292.499s-163.834 -104.5 -288.501 -104.5c-59.333 0 -116.666 6 -171.999 18v225h64l43 -114c16 -12.667 32.333 -19 49 -19c36 0 64.5 22.167 85.5 66.5s31.5 107.166 31.5 188.499v911l-166 34v66h455v-979zM64 1118v33 l218 293h213l217 -293v-33h-76l-248 162l-248 -162h-76z"/>
   <glyph glyph-name="Kcommaaccent" horiz-adv-x="1593" unicode="Ķ" d="M1469 1341v-73l-164 -26l-443 -391l590 -751l125 -27v-73h-438l-501 646l-116 -100v-446l193 -27v-73h-680v73l172 27v1142l-172 26v73h660v-73l-173 -26v-546l611 546l-123 26v73h459zM947 -238c0 -75.333 -27.5 -136.833 -82.5 -184.5s-134.833 -81.167 -239.5 -100.5 v69c50.667 13.333 88.167 29 112.5 47s36.5 41.667 36.5 71c0 16.667 -5.83301 30.334 -17.5 41.001s-24.667 21 -39 31s-27.333 21.5 -39 34.5s-17.5 30.5 -17.5 52.5c0 31.333 12.167 56.666 36.5 75.999s57.5 29 99.5 29c46 0 82.5 -14.667 109.5 -44s40.5 -70 40.5 -122 z"/>
   <glyph glyph-name="kcommaaccent" horiz-adv-x="1139" unicode="ķ" d="M436 451l367 400l-100 23v66h358v-66l-108 -22l-224 -236l323 -526l84 -24v-66h-452v66l55 24l-188 329l-115 -80v-249l93 -24v-66h-471v66l89 24v1241l-96 24v66h385v-970zM720 -238c0 -75.333 -27.5 -136.833 -82.5 -184.5s-134.833 -81.167 -239.5 -100.5v69 c50.667 13.333 88.167 29 112.5 47s36.5 41.667 36.5 71c0 16.667 -5.83301 30.334 -17.5 41.001s-24.667 21 -39 31s-27.333 21.5 -39 34.5s-17.5 30.5 -17.5 52.5c0 31.333 12.167 56.666 36.5 75.999s57.5 29 99.5 29c46 0 82.5 -14.667 109.5 -44s40.5 -70 40.5 -122z "/>
   <glyph glyph-name="kgreenlandic" horiz-adv-x="1139" unicode="ĸ" d="M436 451l367 400l-100 23v66h358v-66l-108 -22l-224 -236l323 -526l84 -24v-66h-452v66l55 24l-188 329l-115 -80v-249l93 -24v-66h-471v66l89 24v760l-96 24v66h385v-489z"/>
   <glyph glyph-name="Lacute" horiz-adv-x="1366" unicode="Ĺ" d="M729 1268l-207 -26v-1136h273c142 0 246.333 6.66699 313 20l82 279h90l-38 -405h-1207v73l172 27v1142l-171 26v73h693v-73zM317 1452v33l166 272h285v-37l-365 -268h-86z"/>
   <glyph glyph-name="lacute" horiz-adv-x="569" unicode="ĺ" d="M431 90l103 -24v-66h-494v66l102 24v1241l-96 24v66h385v-1331zM139 1532v33l166 272h285v-37l-365 -268h-86z"/>
   <glyph glyph-name="Lcommaaccent" horiz-adv-x="1366" unicode="Ļ" d="M729 1268l-207 -26v-1136h273c142 0 246.333 6.66699 313 20l82 279h90l-38 -405h-1207v73l172 27v1142l-171 26v73h693v-73zM835 -238c0 -75.333 -27.5 -136.833 -82.5 -184.5s-134.833 -81.167 -239.5 -100.5v69c50.667 13.333 88.167 29 112.5 47s36.5 41.667 36.5 71 c0 16.667 -5.83301 30.334 -17.5 41.001s-24.667 21 -39 31s-27.333 21.5 -39 34.5s-17.5 30.5 -17.5 52.5c0 31.333 12.167 56.666 36.5 75.999s57.5 29 99.5 29c46 0 82.5 -14.667 109.5 -44s40.5 -70 40.5 -122z"/>
   <glyph glyph-name="lcommaaccent" horiz-adv-x="569" unicode="ļ" d="M431 90l103 -24v-66h-494v66l102 24v1241l-96 24v66h385v-1331zM434 -238c0 -75.333 -27.5 -136.833 -82.5 -184.5s-134.833 -81.167 -239.5 -100.5v69c50.667 13.333 88.167 29 112.5 47s36.5 41.667 36.5 71c0 16.667 -5.83301 30.334 -17.5 41.001s-24.667 21 -39 31 s-27.333 21.5 -39 34.5s-17.5 30.5 -17.5 52.5c0 31.333 12.167 56.666 36.5 75.999s57.5 29 99.5 29c46 0 82.5 -14.667 109.5 -44s40.5 -70 40.5 -122z"/>
   <glyph glyph-name="Lcaron" horiz-adv-x="1366" unicode="Ľ" d="M729 1268l-207 -26v-1136h273c142 0 246.333 6.66699 313 20l82 279h90l-38 -405h-1207v73l172 27v1142l-171 26v73h693v-73zM1206 1194c0 -88 -30.167 -162.832 -90.5 -224.499s-149.5 -108.167 -267.5 -139.5v80c53.333 16 96.333 39.167 129 69.5s49 61.5 49 93.5 c0 13.333 -5 25 -15 35s-27 21 -51 33c-44.667 22.667 -67 58.334 -67 107.001c0 37.3379 13.167 65.6709 39.5 84.999c26.333 19.333 59.833 29 100.5 29c48 0 88.833 -15.333 122.5 -46c33.667 -30.6719 50.5 -71.3389 50.5 -122.001z"/>
   <glyph glyph-name="lcaron" horiz-adv-x="960" unicode="ľ" d="M431 90l103 -24v-66h-494v66l102 24v1241l-96 24v66h385v-1331zM922 1253c0 -88 -30.167 -162.833 -90.5 -224.5s-149.5 -108.167 -267.5 -139.5v80c53.333 16 96.333 39.167 129 69.5s49 61.5 49 93.5c0 13.333 -5 25 -15 35s-27 21 -51 33 c-44.667 22.667 -67 58.334 -67 107.001c0 37.3389 13.167 65.6719 39.5 85c26.333 19.333 59.833 29 100.5 29c48 0 88.833 -15.333 122.5 -46c33.667 -30.6719 50.5 -71.3389 50.5 -122.001z"/>
   <glyph glyph-name="Ldot" horiz-adv-x="1366" unicode="Ŀ" d="M729 1268l-207 -26v-1136h273c142 0 246.333 6.66699 313 20l82 279h90l-38 -405h-1207v73l172 27v1142l-171 26v73h693v-73zM755 754c0 43.333 15.165 79.668 45.498 109.001s66.5 44 108.5 44c42.6689 0 78.8359 -14.833 108.501 -44.5 c29.667 -29.667 44.5 -65.834 44.5 -108.501c0 -42 -14.667 -78.167 -44 -108.5c-29.335 -30.333 -65.668 -45.5 -108.999 -45.5c-42.667 0 -79 14.833 -109 44.5s-45 66.167 -45 109.5z"/>
   <glyph glyph-name="ldot" horiz-adv-x="810" unicode="ŀ" d="M434 90l103 -24v-66h-494v66l102 24v1241l-96 24v66h385v-1331zM537 754c0 43.333 15.167 79.668 45.5 109.001s66.5 44 108.5 44c42.668 0 78.835 -14.833 108.5 -44.5c29.667 -29.667 44.5 -65.834 44.5 -108.501c0 -42 -14.667 -78.167 -44 -108.5 c-29.335 -30.333 -65.668 -45.5 -109 -45.5c-42.667 0 -79 14.833 -109 44.5s-45 66.167 -45 109.5z"/>
   <glyph glyph-name="Lslash" horiz-adv-x="1366" unicode="Ł" d="M207 632v609l-170 27v73h692v-73l-207 -27v-428l239 138v-134l-239 -138v-573h273c136.667 0 241 7 313 21l82 279h90l-39 -406h-1206v74l172 26v397l-164 -95v136z"/>
   <glyph glyph-name="lslash" horiz-adv-x="569" unicode="ł" d="M20 533l122 70v728l-96 24v66h385v-651l128 74v-124l-128 -75v-555l103 -24v-66h-494v66l102 24v388l-122 -71v126z"/>
   <glyph glyph-name="Nacute" horiz-adv-x="1479" unicode="Ń" d="M1155 1242l-180 26v73h477v-73l-172 -26v-1242h-117l-827 1078v-978l180 -27v-73h-477v73l172 27v1142l-172 26v73h459l657 -857v758zM634 1452v33l166 272h285v-37l-365 -268h-86z"/>
   <glyph glyph-name="nacute" horiz-adv-x="1139" unicode="ń" d="M434 858l68.001 35c93.333 48 177.333 72 252 72c173.333 0 260 -92.333 260 -277v-598l94 -24v-66h-467v66l84 24v559c0 56 -11.833 99.667 -35.5 131s-57.5 47 -101.5 47c-50.667 0 -101.334 -11.333 -152.001 -34v-703l86 -24v-66h-467v66l92 24v760l-92 24v66h365z M461.001 1118v33l166 272h285v-37l-365 -268h-86z"/>
   <glyph glyph-name="Ncommaaccent" horiz-adv-x="1479" unicode="Ņ" d="M1155 1242l-180 26v73h477v-73l-172 -26v-1242h-117l-827 1078v-978l180 -27v-73h-477v73l172 27v1142l-172 26v73h459l657 -857v758zM920 -238c0 -75.333 -27.5 -136.833 -82.5 -184.5s-134.833 -81.167 -239.5 -100.5v69c50.667 13.333 88.167 29 112.5 47 s36.5 41.667 36.5 71c0 16.667 -5.83301 30.334 -17.5 41.001s-24.667 21 -39 31s-27.333 21.5 -39 34.5s-17.5 30.5 -17.5 52.5c0 31.333 12.167 56.666 36.5 75.999s57.5 29 99.5 29c46 0 82.5 -14.667 109.5 -44s40.5 -70 40.5 -122z"/>
   <glyph glyph-name="ncommaaccent" horiz-adv-x="1139" unicode="ņ" d="M434 858l68.001 35c93.333 48 177.333 72 252 72c173.333 0 260 -92.333 260 -277v-598l94 -24v-66h-467v66l84 24v559c0 56 -11.833 99.667 -35.5 131s-57.5 47 -101.5 47c-50.667 0 -101.334 -11.333 -152.001 -34v-703l86 -24v-66h-467v66l92 24v760l-92 24v66h365z M740.001 -238c0 -75.333 -27.5 -136.833 -82.5 -184.5s-134.833 -81.167 -239.5 -100.5v69c50.667 13.333 88.167 29 112.5 47s36.5 41.667 36.5 71c0 16.667 -5.83301 30.334 -17.5 41.001s-24.667 21 -39 31s-27.333 21.5 -39 34.5s-17.5 30.5 -17.5 52.5 c0 31.333 12.167 56.666 36.5 75.999s57.5 29 99.5 29c46 0 82.5 -14.667 109.5 -44s40.5 -70 40.5 -122z"/>
   <glyph glyph-name="Ncaron" horiz-adv-x="1479" unicode="Ň" d="M1155 1242l-180 26v73h477v-73l-172 -26v-1242h-117l-827 1078v-978l180 -27v-73h-477v73l172 27v1142l-172 26v73h459l657 -857v758zM1063 1778v-33l-218 -293h-213l-217 293v33h76l248 -162l248 162h76z"/>
   <glyph glyph-name="ncaron" horiz-adv-x="1139" unicode="ň" d="M434 858l68.001 35c93.333 48 177.333 72 252 72c173.333 0 260 -92.333 260 -277v-598l94 -24v-66h-467v66l84 24v559c0 56 -11.833 99.667 -35.5 131s-57.5 47 -101.5 47c-50.667 0 -101.334 -11.333 -152.001 -34v-703l86 -24v-66h-467v66l92 24v760l-92 24v66h365z M901.001 1444v-33l-218 -293h-213l-217 293v33h76l248 -162l248 162h76z"/>
   <glyph glyph-name="napostrophe" horiz-adv-x="1493" unicode="ŉ" d="M778 858l68.001 35c93.333 48 177.333 72 252 72c173.333 0 260 -92.333 260 -277v-598l94 -24v-66h-467v66l84 24v559c0 56 -11.833 99.667 -35.5 131s-57.5 47 -101.5 47c-50.667 0 -101.334 -11.333 -152.001 -34v-703l86 -24v-66h-467v66l92 24v760l-92 24v66h365z M421.001 1224c0 -104.667 -34.667 -192.668 -104 -264.001c-69.333 -71.334 -170.666 -124.667 -303.999 -159.999v93c42 12.6699 78.167 29.3369 108.5 50c30.333 20.667 53.666 43.667 69.999 69s24.5 49 24.5 71c0 16 -6.33301 30 -19 42s-31.667 24.333 -57 37 c-50.667 25.3379 -76 66.6709 -76 124c0 40.667 14.5 73 43.5 97s67.833 36 116.5 36c56 0 102.833 -18 140.5 -54s56.5 -83 56.5 -141z"/>
   <glyph glyph-name="Eng" horiz-adv-x="1575" unicode="Ŋ" d="M1085 985c0 74.667 -17.666 132.166 -52.999 172.499s-87 60.5 -155 60.5c-98.667 0 -215.334 -34.667 -350.001 -104v-1014l101 -15v-85h-588v74l171 26v1141l-171 27v73h473l14 -122c78.667 44.667 153.167 77.834 223.5 99.501s140.833 32.5 211.5 32.5 c292.667 0 439 -127.667 439 -383v-536c0 -147.333 -36.167 -259.5 -108.5 -336.5s-182.833 -115.5 -331.5 -115.5c-88.667 0 -163 10 -223 30v274h89l33 -157c27.333 -27.333 62.333 -41 105 -41c80 0 120 65.333 120 196v703z"/>
   <glyph glyph-name="eng" horiz-adv-x="1139" unicode="ŋ" d="M434 858l68.001 35.001c93.333 48 177.333 72 252 72c166.667 0 250 -92.333 250 -277v-727c0 -125.333 -33.833 -222.833 -101.5 -292.5s-163.834 -104.5 -288.501 -104.5c-59.333 0 -116.666 6 -171.999 18v225h64l43 -114c16 -12.667 32.333 -19 49 -19 c36 0 64.5 22.167 85.5 66.5s31.5 107.166 31.5 188.499v720c0 66 -10.167 112.167 -30.5 138.5s-52.5 39.5 -96.5 39.5c-50.667 0 -101.334 -11.333 -152.001 -34v-703l86 -24v-66h-467v66l92 24v760l-92 24v66h365z"/>
   <glyph glyph-name="Omacron" horiz-adv-x="1593" unicode="Ō" d="M432 672c0 -212.667 29.167 -364.5 87.5 -455.5s150.833 -136.5 277.5 -136.5c126 0 218.167 45.667 276.5 137s87.5 243 87.5 455c0 211.333 -29.167 361.333 -87.5 450s-150.5 133 -276.5 133c-126.667 0 -219.167 -44.333 -277.5 -133s-87.5 -238.667 -87.5 -450z M100 672c0 456 232.335 684.001 697.002 684.001c229.334 0 402.667 -57.833 519.999 -173.5c117.333 -115.667 176 -285.834 176 -510.501c0 -227.333 -59.333 -399.5 -178 -516.5s-291.334 -175.5 -518.001 -175.5c-226 0 -398.667 58.333 -518 175s-179 289 -179 517z M482.002 1455v150h628v-150h-628z"/>
   <glyph glyph-name="omacron" horiz-adv-x="1024" unicode="ō" d="M946 475c0 -168.667 -36.167 -293.334 -108.5 -374.001s-182.833 -121 -331.5 -121c-144 0 -251.333 40.833 -322 122.5s-106 205.834 -106 372.501c0 166 35.833 289.167 107.5 369.5s181.167 120.5 328.5 120.5c148.667 0 257.834 -41.5 327.5 -124.5 c69.667 -83 104.5 -204.833 104.5 -365.5zM653 475c0 146.667 -10.833 248.167 -32.5 304.5s-59.167 84.5 -112.5 84.5c-51.333 0 -87 -27 -107 -81s-30 -156.667 -30 -308c0 -154 10.167 -258.333 30.5 -313s55.833 -82 106.5 -82c52.667 0 90 28.833 112 86.5 s33 160.5 33 308.5zM198 1121v150h628v-150h-628z"/>
   <glyph glyph-name="Obreve" horiz-adv-x="1593" unicode="Ŏ" d="M432 672c0 -212.667 29.167 -364.5 87.5 -455.5s150.833 -136.5 277.5 -136.5c126 0 218.167 45.667 276.5 137s87.5 243 87.5 455c0 211.333 -29.167 361.333 -87.5 450s-150.5 133 -276.5 133c-126.667 0 -219.167 -44.333 -277.5 -133s-87.5 -238.667 -87.5 -450z M100 672c0 456 232.335 684.001 697.002 684.001c229.334 0 402.667 -57.833 519.999 -173.5c117.333 -115.667 176 -285.834 176 -510.501c0 -227.333 -59.333 -399.5 -178 -516.5s-291.334 -175.5 -518.001 -175.5c-226 0 -398.667 58.333 -518 175s-179 289 -179 517z M796.002 1454c-94 0 -167.334 28.333 -220.001 85s-79.667 136 -81 238h101c11.333 -55.333 34 -94.333 68 -117s78 -34 132 -34c58 0 102.333 11.667 133 35s53 62 67 116h101c-3.33301 -105.333 -31.166 -185.5 -83.499 -240.5s-124.833 -82.5 -217.5 -82.5z"/>
   <glyph glyph-name="obreve" horiz-adv-x="1024" unicode="ŏ" d="M946 475c0 -168.667 -36.167 -293.334 -108.5 -374.001s-182.833 -121 -331.5 -121c-144 0 -251.333 40.833 -322 122.5s-106 205.834 -106 372.501c0 166 35.833 289.167 107.5 369.5s181.167 120.5 328.5 120.5c148.667 0 257.834 -41.5 327.5 -124.5 c69.667 -83 104.5 -204.833 104.5 -365.5zM653 475c0 146.667 -10.833 248.167 -32.5 304.5s-59.167 84.5 -112.5 84.5c-51.333 0 -87 -27 -107 -81s-30 -156.667 -30 -308c0 -154 10.167 -258.333 30.5 -313s55.833 -82 106.5 -82c52.667 0 90 28.833 112 86.5 s33 160.5 33 308.5zM512 1120c-94 0 -167.333 28.333 -220 85s-79.667 136 -81 238h101c11.333 -55.333 34 -94.333 68 -117s78 -34 132 -34c58 0 102.333 11.667 133 35s53 62 67 116h101c-3.33496 -105.333 -31.168 -185.5 -83.5 -240.5 c-52.333 -55 -124.833 -82.5 -217.5 -82.5z"/>
   <glyph glyph-name="Ohungarumlaut" horiz-adv-x="1593" unicode="Ő" d="M432 672c0 -212.667 29.167 -364.5 87.5 -455.5s150.833 -136.5 277.5 -136.5c126 0 218.167 45.667 276.5 137s87.5 243 87.5 455c0 211.333 -29.167 361.333 -87.5 450s-150.5 133 -276.5 133c-126.667 0 -219.167 -44.333 -277.5 -133s-87.5 -238.667 -87.5 -450z M100 672c0 456 232.335 684.001 697.002 684.001c229.334 0 402.667 -57.833 519.999 -173.5c117.333 -115.667 176 -285.834 176 -510.501c0 -227.333 -59.333 -399.5 -178 -516.5s-291.334 -175.5 -518.001 -175.5c-226 0 -398.667 58.333 -518 175s-179 289 -179 517z M550.002 1452v33l138 293h251v-37l-292 -289h-97zM901.002 1452v33l137 293h252v-37l-293 -289h-96z"/>
   <glyph glyph-name="ohungarumlaut" horiz-adv-x="1024" unicode="ő" d="M946 475c0 -168.667 -36.167 -293.334 -108.5 -374.001s-182.833 -121 -331.5 -121c-144 0 -251.333 40.833 -322 122.5s-106 205.834 -106 372.501c0 166 35.833 289.167 107.5 369.5s181.167 120.5 328.5 120.5c148.667 0 257.834 -41.5 327.5 -124.5 c69.667 -83 104.5 -204.833 104.5 -365.5zM653 475c0 146.667 -10.833 248.167 -32.5 304.5s-59.167 84.5 -112.5 84.5c-51.333 0 -87 -27 -107 -81s-30 -156.667 -30 -308c0 -154 10.167 -258.333 30.5 -313s55.833 -82 106.5 -82c52.667 0 90 28.833 112 86.5 s33 160.5 33 308.5zM225 1118v33l138 293h251v-37l-292 -289h-97zM576 1118v33l137 293h252v-37l-293 -289h-96z"/>
   <glyph glyph-name="OE" horiz-adv-x="2048" unicode="Œ" d="M113 675c0 226.667 57.5 395.667 172.5 507s289.833 167 524.5 167c56 0 121.333 -2.66699 196 -8h853v-341h-91l-32 217c-74.667 9.33301 -186.667 14 -336 14h-108v-492h263l31 148h89v-412h-89l-31 152h-263v-517h153c64.667 0 133 1.5 205 4.5 s120.333 6.83301 145 11.5l57 248h91l-19 -374h-935c-79.333 -4.66699 -139 -7 -179 -7c-228 0 -401.167 57.167 -519.5 171.5s-177.5 284.5 -177.5 510.5zM445 675c0 -210.667 29.001 -360.334 87.001 -449.001s150.667 -133 278 -133c73.333 0 129 6.33301 167 19v1117 c-40.667 12.667 -96.334 19 -167.001 19c-128.667 0 -221.667 -43.667 -279 -131s-86 -234.666 -86 -441.999z"/>
   <glyph glyph-name="oe" horiz-adv-x="1479" unicode="œ" d="M1046 963c134 0 231.832 -34.832 293.499 -104.499s92.5 -174.5 92.5 -314.5v-82h-523v-16c0 -96.667 8.66699 -166.334 26 -209.001s45 -75.334 83 -98.001s90.333 -34 157 -34c40.667 0 78.167 3 112.5 9s69.5 12.667 105.5 20v-77c-82 -50.667 -171.667 -76 -269 -76 c-156 0 -273 44.667 -351 134c-64 -90 -164.667 -135 -302 -135c-143.333 0 -249.666 40.833 -318.999 122.5s-104 205.834 -104 372.501c0 168 35.333 291.667 106 371s179 119 325 119c125.333 0 220 -40.667 284 -122c64 80 158.333 120 283 120zM612.999 475.001 c0 154 -10.499 257.333 -31.499 310s-57.167 79 -108.5 79c-34.668 0 -61.335 -11.5 -80.001 -34.5c-18.667 -23 -32 -59.167 -40 -108.5s-12 -131.333 -12 -246c0 -118.667 4.16699 -202.667 12.5 -252s21.833 -85.5 40.5 -108.5s45 -34.5 79 -34.5 c51.333 0 87.5 26.667 108.5 80s31.5 158.333 31.5 315zM1035 862.001c-43.333 0 -75 -21.5 -95 -64.5s-30 -119.833 -30 -230.5h228c0 95.333 -3 160 -9 194s-16.333 59.333 -31 76s-35.667 25 -63 25z"/>
   <glyph glyph-name="Racute" horiz-adv-x="1479" unicode="Ŕ" d="M523 568l0.000976562 -468l172 -27v-73h-647v73l159 27v1142l-172 26v73h641c197.333 0 344.666 -30.333 441.999 -91s146 -155.334 146 -284c0 -192 -90 -315.333 -270 -370l358 -496l145 -27v-73h-434l-374 568h-166zM952.001 964c0 100 -20.667 169.5 -62 208.5 s-117 58.5 -227 58.5h-140v-553h145c102.667 0 175.667 21.333 219 64s65 116.667 65 222zM556.001 1452v33l166 272h285v-37l-365 -268h-86z"/>
   <glyph glyph-name="racute" horiz-adv-x="909" unicode="ŕ" d="M461 745c72 80 136.5 137.5 193.5 172.5s109.167 52.5 156.5 52.5h54v-343h-56l-59 126c-42 0 -89.667 -9.16699 -143 -27.5s-100.333 -39.833 -141 -64.5v-571l151 -24v-66h-562v66l122 24v760l-122 24v66h395zM343 1118v33l166 272h285v-37l-365 -268h-86z"/>
   <glyph glyph-name="Rcommaaccent" horiz-adv-x="1479" unicode="Ŗ" d="M523 568l0.000976562 -468l172 -27v-73h-647v73l159 27v1142l-172 26v73h641c197.333 0 344.666 -30.333 441.999 -91s146 -155.334 146 -284c0 -192 -90 -315.333 -270 -370l358 -496l145 -27v-73h-434l-374 568h-166zM952.001 964c0 100 -20.667 169.5 -62 208.5 s-117 58.5 -227 58.5h-140v-553h145c102.667 0 175.667 21.333 219 64s65 116.667 65 222zM917.001 -238c0 -75.333 -27.5 -136.833 -82.5 -184.5s-134.833 -81.167 -239.5 -100.5v69c50.667 13.333 88.167 29 112.5 47s36.5 41.667 36.5 71 c0 16.667 -5.83301 30.334 -17.5 41.001s-24.667 21 -39 31s-27.333 21.5 -39 34.5s-17.5 30.5 -17.5 52.5c0 31.333 12.167 56.666 36.5 75.999s57.5 29 99.5 29c46 0 82.5 -14.667 109.5 -44s40.5 -70 40.5 -122z"/>
   <glyph glyph-name="rcommaaccent" horiz-adv-x="909" unicode="ŗ" d="M461 745c72 80 136.5 137.5 193.5 172.5s109.167 52.5 156.5 52.5h54v-343h-56l-59 126c-42 0 -89.667 -9.16699 -143 -27.5s-100.333 -39.833 -141 -64.5v-571l151 -24v-66h-562v66l122 24v760l-122 24v66h395zM474 -238c0 -75.333 -27.5 -136.833 -82.5 -184.5 s-134.833 -81.167 -239.5 -100.5v69c50.667 13.333 88.167 29 112.5 47s36.5 41.667 36.5 71c0 16.667 -5.83301 30.334 -17.5 41.001s-24.667 21 -39 31s-27.333 21.5 -39 34.5s-17.5 30.5 -17.5 52.5c0 31.333 12.167 56.666 36.5 75.999s57.5 29 99.5 29 c46 0 82.5 -14.667 109.5 -44s40.5 -70 40.5 -122z"/>
   <glyph glyph-name="Rcaron" horiz-adv-x="1479" unicode="Ř" d="M523 568l0.000976562 -468l172 -27v-73h-647v73l159 27v1142l-172 26v73h641c197.333 0 344.666 -30.333 441.999 -91s146 -155.334 146 -284c0 -192 -90 -315.333 -270 -370l358 -496l145 -27v-73h-434l-374 568h-166zM952.001 964c0 100 -20.667 169.5 -62 208.5 s-117 58.5 -227 58.5h-140v-553h145c102.667 0 175.667 21.333 219 64s65 116.667 65 222zM1038 1778v-33l-218 -293h-213l-217 293v33h76l248 -162l248 162h76z"/>
   <glyph glyph-name="rcaron" horiz-adv-x="909" unicode="ř" d="M461 745c72 80 136.5 137.5 193.5 172.5s109.167 52.5 156.5 52.5h54v-343h-56l-59 126c-42 0 -89.667 -9.16699 -143 -27.5s-100.333 -39.833 -141 -64.5v-571l151 -24v-66h-562v66l122 24v760l-122 24v66h395zM790 1444v-33l-218 -293h-213l-217 293v33h76l248 -162 l248 162h76z"/>
   <glyph glyph-name="Sacute" horiz-adv-x="1139" unicode="Ś" d="M109 411l88 0.00195312l45 -215c28 -32.667 70.333 -60 127 -82s115.334 -33 176.001 -33c191.333 0 287 78.667 287 236c0 49.333 -18.167 91 -54.5 125s-93.5 64.333 -171.5 91c-114.667 38 -197.167 68.833 -247.5 92.5s-92.833 51.5 -127.5 83.5 s-62.334 70.833 -83.001 116.5s-31 101.834 -31 168.5c0 118 40.167 207.833 120.5 269.5s197.833 92.5 352.5 92.5c112 0 236 -14.333 372 -43v-319h-89l-45 184c-68 49.333 -147.333 74 -238 74c-82 0 -145 -15.167 -189 -45.5s-66 -76.833 -66 -139.5 c0 -44.667 18.333 -82.834 55 -114.501s94 -59.834 172 -84.501c152.667 -50 257.5 -93.5 314.5 -130.5s100.5 -82.833 130.5 -137.5s45 -119 45 -193c0 -284.667 -167.667 -427 -503 -427c-76.667 0 -154.834 6.5 -234.5 19.5c-79.667 13 -148.167 30.167 -205.5 51.5v360z M480 1452v33l166 272h285v-37l-365 -268h-86z"/>
   <glyph glyph-name="sacute" horiz-adv-x="797" unicode="ś" d="M747 298c0 -104.667 -32.167 -183.831 -96.5 -237.498s-157.833 -80.5 -280.5 -80.5c-50.667 0 -106.5 5.5 -167.5 16.5s-107.167 22.5 -138.5 34.5v256h66l38 -132c23.333 -23.333 54 -42.833 92 -58.5s76.667 -23.5 116 -23.5c58 0 101.167 12.5 129.5 37.5 s42.5 56.833 42.5 95.5c0 36.667 -13.667 66 -41 88s-87 47.333 -179 76c-96.667 30 -165.167 71 -205.5 123s-60.5 116 -60.5 192c0 85.333 31.667 153.333 95 204s145 76 245 76c68.667 0 161 -9.66699 277 -29v-241h-66l-32 110 c-19.333 19.333 -46.5 35.166 -81.5 47.499s-68.167 18.5 -99.5 18.5c-48 0 -83.5 -9.83301 -106.5 -29.5s-34.5 -46.5 -34.5 -80.5c0 -35.333 14.333 -64.333 43 -87s87.667 -47.334 177 -74.001c97.333 -30 166.333 -69.5 207 -118.5s61 -110.167 61 -183.5zM299 1118v33 l166 272h285v-37l-365 -268h-86z"/>
   <glyph glyph-name="Scircumflex" horiz-adv-x="1139" unicode="Ŝ" d="M109 411l88 0.00195312l45 -215c28 -32.667 70.333 -60 127 -82s115.334 -33 176.001 -33c191.333 0 287 78.667 287 236c0 49.333 -18.167 91 -54.5 125s-93.5 64.333 -171.5 91c-114.667 38 -197.167 68.833 -247.5 92.5s-92.833 51.5 -127.5 83.5 s-62.334 70.833 -83.001 116.5s-31 101.834 -31 168.5c0 118 40.167 207.833 120.5 269.5s197.833 92.5 352.5 92.5c112 0 236 -14.333 372 -43v-319h-89l-45 184c-68 49.333 -147.333 74 -238 74c-82 0 -145 -15.167 -189 -45.5s-66 -76.833 -66 -139.5 c0 -44.667 18.333 -82.834 55 -114.501s94 -59.834 172 -84.501c152.667 -50 257.5 -93.5 314.5 -130.5s100.5 -82.833 130.5 -137.5s45 -119 45 -193c0 -284.667 -167.667 -427 -503 -427c-76.667 0 -154.834 6.5 -234.5 19.5c-79.667 13 -148.167 30.167 -205.5 51.5v360z M245 1452v33l218 293h213l217 -293v-33h-76l-248 162l-248 -162h-76z"/>
   <glyph glyph-name="scircumflex" horiz-adv-x="797" unicode="ŝ" d="M747 298c0 -104.667 -32.167 -183.831 -96.5 -237.498s-157.833 -80.5 -280.5 -80.5c-50.667 0 -106.5 5.5 -167.5 16.5s-107.167 22.5 -138.5 34.5v256h66l38 -132c23.333 -23.333 54 -42.833 92 -58.5s76.667 -23.5 116 -23.5c58 0 101.167 12.5 129.5 37.5 s42.5 56.833 42.5 95.5c0 36.667 -13.667 66 -41 88s-87 47.333 -179 76c-96.667 30 -165.167 71 -205.5 123s-60.5 116 -60.5 192c0 85.333 31.667 153.333 95 204s145 76 245 76c68.667 0 161 -9.66699 277 -29v-241h-66l-32 110 c-19.333 19.333 -46.5 35.166 -81.5 47.499s-68.167 18.5 -99.5 18.5c-48 0 -83.5 -9.83301 -106.5 -29.5s-34.5 -46.5 -34.5 -80.5c0 -35.333 14.333 -64.333 43 -87s87.667 -47.334 177 -74.001c97.333 -30 166.333 -69.5 207 -118.5s61 -110.167 61 -183.5zM74 1118v33 l218 293h213l217 -293v-33h-76l-248 162l-248 -162h-76z"/>
   <glyph glyph-name="Scedilla" horiz-adv-x="1139" unicode="Ş" d="M109 411l88 0.00195312l45 -215c28 -32.667 70.333 -60 127 -82s115.334 -33 176.001 -33c191.333 0 287 78.667 287 236c0 49.333 -18.167 91 -54.5 125s-93.5 64.333 -171.5 91c-114.667 38 -197.167 68.833 -247.5 92.5s-92.833 51.5 -127.5 83.5 s-62.334 70.833 -83.001 116.5s-31 101.834 -31 168.5c0 118 40.167 207.833 120.5 269.5s197.833 92.5 352.5 92.5c112 0 236 -14.333 372 -43v-319h-89l-45 184c-68 49.333 -147.333 74 -238 74c-82 0 -145 -15.167 -189 -45.5s-66 -76.833 -66 -139.5 c0 -44.667 18.333 -82.834 55 -114.501s94 -59.834 172 -84.501c152.667 -50 257.5 -93.5 314.5 -130.5s100.5 -82.833 130.5 -137.5s45 -119 45 -193c0 -284.667 -167.667 -427 -503 -427c-76.667 0 -154.834 6.5 -234.5 19.5c-79.667 13 -148.167 30.167 -205.5 51.5v360z M519 -421.998c-60 0 -113.333 10.333 -160 31v90c48 -12.667 93 -19 135 -19c61.333 0 92 28.667 92 86c0 29.333 -10.333 51.833 -31 67.5s-54 25.167 -100 28.5l51 195h111l-23 -110c123.333 -18 185 -74 185 -168c0 -62.666 -24 -111.833 -72 -147.5 s-110.667 -53.5 -188 -53.5z"/>
   <glyph glyph-name="scedilla" horiz-adv-x="797" unicode="ş" d="M747 298c0 -104.667 -32.167 -183.831 -96.5 -237.498s-157.833 -80.5 -280.5 -80.5c-50.667 0 -106.5 5.5 -167.5 16.5s-107.167 22.5 -138.5 34.5v256h66l38 -132c23.333 -23.333 54 -42.833 92 -58.5s76.667 -23.5 116 -23.5c58 0 101.167 12.5 129.5 37.5 s42.5 56.833 42.5 95.5c0 36.667 -13.667 66 -41 88s-87 47.333 -179 76c-96.667 30 -165.167 71 -205.5 123s-60.5 116 -60.5 192c0 85.333 31.667 153.333 95 204s145 76 245 76c68.667 0 161 -9.66699 277 -29v-241h-66l-32 110 c-19.333 19.333 -46.5 35.166 -81.5 47.499s-68.167 18.5 -99.5 18.5c-48 0 -83.5 -9.83301 -106.5 -29.5s-34.5 -46.5 -34.5 -80.5c0 -35.333 14.333 -64.333 43 -87s87.667 -47.334 177 -74.001c97.333 -30 166.333 -69.5 207 -118.5s61 -110.167 61 -183.5zM348 -421.997 c-60 0 -113.333 10.333 -160 31v90c48 -12.667 93 -19 135 -19c61.333 0 92 28.667 92 86c0 29.333 -10.333 51.833 -31 67.5s-54 25.167 -100 28.5l51 195h111l-23 -110c123.333 -18 185 -74 185 -168c0 -62.666 -24 -111.833 -72 -147.5s-110.667 -53.5 -188 -53.5z"/>
   <glyph glyph-name="Scaron" horiz-adv-x="1139" unicode="Š" d="M109 411l88 0.00195312l45 -215c28 -32.667 70.333 -60 127 -82s115.334 -33 176.001 -33c191.333 0 287 78.667 287 236c0 49.333 -18.167 91 -54.5 125s-93.5 64.333 -171.5 91c-114.667 38 -197.167 68.833 -247.5 92.5s-92.833 51.5 -127.5 83.5 s-62.334 70.833 -83.001 116.5s-31 101.834 -31 168.5c0 118 40.167 207.833 120.5 269.5s197.833 92.5 352.5 92.5c112 0 236 -14.333 372 -43v-319h-89l-45 184c-68 49.333 -147.333 74 -238 74c-82 0 -145 -15.167 -189 -45.5s-66 -76.833 -66 -139.5 c0 -44.667 18.333 -82.834 55 -114.501s94 -59.834 172 -84.501c152.667 -50 257.5 -93.5 314.5 -130.5s100.5 -82.833 130.5 -137.5s45 -119 45 -193c0 -284.667 -167.667 -427 -503 -427c-76.667 0 -154.834 6.5 -234.5 19.5c-79.667 13 -148.167 30.167 -205.5 51.5v360z M909 1778v-33l-218 -293h-213l-217 293v33h76l248 -162l248 162h76z"/>
   <glyph glyph-name="scaron" horiz-adv-x="797" unicode="š" d="M747 298c0 -104.667 -32.167 -183.831 -96.5 -237.498s-157.833 -80.5 -280.5 -80.5c-50.667 0 -106.5 5.5 -167.5 16.5s-107.167 22.5 -138.5 34.5v256h66l38 -132c23.333 -23.333 54 -42.833 92 -58.5s76.667 -23.5 116 -23.5c58 0 101.167 12.5 129.5 37.5 s42.5 56.833 42.5 95.5c0 36.667 -13.667 66 -41 88s-87 47.333 -179 76c-96.667 30 -165.167 71 -205.5 123s-60.5 116 -60.5 192c0 85.333 31.667 153.333 95 204s145 76 245 76c68.667 0 161 -9.66699 277 -29v-241h-66l-32 110 c-19.333 19.333 -46.5 35.166 -81.5 47.499s-68.167 18.5 -99.5 18.5c-48 0 -83.5 -9.83301 -106.5 -29.5s-34.5 -46.5 -34.5 -80.5c0 -35.333 14.333 -64.333 43 -87s87.667 -47.334 177 -74.001c97.333 -30 166.333 -69.5 207 -118.5s61 -110.167 61 -183.5zM727 1444v-33 l-218 -293h-213l-217 293v33h76l248 -162l248 162h76z"/>
   <glyph glyph-name="uni0162" horiz-adv-x="1366" unicode="Ţ" d="M310 0l-0.000976562 73l213 27v1135h-51c-152.667 0 -260 -6.66699 -322 -20l-27 -249h-91v375h1303v-375h-92l-27 249c-55.333 12 -164.666 18 -327.999 18h-49v-1133l213 -27v-73h-742zM643.999 -422c-60 0 -113.333 10.333 -160 31v90c48 -12.667 93 -19 135 -19 c61.333 0 92 28.667 92 86c0 29.333 -10.333 51.833 -31 67.5s-54 25.167 -100 28.5l51 195h111l-23 -110c123.333 -18 185 -74 185 -168c0 -62.666 -24 -111.833 -72 -147.5s-110.667 -53.5 -188 -53.5z"/>
   <glyph glyph-name="tcommaaccent" horiz-adv-x="682" unicode="ţ" d="M438 -20c-90 0 -159.498 20.332 -208.498 60.999s-73.5 99.334 -73.5 176.001v619h-123v65l145 39l117 213h150v-213h198v-104h-198v-601c0 -43.333 9 -76 27 -98s41.667 -33 71 -33c35.333 0 78.666 5.33301 129.999 16v-85c-20 -14 -54.167 -26.667 -102.5 -38 c-48.334 -11.333 -92.501 -17 -132.501 -17zM362.002 -422.001c-60 0 -113.333 10.333 -160 31v90c48 -12.667 93 -19 135 -19c61.333 0 92 28.667 92 86c0 29.333 -10.333 51.833 -31 67.5s-54 25.167 -100 28.5l51 195h111l-23 -110c123.333 -18 185 -74 185 -168 c0 -62.666 -24 -111.833 -72 -147.5s-110.667 -53.5 -188 -53.5z"/>
   <glyph glyph-name="Tcaron" horiz-adv-x="1366" unicode="Ť" d="M310 0l-0.000976562 73l213 27v1135h-51c-152.667 0 -260 -6.66699 -322 -20l-27 -249h-91v375h1303v-375h-92l-27 249c-55.333 12 -164.666 18 -327.999 18h-49v-1133l213 -27v-73h-742zM1007 1778v-33l-218 -293h-213l-217 293v33h76l248 -162l248 162h76z"/>
   <glyph glyph-name="tcaron" horiz-adv-x="1067" unicode="ť" d="M438 -20c-90 0 -159.498 20.332 -208.498 60.999s-73.5 99.334 -73.5 176.001v619h-123v65l145 39l117 213h150v-213h198v-104h-198v-601c0 -43.333 9 -76 27 -98s41.667 -33 71 -33c35.333 0 78.666 5.33301 129.999 16v-85c-20 -14 -54.167 -26.667 -102.5 -38 c-48.334 -11.333 -92.501 -17 -132.501 -17zM1048 1263c0 -88 -30.167 -162.834 -90.5 -224.501s-149.5 -108.167 -267.5 -139.5v80c53.333 16 96.333 39.167 129 69.5s49 61.5 49 93.5c0 13.333 -5 25 -15 35s-27 21 -51 33c-44.667 22.667 -67 58.334 -67 107.001 c0 37.3438 13.167 65.6768 39.5 85c26.333 19.333 59.833 29 100.5 29c48 0 88.833 -15.333 122.5 -46c33.667 -30.6719 50.5 -71.3389 50.5 -122z"/>
   <glyph glyph-name="Tbar" horiz-adv-x="1366" unicode="Ŧ" d="M310 0l-0.000976562 73l213 27v509h-281v122h281v504h-51c-152.667 0 -260 -6.66699 -322 -20l-27 -249h-91v375h1303v-375h-92l-27 249c-55.333 12 -164.666 18 -327.999 18h-49v-502h281v-122h-281v-509l213 -27v-73h-742z"/>
   <glyph glyph-name="tbar" horiz-adv-x="682" unicode="ŧ" d="M33 581l123.002 -0.000976562v255h-123v65l145 39l117 213h150v-213h198v-104h-198v-255h198v-104h-198v-242c0 -43.333 9 -76 27 -98s41.667 -33 71 -33c35.333 0 78.666 5.33301 129.999 16v-85c-20 -14 -54.167 -26.667 -102.5 -38 c-48.334 -11.333 -92.501 -17 -132.501 -17c-90 0 -159.5 20.333 -208.5 61s-73.5 99.334 -73.5 176.001v260h-123v104z"/>
   <glyph glyph-name="Utilde" horiz-adv-x="1479" unicode="Ũ" d="M838 122c100 0 177.333 28 232 84s82 138.333 82 247v789l-180 26v73h456v-73l-152 -26v-781c0 -154.667 -44.667 -273.334 -134 -356.001s-217 -124 -383 -124c-179.333 0 -316.833 41.833 -412.5 125.5s-143.5 204.5 -143.5 362.5v773l-152 26v73h639v-73l-172 -26 v-787c0 -107.333 27.167 -189.666 81.5 -246.999s133.833 -86 238.5 -86zM905 1454c-56.667 0 -122.332 29.333 -196.999 88c-38 30 -68 45 -90 45c-22.667 0 -38.334 -7.5 -47.001 -22.5s-16 -45.833 -22 -92.5h-105c7.33301 102.667 28.833 176.167 64.5 220.5 s85.834 66.5 150.5 66.5c32.667 0 62.167 -6 88.5 -18s62.833 -34.667 109.5 -68c40.668 -30 70.335 -45 89 -45c12.6738 0 22.8408 2.16699 30.5 6.5c7.66699 4.33301 14 11.5 19 21.5s11.5 38 19.5 84h105c-7.33301 -101.333 -28.5 -174.333 -63.5 -219 s-85.5 -67 -151.5 -67z"/>
   <glyph glyph-name="utilde" horiz-adv-x="1139" unicode="ũ" d="M705 82l-68 -35c-93.334 -48 -177.334 -72 -252 -72c-173.333 0 -260 92.333 -260 277v598l-94 24v66h383v-649c0 -56 11.833 -99.667 35.5 -131s57.5 -47 101.5 -47c50.668 0 101.335 11.333 152 34v703l-86 24v66h375v-850l92 -24v-66h-365zM686 1120 c-56.667 0 -122.335 29.333 -197.002 88c-38 30 -68 45 -90 45c-22.667 0 -38.334 -7.5 -47 -22.5c-8.66699 -15 -16 -45.833 -22 -92.5h-105c7.33301 102.667 28.833 176.167 64.5 220.5s85.834 66.5 150.501 66.5c32.667 0 62.167 -6 88.5 -18s62.833 -34.667 109.5 -68 c40.668 -30 70.335 -45 89 -45c12.6699 0 22.8369 2.16699 30.501 6.5c7.66699 4.33301 14 11.5 19 21.5s11.5 38 19.5 84h105c-7.33301 -101.333 -28.5 -174.333 -63.5 -219s-85.5 -67 -151.5 -67z"/>
   <glyph glyph-name="Umacron" horiz-adv-x="1479" unicode="Ū" d="M838 122c100 0 177.333 28 232 84s82 138.333 82 247v789l-180 26v73h456v-73l-152 -26v-781c0 -154.667 -44.667 -273.334 -134 -356.001s-217 -124 -383 -124c-179.333 0 -316.833 41.833 -412.5 125.5s-143.5 204.5 -143.5 362.5v773l-152 26v73h639v-73l-172 -26 v-787c0 -107.333 27.167 -189.666 81.5 -246.999s133.833 -86 238.5 -86zM476 1455v150h628v-150h-628z"/>
   <glyph glyph-name="umacron" horiz-adv-x="1139" unicode="ū" d="M705 82l-68 -35c-93.334 -48 -177.334 -72 -252 -72c-173.333 0 -260 92.333 -260 277v598l-94 24v66h383v-649c0 -56 11.833 -99.667 35.5 -131s57.5 -47 101.5 -47c50.668 0 101.335 11.333 152 34v703l-86 24v66h375v-850l92 -24v-66h-365zM245 1121v150h628v-150 h-628z"/>
   <glyph glyph-name="Ubreve" horiz-adv-x="1479" unicode="Ŭ" d="M838 122c100 0 177.333 28 232 84s82 138.333 82 247v789l-180 26v73h456v-73l-152 -26v-781c0 -154.667 -44.667 -273.334 -134 -356.001s-217 -124 -383 -124c-179.333 0 -316.833 41.833 -412.5 125.5s-143.5 204.5 -143.5 362.5v773l-152 26v73h639v-73l-172 -26 v-787c0 -107.333 27.167 -189.666 81.5 -246.999s133.833 -86 238.5 -86zM763 1454c-94 0 -167.334 28.333 -220.001 85s-79.667 136 -81 238h101c11.333 -55.333 34 -94.333 68 -117s78 -34 132 -34c58 0 102.333 11.667 133 35s53 62 67 116h101 c-3.33301 -105.333 -31.166 -185.5 -83.499 -240.5s-124.833 -82.5 -217.5 -82.5z"/>
   <glyph glyph-name="ubreve" horiz-adv-x="1139" unicode="ŭ" d="M705 82l-68 -35c-93.334 -48 -177.334 -72 -252 -72c-173.333 0 -260 92.333 -260 277v598l-94 24v66h383v-649c0 -56 11.833 -99.667 35.5 -131s57.5 -47 101.5 -47c50.668 0 101.335 11.333 152 34v703l-86 24v66h375v-850l92 -24v-66h-365zM560 1120 c-94 0 -167.333 28.333 -220 85s-79.667 136 -81 238h101c11.333 -55.333 34 -94.333 68 -117s78 -34 132 -34c58 0 102.333 11.667 133 35s53 62 67 116h101c-3.33496 -105.333 -31.168 -185.5 -83.5 -240.5c-52.333 -55 -124.833 -82.5 -217.5 -82.5z"/>
   <glyph glyph-name="Uring" horiz-adv-x="1479" unicode="Ů" d="M838 122c100 0 177.333 28 232 84s82 138.333 82 247v789l-180 26v73h456v-73l-152 -26v-781c0 -154.667 -44.667 -273.334 -134 -356.001s-217 -124 -383 -124c-179.333 0 -316.833 41.833 -412.5 125.5s-143.5 204.5 -143.5 362.5v773l-152 26v73h639v-73l-172 -26 v-787c0 -107.333 27.167 -189.666 81.5 -246.999s133.833 -86 238.5 -86zM805 1393c-58 0 -107.667 20.499 -149 61.499s-62 91.5 -62 151.5s20.5 110.167 61.5 150.5s90.833 60.5 149.5 60.5s108.5 -20.167 149.5 -60.5s61.5 -90.5 61.5 -150.5 c0 -59.333 -20.5 -109.666 -61.5 -150.999s-90.833 -62 -149.5 -62zM805 1705c-26 0 -48.833 -9.83398 -68.5 -29.501c-19.667 -19.6787 -29.5 -42.8457 -29.5 -69.5c0 -26 9.83301 -48.833 29.5 -68.5s42.5 -29.5 68.5 -29.5s48.833 9.83301 68.5 29.5s29.5 42.5 29.5 68.5 c0 26.667 -10 49.834 -30 69.501s-42.667 29.5 -68 29.5z"/>
   <glyph glyph-name="uring" horiz-adv-x="1139" unicode="ů" d="M705 82l-68 -35c-93.334 -48 -177.334 -72 -252 -72c-173.333 0 -260 92.333 -260 277v598l-94 24v66h383v-649c0 -56 11.833 -99.667 35.5 -131s57.5 -47 101.5 -47c50.668 0 101.335 11.333 152 34v703l-86 24v66h375v-850l92 -24v-66h-365zM560 1059 c-58 0 -107.667 20.499 -149 61.499s-62 91.5 -62 151.5s20.5 110.167 61.5 150.5s90.833 60.5 149.5 60.5s108.5 -20.167 149.5 -60.5s61.5 -90.5 61.5 -150.5c0 -59.333 -20.5 -109.666 -61.5 -150.999s-90.833 -62 -149.5 -62zM560 1371 c-26 0 -48.833 -9.83398 -68.5 -29.501c-19.667 -19.6689 -29.5 -42.8359 -29.5 -69.5c0 -26 9.83301 -48.833 29.5 -68.5s42.5 -29.5 68.5 -29.5s48.833 9.83301 68.5 29.5s29.5 42.5 29.5 68.5c0 26.667 -10 49.834 -30 69.501s-42.667 29.5 -68 29.5z"/>
   <glyph glyph-name="Uhungarumlaut" horiz-adv-x="1479" unicode="Ű" d="M838 122c100 0 177.333 28 232 84s82 138.333 82 247v789l-180 26v73h456v-73l-152 -26v-781c0 -154.667 -44.667 -273.334 -134 -356.001s-217 -124 -383 -124c-179.333 0 -316.833 41.833 -412.5 125.5s-143.5 204.5 -143.5 362.5v773l-152 26v73h639v-73l-172 -26 v-787c0 -107.333 27.167 -189.666 81.5 -246.999s133.833 -86 238.5 -86zM472 1452v33l138 293h251v-37l-292 -289h-97zM823 1452v33l137 293h252v-37l-293 -289h-96z"/>
   <glyph glyph-name="uhungarumlaut" horiz-adv-x="1139" unicode="ű" d="M705 82l-68 -35c-93.334 -48 -177.334 -72 -252 -72c-173.333 0 -260 92.333 -260 277v598l-94 24v66h383v-649c0 -56 11.833 -99.667 35.5 -131s57.5 -47 101.5 -47c50.668 0 101.335 11.333 152 34v703l-86 24v66h375v-850l92 -24v-66h-365zM250 1118v33l138 293h251 v-37l-292 -289h-97zM601 1118v33l137 293h252v-37l-293 -289h-96z"/>
   <glyph glyph-name="Uogonek" horiz-adv-x="1479" unicode="Ų" d="M838 122c100 0 177.333 28 232 84s82 138.333 82 247v789l-180 26v73h456v-73l-152 -26v-781c0 -154.667 -44.667 -273.334 -134 -356.001s-217 -124 -383 -124c-179.333 0 -316.833 41.833 -412.5 125.5s-143.5 204.5 -143.5 362.5v773l-152 26v73h639v-73l-172 -26 v-787c0 -107.333 27.167 -189.666 81.5 -246.999s133.833 -86 238.5 -86zM906 -430c-75.333 0 -133.333 18.833 -174 56.5s-61 90.5 -61 158.5c0 46 12.167 89.333 36.5 130s56.5 73.667 96.5 99h127c-49.333 -70.667 -74 -141.667 -74 -213 c0 -38.667 9.66699 -68.5 29 -89.5s47 -31.5 83 -31.5c40 0 86 9.66699 138 29v-85c-60.6689 -36 -127.669 -54 -201 -54z"/>
   <glyph glyph-name="uogonek" horiz-adv-x="1139" unicode="ų" d="M705 82l-68 -35c-93.334 -48 -177.334 -72 -252 -72c-173.333 0 -260 92.333 -260 277v598l-94 24v66h383v-649c0 -56 11.833 -99.667 35.5 -131s57.5 -47 101.5 -47c50.668 0 101.335 11.333 152 34v703l-86 24v66h375v-850l92 -24v-66h-365zM843 -430 c-75.333 0 -133.333 18.833 -174 56.5s-61 90.5 -61 158.5c0 46 12.167 89.333 36.5 130s56.5 73.667 96.5 99h127c-49.333 -70.667 -74 -141.667 -74 -213c0 -38.667 9.66699 -68.5 29 -89.5s47 -31.5 83 -31.5c40 0 86 9.66699 138 29v-85 c-60.667 -36 -127.667 -54 -201 -54z"/>
   <glyph glyph-name="Wcircumflex" horiz-adv-x="2048" unicode="Ŵ" d="M1501 -31h-123l-334 827l-331 -827h-123l-444 1273l-117 26v73h602v-73l-157 -26l286 -799l314 784h125l315 -782l237 797l-169 26v73h434v-73l-117 -26zM781 1452v33l218 293h213l217 -293v-33h-76l-248 162l-248 -162h-76z"/>
   <glyph glyph-name="wcircumflex" horiz-adv-x="1479" unicode="ŵ" d="M874 846l217 -535l182 539l-110 24v66h305v-66l-72 -20l-316 -874h-121l-215 527l-214 -527h-121l-333 870l-70 24v66h465v-66l-112 -26l202 -537l218 535h95zM471 1118v33l218 293h213l217 -293v-33h-76l-248 162l-248 -162h-76z"/>
   <glyph glyph-name="Ycircumflex" horiz-adv-x="1479" unicode="Ŷ" d="M911 528v-428l213 -27v-73h-742v73l213 27v422l-408 720l-151 26v73h690v-73l-180 -26l306 -562l296 562l-164 26v73h456v-73l-142 -26zM427 1452v33l218 293h213l217 -293v-33h-76l-248 162l-248 -162h-76z"/>
   <glyph glyph-name="ycircumflex" horiz-adv-x="1024" unicode="ŷ" d="M462 -29l-375.998 879l-66 24v66h481v-66l-112 -26l221 -520l197 522l-110 24v66h307v-66l-68 -20l-371 -913c-42.667 -108.667 -80 -187.5 -112 -236.5s-67.5 -85.667 -106.5 -110s-83.5 -36.5 -133.5 -36.5c-54 0 -109 6.33301 -165 19v242h60l43 -126 c19.333 -15.333 44 -23 74 -23c25.333 0 47.666 6 66.999 18s37.5 29.333 54.5 52s33.167 50.5 48.5 83.5c15.334 33 37.667 82.167 66.999 147.5zM195.002 1118v33l218 293h213l217 -293v-33h-76l-248 162l-248 -162h-76z"/>
   <glyph glyph-name="Ydieresis" horiz-adv-x="1479" unicode="Ÿ" d="M911 528v-428l213 -27v-73h-742v73l213 27v422l-408 720l-151 26v73h690v-73l-180 -26l306 -562l296 562l-164 26v73h456v-73l-142 -26zM950 1464c-32 0 -60.167 11.833 -84.5 35.5s-36.5 52.167 -36.5 85.5s12.167 61.5 36.5 84.5s52.5 34.5 84.5 34.5 c32.667 0 60.667 -11.333 84 -34s35 -51 35 -85c0 -33.333 -11.667 -61.833 -35 -85.5s-51.333 -35.5 -84 -35.5zM614 1464c-32 0 -60.167 12.333 -84.5 37s-36.5 52.667 -36.5 84c0 32 12 59.833 36 83.5s52.333 35.5 85 35.5s60.667 -11.833 84 -35.5s35 -51.5 35 -83.5 c0 -33.333 -11.667 -61.833 -35 -85.5s-51.333 -35.5 -84 -35.5z"/>
   <glyph glyph-name="Zacute" horiz-adv-x="1366" unicode="Ź" d="M98 114l741.999 1121h-240c-151.333 0 -258 -6.66699 -320 -20l-31 -211h-89v337h1036v-106l-747 -1131h280c76 0 150.833 3.66699 224.5 11s126.834 14.666 159.501 21.999l59 256h90l-27 -393h-1137v114zM532.999 1452v33l166 272h285v-37l-365 -268h-86z"/>
   <glyph glyph-name="zacute" horiz-adv-x="909" unicode="ź" d="M40 0v45l432 805h-107c-37.333 0 -73.333 -3.16699 -108 -9.5s-58.667 -14.833 -72 -25.5l-31 -155h-72v280h730v-49l-432 -801h150c38 0 78 4.5 120 13.5s71.667 20.167 89 33.5l53 217h72l-27 -354h-797zM310 1118v33l166 272h285v-37l-365 -268h-86z"/>
   <glyph glyph-name="Zdotaccent" horiz-adv-x="1366" unicode="Ż" d="M98 114l741.999 1121h-240c-151.333 0 -258 -6.66699 -320 -20l-31 -211h-89v337h1036v-106l-747 -1131h280c76 0 150.833 3.66699 224.5 11s126.834 14.666 159.501 21.999l59 256h90l-27 -393h-1137v114zM528.999 1602c0 43.334 15.167 79.6689 45.5 109.001 c30.333 29.333 66.5 44 108.5 44c42.668 0 78.835 -14.833 108.5 -44.5c29.667 -29.668 44.5 -65.835 44.5 -108.501c0 -42 -14.667 -78.167 -44 -108.5c-29.335 -30.333 -65.668 -45.5 -109 -45.5c-42.667 0 -79 14.833 -109 44.5s-45 66.167 -45 109.5z"/>
   <glyph glyph-name="zdotaccent" horiz-adv-x="909" unicode="ż" d="M40 0v45l432 805h-107c-37.333 0 -73.333 -3.16699 -108 -9.5s-58.667 -14.833 -72 -25.5l-31 -155h-72v280h730v-49l-432 -801h150c38 0 78 4.5 120 13.5s71.667 20.167 89 33.5l53 217h72l-27 -354h-797zM301 1268c0 43.3379 15.165 79.6729 45.498 109.001 c30.333 29.333 66.5 44 108.5 44c42.667 0 78.834 -14.833 108.501 -44.5c29.667 -29.6719 44.5 -65.8389 44.5 -108.501c0 -42 -14.667 -78.167 -44 -108.5s-65.666 -45.5 -108.999 -45.5c-42.667 0 -79 14.833 -109 44.5s-45 66.167 -45 109.5z"/>
   <glyph glyph-name="Zcaron" horiz-adv-x="1366" unicode="Ž" d="M98 114l741.999 1121h-240c-151.333 0 -258 -6.66699 -320 -20l-31 -211h-89v337h1036v-106l-747 -1131h280c76 0 150.833 3.66699 224.5 11s126.834 14.666 159.501 21.999l59 256h90l-27 -393h-1137v114zM1015 1778v-33l-218 -293h-213l-217 293v33h76l248 -162 l248 162h76z"/>
   <glyph glyph-name="zcaron" horiz-adv-x="909" unicode="ž" d="M40 0v45l432 805h-107c-37.333 0 -73.333 -3.16699 -108 -9.5s-58.667 -14.833 -72 -25.5l-31 -155h-72v280h730v-49l-432 -801h150c38 0 78 4.5 120 13.5s71.667 20.167 89 33.5l53 217h72l-27 -354h-797zM781 1444v-33l-218 -293h-213l-217 293v33h76l248 -162l248 162 h76z"/>
   <glyph glyph-name="longs" horiz-adv-x="569" unicode="ſ" d="M109 1045c0 128 32.667 226.167 98 294.5s159 102.5 281 102.5c66.667 0 122 -6.33301 166 -19v-224h-64l-29 109c-16 16 -37 24 -63 24c-66.667 0 -100 -85 -100 -255v-987l153 -24v-66h-544v66l102 24v955z"/>
   <glyph glyph-name="uni0180" horiz-adv-x="1139" unicode="ƀ" d="M13 1102v103.999h109v127l-96 23v65h385v-215h291v-104h-291v-26c0 -62 -3.33301 -125 -10 -189c26.667 22 65.167 40.5 115.5 55.5s99.5 22.5 147.5 22.5c136 0 235.333 -37.333 298 -112s94 -193.667 94 -357c0 -161.333 -40.167 -287.666 -120.5 -378.999 s-193.5 -137 -339.5 -137c-108 0 -266 22.667 -474 68v1054h-109zM763 496.999c0 123.333 -15.167 213.667 -45.5 271c-30.335 57.333 -80.168 86 -149.5 86c-25.333 0 -53 -2.83301 -83 -8.5s-54.667 -14.167 -74 -25.5v-719c42.667 -10.667 95 -16 157 -16 c66 0 115 32.167 147 96.5s48 169.5 48 315.5z"/>
   <glyph glyph-name="uni0181" horiz-adv-x="1546" unicode="Ɓ" d="M1043 1010c0 78 -16.833 134.334 -50.5 169.001s-89.167 52 -166.5 52h-139v-467h147c71.333 0 124 18.667 158 56s51 100.666 51 189.999zM1144 391.001c0 88.667 -22.167 154.667 -66.5 198s-116.833 65 -217.5 65h-173v-544c96 -4 171.667 -6 227 -6 c78 0 135.833 23.667 173.5 71s56.5 119.333 56.5 216zM338 1231c-52.667 0 -95.333 -7.5 -128 -22.5s-57 -42.167 -73 -81.5l-50 -121h-87l7 286c63.333 32.667 159 49 287 49h556c178 0 309.333 -23.833 394 -71.5c84.667 -47.6689 127 -124.836 127 -231.5 c0 -80 -25 -149 -75 -207s-117 -96 -201 -114c124.667 -12.667 219 -46.5 283 -101.5s96 -129.833 96 -224.5c0 -130 -48 -228.667 -144 -296s-233.667 -101 -413 -101l-456 6h-262v73l173 27v1131h-34z"/>
   <glyph glyph-name="uni0182" horiz-adv-x="1354" unicode="Ƃ" d="M692 0l-656 -0.000976562v73l171 26v1142l-172 27v73h1117l11 -330h-90l-55 204c-66.667 13.333 -171 20 -313 20h-183v-472h170c184 0 322.833 -32.167 416.5 -96.5s140.5 -160.166 140.5 -287.499c0 -252.667 -185.667 -379 -557 -379zM919 378.999 c0 89.334 -23.832 157.334 -71.499 204c-47.667 46.667 -113.834 70 -198.501 70h-127v-549h137c84.667 0 149.167 23.5 193.5 70.5s66.5 115.167 66.5 204.5z"/>
   <glyph glyph-name="uni0183" horiz-adv-x="1139" unicode="ƃ" d="M763 497c0 123.333 -15.167 213.667 -45.5 271c-30.335 57.333 -80.168 86 -149.5 86c-25.333 0 -53 -2.83301 -83 -8.5s-54.667 -14.167 -74 -25.5v-719c42.667 -10.667 95 -16 157 -16c66 0 115 32.167 147 96.5s48 169.5 48 315.5zM1056 496.001 c0 -161.333 -40.167 -287.667 -120.5 -379s-193.5 -137 -339.5 -137c-108 0 -266 22.667 -474 68v1373h742l13 -268h-77l-54 146c-31.335 5.33301 -73.668 9.83301 -127 13.5c-53.333 3.66699 -94 5.5 -122 5.5h-86v-162c0 -42 -1.16699 -92.667 -3.5 -152 s-4.5 -98.333 -6.5 -117c26.667 22 65.167 40.5 115.5 55.5s99.5 22.5 147.5 22.5c136 0 235.333 -37.333 298 -112s94 -193.667 94 -357z"/>
   <glyph glyph-name="uni0184" horiz-adv-x="1354" unicode="Ƅ" d="M929 379c0 89.334 -23.832 157.334 -71.499 204c-47.667 46.667 -113.834 70 -198.501 70h-137v-549h147c84.667 0 149.167 23.5 193.5 70.5s66.5 115.167 66.5 204.5zM439.001 1341l83 -0.000976562v-578h180c184 0 322.833 -32.167 416.5 -96.5 s140.5 -160.166 140.5 -287.499c0 -252.667 -185.667 -379 -557 -379h-666v73l171 26v795l-172 147v73z"/>
   <glyph glyph-name="uni0185" horiz-adv-x="1139" unicode="ƅ" d="M763 497c0 123.333 -15.167 213.667 -45.5 271c-30.335 57.333 -80.168 86 -149.5 86c-25.333 0 -53 -2.83301 -83 -8.5s-54.667 -14.167 -74 -25.5v-719c42.667 -10.667 95 -16 157 -16c66 0 115 32.167 147 96.5s48 169.5 48 315.5zM122 934.001l-122 154.999v65 l346 267h65v-345c0 -62 -3.33301 -125 -10 -189c26.667 22 65.167 40.5 115.5 55.5s99.5 22.5 147.5 22.5c136 0 235.333 -37.333 298 -112s94 -193.667 94 -357c0 -161.333 -40.167 -287.666 -120.5 -378.999s-193.5 -137 -339.5 -137c-108 0 -266 22.667 -474 68v886z"/>
   <glyph glyph-name="uni0186" horiz-adv-x="1479" unicode="Ɔ" d="M664 1356c224.667 0 399.999 -59.668 525.999 -179.001s189 -284.666 189 -495.999c0 -229.333 -60.167 -403.5 -180.5 -522.5s-298.166 -178.5 -533.499 -178.5c-155.333 0 -316.333 22.333 -483 67l-6 322h90l28 -194c88 -60 190.333 -90 307 -90 c154.667 0 267.667 48 339 144s107 245.667 107 449c0 187.333 -37.333 330 -112 428s-183.334 147 -326.001 147c-75.333 0 -141.166 -10 -197.499 -30s-100.5 -43.667 -132.5 -71l-32 -220h-91l6 340c68 25.3438 148 45.6768 240 61c92 15.333 179.333 23 262 23z"/>
   <glyph glyph-name="uni0187" horiz-adv-x="1479" unicode="Ƈ" d="M1589 1368l-29.998 115.001c-12 15.333 -29.333 27.333 -52 36s-47.667 13 -75 13c-90 0 -135 -63.333 -135 -190l6 -375h-90l-28 194c-88 60 -190.333 90 -307 90c-154.667 0 -267.667 -48.167 -339 -144.5s-107 -245.833 -107 -448.5c0 -187.333 37.333 -330 112 -428 s183.334 -147 326 -147c75.333 0 141.166 10 197.499 30s100.5 43.667 132.5 71l32 220h91l-6 -340c-60 -23.333 -138 -43.166 -234 -59.499s-185.333 -24.5 -268 -24.5c-224.667 0 -400 59.667 -526 179s-189 284.666 -189 495.999c0 229.333 60.167 403.5 180.5 522.5 s298.166 178.5 533.499 178.5c114 0 234.333 -12.667 361 -38c1.34277 101.336 25.6758 180.669 73 237.999c47.333 57.333 117 86 209 86c85.333 0 154.333 -10 207 -30v-244h-75z"/>
   <glyph glyph-name="uni0188" horiz-adv-x="909" unicode="ƈ" d="M1138 968l-30 138.999c-12.667 15.333 -30.667 27.333 -54 36s-49 13 -77 13c-93.333 0 -140 -63.333 -140 -190v-314h-72l-42 165c-22.667 16.6699 -45 28.3369 -67 35c-22 6.66699 -51 10 -87 10c-39.334 0 -75.001 -15.667 -107.001 -47s-56.833 -75.5 -74.5 -132.5 s-26.5 -125.167 -26.5 -204.5c0 -134 20.833 -229.667 62.5 -287s107.834 -86 198.501 -86c92 0 170.667 9.66699 236 29v-77c-30 -24 -71.5 -42.667 -124.5 -56s-107.5 -20 -163.5 -20c-167.333 0 -292.5 40.333 -375.5 121s-124.5 204 -124.5 370 c0 103.333 18.833 191.833 56.5 265.5s91.5 130 161.5 169s151.333 58.5 244 58.5c55.333 0 117.333 -4.66699 186 -14c7.33301 94.667 35 166.834 83 216.501s113.333 74.5 196 74.5c85.333 0 154.333 -10 207 -30v-244h-66z"/>
   <glyph glyph-name="uni0189" horiz-adv-x="1479" unicode="Ɖ" d="M695 1341c240.667 0 418.5 -54.5 533.5 -163.5s172.5 -275.5 172.5 -499.5c0 -230 -55 -401.167 -165 -513.5s-276.333 -168.5 -499 -168.5l-449 4h-208v73l150 27v509h-179v122h179v511l-172 26v73h637zM1069 670c0 193.333 -35.332 335.167 -105.999 425.5 s-185.667 135.5 -345 135.5h-74v-500h256v-122h-256v-495c64 -5.33301 122 -8 174 -8c86.667 0 155.167 18.667 205.5 56s87.166 95.833 110.499 175.5s35 190.5 35 332.5z"/>
   <glyph glyph-name="uni018A" horiz-adv-x="1672" unicode="Ɗ" d="M1255 670c0 193.333 -35.333 335.167 -106 425.5c-70.668 90.333 -185.668 135.5 -345 135.5h-74v-1117c64 -5.33301 122 -8 174 -8c86.668 0 155.168 18.667 205.5 56c50.3379 37.333 87.1709 95.833 110.5 175.5c23.333 79.667 35 190.5 35 332.5zM1587 678.001 c0 -230 -54.999 -401.167 -164.999 -513.5s-276.333 -168.5 -499 -168.5l-449 4h-230v73l172 27v1131h-78c-52.667 0 -95.334 -7.5 -128.001 -22.5s-57 -42.167 -73 -81.5l-50 -121h-87l7 286c63.333 32.667 159 49 287 49h587c240.667 0 418.5 -54.5 533.5 -163.5 s172.5 -275.5 172.5 -499.5z"/>
   <glyph glyph-name="uni018B" horiz-adv-x="1354" unicode="Ƌ" d="M1298 0l-656 0.000976562c-371.333 0 -557 126.333 -557 379c0 127.333 46.833 223.166 140.5 287.499s232.5 96.5 416.5 96.5h170v472h-183c-142 0 -246.333 -6.66699 -313 -20l-55 -204h-90l11 330h1117v-73l-172 -27v-1142l171 -26v-73zM812 104.001l0.000976562 549 h-127c-84.667 0 -150.834 -23.333 -198.501 -70s-71.5 -114.667 -71.5 -204s22.167 -157.5 66.5 -204.5s108.833 -70.5 193.5 -70.5h137z"/>
   <glyph glyph-name="uni018C" horiz-adv-x="1139" unicode="ƌ" d="M1116 0l-362 0.000976562l-21 53c-37.333 -24 -66 -39.833 -86 -47.5s-42.667 -13.834 -68 -18.501s-53.333 -7 -84 -7c-138.667 0 -242 39.833 -310 119.5s-102 202.167 -102 367.5c0 162.667 36.5 286.334 109.5 371c73 84.667 178.833 127 317.5 127 c72.667 0 146 -9 220 -27c-4 22 -6 47 -6 75v225h-192c-52 0 -115 -6.33301 -189 -19l-43 -166h-75v288h788v-1251l103 -24v-66zM376 475.001c0 -124.667 15.668 -219.833 47.001 -285.5s76.333 -98.5 135 -98.5c53.333 0 108.666 14.333 165.999 43v708 c-52 14 -104.667 21 -158 21c-60 0 -106.667 -32.833 -140 -98.5s-50 -162.167 -50 -289.5z"/>
   <glyph glyph-name="uni018D" horiz-adv-x="1063" unicode="ƍ" d="M854 -178v-17.999c0 -77.333 -34.333 -138 -103 -182s-164.334 -66 -287.001 -66c-86.667 0 -172 10.333 -256 31v231h66l35 -123c14.667 -11.333 35.167 -21.5 61.5 -30.5s53.5 -13.5 81.5 -13.5c42.667 0 75.834 9.66699 99.501 29s35.5 45 35.5 77 c0 34.667 -15 68.5 -45 101.5s-97.333 83.833 -202 152.5c-90.667 59.333 -160 131.166 -208 215.499c-48 84.334 -72 179.167 -72 284.5c0 142 43 253.167 129 333.5s203.333 120.5 352 120.5c130.667 0 235.334 -38.667 314 -116c78.667 -77.334 118 -182.667 118 -316 c0 -197.333 -104 -343 -312 -437c128.667 -88 193 -179.333 193 -274zM521 876.001c-52 0 -93.333 -25.667 -124 -77s-46 -128 -46 -230c0 -153.333 66.667 -281 200 -383l21 -16c35.333 30.667 64 79.667 86 147c22 67.334 33 142.667 33 226c0 222 -56.667 333 -170 333z "/>
   <glyph glyph-name="uni018E" horiz-adv-x="1366" unicode="Ǝ" d="M1331 0h-1207l-19 374h91l57 -248c53.333 -10.667 166 -16 338 -16h253v517h-351l-31 -152h-89v412h89l31 -148h351v492h-208c-144 0 -252 -4.66699 -324 -14l-32 -217h-91v341h1142v-73l-172 -26v-1142l172 -27v-73z"/>
   <glyph glyph-name="uni018F" horiz-adv-x="1513" unicode="Ə" d="M726 1255c-140.667 0 -258.999 -31.332 -354.999 -93.999l-28 -194h-90l6 322c166.667 44.667 327.667 67 483 67c236 0 413.5 -57.5 532.5 -172.5s178.5 -285.5 178.5 -511.5c0 -227.333 -59.333 -399.5 -178 -516.5s-291.334 -175.5 -518.001 -175.5 c-226 0 -398.667 58.333 -518 175s-179 289 -179 517l2 73h1058c-6 183.333 -40.5 314.166 -103.5 392.499s-159.833 117.5 -290.5 117.5zM757.001 80.001c123.333 0 214.167 43.501 272.5 130.501s88.833 228.5 91.5 424.5h-729 c3.33301 -198.667 34.333 -340.834 93 -426.501s149.334 -128.5 272 -128.5z"/>
   <glyph glyph-name="uni0190" horiz-adv-x="1081" unicode="Ɛ" d="M74 365c0 196.667 116.001 309.001 348.001 337.001c-92.667 14 -165.5 49.667 -218.5 107s-79.5 129.666 -79.5 216.999c0 220 163.667 330 491 330c122.667 0 241.334 -14.333 356 -43v-305h-87l-43 194c-22 15.333 -51.5 27.833 -88.5 37.5s-73.5 14.5 -109.5 14.5 c-138 0 -207 -80 -207 -240c0 -79.333 18 -139 54 -179s83.667 -62 143 -66l116 -8v-121l-120 -7c-160.667 -10 -241 -96 -241 -258c0 -196 89 -294 267 -294c29.333 0 64.5 4.5 105.5 13.5s74.5 20.833 100.5 35.5l52 215h92l-12 -325c-110.667 -26.667 -234 -40 -370 -40 c-172.667 0 -307.334 34 -404.001 102s-145 162.333 -145 283z"/>
   <glyph glyph-name="uni0191" horiz-adv-x="1251" unicode="Ƒ" d="M557 572v-562.001c0 -144.667 -40 -256.167 -120 -334.5s-194 -117.5 -342 -117.5c-50 0 -99.167 2.83301 -147.5 8.5s-86.833 12.834 -115.5 21.501v304h89l30 -179c12.667 -15.333 30.667 -27.333 54 -36s49 -13 77 -13c46 0 84.167 16 114.5 48s45.5 79.333 45.5 142 v1388l-172 26v73h1118v-361h-94l-32 237c-32.668 4.66699 -86.668 8.16699 -162 10.5c-75.334 2.33301 -134.667 3.5 -178 3.5h-165v-549h327l31 170h89v-452h-89l-31 172h-327z"/>
   <glyph glyph-name="florin" horiz-adv-x="1024" unicode="ƒ" d="M180 -285l137 978h-169l13 69l171 34l33 236c14 102 53.5 182.5 118.5 241.5s144.5 88.5 238.5 88.5c78 0 143.333 -6.33301 196 -19v-224h-64l-28 113c-18 13.333 -39.667 20 -65 20c-30 0 -53.833 -18.333 -71.5 -55c-17.667 -36.6689 -32.167 -95.3359 -43.5 -176 l-32 -224h239l-15 -104h-239l-137 -978h-282z"/>
   <glyph glyph-name="uni0193" horiz-adv-x="1593" unicode="Ɠ" d="M1654 1368l-30.001 114.999c-12 15.333 -29.333 27.333 -52 36s-47.667 13 -75 13c-90 0 -135 -63.333 -135 -190v-379h-90l-24 174c-52.667 36 -110.667 64 -174 84c-63.334 20 -128.667 30 -195.999 30c-155.333 0 -268.5 -48.333 -339.5 -145 s-106.5 -246.334 -106.5 -449.001c0 -188.667 37.5 -331.5 112.5 -428.5s183.5 -145.5 325.5 -145.5c77.333 0 151 11.667 221 35v388l-172 26v74h618v-74l-131 -26v-436c-82.667 -27.333 -178.667 -49.166 -288 -65.499c-109.334 -16.333 -207.667 -24.5 -295 -24.5 c-146 0 -273.5 26.667 -382.5 80s-193 131 -252 233s-88.5 222.667 -88.5 362c0 224.667 64.167 397.667 192.5 519s311.5 182 549.5 182c60 0 119.833 -3.16699 179.5 -9.5s132.5 -19.833 218.5 -40.5c0 108.667 24.167 191.834 72.5 249.501 c48.3359 57.667 118.169 86.5 209.5 86.5c85.333 0 154.333 -10 207 -30v-244h-75z"/>
   <glyph glyph-name="uni0194" horiz-adv-x="1479" unicode="Ɣ" d="M23 1268v73h583v-73l-139 -27l348 -855l381 855l-135 27v73h395v-73l-127 -27l-447 -1021c121.333 -304 191.333 -520.333 210 -649l-508 -13l-87 33c24 91.333 74.333 228 151 410l-515 1240zM647 -337l112 5c-6 43.333 -21 99.333 -45 168 c-36 -81.333 -58.333 -139 -67 -173z"/>
   <glyph glyph-name="uni0195" horiz-adv-x="1601" unicode="ƕ" d="M1138 -20c-142 0 -246.332 25.668 -312.999 77.001s-100 128 -100 230v362c0 56 -11.833 99.667 -35.5 131s-57.5 47 -101.5 47c-50.667 0 -101.334 -11.333 -152.001 -34v-703l86 -24v-66h-467v66l92 24v1241l-96 24v66h385v-407c0 -44 -2 -96 -6 -156l69 35 c94.667 48 179.667 72 255 72c173.333 0 260 -92.333 260 -277v-389c0 -84 9.16699 -145 27.5 -183s49.833 -57 94.5 -57c38 0 67.833 21.167 89.5 63.5s32.5 101.166 32.5 176.499v551l-110 24v66h375v-653c0 -100.667 -32 -177 -96 -229s-160.333 -78 -289 -78z"/>
   <glyph glyph-name="uni0196" horiz-adv-x="628" unicode="Ɩ" d="M394 -20c-83.333 0 -146.167 19.667 -188.5 59s-63.5 102 -63.5 188v1104l-96 24v66h385v-1195c0 -45.333 7.83301 -77 23.5 -95s37.5 -27 65.5 -27c27.333 0 57 4.33301 89 13v-82c-21.333 -15.333 -54 -28.333 -98 -39s-83 -16 -117 -16z"/>
   <glyph glyph-name="uni0197" horiz-adv-x="797" unicode="Ɨ" d="M556 654v-554l172 -26v-74h-659v74l172 26v554h-172v122h172v465l-172 27v73h659v-73l-172 -27v-465h172v-122h-172z"/>
   <glyph glyph-name="uni0198" horiz-adv-x="1593" unicode="Ƙ" d="M1577 0h-438l-501 646l-116 -100v-446l193 -27v-73h-680v73l172 27v864c0 133.333 34.5 232.833 103.5 298.5s169.5 98.5 301.5 98.5c60 0 121 -8 183 -24v-259h-81l-29 149c-16 16 -37 24 -63 24c-66.667 0 -100 -85 -100 -255v-300l611 546l-123 26v73h459v-73 l-164 -26l-443 -391l590 -751l125 -27v-73z"/>
   <glyph glyph-name="uni0199" horiz-adv-x="1139" unicode="ƙ" d="M684 0v66l55 24l-188 329l-115 -80v-249l93 -24v-66h-471v66l89 24v955c0 128 32.667 226.167 98 294.5s159 102.5 281 102.5c66.667 0 122 -6.33301 166 -19v-224h-64l-29 109c-16 16 -37 24 -63 24c-66.667 0 -100 -85 -100 -255v-626l367 400l-100 23v66h358v-66 l-108 -22l-224 -236l323 -526l84 -24v-66h-452z"/>
   <glyph glyph-name="uni019A" horiz-adv-x="569" unicode="ƚ" d="M431 663v-573l103 -24v-66h-494v66l102 24v573h-119v104h119v564l-96 24v66h385v-654h137v-104h-137z"/>
   <glyph glyph-name="uni019B" horiz-adv-x="1006" unicode="ƛ" d="M1006 0h-200.998l-218 658c-11.3359 -30.667 -27.6689 -73.5 -49 -128.5c-21.334 -55 -97.001 -231.5 -227.001 -529.5h-293v50l461 935l-17 53l-347 -336v144l308 299c-46.667 113.333 -102 170 -166 170c-23.333 0 -44.666 -7.66699 -63.999 -23l-43 -96h-60v220 c14.667 3.33301 28.167 6.5 40.5 9.5s24.666 5.83301 36.999 8.5s25.333 4.66699 39 6s29.834 2 48.5 2c64 0 116.167 -14.667 156.5 -44s77.5 -81.333 111.5 -156l195 189v-144l-153 -149l338 -982c15.333 -46.667 49.666 -77 102.999 -91v-65z"/>
   <glyph glyph-name="uni019C" horiz-adv-x="1926" unicode="Ɯ" d="M1377 80c-50 -29.333 -102.498 -53.5 -157.498 -72.5s-101.5 -28.5 -139.5 -28.5c-44 0 -84.667 8.66699 -122 26s-65.333 45 -84 83c-50.667 -29.333 -108.667 -54.833 -174 -76.5c-65.334 -21.667 -119.667 -32.5 -163 -32.5c-110 0 -194.167 24 -252.5 72 s-87.5 116.333 -87.5 205v986l-172 26v73h587v-73l-100 -26v-949c0 -114.667 37.667 -172 113 -172c39.333 0 98.666 11.667 177.999 35c-11.333 36 -17 75.667 -17 119v967l-101 26v73h515v-73l-99 -26v-949c0 -55.333 10.167 -97.833 30.5 -127.5s49.833 -44.5 88.5 -44.5 c19.3379 0 44.6709 2.83301 75.999 8.5c31.3389 5.66699 57.6719 12.5 79 20.5v1092l-101 26v73h546v-73l-129 -26l-1 -1142l129 -26v-74h-429z"/>
   <glyph glyph-name="uni019D" horiz-adv-x="1479" unicode="Ɲ" d="M1280 1242l-0.000976562 -1242h-117l-827 1078v-1217c0 -100.667 -25.5 -176.334 -76.5 -227.001s-130.167 -76 -237.5 -76c-31.333 0 -63.666 3 -96.999 9s-60.666 13.667 -81.999 23v302h89l30 -179c10.667 -15.333 26.167 -27.333 46.5 -36s42.166 -13 65.499 -13 c44.667 0 78.667 16.5 102 49.5s35 78.167 35 135.5v1393l-172 26v73h459l657 -857v758l-180 26v73h477v-73z"/>
   <glyph glyph-name="uni019E" horiz-adv-x="1139" unicode="ƞ" d="M434 858l68.001 35c93.333 48 177.333 72 252 72c173.333 0 260 -92.333 260 -277v-1034l94 -24v-66h-467v66l84 24v995c0 56 -11.833 99.667 -35.5 131s-57.5 47 -101.5 47c-50.667 0 -101.334 -11.333 -152.001 -34v-703l86 -24v-66h-467v66l92 24v760l-92 24v66h365z "/>
   <glyph glyph-name="uni019F" horiz-adv-x="1593" unicode="Ɵ" d="M100 672c0 456 232.335 684.001 697.002 684.001c229.334 0 402.667 -57.833 519.999 -173.5c117.333 -115.667 176 -285.834 176 -510.501c0 -227.333 -59.333 -399.5 -178 -516.5s-291.334 -175.5 -518.001 -175.5c-226 0 -398.667 58.333 -518 175s-179 289 -179 517z M797.002 80.001c123.333 0 214.167 43.501 272.5 130.501s88.833 228.5 91.5 424.5h-729c3.33301 -198.667 34.333 -340.834 93 -426.501s149.334 -128.5 272 -128.5zM797.003 1255c-120 0 -209.166 -40.167 -267.499 -120.5s-90.5 -210.166 -96.5 -389.499h727 c-6 179.333 -37.833 309.166 -95.5 389.499s-146.834 120.5 -267.501 120.5z"/>
   <glyph glyph-name="Ohorn" horiz-adv-x="1593" unicode="Ơ" d="M100 672c0 456 232.335 684 697.002 684c285.334 0 483.667 -89.333 595 -268c49.333 30 74 63 74 99c0 12 -4.83301 22.667 -14.5 32s-27.167 21 -52.5 35c-45.333 24 -68 58.333 -68 103c0 37.3389 12.667 67.6719 38 91c25.333 23.333 58 35 98 35 c47.333 0 85.666 -16.5 114.999 -49.5s44 -75.5 44 -127.5c0 -60.667 -15.833 -117 -47.5 -169s-79.5 -96.667 -143.5 -134c38.667 -92 58 -202.333 58 -331c0 -227.333 -59.333 -399.5 -178 -516.5s-291.334 -175.5 -518.001 -175.5c-226 0 -398.667 58.333 -518 175 s-179 289 -179 517zM432.002 672c0 -212.667 29.167 -364.5 87.5 -455.5s150.833 -136.5 277.5 -136.5c126 0 218.167 45.667 276.5 137s87.5 243 87.5 455c0 211.333 -29.167 361.333 -87.5 450s-150.5 133 -276.5 133c-126.667 0 -219.167 -44.333 -277.5 -133 s-87.5 -238.667 -87.5 -450z"/>
   <glyph glyph-name="ohorn" horiz-adv-x="1134" unicode="ơ" d="M1120 1002c0 -62.667 -16.666 -120.499 -49.999 -173.499s-84 -98.167 -152 -135.5c18.667 -60.667 28 -133.334 28 -218.001c0 -168.667 -36.167 -293.334 -108.5 -374.001s-182.833 -121 -331.5 -121c-144 0 -251.333 40.833 -322 122.5s-106 205.834 -106 372.501 c0 166 35.833 289.167 107.5 369.5s181.167 120.5 328.5 120.5c176.667 0 299.334 -61.333 368 -184c52 30.667 78 64.667 78 102c0 12 -4.83301 22.667 -14.5 32s-27.167 21 -52.5 35c-45.333 24 -68 58.333 -68 103c0 37.3379 12.667 67.6709 38 91 c25.333 23.333 58 35 98 35c47.333 0 85.666 -16.5 114.999 -49.5s44 -75.5 44 -127.5zM653.001 475.001c0 146.667 -10.833 248.167 -32.5 304.5s-59.167 84.5 -112.5 84.5c-51.333 0 -87 -27 -107 -81s-30 -156.667 -30 -308c0 -154 10.167 -258.333 30.5 -313 s55.833 -82 106.5 -82c52.667 0 90 28.833 112 86.5s33 160.5 33 308.5z"/>
   <glyph glyph-name="uni01A2" horiz-adv-x="2163" unicode="Ƣ" d="M2095 -443l-659 0.000976562v74l172 26v1574h-241v-1161c-197.333 -60 -380.333 -90 -549 -90c-236 0 -419 59.167 -549 177.5s-195 284.166 -195 497.499c0 234.667 58.833 410.167 176.5 526.5s290.167 174.5 517.5 174.5l409 -15h746v-1684l172 -26v-74zM821 1255 c-142.667 0 -247.333 -48.8311 -314 -146.498s-100 -247.834 -100 -450.501c0 -188.667 32.833 -332.167 98.5 -430.5s162.834 -147.5 291.5 -147.5c44.667 0 92.5 6.66699 143.5 20c51.002 13.333 88.1689 28.666 111.5 45.999v1085c-100 16 -177 24 -231 24z"/>
   <glyph glyph-name="uni01A3" horiz-adv-x="1578" unicode="ƣ" d="M987 -436l0.00195312 65.999l129 24v1182h-170v-361c0 -166 -35.667 -290 -107 -372s-182.333 -123 -333 -123c-141.333 0 -248 40.333 -320 121s-108 205.334 -108 374.001c0 166 36 289.167 108 369.5s181.333 120.5 328 120.5c31.333 0 88.666 -4 171.999 -12 c83.333 -8.66699 142.666 -13 177.999 -13h541v-1286l104 -24v-66h-522zM506.002 78.999c54.668 0 92.834 29.3311 114.499 87.998c21.667 58.667 32.5 161.334 32.5 308.001v361c-20.667 7.33301 -45.834 13.833 -75.501 19.5s-53.5 8.5 -71.5 8.5 c-49.333 0 -84.166 -27.333 -104.499 -82s-30.5 -157 -30.5 -307c0 -151.333 10.333 -255.166 31 -311.499s55.334 -84.5 104.001 -84.5z"/>
   <glyph glyph-name="uni01A4" horiz-adv-x="1422" unicode="Ƥ" d="M1039 944c0 106.667 -19.833 181.167 -59.5 223.5s-109.5 63.5 -209.5 63.5h-79v-595h83c92.667 0 160 23.333 202 70s63 126 63 238zM1361 946c0 -280 -163.332 -420 -489.999 -420h-180v-426l223 -27v-73h-698v73l159 27v1131h-37 c-52.667 0 -95.334 -7.5 -128.001 -22.5s-57 -42.167 -73 -81.5l-50 -121h-87l7 286c63.333 32.667 159 49 287 49h500c190 0 332 -31.833 426 -95.5s141 -163.5 141 -299.5z"/>
   <glyph glyph-name="uni01A5" horiz-adv-x="1139" unicode="ƥ" d="M674 1199h-64l-29 109c-16 16 -37 24 -63 24c-66.667 0 -100 -85 -100 -255v-179c70 44.667 153.667 67 251 67c130.667 0 227.834 -38.333 291.5 -115c63.667 -76.667 95.5 -197.667 95.5 -363c0 -164 -37 -289.5 -111 -376.5s-180.333 -130.5 -319 -130.5 c-70.667 0 -142 9 -214 27c4 -44 6 -93.333 6 -148v-205l138 -24v-66h-529v66l102 24v1391c0 128 32.667 226.167 98 294.5s159 102.5 281 102.5c66 0 121.333 -6.33301 166 -19v-224zM763 480c0 249.333 -57.999 374 -173.999 374c-62 0 -119 -12.667 -171 -38v-709 c54 -14 110.333 -21 168.999 -21c117.333 0 176 131.333 176 394z"/>
   <glyph glyph-name="uni01A6" horiz-adv-x="1251" unicode="Ʀ" d="M872 779c0 100 -20.667 169.5 -62 208.5s-117 58.5 -227 58.5h-60v-553h65c102.667 0.000976562 175.667 21.334 219 64c43.333 42.667 65 116.667 65 222zM1010 -225l-400.999 608.001h-86v-283l172 -27v-73h-647v73l159 27v1142l-172 26v73h660v-73l-172 -27v-85h73 c197.333 0 344.666 -30.333 441.999 -91s146 -155.334 146 -284.001c0 -192 -90 -315.333 -270 -370l385 -536l145 -27v-73h-434z"/>
   <glyph glyph-name="uni01A7" horiz-adv-x="1139" unicode="Ƨ" d="M1030 51c-60 -22 -129.832 -39.332 -209.499 -51.999s-156.5 -19 -230.5 -19c-335.333 0 -503 142.333 -503 427c0 74 14.833 138 44.5 192s72.5 99.5 128.5 136.5s162 81.167 318 132.5c78 25.333 135.167 53.833 171.5 85.5s54.5 69.5 54.5 113.5 c0 60.667 -21.5 106.667 -64.5 138s-106.5 47 -190.5 47c-90.667 0 -170 -24.667 -238 -74l-45 -184h-89v319c132.667 28.667 256.667 43 372 43c154.667 0 272.167 -30.833 352.5 -92.5s120.5 -151.5 120.5 -269.5c0 -66.667 -10.333 -122.834 -31 -168.501 s-48.334 -84.5 -83.001 -116.5s-77.5 -59.833 -128.5 -83.5s-133.167 -54.5 -246.5 -92.5c-78 -26.667 -135.167 -56.834 -171.5 -90.5c-36.333 -33.667 -54.5 -75.5 -54.5 -125.5c0 -157.333 95.667 -236 287 -236c61.333 0 120 11 176 33s98.333 49.333 127 82l45 215h88 v-360z"/>
   <glyph glyph-name="uni01A8" horiz-adv-x="797" unicode="ƨ" d="M50 298c0 74 20.5 135.332 61.5 183.999s109.833 88 206.5 118c92 28 151.667 53.167 179 75.5s41 50.833 41 85.5c0 34 -11.5 60.833 -34.5 80.5s-58.5 29.5 -106.5 29.5c-31.333 0 -64.333 -6.16699 -99 -18.5c-34.667 -12.3369 -62 -28.1699 -82 -47.5l-32 -110h-66 v241c116 19.333 208.333 29 277 29c100.667 0 182.5 -25.333 245.5 -76s94.5 -118.667 94.5 -204c0 -76.667 -20.167 -140.834 -60.5 -192.501s-108.833 -92.5 -205.5 -122.5c-90.667 -28 -150 -53 -178 -75s-42 -51.667 -42 -89c0 -38.667 14.167 -70.5 42.5 -95.5 s71.5 -37.5 129.5 -37.5c40.667 0 80 8 118 24s68 35.333 90 58l38 132h66v-256c-37.333 -13.333 -85.333 -25.166 -144 -35.499s-112.667 -15.5 -162 -15.5c-122.667 0 -216.167 26.833 -280.5 80.5s-96.5 132.834 -96.5 237.501z"/>
   <glyph glyph-name="uni01A9" horiz-adv-x="1339" unicode="Ʃ" d="M775 817v-100l-409 -454h285c74.667 0 165.667 1.5 273 4.5s174 6.83301 200 11.5l36 185h83l-19 -464h-1157v102l480 530l-472 602v107h1085v-341h-91l-42 217c-76.667 9.33301 -186 14 -328 14h-239z"/>
   <glyph glyph-name="uni01AA" horiz-adv-x="1050" unicode="ƪ" d="M257 1009c-58 0 -107.667 20.499 -149 61.499s-62 91.5 -62 151.5s20.5 110.167 61.5 150.5s90.833 60.5 149.5 60.5c119.334 0 210.667 -52.5 274 -157.5s95 -258.833 95 -461.5v-885c0 -81.333 10.5 -144.166 31.5 -188.499s49.5 -66.5 85.5 -66.5 c16.667 0 33 6.33301 49 19l43 114h64v-225c-55.335 -12 -112.668 -18 -172 -18c-124 0 -220 34.833 -288 104.5s-102 167.167 -102 292.5v1064c-25.333 -10.667 -52 -16 -80 -16zM257 1321c-26 0 -48.833 -9.83398 -68.5 -29.501 c-19.667 -19.6758 -29.5 -42.8428 -29.5 -69.5c0 -26 9.83301 -48.833 29.5 -68.5s42.5 -29.5 68.5 -29.5s48.833 9.83301 68.5 29.5s29.5 42.5 29.5 68.5c0 26.667 -10 49.834 -30 69.501s-42.667 29.5 -68 29.5z"/>
   <glyph glyph-name="uni01AB" horiz-adv-x="682" unicode="ƫ" d="M388 -436c-59.333 0 -116.667 5.99902 -172 17.999v225h64l43 -114c16 -12.667 32.333 -19 49 -19c35.333 0 62.833 22 82.5 66s29.5 107 29.5 189v53l-23 -2h-23c-90 0 -159.5 20.333 -208.5 61s-73.5 99.334 -73.5 176.001v619h-123v65l145 39l117 213h150v-213h198 v-104h-198v-601c0 -43.333 9 -76 27 -98s41.667 -33 71 -33c35.333 0 78.666 5.33301 129.999 16v-140c0 -133.333 -24.167 -236 -72.5 -308s-119.166 -108 -212.499 -108z"/>
   <glyph glyph-name="uni01AC" horiz-adv-x="1366" unicode="Ƭ" d="M1335 966h-92l-27 249c-55.333 12 -164.666 18 -327.999 18h-49v-1133l213 -27v-73h-742v73l213 27v1133h-185c-52.667 0 -95.334 -7.83301 -128.001 -23.5s-57 -43.167 -73 -82.5l-50 -121h-87l7 286c63.333 32.667 159 49 287 49h1041v-375z"/>
   <glyph glyph-name="uni01AD" horiz-adv-x="682" unicode="ƭ" d="M644 1168l-35.9971 139.998c-16 16 -37 24 -63 24c-66.667 0 -100 -85 -100 -255v-137h198v-104h-198v-601c0 -43.333 9 -76 27 -98s41.667 -33 71 -33c35.333 0 78.666 5.33301 129.999 16v-85c-20 -14 -54.167 -26.667 -102.5 -38 c-48.334 -11.333 -92.501 -17 -132.501 -17c-90 0 -159.5 20.333 -208.5 61s-73.5 99.334 -73.5 176.001v619h-123v65l123 33v111c0 128 32.667 226.167 98 294.5s159 102.5 281 102.5c35.333 0 70.666 -3.16699 105.999 -9.5s61.333 -13.166 78 -20.499v-244h-75z"/>
   <glyph glyph-name="uni01AE" horiz-adv-x="1366" unicode="Ʈ" d="M1335 966h-92.001l-27 249c-55.333 12 -164.666 18 -327.999 18h-49v-1379c0 -62.667 15.167 -110 45.5 -142s68.5 -48 114.5 -48c28 0 53.667 4.33301 77 13s41.333 20.667 54 36l30 179h89v-304c-26.6709 -8 -63.8379 -15 -111.5 -21c-47.667 -6 -98.167 -9 -151.5 -9 c-147.333 0 -261.333 39 -342 117s-121 189.667 -121 335v1225h-51c-152.667 0 -260 -6.66699 -322 -20l-27 -249h-91v375h1303v-375z"/>
   <glyph glyph-name="Uhorn" horiz-adv-x="1630" unicode="Ư" d="M1612 1306c0 -84.6689 -29.3311 -158.836 -87.998 -222.5c-58.6699 -63.667 -141.337 -110.5 -248.001 -140.5v-482c0 -154.667 -44.667 -273.334 -134 -356.001s-217 -124 -383 -124c-179.333 0 -316.833 41.833 -412.5 125.5s-143.5 204.5 -143.5 362.5v773l-152 26v73 h639v-73l-172 -26v-787c0 -107.333 27.167 -189.666 81.5 -246.999s133.833 -86 238.5 -86c100 0 177.333 28 232 84s82 138.333 82 247v789l-180 26v73h304v-299c62 20.667 106.833 43.667 134.5 69c27.667 25.334 41.5 50.667 41.5 76c0 12 -4.83301 22.667 -14.5 32 s-27.167 21 -52.5 35c-45.333 24 -68 58.333 -68 103c0 37.3389 12.667 67.6719 38 91c25.333 23.333 58 35 98 35c47.3389 0 85.6719 -16.5 114.999 -49.5c29.333 -33 44 -75.5 44 -127.5z"/>
   <glyph glyph-name="uhorn" horiz-adv-x="1229" unicode="ư" d="M1249 1002c0 -70.667 -21.333 -135.167 -64 -193.5s-107 -105.5 -193 -141.5v-577l92 -24v-66h-365l-14 82l-68 -35c-93.334 -48 -177.334 -72 -252 -72c-173.333 0 -260 92.333 -260 277v598l-94 24v66h383v-649c0 -56 11.833 -99.667 35.5 -131s57.5 -47 101.5 -47 c50.668 0 101.335 11.333 152 34v703l-86 24v66h375v-169c64.667 32.667 97 70 97 112c0 12 -4.83301 22.667 -14.5 32s-27.167 21 -52.5 35c-45.333 24 -68 58.333 -68 103c0 37.3379 12.667 67.6709 38 91c25.333 23.333 58 35 98 35c47.3379 0 85.6709 -16.5 115 -49.5 c29.333 -33 44 -75.5 44 -127.5z"/>
   <glyph glyph-name="uni01B1" horiz-adv-x="1640" unicode="Ʊ" d="M821 86c126.668 0 224.168 36 292.5 108c68.333 72 102.5 175.333 102.5 310c0 119.333 -25.333 213 -76 281s-122.667 109.333 -216 124l-23 432h625l23 -384h-86l-61 128c-53.333 10.667 -139.333 16 -258 16h-109l5 -105 c163.333 -24.667 288.833 -79.334 376.5 -164.001s131.5 -194 131.5 -328c0 -165.333 -63 -293.166 -189 -383.499s-305.333 -135.5 -538 -135.5c-232 0 -411.167 45 -537.5 135s-189.5 218 -189.5 384c0 133.333 43.667 242.5 131 327.5s213 139.833 377 164.5l5 105h-109 c-118.667 0 -204.667 -5.33301 -258 -16l-61 -128h-86l23 384h625l-23 -432c-93.333 -14.667 -165.333 -56.167 -216 -124.5s-76 -161.833 -76 -280.5c0 -134 34 -237.167 102 -309.5s165.667 -108.5 293 -108.5z"/>
   <glyph glyph-name="uni01B2" horiz-adv-x="1335" unicode="Ʋ" d="M805 1087l-0.000976562 244c52.667 20 121.667 30 207 30c86.667 0 152.334 -26.333 197.001 -79s67 -129 67 -229v-592c0 -154.667 -44.667 -273.334 -134 -356.001s-217 -124 -383 -124c-179.333 0 -316.833 41.833 -412.5 125.5s-143.5 204.5 -143.5 362.5v773 l-152 26v73h639v-73l-172 -26v-787c0 -107.333 27.167 -189.666 81.5 -246.999s133.833 -86 238.5 -86c100 0 177.333 28 232 84s82 138.333 82 247v608c0 62.667 -10.833 110 -32.5 142s-52.5 48 -92.5 48c-22 0 -44 -4.33301 -66 -13s-39 -20.667 -51 -36l-30 -115h-75z "/>
   <glyph glyph-name="uni01B3" horiz-adv-x="1619" unicode="Ƴ" d="M1586 1082h-75l-35 134c-24.667 17.333 -53 26 -85 26c-36 0 -66.333 -10.667 -91 -32s-49 -54.333 -73 -99l-316 -583v-428l213 -27v-73h-742v73l213 27v422l-408 720l-151 26v73h690v-73l-180 -26l306 -562l247 469c72 138 170.333 207 295 207 c75.333 0 139.333 -10 192 -30v-244z"/>
   <glyph glyph-name="uni01B4" horiz-adv-x="1024" unicode="ƴ" d="M1392 1159h-59.9971l-42 116c-19.333 15.333 -44 23 -74 23c-26.6758 0 -49.8428 -7 -69.5 -21c-19.667 -14 -38.167 -35.333 -55.5 -64s-44 -87.667 -80 -177l-446 -1095c-45.334 -111.333 -84.001 -190.833 -116.001 -238.5s-66.833 -83.667 -104.5 -108 s-81.5 -36.5 -131.5 -36.5c-54 0 -109 6.33301 -165 19v242h60l43 -126c19.333 -15.333 44 -23 74 -23c25.333 0 47.666 6 66.999 18s37.5 29.333 54.5 52s33.167 50.5 48.5 83.5c15.334 33 37.667 82.167 66.999 147.5l-376 879l-66 24v66h481v-66l-112 -26l221 -520 l270 710c42.668 113.333 79.335 194 110 242c30.667 48 64.667 83.333 102 106s82.333 34 135 34c32.667 0 59 -1.16699 79 -3.5s48.667 -7.5 86 -15.5v-242z"/>
   <glyph glyph-name="uni01B5" horiz-adv-x="1366" unicode="Ƶ" d="M1262 393l-27.001 -392.999h-1137v114l353 533h-277v122h357l309 466h-240c-151.333 0 -258 -6.66699 -320 -20l-31 -211h-89v337h1036v-106l-308 -466h263v-122h-344l-358 -543h280c76 0 150.833 3.66699 224.5 11s126.834 14.666 159.501 21.999l59 256h90z"/>
   <glyph glyph-name="uni01B6" horiz-adv-x="909" unicode="ƶ" d="M40 0v45l207 387h-159v104h215l169 314h-107c-37.333 0 -73.333 -3.16699 -108 -9.5s-58.667 -14.833 -72 -25.5l-31 -155h-72v280h730v-49l-192 -355h151v-104h-207l-184 -342h150c38 0 78 4.5 120 13.5s71.667 20.167 89 33.5l53 217h72l-27 -354h-797z"/>
   <glyph glyph-name="uni01B7" horiz-adv-x="1191" unicode="Ʒ" d="M479 -443c-158 0 -301.666 13.333 -430.999 40l-4 355h92l44 -245c33.333 -14 77 -25.667 131 -35s101 -14 141 -14c120.667 0 209.667 39.833 267 119.5s86 204.167 86 373.5c0 151.333 -34.833 262.5 -104.5 333.5s-184.834 106.5 -345.501 106.5h-73v106l396 538h-118 c-152 0 -258.667 -6.66699 -320 -20l-31 -211h-89v337h894v-106l-437 -556c184 -25.333 320.333 -82.5 409 -171.5s133 -212.5 133 -370.5c0 -185.333 -56 -328.333 -168 -429s-269.333 -151 -472 -151z"/>
   <glyph glyph-name="uni01B8" horiz-adv-x="1191" unicode="Ƹ" d="M713 -443c-202.667 0 -359.998 50.333 -471.998 151s-168 243.667 -168 429c0 158 44.333 281.5 133 370.5s225 146.167 409 171.5l-437 556v106h894v-337h-89l-31 211c-61.333 13.333 -168 20 -320 20h-118l396 -538v-106h-73c-160 0 -275 -35.5 -345 -106.5 s-105 -182.167 -105 -333.5c0 -169.333 28.667 -293.833 86 -373.5s146.333 -119.5 267 -119.5c39.333 0 86.166 4.66699 140.499 14s98.166 21 131.499 35l44 245h92l-4 -355c-129.333 -26.667 -273 -40 -431 -40z"/>
   <glyph glyph-name="uni01B9" horiz-adv-x="939" unicode="ƹ" d="M588 -442c-168 0 -296.665 39.832 -385.998 119.499s-134 192.834 -134 339.501c0 230.667 118 365.667 354 405l-319 469v49h774v-280h-72l-31 155c-12.667 10 -35.834 18.333 -69.501 25s-70.5 10 -110.5 10h-157l292 -451v-60h-94 c-94.667 0 -164.334 -28 -209.001 -84s-67 -141 -67 -255c0 -112 23.833 -193 71.5 -243s117.5 -75 209.5 -75c93.333 0 182 10.667 266 32v-77c-38 -25.333 -85.5 -44.833 -142.5 -58.5s-115.5 -20.5 -175.5 -20.5z"/>
   <glyph glyph-name="uni01BA" horiz-adv-x="928" unicode="ƺ" d="M540 -442c-98 0 -182.5 13.832 -253.5 41.499s-125.167 66.667 -162.5 117s-56 108.833 -56 175.5c0 91.333 33 165.833 99 223.5s160 93.834 282 108.501c56.667 8 97 21.333 121 40s36 45.667 36 81c0 82.667 -90.333 124 -271 124h-81v60l297 321h-171 c-37.333 0 -73.333 -3.16699 -108 -9.5s-58.667 -14.833 -72 -25.5l-31 -155h-72v280h799v-49l-340 -345c113.333 -20 191.833 -46 235.5 -78s65.5 -75 65.5 -129c0 -39.333 -9.66699 -72 -29 -98c-19.335 -26 -47.668 -47 -85 -63c-37.334 -16 -95.667 -30 -175 -42 c-89.333 -14 -153.333 -39 -192 -75s-58 -88.333 -58 -157c0 -148 87.667 -222 263 -222c96 0 188.333 10.667 277 32v-77c-38 -25.333 -85.5 -44.833 -142.5 -58.5s-115.5 -20.5 -175.5 -20.5z"/>
   <glyph glyph-name="uni01BB" horiz-adv-x="1024" unicode="ƻ" d="M86 0v188.999l136 142c104.667 104.667 173.834 175.5 207.501 212.5s62.167 72.5 85.5 106.5h-375v122h441c27.333 70 41 149.667 41 239c0 72.667 -17.667 131.334 -53 176.001c-35.334 44.667 -82.334 67 -141 67c-41.333 0 -74.333 -4.33301 -99 -13 s-47.334 -21.667 -68 -39l-43 -194h-87v305c53.333 12 105.5 22.167 156.5 30.5s106.5 12.5 166.5 12.5c147.333 0 260.166 -30.333 338.499 -91s117.5 -147 117.5 -259c0 -88 -18.667 -166 -56 -234h82v-122h-172c-30.667 -33.335 -70.167 -71.168 -118.5 -113.5 c-48.333 -42.333 -120.5 -102.5 -216.5 -180.5l-151 -130h658v-226h-850z"/>
   <glyph glyph-name="uni01BC" horiz-adv-x="1033" unicode="Ƽ" d="M214 1241l-173 27v73h858v-450h-92l-27 209c-55.334 12 -164.667 18 -328 18h-127v-352c20.667 4.67871 46.5 10.3457 77.5 17.001c31 6.66699 71.167 10 120.5 10c141.333 0 246.833 -32.333 316.5 -97s104.5 -163.667 104.5 -297 c0 -134.667 -41.833 -238.167 -125.5 -310.5s-203.5 -108.5 -359.5 -108.5c-124 0 -247.333 13.333 -370 40l-12 325h92l52 -215c26 -14.667 58 -26.5 96 -35.5s72.333 -13.5 103 -13.5c153.333 0 230 102.667 230 308c0 107.333 -16 184.666 -48 231.999 s-83.667 71 -155 71c-39.333 0 -75 -8.66699 -107 -26l-26 -13h-100v588z"/>
   <glyph glyph-name="uni01BD" horiz-adv-x="788" unicode="ƽ" d="M145 850l-143 24v66h765v-341h-75l-43 142c-67.334 12.667 -133.667 19 -199 19h-195v-213c18.667 4.6748 41.167 9.8418 67.5 15.5c26.333 5.66699 59.5 8.5 99.5 8.5c119.333 0 210.166 -25.333 272.499 -76s93.5 -120 93.5 -208c0 -99.333 -36.5 -175.333 -109.5 -228 s-177.167 -79 -312.5 -79c-110.667 0 -218 11.667 -322 35l-10 278h79l46 -173c18.667 -10.667 45.334 -20 80.001 -28s65.667 -12 93 -12c133.333 0 200 68.667 200 206c0 63.333 -13.167 109.833 -39.5 139.5s-71.833 44.5 -136.5 44.5c-18 0 -34.333 -1.66699 -49 -5 s-37 -13 -67 -29h-95v414z"/>
   <glyph glyph-name="uni01BE" horiz-adv-x="682" unicode="ƾ" d="M97 836l-85.999 0.000976562v65l108 39l117 213h150v-213h195v-104h-195v-75c0 -29.335 5.5 -54.668 16.5 -76c11 -21.3359 39.5 -49.6689 85.5 -85c66 -52 109.333 -100 130 -144s31 -94 31 -150c0 -103.333 -28.667 -183.5 -86 -240.5s-138 -85.5 -242 -85.5 c-44 0 -91.833 5.66699 -143.5 17s-89.5 22.666 -113.5 33.999v256h66l38 -132c40 -54.667 89.333 -82 148 -82c36.667 0 66.167 11 88.5 33s33.5 51.333 33.5 88c0 42 -11.667 78.5 -35 109.5s-62.333 61.5 -117 91.5c-56.667 30 -93.834 54 -111.501 72 s-32.5 38.833 -44.5 62.5c-12 23.6689 -20.333 47.3359 -25 71c-4.66699 23.667 -7.33398 102.167 -8 235.5z"/>
   <glyph glyph-name="uni01BF" horiz-adv-x="1221" unicode="ƿ" d="M518 -436l-447 0.000976562v66l158 24v1196l-153 24v66h442v-171c35.333 63.333 82 111.833 140 145.5s123.333 50.5 196 50.5c90.667 0 162.167 -32.5 214.5 -97.5s78.5 -154.833 78.5 -269.5c0 -155.333 -53.333 -292.333 -160 -411s-263 -212.334 -469 -281.001v-342z M518 7.00098c223.333 119.333 335 315.667 335 589c0 74 -12 132.333 -36 175s-58.667 64 -104 64c-20.667 0 -40.167 -5.83301 -58.5 -17.5s-36.333 -28 -54 -49s-45.167 -61.167 -82.5 -120.5v-641z"/>
   <glyph glyph-name="uni01C0" horiz-adv-x="451" unicode="ǀ" d="M305 0h-160v1421h160v-1421z"/>
   <glyph glyph-name="uni01C1" horiz-adv-x="664" unicode="ǁ" d="M555 0h-160v1421h160v-1421zM269 0h-160v1421h160v-1421z"/>
   <glyph glyph-name="uni01C2" horiz-adv-x="572" unicode="ǂ" d="M559 467h-193v-467h-160v467h-193v145h193v132h-193v145h193v532h160v-532h193v-145h-193v-132h193v-145z"/>
   <glyph glyph-name="uni01C3" horiz-adv-x="682" unicode="ǃ" d="M397 420h-115l-92 921h299zM340 -29c-46 0 -85.167 16 -117.5 48s-48.5 71.333 -48.5 118c0 46 16 85.167 48 117.5s71.333 48.5 118 48.5c46 0 85.167 -16 117.5 -48s48.5 -71.333 48.5 -118c0 -46 -16 -85.167 -48 -117.5s-71.333 -48.5 -118 -48.5z"/>
   </font>
</defs>
</svg>
