<?xml version="1.0" encoding="UTF-8" standalone="no"?>
<!DOCTYPE svg  PUBLIC '-//W3C//DTD SVG 1.1//EN'  'http://www.w3.org/Graphics/SVG/1.1/DTD/svg11.dtd'>
<svg xmlns="http://www.w3.org/2000/svg" xmlns:xlink="http://www.w3.org/1999/xlink" version="1.1">
 <metadata>Created by FontForge 20150612 at Thu Apr 28 11:38:42 2016
 By Etienne
Digitized data copyright (c) 2010 Google Corporation.
Copyright (c) 2012 Red Hat, Inc.</metadata>
 <defs>
  <font id="LiberationMono" horiz-adv-x="1229">
   <font-face underline-position="-435" font-weight="400" descent="-410" panose-1="2 7 4 9 2 2 5 2 4 4" units-per-em="2048" unicode-range="U+0020-FE23" bbox="-986.997 -615.002 1521 2009" x-height="1082" underline-thickness="84" font-family="Liberation Mono" ascent="1638" cap-height="1349"/>
   <missing-glyph d="M127 0v750h770v-750h-770zM768 621h-512v-492h512v492z"/>
   <glyph glyph-name=".notdef" d="M127 0v750h770v-750h-770zM768 621h-512v-492h512v492z"/>
   <glyph glyph-name="space" unicode=" "/>
   <glyph glyph-name="exclam" d="M689 397h-148l-24 951h196zM515 0v201h194v-201h-194z" unicode="!"/>
   <glyph glyph-name="quotedbl" d="M908 845h-142l-40 639h224zM459 845h-141l-41 639h224z" unicode='&quot;'/>
   <glyph glyph-name="numbersign" d="M930 833l-67 -317h260v-108h-283l-88 -408h-110l86 408h-363l-84 -408h-110l84 408h-201v108h225l67 317h-241v108h263l89 408h110l-88 -408h363l88 408h110l-88 -408h211v-108h-233zM459 833l-69 -317h362l67 317h-360z" unicode="#"/>
   <glyph glyph-name="dollar" d="M1150 380c0 -108 -39.998 -193.499 -119.998 -256.499s-194.667 -97.5 -344 -103.5v-161h-128v161c-281.333 9.33301 -445.333 129 -492 359l170 37c17.333 -84 52.666 -146.833 105.999 -188.5s125.333 -64.834 216 -69.501v489l-30 8 c-112 27.333 -194.167 57.166 -246.5 89.499s-90.666 71.166 -114.999 116.499s-36.5 99.333 -36.5 162c0 99.333 36.5 176.833 109.5 232.5s179.167 85.834 318.5 90.501v130h128v-130c124 -4.66699 219.667 -31.167 287 -79.5s116 -128.833 146 -241.5l-174 -33 c-14.667 70.667 -43.334 124 -86.001 160s-100.334 56.333 -173.001 61v-426c114.667 -28 197.667 -54 249 -78s92.333 -51.333 123 -82s53.667 -66.167 69 -106.5s23 -87.166 23 -140.499zM302.002 1018c0 -38 7.83301 -69.833 23.5 -95.5s38.5 -47 68.5 -64 s84.667 -35.833 164 -56.5v413c-84 -3.33301 -147.667 -21.833 -191 -55.5c-43.333 -33.6709 -65 -80.8379 -65 -141.5zM978.002 383.001c0 44 -9.16699 80.333 -27.5 109c-18.3369 28.667 -44.1699 52.5 -77.5 71.5c-33.334 19 -95.667 40.167 -187 63.5v-471 c96 6 168.667 28.5 218 67.5s74 92.167 74 159.5z" unicode="$"/>
   <glyph glyph-name="percent" d="M221 0h-145l932 1353h147zM291 1361c188.667 0 282.999 -112 282.999 -336c0 -111.333 -24.333 -196 -73 -254s-120 -87 -214 -87s-165.333 28.667 -214 86s-73 142.333 -73 255c0 111.336 23.333 195.169 70 251.5c46.667 56.333 120.334 84.5 221.001 84.5z M426.999 1025c0 79.3379 -10.5 137.169 -31.5 173.498c-21 36.333 -56.167 54.5 -105.5 54.5c-51.333 0 -88 -17.667 -110 -53s-33 -93.666 -33 -174.999c0 -77.334 11 -134.667 33 -171.999c22 -37.333 58.333 -56 109 -56c47.334 0 82.167 18.5 104.5 55.5 s33.5 94.5 33.5 172.5zM946.999 664.998c188.667 0 283 -111.999 283 -335.999c0 -111.333 -24.333 -196 -73 -254s-120 -87 -214 -87s-165.333 28.667 -214 86s-73 142.333 -73 255c0 111.333 23.333 195.166 70 251.499s120.334 84.5 221 84.5zM1083 328.999 c0 79.334 -10.499 137.165 -31.499 173.498s-56.167 54.5 -105.5 54.5c-51.333 0 -88 -17.667 -110 -53s-33 -93.666 -33 -174.999c0 -77.333 11 -134.666 33 -171.999s58.333 -56 109 -56c47.333 0 82.166 18.5 104.499 55.5s33.5 94.5 33.5 172.5z" unicode="%"/>
   <glyph glyph-name="ampersand" d="M1072 -12c-48.667 0 -96.502 11.668 -143.502 35.001s-87.167 54.666 -120.5 93.999c-102 -91.333 -217.667 -137 -347 -137c-132.667 0 -235.5 33.333 -308.5 100s-109.5 159.334 -109.5 278.001c0 178.667 97.333 318.334 292 419 c-21.333 40 -39.166 85.5 -53.499 136.5s-21.5 99.5 -21.5 145.5c0 90.667 30.833 163 92.5 217s147.834 81 258.501 81c97.333 0 175.166 -24 233.499 -72s87.5 -113 87.5 -195c0 -50 -13.167 -94.5 -39.5 -133.5s-64.333 -75.333 -114 -109s-134.167 -75.5 -253.5 -125.5 c88 -154 180.333 -283.667 277 -389c58.668 121.333 100.335 256.666 125 405.999l145 -43c-29.333 -157.333 -83.333 -311.333 -162 -462c28.667 -36 59.167 -62.5 91.5 -79.5s61.833 -25.5 88.5 -25.5c38.667 0 70.334 5.33301 95.001 16v-135 c-32 -14.667 -69.667 -22 -113 -22zM779.998 1085c0 46.667 -16 83.5 -48 110.5s-73.333 40.5 -124 40.5c-59.333 0 -107.5 -16.333 -144.5 -49c-37 -32.6709 -55.5 -76.3379 -55.5 -131c0 -73.333 20.333 -148 61 -224c107.333 45.333 177.333 78.5 210 99.5 s57.667 44 75 69s26 53.167 26 84.5zM705.998 217.001c-120 135.333 -225.334 282.334 -316.001 441.001c-119.333 -64.667 -179 -163.334 -179 -296.001c0 -76.667 23 -137.667 69 -183s109 -68 189 -68c42.667 0 84.834 9.16699 126.501 27.5s78.5 44.5 110.5 78.5z" unicode="&amp;"/>
   <glyph glyph-name="quotesingle" d="M684 845h-141l-41 639h224z" unicode="&apos;"/>
   <glyph glyph-name="parenleft" d="M529 530c0 -183.333 28.333 -349.001 85 -497.001s149 -300.667 277 -458h-190c-128 157.333 -219.833 309.833 -275.5 457.5s-83.5 314.167 -83.5 499.5c0 182 27.333 346.167 82 492.5s147 299.5 277 459.5h190c-128 -157.333 -220.333 -310.166 -277 -458.499 s-85 -313.5 -85 -495.5z" unicode="("/>
   <glyph glyph-name="parenright" d="M885 532c0 -186.667 -27.5 -353.499 -82.5 -500.499s-146.5 -299.167 -274.5 -456.5h-192c130.667 160.667 224 315.167 280 463.5s84 312.166 84 491.499c0 178.667 -28 342.167 -84 490.5s-149.333 302.833 -280 463.5h192c130 -160 222 -312.667 276 -458 s81 -310 81 -494z" unicode=")"/>
   <glyph glyph-name="asterisk" d="M671 1188l264 103l45 -132l-282 -73l185 -250l-119 -72l-150 258l-156 -256l-119 72l189 248l-280 73l45 134l267 -107l-12 297h136z" unicode="*"/>
   <glyph glyph-name="plus" d="M687 608v-428h-147v428h-424v146h424v428h147v-428h424v-146h-424z" unicode="+"/>
   <glyph glyph-name="comma" d="M259 -363l169 662h265l-311 -662h-123z" unicode=","/>
   <glyph glyph-name="hyphen" d="M334 464v160h560v-160h-560z" unicode="-"/>
   <glyph glyph-name="period" d="M496 0v299h235v-299h-235z" unicode="."/>
   <glyph glyph-name="slash" d="M114 -20l821 1504h178l-817 -1504h-182z" unicode="/"/>
   <glyph glyph-name="zero" d="M1103 675c0 -225.333 -41.5 -397.5 -124.5 -516.5s-205.5 -178.5 -367.5 -178.5s-283.667 59.167 -365 177.5s-122 290.833 -122 517.5c0 232.667 39.667 406.667 119 522s204 173 374 173c166 0 288.5 -58.167 367.5 -174.5s118.5 -289.833 118.5 -520.5zM920 675 c0 193.333 -23.5 333.167 -70.5 419.5s-124.5 129.5 -232.5 129.5c-110.667 0 -190.167 -42.667 -238.5 -128c-48.333 -85.334 -72.5 -225.667 -72.5 -421c0 -190 24.5 -328.833 73.5 -416.5s126.833 -131.5 233.5 -131.5c106 0 183.667 45 233 135s74 227.667 74 413z M496 555.001v249h235v-249h-235z" unicode="0"/>
   <glyph glyph-name="one" d="M157 0l-0.00195312 145h439v1021c-24.667 -52 -83.167 -97.333 -175.5 -136s-183.166 -58 -272.499 -58v148c98.667 0 191.834 21.667 279.501 65s148.834 98 183.5 164h166v-1204h353v-145h-973z" unicode="1"/>
   <glyph glyph-name="two" d="M144 0l0.00292969 116.999c32.667 72.667 83.5 145.834 152.5 219.501s162.833 157.834 281.5 252.501c106 84.667 182.333 158.334 229 221c46.667 62.667 70 123 70 181c0 74 -23 131 -69 171s-111.667 60 -197 60c-76 0 -137.5 -20.833 -184.5 -62.5 s-74.833 -100.167 -83.5 -175.5l-184 17c13.333 113.334 59.666 203.167 138.999 269.5s183.666 99.5 312.999 99.5c142 0 252.667 -32 332 -96s119 -154.667 119 -272c0 -76.667 -25.333 -153.167 -76 -229.5s-126.334 -154.5 -227.001 -234.5 c-137.333 -109.333 -232.5 -189.833 -285.5 -241.5s-90.5 -101.834 -112.5 -150.501h723v-146h-940z" unicode="2"/>
   <glyph glyph-name="three" d="M1099 370c0 -124 -41.9971 -220 -125.997 -288s-201.333 -102 -352 -102c-142.667 0 -256.667 32.333 -342 97s-135.666 159.667 -150.999 285l186 17c24 -166.667 126.333 -250 307 -250c90.667 0 161.834 21 213.5 63c51.667 42 77.5 103.333 77.5 184 c0 50 -15.167 92.167 -45.5 126.5s-71.5 60.666 -123.5 78.999s-110.333 27.5 -175 27.5h-102v156h98c57.333 0 109.833 9.5 157.5 28.5s85.167 45.833 112.5 80.5s41 75.667 41 123c0 70.667 -22.167 125.834 -66.5 165.501c-44.334 39.667 -110.167 59.5 -197.5 59.5 c-79.334 0 -143.501 -20.333 -192.501 -61s-77.5 -98 -85.5 -172l-181 14c13.333 115.333 61.166 205.333 143.499 270s188.166 97 317.499 97c141.333 0 251.166 -31.167 329.499 -93.5s117.5 -149.166 117.5 -260.499c0 -79.333 -26.333 -148.333 -79 -207 s-124.667 -97.334 -216 -116.001v-4c100.667 -11.335 181.5 -46.668 242.5 -106c61 -59.334 91.5 -130.334 91.5 -213z" unicode="3"/>
   <glyph glyph-name="four" d="M937 319v-319h-180v319h-654v140l635 890h199v-888h188v-142h-188zM757 1154l-500 -693h500v693z" unicode="4"/>
   <glyph glyph-name="five" d="M1099 444c0 -92.667 -19.667 -174 -59 -244s-96.833 -124.167 -172.5 -162.5s-165.167 -57.5 -268.5 -57.5c-131.334 0 -237.334 28.667 -318 86c-80.667 57.333 -131.667 140.333 -153 249l182 21c38 -139.333 135.667 -209 293 -209c94 0 169 28 225 84 s84 132.333 84 229c0 82.667 -27.667 150.334 -83 203c-55.333 52.667 -129.333 79 -222 79c-48.667 0 -94 -7.66699 -136 -23s-84 -41.333 -126 -78h-176l47 728h801v-145h-635l-29 -425c78 60 175 90 291 90c136 0 245.833 -39.167 329.5 -117.5 s125.5 -180.833 125.5 -307.5z" unicode="5"/>
   <glyph glyph-name="six" d="M1096 446c0 -141.333 -40.5 -254.333 -121.5 -339s-192.167 -127 -333.5 -127c-157.333 0 -278.333 57.5 -363 172.5s-127 278.167 -127 489.5c0 232 44 411.333 132 538s212 190 372 190c212.667 0 346.667 -95.667 402 -287l-172 -31 c-35.334 114.667 -112.667 172 -232 172c-102 0 -181.333 -46.333 -238 -139s-85 -222.667 -85 -390c32.667 60.668 78.667 106.835 138 138.5c59.333 31.667 127.333 47.5 204 47.5c128 0 230.667 -39.5 308 -118.5s116 -184.5 116 -316.5zM913 438 c0 96 -25.5 170.667 -76.5 224s-120.167 80 -207.5 80c-49.333 0 -96 -11.167 -140 -33.5s-78.5 -53.333 -103.5 -93s-37.5 -84.5 -37.5 -134.5c0 -101.333 26.833 -186 80.5 -254s122.5 -102 206.5 -102c84.667 0 152.167 28 202.5 84s75.5 132.333 75.5 229z" unicode="6"/>
   <glyph glyph-name="seven" d="M1069 1210c-315.333 -453.333 -473 -856.667 -473 -1210h-188c0 175.333 40.833 364.5 122.5 567.5s203.167 415.167 364.5 636.5h-737v145h911v-139z" unicode="7"/>
   <glyph glyph-name="eight" d="M1094 378c0 -122.667 -41.5 -219.665 -124.5 -290.998s-201.5 -107 -355.5 -107c-150.667 0 -268.5 35 -353.5 105s-127.5 167 -127.5 291c0 86 26.333 159.167 79 219.5s120 97.5 202 111.5v4c-74.667 18 -134.667 56 -180 114s-68 124.333 -68 199 c0 65.335 18.5 124.668 55.5 177.999c37 53.334 89.167 94.667 156.5 124s144.666 44 231.999 44c91.333 0 171 -14.833 239 -44.5c68 -29.6719 120 -70.8389 156 -123.501c36 -52.667 54 -112.667 54 -180c0 -75.333 -23 -142 -69 -200s-106.333 -94.333 -181 -109v-4 c86.668 -14 155.835 -50.5 207.501 -109.5c51.667 -59 77.5 -132.833 77.5 -221.5zM872 1012c0 74 -22.499 129.833 -67.499 167.5s-109.833 56.5 -194.5 56.5c-82 0 -145.833 -19 -191.5 -57s-68.5 -93.667 -68.5 -167c0 -74 23 -131.333 69 -172s110.333 -61 192.999 -61 c173.333 0 260 77.667 260 233zM907.001 395.002c0 80 -25.998 141.501 -77.998 184.501s-125 64.5 -219 64.5c-90.667 0 -161.834 -23.167 -213.501 -69.5c-51.667 -46.334 -77.5 -107.501 -77.5 -183.501c0 -90 25.167 -158.5 75.5 -205.5s124.166 -70.5 221.499 -70.5 c98 0 171 23 219 69s72 116.333 72 211z" unicode="8"/>
   <glyph glyph-name="nine" d="M1087 703c0 -230.667 -44.3311 -408.831 -132.998 -534.498s-214.334 -188.5 -377.001 -188.5c-110 0 -198.167 23.167 -264.5 69.5s-113.833 121.166 -142.5 224.499l172 27c36 -117.333 115.333 -176 238 -176c102.667 0 182.834 46.5 240.5 139.5 c57.667 93 87.167 221.5 88.5 385.5c-26.667 -60 -72.334 -108.167 -137.001 -144.5s-135.667 -54.5 -213 -54.5c-126 0 -227.167 42.5 -303.5 127.5s-114.5 195.833 -114.5 332.5c0 141.334 41.833 253.167 125.5 335.499c83.667 82.333 198.167 123.5 343.5 123.5 c318 0 477 -222.333 477 -667zM891.002 862.003c0 107.333 -26.667 194.5 -80 261.5s-122.333 100.5 -207 100.5c-86.667 0 -155 -29 -205 -87s-75 -133.333 -75 -226c0 -95.334 25 -172.167 75 -230.5s117.667 -87.5 203 -87.5c50.667 0 98.5 11.5 143.5 34.5 s80.5 55 106.5 96s39 87.167 39 138.5z" unicode="9"/>
   <glyph glyph-name="colon" d="M496 0v299h235v-299h-235zM496 783v299h235v-299h-235z" unicode=":"/>
   <glyph glyph-name="semicolon" d="M496 783v299h235v-299h-235zM352 -363l169 662h265l-311 -662h-123z" unicode=";"/>
   <glyph glyph-name="less" d="M116 571v205l995 418v-154l-858 -366l858 -367v-153z" unicode="&lt;"/>
   <glyph glyph-name="equal" d="M116 856v148h995v-148h-995zM116 344v148h995v-148h-995z" unicode="="/>
   <glyph glyph-name="greater" d="M116 154v153l858 367l-858 366v154l995 -418v-205z" unicode="&gt;"/>
   <glyph glyph-name="question" d="M1073 1002c0 -48.667 -7.32812 -92 -21.9951 -130s-35.834 -73.167 -63.501 -105.5s-72.167 -70.5 -133.5 -114.5c-73.333 -53.333 -121.833 -92.333 -145.5 -117s-42.334 -51.334 -56.001 -80c-13.667 -28.667 -20.834 -61.334 -21.501 -98h-175 c1.33301 46.667 9.5 88.5 24.5 125.5s35.667 71 62 102s71.166 70.167 134.499 117.5c71.333 52 118.166 90.333 140.499 115s40.166 51.167 53.499 79.5s20 60.833 20 97.5c0 72.667 -26.5 128.5 -79.5 167.5s-124.833 58.5 -215.5 58.5c-90 0 -163.167 -24.333 -219.5 -73 s-89.166 -115 -98.499 -199l-184 12c17.333 131.333 70.5 232.5 159.5 303.5s202.5 106.5 340.5 106.5c148.667 0 265.667 -32.167 351 -96.5s128 -154.833 128 -271.5zM448.005 0v201h195v-201h-195z" unicode="?"/>
   <glyph glyph-name="at" d="M1189 755c0 -198.667 -27.4961 -356.835 -82.4961 -474.502s-129.167 -176.5 -222.5 -176.5c-95.333 0 -143 52.333 -143 157v8l2 30h-6c-22.667 -58.667 -54.5 -105.834 -95.5 -141.501s-87.5 -53.5 -139.5 -53.5c-70.667 0 -125.834 33.333 -165.5 100 c-39.667 66.667 -59.5 161.667 -59.5 285c0 107.333 16.167 208.666 48.5 303.999s76.333 170.5 132 225.5s117.834 82.5 186.5 82.5c47.333 0 86.166 -13.833 116.499 -41.5c30.333 -27.6689 52.833 -71.502 67.5 -131.5h5l32 151h116l-99 -507 c-26.667 -140 -40 -232.667 -40 -278c0 -58.667 16.333 -88 49 -88c52 0 94.5 49.667 127.5 149s49.5 232 49.5 398c0 182.667 -36.333 330.834 -109 444.501s-169 170.5 -289 170.5c-98.667 0 -186 -35.833 -262 -107.5s-134.667 -172.5 -176 -302.5s-62 -278 -62 -444 c0 -206 38.667 -370.667 116 -494c77.334 -123.333 183.334 -185 318 -185c62.667 0 123 11.667 181 35s120.667 64.333 188 123l71 -87c-76.667 -66 -151 -114 -223 -144s-147.667 -45 -227 -45c-110 0 -206.833 32.333 -290.5 97s-147.834 157.834 -192.501 279.501 s-67 261.834 -67 420.501c0 190.667 25.667 359.834 77 507.5c51.333 147.667 124.666 261.667 219.999 342s205.666 120.5 330.999 120.5c105.333 0 196.833 -30.167 274.5 -90.5s137.5 -145.666 179.5 -255.999s63 -237.833 63 -382.5zM775.004 783.999 c0 70.667 -11.666 124.167 -34.999 160.5c-23.335 36.333 -54.668 54.5 -94 54.5c-42 0 -80.667 -22.167 -116 -66.5s-63.833 -107 -85.5 -188s-32.5 -165.5 -32.5 -253.5c0 -187.333 38 -281 114 -281c49.333 0 93.666 31.667 132.999 95s68.5 147.333 87.5 252 s28.5 180.334 28.5 227z" unicode="@"/>
   <glyph glyph-name="A" d="M1034 0l-138 382h-563l-137 -382h-196l510 1349h217l501 -1349h-194zM616 1205l-12 -39l-69 -212l-151 -423h463l-173 500z" unicode="A"/>
   <glyph glyph-name="B" d="M1152 380c0 -120 -45.667 -213.331 -137 -279.998s-218.333 -100 -381 -100h-472v1349h412c330.667 0 496 -109 496 -327c0 -81.333 -24 -149.333 -72 -204s-113.333 -90.334 -196 -107.001c111.333 -12 197.5 -47.667 258.5 -107 c61 -59.334 91.5 -134.001 91.5 -224.001zM878 998.002c0 71.3359 -25.167 122.169 -75.5 152.5c-50.333 30.333 -125.833 45.5 -226.5 45.5h-223v-416h225c200 0 300 72.667 300 218zM959 397.002c0 76 -29.668 134 -89.001 174s-147.666 60 -264.999 60h-252v-478h266 c116.667 0 202.5 20.167 257.5 60.5s82.5 101.5 82.5 183.5z" unicode="B"/>
   <glyph glyph-name="C" d="M314 681c0 -182 28.499 -318.501 85.499 -409.501s144.167 -136.5 261.5 -136.5c67.333 0 128.333 22.833 183 68.5s101 116.834 139 213.501l159 -65c-99.333 -248 -260.333 -372 -483 -372c-175.333 0 -310.166 60.333 -404.499 181s-141.5 294 -141.5 520 c0 459.333 178.667 689 536 689c226 0 381.333 -111.667 466 -335l-168 -65c-24.667 75.333 -63.167 134.833 -115.5 178.5s-112.833 65.5 -181.5 65.5c-114 0 -198.5 -43 -253.5 -129s-82.5 -220.667 -82.5 -404z" unicode="C"/>
   <glyph glyph-name="D" d="M1125 688c0 -220.667 -51.167 -390.5 -153.5 -509.5s-248.833 -178.5 -439.5 -178.5h-370v1349h311c219.333 0 382.833 -54.833 490.5 -164.5s161.5 -275.167 161.5 -496.5zM933 688c0 176 -36.667 304.167 -110 384.5c-73.334 80.333 -189.667 120.5 -349 120.5h-121 v-1037h162c141.333 0 246.333 44.333 315 133s103 221.667 103 399z" unicode="D"/>
   <glyph glyph-name="E" d="M162 0v1349h919v-156h-728v-422h668v-154h-668v-461h769v-156h-960z" unicode="E"/>
   <glyph glyph-name="F" d="M385 1193v-494h676v-158h-676v-541h-191v1349h891v-156h-700z" unicode="F"/>
   <glyph glyph-name="G" d="M1101 133c-152.667 -102 -306.667 -153 -462 -153c-166.667 0 -296 61.833 -388 185.5s-138 295.5 -138 515.5c0 231.333 44 404 132 518s220.333 171 397 171c230.667 0 384.334 -110.333 461.001 -331l-171 -56c-53.333 154 -149.333 231 -288 231 c-112.667 0 -195.834 -42 -249.501 -126s-80.5 -219.667 -80.5 -407c0 -364 113.667 -546 341 -546c45.333 0 92.333 7 141 21s88.334 31.667 119 53v336h-293v160h479v-572z" unicode="G"/>
   <glyph glyph-name="H" d="M875 0v623h-522v-623h-191v1349h191v-566h522v566h191v-1349h-191z" unicode="H"/>
   <glyph glyph-name="I" d="M202 1349h823v-156h-316v-1037h316v-156h-823v156h316v1037h-316v156z" unicode="I"/>
   <glyph glyph-name="J" d="M986 420c0 -139.333 -35 -247.499 -105 -324.499s-168.333 -115.5 -295 -115.5c-114 0 -205 29.667 -273 89s-113.667 153 -137 281l187 31c12 -78.667 37.5 -139.334 76.5 -182.001s88.167 -64 147.5 -64c139.333 0 209 93.667 209 281v777h-311v156h501v-929z" unicode="J"/>
   <glyph glyph-name="K" d="M1003 0l-487 638l-163 -169v-469h-191v1349h191v-673l572 673h225l-504 -572l581 -777h-224z" unicode="K"/>
   <glyph glyph-name="L" d="M237 0v1349h191v-1193h672v-156h-863z" unicode="L"/>
   <glyph glyph-name="M" d="M937 0l0.000976562 868c0 90 1 157 3 201l3 100c-42.667 -137.333 -74.334 -234.333 -95.001 -291l-164 -438h-137l-166 438c-12 30.667 -44 127.667 -96 291l4 -301v-868h-160v1349h237l185 -489c14 -35.333 36.667 -112.333 68 -231l26 90l44 140l185 490h225v-1349 h-162z" unicode="M"/>
   <glyph glyph-name="N" d="M836 0l-520 1130c10.667 -114.667 16 -199.334 16 -254.001v-876h-170v1349h222l528 -1138c-12 96 -18 187.333 -18 274v864h172v-1349h-230z" unicode="N"/>
   <glyph glyph-name="O" d="M1126 681c0 -224.667 -44.168 -397.667 -132.501 -519c-88.334 -121.333 -215.167 -182 -380.5 -182c-166 0 -292.667 59.667 -380 179s-131 293.333 -131 522c0 224.667 43.333 395.667 130 513s214.334 176 383.001 176c164.667 0 291 -57.833 379 -173.5 s132 -287.5 132 -515.5zM924.999 681c0 355.333 -103.333 533.001 -310 533.001c-208 0 -312 -177.667 -312 -533c0 -180 26.333 -316 79 -408s130 -138 232 -138c108.667 0 187.667 46.667 237 140s74 228.666 74 405.999z" unicode="O"/>
   <glyph glyph-name="P" d="M1119 945c0 -83.334 -19.8311 -157.667 -59.498 -223s-96.334 -116.333 -170.001 -153s-158.834 -55 -255.501 -55h-281v-514h-191v1349h460c158.667 0 281.167 -35.5 367.5 -106.5s129.5 -170.167 129.5 -297.5zM927.002 942c0 169.333 -109.333 254 -328 254h-246v-531 h254c99.333 0 177.5 24.333 234.5 73s85.5 116.667 85.5 204z" unicode="P"/>
   <glyph glyph-name="Q" d="M1126 681c0 -193.333 -32.834 -348.499 -98.501 -465.499s-159.5 -190.167 -281.5 -219.5c27.333 -84 63.333 -145 108 -183s100.667 -57 168 -57c36.667 0 75 4.33301 115 13v-134c-62 -14.667 -121.333 -22 -178 -22c-100 0 -182.5 28.167 -247.5 84.5 s-118.5 151.833 -160.5 286.5c-146 14.667 -257.333 81.167 -334 199.5s-115 284.166 -115 497.499c0 224.667 43.333 395.667 130 513s214.334 176 383.001 176c164.667 0 291 -57.833 379 -173.5s132 -287.5 132 -515.5zM924.999 681.001 c0 355.333 -103.333 533.001 -310 533.001c-208 0 -312 -177.667 -312 -533c0 -180 26.333 -316 79 -408s130 -138 232 -138c108.667 0 187.667 46.667 237 140s74 228.666 74 405.999z" unicode="Q"/>
   <glyph glyph-name="R" d="M957 0l-365.999 575h-238v-575h-191v1349h482c155.333 0 273.666 -32.167 354.999 -96.5s122 -156.5 122 -276.5c0 -99.333 -31.167 -183 -93.5 -251s-145.833 -110.667 -250.5 -128l400 -597h-220zM929.001 973c0 148.667 -101.333 223 -304 223h-272v-470h280 c95.333 0 168.5 21.333 219.5 64s76.5 103.667 76.5 183z" unicode="R"/>
   <glyph glyph-name="S" d="M1128 370c0 -122.667 -44.8369 -218.335 -134.504 -287.002s-217.5 -103 -383.5 -103c-304.667 0 -481.667 119.333 -531 358l185 37c18.667 -86 57.334 -148.5 116.001 -187.5s137 -58.5 235 -58.5c106 0 186.5 20.667 241.5 62s82.5 100 82.5 176 c0 46.667 -10.833 84.667 -32.5 114s-50.167 53.333 -85.5 72c-35.333 18.6689 -75.166 33.8359 -119.499 45.5c-44.333 11.667 -89.166 23.167 -134.499 34.5c-107.333 28 -183.833 53 -229.5 75s-82.167 47.167 -109.5 75.5s-48 60.833 -62 97.5s-21 79.667 -21 129 c0 115.336 40.5 204.169 121.5 266.5c81 62.333 197.167 93.5 348.5 93.5c141.333 0 249.333 -24.667 324 -74s126.667 -132.666 156 -249.999l-188 -33c-16 74.667 -48 128.834 -96 162.501s-113.667 50.5 -197 50.5c-188.667 0 -283 -71 -283 -213 c0 -40 8.83301 -72.5 26.5 -97.5s41.667 -45.667 72 -62c30.334 -16.333 65.667 -29.833 106 -40.5s83.5 -22 129.5 -34c92.667 -23.333 159.334 -42.833 200 -58.5c40.668 -15.667 76.835 -33.5 108.5 -53.5c31.667 -20 58.834 -43.667 81.501 -71s40.5 -59.333 53.5 -96 s19.5 -80 19.5 -130z" unicode="S"/>
   <glyph glyph-name="T" d="M709 1193v-1193h-190v1193h-443v156h1076v-156h-443z" unicode="T"/>
   <glyph glyph-name="U" d="M1085 490c0 -178 -37.999 -307.499 -113.999 -388.499s-198 -121.5 -366 -121.5c-162.667 0 -280.5 39.167 -353.5 117.5s-109.5 203.166 -109.5 374.499v877h191v-851c0 -136 19.5 -230.5 58.5 -283.5s109.833 -79.5 212.5 -79.5c107.333 0 182.666 27.333 225.999 82 s65 152.667 65 294v838h190v-859z" unicode="U"/>
   <glyph glyph-name="V" d="M713 0h-198l-505 1349h201l320 -902c20.667 -57.333 48.667 -150.333 84 -279c26.667 99.333 54.667 192.333 84 279l318 902h201z" unicode="V"/>
   <glyph glyph-name="W" d="M1018 0h-208c-49.333 184 -86.833 324 -112.5 420s-52.834 208 -81.501 336c-19.3359 -83.333 -37.1689 -158.666 -53.5 -225.999c-16.333 -67.333 -64.166 -244 -143.499 -530h-208l-211 1349h189l109 -835c10.667 -87.333 21.667 -202.666 33 -345.999 c21.334 92 39.167 168 53.5 228c14.334 60 62.167 238.333 143.5 535h175c46 -168.667 82.167 -301.334 108.5 -398.001s55.833 -218.334 88.5 -365.001l35 346l104 835h189z" unicode="W"/>
   <glyph glyph-name="X" d="M614 836l333 513h205l-435 -644l476 -705h-205l-374 573l-373 -573h-205l476 705l-435 644h205z" unicode="X"/>
   <glyph glyph-name="Y" d="M708 584v-584h-188v584l-484 765h205l374 -611l372 611h205z" unicode="Y"/>
   <glyph glyph-name="Z" d="M1155 0h-1082v143l818 1050h-745v156h962v-139l-818 -1054h865v-156z" unicode="Z"/>
   <glyph glyph-name="bracketleft" d="M410 -425v1909h547v-139h-367v-1631h367v-139h-547z" unicode="["/>
   <glyph glyph-name="backslash" d="M932 -20l-817 1504h178l821 -1504h-182z" unicode="\"/>
   <glyph glyph-name="bracketright" d="M270 -425v139h367v1631h-367v139h547v-1909h-547z" unicode="]"/>
   <glyph glyph-name="asciicircum" d="M940 442l-329 803l-326 -803h-152l378 907h203l380 -907h-154z" unicode="^"/>
   <glyph glyph-name="underscore" d="M-5 -220v96h1238v-96h-1238z" unicode="_"/>
   <glyph glyph-name="grave" d="M702 1201l-300 230v29h197l227 -239v-20h-124z" unicode="`"/>
   <glyph glyph-name="a" d="M1101 111c17.333 0 36.999 2.33398 58.999 7.00098v-112c-45.333 -10.667 -91.666 -16 -138.999 -16c-66.667 0 -115.167 17.5 -145.5 52.5s-47.5 89.833 -51.5 164.5h-6c-43.333 -80.667 -94.5 -138.667 -153.5 -174s-131.833 -53 -218.5 -53 c-105.333 0 -184.666 28.667 -237.999 86s-80 136 -80 236c0 232.667 151.333 350.667 454 354l236 4v59c0 87.333 -17.667 150.166 -53 188.499c-35.334 38.333 -91.667 57.5 -169 57.5c-78.667 0 -135.334 -14 -170.001 -42s-55.334 -71.333 -62 -130l-188 17 c30.667 194.667 171.667 292 423 292c133.333 0 233.5 -31.167 300.5 -93.5s100.5 -152.5 100.5 -270.5v-466c0 -53.333 7 -93.5 21 -120.5s40.667 -40.5 80 -40.5zM491.999 117.001c64 0 120.668 15.333 170.001 46s87.666 71.667 114.999 123s41 104.333 41 159v89 l-190 -4c-78.667 -1.33301 -138.667 -10 -180 -26s-73.5 -40.5 -96.5 -73.5s-34.5 -76.833 -34.5 -131.5s14.833 -98.667 44.5 -132s73.167 -50 130.5 -50z" unicode="a"/>
   <glyph glyph-name="b" d="M1090 546c0 -189.333 -33.834 -331.001 -101.501 -425.001s-164.5 -141 -290.5 -141c-162.667 0 -274 61.333 -334 184h-2c0 -32 -1.16699 -65.333 -3.5 -100s-4.16602 -56 -5.49902 -64h-174c4 36 6 110.333 6 223v1261h180v-423 c0 -43.334 -1.33301 -95.667 -4 -156.999h4c60.667 133.333 172 200 334 200c260.667 0 391 -186 391 -558zM903.999 539.999c0 149.333 -20.5 257.499 -61.5 324.499s-105.167 100.5 -192.5 100.5c-99.333 0 -171.666 -36.5 -216.999 -109.5s-68 -183.5 -68 -331.5 c0 -139.333 22 -242.666 66 -309.999s116.333 -101 216.999 -101c90 0 155.167 34.833 195.5 104.5s60.5 177.167 60.5 322.5z" unicode="b"/>
   <glyph glyph-name="c" d="M130 542c0 180 43.0039 318.333 129.004 415s210.333 145 373 145c121.333 0 221.333 -29.167 300 -87.5s127.334 -136.833 146.001 -235.5l-192 -14c-10.667 60.667 -37.334 108.5 -80.001 143.5s-103.334 52.5 -182.001 52.5c-105.334 0 -182.501 -32.667 -231.501 -98 s-73.5 -171 -73.5 -317c0 -148 24.5 -256.167 73.5 -324.5s125.833 -102.5 230.499 -102.5c72 0 131.667 17.667 179 53s76.666 89.333 87.999 162l190 -12c-8.66895 -64 -32.8359 -122.167 -72.501 -174.5c-39.667 -52.333 -92.167 -93.333 -157.5 -123 s-138.333 -44.5 -219 -44.5c-163.333 0 -287.666 48 -372.999 144s-128 235.333 -128 418z" unicode="c"/>
   <glyph glyph-name="d" d="M862 174c-32.667 -70 -76 -120.835 -130 -152.502s-121.333 -47.5 -202 -47.5c-134.667 0 -233.667 46.333 -297 139s-95 232.334 -95 419.001c0 377.334 130.667 566.001 392 566c80.667 0 148.167 -14.333 202.5 -43c54.333 -28.6689 97.833 -75.6689 130.5 -141h2 l-2 151v419h180v-1261c0 -112.667 2 -187 6 -223h-172c-2.66699 10 -5 34.333 -7 73s-3 72.334 -3 101.001h-5zM324 537.998c0 -148 19.833 -255.831 59.5 -323.498s104.167 -101.5 193.5 -101.5c97.333 0 169.333 35.167 216 105.5s70 182.166 70 335.499 c0 143.333 -22.5 247.666 -67.5 312.999s-117.167 98 -216.5 98c-90 0 -155 -34.333 -195 -103s-60 -176.667 -60 -324z" unicode="d"/>
   <glyph glyph-name="e" d="M322 503c0 -121.333 26.832 -216.333 80.499 -285s127.167 -103 220.5 -103c68.668 0 128.835 14.833 180.5 44.5c51.667 29.667 86.167 70.167 103.5 121.5l158 -45c-29.333 -82.667 -83.166 -146 -161.499 -190s-171.833 -66 -280.5 -66 c-157.333 0 -278.333 49 -363 147s-127 238.333 -127 421c0 178 41.5 314.833 124.5 410.5s202.833 143.5 359.5 143.5s275.334 -47.667 356 -143c80.667 -95.333 121 -239.333 121 -432v-24h-772zM618.999 969c-89.334 0 -160 -29.167 -212 -87.5 s-79.667 -138.5 -83 -240.5h584c-18.667 218.667 -115 328 -289 328z" unicode="e"/>
   <glyph glyph-name="f" d="M580 940v-940.001h-180v940h-262v142h262v25c0 136.667 32.167 233.667 96.5 291s171.5 86 321.5 86c48 0 99.833 -2.16699 155.5 -6.5s97.5 -9.16602 125.5 -14.499v-145c-20 3.33301 -60.5 7 -121.5 11s-107.167 6 -138.5 6c-69.334 0 -121.667 -7.66699 -157 -23 c-35.3359 -15.333 -61.1689 -40.333 -77.5 -75c-16.333 -34.667 -24.5 -83 -24.5 -145v-10h491v-142h-491z" unicode="f"/>
   <glyph glyph-name="g" d="M615 -424c-112 0 -202 23 -270 69s-111.333 112 -130 198l184 25c11.333 -50 35.833 -88.5 73.5 -115.5s87.167 -40.5 148.5 -40.5c165.333 0 248 105 248 315v194h-2c-32.667 -68.667 -78 -120.667 -136 -156s-127 -53 -207 -53c-132 0 -228.5 43.167 -289.5 129.5 s-91.5 222.166 -91.5 407.499c0 188.667 32.667 327.5 98 416.5s166 133.5 302 133.5c75.333 0 140.833 -17.5 196.5 -52.5s98.5 -84.833 128.5 -149.5h3c0 20 1.33301 53.833 4 101.5c2.69336 47.667 5.36035 75.5 8 83.5h171c-4 -36 -6 -110.667 -6 -224v-826 c0 -151.333 -35.333 -265.166 -106 -341.499s-179.667 -114.5 -327 -114.5zM869 551c0 128.667 -24.999 229.835 -74.999 303.501c-50 73.667 -118.667 110.5 -206 110.5c-91.333 0 -157.333 -31.833 -198 -95.5s-61 -169.834 -61 -318.501 c0 -100.667 8.5 -180.167 25.5 -238.5s43.5 -100.833 79.5 -127.5s86.333 -40 150.999 -40c56.667 0 106.5 15.833 149.5 47.5s76.167 78 99.5 139s35 134.167 35 219.5z" unicode="g"/>
   <glyph glyph-name="h" d="M185 1484l181 -0.000976562v-390c0 -39.333 -3 -105 -9 -197h3c70 136.667 183 205 339 205c233.333 0 350 -127 350 -381v-721h-181v695c0 90.667 -17.5 158 -52.5 202s-90.833 66 -167.5 66c-82.667 0 -150.5 -30.167 -203.5 -90.5s-79.5 -142.166 -79.5 -245.499v-627 h-180v1484z" unicode="h"/>
   <glyph glyph-name="i" d="M745 142h380v-142h-982v142h422v798h-319v142h499v-940zM545 1292v192h200v-192h-200z" unicode="i"/>
   <glyph glyph-name="j" d="M836 -28c0 -124.667 -37.333 -222 -112 -292s-181 -105 -319 -105c-52.667 0 -106.334 4.33301 -161 13c-54.667 8.66699 -97 18.667 -127 30v140c100 -22.667 191 -34 273 -34c85.333 0 151 22 197 66s69 105.667 69 185v965h-407v142h587v-1110zM636 1292v192h200v-192 h-200z" unicode="j"/>
   <glyph glyph-name="k" d="M914 0l-366 499l-132 -98v-401h-180v1484h180v-927l475 525h211l-439 -465l462 -617h-211z" unicode="k"/>
   <glyph glyph-name="l" d="M736 142h380v-142h-982v142h422v1200h-289v142h469v-1342z" unicode="l"/>
   <glyph glyph-name="m" d="M531 0l-0.00195312 686c0 102.667 -8.16699 174.5 -24.5 215.5s-46.166 61.5 -89.499 61.5c-42.667 0 -77.167 -32 -103.5 -96s-39.5 -150.667 -39.5 -260v-607h-169v851c0 126 -2 203 -6 231h149l6 -127v-48h2c22.667 68 51.334 117.5 86.001 148.5s78 46.5 130 46.5 c58.667 0 102.5 -16 131.5 -48s49.833 -81.333 62.5 -148h2c26.667 70.667 58.5 121 95.5 151s83.833 45 140.5 45c78.667 0 135 -28.667 169 -86c34 -57.334 51 -155.667 51 -295v-721h-168v686c0 102.667 -8.16699 174.5 -24.5 215.5c-16.335 41 -46.168 61.5 -89.5 61.5 c-44 0 -78.833 -28 -104.5 -84s-38.5 -140 -38.5 -252v-627h-168z" unicode="m"/>
   <glyph glyph-name="n" d="M868 0v694.999c0 90.667 -17.5 158 -52.5 202s-90.833 66 -167.5 66c-82.667 0 -150.5 -30.167 -203.5 -90.5s-79.5 -142.166 -79.5 -245.499v-627h-180v851c0 126 -2 203 -6 231h170c0.666992 -3.33301 1.33398 -12.333 2.00098 -27s1.5 -31.5 2.5 -50.5 s2.16699 -54.833 3.5 -107.5h3c70 136.667 185.333 205 345.999 205c115.333 0 201.333 -31.167 258 -93.5c56.667 -62.334 85 -158.167 85 -287.5v-721h-181z" unicode="n"/>
   <glyph glyph-name="o" d="M1097 542c0 -182 -41.833 -321.167 -125.5 -417.5s-204.5 -144.5 -362.5 -144.5c-154.667 0 -273.167 48.667 -355.5 146s-123.5 236 -123.5 416c0 186 42.167 325.833 126.5 419.5s203.833 140.5 358.5 140.5c162.667 0 283.667 -46.333 363 -139s119 -233 119 -421z M908 542c0 143.333 -22.832 250.334 -68.499 321.001s-119.5 106 -221.5 106c-103.334 0 -179.001 -36 -227.001 -108s-72 -178.333 -72 -319c0 -140 24 -246.5 72 -319.5s120 -109.5 216 -109.5c106 0 182.667 35.667 230 107s71 178.666 71 321.999z" unicode="o"/>
   <glyph glyph-name="p" d="M1090 546c0 -377.333 -130.667 -566.001 -392 -566.001c-164 0 -274.333 61.333 -331 184h-5c2.66699 -5.33301 4 -60.666 4 -165.999v-423h-181v1283c0 113.333 -2 188 -6 224h175c0.666992 -2.66699 1.66699 -12.5 3 -29.5s2.83301 -42 4.5 -75s2.5 -57.5 2.5 -73.5h4 c33.333 70 75.833 120.833 127.5 152.5s119.167 47.5 202.5 47.5c132 0 230.333 -45.5 295 -136.5s97 -231.5 97 -421.5zM904 545.999c0 150.667 -20.332 258.167 -60.999 322.5s-104.667 96.5 -192 96.5c-100.667 0 -173.334 -36.5 -218.001 -109.5s-67 -183.5 -67 -331.5 c0 -142 22.333 -246 67 -312s116.667 -99 216 -99c88.667 0 153.334 33.667 194 101c40.667 67.333 61 178 61 332z" unicode="p"/>
   <glyph glyph-name="q" d="M529 1098c86 0 154.669 -14.835 206.002 -44.502s93.333 -76.167 126 -139.5h2c0 20 1.16699 51.167 3.5 93.5s5.16602 67.5 8.49902 75.5h175c-4 -36 -6 -130 -6 -282v-1226h-181v439l4 168h-2c-35.333 -71.333 -79.333 -123.833 -132 -157.5 s-120.334 -50.5 -203.001 -50.5c-134.667 0 -233.667 46.833 -297 140.5s-95 232.834 -95 417.501c0 377.334 130.333 566.001 391 566.001zM863.002 553.998c0 141.333 -22.668 245.166 -68.001 311.499s-117.333 99.5 -216 99.5c-89.333 0 -154.166 -34 -194.499 -102 s-60.5 -176.333 -60.5 -325c0 -147.333 20.333 -255 61 -323s104.667 -102 192 -102c98 0 170.167 36.333 216.5 109s69.5 183.334 69.5 332.001z" unicode="q"/>
   <glyph glyph-name="r" d="M1045 918c-74.667 12.667 -145.333 19.001 -212 19.001c-107.333 0 -194 -40.333 -260 -121s-99 -183.334 -99 -308.001v-508h-180v701c0 50.667 -4.5 110.334 -13.5 179c-9 68.667 -21.833 136 -38.5 202h171c26.667 -92 42.667 -175.333 48 -250h5 c33.333 74.667 66 129.5 98 164.5s70 61.333 114 79s97.667 26.5 161 26.5c69.333 0 138 -5.66699 206 -17v-167z" unicode="r"/>
   <glyph glyph-name="s" d="M1060 309c0 -102.667 -38.835 -183.168 -116.502 -241.501s-185.167 -87.5 -322.5 -87.5s-241.833 21.5 -313.5 64.5s-118.5 110.833 -140.5 203.5l159 31c12.667 -57.333 39.834 -99.166 81.501 -125.499s112.834 -39.5 213.501 -39.5c180 0 270 57 270 171 c0 42.667 -16.333 77.167 -49 103.5s-82.667 47.833 -150 64.5c-176 43.333 -287.667 77.333 -335 102s-83.666 55.5 -108.999 92.5s-38 83.167 -38 138.5c0 98 35.333 174.667 106 230s173 83 307 83c117.333 0 211 -22.167 281 -66.5s113.667 -108.833 131 -193.5 l-162 -20c-7.33301 48 -31 84.333 -71 109s-99.667 37 -179 37c-163.334 0 -245.001 -50.333 -245.001 -151c0 -40 13.833 -72 41.5 -96s72.167 -43.333 133.5 -58l119 -31c108.667 -26.667 186.834 -53 234.5 -79c47.667 -26 85.167 -58.5 112.5 -97.5 s41 -86.833 41 -143.5z" unicode="s"/>
   <glyph glyph-name="t" d="M190 940l0.000976562 141.999h170l58 282h120v-282h432v-142h-432v-652c0 -52.667 14.167 -91.667 42.5 -117s74.833 -38 139.5 -38c89.333 0 188.333 11.333 297 34v-137c-112.667 -30.667 -224.334 -46 -335.001 -46c-108 0 -189 22.833 -243 68.5 s-81 117.834 -81 216.501v671h-168z" unicode="t"/>
   <glyph glyph-name="u" d="M365 1082l0.000976562 -686.001c0 -104 16.333 -176.167 49 -216.5s91 -60.5 175 -60.5c86 0 154 29.333 204 88s75 141.334 75 248.001v627h181v-851c0 -126 2 -203 6 -231h-170c-0.666992 3.33301 -1.33398 12.333 -2.00098 27s-1.5 31.5 -2.5 50.5 s-2.16699 54.833 -3.5 107.5h-3c-41.335 -74.667 -89.168 -127.5 -143.5 -158.5c-54.333 -31 -121.833 -46.5 -202.5 -46.5c-118.667 0 -205.5 29.5 -260.5 88.5s-82.5 156.5 -82.5 292.5v721h180z" unicode="u"/>
   <glyph glyph-name="v" d="M715 0h-213l-433 1082h202l268 -704l17 -53l52 -184l35 117l39 118l276 706h201z" unicode="v"/>
   <glyph glyph-name="w" d="M1018 0l-203.999 -0.00195312l-143 471l-57 202l-39 -139l-168 -534h-203l-183 1082h178l93 -607c22 -176 33 -284.667 33 -326c26 106.667 45.333 178 58 214l135 424h193l130 -425c21.333 -70 39.666 -141 54.999 -213c0 20 1.33301 45 4 75s6 60.833 10 92.5 s8 61.834 12 90.501s7 51.334 9 68.001l101 607h176z" unicode="w"/>
   <glyph glyph-name="x" d="M932 0l-321 444l-323 -444h-194l415 556l-397 526h199l300 -421l298 421h201l-397 -524l420 -558h-201z" unicode="x"/>
   <glyph glyph-name="y" d="M292 -425c-49.333 0 -90.668 3.66699 -124.001 11v135c25.333 -4 53.333 -6 84 -6c52.667 0 102.167 19.667 148.5 59s85.5 102 117.5 188l18 49l-470 1071h192l264 -642c60.668 -149.333 93.335 -234 98.001 -254l41 110l310 786h190l-456 -1082 c-59.333 -156.667 -120.833 -266.667 -184.5 -330s-139.834 -95 -228.5 -95z" unicode="y"/>
   <glyph glyph-name="z" d="M147 0v137l681 806h-641v139h844v-137l-682 -806h719v-139h-921z" unicode="z"/>
   <glyph glyph-name="braceleft" d="M796 -425c-86.667 0 -157.332 28.1689 -211.999 84.502s-82 129.166 -82 218.499v351c0 71.333 -24.333 127 -73 167s-116 61.667 -202 65v137c86.667 3.33301 154.167 25.333 202.5 66s72.5 95.667 72.5 165v352c0 91.3359 27 164.669 81 220c54 55.333 125 83 213 83 h265v-139h-213c-60.667 0 -104.334 -14.667 -131.001 -44s-40 -79.666 -40 -150.999v-346c0 -65.333 -21.333 -122.833 -64 -172.5s-98.334 -82.834 -167.001 -99.501v-2c68 -16 123.5 -48.5 166.5 -97.5s64.5 -107.833 64.5 -176.5v-347 c0 -70.667 13.333 -120.834 40 -150.501s70.334 -44.5 131.001 -44.5h213v-139h-265z" unicode="{"/>
   <glyph glyph-name="bar" d="M531 -425v1909h166v-1909h-166z" unicode="|"/>
   <glyph glyph-name="braceright" d="M167 -425l0.000976562 138.997h213c60.667 0 104.5 14.833 131.5 44.5s40.5 79.834 40.5 150.501v347c0 68 21.333 126.667 64 176s98 82 166 98v2c-68 16.667 -123.333 50 -166 100s-64 107.333 -64 172v346c0 70 -13.333 120 -40 150s-70.667 45 -132 45h-213v139h265 c88.667 0 159.834 -27.667 213.5 -83c53.667 -55.333 80.5 -128.666 80.5 -219.999v-352c0 -70 24.333 -125.167 73 -165.5c48.667 -40.3359 116 -62.1689 202 -65.5v-137c-86.667 -3.33301 -154.167 -25.166 -202.5 -65.499s-72.5 -95.833 -72.5 -166.5v-351 c0 -90 -27.333 -163 -82 -219s-125.334 -84 -212.001 -84h-265z" unicode="}"/>
   <glyph glyph-name="asciitilde" d="M371 807c68 0 146.335 -15.333 235.001 -46c98 -34 161.5 -54.333 190.5 -61s55.5 -10 79.5 -10c86.667 0 168 30.667 244 92v-149c-40 -28 -79.167 -48.333 -117.5 -61s-85.833 -19 -142.5 -19c-46 0 -93.167 7.33301 -141.5 22s-96.833 30.667 -145.5 48 c-86 30 -158.333 45 -217 45c-44.667 0 -86.334 -6.83301 -125.001 -20.5s-79.667 -36.167 -123 -67.5v143c74 56 161.667 84 263 84z" unicode="~"/>
   <glyph glyph-name="uni00A0" unicode=" "/>
   <glyph glyph-name="exclamdown" d="M539 685h148l24 -951h-196zM713 1082v-201h-194v201h194z" unicode="¡"/>
   <glyph glyph-name="cent" d="M635 269c75.333 0 137.501 18.6641 186.501 55.9971s79.167 91 90.5 161l182 -12c-14 -94.667 -56.667 -172.667 -128 -234c-71.334 -61.333 -160.667 -96.666 -268 -105.999v-195h-128v195c-138.667 10 -246.167 60.833 -322.5 152.5s-114.5 214.834 -114.5 369.501 c0 160 38.667 286.833 116 380.5s184.333 146.5 321 158.5v184h128v-184c104.667 -8.66699 191 -41.167 259 -97.5s111.667 -131.166 131 -224.499l-185 -14c-11.333 60.667 -38.833 109 -82.5 145s-106.167 54 -187.5 54c-104 0 -182.833 -33.5 -236.5 -100.5 s-80.5 -163.5 -80.5 -289.5c0 -132 28 -231.5 84 -298.5s134.333 -100.5 234.999 -100.5z" unicode="¢"/>
   <glyph glyph-name="sterling" d="M1171 240c-33.333 -160 -111.333 -240.002 -234 -240.002h-881v154c58 29.333 98.833 57 122.5 83s41.667 57.833 54 95.5s18.5 83.834 18.5 138.501v141h-186v142h186v220c0 129.334 36.167 227.667 108.5 295c72.334 67.333 176.834 101 313.5 101 c102 0 187 -20.167 255 -60.5s113.333 -96.833 136 -169.5l-174 -57c-14.667 42 -41.5 73.667 -80.5 95s-84.5 32 -136.5 32c-81.333 0 -142 -19.167 -182 -57.5s-60 -99.166 -60 -182.499v-216h408v-142h-408v-139c0 -85.333 -12 -151.833 -36 -199.5 s-63.667 -86.167 -119 -115.5h600c39.333 0 68.5 8.83301 87.5 26.5s32.167 44.167 39.5 79.5z" unicode="£"/>
   <glyph glyph-name="currency" d="M182 684c0 92 26 176 78 252l-100 100l104 103l99 -101c76 54.667 160.667 82 254 82c91.333 0 175 -26.667 251 -80l97 97l104 -105l-96 -96c53.333 -78 80 -162 80 -252c0 -92 -27.333 -176 -82 -252l100 -100l-102 -105l-101 101c-76 -52 -159.667 -78 -251 -78 c-95.334 0 -179.334 26.667 -252 80l-105 -105l-102 105l102 102c-52 76 -78 160 -78 252zM336 686c0 -76 27.333 -141.667 82 -197s121 -83 199 -83c76 0 141.667 27 197 81s83 120.333 83 199c0 77.333 -27.5 143.5 -82.5 198.5s-120.833 82.5 -197.5 82.5 c-78 0 -144.333 -27.833 -199 -83.5s-82 -121.5 -82 -197.5z" unicode="¤"/>
   <glyph glyph-name="yen" d="M764 679h321v-142h-383v-137h383v-144h-383v-256h-178v256h-381v144h381l2 137h-383v142h320l-411 670h199l361 -617l365 617h199z" unicode="¥"/>
   <glyph glyph-name="brokenbar" d="M531 676v778h166v-778h-166zM531 -455v779h166v-779h-166z" unicode="¦"/>
   <glyph glyph-name="section" d="M632 1484c115.333 0 208.501 -22.168 279.501 -66.501s115.5 -108.833 133.5 -193.5l-161 -20c-9.33301 52.667 -35.5 92.5 -78.5 119.5s-100.833 40.5 -173.5 40.5c-83.333 0 -146.5 -14.833 -189.5 -44.5s-64.5 -68.167 -64.5 -115.5c0 -32 10 -59.667 30 -83 s48.5 -43.666 85.5 -60.999s98.833 -36.333 185.5 -57c98 -23.333 173 -48.833 225 -76.5s92.333 -61.167 121 -100.5s43 -86 43 -140c0 -66 -19.833 -124 -59.5 -174s-92.834 -83 -159.501 -99c74.668 -32 128.835 -69.5 162.501 -112.5 c33.667 -43 50.5 -94.833 50.5 -155.5c0 -98.667 -38.5 -176.167 -115.5 -232.5s-185.5 -84.5 -325.5 -84.5c-139.333 0 -245.5 22.167 -318.5 66.5s-120.833 112.833 -143.5 205.5l161 31c13.333 -62 43.833 -108 91.5 -138s117.5 -45 209.5 -45c87.333 0 156 16 206 48 s75 76.333 75 133c0 37.333 -10.667 69 -32 95s-51.5 48.333 -90.5 67s-111.5 41 -217.5 67c-130 30 -223.333 71 -280 123s-85 115.333 -85 190c0 59.333 20.5 113.666 61.5 162.999s96.5 84 166.5 104c-64 21.333 -114.5 54.333 -151.5 99s-55.5 95.667 -55.5 153 c0 92.667 35.167 164.834 105.5 216.501s173.166 77.5 308.499 77.5zM910.001 662.999c0 48 -23.167 89.333 -69.5 124c-46.334 34.667 -128.167 65.667 -245.5 93c-72.667 -4 -130.5 -23.667 -173.5 -59s-64.5 -81 -64.5 -137c0 -32.667 9.83301 -61.167 29.5 -85.5 s48 -45.5 85 -63.5s98.5 -38 184.5 -60c79.333 1.33301 141.5 18.833 186.5 52.5c45 33.668 67.5 78.835 67.5 135.5z" unicode="§"/>
   <glyph glyph-name="dieresis" d="M729 1219v184h163v-184h-163zM335 1219v184h165v-184h-165z" unicode="¨"/>
   <glyph glyph-name="copyright" d="M398 763c0 -102 19.665 -181.833 58.998 -239.5s94.333 -86.5 165 -86.5c43.333 0 81 12.333 113 37s59.667 64.334 83 119.001l115 -35c-34.667 -78.667 -77.5 -135.834 -128.5 -171.501s-111.833 -53.5 -182.5 -53.5c-112 0 -198.833 37.833 -260.5 113.5 s-92.5 181.167 -92.5 316.5c0 134.667 29.667 239 89 313s145 111 257 111c144.667 0 245.667 -69.667 303 -209l-114 -33c-17.3359 44.667 -42.1689 78.667 -74.499 102c-32.333 23.333 -69.833 35 -112.5 35c-71.333 0 -125.666 -26.833 -162.999 -80.5 s-56 -133.167 -56 -238.5zM1197 761c0 -151.333 -23.6621 -281.502 -70.9951 -390.502s-115 -191.667 -203 -248s-191 -84.5 -309 -84.5s-220.833 28.5 -308.5 85.5s-155.334 139.833 -203.001 248.5s-71.5 238.334 -71.5 389.001s23.667 280.334 71 389.001 s115.166 191.5 203.499 248.5s191.166 85.5 308.499 85.5s220.166 -28.333 308.499 -85s156.166 -139.167 203.499 -247.5s71 -238.5 71 -390.5zM1105 760.998c0 200.667 -43.333 355.499 -130 464.499s-207 163.5 -361 163.5c-100.667 0 -187.5 -24.167 -260.5 -72.5 s-129.167 -119.666 -168.5 -213.999c-39.333 -94.334 -59 -208.167 -59 -341.5c0 -199.333 42.5 -354 127.5 -464s205.167 -165 360.5 -165s276 54.667 362 164s129 264.333 129 465z" unicode="©"/>
   <glyph glyph-name="ordfeminine" d="M206 870c0 78 30.001 137.5 90.001 178.5s149.333 62.167 268 63.5l191 4v43c0 121.333 -60 182 -180 182c-56 0 -99.333 -11.333 -130 -34s-49.667 -59.667 -57 -111l-149 10c12 70.667 47.333 126 106 166s136.667 60 234 60c102 0 180.667 -22.333 236 -67 c55.333 -44.6689 83 -111.336 83 -200v-291c0 -38.667 5.16699 -68 15.5 -88s29.833 -30 58.5 -30c16.667 0 33 2.66699 49 8v-94c-33.333 -8.66699 -67.333 -13 -102 -13c-102.667 0 -156 53.333 -160 160h-4c-28.667 -51.333 -67.334 -91.833 -116.001 -121.5 s-107 -44.5 -175 -44.5c-80.667 0 -143.834 19 -189.5 57c-45.667 38 -68.5 92 -68.5 162zM353.001 890c0 -42.667 13.667 -76.333 41 -101s64.333 -37 111 -37c46 0 88.167 11.333 126.5 34s68.5 52.167 90.5 88.5s33 72.5 33 108.5v51l-154 -4 c-86.667 -2 -149.667 -14.167 -189 -36.5s-59 -56.833 -59 -103.5z" unicode="ª"/>
   <glyph glyph-name="guillemotleft" d="M940 141l-338 365v63l338 371h178v-31l-338 -372l340 -367v-29h-180zM463 141l-336 365v63l336 371h177v-31l-335 -372l337 -367v-29h-179z" unicode="«"/>
   <glyph glyph-name="logicalnot" d="M966 180v428h-850v146h995v-574h-145z" unicode="¬"/>
   <glyph glyph-name="uni00AD" d="M334 464v160h560v-160h-560z" unicode="­"/>
   <glyph glyph-name="registered" d="M1197 761c0 -151.333 -23.6621 -281.502 -70.9951 -390.502s-115 -191.667 -203 -248s-191 -84.5 -309 -84.5s-220.833 28.5 -308.5 85.5s-155.334 139.833 -203.001 248.5s-71.5 238.334 -71.5 389.001s23.667 280.334 71 389.001s115.166 191.5 203.499 248.5 s191.166 85.5 308.499 85.5s220.166 -28.333 308.499 -85s156.166 -139.167 203.499 -247.5s71 -238.5 71 -390.5zM1105 760.998c0 200.667 -43.333 355.499 -130 464.499s-207 163.5 -361 163.5c-100.667 0 -187.5 -24.167 -260.5 -72.5s-129.167 -119.666 -168.5 -213.999 c-39.333 -94.334 -59 -208.167 -59 -341.5c0 -199.333 42.5 -354 127.5 -464s205.167 -165 360.5 -165s276 54.667 362 164s129 264.333 129 465zM815.005 342.997l-198.999 336h-161v-336h-127v831h307c94.667 0 167.167 -21 217.5 -63s75.5 -100 75.5 -174 c0 -68 -17.333 -122.5 -52 -163.5s-80.334 -67.833 -137.001 -80.5l221 -350h-145zM801.006 934.997c0 46 -15.833 81 -47.5 105s-74.5 36 -128.5 36h-170v-301h182c53.333 0 94 14.167 122 42.5s42 67.5 42 117.5z" unicode="®"/>
   <glyph glyph-name="overscore" d="M-5 1522v96h1238v-96h-1238z" unicode="¯"/>
   <glyph glyph-name="degree" d="M901 1085c0 -79.334 -28.167 -146.669 -84.5 -202.001c-56.333 -55.333 -123.833 -83 -202.5 -83s-146.167 28 -202.5 84s-84.5 123 -84.5 201s27.833 145 83.5 201s123.5 84 203.5 84s147.833 -27.667 203.5 -83s83.5 -122.666 83.5 -201.999zM792 1085 c0 50.667 -17.167 93.3311 -51.5 127.998s-76.5 52 -126.5 52s-92.167 -17.667 -126.5 -53s-51.5 -77.666 -51.5 -126.999s17.5 -91.666 52.5 -126.999s76.833 -53 125.5 -53c49.333 0 91.333 17.5 126 52.5s52 77.5 52 127.5z" unicode="°"/>
   <glyph glyph-name="plusminus" d="M687 680v-395h-147v395h-424v145h424v394h147v-394h424v-145h-424zM116 0v145h995v-145h-995z" unicode="±"/>
   <glyph glyph-name="twosuperior" d="M314 563l-2.00293 102.999c20.667 46 52.334 90.333 95.001 133s100 89 172 139c64.667 44 111.667 85 141 123s44 77 44 117c0 41.333 -11.833 74.5 -35.5 99.5s-60.167 37.5 -109.5 37.5c-45.334 0 -82.667 -12.167 -111.999 -36.5 c-29.333 -24.333 -46.666 -59.166 -51.999 -104.499l-133 8c8.66699 72 40.334 129.833 95.001 173.5s124 65.5 208 65.5c87.333 0 155.166 -21.167 203.499 -63.5s72.5 -100.833 72.5 -175.5c0 -50 -15.667 -97.333 -47 -142s-79 -89.667 -143 -135 c-88 -62 -148.667 -108.333 -182 -139s-58 -62.667 -74 -96h459l2 -107h-602z" unicode="²"/>
   <glyph glyph-name="threesuperior" d="M921 795c0 -77.333 -25.832 -137.334 -77.499 -180.001s-124.834 -64 -219.501 -64c-190.667 0 -296.667 75.667 -318 227l136 13c12 -90.667 72.667 -136 182 -136c106.667 0 160 49.333 160 148c0 91.333 -63 137 -189 137h-61v109h57c53.333 0 95.333 12 126 36 s46 57.667 46 101c0 40 -12.333 71.5 -37 94.5s-60.667 34.5 -108 34.5c-45.333 0 -82 -11.667 -110 -35s-44 -56.666 -48 -99.999l-135 12c8.66699 72.667 39.167 129 91.5 169c52.334 40 120.834 60 205.5 60c86.667 0 154.667 -19.833 204 -59.5s74 -92.167 74 -157.5 c0 -50 -14.333 -93.333 -43 -130c-28.667 -36.6709 -73 -61.6709 -133 -75v-2c60.667 -6 108.667 -26.5 144 -61.5s53 -81.833 53 -140.5z" unicode="³"/>
   <glyph glyph-name="acute" d="M402 1201v20l227 239h197v-29l-300 -230h-124z" unicode="´"/>
   <glyph glyph-name="mu1" d="M916 0c-1.33301 7.33301 -3.33203 38.001 -5.99902 92.001s-4 89.667 -4 107h-4c-70.667 -146 -182 -219 -334 -219c-54.667 0 -103.334 10.667 -146.001 32s-74.667 51.333 -96 90h-4c2.66699 -28.667 4 -69.334 4 -122.001v-373h-182v1475h182v-644 c0 -211.333 88 -317 264 -317c87.333 0 160.333 32.167 219 96.5s88 146.833 88 247.5v617h181v-849c0 -127.333 2 -205 6 -233h-168z" unicode="µ"/>
   <glyph glyph-name="paragraph" d="M951 1227v-1551h-132v1551h-197v-1551h-133v958c-112 0 -200.333 30.833 -265 92.5s-97 149.167 -97 262.5c0 112.667 32.833 200.834 98.5 264.501s156.167 95.5 271.5 95.5h583v-122h-129z" unicode="¶"/>
   <glyph glyph-name="middot.001" d="M496 420v299h235v-299h-235z" unicode="·"/>
   <glyph glyph-name="cedilla" d="M483 -258c0 -124 -91.333 -186 -274 -186c-38 0 -68 1.33301 -90 4v98c33.333 -4 62 -6 86 -6c98 0 147 28.667 147 86c0 26.667 -10.167 47 -30.5 61s-54.5 21 -102.5 21c-28.667 0 -47.667 -0.666992 -57 -2l65 182h107l-39 -100c62.667 -2 109.667 -16.833 141 -44.5 s47 -65.5 47 -113.5z" unicode="¸"/>
   <glyph glyph-name="onesuperior" d="M291 563l0.000976562 107h265v610c-16.667 -33.333 -51.334 -60.833 -104.001 -82.5s-108.334 -32.5 -167 -32.5v109c66 0 123.833 12.167 173.5 36.5s85.5 57.5 107.5 99.5h121v-740h236v-107h-632z" unicode="¹"/>
   <glyph glyph-name="ordmasculine" d="M1002 1042c0 -122 -34.167 -217.667 -102.5 -287s-164.5 -104 -288.5 -104c-121.333 0 -215.833 35.667 -283.5 107s-101.5 166 -101.5 284c0 121.335 34.333 216.668 103 286c68.667 69.333 164 104 286 104c126 0 222 -33.5 288 -100.5s99 -163.5 99 -289.5zM853 1042 c0 100.667 -19.999 173.333 -59.999 218s-98 67 -174 67c-160.667 0 -241 -95 -241 -285c0 -93.333 19.667 -164.333 59 -213s96.666 -73 171.999 -73c78 0 138.167 22.167 180.5 66.5s63.5 117.5 63.5 219.5z" unicode="º"/>
   <glyph glyph-name="guillemotright" d="M762 141h-178v29l338 367l-336 372v31h176l338 -371v-63zM287 141h-180v29l338 367l-336 372v31h178l335 -371v-63z" unicode="»"/>
   <glyph glyph-name="onequarter" d="M63 589l-0.000976562 107h135v513c-13.333 -26 -37.666 -48.333 -72.999 -67s-68 -28 -98 -28v119c33.333 0 67.333 10.5 102 31.5s61 49.167 79 84.5h121v-653h116v-107h-382zM321.999 0h-118l703 1349h115zM1107 162v-161h-127v161h-375v99l361 502h141v-500h122v-101 h-122zM980.999 635c-22.667 -34 -111.333 -158 -266 -372h265v321z" unicode="¼"/>
   <glyph glyph-name="onehalf" d="M53 589l-0.000976562 107h135v513c-13.333 -26 -37.666 -48.333 -72.999 -67s-68 -28 -98 -28v119c33.333 0 67.333 10.5 102 31.5s61 49.167 79 84.5h121v-653h116v-107h-382zM305.999 0h-118l703 1349h115zM677.999 1l0.000976562 97.001c18 41.333 44.833 81 80.5 119 s83.5 79.667 143.5 125c54.667 40.667 93.667 77 117 109s35 65.667 35 101c0 80.667 -37 121 -111 121c-40.667 0 -70.834 -10.333 -90.501 -31s-32.167 -51.334 -37.5 -92.001l-130 5c8.66699 68 36.167 121.333 82.5 160s106.5 58 180.5 58 c80 0 140.167 -18.667 180.5 -56s60.5 -90.333 60.5 -159c0 -87.333 -53.333 -171 -160 -251c-78 -59.333 -129.5 -100.833 -154.5 -124.5s-43.167 -48.5 -54.5 -74.5h380v-107h-522z" unicode="½"/>
   <glyph glyph-name="threequarters" d="M526 794c0 -67.333 -23.002 -121.334 -69.002 -162.001s-108.667 -61 -188 -61c-71.333 0 -129.666 18.667 -174.999 56s-73 89.333 -83 156l136 13c6 -40 19.833 -70.167 41.5 -90.5s48.5 -30.5 80.5 -30.5c36 0 65 10 87 30s33 51.667 33 95c0 80 -49.667 120 -149 120 h-41v109h37c45.334 0 78.667 9.5 100 28.5s32 50.5 32 94.5c0 35.333 -9 61.333 -27 78s-40.667 25 -68 25c-30 0 -56 -10.5 -78 -31.5s-35 -50.5 -39 -88.5l-135 12c8.66699 66.667 35.334 119 80.001 157s102 57 172 57c72.667 0 129.5 -18.333 170.5 -55 s61.5 -85.667 61.5 -147c0 -44 -11.167 -80.167 -33.5 -108.5c-22.333 -28.335 -56.5 -51.168 -102.5 -68.499v-2c54.667 -12 94.5 -34.667 119.5 -68c25 -33.335 37.5 -72.668 37.5 -118zM346.998 -0.000976562h-118l703 1349h115zM1107 161.999v-161h-127v161h-375v99 l361 502h141v-500h122v-101h-122zM980.998 634.999c-22.667 -34 -111.333 -158 -266 -372h265v321z" unicode="¾"/>
   <glyph glyph-name="questiondown" d="M153 79c0 48.667 7.33301 91.999 22 129.999s35.834 73.167 63.5 105.5c27.667 32.333 72.167 70.833 133.5 115.5c73.333 52.667 121.833 91.334 145.5 116.001c23.6689 24.6689 42.3359 51.3359 56 80c13.6709 28.668 20.8379 61.335 21.5 98h175 c-1.33301 -46.667 -9.5 -88.5 -24.5 -125.5s-35.667 -71 -62 -102c-26.334 -31 -71.167 -69.833 -134.5 -116.5c-71.333 -52.667 -118.166 -91.334 -140.499 -116c-22.333 -24.667 -40.166 -51.167 -53.499 -79.5s-20 -60.833 -20 -97.5c0 -72.667 26.5 -128.5 79.5 -167.5 s124.833 -58.5 215.499 -58.5c90 0 163.167 24.333 219.5 73s89.166 115 98.499 199l184 -12c-17.333 -131.333 -70.5 -232.5 -159.5 -303.5s-202.5 -106.5 -340.5 -106.5c-148.667 0 -265.667 32.167 -351 96.5s-128 154.833 -128 271.5zM778 1081v-201h-195v201h195z" unicode="¿"/>
   <glyph glyph-name="Agrave" d="M1034 0l-138 382h-563l-137 -382h-196l510 1349h217l501 -1349h-194zM616 1205l-12 -39l-69 -212l-151 -423h463l-173 500zM609 1444l-300 230v29h197l227 -239v-20h-124z" unicode="À"/>
   <glyph glyph-name="Aacute" d="M1034 0l-138 382h-563l-137 -382h-196l510 1349h217l501 -1349h-194zM616 1205l-12 -39l-69 -212l-151 -423h463l-173 500zM495 1445v20l227 239h197v-29l-300 -230h-124z" unicode="Á"/>
   <glyph glyph-name="Acircumflex" d="M1034 0l-138 382h-563l-137 -382h-196l510 1349h217l501 -1349h-194zM616 1205l-12 -39l-69 -212l-151 -423h463l-173 500zM945 1465v-20h-105l-219 138h-2l-232 -138h-104v20l254 239h164z" unicode="Â"/>
   <glyph glyph-name="Atilde" d="M1034 0l-138 382h-563l-137 -382h-196l510 1349h217l501 -1349h-194zM616 1205l-12 -39l-69 -212l-151 -423h463l-173 500zM770 1445c-28 0 -55.999 6.16699 -83.999 18.5s-55.333 26 -82 41s-52.834 28.667 -78.501 41s-50.167 18.5 -73.5 18.5 c-16.667 0 -30 -3.16699 -40 -9.5s-18.333 -15.5 -25 -27.5s-13.667 -39.333 -21 -82h-111c7.33301 64 18.833 112.333 34.5 145s37.167 58 64.5 76s62 27 104 27c29.333 0 58 -6.16699 86 -18.5s55.333 -26 82 -41c26.6689 -15 52.3359 -28.667 77 -41 c24.667 -12.333 48 -18.5 70 -18.5c24.667 0 43.667 7.83301 57 23.5s23.333 47.5 30 95.5h112c-10.667 -92 -32.5 -156.333 -65.5 -193s-78.5 -55 -136.5 -55z" unicode="Ã"/>
   <glyph glyph-name="Adieresis" d="M1034 0l-138 382h-563l-137 -382h-196l510 1349h217l501 -1349h-194zM616 1205l-12 -39l-69 -212l-151 -423h463l-173 500zM729 1445v184h163v-184h-163zM335 1445v184h165v-184h-165z" unicode="Ä"/>
   <glyph glyph-name="Aring" d="M1034 0l-138 382h-563l-137 -382h-196l510 1349h217l501 -1349h-194zM616 1205l-12 -39l-69 -212l-151 -423h463l-173 500zM859 1433c0 -58 -21.833 -105.833 -65.5 -143.5s-102.5 -56.5 -176.5 -56.5c-74.667 0 -133.667 18.833 -177 56.5s-65 85.5 -65 143.5 c0 59.333 22.167 107.333 66.5 144s102.833 55 175.5 55c74 0 132.833 -18.5 176.5 -55.5s65.5 -84.833 65.5 -143.5zM738 1433c0 24.667 -10.833 44.667 -32.5 60s-51.167 23 -88.5 23c-36.667 0 -66.167 -7.66699 -88.5 -23s-33.5 -35.333 -33.5 -60 c0 -25.333 11.167 -45.666 33.5 -60.999s51.833 -23 88.5 -23c37.333 0 66.833 7.66699 88.5 23c21.667 15.3438 32.5 35.6768 32.5 60.999z" unicode="Å"/>
   <glyph glyph-name="AE" d="M646 412h-335l-142 -412h-168l486 1349h667v-152h-337v-430h327v-150h-327v-465h378v-152h-549v412zM646 1202h-72.999c-2.66699 -10.6709 -16.834 -59.3379 -42.501 -146c-25.667 -86.667 -81.834 -251.667 -168.5 -495h284v641z" unicode="Æ"/>
   <glyph glyph-name="Ccedilla" d="M314 681c0 -182 28.499 -318.501 85.499 -409.501s144.167 -136.5 261.5 -136.5c67.333 0 128.333 22.833 183 68.5s101 116.834 139 213.501l159 -65c-99.333 -248 -260.333 -372 -483 -372c-175.333 0 -310.166 60.333 -404.499 181s-141.5 294 -141.5 520 c0 459.333 178.667 689 536 689c226 0 381.333 -111.667 466 -335l-168 -65c-24.667 75.333 -63.167 134.833 -115.5 178.5s-112.833 65.5 -181.5 65.5c-114 0 -198.5 -43 -253.5 -129s-82.5 -220.667 -82.5 -404zM836.999 -258.001c0 -124 -91.333 -186 -274 -186 c-38 0 -68 1.33301 -90 4v98c33.333 -4 62 -6 86 -6c98 0 147 28.667 147 86c0 26.667 -10.167 47 -30.5 61s-54.5 21 -102.5 21c-28.667 0 -47.667 -0.666992 -57 -2l65 182h107l-39 -100c62.667 -2 109.667 -16.833 141 -44.5s47 -65.5 47 -113.5z" unicode="Ç"/>
   <glyph glyph-name="Egrave" d="M162 0v1349h919v-156h-728v-422h668v-154h-668v-461h769v-156h-960zM631 1445l-300 230v29h197l227 -239v-20h-124z" unicode="È"/>
   <glyph glyph-name="Eacute" d="M162 0v1349h919v-156h-728v-422h668v-154h-668v-461h769v-156h-960zM493 1445v20l227 239h197v-29l-300 -230h-124z" unicode="É"/>
   <glyph glyph-name="Ecircumflex" d="M162 0v1349h919v-156h-728v-422h668v-154h-668v-461h769v-156h-960zM945 1465v-20h-105l-219 138h-2l-232 -138h-104v20l254 239h164z" unicode="Ê"/>
   <glyph glyph-name="Edieresis" d="M162 0v1349h919v-156h-728v-422h668v-154h-668v-461h769v-156h-960zM749 1445v184h163v-184h-163zM355 1445v184h165v-184h-165z" unicode="Ë"/>
   <glyph glyph-name="Igrave" d="M202 1349h823v-156h-316v-1037h316v-156h-823v156h316v1037h-316v156zM621 1445l-300 230v29h197l227 -239v-20h-124z" unicode="Ì"/>
   <glyph glyph-name="Iacute" d="M202 1349h823v-156h-316v-1037h316v-156h-823v156h316v1037h-316v156zM505 1445v20l227 239h197v-29l-300 -230h-124z" unicode="Í"/>
   <glyph glyph-name="Icircumflex" d="M202 1349h823v-156h-316v-1037h316v-156h-823v156h316v1037h-316v156zM945 1465v-20h-105l-219 138h-2l-232 -138h-104v20l254 239h164z" unicode="Î"/>
   <glyph glyph-name="Idieresis" d="M202 1349h823v-156h-316v-1037h316v-156h-823v156h316v1037h-316v156zM729 1445v184h163v-184h-163zM335 1445v184h165v-184h-165z" unicode="Ï"/>
   <glyph glyph-name="Eth" d="M1125 688c0 -220.667 -51.167 -390.5 -153.5 -509.5s-248.833 -178.5 -439.5 -178.5h-370v597h-135v149h135v603h311c219.333 0 382.833 -54.833 490.5 -164.5s161.5 -275.167 161.5 -496.5zM642 597h-289v-441h162c141.333 0 246.333 44.333 315 133 s103 221.667 103 399c0 176 -36.667 304.167 -110 384.5c-73.334 80.333 -189.667 120.5 -349 120.5h-121v-447h289v-149z" unicode="Ð"/>
   <glyph glyph-name="Ntilde" d="M836 0l-520 1130c10.667 -114.667 16 -199.334 16 -254.001v-876h-170v1349h222l528 -1138c-12 96 -18 187.333 -18 274v864h172v-1349h-230zM770 1446c-28 0 -55.999 6.16699 -83.999 18.5s-55.333 26 -82 41s-52.834 28.667 -78.501 41s-50.167 18.5 -73.5 18.5 c-16.667 0 -30 -3.16699 -40 -9.5s-18.333 -15.5 -25 -27.5s-13.667 -39.333 -21 -82h-111c7.33301 64 18.833 112.333 34.5 145s37.167 58 64.5 76s62 27 104 27c29.333 0 58 -6.16699 86 -18.5s55.333 -26 82 -41c26.6689 -15 52.3359 -28.667 77 -41 c24.667 -12.333 48 -18.5 70 -18.5c24.667 0 43.667 7.83301 57 23.5s23.333 47.5 30 95.5h112c-10.667 -92 -32.5 -156.333 -65.5 -193s-78.5 -55 -136.5 -55z" unicode="Ñ"/>
   <glyph glyph-name="Ograve" d="M1126 681c0 -224.667 -44.168 -397.667 -132.501 -519c-88.334 -121.333 -215.167 -182 -380.5 -182c-166 0 -292.667 59.667 -380 179s-131 293.333 -131 522c0 224.667 43.333 395.667 130 513s214.334 176 383.001 176c164.667 0 291 -57.833 379 -173.5 s132 -287.5 132 -515.5zM924.999 681c0 355.333 -103.333 533.001 -310 533.001c-208 0 -312 -177.667 -312 -533c0 -180 26.333 -316 79 -408s130 -138 232 -138c108.667 0 187.667 46.667 237 140s74 228.666 74 405.999zM615.999 1445l-300 230v29h197l227 -239v-20h-124 z" unicode="Ò"/>
   <glyph glyph-name="Oacute" d="M1126 681c0 -224.667 -44.168 -397.667 -132.501 -519c-88.334 -121.333 -215.167 -182 -380.5 -182c-166 0 -292.667 59.667 -380 179s-131 293.333 -131 522c0 224.667 43.333 395.667 130 513s214.334 176 383.001 176c164.667 0 291 -57.833 379 -173.5 s132 -287.5 132 -515.5zM924.999 681c0 355.333 -103.333 533.001 -310 533.001c-208 0 -312 -177.667 -312 -533c0 -180 26.333 -316 79 -408s130 -138 232 -138c108.667 0 187.667 46.667 237 140s74 228.666 74 405.999zM499.999 1445v20l227 239h197v-29l-300 -230h-124 z" unicode="Ó"/>
   <glyph glyph-name="Ocircumflex" d="M1126 681c0 -224.667 -44.168 -397.667 -132.501 -519c-88.334 -121.333 -215.167 -182 -380.5 -182c-166 0 -292.667 59.667 -380 179s-131 293.333 -131 522c0 224.667 43.333 395.667 130 513s214.334 176 383.001 176c164.667 0 291 -57.833 379 -173.5 s132 -287.5 132 -515.5zM924.999 681c0 355.333 -103.333 533.001 -310 533.001c-208 0 -312 -177.667 -312 -533c0 -180 26.333 -316 79 -408s130 -138 232 -138c108.667 0 187.667 46.667 237 140s74 228.666 74 405.999zM944.999 1465v-20h-105l-219 138h-2l-232 -138 h-104v20l254 239h164z" unicode="Ô"/>
   <glyph glyph-name="Otilde" d="M1126 681c0 -224.667 -44.168 -397.667 -132.501 -519c-88.334 -121.333 -215.167 -182 -380.5 -182c-166 0 -292.667 59.667 -380 179s-131 293.333 -131 522c0 224.667 43.333 395.667 130 513s214.334 176 383.001 176c164.667 0 291 -57.833 379 -173.5 s132 -287.5 132 -515.5zM924.999 681c0 355.333 -103.333 533.001 -310 533.001c-208 0 -312 -177.667 -312 -533c0 -180 26.333 -316 79 -408s130 -138 232 -138c108.667 0 187.667 46.667 237 140s74 228.666 74 405.999zM769.999 1445 c-28 0 -55.999 6.16699 -83.999 18.5s-55.333 26 -82 41s-52.834 28.667 -78.501 41s-50.167 18.5 -73.5 18.5c-16.667 0 -30 -3.16699 -40 -9.5s-18.333 -15.5 -25 -27.5s-13.667 -39.333 -21 -82h-111c7.33301 64 18.833 112.333 34.5 145s37.167 58 64.5 76s62 27 104 27 c29.333 0 58 -6.16699 86 -18.5s55.333 -26 82 -41c26.6689 -15 52.3359 -28.667 77 -41c24.667 -12.333 48 -18.5 70 -18.5c24.667 0 43.667 7.83301 57 23.5s23.333 47.5 30 95.5h112c-10.667 -92 -32.5 -156.333 -65.5 -193s-78.5 -55 -136.5 -55z" unicode="Õ"/>
   <glyph glyph-name="Odieresis" d="M1126 681c0 -224.667 -44.168 -397.667 -132.501 -519c-88.334 -121.333 -215.167 -182 -380.5 -182c-166 0 -292.667 59.667 -380 179s-131 293.333 -131 522c0 224.667 43.333 395.667 130 513s214.334 176 383.001 176c164.667 0 291 -57.833 379 -173.5 s132 -287.5 132 -515.5zM924.999 681c0 355.333 -103.333 533.001 -310 533.001c-208 0 -312 -177.667 -312 -533c0 -180 26.333 -316 79 -408s130 -138 232 -138c108.667 0 187.667 46.667 237 140s74 228.666 74 405.999zM731.999 1445v184h163v-184h-163zM337.999 1445 v184h165v-184h-165z" unicode="Ö"/>
   <glyph glyph-name="multiply" d="M157 330l354 354l-352 352l104 103l350 -353l350 351l105 -105l-350 -348l352 -352l-102 -105l-353 353l-356 -355z" unicode="×"/>
   <glyph glyph-name="Oslash" d="M1126 681c0 -224.667 -44.1689 -397.667 -132.502 -519c-88.334 -121.333 -215.167 -182 -380.5 -182c-145.333 0 -260.666 46 -345.999 138l-117 -156l-94 65l141 189c-63.333 116 -95 271 -95 465c0 224.667 43.333 395.667 130 513s214.334 176 383.001 176 c144.667 0 259.667 -44.667 345 -134l116 156l94 -65l-140 -187c64 -113.333 96 -266.333 96 -459zM924.998 681c0 109.333 -10 202.001 -30 278.001l-512 -686c52.667 -92 129.667 -138 231 -138c108.667 0 187.667 46.667 237 140s74 228.666 74 405.999zM302.998 681.001 c0 -110.667 10 -204.667 30 -282l512 684c-51.333 87.333 -128 131 -230 131c-208 0 -312 -177.667 -312 -533z" unicode="Ø"/>
   <glyph glyph-name="Ugrave" d="M1085 490c0 -178 -37.999 -307.499 -113.999 -388.499s-198 -121.5 -366 -121.5c-162.667 0 -280.5 39.167 -353.5 117.5s-109.5 203.166 -109.5 374.499v877h191v-851c0 -136 19.5 -230.5 58.5 -283.5s109.833 -79.5 212.5 -79.5c107.333 0 182.666 27.333 225.999 82 s65 152.667 65 294v838h190v-859zM605.001 1445l-300 230v29h197l227 -239v-20h-124z" unicode="Ù"/>
   <glyph glyph-name="Uacute" d="M1085 490c0 -178 -37.999 -307.499 -113.999 -388.499s-198 -121.5 -366 -121.5c-162.667 0 -280.5 39.167 -353.5 117.5s-109.5 203.166 -109.5 374.499v877h191v-851c0 -136 19.5 -230.5 58.5 -283.5s109.833 -79.5 212.5 -79.5c107.333 0 182.666 27.333 225.999 82 s65 152.667 65 294v838h190v-859zM488.001 1445v20l227 239h197v-29l-300 -230h-124z" unicode="Ú"/>
   <glyph glyph-name="Ucircumflex" d="M1085 490c0 -178 -37.999 -307.499 -113.999 -388.499s-198 -121.5 -366 -121.5c-162.667 0 -280.5 39.167 -353.5 117.5s-109.5 203.166 -109.5 374.499v877h191v-851c0 -136 19.5 -230.5 58.5 -283.5s109.833 -79.5 212.5 -79.5c107.333 0 182.666 27.333 225.999 82 s65 152.667 65 294v838h190v-859zM945.001 1465v-20h-105l-219 138h-2l-232 -138h-104v20l254 239h164z" unicode="Û"/>
   <glyph glyph-name="Udieresis" d="M1085 490c0 -178 -37.999 -307.499 -113.999 -388.499s-198 -121.5 -366 -121.5c-162.667 0 -280.5 39.167 -353.5 117.5s-109.5 203.166 -109.5 374.499v877h191v-851c0 -136 19.5 -230.5 58.5 -283.5s109.833 -79.5 212.5 -79.5c107.333 0 182.666 27.333 225.999 82 s65 152.667 65 294v838h190v-859zM729.001 1445v184h163v-184h-163zM335.001 1445v184h165v-184h-165z" unicode="Ü"/>
   <glyph glyph-name="Yacute" d="M708 584v-584h-188v584l-484 765h205l374 -611l372 611h205zM503 1445v20l227 239h197v-29l-300 -230h-124z" unicode="Ý"/>
   <glyph glyph-name="Thorn" d="M1119 692c0 -85.334 -19.333 -161.167 -58 -227.5s-94.5 -118 -167.5 -155s-159.5 -55.5 -259.5 -55.5h-281v-254h-191v1349h191v-235h269c159.333 0 282 -37 368 -111s129 -177.667 129 -311zM927 688c0 89.333 -27.333 158.833 -82 208.5s-136.667 74.5 -246 74.5h-246 v-576h254c102 0 180.833 25.833 236.5 77.5s83.5 123.5 83.5 215.5z" unicode="Þ"/>
   <glyph glyph-name="germandbls" d="M1167 295c0 -101.333 -31.667 -180.668 -95 -238.001s-151 -86 -263 -86c-114 0 -208.333 16.333 -283 49l-2 164c38.667 -22 83.667 -39 135 -51s100 -18 146 -18c61.333 0 108.333 15.833 141 47.5s49 73.834 49 126.501c0 44.667 -13.667 84.5 -41 119.5 s-74.333 72.833 -141 113.5c-61.335 36.667 -107.168 76 -137.5 118c-30.333 42 -45.5 90.333 -45.5 145c0 40.667 9.5 77.667 28.5 111s46.5 65 82.5 95c38.6699 32 66.8369 62 84.501 90c17.667 28 26.5 58.667 26.5 92c0 51.333 -22.333 92.5 -67 123.5 s-103.334 46.5 -176.001 46.5c-98.667 0 -171.167 -26.667 -217.5 -80s-69.5 -134 -69.5 -242v-1021h-180v1027c0 151.333 39.167 265.333 117.5 342s194.833 115 349.5 115c126.667 0 227.5 -26.833 302.5 -80.5c75 -53.6689 112.5 -125.836 112.5 -216.5 c0 -92 -37.667 -171.667 -113 -239c-47.333 -42 -78 -73 -92 -93s-21 -41.333 -21 -64c0 -28 11 -53.5 33 -76.5s72.667 -61.167 152 -114.5c59.333 -40 104.833 -85 136.5 -135s47.5 -106.667 47.5 -170z" unicode="ß"/>
   <glyph glyph-name="agrave" d="M1101 111c17.333 0 36.999 2.33398 58.999 7.00098v-112c-45.333 -10.667 -91.666 -16 -138.999 -16c-66.667 0 -115.167 17.5 -145.5 52.5s-47.5 89.833 -51.5 164.5h-6c-43.333 -80.667 -94.5 -138.667 -153.5 -174s-131.833 -53 -218.5 -53 c-105.333 0 -184.666 28.667 -237.999 86s-80 136 -80 236c0 232.667 151.333 350.667 454 354l236 4v59c0 87.333 -17.667 150.166 -53 188.499c-35.334 38.333 -91.667 57.5 -169 57.5c-78.667 0 -135.334 -14 -170.001 -42s-55.334 -71.333 -62 -130l-188 17 c30.667 194.667 171.667 292 423 292c133.333 0 233.5 -31.167 300.5 -93.5s100.5 -152.5 100.5 -270.5v-466c0 -53.333 7 -93.5 21 -120.5s40.667 -40.5 80 -40.5zM491.999 117.001c64 0 120.668 15.333 170.001 46s87.666 71.667 114.999 123s41 104.333 41 159v89 l-190 -4c-78.667 -1.33301 -138.667 -10 -180 -26s-73.5 -40.5 -96.5 -73.5s-34.5 -76.833 -34.5 -131.5s14.833 -98.667 44.5 -132s73.167 -50 130.5 -50zM588 1201l-300 230v29h197l227 -239v-20h-124z" unicode="à"/>
   <glyph glyph-name="aacute" d="M1101 111c17.333 0 36.999 2.33398 58.999 7.00098v-112c-45.333 -10.667 -91.666 -16 -138.999 -16c-66.667 0 -115.167 17.5 -145.5 52.5s-47.5 89.833 -51.5 164.5h-6c-43.333 -80.667 -94.5 -138.667 -153.5 -174s-131.833 -53 -218.5 -53 c-105.333 0 -184.666 28.667 -237.999 86s-80 136 -80 236c0 232.667 151.333 350.667 454 354l236 4v59c0 87.333 -17.667 150.166 -53 188.499c-35.334 38.333 -91.667 57.5 -169 57.5c-78.667 0 -135.334 -14 -170.001 -42s-55.334 -71.333 -62 -130l-188 17 c30.667 194.667 171.667 292 423 292c133.333 0 233.5 -31.167 300.5 -93.5s100.5 -152.5 100.5 -270.5v-466c0 -53.333 7 -93.5 21 -120.5s40.667 -40.5 80 -40.5zM491.999 117.001c64 0 120.668 15.333 170.001 46s87.666 71.667 114.999 123s41 104.333 41 159v89 l-190 -4c-78.667 -1.33301 -138.667 -10 -180 -26s-73.5 -40.5 -96.5 -73.5s-34.5 -76.833 -34.5 -131.5s14.833 -98.667 44.5 -132s73.167 -50 130.5 -50zM479 1201v20l227 239h197v-29l-300 -230h-124z" unicode="á"/>
   <glyph glyph-name="acircumflex" d="M1101 111c17.333 0 36.999 2.33398 58.999 7.00098v-112c-45.333 -10.667 -91.666 -16 -138.999 -16c-66.667 0 -115.167 17.5 -145.5 52.5s-47.5 89.833 -51.5 164.5h-6c-43.333 -80.667 -94.5 -138.667 -153.5 -174s-131.833 -53 -218.5 -53 c-105.333 0 -184.666 28.667 -237.999 86s-80 136 -80 236c0 232.667 151.333 350.667 454 354l236 4v59c0 87.333 -17.667 150.166 -53 188.499c-35.334 38.333 -91.667 57.5 -169 57.5c-78.667 0 -135.334 -14 -170.001 -42s-55.334 -71.333 -62 -130l-188 17 c30.667 194.667 171.667 292 423 292c133.333 0 233.5 -31.167 300.5 -93.5s100.5 -152.5 100.5 -270.5v-466c0 -53.333 7 -93.5 21 -120.5s40.667 -40.5 80 -40.5zM491.999 117.001c64 0 120.668 15.333 170.001 46s87.666 71.667 114.999 123s41 104.333 41 159v89 l-190 -4c-78.667 -1.33301 -138.667 -10 -180 -26s-73.5 -40.5 -96.5 -73.5s-34.5 -76.833 -34.5 -131.5s14.833 -98.667 44.5 -132s73.167 -50 130.5 -50zM927 1221v-20h-105l-219 138h-2l-232 -138h-104v20l254 239h164z" unicode="â"/>
   <glyph glyph-name="atilde" d="M1101 111c17.333 0 36.999 2.33398 58.999 7.00098v-112c-45.333 -10.667 -91.666 -16 -138.999 -16c-66.667 0 -115.167 17.5 -145.5 52.5s-47.5 89.833 -51.5 164.5h-6c-43.333 -80.667 -94.5 -138.667 -153.5 -174s-131.833 -53 -218.5 -53 c-105.333 0 -184.666 28.667 -237.999 86s-80 136 -80 236c0 232.667 151.333 350.667 454 354l236 4v59c0 87.333 -17.667 150.166 -53 188.499c-35.334 38.333 -91.667 57.5 -169 57.5c-78.667 0 -135.334 -14 -170.001 -42s-55.334 -71.333 -62 -130l-188 17 c30.667 194.667 171.667 292 423 292c133.333 0 233.5 -31.167 300.5 -93.5s100.5 -152.5 100.5 -270.5v-466c0 -53.333 7 -93.5 21 -120.5s40.667 -40.5 80 -40.5zM491.999 117.001c64 0 120.668 15.333 170.001 46s87.666 71.667 114.999 123s41 104.333 41 159v89 l-190 -4c-78.667 -1.33301 -138.667 -10 -180 -26s-73.5 -40.5 -96.5 -73.5s-34.5 -76.833 -34.5 -131.5s14.833 -98.667 44.5 -132s73.167 -50 130.5 -50zM762 1201c-28 0 -55.999 6.16699 -83.999 18.5s-55.333 26 -82 41s-52.834 28.667 -78.501 41 s-50.167 18.5 -73.5 18.5c-16.667 0 -30 -3.16699 -40 -9.5s-18.333 -15.5 -25 -27.5s-13.667 -39.333 -21 -82h-111c7.33301 64 18.833 112.333 34.5 145s37.167 58 64.5 76s62 27 104 27c29.333 0 58 -6.16699 86 -18.5s55.333 -26 82 -41 c26.668 -15 52.335 -28.667 77 -41c24.667 -12.333 48 -18.5 70 -18.5c24.667 0 43.667 7.83301 57 23.5s23.333 47.5 30 95.5h112c-10.667 -92 -32.5 -156.333 -65.5 -193s-78.5 -55 -136.5 -55z" unicode="ã"/>
   <glyph glyph-name="adieresis" d="M1101 111c17.333 0 36.999 2.33398 58.999 7.00098v-112c-45.333 -10.667 -91.666 -16 -138.999 -16c-66.667 0 -115.167 17.5 -145.5 52.5s-47.5 89.833 -51.5 164.5h-6c-43.333 -80.667 -94.5 -138.667 -153.5 -174s-131.833 -53 -218.5 -53 c-105.333 0 -184.666 28.667 -237.999 86s-80 136 -80 236c0 232.667 151.333 350.667 454 354l236 4v59c0 87.333 -17.667 150.166 -53 188.499c-35.334 38.333 -91.667 57.5 -169 57.5c-78.667 0 -135.334 -14 -170.001 -42s-55.334 -71.333 -62 -130l-188 17 c30.667 194.667 171.667 292 423 292c133.333 0 233.5 -31.167 300.5 -93.5s100.5 -152.5 100.5 -270.5v-466c0 -53.333 7 -93.5 21 -120.5s40.667 -40.5 80 -40.5zM491.999 117.001c64 0 120.668 15.333 170.001 46s87.666 71.667 114.999 123s41 104.333 41 159v89 l-190 -4c-78.667 -1.33301 -138.667 -10 -180 -26s-73.5 -40.5 -96.5 -73.5s-34.5 -76.833 -34.5 -131.5s14.833 -98.667 44.5 -132s73.167 -50 130.5 -50zM713 1219v184h163v-184h-163zM319 1219v184h165v-184h-165z" unicode="ä"/>
   <glyph glyph-name="aring" d="M1101 111c17.333 0 36.999 2.33398 58.999 7.00098v-112c-45.333 -10.667 -91.666 -16 -138.999 -16c-66.667 0 -115.167 17.5 -145.5 52.5s-47.5 89.833 -51.5 164.5h-6c-43.333 -80.667 -94.5 -138.667 -153.5 -174s-131.833 -53 -218.5 -53 c-105.333 0 -184.666 28.667 -237.999 86s-80 136 -80 236c0 232.667 151.333 350.667 454 354l236 4v59c0 87.333 -17.667 150.166 -53 188.499c-35.334 38.333 -91.667 57.5 -169 57.5c-78.667 0 -135.334 -14 -170.001 -42s-55.334 -71.333 -62 -130l-188 17 c30.667 194.667 171.667 292 423 292c133.333 0 233.5 -31.167 300.5 -93.5s100.5 -152.5 100.5 -270.5v-466c0 -53.333 7 -93.5 21 -120.5s40.667 -40.5 80 -40.5zM491.999 117.001c64 0 120.668 15.333 170.001 46s87.666 71.667 114.999 123s41 104.333 41 159v89 l-190 -4c-78.667 -1.33301 -138.667 -10 -180 -26s-73.5 -40.5 -96.5 -73.5s-34.5 -76.833 -34.5 -131.5s14.833 -98.667 44.5 -132s73.167 -50 130.5 -50zM848 1348c0 -58 -21.833 -105.833 -65.5 -143.5s-102.5 -56.5 -176.5 -56.5c-74.667 0 -133.667 18.833 -177 56.5 s-65 85.5 -65 143.5c0 59.333 22.167 107.333 66.5 144c44.334 36.667 102.834 55 175.5 55c74 0 132.833 -18.5 176.5 -55.5s65.5 -84.833 65.5 -143.5zM727 1348c0 24.667 -10.833 44.666 -32.5 59.999s-51.167 23 -88.5 23c-36.667 0 -66.167 -7.66699 -88.5 -23 s-33.5 -35.333 -33.5 -60c0 -25.333 11.167 -45.666 33.5 -60.999s51.833 -23 88.5 -23c37.333 0 66.833 7.66699 88.5 23c21.667 15.3359 32.5 35.6689 32.5 61z" unicode="å"/>
   <glyph glyph-name="ae" d="M679 503l0.000976562 -17c3.33301 -247.333 65 -371 185 -371c50 0 89.833 15.667 119.5 47s49.834 71 60.501 119l138 -45c-45.333 -170.667 -150 -256 -314 -256c-80.667 0 -143.834 18.333 -189.501 55s-79.834 95.667 -102.501 177 c-34.667 -81.333 -76.834 -140.333 -126.501 -177s-106.834 -55 -171.5 -55c-86 0 -150.5 27.333 -193.5 82s-64.5 134.667 -64.5 240c0 232.667 110 350.667 330 354l167 4v59c0 90 -10.667 153.5 -32 190.5s-56 55.5 -104 55.5c-49.333 0 -85.166 -13.5 -107.499 -40.5 s-35.833 -70.833 -40.5 -131.5l-168 17c12.667 100.667 44.834 174.5 96.501 221.5s124.5 70.5 218.5 70.5c117.333 0 199.666 -46.333 246.999 -139c56.667 92.667 138.667 139 246 139c110.668 0 194.168 -47.167 250.5 -141.5c56.333 -94.333 84.5 -238.833 84.5 -433.5 v-24h-529zM189.001 299c0 -54.667 9.5 -98.667 28.5 -132s47.5 -50 85.5 -50c42.667 0 80 14.833 112 44.5s57 69.667 75 120s27 104.833 27 163.5v89l-122 -4c-52.667 -1.33301 -92.5 -10 -119.5 -26s-48.167 -40.667 -63.5 -74s-23 -77 -23 -131zM859.001 969 c-54.667 0 -97.501 -29 -128.501 -87s-47.5 -138.333 -49.5 -241h361c-6 114 -23.667 197.167 -53 249.5c-29.335 52.333 -72.668 78.5 -129.999 78.5z" unicode="æ"/>
   <glyph glyph-name="ccedilla" d="M130 542c0 180 43.0039 318.333 129.004 415s210.333 145 373 145c121.333 0 221.333 -29.167 300 -87.5s127.334 -136.833 146.001 -235.5l-192 -14c-10.667 60.667 -37.334 108.5 -80.001 143.5s-103.334 52.5 -182.001 52.5c-105.334 0 -182.501 -32.667 -231.501 -98 s-73.5 -171 -73.5 -317c0 -148 24.5 -256.167 73.5 -324.5s125.833 -102.5 230.499 -102.5c72 0 131.667 17.667 179 53s76.666 89.333 87.999 162l190 -12c-8.66895 -64 -32.8359 -122.167 -72.501 -174.5c-39.667 -52.333 -92.167 -93.333 -157.5 -123 s-138.333 -44.5 -219 -44.5c-163.333 0 -287.666 48 -372.999 144s-128 235.333 -128 418zM820.004 -258c0 -124 -91.333 -186 -274 -186c-38 0 -68 1.33301 -90 4v98c33.333 -4 62 -6 86 -6c98 0 147 28.667 147 86c0 26.667 -10.167 47 -30.5 61s-54.5 21 -102.5 21 c-28.667 0 -47.667 -0.666992 -57 -2l65 182h107l-39 -100c62.667 -2 109.667 -16.833 141 -44.5s47 -65.5 47 -113.5z" unicode="ç"/>
   <glyph glyph-name="egrave" d="M322 503c0 -121.333 26.832 -216.333 80.499 -285s127.167 -103 220.5 -103c68.668 0 128.835 14.833 180.5 44.5c51.667 29.667 86.167 70.167 103.5 121.5l158 -45c-29.333 -82.667 -83.166 -146 -161.499 -190s-171.833 -66 -280.5 -66 c-157.333 0 -278.333 49 -363 147s-127 238.333 -127 421c0 178 41.5 314.833 124.5 410.5s202.833 143.5 359.5 143.5s275.334 -47.667 356 -143c80.667 -95.333 121 -239.333 121 -432v-24h-772zM618.999 969c-89.334 0 -160 -29.167 -212 -87.5 s-79.667 -138.5 -83 -240.5h584c-18.667 218.667 -115 328 -289 328zM623 1201l-300 230v29h197l227 -239v-20h-124z" unicode="è"/>
   <glyph glyph-name="eacute" d="M322 503c0 -121.333 26.832 -216.333 80.499 -285s127.167 -103 220.5 -103c68.668 0 128.835 14.833 180.5 44.5c51.667 29.667 86.167 70.167 103.5 121.5l158 -45c-29.333 -82.667 -83.166 -146 -161.499 -190s-171.833 -66 -280.5 -66 c-157.333 0 -278.333 49 -363 147s-127 238.333 -127 421c0 178 41.5 314.833 124.5 410.5s202.833 143.5 359.5 143.5s275.334 -47.667 356 -143c80.667 -95.333 121 -239.333 121 -432v-24h-772zM618.999 969c-89.334 0 -160 -29.167 -212 -87.5 s-79.667 -138.5 -83 -240.5h584c-18.667 218.667 -115 328 -289 328zM513 1201v20l227 239h197v-29l-300 -230h-124z" unicode="é"/>
   <glyph glyph-name="ecircumflex" d="M322 503c0 -121.333 26.832 -216.333 80.499 -285s127.167 -103 220.5 -103c68.668 0 128.835 14.833 180.5 44.5c51.667 29.667 86.167 70.167 103.5 121.5l158 -45c-29.333 -82.667 -83.166 -146 -161.499 -190s-171.833 -66 -280.5 -66 c-157.333 0 -278.333 49 -363 147s-127 238.333 -127 421c0 178 41.5 314.833 124.5 410.5s202.833 143.5 359.5 143.5s275.334 -47.667 356 -143c80.667 -95.333 121 -239.333 121 -432v-24h-772zM618.999 969c-89.334 0 -160 -29.167 -212 -87.5 s-79.667 -138.5 -83 -240.5h584c-18.667 218.667 -115 328 -289 328zM952 1221v-20h-105l-219 138h-2l-232 -138h-104v20l254 239h164z" unicode="ê"/>
   <glyph glyph-name="edieresis" d="M322 503c0 -121.333 26.832 -216.333 80.499 -285s127.167 -103 220.5 -103c68.668 0 128.835 14.833 180.5 44.5c51.667 29.667 86.167 70.167 103.5 121.5l158 -45c-29.333 -82.667 -83.166 -146 -161.499 -190s-171.833 -66 -280.5 -66 c-157.333 0 -278.333 49 -363 147s-127 238.333 -127 421c0 178 41.5 314.833 124.5 410.5s202.833 143.5 359.5 143.5s275.334 -47.667 356 -143c80.667 -95.333 121 -239.333 121 -432v-24h-772zM618.999 969c-89.334 0 -160 -29.167 -212 -87.5 s-79.667 -138.5 -83 -240.5h584c-18.667 218.667 -115 328 -289 328zM737 1219v184h163v-184h-163zM343 1219v184h165v-184h-165z" unicode="ë"/>
   <glyph glyph-name="igrave" d="M745 142h380v-142h-982v142h422v798h-319v142h499v-940zM635 1201l-300 230v29h197l227 -239v-20h-124z" unicode="ì"/>
   <glyph glyph-name="iacute" d="M745 142h380v-142h-982v142h422v798h-319v142h499v-940zM506 1201v20l227 239h197v-29l-300 -230h-124z" unicode="í"/>
   <glyph glyph-name="icircumflex" d="M745 142h380v-142h-982v142h422v798h-319v142h499v-940zM955 1221v-20h-105l-219 138h-2l-232 -138h-104v20l254 239h164z" unicode="î"/>
   <glyph glyph-name="idieresis" d="M745 142h380v-142h-982v142h422v798h-319v142h499v-940zM770 1219v184h163v-184h-163zM376 1219v184h165v-184h-165z" unicode="ï"/>
   <glyph glyph-name="eth" d="M612 979c91.333 0 168.334 -19.667 231.001 -59c-56.667 130 -130 235.667 -220 317l-260 -115l-55 110l218 94c-72.667 58 -153.334 110.667 -242 158h209c53.333 -24 110 -58 170 -102l264 114l55 -108l-211 -92c220.667 -200.667 331 -460.667 331 -780v-6 c0 -174 -41.833 -305.833 -125.5 -395.5s-207.5 -134.5 -371.5 -134.5c-154.667 0 -273.334 43 -356.001 129s-124 210 -124 372c0 162.667 41.333 286.334 124 371c82.667 84.667 203.667 127 363 127zM913.001 481c0 128 -23.5 220.833 -70.5 278.5 s-122.5 86.5 -226.5 86.5c-104.667 0 -181.167 -29 -229.5 -87s-72.5 -150.667 -72.5 -278c0 -126.667 24 -219.667 72 -279s120.333 -89 217 -89c107.333 0 185.833 29.167 235.5 87.5s74.5 151.833 74.5 280.5z" unicode="ð"/>
   <glyph glyph-name="ntilde" d="M868 0v694.999c0 90.667 -17.5 158 -52.5 202s-90.833 66 -167.5 66c-82.667 0 -150.5 -30.167 -203.5 -90.5s-79.5 -142.166 -79.5 -245.499v-627h-180v851c0 126 -2 203 -6 231h170c0.666992 -3.33301 1.33398 -12.333 2.00098 -27s1.5 -31.5 2.5 -50.5 s2.16699 -54.833 3.5 -107.5h3c70 136.667 185.333 205 345.999 205c115.333 0 201.333 -31.167 258 -93.5c56.667 -62.334 85 -158.167 85 -287.5v-721h-181zM780 1201c-28 0 -55.999 6.16699 -83.999 18.5s-55.333 26 -82 41s-52.834 28.667 -78.501 41 s-50.167 18.5 -73.5 18.5c-16.667 0 -30 -3.16699 -40 -9.5s-18.333 -15.5 -25 -27.5s-13.667 -39.333 -21 -82h-111c7.33301 64 18.833 112.333 34.5 145s37.167 58 64.5 76s62 27 104 27c29.333 0 58 -6.16699 86 -18.5s55.333 -26 82 -41 c26.668 -15 52.335 -28.667 77 -41c24.667 -12.333 48 -18.5 70 -18.5c24.667 0 43.667 7.83301 57 23.5s23.333 47.5 30 95.5h112c-10.667 -92 -32.5 -156.333 -65.5 -193s-78.5 -55 -136.5 -55z" unicode="ñ"/>
   <glyph glyph-name="ograve" d="M1097 542c0 -182 -41.833 -321.167 -125.5 -417.5s-204.5 -144.5 -362.5 -144.5c-154.667 0 -273.167 48.667 -355.5 146s-123.5 236 -123.5 416c0 186 42.167 325.833 126.5 419.5s203.833 140.5 358.5 140.5c162.667 0 283.667 -46.333 363 -139s119 -233 119 -421z M908 542c0 143.333 -22.832 250.334 -68.499 321.001s-119.5 106 -221.5 106c-103.334 0 -179.001 -36 -227.001 -108s-72 -178.333 -72 -319c0 -140 24 -246.5 72 -319.5s120 -109.5 216 -109.5c106 0 182.667 35.667 230 107s71 178.666 71 321.999zM632.001 1201 l-300 230v29h197l227 -239v-20h-124z" unicode="ò"/>
   <glyph glyph-name="oacute" d="M1097 542c0 -182 -41.833 -321.167 -125.5 -417.5s-204.5 -144.5 -362.5 -144.5c-154.667 0 -273.167 48.667 -355.5 146s-123.5 236 -123.5 416c0 186 42.167 325.833 126.5 419.5s203.833 140.5 358.5 140.5c162.667 0 283.667 -46.333 363 -139s119 -233 119 -421z M908 542c0 143.333 -22.832 250.334 -68.499 321.001s-119.5 106 -221.5 106c-103.334 0 -179.001 -36 -227.001 -108s-72 -178.333 -72 -319c0 -140 24 -246.5 72 -319.5s120 -109.5 216 -109.5c106 0 182.667 35.667 230 107s71 178.666 71 321.999zM503.001 1201v20 l227 239h197v-29l-300 -230h-124z" unicode="ó"/>
   <glyph glyph-name="ocircumflex" d="M1097 542c0 -182 -41.833 -321.167 -125.5 -417.5s-204.5 -144.5 -362.5 -144.5c-154.667 0 -273.167 48.667 -355.5 146s-123.5 236 -123.5 416c0 186 42.167 325.833 126.5 419.5s203.833 140.5 358.5 140.5c162.667 0 283.667 -46.333 363 -139s119 -233 119 -421z M908 542c0 143.333 -22.832 250.334 -68.499 321.001s-119.5 106 -221.5 106c-103.334 0 -179.001 -36 -227.001 -108s-72 -178.333 -72 -319c0 -140 24 -246.5 72 -319.5s120 -109.5 216 -109.5c106 0 182.667 35.667 230 107s71 178.666 71 321.999zM945.001 1221v-20 h-105l-219 138h-2l-232 -138h-104v20l254 239h164z" unicode="ô"/>
   <glyph glyph-name="otilde" d="M1097 542c0 -182 -41.833 -321.167 -125.5 -417.5s-204.5 -144.5 -362.5 -144.5c-154.667 0 -273.167 48.667 -355.5 146s-123.5 236 -123.5 416c0 186 42.167 325.833 126.5 419.5s203.833 140.5 358.5 140.5c162.667 0 283.667 -46.333 363 -139s119 -233 119 -421z M908 542c0 143.333 -22.832 250.334 -68.499 321.001s-119.5 106 -221.5 106c-103.334 0 -179.001 -36 -227.001 -108s-72 -178.333 -72 -319c0 -140 24 -246.5 72 -319.5s120 -109.5 216 -109.5c106 0 182.667 35.667 230 107s71 178.666 71 321.999zM770.001 1201 c-28 0 -55.999 6.16699 -83.999 18.5s-55.333 26 -82 41s-52.834 28.667 -78.501 41s-50.167 18.5 -73.5 18.5c-16.667 0 -30 -3.16699 -40 -9.5s-18.333 -15.5 -25 -27.5s-13.667 -39.333 -21 -82h-111c7.33301 64 18.833 112.333 34.5 145s37.167 58 64.5 76s62 27 104 27 c29.333 0 58 -6.16699 86 -18.5s55.333 -26 82 -41c26.6689 -15 52.3359 -28.667 77 -41c24.667 -12.333 48 -18.5 70 -18.5c24.667 0 43.667 7.83301 57 23.5s23.333 47.5 30 95.5h112c-10.667 -92 -32.5 -156.333 -65.5 -193s-78.5 -55 -136.5 -55z" unicode="õ"/>
   <glyph glyph-name="odieresis" d="M1097 542c0 -182 -41.833 -321.167 -125.5 -417.5s-204.5 -144.5 -362.5 -144.5c-154.667 0 -273.167 48.667 -355.5 146s-123.5 236 -123.5 416c0 186 42.167 325.833 126.5 419.5s203.833 140.5 358.5 140.5c162.667 0 283.667 -46.333 363 -139s119 -233 119 -421z M908 542c0 143.333 -22.832 250.334 -68.499 321.001s-119.5 106 -221.5 106c-103.334 0 -179.001 -36 -227.001 -108s-72 -178.333 -72 -319c0 -140 24 -246.5 72 -319.5s120 -109.5 216 -109.5c106 0 182.667 35.667 230 107s71 178.666 71 321.999zM729.001 1219v184h163 v-184h-163zM335.001 1219v184h165v-184h-165z" unicode="ö"/>
   <glyph glyph-name="divide" d="M529 958v183h168v-183h-168zM116 608v146h995v-146h-995zM529 223v183h168v-183h-168z" unicode="÷"/>
   <glyph glyph-name="oslash" d="M1117 542c0 -181.333 -43.333 -320.333 -130 -417s-212.667 -145 -378 -145c-136 0 -246.333 35.667 -331 107l-77 -87l-76 68l84 95c-66 94.667 -99 221 -99 379c0 181.333 42.833 320 128.5 416s211.167 144 376.5 144c142 0 253.667 -33.333 335 -100l72 82l78 -68 l-80 -90c64.667 -91.333 97 -219.333 97 -384zM928 542c0 98 -11 178.667 -33 242l-509 -576c51.333 -63.333 125 -95 221 -95c112 0 193.5 35.5 244.5 106.5s76.5 178.5 76.5 322.5zM299 542c0 -97.333 11.333 -176.667 34 -238l509 576c-50 59.333 -124.667 89 -224 89 c-109.333 0 -189.833 -35.833 -241.5 -107.5s-77.5 -178.167 -77.5 -319.5z" unicode="ø"/>
   <glyph glyph-name="ugrave" d="M365 1082l0.000976562 -686.001c0 -104 16.333 -176.167 49 -216.5s91 -60.5 175 -60.5c86 0 154 29.333 204 88s75 141.334 75 248.001v627h181v-851c0 -126 2 -203 6 -231h-170c-0.666992 3.33301 -1.33398 12.333 -2.00098 27s-1.5 31.5 -2.5 50.5 s-2.16699 54.833 -3.5 107.5h-3c-41.335 -74.667 -89.168 -127.5 -143.5 -158.5c-54.333 -31 -121.833 -46.5 -202.5 -46.5c-118.667 0 -205.5 29.5 -260.5 88.5s-82.5 156.5 -82.5 292.5v721h180zM608.001 1201l-300 230v29h197l227 -239v-20h-124z" unicode="ù"/>
   <glyph glyph-name="uacute" d="M365 1082l0.000976562 -686.001c0 -104 16.333 -176.167 49 -216.5s91 -60.5 175 -60.5c86 0 154 29.333 204 88s75 141.334 75 248.001v627h181v-851c0 -126 2 -203 6 -231h-170c-0.666992 3.33301 -1.33398 12.333 -2.00098 27s-1.5 31.5 -2.5 50.5 s-2.16699 54.833 -3.5 107.5h-3c-41.335 -74.667 -89.168 -127.5 -143.5 -158.5c-54.333 -31 -121.833 -46.5 -202.5 -46.5c-118.667 0 -205.5 29.5 -260.5 88.5s-82.5 156.5 -82.5 292.5v721h180zM492.001 1201v20l227 239h197v-29l-300 -230h-124z" unicode="ú"/>
   <glyph glyph-name="ucircumflex" d="M365 1082l0.000976562 -686.001c0 -104 16.333 -176.167 49 -216.5s91 -60.5 175 -60.5c86 0 154 29.333 204 88s75 141.334 75 248.001v627h181v-851c0 -126 2 -203 6 -231h-170c-0.666992 3.33301 -1.33398 12.333 -2.00098 27s-1.5 31.5 -2.5 50.5 s-2.16699 54.833 -3.5 107.5h-3c-41.335 -74.667 -89.168 -127.5 -143.5 -158.5c-54.333 -31 -121.833 -46.5 -202.5 -46.5c-118.667 0 -205.5 29.5 -260.5 88.5s-82.5 156.5 -82.5 292.5v721h180zM945.001 1221v-20h-105l-219 138h-2l-232 -138h-104v20l254 239h164z" unicode="û"/>
   <glyph glyph-name="udieresis" d="M365 1082l0.000976562 -686.001c0 -104 16.333 -176.167 49 -216.5s91 -60.5 175 -60.5c86 0 154 29.333 204 88s75 141.334 75 248.001v627h181v-851c0 -126 2 -203 6 -231h-170c-0.666992 3.33301 -1.33398 12.333 -2.00098 27s-1.5 31.5 -2.5 50.5 s-2.16699 54.833 -3.5 107.5h-3c-41.335 -74.667 -89.168 -127.5 -143.5 -158.5c-54.333 -31 -121.833 -46.5 -202.5 -46.5c-118.667 0 -205.5 29.5 -260.5 88.5s-82.5 156.5 -82.5 292.5v721h180zM729.001 1219v184h163v-184h-163zM335.001 1219v184h165v-184h-165z" unicode="ü"/>
   <glyph glyph-name="yacute" d="M292 -425c-49.333 0 -90.668 3.66699 -124.001 11v135c25.333 -4 53.333 -6 84 -6c52.667 0 102.167 19.667 148.5 59s85.5 102 117.5 188l18 49l-470 1071h192l264 -642c60.668 -149.333 93.335 -234 98.001 -254l41 110l310 786h190l-456 -1082 c-59.333 -156.667 -120.833 -266.667 -184.5 -330s-139.834 -95 -228.5 -95zM508.998 1201v20l227 239h197v-29l-300 -230h-124z" unicode="ý"/>
   <glyph glyph-name="thorn" d="M904 546c0 150.667 -20.332 258.167 -60.999 322.5s-104.667 96.5 -192 96.5c-100.667 0 -173.334 -36.5 -218.001 -109.5s-67 -183.5 -67 -331.5c0 -142 22.333 -246 67 -312s116.667 -99 216 -99c88.667 0 153.334 33.667 194 101c40.667 67.333 61 178 61 332z M368.001 904c33.333 70 75.833 120.831 127.5 152.498s119.167 47.5 202.5 47.5c132 0 230.333 -45.5 295 -136.5s97 -231.5 97 -421.5c0 -377.333 -130.667 -566 -392 -566c-164 0 -274.333 61.333 -331 184h-5c2.66699 -5.33301 4 -60.666 4 -165.999v-423h-181v1909h180 v-423c0 -43.334 -1.33301 -95.667 -4 -156.999h7z" unicode="þ"/>
   <glyph glyph-name="ydieresis" d="M292 -425c-49.333 0 -90.668 3.66699 -124.001 11v135c25.333 -4 53.333 -6 84 -6c52.667 0 102.167 19.667 148.5 59s85.5 102 117.5 188l18 49l-470 1071h192l264 -642c60.668 -149.333 93.335 -234 98.001 -254l41 110l310 786h190l-456 -1082 c-59.333 -156.667 -120.833 -266.667 -184.5 -330s-139.834 -95 -228.5 -95zM733.998 1219v184h163v-184h-163zM339.998 1219v184h165v-184h-165z" unicode="ÿ"/>
   <glyph glyph-name="Amacron" d="M1034 0l-138 382h-563l-137 -382h-196l510 1349h217l501 -1349h-194zM616 1205l-12 -39l-69 -212l-151 -423h463l-173 500zM890 1503h-551v127h551v-127z" unicode="Ā"/>
   <glyph glyph-name="amacron" d="M1101 111c17.333 0 36.999 2.33398 58.999 7.00098v-112c-45.333 -10.667 -91.666 -16 -138.999 -16c-66.667 0 -115.167 17.5 -145.5 52.5s-47.5 89.833 -51.5 164.5h-6c-43.333 -80.667 -94.5 -138.667 -153.5 -174s-131.833 -53 -218.5 -53 c-105.333 0 -184.666 28.667 -237.999 86s-80 136 -80 236c0 232.667 151.333 350.667 454 354l236 4v59c0 87.333 -17.667 150.166 -53 188.499c-35.334 38.333 -91.667 57.5 -169 57.5c-78.667 0 -135.334 -14 -170.001 -42s-55.334 -71.333 -62 -130l-188 17 c30.667 194.667 171.667 292 423 292c133.333 0 233.5 -31.167 300.5 -93.5s100.5 -152.5 100.5 -270.5v-466c0 -53.333 7 -93.5 21 -120.5s40.667 -40.5 80 -40.5zM491.999 117.001c64 0 120.668 15.333 170.001 46s87.666 71.667 114.999 123s41 104.333 41 159v89 l-190 -4c-78.667 -1.33301 -138.667 -10 -180 -26s-73.5 -40.5 -96.5 -73.5s-34.5 -76.833 -34.5 -131.5s14.833 -98.667 44.5 -132s73.167 -50 130.5 -50zM851 1236h-551v127h551v-127z" unicode="ā"/>
   <glyph glyph-name="Abreve" d="M1034 0l-138 382h-563l-137 -382h-196l510 1349h217l501 -1349h-194zM616 1205l-12 -39l-69 -212l-151 -423h463l-173 500zM613 1446c-82.667 0 -151.833 23.667 -207.5 71s-90.5 110 -104.5 188h127c11.333 -42 31.333 -74.667 60 -98 c28.668 -23.333 70.335 -35 125.001 -35c56.667 0 99.167 11.667 127.5 35s48.166 56 59.499 98h127c-16 -79.333 -51.5 -142.333 -106.5 -189s-124.167 -70 -207.5 -70z" unicode="Ă"/>
   <glyph glyph-name="abreve" d="M1101 111c17.333 0 36.999 2.33398 58.999 7.00098v-112c-45.333 -10.667 -91.666 -16 -138.999 -16c-66.667 0 -115.167 17.5 -145.5 52.5s-47.5 89.833 -51.5 164.5h-6c-43.333 -80.667 -94.5 -138.667 -153.5 -174s-131.833 -53 -218.5 -53 c-105.333 0 -184.666 28.667 -237.999 86s-80 136 -80 236c0 232.667 151.333 350.667 454 354l236 4v59c0 87.333 -17.667 150.166 -53 188.499c-35.334 38.333 -91.667 57.5 -169 57.5c-78.667 0 -135.334 -14 -170.001 -42s-55.334 -71.333 -62 -130l-188 17 c30.667 194.667 171.667 292 423 292c133.333 0 233.5 -31.167 300.5 -93.5s100.5 -152.5 100.5 -270.5v-466c0 -53.333 7 -93.5 21 -120.5s40.667 -40.5 80 -40.5zM491.999 117.001c64 0 120.668 15.333 170.001 46s87.666 71.667 114.999 123s41 104.333 41 159v89 l-190 -4c-78.667 -1.33301 -138.667 -10 -180 -26s-73.5 -40.5 -96.5 -73.5s-34.5 -76.833 -34.5 -131.5s14.833 -98.667 44.5 -132s73.167 -50 130.5 -50zM594 1201c-82.667 0 -151.834 23.667 -207.5 71c-55.667 47.333 -90.5 110 -104.5 188h127 c11.333 -42 31.333 -74.667 60 -98s70.334 -35 125.001 -35c56.667 0 99.167 11.667 127.5 35s48.166 56 59.499 98h127c-16 -79.333 -51.5 -142.333 -106.5 -189s-124.167 -70 -207.5 -70z" unicode="ă"/>
   <glyph glyph-name="Aogonek" d="M1034 0l-138 382h-563l-137 -382h-196l510 1349h217l501 -1349h-194zM616 1205l-12 -39l-69 -212l-151 -423h463l-173 500zM1247 -389c-42 -18 -88.333 -27 -139 -27c-70 0 -122.667 17 -158 51s-53 79.333 -53 136c0 45.333 13.833 89.833 41.5 133.5 s65.5 79.167 113.5 106.5h133c-42.6709 -24 -77.8379 -56.833 -105.5 -98.5c-27.667 -41.667 -41.5 -84.5 -41.5 -128.5c0 -28 8.16699 -50 24.5 -66s39.5 -24 69.5 -24c36 0 74.333 8 115 24v-107z" unicode="Ą"/>
   <glyph glyph-name="aogonek" d="M1101 111c17.333 0 36.999 2.33398 58.999 7.00098v-112c-45.333 -10.667 -91.666 -16 -138.999 -16c-66.667 0 -115.167 17.5 -145.5 52.5s-47.5 89.833 -51.5 164.5h-6c-43.333 -80.667 -94.5 -138.667 -153.5 -174s-131.833 -53 -218.5 -53 c-105.333 0 -184.666 28.667 -237.999 86s-80 136 -80 236c0 232.667 151.333 350.667 454 354l236 4v59c0 87.333 -17.667 150.166 -53 188.499c-35.334 38.333 -91.667 57.5 -169 57.5c-78.667 0 -135.334 -14 -170.001 -42s-55.334 -71.333 -62 -130l-188 17 c30.667 194.667 171.667 292 423 292c133.333 0 233.5 -31.167 300.5 -93.5s100.5 -152.5 100.5 -270.5v-466c0 -53.333 7 -93.5 21 -120.5s40.667 -40.5 80 -40.5zM491.999 117.001c64 0 120.668 15.333 170.001 46s87.666 71.667 114.999 123s41 104.333 41 159v89 l-190 -4c-78.667 -1.33301 -138.667 -10 -180 -26s-73.5 -40.5 -96.5 -73.5s-34.5 -76.833 -34.5 -131.5s14.833 -98.667 44.5 -132s73.167 -50 130.5 -50zM1160 -399.999c-42 -18 -88.332 -27 -138.999 -27c-70 0 -122.667 17 -158 51s-53 79.333 -53 136 c0 45.333 13.833 89.833 41.5 133.5s65.5 79.167 113.5 106.5h133c-42.667 -24 -77.834 -56.833 -105.501 -98.5s-41.5 -84.5 -41.5 -128.5c0 -28 8.16699 -50 24.5 -66s39.5 -24 69.5 -24c36 0 74.333 8 115 24v-107z" unicode="ą"/>
   <glyph glyph-name="Cacute" d="M314 681c0 -182 28.499 -318.501 85.499 -409.501s144.167 -136.5 261.5 -136.5c67.333 0 128.333 22.833 183 68.5s101 116.834 139 213.501l159 -65c-99.333 -248 -260.333 -372 -483 -372c-175.333 0 -310.166 60.333 -404.499 181s-141.5 294 -141.5 520 c0 459.333 178.667 689 536 689c226 0 381.333 -111.667 466 -335l-168 -65c-24.667 75.333 -63.167 134.833 -115.5 178.5s-112.833 65.5 -181.5 65.5c-114 0 -198.5 -43 -253.5 -129s-82.5 -220.667 -82.5 -404zM533.999 1445v20l227 239h197v-29l-300 -230h-124z" unicode="Ć"/>
   <glyph glyph-name="cacute" d="M130 542c0 180 43.0039 318.333 129.004 415s210.333 145 373 145c121.333 0 221.333 -29.167 300 -87.5s127.334 -136.833 146.001 -235.5l-192 -14c-10.667 60.667 -37.334 108.5 -80.001 143.5s-103.334 52.5 -182.001 52.5c-105.334 0 -182.501 -32.667 -231.501 -98 s-73.5 -171 -73.5 -317c0 -148 24.5 -256.167 73.5 -324.5s125.833 -102.5 230.499 -102.5c72 0 131.667 17.667 179 53s76.666 89.333 87.999 162l190 -12c-8.66895 -64 -32.8359 -122.167 -72.501 -174.5c-39.667 -52.333 -92.167 -93.333 -157.5 -123 s-138.333 -44.5 -219 -44.5c-163.333 0 -287.666 48 -372.999 144s-128 235.333 -128 418zM504.004 1201v20l227 239h197v-29l-300 -230h-124z" unicode="ć"/>
   <glyph glyph-name="Ccircumflex" d="M314 681c0 -182 28.499 -318.501 85.499 -409.501s144.167 -136.5 261.5 -136.5c67.333 0 128.333 22.833 183 68.5s101 116.834 139 213.501l159 -65c-99.333 -248 -260.333 -372 -483 -372c-175.333 0 -310.166 60.333 -404.499 181s-141.5 294 -141.5 520 c0 459.333 178.667 689 536 689c226 0 381.333 -111.667 466 -335l-168 -65c-24.667 75.333 -63.167 134.833 -115.5 178.5s-112.833 65.5 -181.5 65.5c-114 0 -198.5 -43 -253.5 -129s-82.5 -220.667 -82.5 -404zM964.999 1466v-20h-105l-219 138h-2l-232 -138h-104v20 l254 239h164z" unicode="Ĉ"/>
   <glyph glyph-name="ccircumflex" d="M130 542c0 180 43.0039 318.333 129.004 415s210.333 145 373 145c121.333 0 221.333 -29.167 300 -87.5s127.334 -136.833 146.001 -235.5l-192 -14c-10.667 60.667 -37.334 108.5 -80.001 143.5s-103.334 52.5 -182.001 52.5c-105.334 0 -182.501 -32.667 -231.501 -98 s-73.5 -171 -73.5 -317c0 -148 24.5 -256.167 73.5 -324.5s125.833 -102.5 230.499 -102.5c72 0 131.667 17.667 179 53s76.666 89.333 87.999 162l190 -12c-8.66895 -64 -32.8359 -122.167 -72.501 -174.5c-39.667 -52.333 -92.167 -93.333 -157.5 -123 s-138.333 -44.5 -219 -44.5c-163.333 0 -287.666 48 -372.999 144s-128 235.333 -128 418zM945.004 1221v-20h-105l-219 138h-2l-232 -138h-104v20l254 239h164z" unicode="ĉ"/>
   <glyph glyph-name="Cdotaccent" d="M314 681c0 -182 28.499 -318.501 85.499 -409.501s144.167 -136.5 261.5 -136.5c67.333 0 128.333 22.833 183 68.5s101 116.834 139 213.501l159 -65c-99.333 -248 -260.333 -372 -483 -372c-175.333 0 -310.166 60.333 -404.499 181s-141.5 294 -141.5 520 c0 459.333 178.667 689 536 689c226 0 381.333 -111.667 466 -335l-168 -65c-24.667 75.333 -63.167 134.833 -115.5 178.5s-112.833 65.5 -181.5 65.5c-114 0 -198.5 -43 -253.5 -129s-82.5 -220.667 -82.5 -404zM544.999 1446v192h200v-192h-200z" unicode="Ċ"/>
   <glyph glyph-name="cdotaccent" d="M130 542c0 180 43.0039 318.333 129.004 415s210.333 145 373 145c121.333 0 221.333 -29.167 300 -87.5s127.334 -136.833 146.001 -235.5l-192 -14c-10.667 60.667 -37.334 108.5 -80.001 143.5s-103.334 52.5 -182.001 52.5c-105.334 0 -182.501 -32.667 -231.501 -98 s-73.5 -171 -73.5 -317c0 -148 24.5 -256.167 73.5 -324.5s125.833 -102.5 230.499 -102.5c72 0 131.667 17.667 179 53s76.666 89.333 87.999 162l190 -12c-8.66895 -64 -32.8359 -122.167 -72.501 -174.5c-39.667 -52.333 -92.167 -93.333 -157.5 -123 s-138.333 -44.5 -219 -44.5c-163.333 0 -287.666 48 -372.999 144s-128 235.333 -128 418zM535.004 1292v192h200v-192h-200z" unicode="ċ"/>
   <glyph glyph-name="Ccaron" d="M314 681c0 -182 28.499 -318.501 85.499 -409.501s144.167 -136.5 261.5 -136.5c67.333 0 128.333 22.833 183 68.5s101 116.834 139 213.501l159 -65c-99.333 -248 -260.333 -372 -483 -372c-175.333 0 -310.166 60.333 -404.499 181s-141.5 294 -141.5 520 c0 459.333 178.667 689 536 689c226 0 381.333 -111.667 466 -335l-168 -65c-24.667 75.333 -63.167 134.833 -115.5 178.5s-112.833 65.5 -181.5 65.5c-114 0 -198.5 -43 -253.5 -129s-82.5 -220.667 -82.5 -404zM717.999 1446h-164l-254 239v20h104l232 -138h2l219 138 h105v-20z" unicode="Č"/>
   <glyph glyph-name="ccaron" d="M130 542c0 180 43.0039 318.333 129.004 415s210.333 145 373 145c121.333 0 221.333 -29.167 300 -87.5s127.334 -136.833 146.001 -235.5l-192 -14c-10.667 60.667 -37.334 108.5 -80.001 143.5s-103.334 52.5 -182.001 52.5c-105.334 0 -182.501 -32.667 -231.501 -98 s-73.5 -171 -73.5 -317c0 -148 24.5 -256.167 73.5 -324.5s125.833 -102.5 230.499 -102.5c72 0 131.667 17.667 179 53s76.666 89.333 87.999 162l190 -12c-8.66895 -64 -32.8359 -122.167 -72.501 -174.5c-39.667 -52.333 -92.167 -93.333 -157.5 -123 s-138.333 -44.5 -219 -44.5c-163.333 0 -287.666 48 -372.999 144s-128 235.333 -128 418zM697.004 1201h-164l-254 239v20h104l232 -138h2l219 138h105v-20z" unicode="č"/>
   <glyph glyph-name="Dcaron" d="M1125 688c0 -220.667 -51.167 -390.5 -153.5 -509.5s-248.833 -178.5 -439.5 -178.5h-370v1349h311c219.333 0 382.833 -54.833 490.5 -164.5s161.5 -275.167 161.5 -496.5zM933 688c0 176 -36.667 304.167 -110 384.5c-73.334 80.333 -189.667 120.5 -349 120.5h-121 v-1037h162c141.333 0 246.333 44.333 315 133s103 221.667 103 399zM672 1446h-164l-254 239v20h104l232 -138h2l219 138h105v-20z" unicode="Ď"/>
   <glyph glyph-name="dcaron" d="M663 174c-32.667 -70 -71.167 -120.834 -115.5 -152.501s-98.833 -47.5 -163.5 -47.5c-113.333 0 -200.5 48.5 -261.5 145.5s-91.5 234.5 -91.5 412.5c0 179.333 31.333 318.5 94 417.5s149 148.5 259 148.5c65.333 0 120 -14.333 164 -43 c44 -28.6689 82.333 -75.6689 115 -141h2l-2 151v419h180v-1261c0 -112.667 2 -187 6 -223h-172c-2.66699 10 -5 34.333 -7 73s-3 72.334 -3 101.001h-4zM217 537.999c0 -144.667 15.5 -251.667 46.5 -321s81.5 -104 151.5 -104c74 0 133.833 40 179.5 120 s68.5 187 68.5 321c0 126 -22.167 226 -66.5 300s-104.5 111 -180.5 111c-68.667 0 -119 -34.667 -151 -104s-48 -177 -48 -323zM955 1159v33l79 292h197v-37l-171 -288h-105z" unicode="ď"/>
   <glyph glyph-name="Dcroat" d="M1125 688c0 -220.667 -51.167 -390.5 -153.5 -509.5s-248.833 -178.5 -439.5 -178.5h-370v597h-135v149h135v603h311c219.333 0 382.833 -54.833 490.5 -164.5s161.5 -275.167 161.5 -496.5zM642 597h-289v-441h162c141.333 0 246.333 44.333 315 133 s103 221.667 103 399c0 176 -36.667 304.167 -110 384.5c-73.334 80.333 -189.667 120.5 -349 120.5h-121v-447h289v-149z" unicode="Đ"/>
   <glyph glyph-name="dcroat" d="M1043 1196v-973c0 -112.667 2 -187 6 -223h-172c-2.66699 10 -5 34.333 -7 73s-3 72.334 -3 101.001h-5c-32.667 -70 -76 -120.833 -130 -152.5s-121.333 -47.5 -202 -47.5c-134.667 0 -233.667 45.167 -297 135.5s-95 226.166 -95 407.499c0 370 130.667 555 392 555 c80.667 0 148.167 -14.333 202.5 -43s97.833 -75.667 130.5 -141h2l-2 151v157h-300v131h300v157h180v-157h131v-131h-131zM324 523c0 -143.333 19.666 -247.5 58.999 -312.5s104 -97.5 194 -97.5c98 0 170.167 34.333 216.5 103s69.5 176 69.5 322 c0 138 -22.167 239.333 -66.5 304s-116.833 97 -217.5 97c-89.333 0 -154.166 -33.833 -194.499 -101.5s-60.5 -172.5 -60.5 -314.5z" unicode="đ"/>
   <glyph glyph-name="Emacron" d="M162 0v1349h919v-156h-728v-422h668v-154h-668v-461h769v-156h-960zM906 1503h-551v127h551v-127z" unicode="Ē"/>
   <glyph glyph-name="emacron" d="M322 503c0 -121.333 26.832 -216.333 80.499 -285s127.167 -103 220.5 -103c68.668 0 128.835 14.833 180.5 44.5c51.667 29.667 86.167 70.167 103.5 121.5l158 -45c-29.333 -82.667 -83.166 -146 -161.499 -190s-171.833 -66 -280.5 -66 c-157.333 0 -278.333 49 -363 147s-127 238.333 -127 421c0 178 41.5 314.833 124.5 410.5s202.833 143.5 359.5 143.5s275.334 -47.667 356 -143c80.667 -95.333 121 -239.333 121 -432v-24h-772zM618.999 969c-89.334 0 -160 -29.167 -212 -87.5 s-79.667 -138.5 -83 -240.5h584c-18.667 218.667 -115 328 -289 328zM890 1236h-551v127h551v-127z" unicode="ē"/>
   <glyph glyph-name="Ebreve" d="M162 0v1349h919v-156h-728v-422h668v-154h-668v-461h769v-156h-960zM613 1446c-82.667 0 -151.833 23.667 -207.5 71s-90.5 110 -104.5 188h127c11.333 -42 31.333 -74.667 60 -98c28.668 -23.333 70.335 -35 125.001 -35c56.667 0 99.167 11.667 127.5 35 s48.166 56 59.499 98h127c-16 -79.333 -51.5 -142.333 -106.5 -189s-124.167 -70 -207.5 -70z" unicode="Ĕ"/>
   <glyph glyph-name="ebreve" d="M322 503c0 -121.333 26.832 -216.333 80.499 -285s127.167 -103 220.5 -103c68.668 0 128.835 14.833 180.5 44.5c51.667 29.667 86.167 70.167 103.5 121.5l158 -45c-29.333 -82.667 -83.166 -146 -161.499 -190s-171.833 -66 -280.5 -66 c-157.333 0 -278.333 49 -363 147s-127 238.333 -127 421c0 178 41.5 314.833 124.5 410.5s202.833 143.5 359.5 143.5s275.334 -47.667 356 -143c80.667 -95.333 121 -239.333 121 -432v-24h-772zM618.999 969c-89.334 0 -160 -29.167 -212 -87.5 s-79.667 -138.5 -83 -240.5h584c-18.667 218.667 -115 328 -289 328zM617 1201c-82.667 0 -151.832 23.667 -207.499 71s-90.5 110 -104.5 188h127c11.333 -42 31.333 -74.667 60 -98s70.334 -35 125 -35c56.667 0 99.167 11.667 127.5 35s48.166 56 59.499 98h127 c-16 -79.333 -51.5 -142.333 -106.5 -189s-124.167 -70 -207.5 -70z" unicode="ĕ"/>
   <glyph glyph-name="Edotaccent" d="M162 0v1349h919v-156h-728v-422h668v-154h-668v-461h769v-156h-960zM515 1446v192h200v-192h-200z" unicode="Ė"/>
   <glyph glyph-name="edotaccent" d="M322 503c0 -121.333 26.832 -216.333 80.499 -285s127.167 -103 220.5 -103c68.668 0 128.835 14.833 180.5 44.5c51.667 29.667 86.167 70.167 103.5 121.5l158 -45c-29.333 -82.667 -83.166 -146 -161.499 -190s-171.833 -66 -280.5 -66 c-157.333 0 -278.333 49 -363 147s-127 238.333 -127 421c0 178 41.5 314.833 124.5 410.5s202.833 143.5 359.5 143.5s275.334 -47.667 356 -143c80.667 -95.333 121 -239.333 121 -432v-24h-772zM618.999 969c-89.334 0 -160 -29.167 -212 -87.5 s-79.667 -138.5 -83 -240.5h584c-18.667 218.667 -115 328 -289 328zM517 1298v192h200v-192h-200z" unicode="ė"/>
   <glyph glyph-name="Eogonek" d="M162 0v1349h919v-156h-728v-422h668v-154h-668v-461h769v-156h-960zM1122 -400c-42 -18 -88.332 -27 -138.999 -27c-70 0 -122.667 17 -158 51s-53 79.333 -53 136c0 45.333 13.833 89.833 41.5 133.5s65.5 79.167 113.5 106.5h133 c-42.667 -24 -77.834 -56.833 -105.501 -98.5s-41.5 -84.5 -41.5 -128.5c0 -28 8.16699 -50 24.5 -66s39.5 -24 69.5 -24c36 0 74.333 8 115 24v-107z" unicode="Ę"/>
   <glyph glyph-name="eogonek" d="M322 503c0 -121.333 26.832 -216.333 80.499 -285s127.167 -103 220.5 -103c68.668 0 128.835 14.833 180.5 44.5c51.667 29.667 86.167 70.167 103.5 121.5l158 -45c-29.333 -82.667 -83.166 -146 -161.499 -190s-171.833 -66 -280.5 -66 c-157.333 0 -278.333 49 -363 147s-127 238.333 -127 421c0 178 41.5 314.833 124.5 410.5s202.833 143.5 359.5 143.5s275.334 -47.667 356 -143c80.667 -95.333 121 -239.333 121 -432v-24h-772zM618.999 969c-89.334 0 -160 -29.167 -212 -87.5 s-79.667 -138.5 -83 -240.5h584c-18.667 218.667 -115 328 -289 328zM853 -400c-42 -18 -88.332 -27 -138.999 -27c-70 0 -122.667 17 -158 51c-35.334 34 -53.001 79.333 -53 136c0.00195312 45.333 13.835 89.833 41.5 133.5c27.667 43.667 65.5 79.167 113.5 106.5h133 c-42.667 -24 -77.834 -56.833 -105.501 -98.5s-41.5 -84.5 -41.5 -128.5c0 -28 8.16699 -50 24.5 -66s39.5 -24 69.5 -24c36 0 74.333 8 115 24v-107z" unicode="ę"/>
   <glyph glyph-name="Ecaron" d="M162 0v1349h919v-156h-728v-422h668v-154h-668v-461h769v-156h-960zM701 1446h-164l-254 239v20h104l232 -138h2l219 138h105v-20z" unicode="Ě"/>
   <glyph glyph-name="ecaron" d="M322 503c0 -121.333 26.832 -216.333 80.499 -285s127.167 -103 220.5 -103c68.668 0 128.835 14.833 180.5 44.5c51.667 29.667 86.167 70.167 103.5 121.5l158 -45c-29.333 -82.667 -83.166 -146 -161.499 -190s-171.833 -66 -280.5 -66 c-157.333 0 -278.333 49 -363 147s-127 238.333 -127 421c0 178 41.5 314.833 124.5 410.5s202.833 143.5 359.5 143.5s275.334 -47.667 356 -143c80.667 -95.333 121 -239.333 121 -432v-24h-772zM618.999 969c-89.334 0 -160 -29.167 -212 -87.5 s-79.667 -138.5 -83 -240.5h584c-18.667 218.667 -115 328 -289 328zM694 1201h-164l-254 239v20h104l232 -138h2l219 138h105v-20z" unicode="ě"/>
   <glyph glyph-name="Gcircumflex" d="M1101 133c-152.667 -102 -306.667 -153 -462 -153c-166.667 0 -296 61.833 -388 185.5s-138 295.5 -138 515.5c0 231.333 44 404 132 518s220.333 171 397 171c230.667 0 384.334 -110.333 461.001 -331l-171 -56c-53.333 154 -149.333 231 -288 231 c-112.667 0 -195.834 -42 -249.501 -126s-80.5 -219.667 -80.5 -407c0 -364 113.667 -546 341 -546c45.333 0 92.333 7 141 21s88.334 31.667 119 53v336h-293v160h479v-572zM945 1466v-20h-105l-219 138h-2l-232 -138h-104v20l254 239h164z" unicode="Ĝ"/>
   <glyph glyph-name="gcircumflex" d="M615 -424c-112 0 -202 23 -270 69s-111.333 112 -130 198l184 25c11.333 -50 35.833 -88.5 73.5 -115.5s87.167 -40.5 148.5 -40.5c165.333 0 248 105 248 315v194h-2c-32.667 -68.667 -78 -120.667 -136 -156s-127 -53 -207 -53c-132 0 -228.5 43.167 -289.5 129.5 s-91.5 222.166 -91.5 407.499c0 188.667 32.667 327.5 98 416.5s166 133.5 302 133.5c75.333 0 140.833 -17.5 196.5 -52.5s98.5 -84.833 128.5 -149.5h3c0 20 1.33301 53.833 4 101.5c2.69336 47.667 5.36035 75.5 8 83.5h171c-4 -36 -6 -110.667 -6 -224v-826 c0 -151.333 -35.333 -265.166 -106 -341.499s-179.667 -114.5 -327 -114.5zM869 551c0 128.667 -24.999 229.835 -74.999 303.501c-50 73.667 -118.667 110.5 -206 110.5c-91.333 0 -157.333 -31.833 -198 -95.5s-61 -169.834 -61 -318.501 c0 -100.667 8.5 -180.167 25.5 -238.5s43.5 -100.833 79.5 -127.5s86.333 -40 150.999 -40c56.667 0 106.5 15.833 149.5 47.5s76.167 78 99.5 139s35 134.167 35 219.5zM936.001 1221v-20h-105l-219 138h-2l-232 -138h-104v20l254 239h164z" unicode="ĝ"/>
   <glyph glyph-name="Gbreve" d="M1101 133c-152.667 -102 -306.667 -153 -462 -153c-166.667 0 -296 61.833 -388 185.5s-138 295.5 -138 515.5c0 231.333 44 404 132 518s220.333 171 397 171c230.667 0 384.334 -110.333 461.001 -331l-171 -56c-53.333 154 -149.333 231 -288 231 c-112.667 0 -195.834 -42 -249.501 -126s-80.5 -219.667 -80.5 -407c0 -364 113.667 -546 341 -546c45.333 0 92.333 7 141 21s88.334 31.667 119 53v336h-293v160h479v-572zM616 1446c-82.667 0 -151.832 23.667 -207.499 71s-90.5 110 -104.5 188h127 c11.333 -42 31.333 -74.667 60 -98s70.334 -35 125 -35c56.667 0 99.167 11.667 127.5 35s48.166 56 59.499 98h127c-16 -79.333 -51.5 -142.333 -106.5 -189s-124.167 -70 -207.5 -70z" unicode="Ğ"/>
   <glyph glyph-name="gbreve" d="M615 -424c-112 0 -202 23 -270 69s-111.333 112 -130 198l184 25c11.333 -50 35.833 -88.5 73.5 -115.5s87.167 -40.5 148.5 -40.5c165.333 0 248 105 248 315v194h-2c-32.667 -68.667 -78 -120.667 -136 -156s-127 -53 -207 -53c-132 0 -228.5 43.167 -289.5 129.5 s-91.5 222.166 -91.5 407.499c0 188.667 32.667 327.5 98 416.5s166 133.5 302 133.5c75.333 0 140.833 -17.5 196.5 -52.5s98.5 -84.833 128.5 -149.5h3c0 20 1.33301 53.833 4 101.5c2.69336 47.667 5.36035 75.5 8 83.5h171c-4 -36 -6 -110.667 -6 -224v-826 c0 -151.333 -35.333 -265.166 -106 -341.499s-179.667 -114.5 -327 -114.5zM869 551c0 128.667 -24.999 229.835 -74.999 303.501c-50 73.667 -118.667 110.5 -206 110.5c-91.333 0 -157.333 -31.833 -198 -95.5s-61 -169.834 -61 -318.501 c0 -100.667 8.5 -180.167 25.5 -238.5s43.5 -100.833 79.5 -127.5s86.333 -40 150.999 -40c56.667 0 106.5 15.833 149.5 47.5s76.167 78 99.5 139s35 134.167 35 219.5zM604.001 1201c-82.667 0 -151.833 23.667 -207.5 71s-90.5 110 -104.5 188h127 c11.333 -42 31.333 -74.667 60 -98s70.334 -35 125.001 -35c56.667 0 99.167 11.667 127.5 35s48.166 56 59.499 98h127c-16 -79.333 -51.5 -142.333 -106.5 -189s-124.167 -70 -207.5 -70z" unicode="ğ"/>
   <glyph glyph-name="Gdotaccent" d="M1101 133c-152.667 -102 -306.667 -153 -462 -153c-166.667 0 -296 61.833 -388 185.5s-138 295.5 -138 515.5c0 231.333 44 404 132 518s220.333 171 397 171c230.667 0 384.334 -110.333 461.001 -331l-171 -56c-53.333 154 -149.333 231 -288 231 c-112.667 0 -195.834 -42 -249.501 -126s-80.5 -219.667 -80.5 -407c0 -364 113.667 -546 341 -546c45.333 0 92.333 7 141 21s88.334 31.667 119 53v336h-293v160h479v-572zM525 1446v192h200v-192h-200z" unicode="Ġ"/>
   <glyph glyph-name="gdotaccent" d="M615 -424c-112 0 -202 23 -270 69s-111.333 112 -130 198l184 25c11.333 -50 35.833 -88.5 73.5 -115.5s87.167 -40.5 148.5 -40.5c165.333 0 248 105 248 315v194h-2c-32.667 -68.667 -78 -120.667 -136 -156s-127 -53 -207 -53c-132 0 -228.5 43.167 -289.5 129.5 s-91.5 222.166 -91.5 407.499c0 188.667 32.667 327.5 98 416.5s166 133.5 302 133.5c75.333 0 140.833 -17.5 196.5 -52.5s98.5 -84.833 128.5 -149.5h3c0 20 1.33301 53.833 4 101.5c2.69336 47.667 5.36035 75.5 8 83.5h171c-4 -36 -6 -110.667 -6 -224v-826 c0 -151.333 -35.333 -265.166 -106 -341.499s-179.667 -114.5 -327 -114.5zM869 551c0 128.667 -24.999 229.835 -74.999 303.501c-50 73.667 -118.667 110.5 -206 110.5c-91.333 0 -157.333 -31.833 -198 -95.5s-61 -169.834 -61 -318.501 c0 -100.667 8.5 -180.167 25.5 -238.5s43.5 -100.833 79.5 -127.5s86.333 -40 150.999 -40c56.667 0 106.5 15.833 149.5 47.5s76.167 78 99.5 139s35 134.167 35 219.5zM506.001 1292v192h200v-192h-200z" unicode="ġ"/>
   <glyph glyph-name="Gcommaaccent" d="M1101 133c-152.667 -102 -306.667 -153 -462 -153c-166.667 0 -296 61.833 -388 185.5s-138 295.5 -138 515.5c0 231.333 44 404 132 518s220.333 171 397 171c230.667 0 384.334 -110.333 461.001 -331l-171 -56c-53.333 154 -149.333 231 -288 231 c-112.667 0 -195.834 -42 -249.501 -126s-80.5 -219.667 -80.5 -407c0 -364 113.667 -546 341 -546c45.333 0 92.333 7 141 21s88.334 31.667 119 53v336h-293v160h479v-572zM475 -423v33l79 292h197v-37l-171 -288h-105z" unicode="Ģ"/>
   <glyph glyph-name="gcommaaccent" d="M615 -424c-112 0 -202 23 -270 69s-111.333 112 -130 198l184 25c11.333 -50 35.833 -88.5 73.5 -115.5s87.167 -40.5 148.5 -40.5c165.333 0 248 105 248 315v194h-2c-32.667 -68.667 -78 -120.667 -136 -156s-127 -53 -207 -53c-132 0 -228.5 43.167 -289.5 129.5 s-91.5 222.166 -91.5 407.499c0 188.667 32.667 327.5 98 416.5s166 133.5 302 133.5c75.333 0 140.833 -17.5 196.5 -52.5s98.5 -84.833 128.5 -149.5h3c0 20 1.33301 53.833 4 101.5c2.69336 47.667 5.36035 75.5 8 83.5h171c-4 -36 -6 -110.667 -6 -224v-826 c0 -151.333 -35.333 -265.166 -106 -341.499s-179.667 -114.5 -327 -114.5zM869 551c0 128.667 -24.999 229.835 -74.999 303.501c-50 73.667 -118.667 110.5 -206 110.5c-91.333 0 -157.333 -31.833 -198 -95.5s-61 -169.834 -61 -318.501 c0 -100.667 8.5 -180.167 25.5 -238.5s43.5 -100.833 79.5 -127.5s86.333 -40 150.999 -40c56.667 0 106.5 15.833 149.5 47.5s76.167 78 99.5 139s35 134.167 35 219.5zM750.001 1536v-33l-79 -292h-197v37l171 288h105z" unicode="ģ"/>
   <glyph glyph-name="Hcircumflex" d="M875 0v623h-522v-623h-191v1349h191v-566h522v566h191v-1349h-191zM945 1466v-20h-105l-219 138h-2l-232 -138h-104v20l254 239h164z" unicode="Ĥ"/>
   <glyph glyph-name="hcircumflex" d="M185 1349h181v-315c0 -39.333 -3 -105 -9 -197h3c70 136.667 183 205 339 205c233.333 0 350 -127 350 -381v-661h-181v635c0 90.667 -17.5 158 -52.5 202s-90.833 66 -167.5 66c-82.667 0 -150.5 -30.167 -203.5 -90.5c-53 -60.334 -79.5 -142.167 -79.5 -245.5v-567 h-180v1349zM945 1465v-20h-105l-219 139h-2l-232 -139h-104v20l254 240h164z" unicode="ĥ"/>
   <glyph glyph-name="Hbar" d="M162 1153v196h191v-196h522v196h191v-196h160v-148h-160v-1005h-191v623h-522v-623h-191v1005h-160v148h160zM875 783v222h-522v-222h522z" unicode="Ħ"/>
   <glyph glyph-name="hbar" d="M185 1484h181v-157h299v-131h-299v-132c0 -39.333 -3 -105 -9 -197h3c70 136.667 183 205 339 205c233.333 0 350 -127 350 -381v-691h-181v665c0 90.667 -17.5 158 -52.5 202s-90.833 66 -167.5 66c-82.667 0 -150.5 -30.167 -203.5 -90.5 c-53 -60.334 -79.5 -142.167 -79.5 -245.5v-597h-180v1196h-132v131h132v157z" unicode="ħ"/>
   <glyph glyph-name="Itilde" d="M202 1349h823v-156h-316v-1037h316v-156h-823v156h316v1037h-316v156zM771 1446c-28 0 -55.999 6.16699 -83.999 18.5s-55.333 26 -82 41s-52.834 28.667 -78.501 41s-50.167 18.5 -73.5 18.5c-16.667 0 -30 -3.16699 -40 -9.5s-18.333 -15.5 -25 -27.5 s-13.667 -39.333 -21 -82h-111c7.33301 64 18.833 112.333 34.5 145s37.167 58 64.5 76s62 27 104 27c29.333 0 58 -6.16699 86 -18.5s55.333 -26 82 -41c26.6689 -15 52.3359 -28.667 77 -41c24.667 -12.333 48 -18.5 70 -18.5c24.667 0 43.667 7.83301 57 23.5 s23.333 47.5 30 95.5h112c-10.667 -92 -32.5 -156.333 -65.5 -193s-78.5 -55 -136.5 -55z" unicode="Ĩ"/>
   <glyph glyph-name="itilde" d="M745 142h380v-142h-982v142h422v798h-319v142h499v-940zM770 1201c-28 0 -55.999 6.16699 -83.999 18.5s-55.333 26 -82 41s-52.834 28.667 -78.501 41s-50.167 18.5 -73.5 18.5c-16.667 0 -30 -3.16699 -40 -9.5s-18.333 -15.5 -25 -27.5s-13.667 -39.333 -21 -82h-111 c7.33301 64 18.833 112.333 34.5 145s37.167 58 64.5 76s62 27 104 27c29.333 0 58 -6.16699 86 -18.5s55.333 -26 82 -41c26.6689 -15 52.3359 -28.667 77 -41c24.667 -12.333 48 -18.5 70 -18.5c24.667 0 43.667 7.83301 57 23.5s23.333 47.5 30 95.5h112 c-10.667 -92 -32.5 -156.333 -65.5 -193s-78.5 -55 -136.5 -55z" unicode="ĩ"/>
   <glyph glyph-name="Imacron" d="M202 1349h823v-156h-316v-1037h316v-156h-823v156h316v1037h-316v156zM890 1503h-551v127h551v-127z" unicode="Ī"/>
   <glyph glyph-name="imacron" d="M745 142h380v-142h-982v142h422v798h-319v142h499v-940zM896 1236h-551v127h551v-127z" unicode="ī"/>
   <glyph glyph-name="Ibreve" d="M202 1349h823v-156h-316v-1037h316v-156h-823v156h316v1037h-316v156zM613 1445c-82.667 0 -151.833 23.667 -207.5 71s-90.5 110 -104.5 188h127c11.333 -42 31.333 -74.667 60 -98c28.668 -23.333 70.335 -35 125.001 -35c56.667 0 99.167 11.667 127.5 35 s48.166 56 59.499 98h127c-16 -79.333 -51.5 -142.333 -106.5 -189s-124.167 -70 -207.5 -70z" unicode="Ĭ"/>
   <glyph glyph-name="ibreve" d="M745 142h380v-142h-982v142h422v798h-319v142h499v-940zM633 1201c-82.667 0 -151.833 23.667 -207.5 71s-90.5 110 -104.5 188h127c11.333 -42 31.333 -74.667 60 -98c28.668 -23.333 70.335 -35 125.001 -35c56.667 0 99.167 11.667 127.5 35s48.166 56 59.499 98h127 c-16 -79.333 -51.5 -142.333 -106.5 -189s-124.167 -70 -207.5 -70z" unicode="ĭ"/>
   <glyph glyph-name="Iogonek" d="M202 1349h823v-156h-316v-1037h316v-156h-823v156h316v1037h-316v156zM804 -400c-42 -18 -88.332 -27 -138.999 -27c-70 0 -122.667 17 -158 51s-53 79.333 -53 136c0 45.333 13.833 89.833 41.5 133.5s65.5 79.167 113.5 106.5h133 c-42.667 -24 -77.834 -56.833 -105.501 -98.5s-41.5 -84.5 -41.5 -128.5c0 -28 8.16699 -50 24.5 -66s39.5 -24 69.5 -24c36 0 74.333 8 115 24v-107z" unicode="Į"/>
   <glyph glyph-name="iogonek" d="M745 142h380v-142h-982v142h422v798h-319v142h499v-940zM545 1292v192h200v-192h-200zM847 -400c-42 -18 -88.332 -27 -138.999 -27c-70 0 -122.667 17 -158 51c-35.334 34 -53.001 79.333 -53 136c0 45.333 13.833 89.833 41.5 133.5s65.5 79.167 113.5 106.5h133 c-42.667 -24 -77.834 -56.833 -105.501 -98.5s-41.5 -84.5 -41.5 -128.5c0 -28 8.16699 -50 24.5 -66s39.5 -24 69.5 -24c36 0 74.333 8 115 24v-107z" unicode="į"/>
   <glyph glyph-name="Idotaccent" d="M202 1349h823v-156h-316v-1037h316v-156h-823v156h316v1037h-316v156zM515 1446v192h200v-192h-200z" unicode="İ"/>
   <glyph glyph-name="dotlessi" d="M745 142h380v-142h-982v142h422v798h-319v142h499v-940z" unicode="ı"/>
   <glyph glyph-name="IJ" d="M98 1349h191v-1349h-191v1349zM768 135c69.333 0 119.833 23.833 151.5 71.5s47.5 117.5 47.5 209.5v777h-271v156h461v-929c0 -140.667 -33.667 -249.167 -101 -325.5c-67.334 -76.333 -163.667 -114.5 -288.999 -114.5c-112 0 -198.833 28.833 -260.5 86.5 s-104.834 152.167 -129.5 283.5l186 31c13.333 -86 37.166 -148.5 71.499 -187.5s78.833 -58.5 133.5 -58.5z" unicode="Ĳ"/>
   <glyph glyph-name="ij" d="M237 1082h179v-1082h-180zM216 1292v192h200v-192h-200zM881 1082h180.001v-1110c0 -124.667 -37.333 -222 -112 -292s-181 -105 -319 -105c-52.667 0 -106.334 4.33301 -161.001 13s-97 18.667 -127 30v140c100 -22.667 191 -34 273 -34c85.333 0 151 22 197 66 s69 105.667 69 185v1107zM861.001 1292v192h200v-192h-200z" unicode="ĳ"/>
   <glyph glyph-name="Jcircumflex" d="M986 420c0 -139.333 -35 -247.499 -105 -324.499s-168.333 -115.5 -295 -115.5c-114 0 -205 29.667 -273 89s-113.667 153 -137 281l187 31c12 -78.667 37.5 -139.334 76.5 -182.001s88.167 -64 147.5 -64c139.333 0 209 93.667 209 281v777h-311v156h501v-929z M1065 1466v-20h-105l-219 138h-2l-232 -138h-104v20l254 239h164z" unicode="Ĵ"/>
   <glyph glyph-name="jcircumflex" d="M836 -28c0 -124.667 -37.333 -222 -112 -292s-181 -105 -319 -105c-52.667 0 -106.334 4.33301 -161 13c-54.667 8.66699 -97 18.667 -127 30v140c100 -22.667 191 -34 273 -34c85.333 0 151 22 197 66s69 105.667 69 185v965h-407v142h587v-1110zM1048 1221v-20h-105 l-219 138h-2l-232 -138h-104v20l254 239h164z" unicode="ĵ"/>
   <glyph glyph-name="Kcommaaccent" d="M1003 0l-487 638l-163 -169v-469h-191v1349h191v-673l572 673h225l-504 -572l581 -777h-224zM475 -423v33l79 292h197v-37l-171 -288h-105z" unicode="Ķ"/>
   <glyph glyph-name="kcommaaccent" d="M914 0l-366 499l-132 -98v-401h-180v1484h180v-927l475 525h211l-439 -465l462 -617h-211zM475 -423v33l79 292h197v-37l-171 -288h-105z" unicode="ķ"/>
   <glyph glyph-name="kgreenlandic" d="M914 0l-366 494l-132 -98v-396h-180v1082h180v-538l475 538h211l-439 -465l462 -617h-211z" unicode="ĸ"/>
   <glyph glyph-name="Lacute" d="M237 0v1349h191v-1193h672v-156h-863zM304 1446v20l227 239h197v-29l-300 -230h-124z" unicode="Ĺ"/>
   <glyph glyph-name="lacute" d="M736 142h380v-142h-982v142h422v1065h-289v142h469v-1207zM531 1445v20l227 240h197v-29l-300 -231h-124z" unicode="ĺ"/>
   <glyph glyph-name="Lcommaaccent" d="M237 0v1349h191v-1193h672v-156h-863zM485 -423v33l79 292h197v-37l-171 -288h-105z" unicode="Ļ"/>
   <glyph glyph-name="lcommaaccent" d="M736 142h380v-142h-982v142h422v1200h-289v142h469v-1342zM475 -423v33l79 292h197v-37l-171 -288h-105z" unicode="ļ"/>
   <glyph glyph-name="Lcaron" d="M237 0v1349h191v-1193h672v-156h-863zM775 1024v33l79 292h197v-37l-171 -288h-105z" unicode="Ľ"/>
   <glyph glyph-name="lcaron" d="M687 142h380v-142h-982v142h422v1200h-289v142h469v-1342zM895 1159v33l79 292h197v-37l-171 -288h-105z" unicode="ľ"/>
   <glyph glyph-name="Ldot" d="M237 0v1349h191v-1193h672v-156h-863zM671 608v192h200v-192h-200z" unicode="Ŀ"/>
   <glyph glyph-name="ldot" d="M736 142h380v-142h-982v142h422v1200h-289v142h469v-1342zM931 608v192h200v-192h-200z" unicode="ŀ"/>
   <glyph glyph-name="Lslash" d="M237 0v458l-117 -61l-66 121l183 96v735h191v-636l292 151l61 -121l-353 -185v-402h672v-156h-863z" unicode="Ł"/>
   <glyph glyph-name="lslash" d="M736 884l225 129l62 -113l-287 -164v-594h380v-142h-982v142h422v493l-218 -123l-64 112l282 159v559h-339v142h519v-600z" unicode="ł"/>
   <glyph glyph-name="Nacute" d="M836 0l-520 1130c10.667 -114.667 16 -199.334 16 -254.001v-876h-170v1349h222l528 -1138c-12 96 -18 187.333 -18 274v864h172v-1349h-230zM524 1446v20l227 239h197v-29l-300 -230h-124z" unicode="Ń"/>
   <glyph glyph-name="nacute" d="M868 0v694.999c0 90.667 -17.5 158 -52.5 202s-90.833 66 -167.5 66c-82.667 0 -150.5 -30.167 -203.5 -90.5s-79.5 -142.166 -79.5 -245.499v-627h-180v851c0 126 -2 203 -6 231h170c0.666992 -3.33301 1.33398 -12.333 2.00098 -27s1.5 -31.5 2.5 -50.5 s2.16699 -54.833 3.5 -107.5h3c70 136.667 185.333 205 345.999 205c115.333 0 201.333 -31.167 258 -93.5c56.667 -62.334 85 -158.167 85 -287.5v-721h-181zM539 1201v20l227 239h197v-29l-300 -230h-124z" unicode="ń"/>
   <glyph glyph-name="Ncommaaccent" d="M836 0l-520 1130c10.667 -114.667 16 -199.334 16 -254.001v-876h-170v1349h222l528 -1138c-12 96 -18 187.333 -18 274v864h172v-1349h-230zM444 -422.999v33l79 292h197v-37l-171 -288h-105z" unicode="Ņ"/>
   <glyph glyph-name="ncommaaccent" d="M868 0v694.999c0 90.667 -17.5 158 -52.5 202s-90.833 66 -167.5 66c-82.667 0 -150.5 -30.167 -203.5 -90.5s-79.5 -142.166 -79.5 -245.499v-627h-180v851c0 126 -2 203 -6 231h170c0.666992 -3.33301 1.33398 -12.333 2.00098 -27s1.5 -31.5 2.5 -50.5 s2.16699 -54.833 3.5 -107.5h3c70 136.667 185.333 205 345.999 205c115.333 0 201.333 -31.167 258 -93.5c56.667 -62.334 85 -158.167 85 -287.5v-721h-181zM448 -423.001v33l79 292h197v-37l-171 -288h-105z" unicode="ņ"/>
   <glyph glyph-name="Ncaron" d="M836 0l-520 1130c10.667 -114.667 16 -199.334 16 -254.001v-876h-170v1349h222l528 -1138c-12 96 -18 187.333 -18 274v864h172v-1349h-230zM707 1446h-164l-254 239v20h104l232 -138h2l219 138h105v-20z" unicode="Ň"/>
   <glyph glyph-name="ncaron" d="M868 0v694.999c0 90.667 -17.5 158 -52.5 202s-90.833 66 -167.5 66c-82.667 0 -150.5 -30.167 -203.5 -90.5s-79.5 -142.166 -79.5 -245.499v-627h-180v851c0 126 -2 203 -6 231h170c0.666992 -3.33301 1.33398 -12.333 2.00098 -27s1.5 -31.5 2.5 -50.5 s2.16699 -54.833 3.5 -107.5h3c70 136.667 185.333 205 345.999 205c115.333 0 201.333 -31.167 258 -93.5c56.667 -62.334 85 -158.167 85 -287.5v-721h-181zM701 1201h-164l-254 239v20h104l232 -138h2l219 138h105v-20z" unicode="ň"/>
   <glyph glyph-name="napostrophe" d="M973 0l-0.000976562 694.999c0 90.667 -17.5 158 -52.5 202s-90.833 66 -167.5 66c-82.667 0 -150.5 -30.167 -203.5 -90.5s-79.5 -142.166 -79.5 -245.499v-627h-180v851c0 126 -2 203 -6 231h170c0.666992 -3.33301 1.33398 -12.333 2.00098 -27s1.5 -31.5 2.5 -50.5 s2.16699 -54.833 3.5 -107.5h3c70 136.667 185.333 205 346 205c115.333 0 201.333 -31.167 258 -93.5c56.667 -62.334 85 -158.167 85 -287.5v-721h-181zM4.99902 1025v33l79 292h197v-37l-171 -288h-105z" unicode="ŉ"/>
   <glyph glyph-name="Eng" d="M1109 542c0 -200.667 -27.001 -344.5 -81.001 -431.5s-140 -130.5 -258 -130.5c-61.333 0 -113.833 10.5 -157.5 31.5s-86.167 61.167 -127.5 120.5l131 100c28.667 -40 54.667 -66.5 78 -79.5s50.333 -19.5 81 -19.5c52.668 0 91.335 31.333 116 94 c24.667 62.667 37 169 37 319v417c0 91.333 -19.333 158.833 -58 202.5s-99.334 65.5 -182.001 65.5c-94 0 -171.333 -30.5 -232 -91.5s-91 -142.5 -91 -244.5v-895h-180v1119c0 126 -2 203 -6 231h170c0.666992 -3.33301 1.33398 -12.333 2.00098 -27s1.5 -31.5 2.5 -50.5 s2.16699 -54.833 3.5 -107.5h3c70.667 136.667 199.334 205 386.001 205c242 0 363 -127 363 -381v-447z" unicode="Ŋ"/>
   <glyph glyph-name="eng" d="M648 963c-82.667 0 -150.5 -30.167 -203.5 -90.5s-79.5 -142.166 -79.5 -245.499v-627h-180v851c0 126 -2 203 -6 231h170c0.666992 -3.33301 1.33398 -12.333 2.00098 -27s1.5 -31.5 2.5 -50.5s2.16699 -54.833 3.5 -107.5h3c70 136.667 185.333 205 345.999 205 c115.333 0 201.333 -31.167 258 -93.5c56.667 -62.334 85 -158.167 85 -287.5v-855c0 -100.667 -20 -174.334 -60 -221.001s-100.333 -70 -181 -70c-51.334 0 -93.667 3 -127 9v139l62 -6c46 0 78.333 12 97 36s28 70.667 28 140v802c0 90.667 -17.5 158 -52.5 202 s-90.833 66 -167.5 66z" unicode="ŋ"/>
   <glyph glyph-name="Omacron" d="M1126 681c0 -224.667 -44.168 -397.667 -132.501 -519c-88.334 -121.333 -215.167 -182 -380.5 -182c-166 0 -292.667 59.667 -380 179s-131 293.333 -131 522c0 224.667 43.333 395.667 130 513s214.334 176 383.001 176c164.667 0 291 -57.833 379 -173.5 s132 -287.5 132 -515.5zM924.999 681c0 355.333 -103.333 533.001 -310 533.001c-208 0 -312 -177.667 -312 -533c0 -180 26.333 -316 79 -408s130 -138 232 -138c108.667 0 187.667 46.667 237 140s74 228.666 74 405.999zM889.999 1503h-551v127h551v-127z" unicode="Ō"/>
   <glyph glyph-name="omacron" d="M1097 542c0 -182 -41.833 -321.167 -125.5 -417.5s-204.5 -144.5 -362.5 -144.5c-154.667 0 -273.167 48.667 -355.5 146s-123.5 236 -123.5 416c0 186 42.167 325.833 126.5 419.5s203.833 140.5 358.5 140.5c162.667 0 283.667 -46.333 363 -139s119 -233 119 -421z M908 542c0 143.333 -22.832 250.334 -68.499 321.001s-119.5 106 -221.5 106c-103.334 0 -179.001 -36 -227.001 -108s-72 -178.333 -72 -319c0 -140 24 -246.5 72 -319.5s120 -109.5 216 -109.5c106 0 182.667 35.667 230 107s71 178.666 71 321.999zM890.001 1236h-551 v127h551v-127z" unicode="ō"/>
   <glyph glyph-name="Obreve" d="M1126 681c0 -224.667 -44.168 -397.667 -132.501 -519c-88.334 -121.333 -215.167 -182 -380.5 -182c-166 0 -292.667 59.667 -380 179s-131 293.333 -131 522c0 224.667 43.333 395.667 130 513s214.334 176 383.001 176c164.667 0 291 -57.833 379 -173.5 s132 -287.5 132 -515.5zM924.999 681c0 355.333 -103.333 533.001 -310 533.001c-208 0 -312 -177.667 -312 -533c0 -180 26.333 -316 79 -408s130 -138 232 -138c108.667 0 187.667 46.667 237 140s74 228.666 74 405.999zM612.999 1446 c-82.667 0 -151.833 23.667 -207.5 71s-90.5 110 -104.5 188h127c11.333 -42 31.333 -74.667 60 -98c28.668 -23.333 70.335 -35 125.001 -35c56.667 0 99.167 11.667 127.5 35s48.166 56 59.499 98h127c-16 -79.333 -51.5 -142.333 -106.5 -189s-124.167 -70 -207.5 -70z " unicode="Ŏ"/>
   <glyph glyph-name="obreve" d="M1097 542c0 -182 -41.833 -321.167 -125.5 -417.5s-204.5 -144.5 -362.5 -144.5c-154.667 0 -273.167 48.667 -355.5 146s-123.5 236 -123.5 416c0 186 42.167 325.833 126.5 419.5s203.833 140.5 358.5 140.5c162.667 0 283.667 -46.333 363 -139s119 -233 119 -421z M908 542c0 143.333 -22.832 250.334 -68.499 321.001s-119.5 106 -221.5 106c-103.334 0 -179.001 -36 -227.001 -108s-72 -178.333 -72 -319c0 -140 24 -246.5 72 -319.5s120 -109.5 216 -109.5c106 0 182.667 35.667 230 107s71 178.666 71 321.999zM613.001 1201 c-82.667 0 -151.833 23.667 -207.5 71s-90.5 110 -104.5 188h127c11.333 -42 31.333 -74.667 60 -98c28.668 -23.333 70.335 -35 125.001 -35c56.667 0 99.167 11.667 127.5 35s48.166 56 59.499 98h127c-16 -79.333 -51.5 -142.333 -106.5 -189s-124.167 -70 -207.5 -70z " unicode="ŏ"/>
   <glyph glyph-name="Ohungarumlaut" d="M1126 681c0 -224.667 -44.168 -397.667 -132.501 -519c-88.334 -121.333 -215.167 -182 -380.5 -182c-166 0 -292.667 59.667 -380 179s-131 293.333 -131 522c0 224.667 43.333 395.667 130 513s214.334 176 383.001 176c164.667 0 291 -57.833 379 -173.5 s132 -287.5 132 -515.5zM924.999 681c0 355.333 -103.333 533.001 -310 533.001c-208 0 -312 -177.667 -312 -533c0 -180 26.333 -316 79 -408s130 -138 232 -138c108.667 0 187.667 46.667 237 140s74 228.666 74 405.999zM693.999 1445v20l207 239h187v-29l-300 -230h-94z M329.999 1445v20l207 239h187v-29l-300 -230h-94z" unicode="Ő"/>
   <glyph glyph-name="ohungarumlaut" d="M1097 542c0 -182 -41.833 -321.167 -125.5 -417.5s-204.5 -144.5 -362.5 -144.5c-154.667 0 -273.167 48.667 -355.5 146s-123.5 236 -123.5 416c0 186 42.167 325.833 126.5 419.5s203.833 140.5 358.5 140.5c162.667 0 283.667 -46.333 363 -139s119 -233 119 -421z M908 542c0 143.333 -22.832 250.334 -68.499 321.001s-119.5 106 -221.5 106c-103.334 0 -179.001 -36 -227.001 -108s-72 -178.333 -72 -319c0 -140 24 -246.5 72 -319.5s120 -109.5 216 -109.5c106 0 182.667 35.667 230 107s71 178.666 71 321.999zM713.001 1201v20 l207 239h187v-29l-300 -230h-94zM349.001 1201v20l207 239h187v-29l-300 -230h-94z" unicode="ő"/>
   <glyph glyph-name="OE" d="M609 0c-38 -3.33301 -70.667 -5 -98 -5c-170 0 -294.333 56.333 -373 169s-118 285 -118 517c0 233.333 39.5 404 118.5 512s203.833 162 374.5 162c38.667 0 75 -2 109 -6h558v-152h-398v-440h367v-150h-367v-455h439v-152h-612zM512 140c48 0 81.333 2 100 6v1057 c-25.333 4 -58.333 6 -99 6c-108.667 0 -187.834 -42.667 -237.5 -128c-49.667 -85.334 -74.5 -218.667 -74.5 -400c0 -183.333 25.667 -319.333 77 -408s129.333 -133 234 -133z" unicode="Œ"/>
   <glyph glyph-name="oe" d="M712 503c0 -126 14.5 -222.167 43.5 -288.5s70.5 -99.5 124.5 -99.5c43.333 0 78 15.667 104 47c26.0039 31.333 43.6709 71 53 119l138 -45c-42 -170.667 -139.667 -256 -293 -256c-121.333 0 -209 61 -263 183c-55.334 -122 -144.001 -183 -266.001 -183 c-104.667 0 -185 48.167 -241 144.5s-84 235.5 -84 417.5c0 186 28.333 325.833 85 419.5s139 140.5 247 140.5c124.667 0 213.334 -59 266.001 -177c56.667 118 143 177 259 177c212.667 0 319 -191.667 319 -575v-24h-492zM543 542c0 146 -13.167 253.666 -39.5 322.999 s-69.833 104 -130.5 104s-105.167 -34.667 -133.5 -104s-42.5 -177 -42.5 -323c0 -286 56.667 -429 170 -429c62.667 0 107.667 34.833 135 104.5s41 177.834 41 324.501zM875 968.999c-48 0 -86.333 -28.833 -115 -86.5s-44 -138.167 -46 -241.5h324 c-5.33301 114 -21.333 197.167 -48 249.5s-65 78.5 -115 78.5z" unicode="œ"/>
   <glyph glyph-name="Racute" d="M957 0l-365.999 575h-238v-575h-191v1349h482c155.333 0 273.666 -32.167 354.999 -96.5s122 -156.5 122 -276.5c0 -99.333 -31.167 -183 -93.5 -251s-145.833 -110.667 -250.5 -128l400 -597h-220zM929.001 973c0 148.667 -101.333 223 -304 223h-272v-470h280 c95.333 0 168.5 21.333 219.5 64s76.5 103.667 76.5 183zM474.001 1446v20l227 239h197v-29l-300 -230h-124z" unicode="Ŕ"/>
   <glyph glyph-name="racute" d="M1045 918c-74.667 12.667 -145.333 19.001 -212 19.001c-107.333 0 -194 -40.333 -260 -121s-99 -183.334 -99 -308.001v-508h-180v701c0 50.667 -4.5 110.334 -13.5 179c-9 68.667 -21.833 136 -38.5 202h171c26.667 -92 42.667 -175.333 48 -250h5 c33.333 74.667 66 129.5 98 164.5s70 61.333 114 79s97.667 26.5 161 26.5c69.333 0 138 -5.66699 206 -17v-167zM491.001 1201v20l227 239h197v-29l-300 -230h-124z" unicode="ŕ"/>
   <glyph glyph-name="Rcommaaccent" d="M957 0l-365.999 575h-238v-575h-191v1349h482c155.333 0 273.666 -32.167 354.999 -96.5s122 -156.5 122 -276.5c0 -99.333 -31.167 -183 -93.5 -251s-145.833 -110.667 -250.5 -128l400 -597h-220zM929.001 973c0 148.667 -101.333 223 -304 223h-272v-470h280 c95.333 0 168.5 21.333 219.5 64s76.5 103.667 76.5 183zM472.001 -423v33l79 292h197v-37l-171 -288h-105z" unicode="Ŗ"/>
   <glyph glyph-name="rcommaaccent" d="M1045 918c-74.667 12.667 -145.333 19.001 -212 19.001c-107.333 0 -194 -40.333 -260 -121s-99 -183.334 -99 -308.001v-508h-180v701c0 50.667 -4.5 110.334 -13.5 179c-9 68.667 -21.833 136 -38.5 202h171c26.667 -92 42.667 -175.333 48 -250h5 c33.333 74.667 66 129.5 98 164.5s70 61.333 114 79s97.667 26.5 161 26.5c69.333 0 138 -5.66699 206 -17v-167zM203.001 -422.999v33l79 292h197v-37l-171 -288h-105z" unicode="ŗ"/>
   <glyph glyph-name="Rcaron" d="M957 0l-365.999 575h-238v-575h-191v1349h482c155.333 0 273.666 -32.167 354.999 -96.5s122 -156.5 122 -276.5c0 -99.333 -31.167 -183 -93.5 -251s-145.833 -110.667 -250.5 -128l400 -597h-220zM929.001 973c0 148.667 -101.333 223 -304 223h-272v-470h280 c95.333 0 168.5 21.333 219.5 64s76.5 103.667 76.5 183zM682.001 1446h-164l-254 239v20h104l232 -138h2l219 138h105v-20z" unicode="Ř"/>
   <glyph glyph-name="rcaron" d="M1045 918c-74.667 12.667 -145.333 19.001 -212 19.001c-107.333 0 -194 -40.333 -260 -121s-99 -183.334 -99 -308.001v-508h-180v701c0 50.667 -4.5 110.334 -13.5 179c-9 68.667 -21.833 136 -38.5 202h171c26.667 -92 42.667 -175.333 48 -250h5 c33.333 74.667 66 129.5 98 164.5s70 61.333 114 79s97.667 26.5 161 26.5c69.333 0 138 -5.66699 206 -17v-167zM721.001 1201h-164l-254 239v20h104l232 -138h2l219 138h105v-20z" unicode="ř"/>
   <glyph glyph-name="Sacute" d="M1128 370c0 -122.667 -44.8369 -218.335 -134.504 -287.002s-217.5 -103 -383.5 -103c-304.667 0 -481.667 119.333 -531 358l185 37c18.667 -86 57.334 -148.5 116.001 -187.5s137 -58.5 235 -58.5c106 0 186.5 20.667 241.5 62s82.5 100 82.5 176 c0 46.667 -10.833 84.667 -32.5 114s-50.167 53.333 -85.5 72c-35.333 18.6689 -75.166 33.8359 -119.499 45.5c-44.333 11.667 -89.166 23.167 -134.499 34.5c-107.333 28 -183.833 53 -229.5 75s-82.167 47.167 -109.5 75.5s-48 60.833 -62 97.5s-21 79.667 -21 129 c0 115.336 40.5 204.169 121.5 266.5c81 62.333 197.167 93.5 348.5 93.5c141.333 0 249.333 -24.667 324 -74s126.667 -132.666 156 -249.999l-188 -33c-16 74.667 -48 128.834 -96 162.501s-113.667 50.5 -197 50.5c-188.667 0 -283 -71 -283 -213 c0 -40 8.83301 -72.5 26.5 -97.5s41.667 -45.667 72 -62c30.334 -16.333 65.667 -29.833 106 -40.5s83.5 -22 129.5 -34c92.667 -23.333 159.334 -42.833 200 -58.5c40.668 -15.667 76.835 -33.5 108.5 -53.5c31.667 -20 58.834 -43.667 81.501 -71s40.5 -59.333 53.5 -96 s19.5 -80 19.5 -130zM521.996 1446v20l227 239h197v-29l-300 -230h-124z" unicode="Ś"/>
   <glyph glyph-name="sacute" d="M1060 309c0 -102.667 -38.835 -183.168 -116.502 -241.501s-185.167 -87.5 -322.5 -87.5s-241.833 21.5 -313.5 64.5s-118.5 110.833 -140.5 203.5l159 31c12.667 -57.333 39.834 -99.166 81.501 -125.499s112.834 -39.5 213.501 -39.5c180 0 270 57 270 171 c0 42.667 -16.333 77.167 -49 103.5s-82.667 47.833 -150 64.5c-176 43.333 -287.667 77.333 -335 102s-83.666 55.5 -108.999 92.5s-38 83.167 -38 138.5c0 98 35.333 174.667 106 230s173 83 307 83c117.333 0 211 -22.167 281 -66.5s113.667 -108.833 131 -193.5 l-162 -20c-7.33301 48 -31 84.333 -71 109s-99.667 37 -179 37c-163.334 0 -245.001 -50.333 -245.001 -151c0 -40 13.833 -72 41.5 -96s72.167 -43.333 133.5 -58l119 -31c108.667 -26.667 186.834 -53 234.5 -79c47.667 -26 85.167 -58.5 112.5 -97.5 s41 -86.833 41 -143.5zM487.998 1201v20l227 239h197v-29l-300 -230h-124z" unicode="ś"/>
   <glyph glyph-name="Scircumflex" d="M1128 370c0 -122.667 -44.8369 -218.335 -134.504 -287.002s-217.5 -103 -383.5 -103c-304.667 0 -481.667 119.333 -531 358l185 37c18.667 -86 57.334 -148.5 116.001 -187.5s137 -58.5 235 -58.5c106 0 186.5 20.667 241.5 62s82.5 100 82.5 176 c0 46.667 -10.833 84.667 -32.5 114s-50.167 53.333 -85.5 72c-35.333 18.6689 -75.166 33.8359 -119.499 45.5c-44.333 11.667 -89.166 23.167 -134.499 34.5c-107.333 28 -183.833 53 -229.5 75s-82.167 47.167 -109.5 75.5s-48 60.833 -62 97.5s-21 79.667 -21 129 c0 115.336 40.5 204.169 121.5 266.5c81 62.333 197.167 93.5 348.5 93.5c141.333 0 249.333 -24.667 324 -74s126.667 -132.666 156 -249.999l-188 -33c-16 74.667 -48 128.834 -96 162.501s-113.667 50.5 -197 50.5c-188.667 0 -283 -71 -283 -213 c0 -40 8.83301 -72.5 26.5 -97.5s41.667 -45.667 72 -62c30.334 -16.333 65.667 -29.833 106 -40.5s83.5 -22 129.5 -34c92.667 -23.333 159.334 -42.833 200 -58.5c40.668 -15.667 76.835 -33.5 108.5 -53.5c31.667 -20 58.834 -43.667 81.501 -71s40.5 -59.333 53.5 -96 s19.5 -80 19.5 -130zM948.996 1466v-20h-105l-219 138h-2l-232 -138h-104v20l254 239h164z" unicode="Ŝ"/>
   <glyph glyph-name="scircumflex" d="M1060 309c0 -102.667 -38.835 -183.168 -116.502 -241.501s-185.167 -87.5 -322.5 -87.5s-241.833 21.5 -313.5 64.5s-118.5 110.833 -140.5 203.5l159 31c12.667 -57.333 39.834 -99.166 81.501 -125.499s112.834 -39.5 213.501 -39.5c180 0 270 57 270 171 c0 42.667 -16.333 77.167 -49 103.5s-82.667 47.833 -150 64.5c-176 43.333 -287.667 77.333 -335 102s-83.666 55.5 -108.999 92.5s-38 83.167 -38 138.5c0 98 35.333 174.667 106 230s173 83 307 83c117.333 0 211 -22.167 281 -66.5s113.667 -108.833 131 -193.5 l-162 -20c-7.33301 48 -31 84.333 -71 109s-99.667 37 -179 37c-163.334 0 -245.001 -50.333 -245.001 -151c0 -40 13.833 -72 41.5 -96s72.167 -43.333 133.5 -58l119 -31c108.667 -26.667 186.834 -53 234.5 -79c47.667 -26 85.167 -58.5 112.5 -97.5 s41 -86.833 41 -143.5zM959.998 1221v-20h-105l-219 138h-2l-232 -138h-104v20l254 239h164z" unicode="ŝ"/>
   <glyph glyph-name="Scedilla" d="M1128 370c0 -122.667 -44.8369 -218.335 -134.504 -287.002s-217.5 -103 -383.5 -103c-304.667 0 -481.667 119.333 -531 358l185 37c18.667 -86 57.334 -148.5 116.001 -187.5s137 -58.5 235 -58.5c106 0 186.5 20.667 241.5 62s82.5 100 82.5 176 c0 46.667 -10.833 84.667 -32.5 114s-50.167 53.333 -85.5 72c-35.333 18.6689 -75.166 33.8359 -119.499 45.5c-44.333 11.667 -89.166 23.167 -134.499 34.5c-107.333 28 -183.833 53 -229.5 75s-82.167 47.167 -109.5 75.5s-48 60.833 -62 97.5s-21 79.667 -21 129 c0 115.336 40.5 204.169 121.5 266.5c81 62.333 197.167 93.5 348.5 93.5c141.333 0 249.333 -24.667 324 -74s126.667 -132.666 156 -249.999l-188 -33c-16 74.667 -48 128.834 -96 162.501s-113.667 50.5 -197 50.5c-188.667 0 -283 -71 -283 -213 c0 -40 8.83301 -72.5 26.5 -97.5s41.667 -45.667 72 -62c30.334 -16.333 65.667 -29.833 106 -40.5s83.5 -22 129.5 -34c92.667 -23.333 159.334 -42.833 200 -58.5c40.668 -15.667 76.835 -33.5 108.5 -53.5c31.667 -20 58.834 -43.667 81.501 -71s40.5 -59.333 53.5 -96 s19.5 -80 19.5 -130zM814.996 -258.001c0 -124 -91.333 -186 -274 -186c-38 0 -68 1.33301 -90 4v98c33.333 -4 62 -6 86 -6c98 0 147 28.667 147 86c0 26.667 -10.167 47 -30.5 61s-54.5 21 -102.5 21c-28.667 0 -47.667 -0.666992 -57 -2l65 182h107l-39 -100 c62.667 -2 109.667 -16.833 141 -44.5s47 -65.5 47 -113.5z" unicode="Ş"/>
   <glyph glyph-name="scedilla" d="M1060 309c0 -102.667 -38.835 -183.168 -116.502 -241.501s-185.167 -87.5 -322.5 -87.5s-241.833 21.5 -313.5 64.5s-118.5 110.833 -140.5 203.5l159 31c12.667 -57.333 39.834 -99.166 81.501 -125.499s112.834 -39.5 213.501 -39.5c180 0 270 57 270 171 c0 42.667 -16.333 77.167 -49 103.5s-82.667 47.833 -150 64.5c-176 43.333 -287.667 77.333 -335 102s-83.666 55.5 -108.999 92.5s-38 83.167 -38 138.5c0 98 35.333 174.667 106 230s173 83 307 83c117.333 0 211 -22.167 281 -66.5s113.667 -108.833 131 -193.5 l-162 -20c-7.33301 48 -31 84.333 -71 109s-99.667 37 -179 37c-163.334 0 -245.001 -50.333 -245.001 -151c0 -40 13.833 -72 41.5 -96s72.167 -43.333 133.5 -58l119 -31c108.667 -26.667 186.834 -53 234.5 -79c47.667 -26 85.167 -58.5 112.5 -97.5 s41 -86.833 41 -143.5zM824.998 -258.001c0 -124 -91.333 -186 -274 -186c-38 0 -68 1.33301 -90 4v98c33.333 -4 62 -6 86 -6c98 0 147 28.667 147 86c0 26.667 -10.167 47 -30.5 61s-54.5 21 -102.5 21c-28.667 0 -47.667 -0.666992 -57 -2l65 182h107l-39 -100 c62.667 -2 109.667 -16.833 141 -44.5s47 -65.5 47 -113.5z" unicode="ş"/>
   <glyph glyph-name="Scaron" d="M1128 370c0 -122.667 -44.8369 -218.335 -134.504 -287.002s-217.5 -103 -383.5 -103c-304.667 0 -481.667 119.333 -531 358l185 37c18.667 -86 57.334 -148.5 116.001 -187.5s137 -58.5 235 -58.5c106 0 186.5 20.667 241.5 62s82.5 100 82.5 176 c0 46.667 -10.833 84.667 -32.5 114s-50.167 53.333 -85.5 72c-35.333 18.6689 -75.166 33.8359 -119.499 45.5c-44.333 11.667 -89.166 23.167 -134.499 34.5c-107.333 28 -183.833 53 -229.5 75s-82.167 47.167 -109.5 75.5s-48 60.833 -62 97.5s-21 79.667 -21 129 c0 115.336 40.5 204.169 121.5 266.5c81 62.333 197.167 93.5 348.5 93.5c141.333 0 249.333 -24.667 324 -74s126.667 -132.666 156 -249.999l-188 -33c-16 74.667 -48 128.834 -96 162.501s-113.667 50.5 -197 50.5c-188.667 0 -283 -71 -283 -213 c0 -40 8.83301 -72.5 26.5 -97.5s41.667 -45.667 72 -62c30.334 -16.333 65.667 -29.833 106 -40.5s83.5 -22 129.5 -34c92.667 -23.333 159.334 -42.833 200 -58.5c40.668 -15.667 76.835 -33.5 108.5 -53.5c31.667 -20 58.834 -43.667 81.501 -71s40.5 -59.333 53.5 -96 s19.5 -80 19.5 -130zM700.996 1445h-164l-254 239v20h104l232 -138h2l219 138h105v-20z" unicode="Š"/>
   <glyph glyph-name="scaron" d="M1060 309c0 -102.667 -38.835 -183.168 -116.502 -241.501s-185.167 -87.5 -322.5 -87.5s-241.833 21.5 -313.5 64.5s-118.5 110.833 -140.5 203.5l159 31c12.667 -57.333 39.834 -99.166 81.501 -125.499s112.834 -39.5 213.501 -39.5c180 0 270 57 270 171 c0 42.667 -16.333 77.167 -49 103.5s-82.667 47.833 -150 64.5c-176 43.333 -287.667 77.333 -335 102s-83.666 55.5 -108.999 92.5s-38 83.167 -38 138.5c0 98 35.333 174.667 106 230s173 83 307 83c117.333 0 211 -22.167 281 -66.5s113.667 -108.833 131 -193.5 l-162 -20c-7.33301 48 -31 84.333 -71 109s-99.667 37 -179 37c-163.334 0 -245.001 -50.333 -245.001 -151c0 -40 13.833 -72 41.5 -96s72.167 -43.333 133.5 -58l119 -31c108.667 -26.667 186.834 -53 234.5 -79c47.667 -26 85.167 -58.5 112.5 -97.5 s41 -86.833 41 -143.5zM705.998 1201h-164l-254 239v20h104l232 -138h2l219 138h105v-20z" unicode="š"/>
   <glyph glyph-name="Tcommaaccent" d="M709 1193v-1193h-190v1193h-443v156h1076v-156h-443zM446 -423v33l79 292h197v-37l-171 -288h-105z" unicode="Ţ"/>
   <glyph glyph-name="tcommaaccent" d="M190 940l0.000976562 141.999h170l58 282h120v-282h432v-142h-432v-652c0 -52.667 14.167 -91.667 42.5 -117s74.833 -38 139.5 -38c89.333 0 188.333 11.333 297 34v-137c-112.667 -30.667 -224.334 -46 -335.001 -46c-108 0 -189 22.833 -243 68.5 s-81 117.834 -81 216.501v671h-168zM480.001 -423.001v33l79 292h197v-37l-171 -288h-105z" unicode="ţ"/>
   <glyph glyph-name="Tcaron" d="M709 1193v-1193h-190v1193h-443v156h1076v-156h-443zM701 1446h-164l-254 239v20h104l232 -138h2l219 138h105v-20z" unicode="Ť"/>
   <glyph glyph-name="tcaron" d="M101 940l0.000976562 141.999h170l58 282h120v-282h432v-142h-432v-652c0 -52.667 14.167 -91.667 42.5 -117s74.833 -38 139.5 -38c89.333 0 188.333 11.333 297 34v-137c-112.667 -30.667 -224.334 -46 -335.001 -46c-108 0 -189 22.833 -243 68.5 s-81 117.834 -81 216.501v671h-168zM945.001 1159v33l79 292h197v-37l-171 -288h-105z" unicode="ť"/>
   <glyph glyph-name="Tbar" d="M709 1193v-424h240v-149h-240v-620h-190v620h-240v149h240v424h-443v156h1076v-156h-443z" unicode="Ŧ"/>
   <glyph glyph-name="tbar" d="M980 647l0.000976562 -132.001h-432v-227c0 -52.667 14.167 -91.667 42.5 -117s74.833 -38 139.5 -38c89.333 0 188.333 11.333 297 34v-137c-112.667 -30.667 -224.334 -46 -335.001 -46c-108 0 -189 22.833 -243 68.5s-81 117.834 -81 216.501v246h-168v132h168v293 h-168v142h170l58 282h120v-282h432v-142h-432v-293h432z" unicode="ŧ"/>
   <glyph glyph-name="Utilde" d="M1085 490c0 -178 -37.999 -307.499 -113.999 -388.499s-198 -121.5 -366 -121.5c-162.667 0 -280.5 39.167 -353.5 117.5s-109.5 203.166 -109.5 374.499v877h191v-851c0 -136 19.5 -230.5 58.5 -283.5s109.833 -79.5 212.5 -79.5c107.333 0 182.666 27.333 225.999 82 s65 152.667 65 294v838h190v-859zM771.001 1446c-28 0 -55.999 6.16699 -83.999 18.5s-55.333 26 -82 41s-52.834 28.667 -78.501 41s-50.167 18.5 -73.5 18.5c-16.667 0 -30 -3.16699 -40 -9.5s-18.333 -15.5 -25 -27.5s-13.667 -39.333 -21 -82h-111 c7.33301 64 18.833 112.333 34.5 145s37.167 58 64.5 76s62 27 104 27c29.333 0 58 -6.16699 86 -18.5s55.333 -26 82 -41c26.6689 -15 52.3359 -28.667 77 -41c24.667 -12.333 48 -18.5 70 -18.5c24.667 0 43.667 7.83301 57 23.5s23.333 47.5 30 95.5h112 c-10.667 -92 -32.5 -156.333 -65.5 -193s-78.5 -55 -136.5 -55z" unicode="Ũ"/>
   <glyph glyph-name="utilde" d="M365 1082l0.000976562 -686.001c0 -104 16.333 -176.167 49 -216.5s91 -60.5 175 -60.5c86 0 154 29.333 204 88s75 141.334 75 248.001v627h181v-851c0 -126 2 -203 6 -231h-170c-0.666992 3.33301 -1.33398 12.333 -2.00098 27s-1.5 31.5 -2.5 50.5 s-2.16699 54.833 -3.5 107.5h-3c-41.335 -74.667 -89.168 -127.5 -143.5 -158.5c-54.333 -31 -121.833 -46.5 -202.5 -46.5c-118.667 0 -205.5 29.5 -260.5 88.5s-82.5 156.5 -82.5 292.5v721h180zM771.001 1201c-28 0 -55.999 6.16699 -83.999 18.5s-55.333 26 -82 41 s-52.834 28.667 -78.501 41s-50.167 18.5 -73.5 18.5c-16.667 0 -30 -3.16699 -40 -9.5s-18.333 -15.5 -25 -27.5s-13.667 -39.333 -21 -82h-111c7.33301 64 18.833 112.333 34.5 145s37.167 58 64.5 76s62 27 104 27c29.333 0 58 -6.16699 86 -18.5s55.333 -26 82 -41 c26.6689 -15 52.3359 -28.667 77 -41c24.667 -12.333 48 -18.5 70 -18.5c24.667 0 43.667 7.83301 57 23.5s23.333 47.5 30 95.5h112c-10.667 -92 -32.5 -156.333 -65.5 -193s-78.5 -55 -136.5 -55z" unicode="ũ"/>
   <glyph glyph-name="Umacron" d="M1085 490c0 -178 -37.999 -307.499 -113.999 -388.499s-198 -121.5 -366 -121.5c-162.667 0 -280.5 39.167 -353.5 117.5s-109.5 203.166 -109.5 374.499v877h191v-851c0 -136 19.5 -230.5 58.5 -283.5s109.833 -79.5 212.5 -79.5c107.333 0 182.666 27.333 225.999 82 s65 152.667 65 294v838h190v-859zM890.001 1503h-551v127h551v-127z" unicode="Ū"/>
   <glyph glyph-name="umacron" d="M365 1082l0.000976562 -686.001c0 -104 16.333 -176.167 49 -216.5s91 -60.5 175 -60.5c86 0 154 29.333 204 88s75 141.334 75 248.001v627h181v-851c0 -126 2 -203 6 -231h-170c-0.666992 3.33301 -1.33398 12.333 -2.00098 27s-1.5 31.5 -2.5 50.5 s-2.16699 54.833 -3.5 107.5h-3c-41.335 -74.667 -89.168 -127.5 -143.5 -158.5c-54.333 -31 -121.833 -46.5 -202.5 -46.5c-118.667 0 -205.5 29.5 -260.5 88.5s-82.5 156.5 -82.5 292.5v721h180zM890.001 1236h-551v127h551v-127z" unicode="ū"/>
   <glyph glyph-name="Ubreve" d="M1085 490c0 -178 -37.999 -307.499 -113.999 -388.499s-198 -121.5 -366 -121.5c-162.667 0 -280.5 39.167 -353.5 117.5s-109.5 203.166 -109.5 374.499v877h191v-851c0 -136 19.5 -230.5 58.5 -283.5s109.833 -79.5 212.5 -79.5c107.333 0 182.666 27.333 225.999 82 s65 152.667 65 294v838h190v-859zM613.001 1446c-82.667 0 -151.833 23.667 -207.5 71s-90.5 110 -104.5 188h127c11.333 -42 31.333 -74.667 60 -98c28.668 -23.333 70.335 -35 125.001 -35c56.667 0 99.167 11.667 127.5 35s48.166 56 59.499 98h127 c-16 -79.333 -51.5 -142.333 -106.5 -189s-124.167 -70 -207.5 -70z" unicode="Ŭ"/>
   <glyph glyph-name="ubreve" d="M365 1082l0.000976562 -686.001c0 -104 16.333 -176.167 49 -216.5s91 -60.5 175 -60.5c86 0 154 29.333 204 88s75 141.334 75 248.001v627h181v-851c0 -126 2 -203 6 -231h-170c-0.666992 3.33301 -1.33398 12.333 -2.00098 27s-1.5 31.5 -2.5 50.5 s-2.16699 54.833 -3.5 107.5h-3c-41.335 -74.667 -89.168 -127.5 -143.5 -158.5c-54.333 -31 -121.833 -46.5 -202.5 -46.5c-118.667 0 -205.5 29.5 -260.5 88.5s-82.5 156.5 -82.5 292.5v721h180zM613.001 1201c-82.667 0 -151.833 23.667 -207.5 71s-90.5 110 -104.5 188 h127c11.333 -42 31.333 -74.667 60 -98c28.668 -23.333 70.335 -35 125.001 -35c56.667 0 99.167 11.667 127.5 35s48.166 56 59.499 98h127c-16 -79.333 -51.5 -142.333 -106.5 -189s-124.167 -70 -207.5 -70z" unicode="ŭ"/>
   <glyph glyph-name="Uring" d="M1085 490c0 -178 -37.999 -307.499 -113.999 -388.499s-198 -121.5 -366 -121.5c-162.667 0 -280.5 39.167 -353.5 117.5s-109.5 203.166 -109.5 374.499v877h191v-851c0 -136 19.5 -230.5 58.5 -283.5s109.833 -79.5 212.5 -79.5c107.333 0 182.666 27.333 225.999 82 s65 152.667 65 294v838h190v-859zM856.001 1506c0 -58 -21.833 -105.833 -65.5 -143.5s-102.5 -56.5 -176.5 -56.5c-74.667 0 -133.667 18.833 -177 56.5s-65 85.5 -65 143.5c0 59.333 22.167 107.333 66.5 144c44.334 36.667 102.834 55 175.5 55 c74 0 132.833 -18.5 176.5 -55.5s65.5 -84.833 65.5 -143.5zM735.001 1506c0 24.667 -10.833 44.666 -32.5 59.999s-51.167 23 -88.5 23c-36.667 0 -66.167 -7.66699 -88.5 -23s-33.5 -35.333 -33.5 -60c0 -25.333 11.167 -45.666 33.5 -60.999s51.833 -23 88.5 -23 c37.333 0 66.833 7.66699 88.5 23c21.667 15.335 32.5 35.668 32.5 61z" unicode="Ů"/>
   <glyph glyph-name="uring" d="M365 1082l0.000976562 -686.001c0 -104 16.333 -176.167 49 -216.5s91 -60.5 175 -60.5c86 0 154 29.333 204 88s75 141.334 75 248.001v627h181v-851c0 -126 2 -203 6 -231h-170c-0.666992 3.33301 -1.33398 12.333 -2.00098 27s-1.5 31.5 -2.5 50.5 s-2.16699 54.833 -3.5 107.5h-3c-41.335 -74.667 -89.168 -127.5 -143.5 -158.5c-54.333 -31 -121.833 -46.5 -202.5 -46.5c-118.667 0 -205.5 29.5 -260.5 88.5s-82.5 156.5 -82.5 292.5v721h180zM856.001 1348c0 -58 -21.833 -105.833 -65.5 -143.5 s-102.5 -56.5 -176.5 -56.5c-74.667 0 -133.667 18.833 -177 56.5s-65 85.5 -65 143.5c0 59.333 22.167 107.333 66.5 144c44.334 36.667 102.834 55 175.5 55c74 0 132.833 -18.5 176.5 -55.5s65.5 -84.833 65.5 -143.5zM735.001 1348 c0 24.667 -10.833 44.666 -32.5 59.999s-51.167 23 -88.5 23c-36.667 0 -66.167 -7.66699 -88.5 -23s-33.5 -35.333 -33.5 -60c0 -25.333 11.167 -45.666 33.5 -60.999s51.833 -23 88.5 -23c37.333 0 66.833 7.66699 88.5 23c21.667 15.3359 32.5 35.6689 32.5 61z" unicode="ů"/>
   <glyph glyph-name="Uhungarumlaut" d="M1085 490c0 -178 -37.999 -307.499 -113.999 -388.499s-198 -121.5 -366 -121.5c-162.667 0 -280.5 39.167 -353.5 117.5s-109.5 203.166 -109.5 374.499v877h191v-851c0 -136 19.5 -230.5 58.5 -283.5s109.833 -79.5 212.5 -79.5c107.333 0 182.666 27.333 225.999 82 s65 152.667 65 294v838h190v-859zM705.001 1446v20l207 239h187v-29l-300 -230h-94zM341.001 1446v20l207 239h187v-29l-300 -230h-94z" unicode="Ű"/>
   <glyph glyph-name="uhungarumlaut" d="M365 1082l0.000976562 -686.001c0 -104 16.333 -176.167 49 -216.5s91 -60.5 175 -60.5c86 0 154 29.333 204 88s75 141.334 75 248.001v627h181v-851c0 -126 2 -203 6 -231h-170c-0.666992 3.33301 -1.33398 12.333 -2.00098 27s-1.5 31.5 -2.5 50.5 s-2.16699 54.833 -3.5 107.5h-3c-41.335 -74.667 -89.168 -127.5 -143.5 -158.5c-54.333 -31 -121.833 -46.5 -202.5 -46.5c-118.667 0 -205.5 29.5 -260.5 88.5s-82.5 156.5 -82.5 292.5v721h180zM711.001 1201v20l207 239h187v-29l-300 -230h-94zM347.001 1201v20l207 239 h187v-29l-300 -230h-94z" unicode="ű"/>
   <glyph glyph-name="Uogonek" d="M1085 490c0 -178 -37.999 -307.499 -113.999 -388.499s-198 -121.5 -366 -121.5c-162.667 0 -280.5 39.167 -353.5 117.5s-109.5 203.166 -109.5 374.499v877h191v-851c0 -136 19.5 -230.5 58.5 -283.5s109.833 -79.5 212.5 -79.5c107.333 0 182.666 27.333 225.999 82 s65 152.667 65 294v838h190v-859zM850.001 -399.999c-42 -18 -88.332 -27 -138.999 -27c-70 0 -122.667 17 -158 51c-35.334 34 -53.001 79.333 -53 136c0.000976562 45.333 13.834 89.833 41.5 133.5c27.667 43.667 65.5 79.167 113.5 106.5h133 c-42.667 -24 -77.834 -56.833 -105.501 -98.5s-41.5 -84.5 -41.5 -128.5c0 -28 8.16699 -50 24.5 -66s39.5 -24 69.5 -24c36 0 74.333 8 115 24v-107z" unicode="Ų"/>
   <glyph glyph-name="uogonek" d="M365 1082l0.000976562 -686.001c0 -104 16.333 -176.167 49 -216.5s91 -60.5 175 -60.5c86 0 154 29.333 204 88s75 141.334 75 248.001v627h181v-851c0 -126 2 -203 6 -231h-170c-0.666992 3.33301 -1.33398 12.333 -2.00098 27s-1.5 31.5 -2.5 50.5 s-2.16699 54.833 -3.5 107.5h-3c-41.335 -74.667 -89.168 -127.5 -143.5 -158.5c-54.333 -31 -121.833 -46.5 -202.5 -46.5c-118.667 0 -205.5 29.5 -260.5 88.5s-82.5 156.5 -82.5 292.5v721h180zM1080 -400.001c-42 -18 -88.332 -27 -138.999 -27 c-70 0 -122.667 17 -158 51s-53 79.333 -53 136c0 45.333 13.833 89.833 41.5 133.5s65.5 79.167 113.5 106.5h133c-42.667 -24 -77.834 -56.833 -105.501 -98.5s-41.5 -84.5 -41.5 -128.5c0 -28 8.16699 -50 24.5 -66s39.5 -24 69.5 -24c36 0 74.333 8 115 24v-107z" unicode="ų"/>
   <glyph glyph-name="Wcircumflex" d="M1018 0h-208c-49.333 184 -86.833 324 -112.5 420s-52.834 208 -81.501 336c-19.3359 -83.333 -37.1689 -158.666 -53.5 -225.999c-16.333 -67.333 -64.166 -244 -143.499 -530h-208l-211 1349h189l109 -835c10.667 -87.333 21.667 -202.666 33 -345.999 c21.334 92 39.167 168 53.5 228c14.334 60 62.167 238.333 143.5 535h175c46 -168.667 82.167 -301.334 108.5 -398.001s55.833 -218.334 88.5 -365.001l35 346l104 835h189zM941 1466v-20h-105l-219 138h-2l-232 -138h-104v20l254 239h164z" unicode="Ŵ"/>
   <glyph glyph-name="wcircumflex" d="M1018 0l-203.999 -0.00195312l-143 471l-57 202l-39 -139l-168 -534h-203l-183 1082h178l93 -607c22 -176 33 -284.667 33 -326c26 106.667 45.333 178 58 214l135 424h193l130 -425c21.333 -70 39.666 -141 54.999 -213c0 20 1.33301 45 4 75s6 60.833 10 92.5 s8 61.834 12 90.501s7 51.334 9 68.001l101 607h176zM941.001 1221v-20h-105l-219 138h-2l-232 -138h-104v20l254 239h164z" unicode="ŵ"/>
   <glyph glyph-name="Ycircumflex" d="M708 584v-584h-188v584l-484 765h205l374 -611l372 611h205zM941 1466v-20h-105l-219 138h-2l-232 -138h-104v20l254 239h164z" unicode="Ŷ"/>
   <glyph glyph-name="ycircumflex" d="M292 -425c-49.333 0 -90.668 3.66699 -124.001 11v135c25.333 -4 53.333 -6 84 -6c52.667 0 102.167 19.667 148.5 59s85.5 102 117.5 188l18 49l-470 1071h192l264 -642c60.668 -149.333 93.335 -234 98.001 -254l41 110l310 786h190l-456 -1082 c-59.333 -156.667 -120.833 -266.667 -184.5 -330s-139.834 -95 -228.5 -95zM940.998 1221v-20h-105l-219 138h-2l-232 -138h-104v20l254 239h164z" unicode="ŷ"/>
   <glyph glyph-name="Ydieresis" d="M708 584v-584h-188v584l-484 765h205l374 -611l372 611h205zM730 1445v184h163v-184h-163zM336 1445v184h165v-184h-165z" unicode="Ÿ"/>
   <glyph glyph-name="Zacute" d="M1155 0h-1082v143l818 1050h-745v156h962v-139l-818 -1054h865v-156zM504 1446v20l227 239h197v-29l-300 -230h-124z" unicode="Ź"/>
   <glyph glyph-name="zacute" d="M147 0v137l681 806h-641v139h844v-137l-682 -806h719v-139h-921zM487 1201v20l227 239h197v-29l-300 -230h-124z" unicode="ź"/>
   <glyph glyph-name="Zdotaccent" d="M1155 0h-1082v143l818 1050h-745v156h962v-139l-818 -1054h865v-156zM528 1446v192h200v-192h-200z" unicode="Ż"/>
   <glyph glyph-name="zdotaccent" d="M147 0v137l681 806h-641v139h844v-137l-682 -806h719v-139h-921zM512 1292v192h200v-192h-200z" unicode="ż"/>
   <glyph glyph-name="Zcaron" d="M1155 0h-1082v143l818 1050h-745v156h962v-139l-818 -1054h865v-156zM711 1445h-164l-254 239v20h104l232 -138h2l219 138h105v-20z" unicode="Ž"/>
   <glyph glyph-name="zcaron" d="M147 0v137l681 806h-641v139h844v-137l-682 -806h719v-139h-921zM702 1201h-164l-254 239v20h104l232 -138h2l219 138h105v-20z" unicode="ž"/>
   <glyph glyph-name="longs" d="M580 0l-180 -0.000976562v1107c0 136.667 32.167 233.667 96.5 291s171.5 86 321.5 86c48 0 99.833 -2.16699 155.5 -6.5s97.5 -9.16602 125.5 -14.499v-145c-20 3.33301 -60.5 7 -121.5 11s-107.167 6 -138.5 6c-69.334 0 -121.667 -7.66699 -157 -23 c-35.3359 -15.333 -61.1689 -40.333 -77.5 -75c-16.333 -34.667 -24.5 -83 -24.5 -145v-1092z" unicode="ſ"/>
   <glyph glyph-name="uni0180" d="M58 1337l126.999 -0.000976562v147h180v-147h305v-131h-305v-145c0 -43.334 -1.33301 -95.667 -4 -156.999h4c60.667 133.333 172 200 334 200c260.667 0 391 -186 391 -558c0 -189.333 -33.833 -331 -101.5 -425s-164.5 -141 -290.5 -141 c-162.667 0 -274 61.333 -334 184h-2c0 -32 -1.16699 -65.333 -3.5 -100s-4.16602 -56 -5.49902 -64h-174c4 36 6 110.333 6 223v983h-127v131zM903.999 539.999c0 148 -20.334 255.833 -61.001 323.5s-105 101.5 -193 101.5c-99.333 0 -171.666 -36.667 -216.999 -110 c-45.333 -73.334 -68 -183.667 -68 -331c0 -140 22.167 -243.5 66.5 -310.5s116.5 -100.5 216.5 -100.5c90 0 155.167 34.833 195.5 104.5s60.5 177.167 60.5 322.5z" unicode="ƀ"/>
   <glyph glyph-name="uni0181" d="M1152 380c0 -120 -45.668 -213.333 -137.001 -280s-218.333 -100 -381 -100h-372v1201c-51.333 0 -88 -11.333 -110 -34s-33 -57.667 -33 -105c0 -32.6689 6 -67.6689 18 -105l-155 -17c-11.333 43.333 -17 85 -17 125c0 88.667 25.833 158.167 77.5 208.5 s124.834 75.5 219.501 75.5h312c330.667 0 496 -109 496 -327c0 -81.334 -23.833 -149.167 -71.5 -203.499c-47.667 -54.335 -113.167 -90.168 -196.5 -107.5c111.333 -12 197.5 -47.667 258.5 -107c61 -59.334 91.5 -134.001 91.5 -224.001zM958.999 397 c0 76 -29.668 134 -89.001 174s-147.666 60 -264.999 60h-152v-478h166c116.667 0 202.5 20.167 257.5 60.5s82.5 101.5 82.5 183.5zM877.998 998c0 71.3359 -25.167 122.169 -75.5 152.5c-50.333 30.333 -125.833 45.5 -226.5 45.5h-123v-416h125c200 0 300 72.667 300 218 z" unicode="Ɓ"/>
   <glyph glyph-name="uni0182" d="M1172 393c0 -122 -42.5 -218 -127.5 -288s-204.167 -105 -357.5 -105h-525v1349h918v-156h-727v-410h322c161.333 0 284.5 -34 369.5 -102s127.5 -164 127.5 -288zM980 387c0 80.667 -27.333 140.167 -82 178.5s-136.667 57.5 -246 57.5h-299v-472h307 c109.333 0 190 18.667 242 56s78 97.333 78 180z" unicode="Ƃ"/>
   <glyph glyph-name="uni0183" d="M1090 546c0 -189.333 -33.834 -331.001 -101.501 -425.001s-164.5 -141 -290.5 -141c-162.667 0 -274 61.333 -334 184h-2c0 -32 -1.16699 -65.333 -3.5 -100s-4.16602 -56 -5.49902 -64h-174c4 36 6 110.333 6 223v1261h734v-159h-554v-264 c0 -43.334 -1.33301 -95.667 -4 -156.999h4c60.667 133.333 172 200 334 200c260.667 0 391 -186 391 -558zM903.999 539.999c0 148 -20.334 255.833 -61.001 323.5s-105 101.5 -193 101.5c-99.333 0 -171.666 -36.667 -216.999 -110c-45.333 -73.334 -68 -183.667 -68 -331 c0 -140 22.167 -243.5 66.5 -310.5s116.5 -100.5 216.5 -100.5c90 0 155.167 34.833 195.5 104.5s60.5 177.167 60.5 322.5z" unicode="ƃ"/>
   <glyph glyph-name="uni0184" d="M1172 393c0 -122 -42.5 -218 -127.5 -288s-204.167 -105 -357.5 -105h-525v951l-158 165v33l293 200h56v-566h322c161.333 0 284.5 -34 369.5 -102s127.5 -164 127.5 -288zM980 387c0 80.667 -27.333 140.167 -82 178.5s-136.667 57.5 -246 57.5h-299v-472h307 c109.333 0 190 18.667 242 56s78 97.333 78 180z" unicode="Ƅ"/>
   <glyph glyph-name="uni0185" d="M1090 546c0 -189.333 -33.834 -331.001 -101.501 -425.001s-164.5 -141 -290.5 -141c-162.667 0 -274 61.333 -334 184h-2c0 -32 -1.16699 -65.333 -3.5 -100s-4.16602 -56 -5.49902 -64h-174c4 36 6 110.333 6 223v863l-128 180v33l257 185h51v-423 c0 -43.334 -1.33301 -95.667 -4 -156.999h4c60.667 133.333 172 200 334 200c260.667 0 391 -186 391 -558zM903.999 539.999c0 148 -20.334 255.833 -61.001 323.5s-105 101.5 -193 101.5c-99.333 0 -171.666 -36.667 -216.999 -110c-45.333 -73.334 -68 -183.667 -68 -331 c0 -140 22.167 -243.5 66.5 -310.5s116.5 -100.5 216.5 -100.5c90 0 155.167 34.833 195.5 104.5s60.5 177.167 60.5 322.5z" unicode="ƅ"/>
   <glyph glyph-name="uni0186" d="M915 681c0 182 -27.333 316.333 -82 403s-139.334 130 -254.001 130c-68.667 0 -129.167 -21.833 -181.5 -65.5s-90.833 -103.167 -115.5 -178.5l-168 65c84.667 223.333 240 335 466 335c357.334 0 536.001 -229.667 536.001 -689c0 -226 -47.167 -399.333 -141.5 -520 c-94.334 -120.667 -229.167 -181 -404.5 -181c-222.667 0 -383.667 124 -483 372l159 65c37.333 -96 83.5 -167 138.5 -213s116.167 -69 183.5 -69c117.333 0 204.5 45.5 261.5 136.5s85.5 227.5 85.5 409.5z" unicode="Ɔ"/>
   <glyph glyph-name="uni0187" d="M303 681c0 -182 28.499 -318.5 85.499 -409.5s144.167 -136.5 261.5 -136.5c67.333 0 128.333 22.833 183 68.5s101 116.834 139 213.501l159 -65c-53.333 -128.667 -120.333 -222.834 -201 -282.501s-174.667 -89.5 -282 -89.5c-175.333 0 -310.166 60.333 -404.499 181 s-141.5 294 -141.5 520c0 459.333 178.667 689 536 689c124 0 226.667 -35 308 -105v9c0 92 22.833 164.333 68.5 217s109.167 79 190.5 79c36 0 76 -5 120 -15v-157c-30 12 -59.333 18 -88 18c-47.333 0 -81.333 -11.833 -102 -35.5s-31 -61.167 -31 -112.5v-233l-168 -65 c-24.667 75.333 -63.167 134.833 -115.5 178.5s-112.833 65.5 -181.5 65.5c-114 0 -198.5 -43 -253.5 -129s-82.5 -220.667 -82.5 -404z" unicode="Ƈ"/>
   <glyph glyph-name="uni0188" d="M130 542c0 180 43.0039 318.333 129.004 415s210.333 145 373 145c116 0 213 -27 291 -81c4.66797 84 29.335 148.667 74 194c44.667 45.333 105.334 68 182.001 68c31.333 0 64.333 -4 99 -12v-150c-24 10.667 -50.333 16 -79 16c-44 0 -75.167 -11.833 -93.5 -35.5 s-27.5 -61.167 -27.5 -112.5v-210l-192 -14c-10.667 60.667 -37.334 108.5 -80.001 143.5s-103.334 52.5 -182.001 52.5c-105.334 0 -182.501 -32.667 -231.501 -98s-73.5 -171 -73.5 -317c0 -148 24.5 -256.167 73.5 -324.5s125.833 -102.5 230.499 -102.5 c72 0 131.667 17.667 179 53s76.666 89.333 87.999 162l190 -12c-8.66895 -64 -32.8359 -122.167 -72.501 -174.5c-39.667 -52.333 -92.167 -93.333 -157.5 -123s-138.333 -44.5 -219 -44.5c-163.333 0 -287.666 48 -372.999 144s-128 235.333 -128 418z" unicode="ƈ"/>
   <glyph glyph-name="uni0189" d="M1125 688c0 -220.667 -51.167 -390.5 -153.5 -509.5s-248.833 -178.5 -439.5 -178.5h-370v597h-135v149h135v603h311c219.333 0 382.833 -54.833 490.5 -164.5s161.5 -275.167 161.5 -496.5zM642 597h-289v-441h162c141.333 0 246.333 44.333 315 133 s103 221.667 103 399c0 176 -36.667 304.167 -110 384.5c-73.334 80.333 -189.667 120.5 -349 120.5h-121v-447h289v-149z" unicode="Ɖ"/>
   <glyph glyph-name="uni018A" d="M1125 688c0 -220.667 -51.168 -390.5 -153.501 -509.5s-248.833 -178.5 -439.5 -178.5h-270v1201c-51.333 0 -88 -11.333 -110 -34s-33 -57.667 -33 -105c0 -32.6689 6 -67.6689 18 -105l-155 -17c-11.333 43.333 -17 85 -17 125c0 88.667 25.833 158.167 77.5 208.5 s124.834 75.5 219.501 75.5h211c219.333 0 382.833 -54.833 490.5 -164.5s161.5 -275.167 161.5 -496.5zM932.999 688c0 176 -36.667 304.167 -110 384.5c-73.334 80.333 -189.667 120.5 -349 120.5h-21v-1037h62c141.333 0 246.333 44.333 315 133s103 221.667 103 399z " unicode="Ɗ"/>
   <glyph glyph-name="uni018B" d="M57 393c0 124 42.5 219.999 127.5 287.999s208.167 102 369.5 102h322v410h-727v156h918v-1349h-525c-152.667 0 -271.667 34.833 -357 104.5s-128 165.834 -128 288.501zM249 386.999c0 -82.667 26 -142.667 78 -180s132.667 -56 242 -56h307v472h-299 c-109.333 0 -191.333 -19.167 -246 -57.5c-54.667 -38.334 -82 -97.834 -82 -178.5z" unicode="Ƌ"/>
   <glyph glyph-name="uni018C" d="M862 174c-32.667 -70 -76 -120.835 -130 -152.502s-121.333 -47.5 -202 -47.5c-134.667 0 -233.667 46.333 -297 139s-95 232.334 -95 419.001c0 377.334 130.667 566.001 392 566.001c80.667 0 148.167 -14.333 202.5 -43c54.333 -28.6689 97.833 -75.6689 130.5 -141h2 l-2 151v260h-554v159h734v-1261c0 -112.667 2 -187 6 -223h-172c-2 4 -4.16699 27 -6.5 69s-3.5 77 -3.5 105h-5zM324 537.998c0 -149.333 19.833 -257.499 59.5 -324.499s104.167 -100.5 193.5 -100.5c97.333 0 169.333 35.167 216 105.5s70 182.166 70 335.499 c0 142.667 -22.333 246.834 -67 312.5c-44.667 65.667 -117 98.5 -217 98.5c-90 0 -155 -34.333 -195 -103s-60 -176.667 -60 -324z" unicode="ƌ"/>
   <glyph glyph-name="uni018D" d="M1097 542c0 -341.333 -146.333 -521.999 -438.999 -541.999l351 -293v-132h-776v145h519c-66.667 59.333 -137 118.166 -211 176.499s-146 116.833 -216 175.5c-72.667 60.667 -123.334 126.167 -152.001 196.5s-43 161.5 -43 273.5c0 186 42.167 325.833 126.5 419.5 s203.833 140.5 358.5 140.5c162.667 0 283.667 -46.333 363 -139s119 -233 119 -421zM908 542.001c0 143.333 -22.834 250.334 -68.501 321.001s-119.5 106 -221.5 106s-177.333 -35 -226 -105s-73 -177.333 -73 -322c0 -133.334 24.333 -235.001 73 -305.001 s120.334 -105 215.001 -105c103.333 0 179.333 33.833 228 101.5s73 170.5 73 308.5z" unicode="ƍ"/>
   <glyph glyph-name="uni018E" d="M107 0v156h769v461h-668v154h668v422h-728v156h919v-1349h-960z" unicode="Ǝ"/>
   <glyph glyph-name="uni018F" d="M155 1134c50.667 78 112.168 136.833 184.501 176.5s160.166 59.5 263.499 59.5c348 0 522 -229.667 522 -689c0 -224.667 -44.167 -397.667 -132.5 -519c-88.334 -121.333 -215.167 -182 -380.5 -182s-291.5 59 -378.5 177s-130.5 291.333 -130.5 520v80h821 c-13.333 304.667 -122 457 -326 457c-132 0 -231.333 -56.667 -298 -170zM613.001 135c194 0 297.668 156.001 311.001 468.001h-623c7.33301 -154.667 37.5 -271.334 90.5 -350.001s126.833 -118 221.499 -118z" unicode="Ə"/>
   <glyph glyph-name="uni0190" d="M608 -20c-158.667 0 -284.166 34.8301 -376.499 104.497s-138.5 165.167 -138.5 286.5c0 88.667 30.167 163.667 90.5 225s137.5 98 231.5 110c-186.667 44.667 -280 142.667 -280 294c0 108.667 43.667 197.334 131 266.001c87.334 68.667 203.334 103 348 103 c130 0 236.333 -26 319 -78s148 -137.333 196 -256l-168 -65c-35.333 87.333 -82 149.833 -140 187.5s-128 56.5 -210 56.5c-88 0 -157.5 -20.167 -208.5 -60.5s-76.5 -94.833 -76.5 -163.5c0 -145.333 118 -218 354 -218h71v-148h-71c-134.667 0 -234 -20.167 -298 -60.5 s-96 -102.166 -96 -185.499c0 -74.667 29.5 -134.167 88.5 -178.5s139.167 -66.5 240.5 -66.5c175.333 0 302.666 90.667 381.999 272l155 -77c-58 -125.333 -131.167 -214.666 -219.5 -267.999s-196.5 -80 -324.5 -80z" unicode="Ɛ"/>
   <glyph glyph-name="uni0191" d="M385 1193l0.000976562 -494h676v-158h-676v-671c0 -95.333 -23.833 -168.333 -71.5 -219s-115.167 -76 -202.5 -76c-40.667 0 -88.334 6.66699 -143.001 20l35 156c34 -11.333 63 -17 87 -17c69.333 0 104 52.333 104 157v1458h891v-156h-700z" unicode="Ƒ"/>
   <glyph glyph-name="florin" d="M909 1369c52.667 0 105.999 -7.66797 159.999 -23.001l-40 -136c-36 12.667 -79.333 19 -130 19c-56 0 -96.667 -10.167 -122 -30.5c-25.3359 -20.333 -44.6689 -62.166 -57.999 -125.499l-27 -137h302l-25 -131h-303l-243 -1230h-180l243 1230h-252l27 131h251l29 152 c24 102.667 65.833 175.167 125.5 217.5s140.5 63.5 242.5 63.5z" unicode="ƒ"/>
   <glyph glyph-name="uni0193" d="M1101 133c-152.667 -102 -306.667 -153 -462 -153c-166.667 0 -296 61.833 -388 185.5s-138 295.5 -138 515.5c0 231.333 44 404 132 518s220.333 171 397 171c124.667 0 225.667 -33.667 303 -101v9c0 92 22.833 164.333 68.5 217s109.167 79 190.5 79 c36 0 76 -5 120 -15v-157c-37.333 12 -66.666 18 -87.999 18c-47.333 0 -81.333 -11.833 -102 -35.5s-31 -61.167 -31 -112.5v-233l-171 -56c-54 154 -150 231 -288 231c-112.667 0 -195.834 -42 -249.501 -126s-80.5 -219.667 -80.5 -407c0 -364 113.667 -546 341 -546 c44 0 89.333 6.5 136 19.5s88 31.167 124 54.5v336h-293v160h479v-572z" unicode="Ɠ"/>
   <glyph glyph-name="uni0194" d="M616 -425c-77.333 0 -138.166 22.665 -182.499 67.998s-66.5 106 -66.5 182c0 66.667 25.667 147.334 77 242.001l70 132l-509 1150h201l410 -969l406 969h201l-509 -1149l72 -131c52.667 -95.333 79 -176.666 79 -243.999c0 -76 -22.333 -136.667 -67 -182 s-105.334 -68 -182.001 -68zM702 -173.002c0 27.333 -4.5 56.835 -13.5 88.502s-33.167 87.834 -72.5 168.501c-38.667 -80.667 -62.667 -136.834 -72 -168.501s-14 -61.167 -14 -88.5c0 -32.667 7.66699 -57.834 23 -75.501s36.333 -26.5 63 -26.5s47.667 8.66699 63 26 s23 42.666 23 75.999z" unicode="Ɣ"/>
   <glyph glyph-name="uni0195" d="M841 -20c-66.667 0 -120.5 12.8311 -161.5 38.498s-71.333 64.334 -91 116.001s-29.5 127.167 -29.5 226.5v345c0 99.333 -10 167 -30 203s-53.333 54 -100 54c-46 0 -83.333 -29 -112 -87s-43 -137.333 -43 -238v-638h-169v1484h169v-386 c0 -81.333 -2.33301 -138.333 -7 -171h3c52 116.667 126.667 175 224 175c80.667 0 139.834 -28.667 177.5 -86c37.667 -57.333 56.5 -149 56.5 -275v-357c0 -101.333 8.66699 -171.166 26 -209.499s46 -57.5 86 -57.5c41.333 0 70.833 20 88.5 60s26.5 109 26.5 207v698 h169v-717c0 -256.667 -94.333 -385 -283 -385z" unicode="ƕ"/>
   <glyph glyph-name="uni0196" d="M736 142h380v-142h-982v142h422v1200h-289v142h469v-1342z" unicode="Ɩ"/>
   <glyph glyph-name="uni0197" d="M202 1349h823v-156h-316v-410h207v-141h-207v-486h316v-156h-823v156h316v486h-207v141h207v410h-316v156z" unicode="Ɨ"/>
   <glyph glyph-name="uni0198" d="M1003 0l-479 627l-171 -178v-449h-191v1074c0 95.333 25.333 168.5 76 219.5s122.667 76.5 216 76.5c44 0 88 -5 132 -15v-165c-33.333 12 -69 18 -107 18c-84 0 -126 -49.333 -126 -148v-404l572 693h225l-496 -587l573 -762h-224z" unicode="Ƙ"/>
   <glyph glyph-name="uni0199" d="M914 0l-366 499l-132 -98v-401h-180v1188c0 95.333 25.333 168.5 76 219.5s122.667 76.5 216 76.5c44 0 88 -5 132 -15v-165c-33.333 12 -72 18 -116 18c-85.333 0 -128 -49.333 -128 -148v-617l475 525h211l-439 -465l462 -617h-211z" unicode="ƙ"/>
   <glyph glyph-name="uni019A" d="M736 813h209v-141h-209v-530h380v-142h-982v142h422v530h-226v141h226v529h-289v142h469v-671z" unicode="ƚ"/>
   <glyph glyph-name="uni019B" d="M814 1275l-160 -60l452 -1215h-190l-207 579c-27.333 74.667 -49 146 -65 214c-10 -30.667 -22 -63.5 -36 -98.5s-116.333 -266.5 -307 -694.5h-187l449 970l-69 190l-183 -68l-46 118l188 69l-73 205h177l54 -147l157 57z" unicode="ƛ"/>
   <glyph glyph-name="uni019C" d="M799 -20c-90.667 0 -156.667 55.667 -198 167c-21.333 -50.667 -51.5 -91.167 -90.5 -121.5s-84.167 -45.5 -135.5 -45.5c-101.333 0 -175 35.5 -221 106.5s-69 179.5 -69 325.5v937h163v-921c0 -103.333 10.5 -178 31.5 -224s58.167 -69 111.5 -69 c48.667 0 84 21.667 106 65s33 110 33 200v949h162v-933c0 -97.333 10.167 -168.5 30.5 -213.5s54.5 -67.5 102.5 -67.5c99.333 0 149 94.333 149 283v931h162v-1118c0 -80 3 -157 9 -231h-138l-8 134c-41.333 -102.667 -108 -154 -200 -154z" unicode="Ɯ"/>
   <glyph glyph-name="uni019D" d="M836 0l-520.001 1130c10.667 -117.333 16 -202 16 -254v-1006c0 -97.333 -22.667 -170.833 -68 -220.5s-110.666 -74.5 -195.999 -74.5c-47.333 0 -87.666 3.66699 -120.999 11v162c29.333 -9.33301 62.666 -14 99.999 -14c76.667 0 115 52.333 115 157v1458h222 l528 -1138c-12 96 -18 187.333 -18 274v864h172v-1349h-230z" unicode="Ɲ"/>
   <glyph glyph-name="uni019E" d="M868 -425v1120c0 90.667 -17.5 158 -52.5 202s-90.833 66 -167.5 66c-82.667 0 -150.5 -30.167 -203.5 -90.5s-79.5 -142.166 -79.5 -245.499v-627h-180v851c0 126 -2 203 -6 231h170c0.666992 -3.33301 1.33398 -12.333 2.00098 -27s1.5 -31.5 2.5 -50.5 s2.16699 -54.833 3.5 -107.5h3c70 136.667 185.333 205 345.999 205c115.333 0 201.333 -31.167 258 -93.5c56.667 -62.334 85 -158.167 85 -287.5v-1146h-181z" unicode="ƞ"/>
   <glyph glyph-name="uni019F" d="M1126 681c0 -224.667 -44.166 -397.667 -132.499 -519c-88.334 -121.333 -215.167 -182 -380.5 -182c-166 0 -292.667 59.667 -380 179s-131 293.333 -131 522c0 230 44.167 402.333 132.5 517s215.166 172 380.499 172c164.667 0 291 -57.833 379 -173.5 s132 -287.5 132 -515.5zM614.001 135c194 0 297.666 156.001 310.999 468.001h-622c7.33301 -154.667 37.333 -271.334 90 -350.001s126.334 -118 221.001 -118zM615 1214c-97.334 0 -171.834 -37.5 -223.5 -112.5c-51.667 -75 -81.167 -189.833 -88.5 -344.5h622 c-14.667 304.667 -118 457 -310 457z" unicode="Ɵ"/>
   <glyph glyph-name="Ohorn" d="M1126 681c0 -224.667 -44.166 -397.668 -132.499 -519.001c-88.334 -121.333 -215.167 -182 -380.5 -182c-166 0 -292.667 59.667 -380 179s-131 293.333 -131 522c0 230 44.167 402.333 132.5 517s215.166 172 380.499 172c221.333 0 371.333 -101.667 450 -305 c54.667 42 82 101 82 177h-88v167h195v-106c0 -141.333 -54 -248.666 -162 -321.999c22.667 -84.667 34 -184.667 34 -300zM925.001 680.999c0 355.333 -103.333 533.001 -310 533.001c-208 0 -312 -177.667 -312 -533c0 -180 26.333 -316 79 -408s130 -138 232 -138 c108.667 0 187.667 46.667 237 140s74 228.666 74 405.999z" unicode="Ơ"/>
   <glyph glyph-name="ohorn" d="M1097 542c0 -182 -41.833 -321.166 -125.5 -417.499s-204.5 -144.5 -362.5 -144.5c-154.667 0 -273.167 48.667 -355.5 146s-123.5 236 -123.5 416c0 186 42.167 325.833 126.5 419.5s203.833 140.5 358.5 140.5c264.667 0 420 -125.667 466 -377 c63.333 44.667 95 110 95 196h-88v167h195v-106c0 -76 -16 -143.833 -48 -203.5s-79.333 -107.834 -142 -144.501c2.66699 -29.333 4 -60 4 -92zM908 542.001c0 143.333 -22.833 250.334 -68.5 321.001s-119.5 106 -221.5 106s-177.333 -35 -226 -105s-73 -177.333 -73 -322 c0 -140 24 -246.5 72 -319.5s120 -109.5 216 -109.5c106 0 182.667 35.667 230 107s71 178.666 71 321.999z" unicode="ơ"/>
   <glyph glyph-name="uni01A2" d="M791 75c-88.667 -63.333 -181.999 -95 -279.999 -95c-150.667 0 -265.167 59.667 -343.5 179s-117.5 293.333 -117.5 522c0 216 40.333 384.833 121 506.5s190.667 182.5 330 182.5c83.333 0 162.666 -23.667 237.999 -71l355 64h43v-1787h-180v1587h-166v-1088z M611.001 1171c-28.667 28.667 -66.666 43.001 -113.999 43.001c-78.667 0 -140.5 -47 -185.5 -141s-67.5 -224.667 -67.5 -392c0 -168.667 23.5 -301.834 70.5 -399.501s112.5 -146.5 196.5 -146.5c41.333 0 74.666 10.667 99.999 32v1004z" unicode="Ƣ"/>
   <glyph glyph-name="uni01A3" d="M987 -425v1343h-179v-855c-38 -26 -82.5 -46.333 -133.5 -61s-103.5 -22 -157.5 -22c-158 0 -277.333 48.167 -358 144.5s-121 235.5 -121 417.5c0 373.334 161.667 560.001 485 560.001c54.667 0 106.834 -7.16699 156.5 -21.5c49.667 -14.333 91.5 -31.833 125.5 -52.5 l314 65h42v-1518h-174zM526 968.999c-105.333 0 -181.5 -34.499 -228.5 -103.499s-70.5 -176.833 -70.5 -323.5c0 -142.667 23.167 -249.834 69.5 -321.501c46.334 -71.667 119.167 -107.5 218.5 -107.5c42.667 0 82.667 7.33301 120 22l-1 814 c-34.667 13.333 -70.667 20 -108 20z" unicode="ƣ"/>
   <glyph glyph-name="uni01A4" d="M1129 945c0 -83.334 -19.832 -157.667 -59.499 -223s-96.334 -116.333 -170.001 -153s-158.834 -55 -255.501 -55h-191v-514h-191v1201c-51.333 0 -88 -11.333 -110 -34s-33 -57.667 -33 -105c0 -32.6689 6 -67.6689 18 -105l-155 -17c-11.333 43.333 -17 85 -17 125 c0 88.667 25.833 158.167 77.5 208.5s124.834 75.5 219.501 75.5h370c158.667 0 281.167 -35.5 367.5 -106.5s129.5 -170.167 129.5 -297.5zM937.001 942c0 169.333 -109.333 254 -328 254h-156v-531h164c99.333 0 177.5 24.333 234.5 73s85.5 116.667 85.5 204z" unicode="Ƥ"/>
   <glyph glyph-name="uni01A5" d="M1090 546c0 -377.333 -130.667 -566.001 -392 -566.001c-82 0 -151.167 15.667 -207.5 47s-97.5 77 -123.5 137h-5c2.66699 -5.33301 4 -60.666 4 -165.999v-423h-181v1613c0 96.667 24.333 170.167 73 220.5s120.667 75.5 216 75.5c36 0 67 -2.66699 93 -8l37 -8v-166 c-37.333 13.333 -76 20 -116 20c-83.333 0 -125 -49.333 -125 -148v-270h4c33.333 68.667 75.833 119.167 127.5 151.5s119.5 48.5 203.5 48.5c132 0 230.333 -45.5 295 -136.5s97 -231.5 97 -421.5zM904 545.999c0 147.333 -19.999 254 -59.999 320s-104.333 99 -193 99 c-100.667 0 -173.334 -36.5 -218.001 -109.5s-67 -183.5 -67 -331.5c0 -142 22.333 -246 67 -312s116.667 -99 216 -99c88.667 0 153.334 33.667 194 101c40.667 67.333 61 178 61 332z" unicode="ƥ"/>
   <glyph glyph-name="uni01A6" d="M969 -319l-381.998 741h-234v-422h-191v1349h191v-153h291c155.333 0 273.666 -32.167 354.999 -96.5s122 -156.5 122 -276.5c0 -98 -31.333 -181.333 -94 -250s-147.334 -111.667 -254.001 -129l416 -763h-220zM929.002 820c0 148.667 -101.333 223 -304 223h-272v-470 h280c97.333 0 171 21.333 221 64s75 103.667 75 183z" unicode="Ʀ"/>
   <glyph glyph-name="uni01A7" d="M100 365c0 54 8.49805 102.166 25.498 144.499s41.333 79.166 73 110.499s74.334 59.333 128.001 84s134.167 49.667 241.5 75c46 10.6729 90.167 21.3398 132.5 32c42.333 10.6729 80 24.3398 113 41c33 16.667 59.333 37.667 79 63s29.5 58 29.5 98 c0 142 -94.333 213 -283 213c-178.667 0 -283 -71 -313 -213l-183 33c31.333 114.667 86.5 197.334 165.5 248.001s190.833 76 335.5 76c150 0 264.833 -31.167 344.5 -93.5s119.5 -151.166 119.5 -266.499c0 -64.667 -14.167 -121 -42.5 -169s-72.833 -88.333 -133.5 -121 s-149.334 -61.667 -266.001 -87c-115.333 -25.333 -194.666 -48.333 -237.999 -69s-77.333 -46.667 -102 -78s-37 -71 -37 -119c0 -76.667 28.5 -135.5 85.5 -176.5s138.5 -61.5 244.5 -61.5c98 0 175.5 20 232.5 60s94.5 102 112.5 186l180 -37 c-49.333 -238.667 -225.666 -358 -528.999 -358c-164.667 0 -291.667 33 -381 99s-134 161.333 -134 286z" unicode="Ƨ"/>
   <glyph glyph-name="uni01A8" d="M169 284c0 41.333 7.16992 78.501 21.5029 111.501s35.666 62.667 63.999 89s64.833 50.166 109.5 71.499s115.667 45 213 71c43.333 11.333 83 21.833 119 31.5c36 9.67188 67 21.3389 93 35c26 13.6689 46.167 30.3359 60.5 50 c14.333 19.6699 21.5 44.8369 21.5 75.501c0 97.333 -81.667 146 -245 146c-146 0 -229.333 -48.667 -250 -146l-158 22c17.333 84 61 148 131 192s163.667 66 281 66c272.667 0 409 -97.667 409 -293c0 -56.667 -14.833 -105.334 -44.5 -146.001 s-71.834 -75.167 -126.501 -103.5c-54.667 -28.334 -164.667 -62.834 -330 -103.5c-69.333 -17.333 -120 -39.166 -152 -65.499s-48 -60.5 -48 -102.5c0 -54 23.667 -96 71 -126s113.666 -45 198.999 -45c88.667 0 156.5 13.667 203.5 41s77.5 68.666 91.5 123.999l155 -34 c-22 -90.667 -68.167 -157.5 -138.5 -200.5c-70.334 -43 -174.167 -64.5 -311.5 -64.5c-140 0 -248.167 25.333 -324.5 76s-114.5 126.667 -114.5 228z" unicode="ƨ"/>
   <glyph glyph-name="uni01A9" d="M108 0v162l538 549l-521 477v161h999v-156h-784l458 -415v-124l-490 -498h877v-156h-1077z" unicode="Ʃ"/>
   <glyph glyph-name="uni01AA" d="M223 1302c0 60 18.5 106.834 55.5 140.501s86.833 50.5 149.5 50.5c89.333 0 156 -25.333 200 -76s66 -121.667 66 -213v-1328c0 -45.333 9.83301 -80.5 29.5 -105.5c19.668 -25 48.835 -37.5 87.5 -37.5c36 0 71.333 4.33301 106 13v-158 c-46 -8.66699 -90.667 -13 -134 -13c-85.333 0 -151.5 25.5 -198.5 76.5s-70.5 124.167 -70.5 219.5v1277c-10 -7.33301 -25.167 -14 -45.5 -20s-39.5 -9 -57.5 -9c-56 0 -101.333 17.167 -136 51.5c-34.667 34.3379 -52 78.1709 -52 131.499zM300 1307 c0 -32.667 10 -59 30 -79s46 -30 78 -30c32.667 0 59 10 79 30s30 46.333 30 79c0 32 -9.83301 58 -29.5 78s-46.167 30 -79.5 30c-32 0 -58 -10 -78 -30s-30 -46 -30 -78z" unicode="ƪ"/>
   <glyph glyph-name="uni01AB" d="M190 940l0.00195312 141.999h170l58 282h120v-282h432v-142h-432v-652c0 -52.667 14.167 -91.667 42.5 -117s74.833 -38 139.5 -38c89.333 0 188.333 11.333 297 34v-310c0 -188 -84.333 -282 -253 -282c-44.667 0 -89.667 5.66699 -135 17v160 c37.333 -12 72.666 -18 105.999 -18c40 0 69 11 87 33s27 56.667 27 104v125c-60.667 -8 -116.334 -12 -167.001 -12c-108 0 -189 22.833 -243 68.5s-81 117.834 -81 216.501v671h-168z" unicode="ƫ"/>
   <glyph glyph-name="uni01AC" d="M709 1193l-0.000976562 -1193h-190v1193h-202c-51.333 0 -88 -10 -110 -30s-33 -53.667 -33 -101c0 -32.6689 6 -67.6689 18 -105l-155 -17c-11.333 49.333 -17 94.333 -17 135c0 89.333 25.833 157.333 77.5 204s127.834 70 228.501 70h826v-156h-443z" unicode="Ƭ"/>
   <glyph glyph-name="uni01AD" d="M190 940l0.000976562 141.999h175v110c0 101.336 23.333 177.669 70 229c46.667 51.333 114.667 77 204 77c44 0 84 -4.66699 120 -14v-168c-37.333 13.333 -71.333 20 -102 20c-42 0 -72.333 -12.167 -91 -36.5s-28 -61.5 -28 -111.5v-106h432v-142h-432v-652 c0 -52.667 14.167 -91.667 42.5 -117s74.833 -38 139.5 -38c89.333 0 188.333 11.333 297 34v-137c-112.667 -30.667 -224.334 -46 -335.001 -46c-108 0 -189 22.833 -243 68.5s-81 117.834 -81 216.501v671h-168z" unicode="ƭ"/>
   <glyph glyph-name="uni01AE" d="M709 1193v-1302c0 -54 8 -93.667 24 -119s41.333 -38 76 -38c40 0 76.667 5.33301 110 16v-158c-46.667 -11.333 -90.667 -17 -132 -17c-86 0 -152.167 24.667 -198.5 74s-69.5 119.333 -69.5 210v1334h-443v156h1076v-156h-443z" unicode="Ʈ"/>
   <glyph glyph-name="Uhorn" d="M1025 1019c63.333 19.333 109.833 47.502 139.5 84.502s44.5 83.167 44.5 138.5h-88v167h195v-106c0 -102 -24.333 -185 -73 -249c-48.6689 -64 -121.336 -107 -218 -129v-435c0 -176.667 -35.5 -305.834 -106.5 -387.501s-185.5 -122.5 -343.5 -122.5 c-151.333 0 -261.333 39 -330 117s-103 203 -103 375v877h191v-851c0 -138.667 17.5 -233.834 52.5 -285.501s97.833 -77.5 188.5 -77.5c96.667 0 164.334 27 203 81c38.667 54 58 152.333 58 295v838h190v-330z" unicode="Ư"/>
   <glyph glyph-name="uhorn" d="M360 1082l0.000976562 -685.999c0 -104.667 14.333 -177 43 -217s82.334 -60 161.001 -60c80.667 0 144 29.5 190 88.5s69 141.5 69 247.5v627h181v-396c54.667 23.333 93.667 52.333 117 87s35 82 35 142h-88v167h195v-106c0 -99.333 -20.5 -179.833 -61.5 -241.5 s-106.833 -108.834 -197.5 -141.501v-362c0 -126 2 -203 6 -231h-170c-0.666992 3.33301 -1.33398 12.333 -2.00098 27s-1.5 31.5 -2.5 50.5s-2.16699 54.833 -3.5 107.5h-3c-42.667 -76.667 -89.334 -130 -140.001 -160s-112.667 -45 -186 -45 c-113.333 0 -195.5 29.5 -246.5 88.5s-76.5 156.5 -76.5 292.5v721h180z" unicode="ư"/>
   <glyph glyph-name="uni01B1" d="M614 -21c-163.333 0 -292.833 53.999 -388.5 161.999s-143.5 253.667 -143.5 437c0 126 29 243.833 87 353.5s141.333 200.5 250 272.5c-78 -7.33301 -131.667 -11 -161 -11h-200v156h483v-224c-89.333 -65.333 -155.666 -142 -198.999 -230s-65 -189.333 -65 -304 c0 -149.333 28.667 -262.666 86 -339.999c57.334 -77.333 140.667 -116 250 -116c112 0 196.333 39.333 253 118s85 191.334 85 338.001c0 115.333 -21.833 216.833 -65.5 304.5c-43.667 87.668 -109.834 164.168 -198.501 229.5v224h483v-156h-200 c-29.333 0 -83 3.66699 -161 11c108.667 -72.668 192 -163.835 250 -273.501c58 -109.667 87 -227.167 87 -352.5c0 -184 -47.833 -329.833 -143.5 -437.5s-225.167 -161.5 -388.5 -161.5z" unicode="Ʊ"/>
   <glyph glyph-name="uni01B2" d="M601 -20c-158.667 0 -274.832 41.5 -348.499 124.5s-110.5 208.833 -110.5 377.5v867h191v-851c0 -126.667 20.667 -218.834 62 -276.501c41.334 -57.667 110.667 -86.5 208 -86.5c73.333 0 134.666 25.833 183.999 77.5s86.5 133.334 111.5 245.001 s37.5 263.167 37.5 454.5c0 104.667 -13.167 180.667 -39.5 228s-69.5 71 -129.5 71c-38.667 0 -74.667 -3.33301 -108 -10l-7 157c44.667 8 93 12 145 12c219.333 0 329 -148.333 329 -445c0 -186 -10.5 -335.5 -31.5 -448.5s-52.667 -205.333 -95 -277 s-96.333 -126.167 -162 -163.5s-144.5 -56 -236.5 -56z" unicode="Ʋ"/>
   <glyph glyph-name="uni01B3" d="M1123 1370c42 0 81.3311 -7.5 117.998 -22.5s74.667 -39.5 114 -73.5l-84 -136c-51.333 46 -96.666 69 -135.999 69c-31.333 0 -55.666 -7.66699 -72.999 -23s-33.333 -35 -48 -59l-342 -541v-584h-188v584l-484 765h205l374 -611l288 475c32 52.667 68 92 108 118 s89.333 39 148 39z" unicode="Ƴ"/>
   <glyph glyph-name="uni01B4" d="M298 -425c-46.667 0 -86.667 3.66699 -120 11v135c25.333 -4 52 -6 80 -6c116.667 0 207 84 271 252l17 44l-470 1071h192l264 -642c10.667 -26.667 42.667 -109.334 96 -248.001h2c10 42.667 40.333 133.334 91 272.001l273 777c29.333 82 66.333 143 111 183 s104 60 178 60c86.667 0 166 -31 238 -93l-82 -128c-45.333 41.333 -92 62 -140 62c-64.667 0 -114 -45.667 -148 -137l-439 -1188c-58 -158 -118.833 -268.333 -182.5 -331s-140.834 -94 -231.5 -94z" unicode="ƴ"/>
   <glyph glyph-name="uni01B5" d="M123 757h428l340 436h-745v156h962v-139l-352 -453h349v-133h-452l-363 -468h865v-156h-1082v143l374 481h-324v133z" unicode="Ƶ"/>
   <glyph glyph-name="uni01B6" d="M165 617h387l276 326h-641v139h844v-137l-278 -328h286v-133h-398l-292 -345h719v-139h-921v137l293 347h-275v133z" unicode="ƶ"/>
   <glyph glyph-name="uni01B7" d="M396 699l500 493.999h-775v156h988v-161l-505 -489c177.333 -11.333 310.833 -62.333 400.5 -153s134.5 -219 134.5 -385c0 -114.667 -23.5 -216.5 -70.5 -305.5s-114 -158.167 -201 -207.5s-185.833 -74 -296.5 -74c-92 0 -172.167 12.167 -240.5 36.5 s-126.5 60 -174.5 107s-92.333 114.5 -133 202.5l162 75c42 -95.333 94 -164.5 156 -207.5s137.667 -64.5 227 -64.5c117.333 0 210.5 38.833 279.5 116.5s103.5 184.834 103.5 321.501c0 131.333 -38.667 230.333 -116 297s-199 100 -365 100h-74v141z" unicode="Ʒ"/>
   <glyph glyph-name="uni01B8" d="M831 558h-74c-158.667 0 -281.5 -37.167 -368.5 -111.5s-130.5 -179.5 -130.5 -315.5c0 -130 33.333 -230.5 100 -301.5s161 -106.5 283 -106.5c88.667 0 164.5 22.167 227.5 66.5s114.833 112.833 155.5 205.5l161 -75c-56 -121.333 -129.5 -209.333 -220.5 -264 s-203.167 -82 -336.5 -82c-173.333 0 -309.666 48.667 -408.999 146s-149 232 -149 404c0 160.667 49.167 291.5 147.5 392.5s233.166 160.5 404.499 178.5l-504 493v161h988v-156h-775l500 -494v-141z" unicode="Ƹ"/>
   <glyph glyph-name="uni01B9" d="M1038 941l-694.001 0.000976562l393 -386v-144h-82c-108 0 -192.667 -31.5 -254 -94.5s-92 -146.833 -92 -251.5c0 -109.333 27 -195.5 81 -258.5s126.667 -94.5 218 -94.5c182 0 285 84 309 252l177 -12c-15.333 -124.667 -65 -218.667 -149 -282s-198.333 -95 -343 -95 c-145.333 0 -260.666 42.5 -345.999 127.5s-128 199.167 -128 342.5c0 138 38 251.5 114 340.5s177.667 141.833 305 158.499l-382 362v176h873v-141z" unicode="ƹ"/>
   <glyph glyph-name="uni01BA" d="M1128 -101c-26.6709 -103.333 -84.8418 -183.335 -174.504 -240.002c-89.667 -56.667 -204.5 -85 -344.5 -85c-92 0 -173.833 12.667 -245.5 38s-125 60.833 -160 106.5s-52.5 99.167 -52.5 160.5c0 52.667 14.167 97.334 42.5 134.001s67.333 68 117 94 s130.834 53.333 243.501 82c114 28 190 55.5 228 82.5s57 59.833 57 98.5c0 49.334 -32.5 84.167 -97.5 104.5s-161.833 30.5 -290.5 30.5v139l356 298h-626v140h868v-119l-396 -322c118.667 -8.66699 208.334 -36.167 269 -82.5c60.667 -46.333 91 -109.166 91 -188.499 c0 -54.667 -13.167 -100 -39.5 -136s-62.5 -66 -108.5 -90s-127.667 -50.333 -245 -79c-91.333 -22.667 -153.166 -41.667 -185.499 -57s-57.166 -33.833 -74.499 -55.5s-26 -48.5 -26 -80.5c0 -48.667 23.333 -86.667 70 -114s115.334 -41 206.001 -41 c182.667 0 296 67 340 201z" unicode="ƺ"/>
   <glyph glyph-name="uni01BB" d="M123 757l616.999 -0.000976562c91.333 79.333 137 161.666 137 246.999c0 72 -22.667 126.333 -68 163s-111.333 55 -198 55c-76 0 -137.5 -20.833 -184.5 -62.5s-74.833 -100.167 -83.5 -175.5l-184 17c13.333 112.667 59.5 202.334 138.5 269.001s183.5 100 313.5 100 c144 0 255.167 -31.333 333.5 -94s117.5 -151.667 117.5 -267c0 -90.667 -35.333 -174.667 -106 -252h149v-133h-286c-162.667 -127.333 -265 -210.5 -307 -249.5s-77.667 -77.167 -107 -114.5s-51.666 -75.333 -66.999 -114h746v-146h-940v117 c34 84 83.333 164.833 148 242.5s160.667 165.834 288 264.501h-457v133z" unicode="ƻ"/>
   <glyph glyph-name="uni01BC" d="M1093 448c0 -144.667 -44.332 -258.832 -132.999 -342.499s-211 -125.5 -367 -125.5c-127.333 0 -232.333 32.333 -315 97s-135.334 154 -158.001 268l179 21c23.333 -84 59.833 -145.5 109.5 -184.5s112.167 -58.5 187.5 -58.5c98 0 174.167 28.5 228.5 85.5 s81.5 135.5 81.5 235.5c0 97.333 -29 170.166 -87 218.499s-141 72.5 -249 72.5h-219v458h-182v156h881v-156h-515v-303h68c155.333 0 275.833 -38.833 361.5 -116.5s128.5 -186.167 128.5 -325.5z" unicode="Ƽ"/>
   <glyph glyph-name="uni01BD" d="M876 346c0 69.334 -23.999 120.668 -71.999 154.001s-125 50 -231 50h-197v392h-212v140h860v-140h-486v-254h74c142 0 251.667 -28.833 329 -86.5s116 -142.167 116 -253.5c0 -116 -37.833 -206.333 -113.5 -271s-183.167 -97 -322.5 -97 c-129.333 0 -232.333 26.833 -309 80.5s-127.334 137.167 -152.001 250.5l174 12c12 -64.667 43.333 -115.834 94 -153.501s111 -56.5 181 -56.5c178 0 267 77.667 267 233z" unicode="ƽ"/>
   <glyph glyph-name="uni01BE" d="M460 951l0.000976562 -97c0 -55.333 5.66699 -94.333 17 -117c11.334 -22.667 31.167 -41.334 59.499 -56.001c28.333 -14.667 70.833 -28.667 127.5 -42c104.667 -25.333 179 -47.833 223 -67.5s79 -41.834 105 -66.501s46 -53.334 60 -86 c14 -32.667 21 -70.334 21 -113c0 -106 -37.833 -186.833 -113.5 -242.5s-186.834 -83.5 -333.501 -83.5c-147.333 0 -260.666 22.167 -339.999 66.5s-131.333 113.5 -156 207.5l159 31c18 -58 54.667 -100.5 110 -127.5s132 -40.5 230 -40.5 c88.667 0 155.667 13.167 201 39.5s68 71.5 68 135.5c0 32.667 -6.5 59.5 -19.5 80.5s-32.167 38.833 -57.5 53.5c-25.335 14.667 -57.168 27.334 -95.5 38.001c-38.333 10.667 -82.5 22.334 -132.5 35.001c-82 20 -144.167 43.833 -186.5 71.5s-74 63 -95 106 s-31.5 96.167 -31.5 159.5v115h-151v131h152v347l179 78v-425h245v-131h-245z" unicode="ƾ"/>
   <glyph glyph-name="uni01BF" d="M1090 627c0 -108.667 -23.667 -208.501 -71 -299.501s-120.5 -172.167 -219.5 -243.5s-243.5 -141.666 -433.5 -210.999v-298h-181v1507h169c6.66699 -70 10 -129.667 10 -179h4c60.667 134 168 201 322 201c130 0 229.167 -40.667 297.5 -122 c68.333 -81.334 102.5 -199.667 102.5 -355zM904 625.999c0 116.667 -21.5 202.333 -64.5 256.999c-43 54.667 -105.5 82 -187.5 82c-94.667 0 -166 -34 -214 -102s-72 -174 -72 -318v-525c136.667 51.333 242.334 105.833 317 163.5 c74.667 57.667 130.167 122.834 166.5 195.501s54.5 155 54.5 247z" unicode="ƿ"/>
   <glyph glyph-name="uni01C0" d="M524 0v1484h180v-1484h-180z" unicode="ǀ"/>
   <glyph glyph-name="uni01C1" d="M370 0v1484h165v-1484h-165zM693 0v1484h165v-1484h-165z" unicode="ǁ"/>
   <glyph glyph-name="uni01C2" d="M130 1030h396v454h174v-454h398v-153h-398v-308h398v-153h-398v-416h-174v416h-396v153h396v308h-396v153z" unicode="ǂ"/>
   <glyph glyph-name="uni01C3" d="M689 397h-148l-24 951h196zM515 0v201h194v-201h-194z" unicode="ǃ"/>
   <glyph glyph-name="uni01C4" d="M730 1657v20h104l150 -123h2l148 123h104v-20l-171 -212h-166zM656 688c0 -232.667 -33.5 -405.5 -100.5 -518.5s-167.5 -169.5 -301.5 -169.5h-165v1349h122c108.667 0 195.167 -22 259.5 -66s111.333 -112.167 141 -204.5s44.5 -222.5 44.5 -390.5zM489 688 c0 172 -18.5 299.167 -55.5 381.5s-96.5 123.5 -178.5 123.5h-4v-1037h24c66 0 118.167 44.667 156.5 134s57.5 222 57.5 398zM1219 0h-562v142l380 1051h-307v156h489v-138l-385 -1055h385v-156z" unicode="Ǆ"/>
   <glyph glyph-name="uni01C5" d="M695 1413v20h104l150 -123h2l148 123h104v-20l-171 -212h-166zM656 688c0 -232.667 -33.5 -405.5 -100.5 -518.5s-167.5 -169.5 -301.5 -169.5h-165v1349h122c108.667 0 195.167 -22 259.5 -66s111.333 -112.167 141 -204.5s44.5 -222.5 44.5 -390.5zM489 688 c0 172 -18.5 299.167 -55.5 381.5s-96.5 123.5 -178.5 123.5h-4v-1037h24c66 0 118.167 44.667 156.5 134s57.5 222 57.5 398zM657 0v132l352 811h-312v139h485v-132l-357 -811h394v-139h-562z" unicode="ǅ"/>
   <glyph glyph-name="uni01C6" d="M715 1413v20h104l150 -123h2l148 123h104v-20l-171 -212h-166zM465 124c-21.333 -58 -45 -97.498 -71 -118.498s-62 -31.5 -108 -31.5c-81.333 0 -141 46.167 -179 138.5s-57 232.166 -57 419.499c0 377.334 79.333 566.001 238 566c47.334 0 83.667 -9.83301 109 -29.5 s48.333 -57.834 69 -114.501h2l-2 131v399h160v-1261c0 -118.667 1.66699 -193 5 -223h-152c-6 16 -9 57.333 -9 124h-5zM218 538.002c0 -150.667 9.66699 -259.167 29 -325.5c19.334 -66.333 51.667 -99.5 97 -99.5c44 0 75.333 35.833 94 107.5s28 182.834 28 333.501 c0 141.333 -9.33301 245.166 -28 311.499s-49.667 99.5 -93 99.5c-44 0 -76.167 -33.167 -96.5 -99.5s-30.5 -175.5 -30.5 -327.5zM677 0.00195312v132l352 811h-312v139h485v-132l-357 -811h384v-139h-552z" unicode="ǆ"/>
   <glyph glyph-name="uni01C7" d="M89 0v1349h162v-1193h312v-156h-474zM682 174c40 -26 83.667 -39 131 -39c60.667 0 103.834 22.333 129.5 67c25.667 44.667 38.5 116 38.5 214v777h-191v156h353v-954c0 -144 -26.167 -249.167 -78.5 -315.5s-133.5 -99.5 -243.5 -99.5c-74 0 -138.333 13.333 -193 40z " unicode="Ǉ"/>
   <glyph glyph-name="uni01C8" d="M1144 -28c0 -125.333 -34.167 -222.833 -102.5 -292.5s-164.5 -104.5 -288.5 -104.5c-65.335 0 -128.668 7.33301 -190 22v145c57.333 -12 116 -18 176 -18c78.668 0 138.835 22.167 180.5 66.5c41.667 44.333 62.5 105.833 62.5 184.5v965h-301v142h463v-1110zM89 0 v1349h162v-1193h412v-156h-574zM963 1292v192h181v-192h-181z" unicode="ǈ"/>
   <glyph glyph-name="uni01C9" d="M1081 -28c0 -125.333 -34.167 -222.833 -102.5 -292.5s-164.5 -104.5 -288.5 -104.5c-65.334 0 -128.667 7.33301 -190 22v145c56.667 -12 115.334 -18 176 -18c78.668 0 138.835 22.167 180.5 66.5c41.667 44.333 62.5 105.833 62.5 184.5v965h-281v142h443v-1110z M900 1292v192h181v-192h-181zM373 142h197v-142h-570v142h211v1200h-211v142h373v-1342z" unicode="ǉ"/>
   <glyph glyph-name="uni01CA" d="M487 1l-249 860.001h-6c2.66699 -20.667 5.66699 -83.834 9 -189.501s5 -177.5 5 -215.5v-455h-157v1348h157l257 -879h6c-2 17.333 -5.33301 79.5 -10 186.5s-7 186.833 -7 239.5v453h160v-1348h-165zM841 -19.999c-37.335 0 -72.668 4.33301 -106 13v161 c30.668 -12.667 63.335 -19 98 -19c54 0 92.167 23.333 114.5 70s33.5 117 33.5 211v777h-151v156h313v-954c0 -138 -24.167 -241.667 -72.5 -311s-124.833 -104 -229.5 -104z" unicode="Ǌ"/>
   <glyph glyph-name="uni01CB" d="M487 1l-249 860.001h-6c2.66699 -20.667 5.66699 -83.834 9 -189.501s5 -177.5 5 -215.5v-455h-157v1348h157l257 -879h6c-2 17.333 -5.33301 79.5 -10 186.5s-7 186.833 -7 239.5v453h160v-1348h-165zM1143 -27.999c0 -125.333 -34.167 -222.833 -102.5 -292.5 s-164.5 -104.5 -288.5 -104.5c-65.334 0 -128.667 7.33301 -190 22v145c57.333 -12 116 -18 176 -18c78 0 138.167 22 180.5 66s63.5 105.667 63.5 185v965h-223v142h384v-1110zM962 1292v192h181v-192h-181z" unicode="ǋ"/>
   <glyph glyph-name="uni01CC" d="M1143 -28c0 -125.333 -34.167 -222.833 -102.5 -292.5s-164.5 -104.5 -288.5 -104.5c-65.334 0 -128.667 7.33301 -190 22v145c57.333 -12 116 -18 176 -18c78 0 138.167 22 180.5 66s63.5 105.667 63.5 185v965h-202v142h363v-1110zM962 1292v192h181v-192h-181zM532 0 l-0.00195312 695.001c0 91.333 -9.16699 158.833 -27.5 202.5s-49.166 65.5 -92.499 65.5c-47.333 0 -86.166 -30 -116.499 -90s-45.5 -142 -45.5 -246v-627h-161v851c0 126 -2 203 -6 231h149l6 -175h2c22 63.333 51.667 111.666 89 144.999s85.333 50 144 50 c74 0 129.333 -30 166 -90s55 -157 55 -291v-721h-162z" unicode="ǌ"/>
   <glyph glyph-name="uni01CD" d="M1034 0l-138 382h-563l-137 -382h-196l510 1349h217l501 -1349h-194zM616 1205l-12 -39l-69 -212l-151 -423h463l-173 500zM701 1445h-164l-254 239v20h104l232 -138h2l219 138h105v-20z" unicode="Ǎ"/>
   <glyph glyph-name="uni01CE" d="M1101 111c17.333 0 36.999 2.33398 58.999 7.00098v-112c-45.333 -10.667 -91.666 -16 -138.999 -16c-66.667 0 -115.167 17.5 -145.5 52.5s-47.5 89.833 -51.5 164.5h-6c-43.333 -80.667 -94.5 -138.667 -153.5 -174s-131.833 -53 -218.5 -53 c-105.333 0 -184.666 28.667 -237.999 86s-80 136 -80 236c0 232.667 151.333 350.667 454 354l236 4v59c0 87.333 -17.667 150.166 -53 188.499c-35.334 38.333 -91.667 57.5 -169 57.5c-78.667 0 -135.334 -14 -170.001 -42s-55.334 -71.333 -62 -130l-188 17 c30.667 194.667 171.667 292 423 292c133.333 0 233.5 -31.167 300.5 -93.5s100.5 -152.5 100.5 -270.5v-466c0 -53.333 7 -93.5 21 -120.5s40.667 -40.5 80 -40.5zM491.999 117.001c64 0 120.668 15.333 170.001 46s87.666 71.667 114.999 123s41 104.333 41 159v89 l-190 -4c-78.667 -1.33301 -138.667 -10 -180 -26s-73.5 -40.5 -96.5 -73.5s-34.5 -76.833 -34.5 -131.5s14.833 -98.667 44.5 -132s73.167 -50 130.5 -50zM692 1201h-164l-254 239v20h104l232 -138h2l219 138h105v-20z" unicode="ǎ"/>
   <glyph glyph-name="uni01CF" d="M202 1349h823v-156h-316v-1037h316v-156h-823v156h316v1037h-316v156zM701 1445h-164l-254 239v20h104l232 -138h2l219 138h105v-20z" unicode="Ǐ"/>
   <glyph glyph-name="uni01D0" d="M745 142h380v-142h-982v142h422v798h-319v142h499v-940zM704 1201h-164l-254 239v20h104l232 -138h2l219 138h105v-20z" unicode="ǐ"/>
   <glyph glyph-name="uni01D1" d="M1126 681c0 -224.667 -44.168 -397.667 -132.501 -519c-88.334 -121.333 -215.167 -182 -380.5 -182c-166 0 -292.667 59.667 -380 179s-131 293.333 -131 522c0 224.667 43.333 395.667 130 513s214.334 176 383.001 176c164.667 0 291 -57.833 379 -173.5 s132 -287.5 132 -515.5zM924.999 681c0 355.333 -103.333 533.001 -310 533.001c-208 0 -312 -177.667 -312 -533c0 -180 26.333 -316 79 -408s130 -138 232 -138c108.667 0 187.667 46.667 237 140s74 228.666 74 405.999zM700.999 1445h-164l-254 239v20h104l232 -138h2 l219 138h105v-20z" unicode="Ǒ"/>
   <glyph glyph-name="uni01D2" d="M1097 542c0 -182 -41.833 -321.167 -125.5 -417.5s-204.5 -144.5 -362.5 -144.5c-154.667 0 -273.167 48.667 -355.5 146s-123.5 236 -123.5 416c0 186 42.167 325.833 126.5 419.5s203.833 140.5 358.5 140.5c162.667 0 283.667 -46.333 363 -139s119 -233 119 -421z M908 542c0 143.333 -22.832 250.334 -68.499 321.001s-119.5 106 -221.5 106c-103.334 0 -179.001 -36 -227.001 -108s-72 -178.333 -72 -319c0 -140 24 -246.5 72 -319.5s120 -109.5 216 -109.5c106 0 182.667 35.667 230 107s71 178.666 71 321.999zM701.001 1201h-164 l-254 239v20h104l232 -138h2l219 138h105v-20z" unicode="ǒ"/>
   <glyph glyph-name="uni01D3" d="M1085 490c0 -178 -37.999 -307.499 -113.999 -388.499s-198 -121.5 -366 -121.5c-162.667 0 -280.5 39.167 -353.5 117.5s-109.5 203.166 -109.5 374.499v877h191v-851c0 -136 19.5 -230.5 58.5 -283.5s109.833 -79.5 212.5 -79.5c107.333 0 182.666 27.333 225.999 82 s65 152.667 65 294v838h190v-859zM701.001 1445h-164l-254 239v20h104l232 -138h2l219 138h105v-20z" unicode="Ǔ"/>
   <glyph glyph-name="uni01D4" d="M365 1082l0.000976562 -686.001c0 -104 16.333 -176.167 49 -216.5s91 -60.5 175 -60.5c86 0 154 29.333 204 88s75 141.334 75 248.001v627h181v-851c0 -126 2 -203 6 -231h-170c-0.666992 3.33301 -1.33398 12.333 -2.00098 27s-1.5 31.5 -2.5 50.5 s-2.16699 54.833 -3.5 107.5h-3c-41.335 -74.667 -89.168 -127.5 -143.5 -158.5c-54.333 -31 -121.833 -46.5 -202.5 -46.5c-118.667 0 -205.5 29.5 -260.5 88.5s-82.5 156.5 -82.5 292.5v721h180zM701.001 1201h-164l-254 239v20h104l232 -138h2l219 138h105v-20z" unicode="ǔ"/>
   <glyph glyph-name="uni01D5" d="M1085 490c0 -178 -37.999 -307.499 -113.999 -388.499s-198 -121.5 -366 -121.5c-162.667 0 -280.5 39.167 -353.5 117.5s-109.5 203.166 -109.5 374.499v877h191v-851c0 -136 19.5 -230.5 58.5 -283.5s109.833 -79.5 212.5 -79.5c107.333 0 182.666 27.333 225.999 82 s65 152.667 65 294v838h190v-859zM750.001 1458v184h163v-184h-163zM316.001 1458v184h163v-184h-163zM889.001 1708h-549v127h549v-127z" unicode="Ǖ"/>
   <glyph glyph-name="uni01D6" d="M365 1082l0.000976562 -686.001c0 -104 16.333 -176.167 49 -216.5s91 -60.5 175 -60.5c86 0 154 29.333 204 88s75 141.334 75 248.001v627h181v-851c0 -126 2 -203 6 -231h-170c-0.666992 3.33301 -1.33398 12.333 -2.00098 27s-1.5 31.5 -2.5 50.5 s-2.16699 54.833 -3.5 107.5h-3c-41.335 -74.667 -89.168 -127.5 -143.5 -158.5c-54.333 -31 -121.833 -46.5 -202.5 -46.5c-118.667 0 -205.5 29.5 -260.5 88.5s-82.5 156.5 -82.5 292.5v721h180zM730.001 1219v184h163v-184h-163zM336.001 1219v184h165v-184h-165z M889.001 1515h-549v127h549v-127z" unicode="ǖ"/>
   <glyph glyph-name="uni01D7" d="M1085 490c0 -178 -37.999 -307.499 -113.999 -388.499s-198 -121.5 -366 -121.5c-162.667 0 -280.5 39.167 -353.5 117.5s-109.5 203.166 -109.5 374.499v877h191v-851c0 -136 19.5 -230.5 58.5 -283.5s109.833 -79.5 212.5 -79.5c107.333 0 182.666 27.333 225.999 82 s65 152.667 65 294v838h190v-859zM676.001 1835h226v-12l-261 -171h-130v10zM750.001 1448v184h163v-184h-163zM316.001 1448v184h163v-184h-163z" unicode="Ǘ"/>
   <glyph glyph-name="uni01D8" d="M365 1082l0.000976562 -686.001c0 -104 16.333 -176.167 49 -216.5s91 -60.5 175 -60.5c86 0 154 29.333 204 88s75 141.334 75 248.001v627h181v-851c0 -126 2 -203 6 -231h-170c-0.666992 3.33301 -1.33398 12.333 -2.00098 27s-1.5 31.5 -2.5 50.5 s-2.16699 54.833 -3.5 107.5h-3c-41.335 -74.667 -89.168 -127.5 -143.5 -158.5c-54.333 -31 -121.833 -46.5 -202.5 -46.5c-118.667 0 -205.5 29.5 -260.5 88.5s-82.5 156.5 -82.5 292.5v721h180zM730.001 1219v184h163v-184h-163zM336.001 1219v184h165v-184h-165z M532.001 1481v20l227 239h197v-29l-300 -230h-124z" unicode="ǘ"/>
   <glyph glyph-name="uni01D9" d="M1085 490c0 -178 -37.999 -307.499 -113.999 -388.499s-198 -121.5 -366 -121.5c-162.667 0 -280.5 39.167 -353.5 117.5s-109.5 203.166 -109.5 374.499v877h191v-851c0 -136 19.5 -230.5 58.5 -283.5s109.833 -79.5 212.5 -79.5c107.333 0 182.666 27.333 225.999 82 s65 152.667 65 294v838h190v-859zM765.001 1835h155v-10l-208 -173h-195l-209 171v12h155l151 -97zM749.001 1448v184h163v-184h-163zM315.001 1448v184h163v-184h-163z" unicode="Ǚ"/>
   <glyph glyph-name="uni01DA" d="M365 1082l0.000976562 -686.001c0 -104 16.333 -176.167 49 -216.5s91 -60.5 175 -60.5c86 0 154 29.333 204 88s75 141.334 75 248.001v627h181v-851c0 -126 2 -203 6 -231h-170c-0.666992 3.33301 -1.33398 12.333 -2.00098 27s-1.5 31.5 -2.5 50.5 s-2.16699 54.833 -3.5 107.5h-3c-41.335 -74.667 -89.168 -127.5 -143.5 -158.5c-54.333 -31 -121.833 -46.5 -202.5 -46.5c-118.667 0 -205.5 29.5 -260.5 88.5s-82.5 156.5 -82.5 292.5v721h180zM730.001 1219v184h163v-184h-163zM336.001 1219v184h165v-184h-165z M701.001 1481h-164l-254 239v20h104l232 -138h2l219 138h105v-20z" unicode="ǚ"/>
   <glyph glyph-name="uni01DB" d="M1085 490c0 -178 -37.999 -307.499 -113.999 -388.499s-198 -121.5 -366 -121.5c-162.667 0 -280.5 39.167 -353.5 117.5s-109.5 203.166 -109.5 374.499v877h191v-851c0 -136 19.5 -230.5 58.5 -283.5s109.833 -79.5 212.5 -79.5c107.333 0 182.666 27.333 225.999 82 s65 152.667 65 294v838h190v-859zM718.001 1662v-10h-130l-261 171v12h226zM316.001 1448v184h163v-184h-163zM750.001 1448v184h163v-184h-163z" unicode="Ǜ"/>
   <glyph glyph-name="uni01DC" d="M365 1082l0.000976562 -686.001c0 -104 16.333 -176.167 49 -216.5s91 -60.5 175 -60.5c86 0 154 29.333 204 88s75 141.334 75 248.001v627h181v-851c0 -126 2 -203 6 -231h-170c-0.666992 3.33301 -1.33398 12.333 -2.00098 27s-1.5 31.5 -2.5 50.5 s-2.16699 54.833 -3.5 107.5h-3c-41.335 -74.667 -89.168 -127.5 -143.5 -158.5c-54.333 -31 -121.833 -46.5 -202.5 -46.5c-118.667 0 -205.5 29.5 -260.5 88.5s-82.5 156.5 -82.5 292.5v721h180zM730.001 1219v184h163v-184h-163zM336.001 1219v184h165v-184h-165z M594.001 1481l-300 230v29h197l227 -239v-20h-124z" unicode="ǜ"/>
   <glyph glyph-name="uni01DD" d="M905 579c0 121.333 -26.8301 216.333 -80.4971 285s-127.167 103 -220.5 103c-68.667 0 -128.834 -14.833 -180.501 -44.5s-86.167 -70.167 -103.5 -121.5l-158 45c29.333 82.667 83.166 146 161.499 190s171.833 66 280.5 66c157.333 0 278.333 -49 363 -147 s127 -238.333 127 -421c0 -178 -41.5 -314.833 -124.5 -410.5s-202.833 -143.5 -359.5 -143.5s-275.334 47.667 -356.001 143s-121 239.333 -121 432v24h772zM608.003 113c89.333 0 160 29.167 212 87.5s79.667 138.5 83 240.5h-584c18.667 -218.667 115 -328 289 -328z" unicode="ǝ"/>
   <glyph glyph-name="uni01DE" d="M1034 0l-138 382h-563l-137 -382h-196l510 1349h217l501 -1349h-194zM616 1205l-12 -39l-69 -212l-151 -423h463l-173 500zM750 1458v184h163v-184h-163zM316 1458v184h163v-184h-163zM889 1708h-549v127h549v-127z" unicode="Ǟ"/>
   <glyph glyph-name="uni01DF" d="M1101 111c17.333 0 36.999 2.33398 58.999 7.00098v-112c-45.333 -10.667 -91.666 -16 -138.999 -16c-66.667 0 -115.167 17.5 -145.5 52.5s-47.5 89.833 -51.5 164.5h-6c-43.333 -80.667 -94.5 -138.667 -153.5 -174s-131.833 -53 -218.5 -53 c-105.333 0 -184.666 28.667 -237.999 86s-80 136 -80 236c0 232.667 151.333 350.667 454 354l236 4v59c0 87.333 -17.667 150.166 -53 188.499c-35.334 38.333 -91.667 57.5 -169 57.5c-78.667 0 -135.334 -14 -170.001 -42s-55.334 -71.333 -62 -130l-188 17 c30.667 194.667 171.667 292 423 292c133.333 0 233.5 -31.167 300.5 -93.5s100.5 -152.5 100.5 -270.5v-466c0 -53.333 7 -93.5 21 -120.5s40.667 -40.5 80 -40.5zM491.999 117.001c64 0 120.668 15.333 170.001 46s87.666 71.667 114.999 123s41 104.333 41 159v89 l-190 -4c-78.667 -1.33301 -138.667 -10 -180 -26s-73.5 -40.5 -96.5 -73.5s-34.5 -76.833 -34.5 -131.5s14.833 -98.667 44.5 -132s73.167 -50 130.5 -50zM711 1200v184h163v-184h-163zM317 1200v184h165v-184h-165zM870 1489h-549v127h549v-127z" unicode="ǟ"/>
   <glyph glyph-name="uni01E0" d="M1034 0l-138 382h-563l-137 -382h-196l510 1349h217l501 -1349h-194zM616 1205l-12 -39l-69 -212l-151 -423h463l-173 500zM527 1468v184h163v-184h-163zM889 1708h-549v127h549v-127z" unicode="Ǡ"/>
   <glyph glyph-name="uni01E1" d="M1101 111c17.333 0 36.999 2.33398 58.999 7.00098v-112c-45.333 -10.667 -91.666 -16 -138.999 -16c-66.667 0 -115.167 17.5 -145.5 52.5s-47.5 89.833 -51.5 164.5h-6c-43.333 -80.667 -94.5 -138.667 -153.5 -174s-131.833 -53 -218.5 -53 c-105.333 0 -184.666 28.667 -237.999 86s-80 136 -80 236c0 232.667 151.333 350.667 454 354l236 4v59c0 87.333 -17.667 150.166 -53 188.499c-35.334 38.333 -91.667 57.5 -169 57.5c-78.667 0 -135.334 -14 -170.001 -42s-55.334 -71.333 -62 -130l-188 17 c30.667 194.667 171.667 292 423 292c133.333 0 233.5 -31.167 300.5 -93.5s100.5 -152.5 100.5 -270.5v-466c0 -53.333 7 -93.5 21 -120.5s40.667 -40.5 80 -40.5zM491.999 117.001c64 0 120.668 15.333 170.001 46s87.666 71.667 114.999 123s41 104.333 41 159v89 l-190 -4c-78.667 -1.33301 -138.667 -10 -180 -26s-73.5 -40.5 -96.5 -73.5s-34.5 -76.833 -34.5 -131.5s14.833 -98.667 44.5 -132s73.167 -50 130.5 -50zM515 1273v192h200v-192h-200zM889 1489h-549v127h549v-127z" unicode="ǡ"/>
   <glyph glyph-name="uni01E2" d="M646 412h-335l-142 -412h-168l486 1349h667v-152h-337v-430h327v-150h-327v-465h378v-152h-549v412zM646 1202h-72.999c-2.66699 -10.6709 -16.834 -59.3379 -42.501 -146c-25.667 -86.667 -81.834 -251.667 -168.5 -495h284v641zM1056 1503h-551v127h551v-127z" unicode="Ǣ"/>
   <glyph glyph-name="uni01E3" d="M679 503l0.000976562 -17c3.33301 -247.333 65 -371 185 -371c50 0 89.833 15.667 119.5 47s49.834 71 60.501 119l138 -45c-45.333 -170.667 -150 -256 -314 -256c-80.667 0 -143.834 18.333 -189.501 55s-79.834 95.667 -102.501 177 c-34.667 -81.333 -76.834 -140.333 -126.501 -177s-106.834 -55 -171.5 -55c-86 0 -150.5 27.333 -193.5 82s-64.5 134.667 -64.5 240c0 232.667 110 350.667 330 354l167 4v59c0 90 -10.667 153.5 -32 190.5s-56 55.5 -104 55.5c-49.333 0 -85.166 -13.5 -107.499 -40.5 s-35.833 -70.833 -40.5 -131.5l-168 17c12.667 100.667 44.834 174.5 96.501 221.5s124.5 70.5 218.5 70.5c117.333 0 199.666 -46.333 246.999 -139c56.667 92.667 138.667 139 246 139c110.668 0 194.168 -47.167 250.5 -141.5c56.333 -94.333 84.5 -238.833 84.5 -433.5 v-24h-529zM189.001 299c0 -54.667 9.5 -98.667 28.5 -132s47.5 -50 85.5 -50c42.667 0 80 14.833 112 44.5s57 69.667 75 120s27 104.833 27 163.5v89l-122 -4c-52.667 -1.33301 -92.5 -10 -119.5 -26s-48.167 -40.667 -63.5 -74s-23 -77 -23 -131zM859.001 969 c-54.667 0 -97.501 -29 -128.501 -87s-47.5 -138.333 -49.5 -241h361c-6 114 -23.667 197.167 -53 249.5c-29.335 52.333 -72.668 78.5 -129.999 78.5zM889 1235h-549v127h549v-127z" unicode="ǣ"/>
   <glyph glyph-name="uni01E4" d="M1101 438h128v-130h-128v-175c-152.667 -102 -306.667 -153 -462 -153c-166.667 0 -296 61.833 -388 185.5s-138 295.5 -138 515.5c0 231.333 44 404 132 518s220.333 171 397 171c230.667 0 384.334 -110.333 461.001 -331l-171 -56c-54 154 -150 231 -288 231 c-112.667 0 -195.834 -42 -249.501 -126s-80.5 -219.667 -80.5 -407c0 -364 113.667 -546 341 -546c95.333 0 185.333 25 270 75v98h-303v130h303v107h-303v160h479v-267z" unicode="Ǥ"/>
   <glyph glyph-name="uni01E5" d="M102 0h767.004v261h-2c-64.667 -132.667 -177.334 -199 -338.001 -199c-130 0 -226.833 42.5 -290.5 127.5s-95.5 214.833 -95.5 389.5c0 171.333 33.667 300.833 101 388.5s167 131.5 299 131.5c75.333 0 141 -17.5 197 -52.5s99 -84.833 129 -149.5h2 c0 20 1.33301 54.667 4 104c2.69336 49.333 5.36035 76.333 8 81h171c-4 -36 -6 -110.667 -6 -224v-858h66v-93h-75c-18.667 -110 -62.834 -192.667 -132.501 -248s-168.834 -83 -297.501 -83c-107.333 0 -196.833 20.167 -268.5 60.5s-119.5 98.833 -143.5 175.5l181 30 c31.333 -86.667 108.666 -130 231.999 -130c70 0 125 15 165 45s67.667 80 83 150h-756v93zM869.004 581c0 78 -12 146.168 -36 204.501s-57.5 102.833 -100.5 133.5s-91.167 46 -144.5 46c-89.333 0 -154.833 -31.333 -196.5 -94s-62.5 -159.334 -62.5 -290.001 c0 -134 20.167 -231.833 60.5 -293.5c40.334 -61.667 107.167 -92.5 200.5 -92.5c54 0 102.167 15.5 144.5 46.5s75.333 75.667 99 134s35.5 126.833 35.5 205.5z" unicode="ǥ"/>
   <glyph glyph-name="uni01E6" d="M1101 133c-152.667 -102 -306.667 -153 -462 -153c-166.667 0 -296 61.833 -388 185.5s-138 295.5 -138 515.5c0 231.333 44 404 132 518s220.333 171 397 171c230.667 0 384.334 -110.333 461.001 -331l-171 -56c-53.333 154 -149.333 231 -288 231 c-112.667 0 -195.834 -42 -249.501 -126s-80.5 -219.667 -80.5 -407c0 -364 113.667 -546 341 -546c45.333 0 92.333 7 141 21s88.334 31.667 119 53v336h-293v160h479v-572zM701 1445h-164l-254 239v20h104l232 -138h2l219 138h105v-20z" unicode="Ǧ"/>
   <glyph glyph-name="uni01E7" d="M615 -424c-112 0 -202 23 -270 69s-111.333 112 -130 198l184 25c11.333 -50 35.833 -88.5 73.5 -115.5s87.167 -40.5 148.5 -40.5c165.333 0 248 105 248 315v194h-2c-32.667 -68.667 -78 -120.667 -136 -156s-127 -53 -207 -53c-132 0 -228.5 43.167 -289.5 129.5 s-91.5 222.166 -91.5 407.499c0 188.667 32.667 327.5 98 416.5s166 133.5 302 133.5c75.333 0 140.833 -17.5 196.5 -52.5s98.5 -84.833 128.5 -149.5h3c0 20 1.33301 53.833 4 101.5c2.69336 47.667 5.36035 75.5 8 83.5h171c-4 -36 -6 -110.667 -6 -224v-826 c0 -151.333 -35.333 -265.166 -106 -341.499s-179.667 -114.5 -327 -114.5zM869 551c0 128.667 -24.999 229.835 -74.999 303.501c-50 73.667 -118.667 110.5 -206 110.5c-91.333 0 -157.333 -31.833 -198 -95.5s-61 -169.834 -61 -318.501 c0 -100.667 8.5 -180.167 25.5 -238.5s43.5 -100.833 79.5 -127.5s86.333 -40 150.999 -40c56.667 0 106.5 15.833 149.5 47.5s76.167 78 99.5 139s35 134.167 35 219.5zM672.001 1201h-164l-254 239v20h104l232 -138h2l219 138h105v-20z" unicode="ǧ"/>
   <glyph glyph-name="uni01E8" d="M1003 0l-487 638l-163 -169v-469h-191v1349h191v-673l572 673h225l-504 -572l581 -777h-224zM698 1445h-164l-254 239v20h104l232 -138h2l219 138h105v-20z" unicode="Ǩ"/>
   <glyph glyph-name="uni01E9" d="M914 0l-366 499l-132 -98v-401h-180v1349h180v-792l475 525h211l-439 -465l462 -617h-211zM738 1445h-164l-254 239v20h104l232 -138h2l219 138h105v-20z" unicode="ǩ"/>
   <glyph glyph-name="uni01EA" d="M1126 681c0 -224.667 -44.168 -397.667 -132.501 -519c-88.334 -121.333 -215.167 -182 -380.5 -182c-166 0 -292.667 59.667 -380 179s-131 293.333 -131 522c0 224.667 43.333 395.667 130 513s214.334 176 383.001 176c164.667 0 291 -57.833 379 -173.5 s132 -287.5 132 -515.5zM924.999 681c0 355.333 -103.333 533.001 -310 533.001c-208 0 -312 -177.667 -312 -533c0 -180 26.333 -316 79 -408s130 -138 232 -138c108.667 0 187.667 46.667 237 140s74 228.666 74 405.999zM826.999 -399.999 c-42 -18 -88.332 -27 -138.999 -27c-70 0 -122.667 17 -158 51s-53 79.333 -53 136c0 45.333 13.833 89.833 41.5 133.5s65.5 79.167 113.5 106.5h133c-42.667 -24 -77.834 -56.833 -105.501 -98.5s-41.5 -84.5 -41.5 -128.5c0 -28 8.16699 -50 24.5 -66s39.5 -24 69.5 -24 c36 0 74.333 8 115 24v-107z" unicode="Ǫ"/>
   <glyph glyph-name="uni01EB" d="M1097 542c0 -182 -41.833 -321.167 -125.5 -417.5s-204.5 -144.5 -362.5 -144.5c-154.667 0 -273.167 48.667 -355.5 146s-123.5 236 -123.5 416c0 186 42.167 325.833 126.5 419.5s203.833 140.5 358.5 140.5c162.667 0 283.667 -46.333 363 -139s119 -233 119 -421z M908 542c0 143.333 -22.832 250.334 -68.499 321.001s-119.5 106 -221.5 106c-103.334 0 -179.001 -36 -227.001 -108s-72 -178.333 -72 -319c0 -140 24 -246.5 72 -319.5s120 -109.5 216 -109.5c106 0 182.667 35.667 230 107s71 178.666 71 321.999zM830.001 -399.999 c-42 -18 -88.332 -27 -138.999 -27c-70 0 -122.667 17 -158 51s-53 79.333 -53 136c0 45.333 13.833 89.833 41.5 133.5s65.5 79.167 113.5 106.5h133c-42.667 -24 -77.834 -56.833 -105.501 -98.5s-41.5 -84.5 -41.5 -128.5c0 -28 8.16699 -50 24.5 -66s39.5 -24 69.5 -24 c36 0 74.333 8 115 24v-107z" unicode="ǫ"/>
   </font>
</defs>
</svg>
