<?xml version="1.0" encoding="UTF-8" standalone="no"?>
<!DOCTYPE svg  PUBLIC '-//W3C//DTD SVG 1.1//EN'  'http://www.w3.org/Graphics/SVG/1.1/DTD/svg11.dtd'>
<svg xmlns="http://www.w3.org/2000/svg" xmlns:xlink="http://www.w3.org/1999/xlink" version="1.1">
 <metadata>Created by FontForge 20150612 at Thu Apr 28 11:38:43 2016
 By Etienne
Digitized data copyright (c) 2010 Google Corporation.
Copyright (c) 2012 Red Hat, Inc.</metadata>
 <defs>
  <font id="LiberationSans-BoldItalic" horiz-adv-x="0">
   <font-face slope="-12" underline-position="-110" font-weight="700" descent="-410" panose-1="2 11 7 4 2 2 2 9 2 4" units-per-em="2048" unicode-range="U+0020-FFFC" bbox="-976.997 -771 2780 2109" x-height="1082" underline-thickness="215" font-family="Liberation Sans" ascent="1638" font-style="italic" cap-height="1409"/>
   <missing-glyph horiz-adv-x="1536"/>
   <glyph glyph-name=".notdef" horiz-adv-x="1536"/>
   <glyph glyph-name="space" horiz-adv-x="569" unicode=" "/>
   <glyph glyph-name="exclam" horiz-adv-x="682" unicode="!" d="M423 426h-230l160 983h294zM79 0l52 270h288l-52 -270h-288z"/>
   <glyph glyph-name="quotedbl" horiz-adv-x="971" unicode='&quot;' d="M864 898h-219l72 511h275zM438 898h-219l72 511h273z"/>
   <glyph glyph-name="numbersign" horiz-adv-x="1139" unicode="#" d="M939 862l-69 -332h215v-149h-246l-82 -381h-156l80 381h-307l-80 -381h-153l79 381h-155v149h188l70 332h-207v148h238l84 385h153l-82 -385h307l84 385h156l-84 -385h164v-148h-197zM479 862l-72 -332h309l70 332h-307z"/>
   <glyph glyph-name="dollar" horiz-adv-x="1139" unicode="$" d="M1080 474c0 -142 -47.0029 -251.166 -141.003 -327.499s-235 -118.166 -423 -125.499l-33 -173h-112l32 175c-117.333 0 -213.666 31.167 -288.999 93.5s-117 145.5 -125 249.5l262 42c9.33301 -118 74 -177 194 -177l73 388c-120 30 -212.333 76.667 -277 140 s-97 139.666 -97 228.999c0 82 20.833 153.167 62.5 213.5s103.834 107.5 186.501 141.5s175.667 51 279 51l24 126l110 -4l-27 -130c108 0 195.833 -26.333 263.5 -79c67.667 -52.668 105.834 -125.335 114.501 -218.001l-261 -57c-9.33301 51.333 -27.5 90.5 -54.5 117.5 s-60.5 40.5 -100.5 40.5l-67 -353c139.333 -33.333 241.833 -79.5 307.5 -138.5s98.5 -133.833 98.5 -224.5zM809.997 413.001c0 51.333 -14.667 90.5 -44 117.5c-29.335 27 -75.668 47.833 -139 62.5l-73 -362c76.667 0 138.5 16.333 185.5 49s70.5 77 70.5 133z M411.997 1006c0 -32.667 10.833 -59.833 32.5 -81.5s62.167 -42.167 121.5 -61.5l67 331c-66 0 -119.333 -17.667 -160 -53s-61 -80.333 -61 -135z"/>
   <glyph glyph-name="percent" horiz-adv-x="1821" unicode="%" d="M546 1421c100 0 176.501 -26.5 229.501 -79.5s79.5 -129.167 79.5 -228.5c0 -54.667 -8.66699 -114 -26 -178c-19.333 -91.333 -49.333 -167 -90 -227s-88.834 -105.667 -144.501 -137s-118.167 -47 -187.5 -47c-94.667 0 -167.5 28 -218.5 84s-76.5 133.667 -76.5 233 c0 59.333 8 117.333 24 174c56 270.667 192.667 406 410 406zM545.001 1270c-52 0 -92.999 -20 -122.999 -60s-53.667 -101.5 -71 -184.5s-26 -149.167 -26 -198.5c0 -94.667 28.667 -142 86 -142c52.667 0 95.167 21.5 127.5 64.5s57.166 108.167 74.499 195.5 c18.667 72.667 28 134.667 28 186c0 92.667 -32 139 -96 139zM1455 882c100 0 176.5 -26.5 229.5 -79.5s79.5 -129.167 79.5 -228.5c0 -54.667 -8.66699 -114 -26 -178c-19.333 -91.333 -49.333 -167 -90 -227c-40.6729 -60 -88.8398 -105.667 -144.5 -137 c-55.667 -31.333 -118.167 -47 -187.5 -47c-94.667 0 -167.5 28 -218.5 84s-76.5 133.667 -76.5 233c0 59.333 8 117.333 24 174c56 270.667 192.667 406 410 406zM1454 731c-52 0 -93 -20 -123 -60s-53.667 -101.5 -71 -184.5s-26 -149.167 -26 -198.5 c0 -94.667 28.667 -142 86 -142c52.667 0 95.167 21.5 127.5 64.5c32.3389 43 57.1719 108.167 74.5 195.5c18.667 72.667 28 134.667 28 186c0 92.667 -32 139 -96 139zM486.002 0h-197l1086 1409h199z"/>
   <glyph glyph-name="ampersand" horiz-adv-x="1479" unicode="&amp;" d="M49 354c0 206 142.001 358.331 426.001 456.998c-10 32 -18.333 69 -25 111s-10 80.333 -10 115c0 114.667 38.167 206.667 114.5 276s180.833 104 313.5 104c106 0 188.5 -22.5 247.5 -67.5s88.5 -108.167 88.5 -189.5c0 -60.667 -15.167 -114.5 -45.5 -161.5 s-74 -90 -131 -129s-154.167 -86.5 -291.5 -142.5c28.667 -79.334 55.667 -142.667 81 -190s55.666 -94.666 90.999 -141.999c88.667 94.667 166.667 216.334 234 365.001l187 -83c-30 -69.333 -70 -141.833 -120 -217.5s-102.667 -141.834 -158 -198.5 c50 -42.667 111.333 -64 184 -64c42 0 79 5.33301 111 16l-39 -203c-44 -14.667 -90.333 -22 -139 -22c-116 0 -217.667 39 -305 117c-47.333 -36.667 -88.333 -62.5 -123 -77.5s-75 -26.667 -121 -35s-97.667 -12.5 -155 -12.5c-134 0 -236.667 32.167 -308 96.5 s-107 156.833 -107 277.5zM493.001 169.998c42 0 83.667 7.50098 125 22.501s77 33.833 107 56.5c-82.667 109.333 -149.334 236.666 -200.001 381.999c-82.667 -37.333 -140.167 -78 -172.5 -122s-48.5 -93.667 -48.5 -149c0 -56.667 17.333 -102.5 52 -137.5 s80.334 -52.5 137.001 -52.5zM667.001 1041c0 -54 6.66699 -102.333 20 -145c94.667 36 158.667 64.5 192 85.5s58.5 44.5 75.5 70.5s25.5 56 25.5 90s-11.167 60 -33.5 78s-52.833 27 -91.5 27c-56.667 0 -102.167 -18.333 -136.5 -55s-51.5 -87 -51.5 -151z"/>
   <glyph glyph-name="quotesingle" horiz-adv-x="487" unicode="&apos;" d="M417 898h-219l73 511h272z"/>
   <glyph glyph-name="parenleft" horiz-adv-x="682" unicode="(" d="M874 1484c-349.333 -333.333 -524 -734.667 -524 -1204c0 -266 49 -501 147 -705h-275c-98.667 210.667 -148 451 -148 721c0 242 44 464 132 666s217 376 387 522h281z"/>
   <glyph glyph-name="parenright" horiz-adv-x="682" unicode=")" d="M-180 -425c350 342 525 753.331 525 1234c0 113.333 -13.333 230.333 -40 351s-63 228.667 -109 324h265c107.333 -213.333 161 -443.666 161 -690.999c0 -250 -44.667 -478.667 -134 -686s-218.333 -384.666 -387 -531.999h-281z"/>
   <glyph glyph-name="asterisk" horiz-adv-x="797" unicode="*" d="M574 1135l235 104l68 -197l-250 -61l186 -213l-184 -121l-146 252l-149 -252l-186 123l190 211l-250 61l68 197l239 -104l-18 274h215z"/>
   <glyph glyph-name="plus" horiz-adv-x="1196" unicode="+" d="M750 569v-408h-226v408h-399v224h399v408h226v-408h402v-224h-402z"/>
   <glyph glyph-name="comma" horiz-adv-x="569" unicode="," d="M165 -317h-184.998c52 52 95.167 105.667 129.5 161s56.166 107.333 65.499 156h-129l59 305h289l-47 -239c-15.333 -80 -37.333 -150.5 -66 -211.5s-67.334 -118.167 -116.001 -171.5z"/>
   <glyph glyph-name="hyphen" horiz-adv-x="682" unicode="-" d="M56 409l47 244h520l-47 -244h-520z"/>
   <glyph glyph-name="period" horiz-adv-x="569" unicode="." d="M46 0l59 305h289l-59 -305h-289z"/>
   <glyph glyph-name="slash" horiz-adv-x="569" unicode="/" d="M-76 -41l587 1525h238l-583 -1525h-242z"/>
   <glyph glyph-name="zero" horiz-adv-x="1139" unicode="0" d="M724 1430c263.333 0 394.998 -155.331 394.998 -465.998c0 -76.667 -12.667 -176.334 -38 -299.001c-96 -456.667 -297 -685 -603 -685c-133.333 0 -232.166 39.167 -296.499 117.5s-96.5 197.166 -96.5 356.499c0 92.667 14.833 207.334 44.5 344 c29.667 136.667 70.834 252 123.501 346s117.667 165.167 195 213.5s169.333 72.5 276 72.5zM496.998 201.002c78 0 140.5 35.833 187.5 107.5s85.667 187.167 116 346.5s45.5 266.666 45.5 321.999c0 155.333 -50.667 233 -152 233c-57.333 0 -103.833 -15.667 -139.5 -47 s-66 -81.833 -91 -151.5s-48.833 -172.667 -71.5 -309s-34 -232.166 -34 -287.499c0 -142.667 46.333 -214 139 -214z"/>
   <glyph glyph-name="one" horiz-adv-x="1139" unicode="1" d="M33 0l43 231h349l179 921l-381 -214l47 242l396 229h270l-230 -1178h323l-44 -231h-952z"/>
   <glyph glyph-name="two" horiz-adv-x="1139" unicode="2" d="M-32 0l37 195.001c32.667 56.667 70.334 108.667 113.001 156s89.167 92.5 139.5 135.5s135.833 106.5 256.5 190.5c98.667 69.333 166 122 202 158s63.833 72.667 83.5 110s29.5 76.666 29.5 117.999c0 95.333 -54 143 -162 143c-58.667 0 -106 -14.667 -142 -44 s-63 -76 -81 -140l-266 59c35.333 119.333 95.666 207.333 180.999 264s194.666 85 327.999 85c140 0 246.833 -29.167 320.5 -87.5s110.5 -144.833 110.5 -259.5c0 -64 -14 -125 -42 -183s-70.167 -114.167 -126.5 -168.5s-147.5 -123.833 -273.5 -208.5 c-88 -60 -158.167 -112.667 -210.5 -158s-93.166 -90 -122.499 -134h654l-44 -231h-985z"/>
   <glyph glyph-name="three" horiz-adv-x="1139" unicode="3" d="M535 829c99.333 0 173.5 19.333 222.5 58c49 38.668 73.5 93.335 73.5 164.001c0 48 -12.833 85.833 -38.5 113.5s-65.167 41.5 -118.5 41.5c-124 0 -203 -61.333 -237 -184l-267 52c68 237.333 239.667 356 515 356c135.333 0 241 -30.333 317 -91s114 -145 114 -253 c0 -104 -32.333 -187.667 -97 -251s-152.667 -100 -264 -110l-1 -4c90 -14 158.5 -47.167 205.5 -99.5s70.5 -120.166 70.5 -203.499c0 -82.667 -21.667 -157.834 -65 -225.501s-104.333 -120 -183 -157s-169 -55.5 -271 -55.5c-150.667 0 -268.167 31 -352.5 93 s-131.833 152 -142.5 270l282 38c7.33301 -60 28.333 -104.167 63 -132.5s89 -42.5 163 -42.5c69.333 0 123.5 18.667 162.5 56s58.5 88.666 58.5 153.999c0 124 -73.333 186 -220 186h-107l44 227h73z"/>
   <glyph glyph-name="four" horiz-adv-x="1139" unicode="4" d="M874 286l-54 -286h-268l54 286h-640l41 207l717 916h370l-178 -913h188l-42 -210h-188zM800 1206c-30.667 -52 -69.667 -108.667 -117 -170l-424 -540h389l102 524c12 60 28.667 122 50 186z"/>
   <glyph glyph-name="five" horiz-adv-x="1139" unicode="5" d="M316 1409l847.001 -0.000976562l-43 -231h-594l-87 -334c12 10.6729 26.167 21.3398 42.5 32c16.334 10.6738 34.834 20.3408 55.5 29.001c20.667 8.66699 44 15.667 70 21s55 8 87 8c111.333 0 200.833 -37.667 268.5 -113s101.5 -176.333 101.5 -303 c0 -107.333 -23.5 -201.833 -70.5 -283.5s-114.5 -144.5 -202.5 -188.5s-189.667 -66 -305 -66c-132.667 0 -238.834 29.5 -318.501 88.5s-128.834 145.833 -147.501 260.5l283 45c12 -62 33.833 -105.5 65.5 -130.5s78.834 -37.5 141.501 -37.5 c83.333 0 148.833 25.5 196.5 76.5s71.5 118.833 71.5 203.5c0 70 -16.5 124.333 -49.5 163s-79.5 58 -139.5 58c-82 0 -149.333 -30.333 -202 -91h-274z"/>
   <glyph glyph-name="six" horiz-adv-x="1139" unicode="6" d="M533 -20c-140 0 -248.001 44.333 -324.001 133s-114 213.334 -114 374.001c0 179.333 27.833 341.5 83.5 486.5s133.334 257.333 233.001 337s210.834 119.5 333.501 119.5c120 0 214.5 -27.833 283.5 -83.5c69 -55.6689 109.5 -135.836 121.5 -240.5l-266 -41 c-9.33301 48.667 -26.333 84.667 -51 108s-59 35 -103 35c-76.667 0 -143.334 -38.333 -200.001 -115s-98 -192.334 -124 -347.001c35.334 48 80.167 86.833 134.5 116.5s115.833 44.5 184.5 44.5c109.333 0 195.5 -33.333 258.5 -100s94.5 -158 94.5 -274 c0 -100.667 -23.333 -193.667 -70 -279s-111.5 -152.333 -194.5 -201s-176.5 -73 -280.5 -73zM368.999 429c0 -70 16.333 -125.668 49 -167.001s79.334 -62 140.001 -62c71.333 0 128.166 27.167 170.499 81.5s63.5 126.833 63.5 217.5 c0 64.668 -15.833 114.335 -47.5 149.001c-31.667 34.667 -75.167 52 -130.5 52c-44.667 0 -86 -11.333 -124 -34s-67.667 -54.667 -89 -96c-21.333 -41.334 -32 -88.334 -32 -141z"/>
   <glyph glyph-name="seven" horiz-adv-x="1139" unicode="7" d="M188 1409l1031 0.00195312l-44 -223l-162 -194c-172.667 -204 -297.334 -378.333 -374.001 -523s-132.334 -301 -167.001 -469h-298c23.333 121.333 57.833 233.166 103.5 335.499s99.667 200.166 162 293.499s132 184.5 209 273.5s158.5 180.833 244.5 275.5h-750z"/>
   <glyph glyph-name="eight" horiz-adv-x="1139" unicode="8" d="M707 1429c132.667 0 237.334 -30.501 314 -91.501c76.667 -61 115 -143.167 115 -246.5c0 -93.333 -28.5 -171.333 -85.5 -234s-133.833 -100.667 -230.5 -114l-1 -4c74 -22 130.833 -60 170.5 -114s59.5 -118.333 59.5 -193c0 -138.667 -49.5 -248.667 -148.5 -330 s-234.833 -122 -407.5 -122c-148 0 -262.667 33.5 -344 100.5s-122 160.167 -122 279.5c0 98 31.5 179.667 94.5 245s151.167 109.333 264.5 132v4c-61.333 27.333 -107.833 67.833 -139.5 121.5c-31.667 53.668 -47.5 116.835 -47.5 189.501c0 118 45.667 210.333 137 277 s215 100 371 100zM648 839.999c62.667 0 112.167 19.833 148.5 59.5s54.5 94.5 54.5 164.5c0 112 -57.333 168 -172 168c-63.333 0 -113 -18.5 -149 -55.5s-54 -89.167 -54 -156.5c0 -58 15 -102.5 45 -133.5s72.333 -46.5 127 -46.5zM561 639.999 c-77.333 0 -137.333 -23.667 -180 -71c-42.667 -47.334 -64 -111.334 -64 -192c0 -63.333 17.833 -112.333 53.5 -147s85.5 -52 149.5 -52c72 0 130 24 174 72s66 112.667 66 194c0 63.333 -17.667 111.833 -53 145.5s-84 50.5 -146 50.5z"/>
   <glyph glyph-name="nine" horiz-adv-x="1139" unicode="9" d="M817 653c-43.335 -51.335 -89.666 -89.166 -138.998 -113.498c-49.334 -24.335 -108.667 -36.502 -178 -36.5c-107.333 0 -193 35.667 -257 107s-96 165.666 -96 282.999c0 99.333 23.667 190.5 71 273.5s112.833 147.667 196.5 194s176.167 69.5 277.5 69.5 c133.333 0 239.666 -42.833 318.999 -128.5s119 -200.5 119 -344.5c0 -114.667 -16.167 -236.167 -48.5 -364.5c-32.333 -128.334 -77.5 -239.001 -135.5 -332.001s-126.333 -163 -205 -210s-166 -70.5 -262 -70.5c-121.333 0 -219 28.667 -293 86s-120 139 -138 245l274 48 c19.333 -104.667 78 -157 176 -157c155.333 0 261.666 150.333 318.999 451zM855.002 1009c0 58 -16.667 106 -50 144c-33.335 38 -75.668 57 -127 57c-76 0 -136 -28 -180 -84s-66 -131.333 -66 -226c0 -56.667 16 -102.5 48 -137.5s75.667 -52.5 131 -52.5 c76 0 135.667 26.667 179 80s65 126.333 65 219z"/>
   <glyph glyph-name="colon" horiz-adv-x="682" unicode=":" d="M235 752l55 282h288l-55 -282h-288zM89 0l55 281h288l-55 -281h-288z"/>
   <glyph glyph-name="semicolon" horiz-adv-x="682" unicode=";" d="M235 752l55 282h288l-55 -282h-288zM207 -317h-184c52 52 95.167 105.667 129.5 161s56.166 107.333 65.499 156h-129l55 281h288l-42 -215c-15.333 -80 -37.166 -150.333 -65.499 -211s-67.5 -118 -117.5 -172z"/>
   <glyph glyph-name="less" horiz-adv-x="1196" unicode="&lt;" d="M124 516v322l1027 391v-228l-833 -325l833 -324v-227z"/>
   <glyph glyph-name="equal" horiz-adv-x="1196" unicode="=" d="M123 842v223h1027v-223h-1027zM123 291v221h1027v-221h-1027z"/>
   <glyph glyph-name="greater" horiz-adv-x="1196" unicode="&gt;" d="M124 125v227l832 324l-832 325v228l1027 -391v-322z"/>
   <glyph glyph-name="question" horiz-adv-x="1251" unicode="?" d="M745 1430c142.667 0 255.667 -31.332 339 -93.999s125 -149.667 125 -261c0 -60 -12.5 -113.667 -37.5 -161c-25 -47.335 -60.167 -91.168 -105.5 -131.5c-45.333 -40.333 -120.333 -89.5 -225 -147.5c-52 -34 -87.5 -60 -106.5 -78s-34.167 -37.333 -45.5 -58 s-19 -45 -23 -73h-267c9.33301 51.333 24.333 96.166 45 134.499s47.167 73 79.5 104s87.833 70.833 166.5 119.5c46 28.667 84.167 54 114.5 76s54.5 43.167 72.5 63.5s30.667 40.833 38 61.5s11 44 11 70c0 42 -16 76.833 -48 104.5s-81.667 41.5 -149 41.5 c-151.333 0 -244.333 -64.333 -279 -193l-266 40c78 254.667 265 382 561 382zM309 0.000976562l52 270h289l-52 -270h-289z"/>
   <glyph glyph-name="at" horiz-adv-x="1997" unicode="@" d="M1911 755c0 -121.333 -21.165 -232.003 -63.498 -332.003s-100.833 -178.167 -175.5 -234.5c-74.6699 -56.333 -155.337 -84.5 -242.001 -84.5c-61.333 0 -108.5 15.167 -141.5 45.5s-49.5 72.5 -49.5 126.5c0 24.667 2 47 6 67h-6 c-33.333 -70 -82.833 -127.333 -148.5 -172s-132.834 -67 -201.501 -67c-104.667 0 -185.834 33.833 -243.501 101.5s-86.5 162.167 -86.5 283.5c0 108.667 21.5 210.667 64.5 306s102.667 170.166 179 224.499s161.833 81.5 256.5 81.5c130 0 218 -58 264 -174h6l39 152 h156l-117 -506c-24.667 -114.667 -37 -194.667 -37 -240c0 -33.333 7.83301 -57 23.5 -71s33.834 -21 54.501 -21c53.333 0 104.333 23.167 153 69.5s87.167 108.333 115.5 186s42.5 163.167 42.5 256.5c0 116.668 -25.5 219.835 -76.5 309.501 c-51 89.667 -124.5 158.834 -220.5 207.501s-207.667 73 -335 73c-160 0 -301 -35 -423 -105s-217.833 -171 -287.5 -303s-104.5 -280 -104.5 -444c0 -130 26.5 -244.167 79.5 -342.5s127.5 -172.666 223.5 -222.999s208.667 -75.5 338 -75.5c196 0 392.333 51.667 589 155 l62 -122c-112 -63.333 -221.5 -108.666 -328.5 -135.999s-216.833 -41 -329.5 -41c-157.333 0 -295.833 31.833 -415.5 95.5s-213 155.667 -280 276s-100.5 258.166 -100.5 413.499c0 188.667 42.167 359.334 126.5 512.001c84.334 152.667 200.834 271 349.5 355 c148.667 84 315 126 499 126c162 0 302.333 -30.167 421 -90.5s209.167 -145.5 271.5 -255.5s93.5 -237.667 93.5 -383zM1264 750.997c0 63.333 -19.833 115.001 -59.5 155.001c-39.6709 40 -90.8379 60 -153.5 60c-62.667 0 -118.834 -20.833 -168.501 -62.5 s-88.334 -100.667 -116.001 -177s-41.5 -154.833 -41.5 -235.5c0 -76 16.167 -136 48.5 -180s81.833 -66 148.5 -66c44 0 86.833 14 128.5 42s78.834 68.5 111.501 121.5s57.834 113.333 75.501 180.999c17.667 67.667 26.5 121.5 26.5 161.5z"/>
   <glyph glyph-name="A" horiz-adv-x="1479" unicode="A" d="M1039 0l-55 360h-537l-195 -360h-294l787 1409h348l238 -1409h-292zM876 1192c-14 -42.6689 -46.667 -113.336 -98 -212l-212 -398h395l-67 452c-12 90 -18 142.667 -18 158z"/>
   <glyph glyph-name="B" horiz-adv-x="1479" unicode="B" d="M310 1409l583.999 -0.000976562c167.333 0 294 -27.5 380 -82.5s129 -136.167 129 -243.5c0 -91.334 -27.5 -166.167 -82.5 -224.499c-55 -58.333 -135.5 -98.5 -241.5 -120.5c90.667 -15.333 161.5 -50.5 212.5 -105.5s76.5 -122.167 76.5 -201.5 c0 -140.667 -52.167 -247.667 -156.5 -321s-261.166 -110 -470.499 -110h-705zM493.999 840.999h294c116.667 0 199.5 15.333 248.5 46s73.5 81 73.5 151c0 53.333 -19 92 -57 116s-101.667 36 -191 36h-301zM372.999 218.999h328c139.333 0 236 16.833 290 50.5 s81 89.5 81 167.5c0 60 -22.667 106 -68 138s-119.333 48 -222 48h-330z"/>
   <glyph glyph-name="C" horiz-adv-x="1479" unicode="C" d="M401 573c0 -115.333 28.502 -204.499 85.502 -267.499s138.5 -94.5 244.5 -94.5c177.333 0 316.666 86 417.999 258l227 -117c-140 -248 -361.667 -372 -665 -372c-127.333 0 -237.166 24 -329.499 72s-162.333 116.5 -210 205.5s-71.5 192.833 -71.5 311.5 c0 168 35 318.167 105 450.5s167.833 233.833 293.5 304.5s268.5 106 428.5 106c153.334 0 279.167 -32.833 377.499 -98.5c98.333 -65.667 164.5 -163.5 198.5 -293.5l-274 -71c-19.333 71.335 -56.333 127.668 -111 168.999c-54.667 41.333 -121.334 62 -200.001 62 c-161.333 0 -287.833 -56 -379.5 -168s-137.5 -264.333 -137.5 -457z"/>
   <glyph glyph-name="D" horiz-adv-x="1479" unicode="D" d="M734 1409c222 0 392 -51.666 510 -154.999s177 -252.333 177 -447c0 -157.333 -33 -296.333 -99 -417s-161.667 -215.834 -287 -285.501c-125.334 -69.667 -265.667 -104.5 -421 -104.5h-578l274 1409h424zM375 228.001h230.001c106.667 0 201.167 22.833 283.5 68.5 s145.666 111.5 189.999 197.5s66.5 186 66.5 300c0 126 -35.167 222 -105.5 288s-171.5 99 -303.5 99h-176z"/>
   <glyph glyph-name="E" horiz-adv-x="1366" unicode="E" d="M36 0l273 1409h1108l-44 -228h-813l-69 -354h752l-44 -228h-752l-72 -371h854l-45 -228h-1148z"/>
   <glyph glyph-name="F" horiz-adv-x="1251" unicode="F" d="M560 1181l-85 -436h668l-44 -228h-668l-101 -517h-294l273 1409h986l-44 -228h-691z"/>
   <glyph glyph-name="G" horiz-adv-x="1593" unicode="G" d="M740 -19c-200 0 -356.669 52.835 -470.002 158.502s-170 253.5 -170 443.5c0 166.667 34.833 314.667 104.5 444s168.334 228.833 296.001 298.5s274.834 104.5 441.5 104.5c152 0 279.167 -34.333 381.5 -103c102.336 -68.667 171.169 -164.667 206.5 -288l-282 -78 c-19.333 75.335 -56.666 133.668 -111.999 174.999c-55.333 41.333 -125.333 62 -210 62c-106 0 -199 -25 -279 -75s-141.333 -121 -184 -213s-64 -198 -64 -318c0 -118.667 31.833 -211.834 95.5 -279.5c63.667 -67.667 153.5 -101.5 269.5 -101.5c72 0 142 8.66699 210 26 s126 40.666 174 69.999l46 228h-342l39 208h614l-105 -568c-104 -71.333 -208 -121.5 -312 -150.5s-220 -43.5 -348 -43.5z"/>
   <glyph glyph-name="H" horiz-adv-x="1479" unicode="H" d="M956 0l118 604h-626l-118 -604h-294l273 1409h295l-109 -561h626l109 561h284l-274 -1409h-284z"/>
   <glyph glyph-name="I" horiz-adv-x="569" unicode="I" d="M36 0l273 1409h295l-274 -1409h-294z"/>
   <glyph glyph-name="J" horiz-adv-x="1139" unicode="J" d="M480 -20c-126.667 0 -227.833 32 -303.5 96s-126.167 165 -151.5 303l267 58c30.667 -150.667 99.667 -226 207 -226c36 0 66.333 8 91 24s45 38.667 61 68s30 75 42 137l143 738h-281l44 231h575l-193 -986c-30 -154 -85 -266.333 -165 -337s-192 -106 -336 -106z"/>
   <glyph glyph-name="K" horiz-adv-x="1479" unicode="K" d="M995 0l-355 640l-211 -123l-101 -517h-292l273 1409h295l-130 -639l760 639h369l-747 -616l465 -793h-326z"/>
   <glyph glyph-name="L" horiz-adv-x="1251" unicode="L" d="M36 0l273 1409h295l-229 -1181h756l-45 -228h-1050z"/>
   <glyph glyph-name="M" horiz-adv-x="1706" unicode="M" d="M1206 0l171.999 884.001c17.333 86.667 42 194 74 322l-69 -151c-52.667 -116 -90.667 -195.667 -114 -239l-412 -816h-210l-94 819c-20.667 194 -34 323 -40 387c-18.667 -162.668 -33 -269.001 -43 -319l-172 -887h-262l274 1409h395l88 -788l25 -276 c24 53.334 46.333 101.667 67 145s175.334 349.666 464.001 918.999h393l-274 -1409h-262z"/>
   <glyph glyph-name="N" horiz-adv-x="1479" unicode="N" d="M884 0l-374 1131c-15.333 -108 -28 -187.667 -38 -239l-174 -892h-262l274 1409h350l377 -1141l12 82c7.33301 55.333 17 113.333 29 174l174 885h262l-274 -1409h-356z"/>
   <glyph glyph-name="O" horiz-adv-x="1593" unicode="O" d="M928 1430c195.333 0 349.333 -51.832 462 -155.499c112.667 -103.668 169 -244.835 169 -423.501c0 -164.667 -35.167 -314.834 -105.5 -450.501s-168.5 -239.667 -294.5 -312s-270 -108.5 -432 -108.5c-128.667 0 -240.5 24 -335.5 72s-167.333 116.833 -217 206.5 s-74.5 194.5 -74.5 314.5c0 156.667 35.167 302.834 105.5 438.5c70.333 135.667 167.833 239.334 292.5 311.001s268 107.5 430 107.5zM914 1197c-108 0 -200 -25 -276 -75s-134.667 -125.333 -176 -226s-62 -205.667 -62 -315c0 -122.667 30 -214.834 90 -276.5 c60 -61.667 143.667 -92.5 251 -92.5s199 25 275 75s134.833 124.333 176.5 223s62.5 204.334 62.5 317c0 117.333 -29.167 208.333 -87.5 273s-142.833 97 -253.5 97z"/>
   <glyph glyph-name="P" horiz-adv-x="1366" unicode="P" d="M850 1409c164 0 291.499 -37.333 382.499 -112s136.5 -178 136.5 -310c0 -150 -51.167 -269.333 -153.5 -358s-239.166 -133 -410.499 -133h-377l-98 -496h-294l273 1409h541zM470.999 723h289c103.333 0 180.833 19.333 232.5 58s77.5 102 77.5 190 c0 68 -21.333 119.833 -64 155.5s-104 53.5 -184 53.5h-262z"/>
   <glyph glyph-name="Q" horiz-adv-x="1593" unicode="Q" d="M928 1430c195.333 0 349.334 -51.8359 462.001 -155.503c112.667 -103.668 169 -244.835 169 -423.501c0 -70.667 -6.66699 -138 -20 -202c-18 -90 -46.167 -172.167 -84.5 -246.5s-85.5 -139.666 -141.5 -195.999s-120.167 -102.666 -192.5 -138.999 s-151.833 -61.5 -238.5 -75.5c12.667 -65.333 34.167 -112.666 64.5 -141.999s75.166 -44 134.499 -44c53.333 0 103.333 4.66699 150 14l-45 -195c-48 -16.667 -104.333 -25 -169 -25c-131.333 0 -232.5 31.333 -303.5 94s-114.167 161.667 -129.5 297 c-78.667 12.667 -148.167 35.834 -208.5 69.501s-111 75.667 -152 126s-71.833 108.166 -92.5 173.499s-31 136.333 -31 213c0 156.667 35.167 302.834 105.5 438.5c70.333 135.667 167.833 239.334 292.5 311.001s268 107.5 430 107.5zM914.001 1197 c-108 0 -200 -25 -276 -75s-134.667 -125.333 -176 -226s-62 -205.667 -62 -315c0 -122.667 30 -214.834 90 -276.5c60 -61.667 143.667 -92.5 251 -92.5s199 25 275 75s134.833 124.333 176.5 223s62.5 204.334 62.5 317c0 117.333 -29.167 208.333 -87.5 273 s-142.833 97 -253.5 97z"/>
   <glyph glyph-name="R" horiz-adv-x="1479" unicode="R" d="M1010 0l-230 534.002h-346l-103 -534h-295l274 1409h651c106 0 196.833 -16.333 272.5 -49c75.667 -32.6719 133.167 -79.3389 172.5 -140.001c39.333 -60.667 59 -132 59 -214c0 -110 -36.167 -203.333 -108.5 -280s-170.5 -124.334 -294.5 -143.001l274 -583h-326z M872 764.002c96.667 0 169.833 19.5 219.5 58.5s74.5 94.5 74.5 166.5c0 62 -21.167 109.333 -63.5 142s-101.833 49 -178.5 49h-364l-81 -416h393z"/>
   <glyph glyph-name="S" horiz-adv-x="1366" unicode="S" d="M600 -20c-178 0 -313.665 31.501 -406.998 94.501s-149.333 159.833 -168 290.5l289 49c14 -74 45.167 -128 93.5 -162s119.166 -51 212.499 -51c230 0 345 66.333 345 199c0 53.333 -20 95.5 -60 126.5s-119.333 61.5 -238 91.5 c-122.667 32.667 -213.5 66.667 -272.5 102s-104 78.5 -135 129.5s-46.5 113.5 -46.5 187.5c0 118 52.333 213 157 285s243.334 108 416.001 108c158.667 0 286 -28.833 382 -86.5c96 -57.6689 155 -141.836 177 -252.5l-288 -67c-14.667 60 -46.5 107.833 -95.5 143.5 s-112.833 53.5 -191.5 53.5c-82.667 0 -147.667 -15.5 -195 -46.5s-71 -73.5 -71 -127.5c0 -31.333 8.66699 -58 26 -80s42.666 -41.167 75.999 -57.5s99.333 -37.833 198 -64.5c106 -29.333 184.333 -56.833 235 -82.5s91.167 -54.5 121.5 -86.5s53.5 -68.667 69.5 -110 c16 -41.334 24 -89.001 24 -143.001c0 -144 -55.333 -253.833 -166 -329.5s-273.334 -113.5 -488.001 -113.5z"/>
   <glyph glyph-name="T" horiz-adv-x="1251" unicode="T" d="M895 1181l-230 -1181h-295l230 1181h-455l44 228h1206l-44 -228h-456z"/>
   <glyph glyph-name="U" horiz-adv-x="1479" unicode="U" d="M688 211c110 0 193.5 25.332 250.5 75.999s96.833 135.334 119.5 254.001l168 868h295l-171 -879c-36.667 -187.333 -110 -325.833 -220 -415.5s-262.667 -134.5 -458 -134.5c-176 0 -312.167 39.167 -408.5 117.5s-144.5 189.5 -144.5 333.5 c0 29.333 2.5 64.5 7.5 105.5s10.167 73.833 15.5 98.5l148 774h295l-153 -810c-12 -58 -18 -115.333 -18 -172c0 -68.667 24.333 -121.834 73 -159.5c48.667 -37.667 115.667 -56.5 201 -56.5z"/>
   <glyph glyph-name="V" horiz-adv-x="1366" unicode="V" d="M737 0l-339 -0.00195312l-227 1409h305l114 -905c10.667 -98 18 -186.667 22 -266c31.333 70.667 56.5 126.334 75.5 167.001s190.167 375.334 513.5 1004h308z"/>
   <glyph glyph-name="W" horiz-adv-x="1933" unicode="W" d="M1441 0h-350l-27 812l-4 220l-1 84c-40 -106.667 -70.5 -186.334 -91.5 -239.001s-145.5 -345 -373.5 -877h-355l-89 1409h280l36 -815c4.66699 -112 7 -227.333 7 -346l57 144l76 185l355 832h316l42 -1161c18 48.667 44.167 116.834 78.5 204.501 s164.5 406.5 390.5 956.5h291z"/>
   <glyph glyph-name="X" horiz-adv-x="1366" unicode="X" d="M220 1409h309l224 -471l402 471h313l-600 -677l367 -732h-307l-253 532l-455 -532h-314l652 736z"/>
   <glyph glyph-name="Y" horiz-adv-x="1366" unicode="Y" d="M724 0h-294l112 578l-370 831h292l259 -605l474 605h323l-684 -831z"/>
   <glyph glyph-name="Z" horiz-adv-x="1251" unicode="Z" d="M1082 0h-1130l40 209l927 969h-663l45 231h1014l-40 -205l-930 -973h782z"/>
   <glyph glyph-name="bracketleft" horiz-adv-x="682" unicode="[" d="M-54 -425l370 1909h542l-37 -190h-276l-297 -1528h276l-37 -191h-541z"/>
   <glyph glyph-name="backslash" horiz-adv-x="569" unicode="\" d="M289 -41l-178 1526h238l183 -1526h-243z"/>
   <glyph glyph-name="bracketright" horiz-adv-x="682" unicode="]" d="M-174 -425l37 191h277l297 1528h-278l37 190h542l-371 -1909h-541z"/>
   <glyph glyph-name="asciicircum" horiz-adv-x="1196" unicode="^" d="M962 514l-326 752l-324 -752h-227l391 895h322l393 -895h-229z"/>
   <glyph glyph-name="underscore" horiz-adv-x="1139" unicode="_" d="M-120 -250v78h1177v-78h-1177z"/>
   <glyph glyph-name="grave" horiz-adv-x="682" unicode="`" d="M596 1183l-307 276l8 43h258l195 -288l-6 -31h-148z"/>
   <glyph glyph-name="a" horiz-adv-x="1139" unicode="a" d="M892 -10c-66.667 0 -118.002 14 -154.002 42s-54 65 -54 111c0 24.667 1.66699 46 5 64h-6c-56 -86.667 -111.333 -146.167 -166 -178.5s-121.334 -48.5 -200 -48.5c-93.333 0 -167.833 27.833 -223.5 83.5s-83.5 127.167 -83.5 214.5c0 123.333 42.5 216.5 127.5 279.5 s222.833 96.167 413.5 99.5l191 3c14 63.333 21 107 21 131c0 85.333 -42.333 128 -127 128c-62.667 0 -109.334 -12.167 -140.001 -36.5s-51.667 -59.5 -63 -105.5l-263 31c22.667 96 73.834 169 153.501 219s185.5 75 317.5 75c138 0 239.167 -24.333 303.5 -73 s96.5 -122.667 96.5 -222c0 -24.667 -8 -77 -24 -157l-71 -353c-5.33301 -30 -8 -54 -8 -72c0 -16 3.33301 -28.333 10 -37c6.67383 -8.66699 14.3408 -15 23 -19c8.6709 -4 17.3379 -6.5 26.001 -7.5c8.6748 -1 15.3418 -1.5 20.001 -1.5c20 0 40.667 2.33301 62 7 l-14 -155c-28 -10.667 -56.333 -17 -85 -19s-58 -3 -88 -3zM710.998 503h-161.999c-78 -1.33301 -139.5 -17.333 -184.5 -48s-67.5 -74 -67.5 -130c0 -46.667 13.167 -83.167 39.5 -109.5s61.833 -39.5 106.5 -39.5c55.333 0 105.666 21.5 150.999 64.5s77 99.833 95 170.5z "/>
   <glyph glyph-name="b" horiz-adv-x="1251" unicode="b" d="M855 1102c106.001 0 188.669 -31.501 248.001 -94.501c59.333 -63 89 -149.5 89 -259.5v-14c0 -125.333 -20.667 -251.833 -62 -379.5s-99.5 -222 -174.5 -283s-170.5 -91.5 -286.5 -91.5c-83.333 0 -151 17.333 -203 52s-88.667 83.334 -110 146.001h-2l-28 -111 l-20 -67h-271c3.33301 10 9.83301 37.333 19.5 82s19.5 91.667 29.5 141l246 1261h281l-84 -427c-18.668 -96 -29.335 -144 -32.001 -144h4c37.333 56 85.833 101.5 145.5 136.5s129.834 52.5 210.5 52.5zM735.001 906.999c-84 0 -151.166 -29.335 -201.499 -88.002 s-86.833 -147 -109.5 -265c-11.333 -62 -17 -113 -17 -153c0 -71.333 17.667 -127.166 53 -167.499s84.666 -60.5 147.999 -60.5c67.333 0 120 20.833 158 62.5s69.667 112.334 95 212.001s38 181.834 38 246.5c0 70 -11.833 123 -35.5 159s-66.5 54 -128.5 54z"/>
   <glyph glyph-name="c" horiz-adv-x="1139" unicode="c" d="M536 173c55.333 0 100.998 17.5 136.998 52.5s64.667 86.833 86 155.5l271 -50c-71.334 -234 -241.334 -351 -510 -351c-146.667 0 -259.5 37.5 -338.5 112.5s-118.5 179.167 -118.5 312.5c0 130 26.333 252 79 366s122.834 197.667 210.501 251s196.834 80 327.501 80 c126 0 226.667 -31.833 302 -95.5c75.3369 -63.667 117.67 -152.167 126.999 -265.5l-284 -23c-7.33301 127.333 -63 191 -167 191c-71.334 0 -127.167 -24.5 -167.499 -73.5c-40.333 -49 -76.833 -135.833 -109.5 -260.5c-15.333 -76.667 -23 -132.667 -23 -168 c0 -156 59.333 -234 178 -234z"/>
   <glyph glyph-name="d" horiz-adv-x="1251" unicode="d" d="M749 160c-47.333 -62 -98.5 -107.667 -153.5 -137s-122.833 -44 -203.5 -44c-102.667 0 -184 34 -244 102s-90 159 -90 273c0 127.333 21.333 252 64 374s102.5 214.833 179.5 278.5s169.833 95.5 278.5 95.5c170.667 0 275.334 -66 314 -198h5 c1.33301 13.333 4 33.333 8 60c4 26.6689 10 60.6689 18 102l84 418h277l-238 -1253c-13.333 -74.667 -23 -151.667 -29 -231h-281c0 42 5 95.333 15 160h-4zM515 172c54 0 100.333 11.5 139 34.5s71.667 58.333 99 106s49 107.5 65 179.5s24 135 24 189 c0 80 -15.667 138.167 -47 174.5s-78.333 54.5 -141 54.5c-68 0 -123.5 -23 -166.5 -69s-75.833 -113.333 -98.5 -202s-34 -170.667 -34 -246c0 -147.333 53.333 -221 160 -221z"/>
   <glyph glyph-name="e" horiz-adv-x="1139" unicode="e" d="M358 476c-4.66699 -25.333 -7 -54.998 -7 -88.998c0 -70.667 15.5 -124.834 46.5 -162.501s76.833 -56.5 137.5 -56.5c98 0 169 56.333 213 169l245 -74c-50 -106 -112 -179.667 -186 -221s-171 -62 -291 -62c-142 0 -253 38.5 -333 115.5s-120 184.5 -120 322.5 s24 258.833 72 362.5s116.167 183.167 204.5 238.5s190.5 83 306.5 83c139.333 0 246.833 -35.833 322.5 -107.5s113.5 -172.834 113.5 -303.501c0 -66 -8 -137.667 -24 -215h-700zM822 663.002l3 56c0 71.333 -16.5 123.333 -49.5 156s-76.167 49 -129.5 49 c-64 0 -117.833 -22.167 -161.5 -66.5c-43.667 -44.334 -74.834 -109.167 -93.5 -194.5h431z"/>
   <glyph glyph-name="f" horiz-adv-x="682" unicode="f" d="M528 892l-174.001 -892.001h-280l174 892h-158l37 190h158l22 113c20 103.333 61.5 177.333 124.5 222s151.833 67 266.5 67c48.667 0 100.334 -5.66699 155.001 -17l-36 -181c-7.33691 1.33301 -21.6699 3.33301 -43 6c-21.333 2.66699 -39 4 -53 4 c-44.667 0 -77 -10.667 -97 -32s-34.333 -53.666 -43 -96.999l-16 -85h213l-37 -190h-213z"/>
   <glyph glyph-name="g" horiz-adv-x="1251" unicode="g" d="M431 -425c-132.667 0 -234.663 22.999 -305.996 68.999s-115.333 117.333 -132 214l283 30c18 -84.667 80.667 -127 188 -127c73.333 0 130.333 19.667 171 59c40.668 39.333 72.335 108.333 95 207c13.333 64 23.666 122 30.999 174h-2 c-42 -59.333 -78.833 -102 -110.5 -128s-67.334 -46 -107.001 -60s-85.167 -21 -136.5 -21c-103.333 0 -185.833 33.333 -247.5 100s-92.5 154.667 -92.5 264c0 134 21.167 262.5 63.5 385.5s100.666 213.667 174.999 272s168.5 87.5 282.5 87.5 c78.667 0 146.334 -18.667 203 -56c56.667 -37.333 94 -88 112 -152h2c4 19.333 12.167 54.333 24.5 105s20.166 78.667 23.499 84h265l-19 -83l-30 -146l-165 -843c-31.333 -155.333 -92 -266.666 -182 -333.999s-219.667 -101 -389 -101zM846.004 685.999 c0 69.333 -17.332 123.834 -51.999 163.501s-83.334 59.5 -146.001 59.5c-50.667 0 -92.5 -10.667 -125.5 -32s-61 -55.833 -84 -103.5s-42 -110.334 -57 -188.001s-22.5 -140.834 -22.5 -189.5c0 -132.667 57.667 -199 173 -199c59.333 0 113.333 22.333 162 67 s86.167 105.5 112.5 182.5s39.5 156.833 39.5 239.5z"/>
   <glyph glyph-name="h" horiz-adv-x="1251" unicode="h" d="M601 1484l-78.998 -404.999l-39 -182h3c50 69.333 105.167 120.666 165.5 153.999s129.5 50 207.5 50c101.333 0 177.666 -24.333 228.999 -73s77 -119 77 -211c0 -16.667 -2.33301 -43.167 -7 -79.5c-4.70215 -36.333 -9.36914 -64.5 -14.001 -84.5l-127 -653h-279 l118 595c17.333 82.667 26 137.667 26 165c0 86 -50.667 129 -152 129c-67.334 0 -129.667 -27.333 -187 -82s-93.333 -121.667 -108 -201l-118 -606h-282l286 1484h280z"/>
   <glyph glyph-name="i" horiz-adv-x="569" unicode="i" d="M282 1277l41 207h281l-41 -207h-281zM35 0l210 1082h281l-211 -1082h-280z"/>
   <glyph glyph-name="j" horiz-adv-x="569" unicode="j" d="M283 1277l40 207h281l-40 -207h-281zM-54 -425c-63.333 0 -118.669 6.33301 -166.002 19l36 188l58 -4c44.667 0 77.5 11.5 98.5 34.5s37.5 65.5 49.5 127.5l223 1142h281l-236 -1210c-19.333 -96 -58.166 -169.5 -116.499 -220.5s-134.166 -76.5 -227.499 -76.5z"/>
   <glyph glyph-name="k" horiz-adv-x="1139" unicode="k" d="M728 0l-188 497l-140 -75l-85 -422h-280l288 1484h281l-167 -850l465 448h322l-473 -422l275 -660h-298z"/>
   <glyph glyph-name="l" horiz-adv-x="569" unicode="l" d="M35 0l288 1484h281l-289 -1484h-280z"/>
   <glyph glyph-name="m" horiz-adv-x="1821" unicode="m" d="M1322 892c-60.6719 0 -113.337 -25.666 -157.999 -76.999c-44.667 -51.334 -75.667 -120.667 -93 -208l-119 -607h-279l123 635c11.333 60.667 17 106 17 136c0 80.667 -42 121 -126 121c-58.667 0 -110.834 -25.167 -156.501 -75.5 c-45.667 -50.334 -77.5 -121.167 -95.5 -212.5l-118 -604h-282l166 851c13.333 63.333 26.333 140.333 39 231h272c0 -7.33301 -3.5 -33.166 -10.5 -77.499c-7 -44.335 -12.833 -80.168 -17.5 -107.5h3c51.333 77.333 101.833 130.666 151.5 159.999s108.5 44 176.5 44 c82.667 0 148 -19.833 196 -59.5s76.667 -97.167 86 -172.5c53.333 83.333 107.5 142.833 162.5 178.5s118.833 53.5 191.5 53.5c92 0 162.5 -24.333 211.5 -73s73.5 -119 73.5 -211c0 -42.667 -7 -97.334 -21 -164.001l-128 -653h-279l122 627c12 60 18 106.333 18 139v5 c-2 80.667 -44 121 -126 121z"/>
   <glyph glyph-name="n" horiz-adv-x="1251" unicode="n" d="M738 0l118.001 595.001c17.333 82.667 26 137.667 26 165c0 86 -50.667 129 -152 129c-67.334 0 -129.667 -27.333 -187 -82s-93.333 -121.667 -108 -201l-118 -606h-282l166 851c10.667 52.667 23.334 129.667 38 231h268c0 -6 -3.16699 -34 -9.5 -84 s-11.166 -83.667 -14.499 -101h3c50 69.333 105.167 120.666 165.5 153.999s129.5 50 207.5 50c101.333 0 177.666 -24.333 228.999 -73s77 -119 77 -211c0 -16.667 -2.33301 -43.167 -7 -79.5c-4.70215 -36.333 -9.36914 -64.5 -14.001 -84.5l-127 -653h-279z"/>
   <glyph glyph-name="o" horiz-adv-x="1251" unicode="o" d="M1185 683c0 -138 -27.167 -260.667 -81.5 -368s-131.333 -190 -231 -248s-212.167 -87 -337.5 -87c-145.333 0 -260.333 39.167 -345 117.5s-127 185.5 -127 321.5c0 134 26.5 252.667 79.5 356s128.5 183.5 226.5 240.5s209.667 85.5 335 85.5 c156.667 0 276 -36.5 358 -109.5s123 -175.833 123 -308.5zM891 662c0 164.667 -69.332 246.999 -207.999 246.999c-76 0 -136.5 -20 -181.5 -60s-80.167 -100.833 -105.5 -182.5s-38 -160.167 -38 -235.5c0 -172.667 69.333 -259 207.999 -259 c74.667 0 133.834 18.833 177.5 56.5c43.667 37.667 78 94.834 103 171.501s39.833 164 44.5 262z"/>
   <glyph glyph-name="p" horiz-adv-x="1251" unicode="p" d="M728 907c-84 0 -151.166 -29.335 -201.499 -88.002s-86.833 -147 -109.5 -265c-11.333 -62 -17 -113 -17 -153c0 -71.333 17.667 -127.166 53 -167.499s84.666 -60.5 147.999 -60.5c68 0 121.667 21.333 161 64s70.333 111.334 93 206.001s34 178.334 34 251 c0 70.667 -12.833 123.834 -38.5 159.5c-25.667 35.667 -66.5 53.5 -122.5 53.5zM493.001 912.998c48 66.667 99.5 114.832 154.5 144.499s121.833 44.5 200.5 44.5c106.001 0 188.668 -31.5 248 -94.5c59.333 -63 89 -149.5 89 -259.5 c0 -134.667 -20.667 -265.834 -62 -393.501s-99.5 -222 -174.5 -283s-170.5 -91.5 -286.5 -91.5c-83.333 0 -151 17.333 -203 52s-88.667 83.334 -110 146.001h-2c-4.66699 -41.333 -15.334 -104 -32 -188l-80 -415h-280l243 1258l20 110l19 139h275 c0 -9.33301 -2.5 -35.166 -7.5 -77.499s-10.167 -72.833 -15.5 -91.5h4z"/>
   <glyph glyph-name="q" horiz-adv-x="1251" unicode="q" d="M898 903c16.6699 82.002 32.3369 141.67 47 179.001h270c-5.33301 -18 -15.333 -62.333 -30 -133s-103.667 -528.667 -267 -1374h-281l85 432l36 156h-4c-50 -65.333 -103.167 -112.333 -159.5 -141s-123.166 -43 -200.499 -43c-101.333 0 -182.5 32.667 -243.5 98 s-91.5 155.666 -91.5 270.999c0 130.667 21.333 257 64 379s102.667 215 180 279c77.334 64 169.667 96 277 96c86.667 0 153.667 -15.167 201 -45.5s84.666 -81.5 111.999 -153.5h5zM518 172.001c84.667 0 152 29.5 202 88.5s85.667 147.833 107 266.5 c10.667 58.667 16 109.667 16 153c0 153.333 -58 230 -174 230c-73.333 0 -132 -21.5 -176 -64.5s-77.833 -109.833 -101.5 -200.5s-35.5 -177 -35.5 -259c0 -69.333 13.5 -122.333 40.5 -159s67.5 -55 121.5 -55z"/>
   <glyph glyph-name="r" horiz-adv-x="797" unicode="r" d="M844 853c-46 10 -83.998 15 -113.998 15c-82 0 -148.833 -29 -200.5 -87s-89.167 -147 -112.5 -267l-101 -514h-281l161 830c16 80 30 164 42 252h268l-22 -172l-8 -49h4c48.667 89.333 96.667 151.833 144 187.5s101.666 53.5 162.999 53.5 c31.333 0 65.666 -4.66699 102.999 -14z"/>
   <glyph glyph-name="s" horiz-adv-x="1139" unicode="s" d="M1000 334c0 -116 -42.832 -203.999 -128.499 -263.999s-210.5 -90 -374.5 -90c-134 0 -239.667 23.667 -317 71s-129.666 120.666 -156.999 219.999l251 36c14 -50 39.667 -86 77 -108c37.334 -22 92.667 -33 166 -33c72.667 0 127.834 11.667 165.5 35 c37.667 23.333 56.5 57 56.5 101c0 34.667 -13.833 61.167 -41.5 79.5s-88.5 37.5 -182.5 57.5c-132.667 30 -226.167 71.5 -280.5 124.5s-81.5 121.5 -81.5 205.5c0 106.668 41.833 188.335 125.5 245.001c83.667 56.667 203.167 85 358.5 85 c137.333 0 239.666 -23.5 306.999 -70.5s109 -119.5 125 -217.5l-251 -29c-11.333 46 -33.333 79.333 -66 100s-77.334 31 -134.001 31c-136.667 0 -205 -40 -205 -120c0 -22 6.66699 -40.333 20 -55s32.333 -27.334 57 -38.001s84 -27 178 -49 c121.333 -27.333 207 -66.333 257 -117s75 -117.334 75 -200z"/>
   <glyph glyph-name="t" horiz-adv-x="682" unicode="t" d="M376 -16c-82.667 0 -146.668 19.501 -192.001 58.501s-68 94.5 -68 166.5c0 47.333 5.33301 99.666 16 156.999l102 526h-148l37 190h162l137 254h176l-48 -254h202l-35 -190h-205l-104 -535c-7.33301 -37.333 -11 -67 -11 -89c0 -30.667 7.83301 -53.5 23.5 -68.5 s36.834 -22.5 63.501 -22.5c21.333 0 57.333 4.33301 108 13l-32 -182c-54 -16 -115.333 -24 -184 -24z"/>
   <glyph glyph-name="u" horiz-adv-x="1251" unicode="u" d="M512 1082l-118.001 -595.001c-17.333 -82 -26 -137 -26 -165c0 -86 50.667 -129 152 -129c67.333 0 129.5 27 186.5 81s93.167 121.333 108.5 202l118 606h282l-166 -851c-10.6748 -52.667 -23.3418 -129.667 -38.001 -231h-268c0 6 3.16699 34 9.5 84 s11.166 83.667 14.499 101h-3c-50.667 -71.333 -106.167 -123.166 -166.5 -155.499s-129.166 -48.5 -206.499 -48.5c-101.333 0 -177.666 24.333 -228.999 73s-77 119 -77 211c0 16.667 2.33301 43.5 7 80.5s9.33398 64.833 14.001 83.5l127 653h279z"/>
   <glyph glyph-name="v" horiz-adv-x="1139" unicode="v" d="M622 0h-336.001l-176 1082h289l71 -605c2.66699 -20 7 -66 13 -138s9 -115.667 9 -131c40.668 95.333 81.335 184 122.001 266l316 608h302z"/>
   <glyph glyph-name="w" horiz-adv-x="1593" unicode="w" d="M1207 0h-297l-43 660l-5 230c-35.333 -94.667 -67 -172 -95 -232l-302 -658h-297l-69 1082h258l14 -696v-131l27 68l52 123l294 636h301l42 -636l5 -191l53 132l291 695h266z"/>
   <glyph glyph-name="x" horiz-adv-x="1139" unicode="x" d="M724 0l-186 383l-327 -383h-301l508 562l-279 520h292l173 -347l296 347h308l-483 -525l294 -557h-295z"/>
   <glyph glyph-name="y" horiz-adv-x="1139" unicode="y" d="M88 -425c-64.667 0 -122.333 5.99902 -173 17.999l38 196c26.667 -6 55.667 -9 87 -9c52 0 97.833 15.333 137.5 46s79.167 80.667 118.5 150l28 48l-212 1058h291l71 -497c4 -20.667 11.167 -80 21.5 -178s14.833 -150 13.5 -156l17 37l139 293l259 501h300l-654 -1139 c-71.333 -111.333 -129.5 -189.666 -174.5 -234.999s-92 -78.833 -141 -100.5s-104.5 -32.5 -166.5 -32.5z"/>
   <glyph glyph-name="z" horiz-adv-x="1024" unicode="z" d="M-10 0l38 199l613 680h-440l40 203h769l-39 -201l-610 -676h527l-40 -205h-858z"/>
   <glyph glyph-name="braceleft" horiz-adv-x="797" unicode="{" d="M388 -425c-79.333 0 -141.83 20.1641 -187.497 60.4971s-68.5 94.5 -68.5 162.5c0 29.333 3.66699 63 11 101l61 308c4.66699 23.333 7 46 7 68c0 102.667 -64 155.334 -192 158.001l38 192c154 2.66699 245.333 78.334 274 227l67 338 c19.333 97.3359 56.833 170.669 112.5 220c55.667 49.333 134.834 74 237.5 74h194l-37 -190h-76c-54.667 0 -96.334 -15.5 -125.001 -46.5s-50.334 -83.833 -65.001 -158.5l-60 -310c-12.667 -62.667 -42.334 -116.167 -89.001 -160.5 c-46.667 -44.334 -102.334 -73.167 -167 -86.499l-1 -4c49.333 -12.667 88.833 -35.834 118.5 -69.501s44.5 -75.5 44.5 -125.5c0 -19.333 -1.66699 -36.666 -5 -51.999l-65 -334c-6 -28 -9 -53.333 -9 -76c0 -35.333 11 -61.666 33 -78.999s51.667 -26 89 -26h80l-37 -191 h-183z"/>
   <glyph glyph-name="bar" horiz-adv-x="573" unicode="|" d="M191 -425v1909h262v-1909h-262z"/>
   <glyph glyph-name="braceright" horiz-adv-x="797" unicode="}" d="M399 1485c79.334 0 141.831 -20.165 187.497 -60.498c45.667 -40.333 68.5 -94.5 68.5 -162.5c0 -30.6709 -3.66699 -64.3379 -11 -101l-61 -308c-4.66699 -22 -7 -44.667 -7 -68c0 -51.335 15.5 -90.168 46.5 -116.5c31 -26.3379 79.5 -40.1709 145.5 -41.499l-38 -192 c-78.667 -1.33301 -140.334 -20.833 -185.001 -58.5s-74.334 -94.167 -89 -169.5l-67 -337c-20.667 -101.333 -59.167 -175.833 -115.5 -223.5s-134.5 -71.5 -234.5 -71.5h-194l37 190h76c54.667 0 96.334 15.5 125.001 46.5s50.334 83.833 65.001 158.5l60 310 c12.667 63.334 42.334 117.167 89.001 161.5s102.334 73.166 167.001 86.499l1 3c-50 12.667 -89.667 36.167 -119 70.5s-44 76.166 -44 125.499c0 19.333 1.66699 36.666 5 51.999l65 333c6 30 9 55.667 9 77c0 35.3428 -11 61.6758 -33 79c-22 17.333 -51.667 26 -89 26 h-80l37 191h183z"/>
   <glyph glyph-name="asciitilde" horiz-adv-x="1196" unicode="~" d="M889 516c-50 0 -99.166 7 -147.499 21s-97.5 29.667 -147.5 47c-90 31.333 -163.667 47 -221 47c-47.333 0 -90.833 -7.16699 -130.5 -21.5s-81.167 -36.5 -124.5 -66.5v213c75.333 56 165.666 84 270.999 84c53.333 0 105.5 -7.33301 156.5 -22 s101.167 -30.667 150.5 -48c89.333 -31.333 160 -47 212 -47c89.333 0 172 30.667 248 92v-219c-42.667 -29.333 -83.5 -50 -122.5 -62s-87.167 -18 -144.5 -18z"/>
   <glyph glyph-name="uni00A0" horiz-adv-x="569" unicode=" "/>
   <glyph glyph-name="exclamdown" horiz-adv-x="682" unicode="¡" d="M247 812l53 270h288l-53 -270h-288zM20 -327l222 981h230l-158 -981h-294z"/>
   <glyph glyph-name="cent" horiz-adv-x="1139" unicode="¢" d="M549 328c55.333 0 101 17.5 137 52.5s64.667 86.833 86 155.5l271 -50c-34.667 -112.667 -90.5 -197.334 -167.5 -254c-77 -56.667 -174.167 -88.667 -291.5 -96l-32 -167h-162l32 174c-110 17.333 -195.167 62 -255.5 134s-90.5 166.333 -90.5 283 c0 70 6 129.667 18 179c37.333 162.667 100.666 287.5 189.999 374.5s207.333 134.167 354 141.5l31 154h162l-32 -161c94.668 -15.333 170.335 -54 227.001 -116c56.667 -62 88.667 -140.667 96 -236l-284 -23c-7.33301 127.333 -63 191 -167 191 c-71.334 0 -127.167 -24.5 -167.5 -73.5s-76.833 -135.833 -109.5 -260.5c-15.333 -76.667 -23 -132.667 -23 -168c0 -156 59.333 -234 178 -234z"/>
   <glyph glyph-name="sterling" horiz-adv-x="1139" unicode="£" d="M1104 363c-28 -119.333 -79.999 -209.666 -155.999 -270.999s-171 -92 -285 -92h-714l39 205c62.667 25.333 113 60.166 151 104.499s64 101.5 78 171.5l25 123h-187l32 170h178l51 260c26 138 75.667 238.5 149 301.5s175.666 94.5 306.999 94.5 c117.333 0 210.833 -26.5 280.5 -79.5s110.167 -126.5 121.5 -220.5l-245 -48c-10 56 -28.833 96.167 -56.5 120.5s-65.167 36.5 -112.5 36.5c-52 0 -92 -15.333 -120 -46s-48.667 -81 -62 -151l-53 -268h286l-33 -170h-286l-27 -126c-28 -130 -105.333 -219.333 -232 -268 h408c63.333 0 114.833 15 154.5 45s67.5 79 83.5 147z"/>
   <glyph glyph-name="currency" horiz-adv-x="1139" unicode="¤" d="M149 684c0 80 20 153.667 60 221l-133 133l157 156l131 -133c67.334 39.333 140.667 59 220 59c80.667 0 153.667 -19.667 219 -59l135 135l158 -158l-136 -135c40 -66 60 -139 60 -219c0 -78.667 -19.333 -151 -58 -217l134 -133l-158 -160l-133 135 c-66.667 -39.333 -140.334 -59 -221.001 -59c-81.333 0 -154.666 19 -219.999 57l-135 -137l-157 158l135 137c-38.667 66 -58 139 -58 219zM375 686c0 -57.333 20.334 -106.5 61.001 -147.5s90 -61.5 148 -61.5c56.667 0 105.5 20.667 146.5 62s61.5 90.333 61.5 147 c0 57.333 -20.333 106.5 -61 147.5s-89.667 61.5 -147 61.5c-57.334 0 -106.501 -20.333 -147.501 -61s-61.5 -90 -61.5 -148z"/>
   <glyph glyph-name="yen" horiz-adv-x="1139" unicode="¥" d="M797 691h276l-28 -146h-338l-32 -162h338l-28 -147h-338l-46 -236h-272l46 236h-336l28 147h337l32 162h-337l28 146h276l-224 718h284l154 -596l390 596h294z"/>
   <glyph glyph-name="brokenbar" horiz-adv-x="573" unicode="¦" d="M192 736v748h262v-748h-262zM192 -425v749h262v-749h-262z"/>
   <glyph glyph-name="section" horiz-adv-x="1139" unicode="§" d="M718 1427c136 0 240.5 -23.3301 313.5 -69.9971s111.833 -114.667 116.5 -204l-244 -25c-8 45.3379 -30.667 78.1709 -68 98.5c-37.335 20.333 -83.668 30.5 -139 30.5c-152 0 -228 -44.333 -228 -133c0 -25.333 8.66699 -47.333 26 -66s41.333 -34.834 72 -48.501 c30.668 -13.667 82.335 -29.167 155 -46.5c238 -54.667 357 -153 357 -295c0 -74.667 -19.333 -136.334 -58 -185.001s-102.334 -87 -191.001 -115c42 -23.333 74.5 -54.333 97.5 -93s34.5 -83 34.5 -133c0 -121.333 -46.167 -213.5 -138.5 -276.5 c-92.334 -63 -225.167 -94.5 -398.5 -94.5c-146.667 0 -258 23.167 -334 69.5s-120.333 119.166 -133 218.499l244 37c9.33301 -55.333 33.333 -95 72 -119s93.334 -36 164.001 -36c90.667 0 159.667 13.333 207 40s71 64.667 71 114c0 32 -8.5 58.333 -25.5 79 s-41 38 -72 52s-98.5 33 -202.5 57c-214 47.333 -321 148 -321 302c0 139.333 90.333 231.333 271 276c-47.333 26 -83.333 59.333 -108 100s-37 87 -37 139c0 110 41 192 123 246s206.667 81 374 81zM571 780.003c-68.667 -4 -123.333 -18.999 -163.999 -44.999 c-40.667 -26 -61 -62.333 -61 -109c0 -28 8.16699 -51.833 24.5 -71.5s39 -36.667 68 -51s82.833 -30.833 161.499 -49.5c74 6 130.833 21.167 170.5 45.5s59.5 57.166 59.5 98.499c0 46 -18.167 82.167 -54.5 108.5s-104.5 50.833 -204.5 73.5z"/>
   <glyph glyph-name="dieresis" horiz-adv-x="682" unicode="¨" d="M568 1199l43 219h217l-43 -219h-217zM135 1199l42 219h214l-43 -219h-213z"/>
   <glyph glyph-name="copyright" horiz-adv-x="1509" unicode="©" d="M1508 707c0 -128.667 -32.167 -249.168 -96.5 -361.501s-152.666 -200.666 -264.999 -264.999s-232.833 -96.5 -361.5 -96.5c-131.333 0 -253.5 33.5 -366.5 100.5s-200.667 156 -263 267s-93.5 229.5 -93.5 355.5c0 128.667 32.333 249 97 361s153 200.333 265 265 s232.333 97 361 97c129.333 0 250.166 -32.5 362.499 -97.5s200.5 -153.167 264.5 -264.5c64 -111.334 96 -231.667 96 -361zM1396 706.999c0 108.667 -27.332 209.833 -81.999 303.499c-54.6689 93.667 -129.336 167.834 -224 222.501 c-94.667 54.667 -196.334 82 -305.001 82c-104.667 0 -203.667 -26 -297 -78s-168.5 -125.167 -225.5 -219.5s-85.5 -197.833 -85.5 -310.5c0 -108.667 27.167 -210.334 81.5 -305.001s128.333 -169.334 222 -224.001s195.167 -82 304.5 -82s211.333 27.333 306 82 s169.167 129.334 223.5 224.001s81.5 196.334 81.5 305.001zM798.001 284.998c-128.667 0 -228.168 37 -298.501 111s-105.5 178.333 -105.5 312.999c0 135.333 34 238.333 102 309s165.667 106 293 106c86.667 0 159.167 -18.667 217.5 -56s103.5 -95 135.5 -173l-156 -41 c-17.335 40.668 -42.168 72.335 -74.499 95c-32.333 22.667 -71.5 34 -117.5 34c-72.667 0 -127.5 -23.333 -164.5 -70s-55.5 -114.667 -55.5 -204c0 -90 19.667 -159.667 59 -209s94.333 -74 165 -74c44 0 83 12.333 117 37s60.333 60 79 106l160 -47 c-38.667 -83.333 -87 -143.666 -145 -180.999s-128.333 -56 -211 -56z"/>
   <glyph glyph-name="ordfeminine" horiz-adv-x="758" unicode="ª" d="M679 697c-44 0 -77.834 8.66699 -101.501 26s-35.5 41.333 -35.5 72l3 41h-3c-37.333 -58 -73.666 -97 -108.999 -117s-78.333 -30 -129 -30c-59.333 0 -107.5 18 -144.5 54s-55.5 83 -55.5 141c0 78 27.667 137.667 83 179s145.333 63 270 65l123 2l5 26 c6 24 9 44.333 9 61c0 54.667 -27.333 82 -82 82c-40 0 -70 -7.66699 -90 -23s-34 -38 -42 -68l-171 19c13.333 58.667 44.666 105.167 93.999 139.5s120 51.5 212 51.5c90 0 155.833 -15.5 197.5 -46.5s62.5 -79.167 62.5 -144.5c0 -8.66699 -0.666992 -18.167 -2 -28.5 c-1.33594 -10.333 -21.6689 -111.5 -60.999 -303.5l-5 -47c0 -28.667 17.333 -43 52 -43c11.333 0 25 2 41 6l-10 -102c-23.333 -8 -60.333 -12 -111 -12zM560.999 1029l-98.001 -1.99902c-51.333 -1.33301 -91.666 -11.5 -120.999 -30.5s-44 -46.5 -44 -82.5 c0 -34 8.5 -58.833 25.5 -74.5s38.167 -23.5 63.5 -23.5c34.667 0 66.667 13.667 96 41s50 64.666 62 111.999z"/>
   <glyph glyph-name="guillemotleft" horiz-adv-x="1139" unicode="«" d="M722 139l-192 361l14 71l323 367h239l-6 -41l-329 -366l188 -353l-5 -39h-232zM264 139l-192 361l14 71l323 367h239l-6 -41l-329 -366l188 -353l-5 -39h-232z"/>
   <glyph glyph-name="logicalnot" horiz-adv-x="1196" unicode="¬" d="M878 141v428h-803v224h1027v-652h-224z"/>
   <glyph glyph-name="uni00AD" horiz-adv-x="682" unicode="­" d="M56 409l47 244h520l-47 -244h-520z"/>
   <glyph glyph-name="registered" horiz-adv-x="1509" unicode="®" d="M1508 707c0 -128.667 -32.167 -249.168 -96.5 -361.501s-152.666 -200.666 -264.999 -264.999s-232.833 -96.5 -361.5 -96.5c-131.333 0 -253.5 33.5 -366.5 100.5s-200.667 156 -263 267s-93.5 229.5 -93.5 355.5c0 128.667 32.333 249 97 361s153 200.333 265 265 s232.333 97 361 97c129.333 0 250.166 -32.5 362.499 -97.5s200.5 -153.167 264.5 -264.5c64 -111.334 96 -231.667 96 -361zM1396 706.999c0 108.667 -27.332 209.833 -81.999 303.499c-54.6689 93.667 -129.336 167.834 -224 222.501 c-94.667 54.667 -196.334 82 -305.001 82c-104.667 0 -203.667 -26 -297 -78s-168.5 -125.167 -225.5 -219.5s-85.5 -197.833 -85.5 -310.5c0 -108.667 27.167 -210.334 81.5 -305.001s128.333 -169.334 222 -224.001s195.167 -82 304.5 -82s211.333 27.333 306 82 s169.167 129.334 223.5 224.001s81.5 196.334 81.5 305.001zM953.001 296.998l-178 313h-117v-313h-178v815h330c102 0 178.333 -21.5 229 -64.5s76 -102.167 76 -177.5c0 -62.667 -16 -113.667 -48 -153s-74 -67.333 -126 -84l213 -336h-201zM935.001 867.998 c0 38 -12.5 67 -37.5 87s-60.5 30 -106.5 30h-133v-246h144c44 0 77.167 11.833 99.5 35.5c22.333 23.668 33.5 54.835 33.5 93.5z"/>
   <glyph glyph-name="overscore" horiz-adv-x="1131" unicode="¯" d="M1148 1452h-1165v94h1165v-94z"/>
   <glyph glyph-name="degree" horiz-adv-x="819" unicode="°" d="M830 1110c0 -86.667 -31.167 -160.835 -93.5 -222.502c-62.334 -61.667 -138.167 -92.5 -227.5 -92.5c-88 0 -163.333 30.333 -226 91c-62.667 60.668 -94 135.335 -94 224.001c0 57.333 14.167 110.333 42.5 159s67 86.834 116 114.501s102.833 41.5 161.5 41.5 c90 0 166 -30.833 228 -92.5c62 -61.6689 93 -135.836 93 -222.5zM672 1110c0 46.667 -15.5 85.999 -46.5 117.999s-69.833 48 -116.5 48c-47.333 0 -86.833 -16.167 -118.5 -48.5s-47.5 -71.5 -47.5 -117.5s16.333 -85.5 49 -118.5s71.667 -49.5 117 -49.5 c44.667 0 83 16.333 115 49s48 72.334 48 119.001z"/>
   <glyph glyph-name="plusminus" horiz-adv-x="1124" unicode="±" d="M712 707v-341h-224v341h-401v223h401v340h224v-340h402v-223h-402zM87 0v223h1027v-223h-1027z"/>
   <glyph glyph-name="twosuperior" horiz-adv-x="682" unicode="²" d="M71 696l24 120c26.667 42 61.334 80.333 104.001 115s100.667 72.667 174 114c61.333 33.3379 104.833 64.1709 130.5 92.5c25.667 28.333 38.5 59.5 38.5 93.5c0 19.333 -7.33301 35.5 -22 48.5s-33.667 19.5 -57 19.5c-58.667 0 -96.667 -32.333 -114 -97l-162 34 c20.667 66 54 114.167 100 144.5s110 45.5 192 45.5c76.667 0 137 -16.833 181 -50.5s66 -79.167 66 -136.5c0 -40 -8.33301 -74.833 -25 -104.5s-37.834 -56 -63.501 -79s-54.5 -43.5 -86.5 -61.5s-63.333 -35.167 -94 -51.5c-30.667 -16.3369 -59 -32.6699 -85 -49 c-26 -16.333 -46.333 -34.5 -61 -54.5h349l-25 -143h-564z"/>
   <glyph glyph-name="threesuperior" horiz-adv-x="682" unicode="³" d="M496 915c0 56.667 -36.999 85 -110.999 85h-68l24 126h60c41.334 0 74.667 8.33301 100 25s38 40 38 70c0 55.333 -27.667 83 -83 83c-60 0 -98.333 -31.333 -115 -94l-163 24c17.333 65.3389 49.333 113.672 96 145c46.667 31.333 114 47 202 47 c78.667 0 140 -14.833 184 -44.5s66 -74.5 66 -134.5c0 -47.333 -16.833 -88 -50.5 -122s-77.834 -53.333 -132.501 -58l-1 -2c42.667 -8 77 -24.833 103 -50.5s39 -59.5 39 -101.5c0 -67.335 -28.333 -121.668 -85 -163c-56.667 -41.333 -133.334 -62 -230.001 -62 c-164 0 -255 65.667 -273 197l181 25c11.333 -66 47.333 -99 108 -99c30.667 0 56.834 8.83301 78.501 26.5s32.5 43.5 32.5 77.5z"/>
   <glyph glyph-name="acute" horiz-adv-x="682" unicode="´" d="M255 1183l6 31l247 288h277l-8 -43l-376 -276h-146z"/>
   <glyph glyph-name="mu1" horiz-adv-x="1180" unicode="µ" d="M875 -20c-58.667 0 -100.832 10.834 -126.499 32.501s-38.5 58.167 -38.5 109.5v21l2 21h-4c-28 -58 -59.667 -103.167 -95 -135.5s-80 -48.5 -134 -48.5c-39.333 0 -71.833 8.16699 -97.5 24.5s-43.5 38.166 -53.5 65.499h-6l-16 -115l-73 -380h-280l291 1507h281 l-118 -605c-7.33301 -39.333 -11.666 -79 -12.999 -119c0 -110 41.667 -165 125 -165c54 0 101 26.667 141 80s68.667 130.333 86 231l112 578h281l-147 -757c-6 -30 -9 -51.667 -9 -65c0 -46 16.667 -69 50 -69c15.335 0 30.668 2.33301 45.999 7l-16 -193 c-70.667 -16.667 -133.334 -25 -188.001 -25z"/>
   <glyph glyph-name="paragraph" horiz-adv-x="1139" unicode="¶" d="M975 1266l0.000976562 -1530h-156v1530h-195v-1530h-155v958c-112.667 0 -201.334 30.833 -266.001 92.5s-97 149.167 -97 262.5c0 112.667 32.833 200.834 98.5 264.501s156.5 95.5 272.5 95.5h629v-143h-131z"/>
   <glyph glyph-name="middot" horiz-adv-x="682" unicode="·" d="M189 531l59 305h288l-59 -305h-288z"/>
   <glyph glyph-name="cedilla" horiz-adv-x="682" unicode="¸" d="M194 -425c-33.333 0 -68.667 2.00098 -106 6.00098l29 117c28 -4.66699 55.333 -7 82 -7c54 0 93.333 5.83301 118 17.5s37 31.5 37 59.5c0 42 -36.667 63 -110 63h-25l-28 -2l98 171h141l-48 -83c46.667 -0.666992 84.5 -11.834 113.5 -33.501s43.5 -54.5 43.5 -98.5 c0 -64.666 -28 -115.833 -84 -153.5s-143 -56.5 -261 -56.5z"/>
   <glyph glyph-name="onesuperior" horiz-adv-x="682" unicode="¹" d="M98 693l23 121h184l91 468l-194 -108l24 122l202 117h175l-116 -599h170l-23 -121h-536z"/>
   <glyph glyph-name="ordmasculine" horiz-adv-x="748" unicode="º" d="M828 1142c0 -135.334 -38.833 -244.666 -116.5 -327.999s-178.5 -125 -302.5 -125c-94.667 0 -169.5 26.167 -224.5 78.5s-82.5 123.166 -82.5 212.499c0 131.335 38 237.168 114 317.5c76 80.333 175.667 120.5 299 120.5c102 0 179.667 -24.5 233 -73.5 s80 -116.5 80 -202.5zM625 1128c0 48.667 -10.499 86.167 -31.499 112.5s-51.833 39.5 -92.5 39.5c-34.667 0 -63.334 -6.33301 -86 -19c-22.667 -12.667 -42.167 -32 -58.5 -58s-28.833 -59.833 -37.5 -101.5s-13 -79.834 -13 -114.501c0 -52.667 10.5 -92.667 31.5 -120 s51.5 -41 91.5 -41c33.334 0 58.667 4 75.999 12c17.333 8 32.833 20.333 46.5 37s25 35.5 34 56.5s17 46.833 24 77.5s12.167 70.334 15.5 119.001z"/>
   <glyph glyph-name="guillemotright" horiz-adv-x="1139" unicode="»" d="M422 938l192 -361l-14 -71l-323 -367h-239l6 41l329 366l-188 353l5 39h232zM880 938l192 -361l-14 -71l-323 -367h-239l6 41l329 366l-188 353l5 39h232z"/>
   <glyph glyph-name="onequarter" horiz-adv-x="1708" unicode="¼" d="M98 693l23 121h184l91 468l-194 -108l24 122l202 117h175l-116 -599h170l-23 -121h-536zM429 0h-197l1086 1409h199zM1420 141l-27 -140h-183l27 140h-347l28 148l395 432h219l-84 -437h103l-28 -143h-103zM1063 284l202 0.000976562l62 299l-17 -22 c-24.667 -34.667 -47.667 -63.334 -69 -86.001z"/>
   <glyph glyph-name="onehalf" horiz-adv-x="1708" unicode="½" d="M98 693l23 121h184l91 468l-194 -108l24 122l202 117h175l-116 -599h170l-23 -121h-536zM429 0h-197l1086 1409h199zM949 1l24 120c26.667 42 61.334 80.333 104.001 115s100.667 72.667 174 114c61.333 33.334 104.833 64.167 130.5 92.5s38.5 59.5 38.5 93.5 c0 19.333 -7.33301 35.5 -22 48.5s-33.667 19.5 -57 19.5c-58.667 0 -96.667 -32.333 -114 -97l-162 34c20.667 66 54 114.167 100 144.5s110 45.5 192 45.5c76.667 0 137 -16.833 181 -50.5s66 -79.167 66 -136.5c0 -40 -8.33301 -74.833 -25 -104.5 c-16.6729 -29.667 -37.8398 -56 -63.501 -79c-25.667 -23 -54.5 -43.5 -86.5 -61.5s-63.333 -35.167 -94 -51.5c-30.667 -16.334 -59 -32.667 -85 -49s-46.333 -34.5 -61 -54.5h349l-25 -143h-564z"/>
   <glyph glyph-name="threequarters" horiz-adv-x="1708" unicode="¾" d="M510 915c0 56.667 -36.999 85 -110.999 85h-68l24 126h60c41.334 0 74.667 8.33301 100 25s38 40 38 70c0 55.333 -27.667 83 -83 83c-60 0 -98.333 -31.333 -115 -94l-163 24c17.333 65.3389 49.333 113.672 96 145c46.667 31.333 114 47 202 47 c78.667 0 140 -14.833 184 -44.5s66 -74.5 66 -134.5c0 -47.333 -16.833 -88 -50.5 -122s-77.834 -53.333 -132.501 -58l-1 -2c42.667 -8 77 -24.833 103 -50.5s39 -59.5 39 -101.5c0 -67.335 -28.333 -121.668 -85 -163c-56.667 -41.333 -133.334 -62 -230.001 -62 c-164 0 -255 65.667 -273 197l181 25c11.333 -66 47.333 -99 108 -99c30.667 0 56.834 8.83301 78.501 26.5s32.5 43.5 32.5 77.5zM429.001 0h-197l1086 1409h199zM1420 141l-27 -140h-183l27 140h-347l28 148l395 432h219l-84 -437h103l-28 -143h-103zM1063 284 l202 0.000976562l62 299l-17 -22c-24.667 -34.667 -47.667 -63.334 -69 -86.001z"/>
   <glyph glyph-name="questiondown" horiz-adv-x="1251" unicode="¿" d="M490 -348c-142.667 0 -255.667 31.333 -339 94s-125 149.667 -125 261c0 60 12.5 113.667 37.5 161s60.167 91.166 105.5 131.499s120.333 89.5 225 147.5c55.333 36.667 92 63.834 110 81.501s32.5 36.667 43.5 57s18.167 43.833 21.5 70.5h267 c-9.33301 -51.334 -24.333 -96.167 -45 -134.5s-47.167 -73 -79.5 -104s-87.833 -70.833 -166.5 -119.5c-46 -28.667 -84.167 -54 -114.5 -76s-54.5 -43.167 -72.5 -63.5s-30.667 -40.833 -38 -61.5s-11 -44 -11 -70c0 -42 16 -76.833 48 -104.5s81.667 -41.5 149 -41.5 c151.333 0 244.333 64.333 279 193l266 -40c-78 -254.667 -265 -382 -561 -382zM926 1082l-52 -270h-289l52 270h289z"/>
   <glyph glyph-name="Agrave" horiz-adv-x="1479" unicode="À" d="M1039 0l-55 360h-537l-195 -360h-294l787 1409h348l238 -1409h-292zM876 1192c-14 -42.6689 -46.667 -113.336 -98 -212l-212 -398h395l-67 452c-12 90 -18 142.667 -18 158zM954 1530l-304 235l9 43h238l203 -247l-7 -31h-139z"/>
   <glyph glyph-name="Aacute" horiz-adv-x="1479" unicode="Á" d="M1039 0l-55 360h-537l-195 -360h-294l787 1409h348l238 -1409h-292zM876 1192c-14 -42.6689 -46.667 -113.336 -98 -212l-212 -398h395l-67 452c-12 90 -18 142.667 -18 158zM764 1530l7 31l270 247h267l-9 -43l-386 -235h-149z"/>
   <glyph glyph-name="Acircumflex" horiz-adv-x="1479" unicode="Â" d="M1039 0l-55 360h-537l-195 -360h-294l787 1409h348l238 -1409h-292zM876 1192c-14 -42.6689 -46.667 -113.336 -98 -212l-212 -398h395l-67 452c-12 90 -18 142.667 -18 158zM1288 1559l-5 -29h-149l-174 151h-4l-240 -151h-169l5 29l311 276h229z"/>
   <glyph glyph-name="Atilde" horiz-adv-x="1479" unicode="Ã" d="M1039 0l-55 360h-537l-195 -360h-294l787 1409h348l238 -1409h-292zM876 1192c-14 -42.6689 -46.667 -113.336 -98 -212l-212 -398h395l-67 452c-12 90 -18 142.667 -18 158zM1067 1530c-29.333 0 -57.501 6.33105 -84.501 18.998s-53 26.834 -78 42.501 s-48.833 29.834 -71.5 42.501s-44 19 -64 19c-28 0 -51.167 -8.5 -69.5 -25.5s-35.833 -49.5 -52.5 -97.5h-136c26 105.333 62.167 180.5 108.5 225.5s103.833 67.5 172.5 67.5c30 0 58.833 -6.33301 86.5 -19c27.6699 -12.6807 53.8369 -26.8477 78.5 -42.501 c24.667 -15.6797 48 -29.8467 70 -42.5c22 -12.667 42.667 -19 62 -19c28.667 0 52.334 9.33301 71.001 28s36 50.334 52 95.001h135c-26 -105.333 -62.167 -180.5 -108.5 -225.5s-103.5 -67.5 -171.5 -67.5z"/>
   <glyph glyph-name="Adieresis" horiz-adv-x="1479" unicode="Ä" d="M1039 0l-55 360h-537l-195 -360h-294l787 1409h348l238 -1409h-292zM876 1192c-14 -42.6689 -46.667 -113.336 -98 -212l-212 -398h395l-67 452c-12 90 -18 142.667 -18 158zM1040 1530l43 219h217l-43 -219h-217zM607 1530l42 219h214l-43 -219h-213z"/>
   <glyph glyph-name="Aring" horiz-adv-x="1479" unicode="Å" d="M1039 0l-55 360h-537l-195 -360h-294l787 1409h348l238 -1409h-292zM876 1192c-14 -42.6689 -46.667 -113.336 -98 -212l-212 -398h395l-67 452c-12 90 -18 142.667 -18 158zM1180 1538c0 -70 -24.5 -129.833 -73.5 -179.5s-109.167 -74.5 -180.5 -74.5 s-131.5 24.833 -180.5 74.5s-73.5 109.5 -73.5 179.5s24.833 129.833 74.5 179.5s109.5 74.5 179.5 74.5s129.833 -24.833 179.5 -74.5s74.5 -109.5 74.5 -179.5zM1053 1538c0 34 -12.167 63.333 -36.5 88s-54.5 37 -90.5 37c-34 0 -63.333 -12 -88 -36s-37 -53.667 -37 -89 c0 -37.333 12.333 -68 37 -92s54 -36 88 -36c35.333 0 65.333 12.333 90 37s37 55 37 91z"/>
   <glyph glyph-name="AE" horiz-adv-x="2048" unicode="Æ" d="M837 0l70 360h-450l-242 -360h-312l965 1409h1231l-45 -227h-701l-69 -355h639l-43 -221h-639l-73 -379h742l-44 -227h-1029zM1068 1192h-61l-136 -209l-269 -401h348z"/>
   <glyph glyph-name="Ccedilla" horiz-adv-x="1479" unicode="Ç" d="M382 573c0 -115.333 28.502 -204.499 85.502 -267.499s138.5 -94.5 244.5 -94.5c177.333 0 316.666 86 417.999 258l227 -117c-140 -248 -361.667 -372 -665 -372c-127.333 0 -237.166 24 -329.499 72s-162.333 116.5 -210 205.5s-71.5 192.833 -71.5 311.5 c0 168 35 318.167 105 450.5s167.833 233.833 293.5 304.5s268.5 106 428.5 106c153.334 0 279.167 -32.833 377.499 -98.5c98.333 -65.667 164.5 -163.5 198.5 -293.5l-274 -71c-19.333 71.335 -56.333 127.668 -111 168.999c-54.667 41.333 -121.334 62 -200.001 62 c-161.333 0 -287.833 -56 -379.5 -168s-137.5 -264.333 -137.5 -457zM543.002 -424.999c-33.333 0 -68.667 2.00098 -106 6.00098l29 117c28.001 -4.66699 55.334 -7 82 -7c54 0 93.333 5.83301 118 17.5s37 31.5 37 59.5c0 42 -36.667 63 -110 63h-25l-28 -2l98 171h141 l-48 -83c46.667 -0.666992 84.5 -11.834 113.5 -33.501s43.5 -54.5 43.5 -98.5c0 -64.666 -28 -115.833 -84 -153.5s-143 -56.5 -261 -56.5z"/>
   <glyph glyph-name="Egrave" horiz-adv-x="1366" unicode="È" d="M36 0l273 1409h1108l-44 -228h-813l-69 -354h752l-44 -228h-752l-72 -371h854l-45 -228h-1148zM860 1530l-304 235l9 43h238l203 -247l-7 -31h-139z"/>
   <glyph glyph-name="Eacute" horiz-adv-x="1366" unicode="É" d="M36 0l273 1409h1108l-44 -228h-813l-69 -354h752l-44 -228h-752l-72 -371h854l-45 -228h-1148zM714 1530l7 31l270 247h267l-9 -43l-386 -235h-149z"/>
   <glyph glyph-name="Ecircumflex" horiz-adv-x="1366" unicode="Ê" d="M36 0l273 1409h1108l-44 -228h-813l-69 -354h752l-44 -228h-752l-72 -371h854l-45 -228h-1148zM1254 1559l-5 -29h-149l-174 151h-4l-240 -151h-169l5 29l311 276h229z"/>
   <glyph glyph-name="Edieresis" horiz-adv-x="1366" unicode="Ë" d="M36 0l273 1409h1108l-44 -228h-813l-69 -354h752l-44 -228h-752l-72 -371h854l-45 -228h-1148zM995 1530l43 219h217l-43 -219h-217zM562 1530l42 219h214l-43 -219h-213z"/>
   <glyph glyph-name="Igrave" horiz-adv-x="569" unicode="Ì" d="M36 0l273 1409h295l-274 -1409h-294zM482 1530l-304 235l9 43h238l203 -247l-7 -31h-139z"/>
   <glyph glyph-name="Iacute" horiz-adv-x="569" unicode="Í" d="M36 0l273 1409h295l-274 -1409h-294zM326 1530l7 31l270 247h267l-9 -43l-386 -235h-149z"/>
   <glyph glyph-name="Icircumflex" horiz-adv-x="569" unicode="Î" d="M36 0l273 1409h295l-274 -1409h-294zM846 1559l-5 -29h-149l-174 151h-4l-240 -151h-169l5 29l311 276h229z"/>
   <glyph glyph-name="Idieresis" horiz-adv-x="569" unicode="Ï" d="M36 0l273 1409h295l-274 -1409h-294zM584 1530l43 219h217l-43 -219h-217zM151 1530l42 219h214l-43 -219h-213z"/>
   <glyph glyph-name="Eth" horiz-adv-x="1479" unicode="Ð" d="M734 1409c222 0 392 -51.666 510 -154.999s177 -252.333 177 -447c0 -157.333 -33 -296.333 -99 -417s-161.667 -215.834 -287 -285.501c-125.334 -69.667 -265.667 -104.5 -421 -104.5h-578l115 594h-128l42 219h129l116 596h424zM488 813.001h357.001l-44 -219h-355 l-71 -366h230c106.667 0 201.167 22.833 283.5 68.5s145.666 111.5 189.999 197.5s66.5 186 66.5 300c0 126 -35.167 222 -105.5 288s-171.5 99 -303.5 99h-176z"/>
   <glyph glyph-name="Ntilde" horiz-adv-x="1479" unicode="Ñ" d="M884 0l-374 1131c-15.333 -108 -28 -187.667 -38 -239l-174 -892h-262l274 1409h350l377 -1141l12 82c7.33301 55.333 17 113.333 29 174l174 885h262l-274 -1409h-356zM1100 1530c-29.333 0 -57.501 6.33105 -84.501 18.998s-53 26.834 -78 42.501 s-48.833 29.834 -71.5 42.501s-44 19 -64 19c-28 0 -51.167 -8.5 -69.5 -25.5s-35.833 -49.5 -52.5 -97.5h-136c26 105.333 62.167 180.5 108.5 225.5s103.833 67.5 172.5 67.5c30 0 58.833 -6.33301 86.5 -19c27.6699 -12.6807 53.8369 -26.8477 78.5 -42.501 c24.667 -15.6797 48 -29.8467 70 -42.5c22 -12.667 42.667 -19 62 -19c28.667 0 52.334 9.33301 71.001 28s36 50.334 52 95.001h135c-26 -105.333 -62.167 -180.5 -108.5 -225.5s-103.5 -67.5 -171.5 -67.5z"/>
   <glyph glyph-name="Ograve" horiz-adv-x="1593" unicode="Ò" d="M928 1430c195.333 0 349.333 -51.832 462 -155.499c112.667 -103.668 169 -244.835 169 -423.501c0 -164.667 -35.167 -314.834 -105.5 -450.501s-168.5 -239.667 -294.5 -312s-270 -108.5 -432 -108.5c-128.667 0 -240.5 24 -335.5 72s-167.333 116.833 -217 206.5 s-74.5 194.5 -74.5 314.5c0 156.667 35.167 302.834 105.5 438.5c70.333 135.667 167.833 239.334 292.5 311.001s268 107.5 430 107.5zM914 1197c-108 0 -200 -25 -276 -75s-134.667 -125.333 -176 -226s-62 -205.667 -62 -315c0 -122.667 30 -214.834 90 -276.5 c60 -61.667 143.667 -92.5 251 -92.5s199 25 275 75s134.833 124.333 176.5 223s62.5 204.334 62.5 317c0 117.333 -29.167 208.333 -87.5 273s-142.833 97 -253.5 97zM988 1530l-304 235l9 43h238l203 -247l-7 -31h-139z"/>
   <glyph glyph-name="Oacute" horiz-adv-x="1593" unicode="Ó" d="M928 1430c195.333 0 349.333 -51.832 462 -155.499c112.667 -103.668 169 -244.835 169 -423.501c0 -164.667 -35.167 -314.834 -105.5 -450.501s-168.5 -239.667 -294.5 -312s-270 -108.5 -432 -108.5c-128.667 0 -240.5 24 -335.5 72s-167.333 116.833 -217 206.5 s-74.5 194.5 -74.5 314.5c0 156.667 35.167 302.834 105.5 438.5c70.333 135.667 167.833 239.334 292.5 311.001s268 107.5 430 107.5zM914 1197c-108 0 -200 -25 -276 -75s-134.667 -125.333 -176 -226s-62 -205.667 -62 -315c0 -122.667 30 -214.834 90 -276.5 c60 -61.667 143.667 -92.5 251 -92.5s199 25 275 75s134.833 124.333 176.5 223s62.5 204.334 62.5 317c0 117.333 -29.167 208.333 -87.5 273s-142.833 97 -253.5 97zM857 1530l7 31l270 247h267l-9 -43l-386 -235h-149z"/>
   <glyph glyph-name="Ocircumflex" horiz-adv-x="1593" unicode="Ô" d="M928 1430c195.333 0 349.333 -51.832 462 -155.499c112.667 -103.668 169 -244.835 169 -423.501c0 -164.667 -35.167 -314.834 -105.5 -450.501s-168.5 -239.667 -294.5 -312s-270 -108.5 -432 -108.5c-128.667 0 -240.5 24 -335.5 72s-167.333 116.833 -217 206.5 s-74.5 194.5 -74.5 314.5c0 156.667 35.167 302.834 105.5 438.5c70.333 135.667 167.833 239.334 292.5 311.001s268 107.5 430 107.5zM914 1197c-108 0 -200 -25 -276 -75s-134.667 -125.333 -176 -226s-62 -205.667 -62 -315c0 -122.667 30 -214.834 90 -276.5 c60 -61.667 143.667 -92.5 251 -92.5s199 25 275 75s134.833 124.333 176.5 223s62.5 204.334 62.5 317c0 117.333 -29.167 208.333 -87.5 273s-142.833 97 -253.5 97zM1317 1559l-5 -29h-149l-174 151h-4l-240 -151h-169l5 29l311 276h229z"/>
   <glyph glyph-name="Otilde" horiz-adv-x="1593" unicode="Õ" d="M928 1430c195.333 0 349.333 -51.832 462 -155.499c112.667 -103.668 169 -244.835 169 -423.501c0 -164.667 -35.167 -314.834 -105.5 -450.501s-168.5 -239.667 -294.5 -312s-270 -108.5 -432 -108.5c-128.667 0 -240.5 24 -335.5 72s-167.333 116.833 -217 206.5 s-74.5 194.5 -74.5 314.5c0 156.667 35.167 302.834 105.5 438.5c70.333 135.667 167.833 239.334 292.5 311.001s268 107.5 430 107.5zM914 1197c-108 0 -200 -25 -276 -75s-134.667 -125.333 -176 -226s-62 -205.667 -62 -315c0 -122.667 30 -214.834 90 -276.5 c60 -61.667 143.667 -92.5 251 -92.5s199 25 275 75s134.833 124.333 176.5 223s62.5 204.334 62.5 317c0 117.333 -29.167 208.333 -87.5 273s-142.833 97 -253.5 97zM1136 1530c-29.333 0 -57.502 6.33105 -84.502 18.998s-53 26.834 -78 42.501 s-48.833 29.834 -71.5 42.501s-44 19 -64 19c-28 0 -51.167 -8.5 -69.5 -25.5s-35.833 -49.5 -52.5 -97.5h-136c26 105.333 62.167 180.5 108.5 225.5s103.833 67.5 172.5 67.5c30 0 58.833 -6.33301 86.5 -19c27.6689 -12.6807 53.8359 -26.8477 78.501 -42.501 c24.667 -15.6797 48 -29.8467 70 -42.5c22 -12.667 42.667 -19 62 -19c28.667 0 52.334 9.33301 71.001 28s36 50.334 52 95.001h135c-26 -105.333 -62.167 -180.5 -108.5 -225.5s-103.5 -67.5 -171.5 -67.5z"/>
   <glyph glyph-name="Odieresis" horiz-adv-x="1593" unicode="Ö" d="M928 1430c195.333 0 349.333 -51.832 462 -155.499c112.667 -103.668 169 -244.835 169 -423.501c0 -164.667 -35.167 -314.834 -105.5 -450.501s-168.5 -239.667 -294.5 -312s-270 -108.5 -432 -108.5c-128.667 0 -240.5 24 -335.5 72s-167.333 116.833 -217 206.5 s-74.5 194.5 -74.5 314.5c0 156.667 35.167 302.834 105.5 438.5c70.333 135.667 167.833 239.334 292.5 311.001s268 107.5 430 107.5zM914 1197c-108 0 -200 -25 -276 -75s-134.667 -125.333 -176 -226s-62 -205.667 -62 -315c0 -122.667 30 -214.834 90 -276.5 c60 -61.667 143.667 -92.5 251 -92.5s199 25 275 75s134.833 124.333 176.5 223s62.5 204.334 62.5 317c0 117.333 -29.167 208.333 -87.5 273s-142.833 97 -253.5 97zM1082 1530l43 219h217l-43 -219h-217zM649 1530l42 219h214l-43 -219h-213z"/>
   <glyph glyph-name="multiply" horiz-adv-x="1196" unicode="×" d="M126 326l356 358l-352 352l158 156l352 -350l352 352l158 -158l-352 -354l352 -350l-158 -160l-352 354l-356 -358z"/>
   <glyph glyph-name="Oslash" horiz-adv-x="1593" unicode="Ø" d="M928 1430c158 0 290 -34.666 396 -103.999l131 140h203l-223 -239c82.667 -98.667 124 -224 124 -376c0 -164.667 -35.167 -314.834 -105.5 -450.501s-168.5 -239.667 -294.5 -312s-270 -108.5 -432 -108.5c-148 0 -271.333 30.333 -370 91l-115 -124h-207l205 220 c-93.333 105.333 -140 240.666 -140 405.999c0 156.667 35.167 302.834 105.5 438.5c70.333 135.667 167.833 239.334 292.5 311.001s268 107.5 430 107.5zM914 1197c-108 0 -200 -25 -276 -75s-134.667 -125.333 -176 -226s-62 -205.667 -62 -315 c0 -80.667 13 -148 39 -202l699 748c-58 46.667 -132.667 70 -224 70zM1255 827.001c0 66.667 -9.66699 125 -29 175l-688 -738c52.667 -34.667 120.334 -52 203 -52c107.333 0 199 25 275 75s134.833 124.333 176.5 223s62.5 204.334 62.5 317z"/>
   <glyph glyph-name="Ugrave" horiz-adv-x="1479" unicode="Ù" d="M688 211c110 0 193.5 25.332 250.5 75.999s96.833 135.334 119.5 254.001l168 868h295l-171 -879c-36.667 -187.333 -110 -325.833 -220 -415.5s-262.667 -134.5 -458 -134.5c-176 0 -312.167 39.167 -408.5 117.5s-144.5 189.5 -144.5 333.5 c0 29.333 2.5 64.5 7.5 105.5s10.167 73.833 15.5 98.5l148 774h295l-153 -810c-12 -58 -18 -115.333 -18 -172c0 -68.667 24.333 -121.834 73 -159.5c48.667 -37.667 115.667 -56.5 201 -56.5zM927 1530l-304 235l9 43h238l203 -247l-7 -31h-139z"/>
   <glyph glyph-name="Uacute" horiz-adv-x="1479" unicode="Ú" d="M688 211c110 0 193.5 25.332 250.5 75.999s96.833 135.334 119.5 254.001l168 868h295l-171 -879c-36.667 -187.333 -110 -325.833 -220 -415.5s-262.667 -134.5 -458 -134.5c-176 0 -312.167 39.167 -408.5 117.5s-144.5 189.5 -144.5 333.5 c0 29.333 2.5 64.5 7.5 105.5s10.167 73.833 15.5 98.5l148 774h295l-153 -810c-12 -58 -18 -115.333 -18 -172c0 -68.667 24.333 -121.834 73 -159.5c48.667 -37.667 115.667 -56.5 201 -56.5zM789 1530l7 31l270 247h267l-9 -43l-386 -235h-149z"/>
   <glyph glyph-name="Ucircumflex" horiz-adv-x="1479" unicode="Û" d="M688 211c110 0 193.5 25.332 250.5 75.999s96.833 135.334 119.5 254.001l168 868h295l-171 -879c-36.667 -187.333 -110 -325.833 -220 -415.5s-262.667 -134.5 -458 -134.5c-176 0 -312.167 39.167 -408.5 117.5s-144.5 189.5 -144.5 333.5 c0 29.333 2.5 64.5 7.5 105.5s10.167 73.833 15.5 98.5l148 774h295l-153 -810c-12 -58 -18 -115.333 -18 -172c0 -68.667 24.333 -121.834 73 -159.5c48.667 -37.667 115.667 -56.5 201 -56.5zM1290 1559l-5 -29h-149l-174 151h-4l-240 -151h-169l5 29l311 276h229z"/>
   <glyph glyph-name="Udieresis" horiz-adv-x="1479" unicode="Ü" d="M688 211c110 0 193.5 25.332 250.5 75.999s96.833 135.334 119.5 254.001l168 868h295l-171 -879c-36.667 -187.333 -110 -325.833 -220 -415.5s-262.667 -134.5 -458 -134.5c-176 0 -312.167 39.167 -408.5 117.5s-144.5 189.5 -144.5 333.5 c0 29.333 2.5 64.5 7.5 105.5s10.167 73.833 15.5 98.5l148 774h295l-153 -810c-12 -58 -18 -115.333 -18 -172c0 -68.667 24.333 -121.834 73 -159.5c48.667 -37.667 115.667 -56.5 201 -56.5zM1033 1530l43 219h217l-43 -219h-217zM600 1530l42 219h214l-43 -219h-213z "/>
   <glyph glyph-name="Yacute" horiz-adv-x="1366" unicode="Ý" d="M724 0h-294l112 578l-370 831h292l259 -605l474 605h323l-684 -831zM716 1530l7 31l270 247h267l-9 -43l-386 -235h-149z"/>
   <glyph glyph-name="Thorn" horiz-adv-x="1366" unicode="Þ" d="M331 0h-295.001l274 1409h295l-44 -225h246c164 0 291.5 -37.333 382.5 -112s136.5 -178 136.5 -310c0 -150 -51.167 -269.333 -153.5 -358s-239.166 -133 -410.499 -133h-378zM427.999 498h289c103.333 0.000976562 180.833 19.334 232.5 58 c51.667 38.667 77.5 102 77.5 190c0 68 -21.333 119.833 -64 155.5s-104 53.5 -184 53.5h-262z"/>
   <glyph glyph-name="germandbls" horiz-adv-x="1251" unicode="ß" d="M35 0l200 1027c33.333 158 96.166 273.667 188.499 347s216.833 110 373.5 110c120.667 0 215.834 -25.667 285.5 -77c69.667 -51.333 104.5 -121.666 104.5 -210.999c0 -110 -47.667 -200.667 -143 -272c-57.335 -42.667 -95.668 -74.667 -114.999 -96 c-19.333 -21.333 -29 -44.333 -29 -69c0 -26.667 9 -50.834 27 -72.501s51 -50.167 99 -85.5c84 -62.667 126 -148 126 -256c0 -111.333 -36.833 -200 -110.5 -266s-171.167 -99 -292.5 -99c-135.333 0 -242.333 19 -321 57l68 186c52 -24 94 -39.5 126 -46.5 s64.667 -10.5 98 -10.5c53.333 0 93.833 14 121.5 42s41.5 66 41.5 114c0 34 -9.33301 64.167 -28 90.5s-50 55.833 -94 88.5c-42.667 30.667 -73.834 63.167 -93.501 97.5s-29.5 74.166 -29.5 119.499s11.5 86.166 34.5 122.499s60.5 73.833 112.5 112.5 c52 39.333 89.333 75.333 112 108s34 68.334 34 107.001c0 35.333 -12.167 63 -36.5 83s-59.833 30 -106.5 30c-77.334 0 -138.167 -21.333 -182.5 -64c-44.334 -42.667 -75.167 -108 -92.499 -196l-197 -1021h-281z"/>
   <glyph glyph-name="agrave" horiz-adv-x="1139" unicode="à" d="M892 -10c-66.667 0 -118.002 14 -154.002 42s-54 65 -54 111c0 24.667 1.66699 46 5 64h-6c-56 -86.667 -111.333 -146.167 -166 -178.5s-121.334 -48.5 -200 -48.5c-93.333 0 -167.833 27.833 -223.5 83.5s-83.5 127.167 -83.5 214.5c0 123.333 42.5 216.5 127.5 279.5 s222.833 96.167 413.5 99.5l191 3c14 63.333 21 107 21 131c0 85.333 -42.333 128 -127 128c-62.667 0 -109.334 -12.167 -140.001 -36.5s-51.667 -59.5 -63 -105.5l-263 31c22.667 96 73.834 169 153.501 219s185.5 75 317.5 75c138 0 239.167 -24.333 303.5 -73 s96.5 -122.667 96.5 -222c0 -24.667 -8 -77 -24 -157l-71 -353c-5.33301 -30 -8 -54 -8 -72c0 -16 3.33301 -28.333 10 -37c6.67383 -8.66699 14.3408 -15 23 -19c8.6709 -4 17.3379 -6.5 26.001 -7.5c8.6748 -1 15.3418 -1.5 20.001 -1.5c20 0 40.667 2.33301 62 7 l-14 -155c-28 -10.667 -56.333 -17 -85 -19s-58 -3 -88 -3zM710.998 503h-161.999c-78 -1.33301 -139.5 -17.333 -184.5 -48s-67.5 -74 -67.5 -130c0 -46.667 13.167 -83.167 39.5 -109.5s61.833 -39.5 106.5 -39.5c55.333 0 105.666 21.5 150.999 64.5s77 99.833 95 170.5z M699.999 1183l-307 276l8 43h258l195 -288l-6 -31h-148z"/>
   <glyph glyph-name="aacute" horiz-adv-x="1139" unicode="á" d="M892 -10c-66.667 0 -118.002 14 -154.002 42s-54 65 -54 111c0 24.667 1.66699 46 5 64h-6c-56 -86.667 -111.333 -146.167 -166 -178.5s-121.334 -48.5 -200 -48.5c-93.333 0 -167.833 27.833 -223.5 83.5s-83.5 127.167 -83.5 214.5c0 123.333 42.5 216.5 127.5 279.5 s222.833 96.167 413.5 99.5l191 3c14 63.333 21 107 21 131c0 85.333 -42.333 128 -127 128c-62.667 0 -109.334 -12.167 -140.001 -36.5s-51.667 -59.5 -63 -105.5l-263 31c22.667 96 73.834 169 153.501 219s185.5 75 317.5 75c138 0 239.167 -24.333 303.5 -73 s96.5 -122.667 96.5 -222c0 -24.667 -8 -77 -24 -157l-71 -353c-5.33301 -30 -8 -54 -8 -72c0 -16 3.33301 -28.333 10 -37c6.67383 -8.66699 14.3408 -15 23 -19c8.6709 -4 17.3379 -6.5 26.001 -7.5c8.6748 -1 15.3418 -1.5 20.001 -1.5c20 0 40.667 2.33301 62 7 l-14 -155c-28 -10.667 -56.333 -17 -85 -19s-58 -3 -88 -3zM710.998 503h-161.999c-78 -1.33301 -139.5 -17.333 -184.5 -48s-67.5 -74 -67.5 -130c0 -46.667 13.167 -83.167 39.5 -109.5s61.833 -39.5 106.5 -39.5c55.333 0 105.666 21.5 150.999 64.5s77 99.833 95 170.5z M541.999 1183l6 31l247 288h277l-8 -43l-376 -276h-146z"/>
   <glyph glyph-name="acircumflex" horiz-adv-x="1139" unicode="â" d="M892 -10c-66.667 0 -118.002 14 -154.002 42s-54 65 -54 111c0 24.667 1.66699 46 5 64h-6c-56 -86.667 -111.333 -146.167 -166 -178.5s-121.334 -48.5 -200 -48.5c-93.333 0 -167.833 27.833 -223.5 83.5s-83.5 127.167 -83.5 214.5c0 123.333 42.5 216.5 127.5 279.5 s222.833 96.167 413.5 99.5l191 3c14 63.333 21 107 21 131c0 85.333 -42.333 128 -127 128c-62.667 0 -109.334 -12.167 -140.001 -36.5s-51.667 -59.5 -63 -105.5l-263 31c22.667 96 73.834 169 153.501 219s185.5 75 317.5 75c138 0 239.167 -24.333 303.5 -73 s96.5 -122.667 96.5 -222c0 -24.667 -8 -77 -24 -157l-71 -353c-5.33301 -30 -8 -54 -8 -72c0 -16 3.33301 -28.333 10 -37c6.67383 -8.66699 14.3408 -15 23 -19c8.6709 -4 17.3379 -6.5 26.001 -7.5c8.6748 -1 15.3418 -1.5 20.001 -1.5c20 0 40.667 2.33301 62 7 l-14 -155c-28 -10.667 -56.333 -17 -85 -19s-58 -3 -88 -3zM710.998 503h-161.999c-78 -1.33301 -139.5 -17.333 -184.5 -48s-67.5 -74 -67.5 -130c0 -46.667 13.167 -83.167 39.5 -109.5s61.833 -39.5 106.5 -39.5c55.333 0 105.666 21.5 150.999 64.5s77 99.833 95 170.5z M1049 1211l-5 -28h-150l-166 192h-4l-248 -192h-169l5 28l320 318h229z"/>
   <glyph glyph-name="atilde" horiz-adv-x="1139" unicode="ã" d="M892 -10c-66.667 0 -118.002 14 -154.002 42s-54 65 -54 111c0 24.667 1.66699 46 5 64h-6c-56 -86.667 -111.333 -146.167 -166 -178.5s-121.334 -48.5 -200 -48.5c-93.333 0 -167.833 27.833 -223.5 83.5s-83.5 127.167 -83.5 214.5c0 123.333 42.5 216.5 127.5 279.5 s222.833 96.167 413.5 99.5l191 3c14 63.333 21 107 21 131c0 85.333 -42.333 128 -127 128c-62.667 0 -109.334 -12.167 -140.001 -36.5s-51.667 -59.5 -63 -105.5l-263 31c22.667 96 73.834 169 153.501 219s185.5 75 317.5 75c138 0 239.167 -24.333 303.5 -73 s96.5 -122.667 96.5 -222c0 -24.667 -8 -77 -24 -157l-71 -353c-5.33301 -30 -8 -54 -8 -72c0 -16 3.33301 -28.333 10 -37c6.67383 -8.66699 14.3408 -15 23 -19c8.6709 -4 17.3379 -6.5 26.001 -7.5c8.6748 -1 15.3418 -1.5 20.001 -1.5c20 0 40.667 2.33301 62 7 l-14 -155c-28 -10.667 -56.333 -17 -85 -19s-58 -3 -88 -3zM710.998 503h-161.999c-78 -1.33301 -139.5 -17.333 -184.5 -48s-67.5 -74 -67.5 -130c0 -46.667 13.167 -83.167 39.5 -109.5s61.833 -39.5 106.5 -39.5c55.333 0 105.666 21.5 150.999 64.5s77 99.833 95 170.5z M827.999 1183c-29.333 0 -57.5 6.33008 -84.5 18.9971s-53 26.834 -78 42.501s-48.833 29.834 -71.5 42.501s-44 19 -64 19c-28 0 -51.167 -8.5 -69.5 -25.5s-35.833 -49.5 -52.5 -97.5h-136c26 105.333 62.167 180.5 108.5 225.5s103.833 67.5 172.5 67.5 c30 0 58.833 -6.33301 86.5 -19c27.6689 -12.6777 53.8359 -26.8447 78.5 -42.5c24.667 -15.6719 48 -29.8389 70 -42.5c22 -12.667 42.667 -19 62 -19c28.6699 0 52.3369 9.33301 71 28c18.667 18.667 36 50.334 52 95.001h135c-26 -105.333 -62.167 -180.5 -108.5 -225.5 s-103.5 -67.5 -171.5 -67.5z"/>
   <glyph glyph-name="adieresis" horiz-adv-x="1139" unicode="ä" d="M892 -10c-66.667 0 -118.002 14 -154.002 42s-54 65 -54 111c0 24.667 1.66699 46 5 64h-6c-56 -86.667 -111.333 -146.167 -166 -178.5s-121.334 -48.5 -200 -48.5c-93.333 0 -167.833 27.833 -223.5 83.5s-83.5 127.167 -83.5 214.5c0 123.333 42.5 216.5 127.5 279.5 s222.833 96.167 413.5 99.5l191 3c14 63.333 21 107 21 131c0 85.333 -42.333 128 -127 128c-62.667 0 -109.334 -12.167 -140.001 -36.5s-51.667 -59.5 -63 -105.5l-263 31c22.667 96 73.834 169 153.501 219s185.5 75 317.5 75c138 0 239.167 -24.333 303.5 -73 s96.5 -122.667 96.5 -222c0 -24.667 -8 -77 -24 -157l-71 -353c-5.33301 -30 -8 -54 -8 -72c0 -16 3.33301 -28.333 10 -37c6.67383 -8.66699 14.3408 -15 23 -19c8.6709 -4 17.3379 -6.5 26.001 -7.5c8.6748 -1 15.3418 -1.5 20.001 -1.5c20 0 40.667 2.33301 62 7 l-14 -155c-28 -10.667 -56.333 -17 -85 -19s-58 -3 -88 -3zM710.998 503h-161.999c-78 -1.33301 -139.5 -17.333 -184.5 -48s-67.5 -74 -67.5 -130c0 -46.667 13.167 -83.167 39.5 -109.5s61.833 -39.5 106.5 -39.5c55.333 0 105.666 21.5 150.999 64.5s77 99.833 95 170.5z M783.999 1199l43 219h217l-43 -219h-217zM350.999 1199l42 219h214l-43 -219h-213z"/>
   <glyph glyph-name="aring" horiz-adv-x="1139" unicode="å" d="M892 -10c-66.667 0 -118.002 14 -154.002 42s-54 65 -54 111c0 24.667 1.66699 46 5 64h-6c-56 -86.667 -111.333 -146.167 -166 -178.5s-121.334 -48.5 -200 -48.5c-93.333 0 -167.833 27.833 -223.5 83.5s-83.5 127.167 -83.5 214.5c0 123.333 42.5 216.5 127.5 279.5 s222.833 96.167 413.5 99.5l191 3c14 63.333 21 107 21 131c0 85.333 -42.333 128 -127 128c-62.667 0 -109.334 -12.167 -140.001 -36.5s-51.667 -59.5 -63 -105.5l-263 31c22.667 96 73.834 169 153.501 219s185.5 75 317.5 75c138 0 239.167 -24.333 303.5 -73 s96.5 -122.667 96.5 -222c0 -24.667 -8 -77 -24 -157l-71 -353c-5.33301 -30 -8 -54 -8 -72c0 -16 3.33301 -28.333 10 -37c6.67383 -8.66699 14.3408 -15 23 -19c8.6709 -4 17.3379 -6.5 26.001 -7.5c8.6748 -1 15.3418 -1.5 20.001 -1.5c20 0 40.667 2.33301 62 7 l-14 -155c-28 -10.667 -56.333 -17 -85 -19s-58 -3 -88 -3zM710.998 503h-161.999c-78 -1.33301 -139.5 -17.333 -184.5 -48s-67.5 -74 -67.5 -130c0 -46.667 13.167 -83.167 39.5 -109.5s61.833 -39.5 106.5 -39.5c55.333 0 105.666 21.5 150.999 64.5s77 99.833 95 170.5z M960.999 1431c0 -70 -24.5 -129.833 -73.5 -179.5s-109.167 -74.5 -180.5 -74.5s-131.5 24.833 -180.5 74.5s-73.5 109.5 -73.5 179.5s24.833 129.833 74.5 179.5s109.5 74.5 179.5 74.5s129.833 -24.833 179.5 -74.5s74.5 -109.5 74.5 -179.5zM833.999 1431 c0 34 -12.167 63.333 -36.5 88s-54.5 37 -90.5 37c-34 0 -63.333 -12 -88 -36s-37 -53.667 -37 -89c0 -37.333 12.333 -68 37 -92s54 -36 88 -36c35.333 0 65.333 12.333 90 37s37 55 37 91z"/>
   <glyph glyph-name="ae" horiz-adv-x="1821" unicode="æ" d="M1027 476c-4.66699 -25.333 -7 -54.9971 -7 -88.9971c0 -70.667 15.5 -124.834 46.5 -162.501s76.833 -56.5 137.5 -56.5c98 0 169 56.333 213 169l245 -74c-50 -106 -112 -179.667 -186 -221s-171 -62 -291 -62c-198 0 -329.333 73 -394 219 c-34 -53.333 -71.833 -95.833 -113.5 -127.5s-87 -54.834 -136 -69.501s-113.167 -22 -192.5 -22c-93.333 0 -167.833 27.833 -223.5 83.5s-83.5 127.167 -83.5 214.5c0 254.667 180.333 382 541 382h191c14 63.333 21 107 21 131c0 85.333 -42.333 128 -127 128 c-62.667 0 -109.334 -12.167 -140.001 -36.5s-51.667 -59.5 -63 -105.5l-263 31c22.667 96 73.834 169 153.501 219s185.5 75 317.5 75c138 0 238 -37.667 300 -113c93.333 75.333 207.333 113 342 113c139.333 0 246.833 -35.833 322.5 -107.5 s113.5 -172.834 113.5 -303.501c0 -66 -8 -137.667 -24 -215h-700zM743 500.003h-160.999c-75.333 0 -134.333 -15.333 -177 -46s-64 -73.667 -64 -129c0 -48 11.5 -84.833 34.5 -110.5s56.167 -38.5 99.5 -38.5c55.333 0 105.666 21.5 150.999 64.5s77 99.833 95 170.5z M1491 663.003l3 56c0 71.333 -16.5 123.333 -49.5 156s-76.167 49 -129.5 49c-64 0 -117.833 -22.167 -161.5 -66.5c-43.6709 -44.334 -74.8379 -109.167 -93.5 -194.5h431z"/>
   <glyph glyph-name="ccedilla" horiz-adv-x="1139" unicode="ç" d="M536 173c55.333 0 100.998 17.5 136.998 52.5s64.667 86.833 86 155.5l271 -50c-71.334 -234 -241.334 -351 -510 -351c-146.667 0 -259.5 37.5 -338.5 112.5s-118.5 179.167 -118.5 312.5c0 130 26.333 252 79 366s122.834 197.667 210.501 251s196.834 80 327.501 80 c126 0 226.667 -31.833 302 -95.5c75.3369 -63.667 117.67 -152.167 126.999 -265.5l-284 -23c-7.33301 127.333 -63 191 -167 191c-71.334 0 -127.167 -24.5 -167.499 -73.5c-40.333 -49 -76.833 -135.833 -109.5 -260.5c-15.333 -76.667 -23 -132.667 -23 -168 c0 -156 59.333 -234 178 -234zM385.998 -425c-33.333 0 -68.667 2.00098 -106 6.00098l29 117c28 -4.66699 55.333 -7 82 -7c54 0 93.333 5.83301 118 17.5s37 31.5 37 59.5c0 42 -36.667 63 -110 63h-25l-28 -2l98 171h141l-48 -83 c46.667 -0.666992 84.5 -11.834 113.5 -33.501s43.5 -54.5 43.5 -98.5c0 -64.666 -28 -115.833 -84 -153.5s-143 -56.5 -261 -56.5z"/>
   <glyph glyph-name="egrave" horiz-adv-x="1139" unicode="è" d="M358 476c-4.66699 -25.333 -7 -54.998 -7 -88.998c0 -70.667 15.5 -124.834 46.5 -162.501s76.833 -56.5 137.5 -56.5c98 0 169 56.333 213 169l245 -74c-50 -106 -112 -179.667 -186 -221s-171 -62 -291 -62c-142 0 -253 38.5 -333 115.5s-120 184.5 -120 322.5 s24 258.833 72 362.5s116.167 183.167 204.5 238.5s190.5 83 306.5 83c139.333 0 246.833 -35.833 322.5 -107.5s113.5 -172.834 113.5 -303.501c0 -66 -8 -137.667 -24 -215h-700zM822 663.002l3 56c0 71.333 -16.5 123.333 -49.5 156s-76.167 49 -129.5 49 c-64 0 -117.833 -22.167 -161.5 -66.5c-43.667 -44.334 -74.834 -109.167 -93.5 -194.5h431zM715 1183l-307 276l8 43h258l195 -288l-6 -31h-148z"/>
   <glyph glyph-name="eacute" horiz-adv-x="1139" unicode="é" d="M358 476c-4.66699 -25.333 -7 -54.998 -7 -88.998c0 -70.667 15.5 -124.834 46.5 -162.501s76.833 -56.5 137.5 -56.5c98 0 169 56.333 213 169l245 -74c-50 -106 -112 -179.667 -186 -221s-171 -62 -291 -62c-142 0 -253 38.5 -333 115.5s-120 184.5 -120 322.5 s24 258.833 72 362.5s116.167 183.167 204.5 238.5s190.5 83 306.5 83c139.333 0 246.833 -35.833 322.5 -107.5s113.5 -172.834 113.5 -303.501c0 -66 -8 -137.667 -24 -215h-700zM822 663.002l3 56c0 71.333 -16.5 123.333 -49.5 156s-76.167 49 -129.5 49 c-64 0 -117.833 -22.167 -161.5 -66.5c-43.667 -44.334 -74.834 -109.167 -93.5 -194.5h431zM524 1183l6 31l247 288h277l-8 -43l-376 -276h-146z"/>
   <glyph glyph-name="ecircumflex" horiz-adv-x="1139" unicode="ê" d="M358 476c-4.66699 -25.333 -7 -54.998 -7 -88.998c0 -70.667 15.5 -124.834 46.5 -162.501s76.833 -56.5 137.5 -56.5c98 0 169 56.333 213 169l245 -74c-50 -106 -112 -179.667 -186 -221s-171 -62 -291 -62c-142 0 -253 38.5 -333 115.5s-120 184.5 -120 322.5 s24 258.833 72 362.5s116.167 183.167 204.5 238.5s190.5 83 306.5 83c139.333 0 246.833 -35.833 322.5 -107.5s113.5 -172.834 113.5 -303.501c0 -66 -8 -137.667 -24 -215h-700zM822 663.002l3 56c0 71.333 -16.5 123.333 -49.5 156s-76.167 49 -129.5 49 c-64 0 -117.833 -22.167 -161.5 -66.5c-43.667 -44.334 -74.834 -109.167 -93.5 -194.5h431zM1049 1211l-5 -28h-150l-166 192h-4l-248 -192h-169l5 28l320 318h229z"/>
   <glyph glyph-name="edieresis" horiz-adv-x="1139" unicode="ë" d="M358 476c-4.66699 -25.333 -7 -54.998 -7 -88.998c0 -70.667 15.5 -124.834 46.5 -162.501s76.833 -56.5 137.5 -56.5c98 0 169 56.333 213 169l245 -74c-50 -106 -112 -179.667 -186 -221s-171 -62 -291 -62c-142 0 -253 38.5 -333 115.5s-120 184.5 -120 322.5 s24 258.833 72 362.5s116.167 183.167 204.5 238.5s190.5 83 306.5 83c139.333 0 246.833 -35.833 322.5 -107.5s113.5 -172.834 113.5 -303.501c0 -66 -8 -137.667 -24 -215h-700zM822 663.002l3 56c0 71.333 -16.5 123.333 -49.5 156s-76.167 49 -129.5 49 c-64 0 -117.833 -22.167 -161.5 -66.5c-43.667 -44.334 -74.834 -109.167 -93.5 -194.5h431zM795 1199l43 219h217l-43 -219h-217zM362 1199l42 219h214l-43 -219h-213z"/>
   <glyph glyph-name="igrave" horiz-adv-x="569" unicode="ì" d="M35 0l210 1082h281l-211 -1082h-280zM405 1183l-307 276l8 43h258l195 -288l-6 -31h-148z"/>
   <glyph glyph-name="iacute" horiz-adv-x="569" unicode="í" d="M35 0l210 1082h281l-211 -1082h-280zM258 1183l6 31l247 288h277l-8 -43l-376 -276h-146z"/>
   <glyph glyph-name="icircumflex" horiz-adv-x="569" unicode="î" d="M35 0l210 1082h281l-211 -1082h-280zM769 1211l-5 -28h-150l-166 192h-4l-248 -192h-169l5 28l320 318h229z"/>
   <glyph glyph-name="idieresis" horiz-adv-x="569" unicode="ï" d="M35 0l210 1082h281l-211 -1082h-280zM514 1199l43 219h217l-43 -219h-217zM81 1199l42 219h214l-43 -219h-213z"/>
   <glyph glyph-name="eth" horiz-adv-x="1251" unicode="ð" d="M661 1305c-82.667 80.667 -156.667 140.332 -222 178.999h293c48 -25.333 95 -56.666 141 -93.999l295 109l-32 -176l-145 -54c63.333 -82 109.333 -165.833 138 -251.5s43 -182.167 43 -289.5c0 -236 -57 -419.667 -171 -551s-272 -197 -474 -197 c-146 0 -260.667 38.5 -344 115.5s-125 181.833 -125 314.5c0 172 53 309.833 159 413.5s250 155.5 432 155.5c40.668 0 83.335 -6.16699 128 -18.5c44.668 -12.3369 79.335 -27.1699 104 -44.5c-21.333 93.333 -63 181.333 -125 264l-277 -111l33 179zM658 786.998 c-92 0 -166 -35.999 -222 -107.999s-84 -166.667 -84 -284c0 -68 18.333 -122.167 55 -162.5s86 -60.5 148 -60.5c58 0 111.167 19.167 159.5 57.5s86 91 113 158s40.5 139.833 40.5 218.499c0 56.667 -17.667 101 -53 133c-35.335 32 -87.668 48 -157 48z"/>
   <glyph glyph-name="ntilde" horiz-adv-x="1251" unicode="ñ" d="M738 0l118.001 595.001c17.333 82.667 26 137.667 26 165c0 86 -50.667 129 -152 129c-67.334 0 -129.667 -27.333 -187 -82s-93.333 -121.667 -108 -201l-118 -606h-282l166 851c10.667 52.667 23.334 129.667 38 231h268c0 -6 -3.16699 -34 -9.5 -84 s-11.166 -83.667 -14.499 -101h3c50 69.333 105.167 120.666 165.5 153.999s129.5 50 207.5 50c101.333 0 177.666 -24.333 228.999 -73s77 -119 77 -211c0 -16.667 -2.33301 -43.167 -7 -79.5c-4.70215 -36.333 -9.36914 -64.5 -14.001 -84.5l-127 -653h-279zM919.001 1183 c-29.333 0 -57.501 6.33105 -84.501 18.998s-53 26.834 -78 42.501s-48.833 29.834 -71.5 42.501s-44 19 -64 19c-28 0 -51.167 -8.5 -69.5 -25.5s-35.833 -49.5 -52.5 -97.5h-136c26 105.333 62.167 180.5 108.5 225.5s103.833 67.5 172.5 67.5 c30 0 58.833 -6.33301 86.5 -19c27.668 -12.6777 53.835 -26.8447 78.5 -42.501c24.667 -15.6719 48 -29.8389 70 -42.5c22 -12.667 42.667 -19 62 -19c28.6709 0 52.3379 9.33301 71.001 28c18.667 18.667 36 50.334 52 95.001h135 c-26 -105.333 -62.167 -180.5 -108.5 -225.5s-103.5 -67.5 -171.5 -67.5z"/>
   <glyph glyph-name="ograve" horiz-adv-x="1251" unicode="ò" d="M1185 683c0 -138 -27.167 -260.667 -81.5 -368s-131.333 -190 -231 -248s-212.167 -87 -337.5 -87c-145.333 0 -260.333 39.167 -345 117.5s-127 185.5 -127 321.5c0 134 26.5 252.667 79.5 356s128.5 183.5 226.5 240.5s209.667 85.5 335 85.5 c156.667 0 276 -36.5 358 -109.5s123 -175.833 123 -308.5zM891 662c0 164.667 -69.332 246.999 -207.999 246.999c-76 0 -136.5 -20 -181.5 -60s-80.167 -100.833 -105.5 -182.5s-38 -160.167 -38 -235.5c0 -172.667 69.333 -259 207.999 -259 c74.667 0 133.834 18.833 177.5 56.5c43.667 37.667 78 94.834 103 171.501s39.833 164 44.5 262zM739.001 1183l-307 276l8 43h258l195 -288l-6 -31h-148z"/>
   <glyph glyph-name="oacute" horiz-adv-x="1251" unicode="ó" d="M1185 683c0 -138 -27.167 -260.667 -81.5 -368s-131.333 -190 -231 -248s-212.167 -87 -337.5 -87c-145.333 0 -260.333 39.167 -345 117.5s-127 185.5 -127 321.5c0 134 26.5 252.667 79.5 356s128.5 183.5 226.5 240.5s209.667 85.5 335 85.5 c156.667 0 276 -36.5 358 -109.5s123 -175.833 123 -308.5zM891 662c0 164.667 -69.332 246.999 -207.999 246.999c-76 0 -136.5 -20 -181.5 -60s-80.167 -100.833 -105.5 -182.5s-38 -160.167 -38 -235.5c0 -172.667 69.333 -259 207.999 -259 c74.667 0 133.834 18.833 177.5 56.5c43.667 37.667 78 94.834 103 171.501s39.833 164 44.5 262zM619.001 1183l6 31l247 288h277l-8 -43l-376 -276h-146z"/>
   <glyph glyph-name="ocircumflex" horiz-adv-x="1251" unicode="ô" d="M1185 683c0 -138 -27.167 -260.667 -81.5 -368s-131.333 -190 -231 -248s-212.167 -87 -337.5 -87c-145.333 0 -260.333 39.167 -345 117.5s-127 185.5 -127 321.5c0 134 26.5 252.667 79.5 356s128.5 183.5 226.5 240.5s209.667 85.5 335 85.5 c156.667 0 276 -36.5 358 -109.5s123 -175.833 123 -308.5zM891 662c0 164.667 -69.332 246.999 -207.999 246.999c-76 0 -136.5 -20 -181.5 -60s-80.167 -100.833 -105.5 -182.5s-38 -160.167 -38 -235.5c0 -172.667 69.333 -259 207.999 -259 c74.667 0 133.834 18.833 177.5 56.5c43.667 37.667 78 94.834 103 171.501s39.833 164 44.5 262zM1102 1211l-5 -28h-150l-166 192h-4l-248 -192h-169l5 28l320 318h229z"/>
   <glyph glyph-name="otilde" horiz-adv-x="1251" unicode="õ" d="M1185 683c0 -138 -27.167 -260.667 -81.5 -368s-131.333 -190 -231 -248s-212.167 -87 -337.5 -87c-145.333 0 -260.333 39.167 -345 117.5s-127 185.5 -127 321.5c0 134 26.5 252.667 79.5 356s128.5 183.5 226.5 240.5s209.667 85.5 335 85.5 c156.667 0 276 -36.5 358 -109.5s123 -175.833 123 -308.5zM891 662c0 164.667 -69.332 246.999 -207.999 246.999c-76 0 -136.5 -20 -181.5 -60s-80.167 -100.833 -105.5 -182.5s-38 -160.167 -38 -235.5c0 -172.667 69.333 -259 207.999 -259 c74.667 0 133.834 18.833 177.5 56.5c43.667 37.667 78 94.834 103 171.501s39.833 164 44.5 262zM892.001 1183c-29.333 0 -57.501 6.33105 -84.501 18.998s-53 26.834 -78 42.501s-48.833 29.834 -71.5 42.501s-44 19 -64 19c-28 0 -51.167 -8.5 -69.5 -25.5 s-35.833 -49.5 -52.5 -97.5h-136c26 105.333 62.167 180.5 108.5 225.5s103.833 67.5 172.5 67.5c30 0 58.833 -6.33301 86.5 -19c27.6699 -12.6777 53.8369 -26.8447 78.501 -42.501c24.667 -15.6719 48 -29.8389 70 -42.5c22 -12.667 42.667 -19 62 -19 c28.6699 0 52.3369 9.33301 71 28c18.667 18.667 36 50.334 52 95.001h135c-26 -105.333 -62.167 -180.5 -108.5 -225.5s-103.5 -67.5 -171.5 -67.5z"/>
   <glyph glyph-name="odieresis" horiz-adv-x="1251" unicode="ö" d="M1185 683c0 -138 -27.167 -260.667 -81.5 -368s-131.333 -190 -231 -248s-212.167 -87 -337.5 -87c-145.333 0 -260.333 39.167 -345 117.5s-127 185.5 -127 321.5c0 134 26.5 252.667 79.5 356s128.5 183.5 226.5 240.5s209.667 85.5 335 85.5 c156.667 0 276 -36.5 358 -109.5s123 -175.833 123 -308.5zM891 662c0 164.667 -69.332 246.999 -207.999 246.999c-76 0 -136.5 -20 -181.5 -60s-80.167 -100.833 -105.5 -182.5s-38 -160.167 -38 -235.5c0 -172.667 69.333 -259 207.999 -259 c74.667 0 133.834 18.833 177.5 56.5c43.667 37.667 78 94.834 103 171.501s39.833 164 44.5 262zM858.001 1199l43 219h217l-43 -219h-217zM425.001 1199l42 219h214l-43 -219h-213z"/>
   <glyph glyph-name="divide" horiz-adv-x="1124" unicode="÷" d="M462 961v233h238v-233h-238zM69 569v224h1027v-224h-1027zM462 170v233h238v-233h-238z"/>
   <glyph glyph-name="oslash" horiz-adv-x="1251" unicode="ø" d="M42 -38l131 152c-73.333 76 -110 177.667 -110 305c0 134 26.5 252.667 79.5 356s128.5 183.5 226.5 240.5s209.667 85.5 335 85.5c106 0 197 -18 273 -54l60 69h189l-134 -156c62 -70 93 -162.333 93 -277c0 -138 -27.167 -260.667 -81.5 -368s-131.333 -190 -231 -248 s-212.167 -87 -337.5 -87c-92 0 -173.333 16.333 -244 49l-58 -67h-191zM358 431c0 -33.333 2.66699 -64.333 8 -93l455 527c-33.333 29.333 -79.333 44 -138 44c-76 0 -136.5 -20 -181.5 -60s-80.167 -100.833 -105.5 -182.5s-38 -160.167 -38 -235.5zM891 662 c0 21.333 -1.33301 41.332 -4 59.999l-444 -516c32.667 -22.667 73.667 -34 123 -34c74.667 0 133.834 18.833 177.5 56.5c43.667 37.667 78 94.834 103 171.501s39.833 164 44.5 262z"/>
   <glyph glyph-name="ugrave" horiz-adv-x="1251" unicode="ù" d="M512 1082l-118.001 -595.001c-17.333 -82 -26 -137 -26 -165c0 -86 50.667 -129 152 -129c67.333 0 129.5 27 186.5 81s93.167 121.333 108.5 202l118 606h282l-166 -851c-10.6748 -52.667 -23.3418 -129.667 -38.001 -231h-268c0 6 3.16699 34 9.5 84 s11.166 83.667 14.499 101h-3c-50.667 -71.333 -106.167 -123.166 -166.5 -155.499s-129.166 -48.5 -206.499 -48.5c-101.333 0 -177.666 24.333 -228.999 73s-77 119 -77 211c0 16.667 2.33301 43.5 7 80.5s9.33398 64.833 14.001 83.5l127 653h279zM732.999 1183l-307 276 l8 43h258l195 -288l-6 -31h-148z"/>
   <glyph glyph-name="uacute" horiz-adv-x="1251" unicode="ú" d="M512 1082l-118.001 -595.001c-17.333 -82 -26 -137 -26 -165c0 -86 50.667 -129 152 -129c67.333 0 129.5 27 186.5 81s93.167 121.333 108.5 202l118 606h282l-166 -851c-10.6748 -52.667 -23.3418 -129.667 -38.001 -231h-268c0 6 3.16699 34 9.5 84 s11.166 83.667 14.499 101h-3c-50.667 -71.333 -106.167 -123.166 -166.5 -155.499s-129.166 -48.5 -206.499 -48.5c-101.333 0 -177.666 24.333 -228.999 73s-77 119 -77 211c0 16.667 2.33301 43.5 7 80.5s9.33398 64.833 14.001 83.5l127 653h279zM603.999 1183l6 31 l247 288h277l-8 -43l-376 -276h-146z"/>
   <glyph glyph-name="ucircumflex" horiz-adv-x="1251" unicode="û" d="M512 1082l-118.001 -595.001c-17.333 -82 -26 -137 -26 -165c0 -86 50.667 -129 152 -129c67.333 0 129.5 27 186.5 81s93.167 121.333 108.5 202l118 606h282l-166 -851c-10.6748 -52.667 -23.3418 -129.667 -38.001 -231h-268c0 6 3.16699 34 9.5 84 s11.166 83.667 14.499 101h-3c-50.667 -71.333 -106.167 -123.166 -166.5 -155.499s-129.166 -48.5 -206.499 -48.5c-101.333 0 -177.666 24.333 -228.999 73s-77 119 -77 211c0 16.667 2.33301 43.5 7 80.5s9.33398 64.833 14.001 83.5l127 653h279zM1111 1211l-5 -28h-150 l-166 192h-4l-248 -192h-169l5 28l320 318h229z"/>
   <glyph glyph-name="udieresis" horiz-adv-x="1251" unicode="ü" d="M512 1082l-118.001 -595.001c-17.333 -82 -26 -137 -26 -165c0 -86 50.667 -129 152 -129c67.333 0 129.5 27 186.5 81s93.167 121.333 108.5 202l118 606h282l-166 -851c-10.6748 -52.667 -23.3418 -129.667 -38.001 -231h-268c0 6 3.16699 34 9.5 84 s11.166 83.667 14.499 101h-3c-50.667 -71.333 -106.167 -123.166 -166.5 -155.499s-129.166 -48.5 -206.499 -48.5c-101.333 0 -177.666 24.333 -228.999 73s-77 119 -77 211c0 16.667 2.33301 43.5 7 80.5s9.33398 64.833 14.001 83.5l127 653h279zM852.999 1199l43 219 h217l-43 -219h-217zM419.999 1199l42 219h214l-43 -219h-213z"/>
   <glyph glyph-name="yacute" horiz-adv-x="1139" unicode="ý" d="M88 -425c-64.667 0 -122.333 5.99902 -173 17.999l38 196c26.667 -6 55.667 -9 87 -9c52 0 97.833 15.333 137.5 46s79.167 80.667 118.5 150l28 48l-212 1058h291l71 -497c4 -20.667 11.167 -80 21.5 -178s14.833 -150 13.5 -156l17 37l139 293l259 501h300l-654 -1139 c-71.333 -111.333 -129.5 -189.666 -174.5 -234.999s-92 -78.833 -141 -100.5s-104.5 -32.5 -166.5 -32.5zM527.001 1183l6 31l247 288h277l-8 -43l-376 -276h-146z"/>
   <glyph glyph-name="thorn" horiz-adv-x="1251" unicode="þ" d="M728 907c-84 0 -151.166 -29.335 -201.499 -88.002s-86.833 -147 -109.5 -265c-11.333 -62 -17 -113 -17 -153c0 -71.333 17.667 -127.166 53 -167.499s84.666 -60.5 147.999 -60.5c68 0 121.667 21.333 161 64s70.333 111.334 93 206.001s34 178.334 34 251 c0 70.667 -12.833 123.834 -38.5 159.5c-25.667 35.667 -66.5 53.5 -122.5 53.5zM487.001 912.998l6 -0.000976562c48 66.667 99.5 114.834 154.5 144.501s121.833 44.5 200.5 44.5c106.001 0 188.668 -31.5 248 -94.5c59.333 -63 89 -149.5 89 -259.5 c0 -134.667 -20.667 -265.834 -62 -393.501s-99.5 -222 -174.5 -283s-170.5 -91.5 -286.5 -91.5c-83.333 0 -151 17.333 -203 52s-88.667 83.334 -110 146.001h-2l-14 -90l-18 -98l-81 -415h-280l369 1909h281l-83 -427c-12 -61.333 -23.333 -109.333 -34 -144z"/>
   <glyph glyph-name="ydieresis" horiz-adv-x="1139" unicode="ÿ" d="M106 -425c-64.667 0 -122.332 5.99902 -172.999 17.999l38 196c26.667 -6 55.667 -9 87 -9c52 0 97.833 15.333 137.5 46s79.167 80.667 118.5 150l28 48l-212 1058h291l71 -497c4 -20.667 11.167 -80 21.5 -178s14.833 -150 13.5 -156l17 37l139 293l259 501h300 l-654 -1139c-71.334 -111.333 -129.501 -189.666 -174.501 -234.999s-92 -78.833 -141 -100.5s-104.5 -32.5 -166.5 -32.5zM807.002 1196l43 219h217l-43 -219h-217zM374.002 1196l42 219h214l-43 -219h-213z"/>
   <glyph glyph-name="Amacron" horiz-adv-x="1479" unicode="Ā" d="M1039 0l-55 360h-537l-195 -360h-294l787 1409h348l238 -1409h-292zM876 1192c-14 -42.6689 -46.667 -113.336 -98 -212l-212 -398h395l-67 452c-12 90 -18 142.667 -18 158zM1216 1537h-586l33 168h590z"/>
   <glyph glyph-name="amacron" horiz-adv-x="1139" unicode="ā" d="M892 -10c-66.667 0 -118.002 14 -154.002 42s-54 65 -54 111c0 24.667 1.66699 46 5 64h-6c-56 -86.667 -111.333 -146.167 -166 -178.5s-121.334 -48.5 -200 -48.5c-93.333 0 -167.833 27.833 -223.5 83.5s-83.5 127.167 -83.5 214.5c0 123.333 42.5 216.5 127.5 279.5 s222.833 96.167 413.5 99.5l191 3c14 63.333 21 107 21 131c0 85.333 -42.333 128 -127 128c-62.667 0 -109.334 -12.167 -140.001 -36.5s-51.667 -59.5 -63 -105.5l-263 31c22.667 96 73.834 169 153.501 219s185.5 75 317.5 75c138 0 239.167 -24.333 303.5 -73 s96.5 -122.667 96.5 -222c0 -24.667 -8 -77 -24 -157l-71 -353c-5.33301 -30 -8 -54 -8 -72c0 -16 3.33301 -28.333 10 -37c6.67383 -8.66699 14.3408 -15 23 -19c8.6709 -4 17.3379 -6.5 26.001 -7.5c8.6748 -1 15.3418 -1.5 20.001 -1.5c20 0 40.667 2.33301 62 7 l-14 -155c-28 -10.667 -56.333 -17 -85 -19s-58 -3 -88 -3zM710.998 503h-161.999c-78 -1.33301 -139.5 -17.333 -184.5 -48s-67.5 -74 -67.5 -130c0 -46.667 13.167 -83.167 39.5 -109.5s61.833 -39.5 106.5 -39.5c55.333 0 105.666 21.5 150.999 64.5s77 99.833 95 170.5z M970.999 1203h-586l33 168h590z"/>
   <glyph glyph-name="Abreve" horiz-adv-x="1479" unicode="Ă" d="M1039 0l-55 360h-537l-195 -360h-294l787 1409h348l238 -1409h-292zM876 1192c-14 -42.6689 -46.667 -113.336 -98 -212l-212 -398h395l-67 452c-12 90 -18 142.667 -18 158zM924 1520c-94.667 0 -170.5 27 -227.5 81s-85.5 128 -85.5 222h165 c0 -50 15.167 -89.833 45.5 -119.5s71.833 -44.5 124.5 -44.5c52.002 0 95.6689 12.667 131 38c35.333 25.333 62 67.333 80 126h164c-28 -102 -74.333 -178 -139 -228s-150.667 -75 -258 -75z"/>
   <glyph glyph-name="abreve" horiz-adv-x="1139" unicode="ă" d="M892 -10c-66.667 0 -118.002 14 -154.002 42s-54 65 -54 111c0 24.667 1.66699 46 5 64h-6c-56 -86.667 -111.333 -146.167 -166 -178.5s-121.334 -48.5 -200 -48.5c-93.333 0 -167.833 27.833 -223.5 83.5s-83.5 127.167 -83.5 214.5c0 123.333 42.5 216.5 127.5 279.5 s222.833 96.167 413.5 99.5l191 3c14 63.333 21 107 21 131c0 85.333 -42.333 128 -127 128c-62.667 0 -109.334 -12.167 -140.001 -36.5s-51.667 -59.5 -63 -105.5l-263 31c22.667 96 73.834 169 153.501 219s185.5 75 317.5 75c138 0 239.167 -24.333 303.5 -73 s96.5 -122.667 96.5 -222c0 -24.667 -8 -77 -24 -157l-71 -353c-5.33301 -30 -8 -54 -8 -72c0 -16 3.33301 -28.333 10 -37c6.67383 -8.66699 14.3408 -15 23 -19c8.6709 -4 17.3379 -6.5 26.001 -7.5c8.6748 -1 15.3418 -1.5 20.001 -1.5c20 0 40.667 2.33301 62 7 l-14 -155c-28 -10.667 -56.333 -17 -85 -19s-58 -3 -88 -3zM710.998 503h-161.999c-78 -1.33301 -139.5 -17.333 -184.5 -48s-67.5 -74 -67.5 -130c0 -46.667 13.167 -83.167 39.5 -109.5s61.833 -39.5 106.5 -39.5c55.333 0 105.666 21.5 150.999 64.5s77 99.833 95 170.5z M705.999 1183c-93.333 0 -168.831 26.167 -226.498 78.5c-57.667 52.3359 -86.5 121.169 -86.5 206.5l2 38h163c0 -49.333 15.167 -89.333 45.5 -120s69.833 -46 118.5 -46c52 0 97.167 14.5 135.5 43.5s65.5 69.833 81.5 122.5h164 c-28.6689 -109.333 -75.3359 -190.5 -140.001 -243.5c-64.667 -53 -150.334 -79.5 -257.001 -79.5z"/>
   <glyph glyph-name="Aogonek" horiz-adv-x="1479" unicode="Ą" d="M1039 0l-55 360h-537l-195 -360h-294l787 1409h348l238 -1409h-292zM876 1192c-14 -42.6689 -46.667 -113.336 -98 -212l-212 -398h395l-67 452c-12 90 -18 142.667 -18 158zM1095 -414c-60 0 -108.332 16.002 -144.999 48.002s-55 75.667 -55 131 c0 48.667 15.167 95.167 45.5 139.5s75.166 83.166 134.499 116.499h164c-40.667 -25.333 -75.167 -59.333 -103.5 -102s-42.5 -82.334 -42.5 -119.001c0 -25.333 7.33301 -44.333 22 -57s33.667 -19 57 -19c32.667 0 66.667 7.66699 102 23l-19 -127 c-52.667 -22.667 -106 -34 -160 -34z"/>
   <glyph glyph-name="aogonek" horiz-adv-x="1139" unicode="ą" d="M892 -10c-66.667 0 -118.002 14 -154.002 42s-54 65 -54 111c0 24.667 1.66699 46 5 64h-6c-56 -86.667 -111.333 -146.167 -166 -178.5s-121.334 -48.5 -200 -48.5c-93.333 0 -167.833 27.833 -223.5 83.5s-83.5 127.167 -83.5 214.5c0 123.333 42.5 216.5 127.5 279.5 s222.833 96.167 413.5 99.5l191 3c14 63.333 21 107 21 131c0 85.333 -42.333 128 -127 128c-62.667 0 -109.334 -12.167 -140.001 -36.5s-51.667 -59.5 -63 -105.5l-263 31c22.667 96 73.834 169 153.501 219s185.5 75 317.5 75c138 0 239.167 -24.333 303.5 -73 s96.5 -122.667 96.5 -222c0 -24.667 -8 -77 -24 -157l-71 -353c-5.33301 -30 -8 -54 -8 -72c0 -16 3.33301 -28.333 10 -37c6.67383 -8.66699 14.3408 -15 23 -19c8.6709 -4 17.3379 -6.5 26.001 -7.5c8.6748 -1 15.3418 -1.5 20.001 -1.5c20 0 40.667 2.33301 62 7 l-14 -155c-28 -10.667 -56.333 -17 -85 -19s-58 -3 -88 -3zM710.998 503h-161.999c-78 -1.33301 -139.5 -17.333 -184.5 -48s-67.5 -74 -67.5 -130c0 -46.667 13.167 -83.167 39.5 -109.5s61.833 -39.5 106.5 -39.5c55.333 0 105.666 21.5 150.999 64.5s77 99.833 95 170.5z M807.999 -425c-60 0 -108.332 16.002 -144.999 48.002s-55 75.667 -55 131c0 48.667 15.167 95.167 45.5 139.5s75.166 83.166 134.499 116.499h164c-40.667 -25.333 -75.167 -59.333 -103.5 -102s-42.5 -82.334 -42.5 -119.001c0 -25.333 7.33301 -44.333 22 -57 s33.667 -19 57 -19c32.667 0 66.667 7.66699 102 23l-19 -127c-52.667 -22.667 -106 -34 -160 -34z"/>
   <glyph glyph-name="Cacute" horiz-adv-x="1479" unicode="Ć" d="M401 573c0 -115.333 28.502 -204.499 85.502 -267.499s138.5 -94.5 244.5 -94.5c177.333 0 316.666 86 417.999 258l227 -117c-140 -248 -361.667 -372 -665 -372c-127.333 0 -237.166 24 -329.499 72s-162.333 116.5 -210 205.5s-71.5 192.833 -71.5 311.5 c0 168 35 318.167 105 450.5s167.833 233.833 293.5 304.5s268.5 106 428.5 106c153.334 0 279.167 -32.833 377.499 -98.5c98.333 -65.667 164.5 -163.5 198.5 -293.5l-274 -71c-19.333 71.335 -56.333 127.668 -111 168.999c-54.667 41.333 -121.334 62 -200.001 62 c-161.333 0 -287.833 -56 -379.5 -168s-137.5 -264.333 -137.5 -457zM842.002 1530l7 31l270 247h267l-9 -43l-386 -235h-149z"/>
   <glyph glyph-name="cacute" horiz-adv-x="1139" unicode="ć" d="M536 173c55.333 0 100.998 17.5 136.998 52.5s64.667 86.833 86 155.5l271 -50c-71.334 -234 -241.334 -351 -510 -351c-146.667 0 -259.5 37.5 -338.5 112.5s-118.5 179.167 -118.5 312.5c0 130 26.333 252 79 366s122.834 197.667 210.501 251s196.834 80 327.501 80 c126 0 226.667 -31.833 302 -95.5c75.3369 -63.667 117.67 -152.167 126.999 -265.5l-284 -23c-7.33301 127.333 -63 191 -167 191c-71.334 0 -127.167 -24.5 -167.499 -73.5c-40.333 -49 -76.833 -135.833 -109.5 -260.5c-15.333 -76.667 -23 -132.667 -23 -168 c0 -156 59.333 -234 178 -234zM602.998 1183l6 31l247 288h277l-8 -43l-376 -276h-146z"/>
   <glyph glyph-name="Ccircumflex" horiz-adv-x="1479" unicode="Ĉ" d="M401 573c0 -115.333 28.502 -204.499 85.502 -267.499s138.5 -94.5 244.5 -94.5c177.333 0 316.666 86 417.999 258l227 -117c-140 -248 -361.667 -372 -665 -372c-127.333 0 -237.166 24 -329.499 72s-162.333 116.5 -210 205.5s-71.5 192.833 -71.5 311.5 c0 168 35 318.167 105 450.5s167.833 233.833 293.5 304.5s268.5 106 428.5 106c153.334 0 279.167 -32.833 377.499 -98.5c98.333 -65.667 164.5 -163.5 198.5 -293.5l-274 -71c-19.333 71.335 -56.333 127.668 -111 168.999c-54.667 41.333 -121.334 62 -200.001 62 c-161.333 0 -287.833 -56 -379.5 -168s-137.5 -264.333 -137.5 -457zM1339 1559l-5 -29h-149l-174 151h-4l-240 -151h-169l5 29l311 276h229z"/>
   <glyph glyph-name="ccircumflex" horiz-adv-x="1139" unicode="ĉ" d="M536 173c55.333 0 100.998 17.5 136.998 52.5s64.667 86.833 86 155.5l271 -50c-71.334 -234 -241.334 -351 -510 -351c-146.667 0 -259.5 37.5 -338.5 112.5s-118.5 179.167 -118.5 312.5c0 130 26.333 252 79 366s122.834 197.667 210.501 251s196.834 80 327.501 80 c126 0 226.667 -31.833 302 -95.5c75.3369 -63.667 117.67 -152.167 126.999 -265.5l-284 -23c-7.33301 127.333 -63 191 -167 191c-71.334 0 -127.167 -24.5 -167.499 -73.5c-40.333 -49 -76.833 -135.833 -109.5 -260.5c-15.333 -76.667 -23 -132.667 -23 -168 c0 -156 59.333 -234 178 -234zM1048 1211l-5 -28h-150l-166 192h-4l-248 -192h-169l5 28l320 318h229z"/>
   <glyph glyph-name="Cdotaccent" horiz-adv-x="1479" unicode="Ċ" d="M401 573c0 -115.333 28.502 -204.499 85.502 -267.499s138.5 -94.5 244.5 -94.5c177.333 0 316.666 86 417.999 258l227 -117c-140 -248 -361.667 -372 -665 -372c-127.333 0 -237.166 24 -329.499 72s-162.333 116.5 -210 205.5s-71.5 192.833 -71.5 311.5 c0 168 35 318.167 105 450.5s167.833 233.833 293.5 304.5s268.5 106 428.5 106c153.334 0 279.167 -32.833 377.499 -98.5c98.333 -65.667 164.5 -163.5 198.5 -293.5l-274 -71c-19.333 71.335 -56.333 127.668 -111 168.999c-54.667 41.333 -121.334 62 -200.001 62 c-161.333 0 -287.833 -56 -379.5 -168s-137.5 -264.333 -137.5 -457zM776.002 1540l41 207h281l-41 -207h-281z"/>
   <glyph glyph-name="cdotaccent" horiz-adv-x="1139" unicode="ċ" d="M536 173c55.333 0 100.998 17.5 136.998 52.5s64.667 86.833 86 155.5l271 -50c-71.334 -234 -241.334 -351 -510 -351c-146.667 0 -259.5 37.5 -338.5 112.5s-118.5 179.167 -118.5 312.5c0 130 26.333 252 79 366s122.834 197.667 210.501 251s196.834 80 327.501 80 c126 0 226.667 -31.833 302 -95.5c75.3369 -63.667 117.67 -152.167 126.999 -265.5l-284 -23c-7.33301 127.333 -63 191 -167 191c-71.334 0 -127.167 -24.5 -167.499 -73.5c-40.333 -49 -76.833 -135.833 -109.5 -260.5c-15.333 -76.667 -23 -132.667 -23 -168 c0 -156 59.333 -234 178 -234zM569.998 1277l41 207h281l-41 -207h-281z"/>
   <glyph glyph-name="Ccaron" horiz-adv-x="1479" unicode="Č" d="M401 573c0 -115.333 28.502 -204.499 85.502 -267.499s138.5 -94.5 244.5 -94.5c177.333 0 316.666 86 417.999 258l227 -117c-140 -248 -361.667 -372 -665 -372c-127.333 0 -237.166 24 -329.499 72s-162.333 116.5 -210 205.5s-71.5 192.833 -71.5 311.5 c0 168 35 318.167 105 450.5s167.833 233.833 293.5 304.5s268.5 106 428.5 106c153.334 0 279.167 -32.833 377.499 -98.5c98.333 -65.667 164.5 -163.5 198.5 -293.5l-274 -71c-19.333 71.335 -56.333 127.668 -111 168.999c-54.667 41.333 -121.334 62 -200.001 62 c-161.333 0 -287.833 -56 -379.5 -168s-137.5 -264.333 -137.5 -457zM1049 1530h-229l-204 276l5 29h150l182 -152h4l232 152h169l-6 -29z"/>
   <glyph glyph-name="ccaron" horiz-adv-x="1139" unicode="č" d="M536 173c55.333 0 100.998 17.5 136.998 52.5s64.667 86.833 86 155.5l271 -50c-71.334 -234 -241.334 -351 -510 -351c-146.667 0 -259.5 37.5 -338.5 112.5s-118.5 179.167 -118.5 312.5c0 130 26.333 252 79 366s122.834 197.667 210.501 251s196.834 80 327.501 80 c126 0 226.667 -31.833 302 -95.5c75.3369 -63.667 117.67 -152.167 126.999 -265.5l-284 -23c-7.33301 127.333 -63 191 -167 191c-71.334 0 -127.167 -24.5 -167.499 -73.5c-40.333 -49 -76.833 -135.833 -109.5 -260.5c-15.333 -76.667 -23 -132.667 -23 -168 c0 -156 59.333 -234 178 -234zM803.998 1183h-229l-197 317l6 29h150l174 -193h4l240 193h169l-6 -29z"/>
   <glyph glyph-name="Dcaron" horiz-adv-x="1479" unicode="Ď" d="M734 1409c222 0 392 -51.666 510 -154.999s177 -252.333 177 -447c0 -157.333 -33 -296.333 -99 -417s-161.667 -215.834 -287 -285.501c-125.334 -69.667 -265.667 -104.5 -421 -104.5h-578l274 1409h424zM375 228.001h230.001c106.667 0 201.167 22.833 283.5 68.5 s145.666 111.5 189.999 197.5s66.5 186 66.5 300c0 126 -35.167 222 -105.5 288s-171.5 99 -303.5 99h-176zM942.001 1530h-229l-204 276l5 29h150l182 -152h4l232 152h169l-6 -29z"/>
   <glyph glyph-name="dcaron" horiz-adv-x="1515" unicode="ď" d="M749 160c-47.333 -62 -98.5 -107.667 -153.5 -137s-122.833 -44 -203.5 -44c-102.667 0 -184 34 -244 102s-90 159 -90 273c0 127.333 21.333 252 64 374s102.5 214.833 179.5 278.5s169.833 95.5 278.5 95.5c170.667 0 275.334 -66 314 -198h5 c1.33301 13.333 4 33.333 8 60c4 26.6689 10 60.6689 18 102l84 418h277l-238 -1253c-13.333 -74.667 -23 -151.667 -29 -231h-281c0 42 5 95.333 15 160h-4zM515 172c54 0 100.333 11.5 139 34.5s71.667 58.333 99 106s49 107.5 65 179.5s24 135 24 189 c0 80 -15.667 138.167 -47 174.5s-78.333 54.5 -141 54.5c-68 0 -123.5 -23 -166.5 -69s-75.833 -113.333 -98.5 -202s-34 -170.667 -34 -246c0 -147.333 53.333 -221 160 -221zM1491 1087l-137 0.000976562c76 67.3359 119.667 130.669 131 190h-108l40 207h245l-28 -146 c-10 -46.6719 -25 -88.8389 -45 -126.501c-20 -37.667 -52.667 -79.167 -98 -124.5z"/>
   <glyph glyph-name="Dcroat" horiz-adv-x="1479" unicode="Đ" d="M734 1409c222 0 392 -51.666 510 -154.999s177 -252.333 177 -447c0 -157.333 -33 -296.333 -99 -417s-161.667 -215.834 -287 -285.501c-125.334 -69.667 -265.667 -104.5 -421 -104.5h-578l115 594h-128l42 219h129l116 596h424zM488 813.001h357.001l-44 -219h-355 l-71 -366h230c106.667 0 201.167 22.833 283.5 68.5s145.666 111.5 189.999 197.5s66.5 186 66.5 300c0 126 -35.167 222 -105.5 288s-171.5 99 -303.5 99h-176z"/>
   <glyph glyph-name="dcroat" horiz-adv-x="1251" unicode="đ" d="M749 160c-47.333 -62 -98.4971 -107.667 -153.497 -137s-122.833 -44 -203.5 -44c-102.667 0 -184 32.667 -244 98s-90 153 -90 263c0 121.333 21 240.833 63 358.5s101.167 207.5 177.5 269.5c76.334 62 167.167 93 272.5 93c84.667 0 153.667 -16.167 207 -48.5 s89.666 -79.5 108.999 -141.5h6c1.33301 14.667 4.16602 37.167 8.49902 67.5s11.166 68.5 20.499 114.5l25 122h-289l33 170h290l28 139h277l-27 -139h132l-33 -170h-131l-179 -944c-13.333 -74.667 -23 -151.667 -29 -231h-281c0 42 5 95.333 15 160h-4zM515.003 172 c70.667 0 129.001 20.832 175.001 62.499s81.833 104.5 107.5 188.5s38.5 161.667 38.5 233c0 76.667 -15.667 132.167 -47 166.5s-78.333 51.5 -141 51.5c-64.667 0 -118.334 -21.5 -161.001 -64.5s-75.334 -107.167 -98 -192.5c-22.667 -85.333 -34 -163.666 -34 -234.999 c0 -140 53.333 -210 160 -210z"/>
   <glyph glyph-name="Emacron" horiz-adv-x="1366" unicode="Ē" d="M36 0l273 1409h1108l-44 -228h-813l-69 -354h752l-44 -228h-752l-72 -371h854l-45 -228h-1148zM1176 1537h-586l33 168h590z"/>
   <glyph glyph-name="emacron" horiz-adv-x="1139" unicode="ē" d="M358 476c-4.66699 -25.333 -7 -54.998 -7 -88.998c0 -70.667 15.5 -124.834 46.5 -162.501s76.833 -56.5 137.5 -56.5c98 0 169 56.333 213 169l245 -74c-50 -106 -112 -179.667 -186 -221s-171 -62 -291 -62c-142 0 -253 38.5 -333 115.5s-120 184.5 -120 322.5 s24 258.833 72 362.5s116.167 183.167 204.5 238.5s190.5 83 306.5 83c139.333 0 246.833 -35.833 322.5 -107.5s113.5 -172.834 113.5 -303.501c0 -66 -8 -137.667 -24 -215h-700zM822 663.002l3 56c0 71.333 -16.5 123.333 -49.5 156s-76.167 49 -129.5 49 c-64 0 -117.833 -22.167 -161.5 -66.5c-43.667 -44.334 -74.834 -109.167 -93.5 -194.5h431zM967 1203h-586l33 168h590z"/>
   <glyph glyph-name="Ebreve" horiz-adv-x="1366" unicode="Ĕ" d="M36 0l273 1409h1108l-44 -228h-813l-69 -354h752l-44 -228h-752l-72 -371h854l-45 -228h-1148zM876 1520c-94.667 0 -170.5 27 -227.5 81s-85.5 128 -85.5 222h165c0 -50 15.167 -89.833 45.5 -119.5s71.833 -44.5 124.5 -44.5c52 0 95.667 12.667 131 38 s62 67.333 80 126h164c-28 -102 -74.333 -178 -139 -228c-64.668 -50 -150.668 -75 -258 -75z"/>
   <glyph glyph-name="ebreve" horiz-adv-x="1139" unicode="ĕ" d="M358 476c-4.66699 -25.333 -7 -54.998 -7 -88.998c0 -70.667 15.5 -124.834 46.5 -162.501s76.833 -56.5 137.5 -56.5c98 0 169 56.333 213 169l245 -74c-50 -106 -112 -179.667 -186 -221s-171 -62 -291 -62c-142 0 -253 38.5 -333 115.5s-120 184.5 -120 322.5 s24 258.833 72 362.5s116.167 183.167 204.5 238.5s190.5 83 306.5 83c139.333 0 246.833 -35.833 322.5 -107.5s113.5 -172.834 113.5 -303.501c0 -66 -8 -137.667 -24 -215h-700zM822 663.002l3 56c0 71.333 -16.5 123.333 -49.5 156s-76.167 49 -129.5 49 c-64 0 -117.833 -22.167 -161.5 -66.5c-43.667 -44.334 -74.834 -109.167 -93.5 -194.5h431zM694 1183c-93.333 0 -168.831 26.167 -226.498 78.5c-57.667 52.3359 -86.5 121.169 -86.5 206.5l2 38h163c0 -49.333 15.167 -89.333 45.5 -120s69.833 -46 118.5 -46 c52 0 97.167 14.5 135.5 43.5s65.5 69.833 81.5 122.5h164c-28.667 -109.333 -75.334 -190.5 -140.001 -243.5s-150.334 -79.5 -257.001 -79.5z"/>
   <glyph glyph-name="Edotaccent" horiz-adv-x="1366" unicode="Ė" d="M36 0l273 1409h1108l-44 -228h-813l-69 -354h752l-44 -228h-752l-72 -371h854l-45 -228h-1148zM734 1547l41 207h281l-41 -207h-281z"/>
   <glyph glyph-name="edotaccent" horiz-adv-x="1139" unicode="ė" d="M358 476c-4.66699 -25.333 -7 -54.998 -7 -88.998c0 -70.667 15.5 -124.834 46.5 -162.501s76.833 -56.5 137.5 -56.5c98 0 169 56.333 213 169l245 -74c-50 -106 -112 -179.667 -186 -221s-171 -62 -291 -62c-142 0 -253 38.5 -333 115.5s-120 184.5 -120 322.5 s24 258.833 72 362.5s116.167 183.167 204.5 238.5s190.5 83 306.5 83c139.333 0 246.833 -35.833 322.5 -107.5s113.5 -172.834 113.5 -303.501c0 -66 -8 -137.667 -24 -215h-700zM822 663.002l3 56c0 71.333 -16.5 123.333 -49.5 156s-76.167 49 -129.5 49 c-64 0 -117.833 -22.167 -161.5 -66.5c-43.667 -44.334 -74.834 -109.167 -93.5 -194.5h431zM551 1277l41 207h281l-41 -207h-281z"/>
   <glyph glyph-name="Eogonek" horiz-adv-x="1366" unicode="Ę" d="M36 0l273 1409h1108l-44 -228h-813l-69 -354h752l-44 -228h-752l-72 -371h854l-45 -228h-1148zM887 -425c-60 0 -108.332 16.002 -144.999 48.002s-55 75.667 -55 131c0 48.667 15.167 95.167 45.5 139.5s75.166 83.166 134.499 116.499h164 c-40.667 -25.333 -75.167 -59.333 -103.5 -102s-42.5 -82.334 -42.5 -119.001c0 -25.333 7.33301 -44.333 22 -57s33.667 -19 57 -19c32.6689 0 66.6689 7.66699 102 23l-19 -127c-52.667 -22.667 -106 -34 -160 -34z"/>
   <glyph glyph-name="eogonek" horiz-adv-x="1139" unicode="ę" d="M358 476c-4.66699 -25.333 -7 -54.998 -7 -88.998c0 -70.667 15.5 -124.834 46.5 -162.501s76.833 -56.5 137.5 -56.5c98 0 169 56.333 213 169l245 -74c-50 -106 -112 -179.667 -186 -221s-171 -62 -291 -62c-142 0 -253 38.5 -333 115.5s-120 184.5 -120 322.5 s24 258.833 72 362.5s116.167 183.167 204.5 238.5s190.5 83 306.5 83c139.333 0 246.833 -35.833 322.5 -107.5s113.5 -172.834 113.5 -303.501c0 -66 -8 -137.667 -24 -215h-700zM822 663.002l3 56c0 71.333 -16.5 123.333 -49.5 156s-76.167 49 -129.5 49 c-64 0 -117.833 -22.167 -161.5 -66.5c-43.667 -44.334 -74.834 -109.167 -93.5 -194.5h431zM641 -403.998c-60 0 -108.332 16.002 -144.999 48.002s-55 75.667 -55 131c0 48.667 15.167 95.167 45.5 139.5s75.166 83.166 134.499 116.499h164 c-40.667 -25.333 -75.167 -59.333 -103.5 -102s-42.5 -82.334 -42.5 -119.001c0 -25.333 7.33301 -44.333 22 -57s33.667 -19 57 -19c32.667 0 66.667 7.66699 102 23l-19 -127c-52.667 -22.667 -106 -34 -160 -34z"/>
   <glyph glyph-name="Ecaron" horiz-adv-x="1366" unicode="Ě" d="M36 0l273 1409h1108l-44 -228h-813l-69 -354h752l-44 -228h-752l-72 -371h854l-45 -228h-1148zM971 1530h-229l-204 276l5 29h150l182 -152h4l232 152h169l-6 -29z"/>
   <glyph glyph-name="ecaron" horiz-adv-x="1139" unicode="ě" d="M358 476c-4.66699 -25.333 -7 -54.998 -7 -88.998c0 -70.667 15.5 -124.834 46.5 -162.501s76.833 -56.5 137.5 -56.5c98 0 169 56.333 213 169l245 -74c-50 -106 -112 -179.667 -186 -221s-171 -62 -291 -62c-142 0 -253 38.5 -333 115.5s-120 184.5 -120 322.5 s24 258.833 72 362.5s116.167 183.167 204.5 238.5s190.5 83 306.5 83c139.333 0 246.833 -35.833 322.5 -107.5s113.5 -172.834 113.5 -303.501c0 -66 -8 -137.667 -24 -215h-700zM822 663.002l3 56c0 71.333 -16.5 123.333 -49.5 156s-76.167 49 -129.5 49 c-64 0 -117.833 -22.167 -161.5 -66.5c-43.667 -44.334 -74.834 -109.167 -93.5 -194.5h431zM789 1183h-229l-197 317l6 29h150l174 -193h4l240 193h169l-6 -29z"/>
   <glyph glyph-name="Gcircumflex" horiz-adv-x="1593" unicode="Ĝ" d="M740 -19c-200 0 -356.669 52.835 -470.002 158.502s-170 253.5 -170 443.5c0 166.667 34.833 314.667 104.5 444s168.334 228.833 296.001 298.5s274.834 104.5 441.5 104.5c152 0 279.167 -34.333 381.5 -103c102.336 -68.667 171.169 -164.667 206.5 -288l-282 -78 c-19.333 75.335 -56.666 133.668 -111.999 174.999c-55.333 41.333 -125.333 62 -210 62c-106 0 -199 -25 -279 -75s-141.333 -121 -184 -213s-64 -198 -64 -318c0 -118.667 31.833 -211.834 95.5 -279.5c63.667 -67.667 153.5 -101.5 269.5 -101.5c72 0 142 8.66699 210 26 s126 40.666 174 69.999l46 228h-342l39 208h614l-105 -568c-104 -71.333 -208 -121.5 -312 -150.5s-220 -43.5 -348 -43.5zM1329 1559l-5 -29h-149l-174 151h-4l-240 -151h-169l5 29l311 276h229z"/>
   <glyph glyph-name="gcircumflex" horiz-adv-x="1251" unicode="ĝ" d="M431 -425c-132.667 0 -234.663 22.999 -305.996 68.999s-115.333 117.333 -132 214l283 30c18 -84.667 80.667 -127 188 -127c73.333 0 130.333 19.667 171 59c40.668 39.333 72.335 108.333 95 207c13.333 64 23.666 122 30.999 174h-2 c-42 -59.333 -78.833 -102 -110.5 -128s-67.334 -46 -107.001 -60s-85.167 -21 -136.5 -21c-103.333 0 -185.833 33.333 -247.5 100s-92.5 154.667 -92.5 264c0 134 21.167 262.5 63.5 385.5s100.666 213.667 174.999 272s168.5 87.5 282.5 87.5 c78.667 0 146.334 -18.667 203 -56c56.667 -37.333 94 -88 112 -152h2c4 19.333 12.167 54.333 24.5 105s20.166 78.667 23.499 84h265l-19 -83l-30 -146l-165 -843c-31.333 -155.333 -92 -266.666 -182 -333.999s-219.667 -101 -389 -101zM846.004 685.999 c0 69.333 -17.332 123.834 -51.999 163.501s-83.334 59.5 -146.001 59.5c-50.667 0 -92.5 -10.667 -125.5 -32s-61 -55.833 -84 -103.5s-42 -110.334 -57 -188.001s-22.5 -140.834 -22.5 -189.5c0 -132.667 57.667 -199 173 -199c59.333 0 113.333 22.333 162 67 s86.167 105.5 112.5 182.5s39.5 156.833 39.5 239.5zM1079 1211l-5 -28h-150l-166 192h-4l-248 -192h-169l5 28l320 318h229z"/>
   <glyph glyph-name="Gbreve" horiz-adv-x="1593" unicode="Ğ" d="M740 -19c-200 0 -356.669 52.835 -470.002 158.502s-170 253.5 -170 443.5c0 166.667 34.833 314.667 104.5 444s168.334 228.833 296.001 298.5s274.834 104.5 441.5 104.5c152 0 279.167 -34.333 381.5 -103c102.336 -68.667 171.169 -164.667 206.5 -288l-282 -78 c-19.333 75.335 -56.666 133.668 -111.999 174.999c-55.333 41.333 -125.333 62 -210 62c-106 0 -199 -25 -279 -75s-141.333 -121 -184 -213s-64 -198 -64 -318c0 -118.667 31.833 -211.834 95.5 -279.5c63.667 -67.667 153.5 -101.5 269.5 -101.5c72 0 142 8.66699 210 26 s126 40.666 174 69.999l46 228h-342l39 208h614l-105 -568c-104 -71.333 -208 -121.5 -312 -150.5s-220 -43.5 -348 -43.5zM980.998 1520c-94.667 0 -170.5 27 -227.5 81s-85.5 128 -85.5 222h165c0 -50 15.167 -89.833 45.5 -119.5s71.833 -44.5 124.5 -44.5 c52 0 95.667 12.667 131 38s62 67.333 80 126h164c-28 -102 -74.333 -178 -139 -228s-150.667 -75 -258 -75z"/>
   <glyph glyph-name="gbreve" horiz-adv-x="1251" unicode="ğ" d="M431 -425c-132.667 0 -234.663 22.999 -305.996 68.999s-115.333 117.333 -132 214l283 30c18 -84.667 80.667 -127 188 -127c73.333 0 130.333 19.667 171 59c40.668 39.333 72.335 108.333 95 207c13.333 64 23.666 122 30.999 174h-2 c-42 -59.333 -78.833 -102 -110.5 -128s-67.334 -46 -107.001 -60s-85.167 -21 -136.5 -21c-103.333 0 -185.833 33.333 -247.5 100s-92.5 154.667 -92.5 264c0 134 21.167 262.5 63.5 385.5s100.666 213.667 174.999 272s168.5 87.5 282.5 87.5 c78.667 0 146.334 -18.667 203 -56c56.667 -37.333 94 -88 112 -152h2c4 19.333 12.167 54.333 24.5 105s20.166 78.667 23.499 84h265l-19 -83l-30 -146l-165 -843c-31.333 -155.333 -92 -266.666 -182 -333.999s-219.667 -101 -389 -101zM846.004 685.999 c0 69.333 -17.332 123.834 -51.999 163.501s-83.334 59.5 -146.001 59.5c-50.667 0 -92.5 -10.667 -125.5 -32s-61 -55.833 -84 -103.5s-42 -110.334 -57 -188.001s-22.5 -140.834 -22.5 -189.5c0 -132.667 57.667 -199 173 -199c59.333 0 113.333 22.333 162 67 s86.167 105.5 112.5 182.5s39.5 156.833 39.5 239.5zM715.005 1183c-93.333 0 -168.831 26.167 -226.498 78.5c-57.667 52.3359 -86.5 121.169 -86.5 206.5l2 38h163c0 -49.333 15.167 -89.333 45.5 -120s69.833 -46 118.5 -46c52 0 97.167 14.5 135.5 43.5 s65.5 69.833 81.5 122.5h164c-28.6689 -109.333 -75.3359 -190.5 -140.001 -243.5c-64.667 -53 -150.334 -79.5 -257.001 -79.5z"/>
   <glyph glyph-name="Gdotaccent" horiz-adv-x="1593" unicode="Ġ" d="M740 -19c-200 0 -356.669 52.835 -470.002 158.502s-170 253.5 -170 443.5c0 166.667 34.833 314.667 104.5 444s168.334 228.833 296.001 298.5s274.834 104.5 441.5 104.5c152 0 279.167 -34.333 381.5 -103c102.336 -68.667 171.169 -164.667 206.5 -288l-282 -78 c-19.333 75.335 -56.666 133.668 -111.999 174.999c-55.333 41.333 -125.333 62 -210 62c-106 0 -199 -25 -279 -75s-141.333 -121 -184 -213s-64 -198 -64 -318c0 -118.667 31.833 -211.834 95.5 -279.5c63.667 -67.667 153.5 -101.5 269.5 -101.5c72 0 142 8.66699 210 26 s126 40.666 174 69.999l46 228h-342l39 208h614l-105 -568c-104 -71.333 -208 -121.5 -312 -150.5s-220 -43.5 -348 -43.5zM812.998 1547l41 207h281l-41 -207h-281z"/>
   <glyph glyph-name="gdotaccent" horiz-adv-x="1251" unicode="ġ" d="M431 -425c-132.667 0 -234.663 22.999 -305.996 68.999s-115.333 117.333 -132 214l283 30c18 -84.667 80.667 -127 188 -127c73.333 0 130.333 19.667 171 59c40.668 39.333 72.335 108.333 95 207c13.333 64 23.666 122 30.999 174h-2 c-42 -59.333 -78.833 -102 -110.5 -128s-67.334 -46 -107.001 -60s-85.167 -21 -136.5 -21c-103.333 0 -185.833 33.333 -247.5 100s-92.5 154.667 -92.5 264c0 134 21.167 262.5 63.5 385.5s100.666 213.667 174.999 272s168.5 87.5 282.5 87.5 c78.667 0 146.334 -18.667 203 -56c56.667 -37.333 94 -88 112 -152h2c4 19.333 12.167 54.333 24.5 105s20.166 78.667 23.499 84h265l-19 -83l-30 -146l-165 -843c-31.333 -155.333 -92 -266.666 -182 -333.999s-219.667 -101 -389 -101zM846.004 685.999 c0 69.333 -17.332 123.834 -51.999 163.501s-83.334 59.5 -146.001 59.5c-50.667 0 -92.5 -10.667 -125.5 -32s-61 -55.833 -84 -103.5s-42 -110.334 -57 -188.001s-22.5 -140.834 -22.5 -189.5c0 -132.667 57.667 -199 173 -199c59.333 0 113.333 22.333 162 67 s86.167 105.5 112.5 182.5s39.5 156.833 39.5 239.5zM596.005 1277l41 207h281l-41 -207h-281z"/>
   <glyph glyph-name="Gcommaaccent" horiz-adv-x="1593" unicode="Ģ" d="M740 -19c-200 0 -356.669 52.835 -470.002 158.502s-170 253.5 -170 443.5c0 166.667 34.833 314.667 104.5 444s168.334 228.833 296.001 298.5s274.834 104.5 441.5 104.5c152 0 279.167 -34.333 381.5 -103c102.336 -68.667 171.169 -164.667 206.5 -288l-282 -78 c-19.333 75.335 -56.666 133.668 -111.999 174.999c-55.333 41.333 -125.333 62 -210 62c-106 0 -199 -25 -279 -75s-141.333 -121 -184 -213s-64 -198 -64 -318c0 -118.667 31.833 -211.834 95.5 -279.5c63.667 -67.667 153.5 -101.5 269.5 -101.5c72 0 142 8.66699 210 26 s126 40.666 174 69.999l46 228h-342l39 208h614l-105 -568c-104 -71.333 -208 -121.5 -312 -150.5s-220 -43.5 -348 -43.5zM734.998 -454.998l-136.999 -0.000976562c74.667 66.667 117 123.334 127 170.001h-108l40 207h245l-24 -126 c-9.33301 -46.667 -24.333 -89 -45 -127s-53.334 -79.333 -98.001 -124z"/>
   <glyph glyph-name="gcommaaccent" horiz-adv-x="1251" unicode="ģ" d="M431 -425c-132.667 0 -234.663 22.999 -305.996 68.999s-115.333 117.333 -132 214l283 30c18 -84.667 80.667 -127 188 -127c73.333 0 130.333 19.667 171 59c40.668 39.333 72.335 108.333 95 207c13.333 64 23.666 122 30.999 174h-2 c-42 -59.333 -78.833 -102 -110.5 -128s-67.334 -46 -107.001 -60s-85.167 -21 -136.5 -21c-103.333 0 -185.833 33.333 -247.5 100s-92.5 154.667 -92.5 264c0 134 21.167 262.5 63.5 385.5s100.666 213.667 174.999 272s168.5 87.5 282.5 87.5 c78.667 0 146.334 -18.667 203 -56c56.667 -37.333 94 -88 112 -152h2c4 19.333 12.167 54.333 24.5 105s20.166 78.667 23.499 84h265l-19 -83l-30 -146l-165 -843c-31.333 -155.333 -92 -266.666 -182 -333.999s-219.667 -101 -389 -101zM846.004 685.999 c0 69.333 -17.332 123.834 -51.999 163.501s-83.334 59.5 -146.001 59.5c-50.667 0 -92.5 -10.667 -125.5 -32s-61 -55.833 -84 -103.5s-42 -110.334 -57 -188.001s-22.5 -140.834 -22.5 -189.5c0 -132.667 57.667 -199 173 -199c59.333 0 113.333 22.333 162 67 s86.167 105.5 112.5 182.5s39.5 156.833 39.5 239.5zM743.005 1609l147.001 -0.000976562c-76 -67.333 -119.667 -130.666 -131 -189.999h108l-40 -207h-245l28 146c11.333 58 28.166 106.5 50.499 145.5s49.833 74.167 82.5 105.5z"/>
   <glyph glyph-name="Hcircumflex" horiz-adv-x="1479" unicode="Ĥ" d="M956 0l118 604h-626l-118 -604h-294l273 1409h295l-109 -561h626l109 561h284l-274 -1409h-284zM1310 1559l-5 -29h-149l-174 151h-4l-240 -151h-169l5 29l311 276h229z"/>
   <glyph glyph-name="hcircumflex" horiz-adv-x="1251" unicode="ĥ" d="M601 1484l-78.998 -404.999l-39 -182h3c50 69.333 105.167 120.666 165.5 153.999s129.5 50 207.5 50c101.333 0 177.666 -24.333 228.999 -73s77 -119 77 -211c0 -16.667 -2.33301 -43.167 -7 -79.5c-4.70215 -36.333 -9.36914 -64.5 -14.001 -84.5l-127 -653h-279 l118 595c17.333 82.667 26 137.667 26 165c0 86 -50.667 129 -152 129c-67.334 0 -129.667 -27.333 -187 -82s-93.333 -121.667 -108 -201l-118 -606h-282l286 1484h280zM1198 1638l-5 -29h-149l-174 151h-4l-240 -151h-169l5 29l311 276h229z"/>
   <glyph glyph-name="Hbar" horiz-adv-x="1479" unicode="Ħ" d="M956 0l118 604h-626l-118 -604h-294l202 1045h-123l33 170h123l38 194h295l-38 -194h626l38 194h284l-38 -194h123l-33 -170h-123l-203 -1045h-284zM1121 848l38 197h-626l-38 -197h626z"/>
   <glyph glyph-name="hbar" horiz-adv-x="1251" unicode="ħ" d="M601 1484l-26.999 -138.999h313l-33 -170h-314c-23.334 -122 -45.001 -228 -65 -318h3c50 69.333 105.167 120.666 165.5 153.999s129.5 50 207.5 50c101.333 0 177.666 -24.333 228.999 -73s77 -119 77 -211c0 -16.667 -2.33301 -43.167 -7 -79.5 c-4.70117 -36.333 -9.36816 -64.5 -14 -84.5l-119 -613h-279l110 555c17.333 82.667 26 137.667 26 165c0 86 -50.667 129 -152 129c-67.335 0 -129.668 -27.333 -187 -82c-57.333 -54.667 -93.333 -121.667 -108 -201l-110 -566h-282l226 1175h-137l33 170h137l27 139h280z "/>
   <glyph glyph-name="Itilde" horiz-adv-x="569" unicode="Ĩ" d="M36 0l273 1409h295l-274 -1409h-294zM625 1529c-29.333 0 -57.501 6.33105 -84.501 18.998s-53 26.834 -78 42.501s-48.833 29.834 -71.5 42.501s-44 19 -64 19c-28 0 -51.167 -8.5 -69.5 -25.5s-35.833 -49.5 -52.5 -97.5h-136c26 105.333 62.167 180.5 108.5 225.5 s103.833 67.5 172.5 67.5c30 0 58.833 -6.33301 86.5 -19c27.667 -12.6807 53.834 -26.8477 78.501 -42.501c24.667 -15.6797 48 -29.8467 70 -42.5c22 -12.667 42.667 -19 62 -19c28.668 0 52.335 9.33301 71 28c18.667 18.667 36 50.334 52 95.001h135 c-26 -105.333 -62.167 -180.5 -108.5 -225.5s-103.5 -67.5 -171.5 -67.5z"/>
   <glyph glyph-name="itilde" horiz-adv-x="569" unicode="ĩ" d="M35 0l210 1082h281l-211 -1082h-280zM541 1183c-29.333 0 -57.501 6.33008 -84.501 18.9971s-53 26.834 -78 42.501s-48.833 29.834 -71.5 42.501s-44 19 -64 19c-28 0 -51.167 -8.5 -69.5 -25.5s-35.833 -49.5 -52.5 -97.5h-136c26 105.333 62.167 180.5 108.5 225.5 s103.833 67.5 172.5 67.5c30 0 58.833 -6.33301 86.5 -19c27.667 -12.6777 53.834 -26.8447 78.501 -42.5c24.667 -15.6719 48 -29.8389 70 -42.5c22 -12.667 42.667 -19 62 -19c28.6689 0 52.3359 9.33301 71 28c18.667 18.667 36 50.334 52 95.001h135 c-26 -105.333 -62.167 -180.5 -108.5 -225.5s-103.5 -67.5 -171.5 -67.5z"/>
   <glyph glyph-name="Imacron" horiz-adv-x="569" unicode="Ī" d="M36 0l273 1409h295l-274 -1409h-294zM756 1537h-586l33 168h590z"/>
   <glyph glyph-name="imacron" horiz-adv-x="569" unicode="ī" d="M35 0l210 1082h281l-211 -1082h-280zM697 1203h-586l33 168h590z"/>
   <glyph glyph-name="Ibreve" horiz-adv-x="569" unicode="Ĭ" d="M36 0l273 1409h295l-274 -1409h-294zM470 1520c-94.667 0 -170.5 27 -227.5 81s-85.5 128 -85.5 222h165c0 -50 15.167 -89.833 45.5 -119.5s71.833 -44.5 124.5 -44.5c52 0 95.667 12.667 131 38s62 67.333 80 126h164c-28 -102 -74.333 -178 -139 -228 s-150.667 -75 -258 -75z"/>
   <glyph glyph-name="ibreve" horiz-adv-x="569" unicode="ĭ" d="M35 0l210 1082h281l-211 -1082h-280zM411 1183c-93.333 0 -168.831 26.167 -226.498 78.5c-57.667 52.3359 -86.5 121.169 -86.5 206.5l2 38h163c0 -49.333 15.167 -89.333 45.5 -120s69.833 -46 118.5 -46c52 0 97.167 14.5 135.5 43.5s65.5 69.833 81.5 122.5h164 c-28.667 -109.333 -75.334 -190.5 -140.001 -243.5s-150.334 -79.5 -257.001 -79.5z"/>
   <glyph glyph-name="Iogonek" horiz-adv-x="569" unicode="Į" d="M36 0l273 1409h295l-274 -1409h-294zM177 -425c-60 0 -108.332 16.002 -144.999 48.002s-55 75.667 -55 131c0 48.667 15.167 95.167 45.5 139.5s75.166 83.166 134.499 116.499h164c-40.667 -25.333 -75.167 -59.333 -103.5 -102s-42.5 -82.334 -42.5 -119.001 c0 -25.333 7.33301 -44.333 22 -57s33.667 -19 57 -19c32.667 0 66.667 7.66699 102 23l-19 -127c-52.667 -22.667 -106 -34 -160 -34z"/>
   <glyph glyph-name="iogonek" horiz-adv-x="569" unicode="į" d="M282 1277l41 207h281l-41 -207h-281zM35 0l210 1082h281l-211 -1082h-280zM163 -425c-60 0 -108.332 16.002 -144.999 48.002s-55 75.667 -55 131c0 48.667 15.167 95.167 45.5 139.5s75.166 83.166 134.499 116.499h164c-40.667 -25.333 -75.167 -59.333 -103.5 -102 s-42.5 -82.334 -42.5 -119.001c0 -25.333 7.33301 -44.333 22 -57s33.667 -19 57 -19c32.667 0 66.667 7.66699 102 23l-19 -127c-52.667 -22.667 -106 -34 -160 -34z"/>
   <glyph glyph-name="Idotaccent" horiz-adv-x="569" unicode="İ" d="M36 0l273 1409h295l-274 -1409h-294zM339 1547l41 207h281l-41 -207h-281z"/>
   <glyph glyph-name="dotlessi" horiz-adv-x="569" unicode="ı" d="M35 0l210 1082h281l-211 -1082h-280z"/>
   <glyph glyph-name="IJ" horiz-adv-x="1602" unicode="Ĳ" d="M36 0l273 1409h295l-274 -1409h-294zM944 -20c-126.667 0 -227.833 32 -303.5 96s-126.167 165 -151.5 303l267 58c30.667 -150.667 99.667 -226 207 -226c36 0 66.333 8 91 24s45 38.667 61 68s30 75 42 137l143 738h-281l44 231h575l-193 -986 c-30 -154 -85 -266.333 -165 -337s-192 -106 -336 -106z"/>
   <glyph glyph-name="ij" horiz-adv-x="1139" unicode="ĳ" d="M282 1277l41 207h281l-41 -207h-281zM35 0l210 1082h281l-211 -1082h-280zM852 1277l40 207h281l-40 -207h-281zM515 -425c-63.333 0 -118.667 6.33301 -166 19l36 188l58 -4c44.667 0 77.5 11.5 98.5 34.5s37.5 65.5 49.5 127.5l223 1142h281l-236 -1210 c-19.335 -96 -58.168 -169.5 -116.5 -220.5c-58.334 -51 -134.167 -76.5 -227.5 -76.5z"/>
   <glyph glyph-name="Jcircumflex" horiz-adv-x="1139" unicode="Ĵ" d="M480 -20c-126.667 0 -227.833 32 -303.5 96s-126.167 165 -151.5 303l267 58c30.667 -150.667 99.667 -226 207 -226c36 0 66.333 8 91 24s45 38.667 61 68s30 75 42 137l143 738h-281l44 231h575l-193 -986c-30 -154 -85 -266.333 -165 -337s-192 -106 -336 -106z M1282 1559l-5 -29h-149l-174 151h-4l-240 -151h-169l5 29l311 276h229z"/>
   <glyph glyph-name="jcircumflex" horiz-adv-x="569" unicode="ĵ" d="M-54 -425c-63.333 0 -118.669 6.33301 -166.002 19l36 188l58 -4c44.667 0 77.5 11.5 98.5 34.5s37.5 65.5 49.5 127.5l223 1142h281l-236 -1210c-19.333 -96 -58.166 -169.5 -116.499 -220.5s-134.166 -76.5 -227.499 -76.5zM754.997 1211l-5 -28h-150l-166 192h-4 l-248 -192h-169l5 28l320 318h229z"/>
   <glyph glyph-name="Kcommaaccent" horiz-adv-x="1479" unicode="Ķ" d="M995 0l-355 640l-211 -123l-101 -517h-292l273 1409h295l-130 -639l760 639h369l-747 -616l465 -793h-326zM605 -455l-136.999 -0.000976562c74.667 66.667 117 123.334 127 170.001h-108l40 207h245l-24 -126c-9.33301 -46.667 -24.333 -89 -45 -127 s-53.334 -79.333 -98.001 -124z"/>
   <glyph glyph-name="kcommaaccent" horiz-adv-x="1139" unicode="ķ" d="M728 0l-188 497l-140 -75l-85 -422h-280l288 1484h281l-167 -850l465 448h322l-473 -422l275 -660h-298zM470 -455l-136.999 -0.000976562c74.667 66.667 117 123.334 127 170.001h-108l40 207h245l-24 -126c-9.33301 -46.667 -24.333 -89 -45 -127 s-53.334 -79.333 -98.001 -124z"/>
   <glyph glyph-name="kgreenlandic" horiz-adv-x="1139" unicode="ĸ" d="M728 0l-188 497l-140 -75l-85 -422h-280l210 1082h281l-88 -448l464 448h322l-473 -422l275 -660h-298z"/>
   <glyph glyph-name="Lacute" horiz-adv-x="1251" unicode="Ĺ" d="M36 0l273 1409h295l-229 -1181h756l-45 -228h-1050zM450 1530l7 31l270 247h267l-9 -43l-386 -235h-149z"/>
   <glyph glyph-name="lacute" horiz-adv-x="569" unicode="ĺ" d="M35 0l288 1484h281l-289 -1484h-280zM327 1609l7 31l270 247h267l-9 -43l-386 -235h-149z"/>
   <glyph glyph-name="Lcommaaccent" horiz-adv-x="1251" unicode="Ļ" d="M36 0l273 1409h295l-229 -1181h756l-45 -228h-1050zM535 -455l-136.999 -0.000976562c74.667 66.667 117 123.334 127 170.001h-108l40 207h245l-24 -126c-9.33301 -46.667 -24.333 -89 -45 -127s-53.334 -79.333 -98.001 -124z"/>
   <glyph glyph-name="lcommaaccent" horiz-adv-x="569" unicode="ļ" d="M35 0l288 1484h281l-289 -1484h-280zM121 -455l-136.999 -0.000976562c74.667 66.667 117 123.334 127 170.001h-108l40 207h245l-24 -126c-9.33301 -46.667 -24.333 -89 -45 -127s-53.334 -79.333 -98.001 -124z"/>
   <glyph glyph-name="Lcaron" horiz-adv-x="1251" unicode="Ľ" d="M36 0l273 1409h295l-229 -1181h756l-45 -228h-1050zM967 1012h-137c76 67.3359 119.667 130.669 131 190h-108l40 207h245l-28 -146c-10 -46.6709 -25 -88.8379 -45 -126.5c-20 -37.667 -52.667 -79.167 -98 -124.5z"/>
   <glyph glyph-name="lcaron" horiz-adv-x="811" unicode="ľ" d="M35 0l288 1484h281l-289 -1484h-280zM809 1087l-137 0.000976562c76 67.3359 119.667 130.669 131 190h-108l40 207h245l-28 -146c-10 -46.6719 -25 -88.8389 -45 -126.501c-20 -37.667 -52.667 -79.167 -98 -124.5z"/>
   <glyph glyph-name="Ldot" horiz-adv-x="1251" unicode="Ŀ" d="M36 0l273 1409h295l-229 -1181h756l-45 -228h-1050zM720 651l41 207h281l-41 -207h-281z"/>
   <glyph glyph-name="ldot" horiz-adv-x="981" unicode="ŀ" d="M35 0l288 1484h281l-289 -1484h-280zM616 651l41 207h281l-41 -207h-281z"/>
   <glyph glyph-name="Lslash" horiz-adv-x="1251" unicode="Ł" d="M36 0l93 482l-148 -64l44 225l148 65l136 701h295l-109 -561l336 149l-43 -223l-336 -149l-77 -397h756l-45 -228h-1050z"/>
   <glyph glyph-name="lslash" horiz-adv-x="569" unicode="ł" d="M315 0h-280l108 561l-137 -69l41 215l138 69l138 708h281l-108 -552l144 74l-42 -213l-143 -76z"/>
   <glyph glyph-name="Nacute" horiz-adv-x="1479" unicode="Ń" d="M884 0l-374 1131c-15.333 -108 -28 -187.667 -38 -239l-174 -892h-262l274 1409h350l377 -1141l12 82c7.33301 55.333 17 113.333 29 174l174 885h262l-274 -1409h-356zM764 1530l7 31l270 247h267l-9 -43l-386 -235h-149z"/>
   <glyph glyph-name="nacute" horiz-adv-x="1251" unicode="ń" d="M738 0l118.001 595.001c17.333 82.667 26 137.667 26 165c0 86 -50.667 129 -152 129c-67.334 0 -129.667 -27.333 -187 -82s-93.333 -121.667 -108 -201l-118 -606h-282l166 851c10.667 52.667 23.334 129.667 38 231h268c0 -6 -3.16699 -34 -9.5 -84 s-11.166 -83.667 -14.499 -101h3c50 69.333 105.167 120.666 165.5 153.999s129.5 50 207.5 50c101.333 0 177.666 -24.333 228.999 -73s77 -119 77 -211c0 -16.667 -2.33301 -43.167 -7 -79.5c-4.70215 -36.333 -9.36914 -64.5 -14.001 -84.5l-127 -653h-279zM618.001 1183 l6 31l247 288h277l-8 -43l-376 -276h-146z"/>
   <glyph glyph-name="Ncommaaccent" horiz-adv-x="1479" unicode="Ņ" d="M884 0l-374 1131c-15.333 -108 -28 -187.667 -38 -239l-174 -892h-262l274 1409h350l377 -1141l12 82c7.33301 55.333 17 113.333 29 174l174 885h262l-274 -1409h-356zM609 -455l-136.999 -0.000976562c74.667 66.667 117 123.334 127 170.001h-108l40 207h245l-24 -126 c-9.33301 -46.667 -24.333 -89 -45 -127s-53.334 -79.333 -98.001 -124z"/>
   <glyph glyph-name="ncommaaccent" horiz-adv-x="1251" unicode="ņ" d="M738 0l118.001 595.001c17.333 82.667 26 137.667 26 165c0 86 -50.667 129 -152 129c-67.334 0 -129.667 -27.333 -187 -82s-93.333 -121.667 -108 -201l-118 -606h-282l166 851c10.667 52.667 23.334 129.667 38 231h268c0 -6 -3.16699 -34 -9.5 -84 s-11.166 -83.667 -14.499 -101h3c50 69.333 105.167 120.666 165.5 153.999s129.5 50 207.5 50c101.333 0 177.666 -24.333 228.999 -73s77 -119 77 -211c0 -16.667 -2.33301 -43.167 -7 -79.5c-4.70215 -36.333 -9.36914 -64.5 -14.001 -84.5l-127 -653h-279z M485.001 -454.999l-136.999 -0.000976562c74.667 66.667 117 123.334 127 170.001h-108l40 207h245l-24 -126c-9.33301 -46.667 -24.333 -89 -45 -127s-53.334 -79.333 -98.001 -124z"/>
   <glyph glyph-name="Ncaron" horiz-adv-x="1479" unicode="Ň" d="M884 0l-374 1131c-15.333 -108 -28 -187.667 -38 -239l-174 -892h-262l274 1409h350l377 -1141l12 82c7.33301 55.333 17 113.333 29 174l174 885h262l-274 -1409h-356zM1036 1530h-229l-204 276l5 29h150l182 -152h4l232 152h169l-6 -29z"/>
   <glyph glyph-name="ncaron" horiz-adv-x="1251" unicode="ň" d="M738 0l118.001 595.001c17.333 82.667 26 137.667 26 165c0 86 -50.667 129 -152 129c-67.334 0 -129.667 -27.333 -187 -82s-93.333 -121.667 -108 -201l-118 -606h-282l166 851c10.667 52.667 23.334 129.667 38 231h268c0 -6 -3.16699 -34 -9.5 -84 s-11.166 -83.667 -14.499 -101h3c50 69.333 105.167 120.666 165.5 153.999s129.5 50 207.5 50c101.333 0 177.666 -24.333 228.999 -73s77 -119 77 -211c0 -16.667 -2.33301 -43.167 -7 -79.5c-4.70215 -36.333 -9.36914 -64.5 -14.001 -84.5l-127 -653h-279zM846.001 1183 h-229l-197 317l6 29h150l174 -193h4l240 193h169l-6 -29z"/>
   <glyph glyph-name="napostrophe" horiz-adv-x="1451" unicode="ŉ" d="M938 0l117.999 595.001c17.333 82.667 26 137.667 26 165c0 86 -50.667 129 -152 129c-67.334 0 -129.667 -27.333 -187 -82s-93.333 -121.667 -108 -201l-118 -606h-282l166 851c10.667 52.667 23.334 129.667 38.001 231h268c0 -6 -3.16699 -34 -9.5 -84 c-6.34375 -50 -11.1768 -83.667 -14.5 -101h3c50 69.333 105.167 120.666 165.5 153.999s129.5 50 207.5 50c101.336 0 177.669 -24.333 229 -73c51.333 -48.667 77 -119 77 -211c0 -16.667 -2.33301 -43.167 -7 -79.5c-4.70801 -36.333 -9.375 -64.5 -14 -84.5l-127 -653 h-279zM189.999 831.001h-182.001c108.667 112 173 218 193 318h-127l51 260h287l-38 -195c-15.333 -78 -37.166 -147.333 -65.499 -208s-67.833 -119 -118.5 -175z"/>
   <glyph glyph-name="Eng" horiz-adv-x="1481" unicode="Ŋ" d="M844 -20c-178.667 0 -306.332 78 -382.999 234l247 117c24 -41.333 49.167 -71.5 75.5 -90.5s56.5 -28.5 90.5 -28.5c56 0 98.833 22.5 128.5 67.5s57.834 136.167 84.501 273.5l56 288c16.667 79.333 25 138.333 25 177c0 57.333 -19.5 102 -58.5 134 s-98.5 48 -178.5 48c-64 0 -127 -13.667 -189 -41s-114.5 -65.333 -157.5 -114s-69.833 -100 -80.5 -154l-174 -891h-294l211 1092l57 317h290c-6 -44.6689 -20 -128.336 -42 -251h4c63.333 88.667 137.666 156 222.999 202s178 69 278 69c266 0 399 -121.333 399 -364 c0 -46.667 -6.66699 -105.667 -20 -177l-67 -346c-30.6719 -160 -66.3389 -277.167 -107 -351.5c-40.6689 -74.333 -94.8359 -128 -162.5 -161c-67.667 -33 -152.834 -49.5 -255.501 -49.5z"/>
   <glyph glyph-name="eng" horiz-adv-x="1251" unicode="ŋ" d="M649 -425c-63.334 0 -118.666 6.33301 -165.998 19l36 188l58 -4c44.667 0 77.5 11.833 98.5 35.5s37.5 65.834 49.5 126.501l131 655c17.333 82.667 26 137.667 26 165c0 86 -50.667 129 -152 129c-67.334 0 -129.667 -27.333 -187 -82s-93.333 -121.667 -108 -201 l-118 -606h-282l166 851c10.667 52.667 23.334 129.667 38 231h268c0 -3.33301 -0.833008 -12.333 -2.5 -27s-3.66699 -31.5 -6 -50.5s-4.83301 -38.333 -7.5 -58c-2.67383 -19.667 -5.34082 -36.167 -8 -49.5h3c50 69.333 105.167 120.666 165.5 153.999s129.5 50 207.5 50 c101.333 0 177.666 -24.333 228.999 -73s77 -119 77 -211c0 -16.667 -2.33301 -43.167 -7 -79.5c-4.70215 -36.333 -9.36914 -64.5 -14.001 -84.5l-151 -781c-16.667 -92 -54.167 -164.5 -112.5 -217.5s-135.5 -79.5 -231.5 -79.5z"/>
   <glyph glyph-name="Omacron" horiz-adv-x="1593" unicode="Ō" d="M928 1430c195.333 0 349.333 -51.832 462 -155.499c112.667 -103.668 169 -244.835 169 -423.501c0 -164.667 -35.167 -314.834 -105.5 -450.501s-168.5 -239.667 -294.5 -312s-270 -108.5 -432 -108.5c-128.667 0 -240.5 24 -335.5 72s-167.333 116.833 -217 206.5 s-74.5 194.5 -74.5 314.5c0 156.667 35.167 302.834 105.5 438.5c70.333 135.667 167.833 239.334 292.5 311.001s268 107.5 430 107.5zM914 1197c-108 0 -200 -25 -276 -75s-134.667 -125.333 -176 -226s-62 -205.667 -62 -315c0 -122.667 30 -214.834 90 -276.5 c60 -61.667 143.667 -92.5 251 -92.5s199 25 275 75s134.833 124.333 176.5 223s62.5 204.334 62.5 317c0 117.333 -29.167 208.333 -87.5 273s-142.833 97 -253.5 97zM1232 1537h-586l33 168h590z"/>
   <glyph glyph-name="omacron" horiz-adv-x="1251" unicode="ō" d="M1185 683c0 -138 -27.167 -260.667 -81.5 -368s-131.333 -190 -231 -248s-212.167 -87 -337.5 -87c-145.333 0 -260.333 39.167 -345 117.5s-127 185.5 -127 321.5c0 134 26.5 252.667 79.5 356s128.5 183.5 226.5 240.5s209.667 85.5 335 85.5 c156.667 0 276 -36.5 358 -109.5s123 -175.833 123 -308.5zM891 662c0 164.667 -69.332 246.999 -207.999 246.999c-76 0 -136.5 -20 -181.5 -60s-80.167 -100.833 -105.5 -182.5s-38 -160.167 -38 -235.5c0 -172.667 69.333 -259 207.999 -259 c74.667 0 133.834 18.833 177.5 56.5c43.667 37.667 78 94.834 103 171.501s39.833 164 44.5 262zM1016 1203h-586l33 168h590z"/>
   <glyph glyph-name="Obreve" horiz-adv-x="1593" unicode="Ŏ" d="M928 1430c195.333 0 349.333 -51.832 462 -155.499c112.667 -103.668 169 -244.835 169 -423.501c0 -164.667 -35.167 -314.834 -105.5 -450.501s-168.5 -239.667 -294.5 -312s-270 -108.5 -432 -108.5c-128.667 0 -240.5 24 -335.5 72s-167.333 116.833 -217 206.5 s-74.5 194.5 -74.5 314.5c0 156.667 35.167 302.834 105.5 438.5c70.333 135.667 167.833 239.334 292.5 311.001s268 107.5 430 107.5zM914 1197c-108 0 -200 -25 -276 -75s-134.667 -125.333 -176 -226s-62 -205.667 -62 -315c0 -122.667 30 -214.834 90 -276.5 c60 -61.667 143.667 -92.5 251 -92.5s199 25 275 75s134.833 124.333 176.5 223s62.5 204.334 62.5 317c0 117.333 -29.167 208.333 -87.5 273s-142.833 97 -253.5 97zM958 1520c-94.667 0 -170.5 27 -227.5 81s-85.5 128 -85.5 222h165c0 -50 15.167 -89.833 45.5 -119.5 s71.833 -44.5 124.5 -44.5c52 0 95.667 12.667 131 38s62 67.333 80 126h164c-28 -102 -74.333 -178 -139 -228s-150.667 -75 -258 -75z"/>
   <glyph glyph-name="obreve" horiz-adv-x="1251" unicode="ŏ" d="M1185 683c0 -138 -27.167 -260.667 -81.5 -368s-131.333 -190 -231 -248s-212.167 -87 -337.5 -87c-145.333 0 -260.333 39.167 -345 117.5s-127 185.5 -127 321.5c0 134 26.5 252.667 79.5 356s128.5 183.5 226.5 240.5s209.667 85.5 335 85.5 c156.667 0 276 -36.5 358 -109.5s123 -175.833 123 -308.5zM891 662c0 164.667 -69.332 246.999 -207.999 246.999c-76 0 -136.5 -20 -181.5 -60s-80.167 -100.833 -105.5 -182.5s-38 -160.167 -38 -235.5c0 -172.667 69.333 -259 207.999 -259 c74.667 0 133.834 18.833 177.5 56.5c43.667 37.667 78 94.834 103 171.501s39.833 164 44.5 262zM758.001 1183c-93.333 0 -168.832 26.167 -226.499 78.5c-57.667 52.3359 -86.5 121.169 -86.5 206.5l2 38h163c0 -49.333 15.167 -89.333 45.5 -120s69.833 -46 118.5 -46 c52 0 97.167 14.5 135.5 43.5s65.5 69.833 81.5 122.5h164c-28.6709 -109.333 -75.3379 -190.5 -140 -243.5c-64.667 -53 -150.334 -79.5 -257.001 -79.5z"/>
   <glyph glyph-name="Ohungarumlaut" horiz-adv-x="1593" unicode="Ő" d="M928 1430c195.333 0 349.333 -51.832 462 -155.499c112.667 -103.668 169 -244.835 169 -423.501c0 -164.667 -35.167 -314.834 -105.5 -450.501s-168.5 -239.667 -294.5 -312s-270 -108.5 -432 -108.5c-128.667 0 -240.5 24 -335.5 72s-167.333 116.833 -217 206.5 s-74.5 194.5 -74.5 314.5c0 156.667 35.167 302.834 105.5 438.5c70.333 135.667 167.833 239.334 292.5 311.001s268 107.5 430 107.5zM914 1197c-108 0 -200 -25 -276 -75s-134.667 -125.333 -176 -226s-62 -205.667 -62 -315c0 -122.667 30 -214.834 90 -276.5 c60 -61.667 143.667 -92.5 251 -92.5s199 25 275 75s134.833 124.333 176.5 223s62.5 204.334 62.5 317c0 117.333 -29.167 208.333 -87.5 273s-142.833 97 -253.5 97zM642 1530l10 31l227 248h261l-10 -43l-352 -236h-136zM1047 1530v31l237 248h261l-10 -43l-352 -236 h-136z"/>
   <glyph glyph-name="ohungarumlaut" horiz-adv-x="1251" unicode="ő" d="M1185 683c0 -138 -27.167 -260.667 -81.5 -368s-131.333 -190 -231 -248s-212.167 -87 -337.5 -87c-145.333 0 -260.333 39.167 -345 117.5s-127 185.5 -127 321.5c0 134 26.5 252.667 79.5 356s128.5 183.5 226.5 240.5s209.667 85.5 335 85.5 c156.667 0 276 -36.5 358 -109.5s123 -175.833 123 -308.5zM891 662c0 164.667 -69.332 246.999 -207.999 246.999c-76 0 -136.5 -20 -181.5 -60s-80.167 -100.833 -105.5 -182.5s-38 -160.167 -38 -235.5c0 -172.667 69.333 -259 207.999 -259 c74.667 0 133.834 18.833 177.5 56.5c43.667 37.667 78 94.834 103 171.501s39.833 164 44.5 262zM371.001 1183l10 31l257 288h261l-10 -43l-372 -276h-146zM776.001 1183l10 31l257 288h261l-10 -43l-372 -276h-146z"/>
   <glyph glyph-name="OE" horiz-adv-x="2048" unicode="Œ" d="M917 0c-42 -6.66699 -112.331 -10 -210.998 -10c-190.667 0 -338.834 50.833 -444.501 152.5s-158.5 245.167 -158.5 430.5c0 113.333 19.5 222.5 58.5 327.5s96.667 197 173 276s167.166 139.333 272.499 181s219.333 62.5 342 62.5c52.6689 0 98.6689 -1.66699 138 -5 l63 -6h949l-44 -227h-667l-69 -355h606l-43 -221h-606l-73 -375h708l-45 -231h-949zM736.002 222c68 0 125.669 6.66895 173.002 20.002l180 927c-20.6689 6.66699 -47.3359 11.5 -80.001 14.5c-32.667 3 -56 4.5 -70 4.5c-84.667 0 -159.5 -13.833 -224.5 -41.5 c-65 -27.6709 -120.833 -69.8379 -167.5 -126.5c-46.667 -56.667 -82.334 -125.834 -107 -207.501c-24.667 -81.667 -37 -164.834 -37 -249.501c0 -109.333 28.667 -193.5 86 -252.5s139.666 -88.5 246.999 -88.5z"/>
   <glyph glyph-name="oe" horiz-adv-x="1933" unicode="œ" d="M1163 476c-4.66699 -25.333 -7 -54.999 -7 -88.999c0 -70.667 15.5 -124.834 46.5 -162.501s76.833 -56.5 137.5 -56.5c98 0 169 56.333 213 169l245 -74c-50 -106 -112 -179.667 -186 -221s-171 -62 -291 -62c-164.667 0 -286.667 50.667 -366 152 c-45.333 -50 -104.5 -87.833 -177.5 -113.5s-155.5 -38.5 -247.5 -38.5c-145.333 0 -260.333 39.167 -345 117.5s-127 185.5 -127 321.5c0 134 26.5 252.667 79.5 356s128.5 183.5 226.5 240.5s209.667 85.5 335 85.5c83.333 0 154 -11.167 212 -33.5 s110.333 -58.166 157 -107.499c101.333 94.667 229 142 383 142c139.333 0 246.833 -35.833 322.5 -107.5s113.5 -172.834 113.5 -303.501c0 -66 -8 -137.667 -24 -215h-700zM886 662.001c0 164.667 -69.333 247 -208 247c-76 0 -136.5 -20 -181.5 -60 s-80.167 -100.833 -105.5 -182.5s-38 -160.167 -38 -235.5c0 -82.667 17.333 -146.5 52 -191.5s87 -67.5 157 -67.5c76 0 135.667 19.5 179 58.5s77.333 97.5 102 175.5s39 163.333 43 256zM1627 663.001l3 56c0 71.333 -16.5 123.333 -49.5 156s-76.167 49 -129.5 49 c-64 0 -117.833 -22.167 -161.5 -66.5c-43.6709 -44.334 -74.8379 -109.167 -93.5 -194.5h431z"/>
   <glyph glyph-name="Racute" horiz-adv-x="1479" unicode="Ŕ" d="M1010 0l-230 534.002h-346l-103 -534h-295l274 1409h651c106 0 196.833 -16.333 272.5 -49c75.667 -32.6719 133.167 -79.3389 172.5 -140.001c39.333 -60.667 59 -132 59 -214c0 -110 -36.167 -203.333 -108.5 -280s-170.5 -124.334 -294.5 -143.001l274 -583h-326z M872 764.002c96.667 0 169.833 19.5 219.5 58.5s74.5 94.5 74.5 166.5c0 62 -21.167 109.333 -63.5 142s-101.833 49 -178.5 49h-364l-81 -416h393zM737.999 1530l7 31l270 247h267l-9 -43l-386 -235h-149z"/>
   <glyph glyph-name="racute" horiz-adv-x="797" unicode="ŕ" d="M844 853c-46 10 -83.998 15 -113.998 15c-82 0 -148.833 -29 -200.5 -87s-89.167 -147 -112.5 -267l-101 -514h-281l161 830c16 80 30 164 42 252h268l-22 -172l-8 -49h4c48.667 89.333 96.667 151.833 144 187.5s101.666 53.5 162.999 53.5 c31.333 0 65.666 -4.66699 102.999 -14zM437.002 1183l6 31l247 288h277l-8 -43l-376 -276h-146z"/>
   <glyph glyph-name="Rcommaaccent" horiz-adv-x="1479" unicode="Ŗ" d="M1010 0l-230 534.002h-346l-103 -534h-295l274 1409h651c106 0 196.833 -16.333 272.5 -49c75.667 -32.6719 133.167 -79.3389 172.5 -140.001c39.333 -60.667 59 -132 59 -214c0 -110 -36.167 -203.333 -108.5 -280s-170.5 -124.334 -294.5 -143.001l274 -583h-326z M872 764.002c96.667 0 169.833 19.5 219.5 58.5s74.5 94.5 74.5 166.5c0 62 -21.167 109.333 -63.5 142s-101.833 49 -178.5 49h-364l-81 -416h393zM621.999 -454.998l-136.999 -0.000976562c74.667 66.667 117 123.334 127 170.001h-108l40 207h245l-24 -126 c-9.33301 -46.667 -24.333 -89 -45 -127s-53.334 -79.333 -98.001 -124z"/>
   <glyph glyph-name="rcommaaccent" horiz-adv-x="797" unicode="ŗ" d="M844 853c-46 10 -83.998 15 -113.998 15c-82 0 -148.833 -29 -200.5 -87s-89.167 -147 -112.5 -267l-101 -514h-281l161 830c16 80 30 164 42 252h268l-22 -172l-8 -49h4c48.667 89.333 96.667 151.833 144 187.5s101.666 53.5 162.999 53.5 c31.333 0 65.666 -4.66699 102.999 -14zM119.002 -455l-136.999 -0.000976562c74.667 66.667 117 123.334 127 170.001h-108l40 207h245l-24 -126c-9.33301 -46.667 -24.333 -89 -45 -127s-53.334 -79.333 -98.001 -124z"/>
   <glyph glyph-name="Rcaron" horiz-adv-x="1479" unicode="Ř" d="M1010 0l-230 534.002h-346l-103 -534h-295l274 1409h651c106 0 196.833 -16.333 272.5 -49c75.667 -32.6719 133.167 -79.3389 172.5 -140.001c39.333 -60.667 59 -132 59 -214c0 -110 -36.167 -203.333 -108.5 -280s-170.5 -124.334 -294.5 -143.001l274 -583h-326z M872 764.002c96.667 0 169.833 19.5 219.5 58.5s74.5 94.5 74.5 166.5c0 62 -21.167 109.333 -63.5 142s-101.833 49 -178.5 49h-364l-81 -416h393zM930.999 1530h-229l-204 276l5 29h150l182 -152h4l232 152h169l-6 -29z"/>
   <glyph glyph-name="rcaron" horiz-adv-x="797" unicode="ř" d="M844 853c-46 10 -83.998 15 -113.998 15c-82 0 -148.833 -29 -200.5 -87s-89.167 -147 -112.5 -267l-101 -514h-281l161 830c16 80 30 164 42 252h268l-22 -172l-8 -49h4c48.667 89.333 96.667 151.833 144 187.5s101.666 53.5 162.999 53.5 c31.333 0 65.666 -4.66699 102.999 -14zM674.002 1183h-229l-197 317l6 29h150l174 -193h4l240 193h169l-6 -29z"/>
   <glyph glyph-name="Sacute" horiz-adv-x="1366" unicode="Ś" d="M600 -20c-178 0 -313.665 31.501 -406.998 94.501s-149.333 159.833 -168 290.5l289 49c14 -74 45.167 -128 93.5 -162s119.166 -51 212.499 -51c230 0 345 66.333 345 199c0 53.333 -20 95.5 -60 126.5s-119.333 61.5 -238 91.5 c-122.667 32.667 -213.5 66.667 -272.5 102s-104 78.5 -135 129.5s-46.5 113.5 -46.5 187.5c0 118 52.333 213 157 285s243.334 108 416.001 108c158.667 0 286 -28.833 382 -86.5c96 -57.6689 155 -141.836 177 -252.5l-288 -67c-14.667 60 -46.5 107.833 -95.5 143.5 s-112.833 53.5 -191.5 53.5c-82.667 0 -147.667 -15.5 -195 -46.5s-71 -73.5 -71 -127.5c0 -31.333 8.66699 -58 26 -80s42.666 -41.167 75.999 -57.5s99.333 -37.833 198 -64.5c106 -29.333 184.333 -56.833 235 -82.5s91.167 -54.5 121.5 -86.5s53.5 -68.667 69.5 -110 c16 -41.334 24 -89.001 24 -143.001c0 -144 -55.333 -253.833 -166 -329.5s-273.334 -113.5 -488.001 -113.5zM713.002 1530l7 31l270 247h267l-9 -43l-386 -235h-149z"/>
   <glyph glyph-name="sacute" horiz-adv-x="1139" unicode="ś" d="M1000 334c0 -116 -42.832 -203.999 -128.499 -263.999s-210.5 -90 -374.5 -90c-134 0 -239.667 23.667 -317 71s-129.666 120.666 -156.999 219.999l251 36c14 -50 39.667 -86 77 -108c37.334 -22 92.667 -33 166 -33c72.667 0 127.834 11.667 165.5 35 c37.667 23.333 56.5 57 56.5 101c0 34.667 -13.833 61.167 -41.5 79.5s-88.5 37.5 -182.5 57.5c-132.667 30 -226.167 71.5 -280.5 124.5s-81.5 121.5 -81.5 205.5c0 106.668 41.833 188.335 125.5 245.001c83.667 56.667 203.167 85 358.5 85 c137.333 0 239.666 -23.5 306.999 -70.5s109 -119.5 125 -217.5l-251 -29c-11.333 46 -33.333 79.333 -66 100s-77.334 31 -134.001 31c-136.667 0 -205 -40 -205 -120c0 -22 6.66699 -40.333 20 -55s32.333 -27.334 57 -38.001s84 -27 178 -49 c121.333 -27.333 207 -66.333 257 -117s75 -117.334 75 -200zM543.001 1183l6 31l247 288h277l-8 -43l-376 -276h-146z"/>
   <glyph glyph-name="Scircumflex" horiz-adv-x="1366" unicode="Ŝ" d="M600 -20c-178 0 -313.665 31.501 -406.998 94.501s-149.333 159.833 -168 290.5l289 49c14 -74 45.167 -128 93.5 -162s119.166 -51 212.499 -51c230 0 345 66.333 345 199c0 53.333 -20 95.5 -60 126.5s-119.333 61.5 -238 91.5 c-122.667 32.667 -213.5 66.667 -272.5 102s-104 78.5 -135 129.5s-46.5 113.5 -46.5 187.5c0 118 52.333 213 157 285s243.334 108 416.001 108c158.667 0 286 -28.833 382 -86.5c96 -57.6689 155 -141.836 177 -252.5l-288 -67c-14.667 60 -46.5 107.833 -95.5 143.5 s-112.833 53.5 -191.5 53.5c-82.667 0 -147.667 -15.5 -195 -46.5s-71 -73.5 -71 -127.5c0 -31.333 8.66699 -58 26 -80s42.666 -41.167 75.999 -57.5s99.333 -37.833 198 -64.5c106 -29.333 184.333 -56.833 235 -82.5s91.167 -54.5 121.5 -86.5s53.5 -68.667 69.5 -110 c16 -41.334 24 -89.001 24 -143.001c0 -144 -55.333 -253.833 -166 -329.5s-273.334 -113.5 -488.001 -113.5zM1206 1559l-5 -29h-149l-174 151h-4l-240 -151h-169l5 29l311 276h229z"/>
   <glyph glyph-name="scircumflex" horiz-adv-x="1139" unicode="ŝ" d="M1000 334c0 -116 -42.832 -203.999 -128.499 -263.999s-210.5 -90 -374.5 -90c-134 0 -239.667 23.667 -317 71s-129.666 120.666 -156.999 219.999l251 36c14 -50 39.667 -86 77 -108c37.334 -22 92.667 -33 166 -33c72.667 0 127.834 11.667 165.5 35 c37.667 23.333 56.5 57 56.5 101c0 34.667 -13.833 61.167 -41.5 79.5s-88.5 37.5 -182.5 57.5c-132.667 30 -226.167 71.5 -280.5 124.5s-81.5 121.5 -81.5 205.5c0 106.668 41.833 188.335 125.5 245.001c83.667 56.667 203.167 85 358.5 85 c137.333 0 239.666 -23.5 306.999 -70.5s109 -119.5 125 -217.5l-251 -29c-11.333 46 -33.333 79.333 -66 100s-77.334 31 -134.001 31c-136.667 0 -205 -40 -205 -120c0 -22 6.66699 -40.333 20 -55s32.333 -27.334 57 -38.001s84 -27 178 -49 c121.333 -27.333 207 -66.333 257 -117s75 -117.334 75 -200zM1016 1211l-5 -28h-150l-166 192h-4l-248 -192h-169l5 28l320 318h229z"/>
   <glyph glyph-name="Scedilla" horiz-adv-x="1366" unicode="Ş" d="M600 -20c-178 0 -313.665 31.501 -406.998 94.501s-149.333 159.833 -168 290.5l289 49c14 -74 45.167 -128 93.5 -162s119.166 -51 212.499 -51c230 0 345 66.333 345 199c0 53.333 -20 95.5 -60 126.5s-119.333 61.5 -238 91.5 c-122.667 32.667 -213.5 66.667 -272.5 102s-104 78.5 -135 129.5s-46.5 113.5 -46.5 187.5c0 118 52.333 213 157 285s243.334 108 416.001 108c158.667 0 286 -28.833 382 -86.5c96 -57.6689 155 -141.836 177 -252.5l-288 -67c-14.667 60 -46.5 107.833 -95.5 143.5 s-112.833 53.5 -191.5 53.5c-82.667 0 -147.667 -15.5 -195 -46.5s-71 -73.5 -71 -127.5c0 -31.333 8.66699 -58 26 -80s42.666 -41.167 75.999 -57.5s99.333 -37.833 198 -64.5c106 -29.333 184.333 -56.833 235 -82.5s91.167 -54.5 121.5 -86.5s53.5 -68.667 69.5 -110 c16 -41.334 24 -89.001 24 -143.001c0 -144 -55.333 -253.833 -166 -329.5s-273.334 -113.5 -488.001 -113.5zM465.002 -424.999c-33.333 0 -68.667 2.00098 -106 6.00098l29 117c28 -4.66699 55.333 -7 82 -7c54 0 93.333 5.83301 118 17.5s37 31.5 37 59.5 c0 42 -36.667 63 -110 63h-25l-28 -2l98 171h141l-48 -83c46.667 -0.666992 84.5 -11.834 113.5 -33.501s43.5 -54.5 43.5 -98.5c0 -64.666 -28 -115.833 -84 -153.5s-143 -56.5 -261 -56.5z"/>
   <glyph glyph-name="scedilla" horiz-adv-x="1139" unicode="ş" d="M1000 334c0 -116 -42.832 -203.999 -128.499 -263.999s-210.5 -90 -374.5 -90c-134 0 -239.667 23.667 -317 71s-129.666 120.666 -156.999 219.999l251 36c14 -50 39.667 -86 77 -108c37.334 -22 92.667 -33 166 -33c72.667 0 127.834 11.667 165.5 35 c37.667 23.333 56.5 57 56.5 101c0 34.667 -13.833 61.167 -41.5 79.5s-88.5 37.5 -182.5 57.5c-132.667 30 -226.167 71.5 -280.5 124.5s-81.5 121.5 -81.5 205.5c0 106.668 41.833 188.335 125.5 245.001c83.667 56.667 203.167 85 358.5 85 c137.333 0 239.666 -23.5 306.999 -70.5s109 -119.5 125 -217.5l-251 -29c-11.333 46 -33.333 79.333 -66 100s-77.334 31 -134.001 31c-136.667 0 -205 -40 -205 -120c0 -22 6.66699 -40.333 20 -55s32.333 -27.334 57 -38.001s84 -27 178 -49 c121.333 -27.333 207 -66.333 257 -117s75 -117.334 75 -200zM340.001 -424.999c-33.333 0 -68.667 2.00098 -106 6.00098l29 117c28 -4.66699 55.333 -7 82 -7c54 0 93.333 5.83301 118 17.5s37 31.5 37 59.5c0 42 -36.667 63 -110 63h-25l-28 -2l98 171h141l-48 -83 c46.667 -0.666992 84.5 -11.834 113.5 -33.501s43.5 -54.5 43.5 -98.5c0 -64.666 -28 -115.833 -84 -153.5s-143 -56.5 -261 -56.5z"/>
   <glyph glyph-name="Scaron" horiz-adv-x="1366" unicode="Š" d="M600 -20c-178 0 -313.665 31.501 -406.998 94.501s-149.333 159.833 -168 290.5l289 49c14 -74 45.167 -128 93.5 -162s119.166 -51 212.499 -51c230 0 345 66.333 345 199c0 53.333 -20 95.5 -60 126.5s-119.333 61.5 -238 91.5 c-122.667 32.667 -213.5 66.667 -272.5 102s-104 78.5 -135 129.5s-46.5 113.5 -46.5 187.5c0 118 52.333 213 157 285s243.334 108 416.001 108c158.667 0 286 -28.833 382 -86.5c96 -57.6689 155 -141.836 177 -252.5l-288 -67c-14.667 60 -46.5 107.833 -95.5 143.5 s-112.833 53.5 -191.5 53.5c-82.667 0 -147.667 -15.5 -195 -46.5s-71 -73.5 -71 -127.5c0 -31.333 8.66699 -58 26 -80s42.666 -41.167 75.999 -57.5s99.333 -37.833 198 -64.5c106 -29.333 184.333 -56.833 235 -82.5s91.167 -54.5 121.5 -86.5s53.5 -68.667 69.5 -110 c16 -41.334 24 -89.001 24 -143.001c0 -144 -55.333 -253.833 -166 -329.5s-273.334 -113.5 -488.001 -113.5zM934.002 1530h-229l-204 276l5 29h150l182 -152h4l232 152h169l-6 -29z"/>
   <glyph glyph-name="scaron" horiz-adv-x="1139" unicode="š" d="M1000 334c0 -116 -42.832 -203.999 -128.499 -263.999s-210.5 -90 -374.5 -90c-134 0 -239.667 23.667 -317 71s-129.666 120.666 -156.999 219.999l251 36c14 -50 39.667 -86 77 -108c37.334 -22 92.667 -33 166 -33c72.667 0 127.834 11.667 165.5 35 c37.667 23.333 56.5 57 56.5 101c0 34.667 -13.833 61.167 -41.5 79.5s-88.5 37.5 -182.5 57.5c-132.667 30 -226.167 71.5 -280.5 124.5s-81.5 121.5 -81.5 205.5c0 106.668 41.833 188.335 125.5 245.001c83.667 56.667 203.167 85 358.5 85 c137.333 0 239.666 -23.5 306.999 -70.5s109 -119.5 125 -217.5l-251 -29c-11.333 46 -33.333 79.333 -66 100s-77.334 31 -134.001 31c-136.667 0 -205 -40 -205 -120c0 -22 6.66699 -40.333 20 -55s32.333 -27.334 57 -38.001s84 -27 178 -49 c121.333 -27.333 207 -66.333 257 -117s75 -117.334 75 -200zM776.001 1183h-229l-197 317l6 29h150l174 -193h4l240 193h169l-6 -29z"/>
   <glyph glyph-name="Tcommaaccent" horiz-adv-x="1251" unicode="Ţ" d="M895 1181l-230 -1181h-295l230 1181h-455l44 228h1206l-44 -228h-456zM352 -425c-33.333 0 -68.667 2.00098 -106 6.00098l29 117c28 -4.66699 55.333 -7 82 -7c54 0 93.333 5.83301 118 17.5s37 31.5 37 59.5c0 42 -36.667 63 -110 63h-25l-28 -2l98 171h141l-48 -83 c46.667 -0.666992 84.5 -11.834 113.5 -33.501s43.5 -54.5 43.5 -98.5c0 -64.666 -28 -115.833 -84 -153.5s-143 -56.5 -261 -56.5z"/>
   <glyph glyph-name="tcommaaccent" horiz-adv-x="682" unicode="ţ" d="M376 -16c-82.667 0 -146.668 19.501 -192.001 58.501s-68 94.5 -68 166.5c0 47.333 5.33301 99.666 16 156.999l102 526h-148l37 190h162l137 254h176l-48 -254h202l-35 -190h-205l-104 -535c-7.33301 -37.333 -11 -67 -11 -89c0 -30.667 7.83301 -53.5 23.5 -68.5 s36.834 -22.5 63.501 -22.5c21.333 0 57.333 4.33301 108 13l-32 -182c-54 -16 -115.333 -24 -184 -24zM163.999 -424.999c-33.333 0 -68.667 2.00098 -106 6.00098l29 117c28 -4.66699 55.333 -7 82 -7c54 0 93.333 5.83301 118 17.5s37 31.5 37 59.5 c0 42 -36.667 63 -110 63h-25l-28 -2l98 171h141l-48 -83c46.667 -0.666992 84.5 -11.834 113.5 -33.501s43.5 -54.5 43.5 -98.5c0 -64.666 -28 -115.833 -84 -153.5s-143 -56.5 -261 -56.5z"/>
   <glyph glyph-name="Tcaron" horiz-adv-x="1251" unicode="Ť" d="M895 1181l-230 -1181h-295l230 1181h-455l44 228h1206l-44 -228h-456zM915 1530h-229l-204 276l5 29h150l182 -152h4l232 152h169l-6 -29z"/>
   <glyph glyph-name="tcaron" horiz-adv-x="981" unicode="ť" d="M376 -16c-82.667 0 -146.668 19.501 -192.001 58.501s-68 94.5 -68 166.5c0 47.333 5.33301 99.666 16 156.999l102 526h-148l37 190h162l137 254h176l-48 -254h202l-35 -190h-205l-104 -535c-7.33301 -37.333 -11 -67 -11 -89c0 -30.667 7.83301 -53.5 23.5 -68.5 s36.834 -22.5 63.501 -22.5c21.333 0 57.333 4.33301 108 13l-32 -182c-54 -16 -115.333 -24 -184 -24zM965.999 1087l-137 0.000976562c76 67.3359 119.667 130.669 131 190h-108l40 207h245l-28 -146c-10 -46.6719 -25 -88.8389 -45 -126.501 c-20 -37.667 -52.667 -79.167 -98 -124.5z"/>
   <glyph glyph-name="Tbar" horiz-adv-x="1251" unicode="Ŧ" d="M895 1181l-71 -365h228l-37 -190h-228l-122 -626h-295l122 626h-227l37 190h227l71 365h-455l44 228h1206l-44 -228h-456z"/>
   <glyph glyph-name="tbar" horiz-adv-x="682" unicode="ŧ" d="M376 -16c-82.667 0 -146.668 19.501 -192.001 58.501s-68 94.5 -68 166.5c0 47.333 5.33301 99.666 16 156.999l20 107h-126l36 190h127l45 229h-148l37 190h162l137 254h176l-48 -254h202l-35 -190h-205l-45 -229h185l-37 -190h-185l-22 -116 c-7.33301 -37.333 -11 -67 -11 -89c0 -30.667 7.83301 -53.5 23.5 -68.5s36.834 -22.5 63.501 -22.5c21.333 0 57.333 4.33301 108 13l-32 -182c-54 -16 -115.333 -24 -184 -24z"/>
   <glyph glyph-name="Utilde" horiz-adv-x="1479" unicode="Ũ" d="M688 211c110 0 193.5 25.332 250.5 75.999s96.833 135.334 119.5 254.001l168 868h295l-171 -879c-36.667 -187.333 -110 -325.833 -220 -415.5s-262.667 -134.5 -458 -134.5c-176 0 -312.167 39.167 -408.5 117.5s-144.5 189.5 -144.5 333.5 c0 29.333 2.5 64.5 7.5 105.5s10.167 73.833 15.5 98.5l148 774h295l-153 -810c-12 -58 -18 -115.333 -18 -172c0 -68.667 24.333 -121.834 73 -159.5c48.667 -37.667 115.667 -56.5 201 -56.5zM1075 1529c-29.333 0 -57.502 6.33105 -84.502 18.998s-53 26.834 -78 42.501 s-48.833 29.834 -71.5 42.501s-44 19 -64 19c-28 0 -51.167 -8.5 -69.5 -25.5s-35.833 -49.5 -52.5 -97.5h-136c26 105.333 62.167 180.5 108.5 225.5s103.833 67.5 172.5 67.5c30 0 58.833 -6.33301 86.5 -19c27.668 -12.6807 53.835 -26.8477 78.501 -42.501 c24.667 -15.6797 48 -29.8467 70 -42.5c22 -12.667 42.667 -19 62 -19c28.667 0 52.334 9.33301 71.001 28s36 50.334 52 95.001h135c-26 -105.333 -62.167 -180.5 -108.5 -225.5s-103.5 -67.5 -171.5 -67.5z"/>
   <glyph glyph-name="utilde" horiz-adv-x="1251" unicode="ũ" d="M512 1082l-118.001 -595.001c-17.333 -82 -26 -137 -26 -165c0 -86 50.667 -129 152 -129c67.333 0 129.5 27 186.5 81s93.167 121.333 108.5 202l118 606h282l-166 -851c-10.6748 -52.667 -23.3418 -129.667 -38.001 -231h-268c0 6 3.16699 34 9.5 84 s11.166 83.667 14.499 101h-3c-50.667 -71.333 -106.167 -123.166 -166.5 -155.499s-129.166 -48.5 -206.499 -48.5c-101.333 0 -177.666 24.333 -228.999 73s-77 119 -77 211c0 16.667 2.33301 43.5 7 80.5s9.33398 64.833 14.001 83.5l127 653h279zM905.999 1183 c-29.333 0 -57.501 6.33105 -84.501 18.998s-53 26.834 -78 42.501s-48.833 29.834 -71.5 42.501s-44 19 -64 19c-28 0 -51.167 -8.5 -69.5 -25.5c-18.334 -17 -35.834 -49.5 -52.5 -97.5h-136c26 105.333 62.167 180.5 108.5 225.5s103.833 67.5 172.5 67.5 c30 0 58.833 -6.33301 86.5 -19c27.6699 -12.6777 53.8369 -26.8447 78.501 -42.501c24.667 -15.6719 48 -29.8389 70 -42.5c22 -12.667 42.667 -19 62 -19c28.6699 0 52.3369 9.33301 71 28c18.667 18.667 36 50.334 52 95.001h135 c-26 -105.333 -62.167 -180.5 -108.5 -225.5s-103.5 -67.5 -171.5 -67.5z"/>
   <glyph glyph-name="Umacron" horiz-adv-x="1479" unicode="Ū" d="M688 211c110 0 193.5 25.332 250.5 75.999s96.833 135.334 119.5 254.001l168 868h295l-171 -879c-36.667 -187.333 -110 -325.833 -220 -415.5s-262.667 -134.5 -458 -134.5c-176 0 -312.167 39.167 -408.5 117.5s-144.5 189.5 -144.5 333.5 c0 29.333 2.5 64.5 7.5 105.5s10.167 73.833 15.5 98.5l148 774h295l-153 -810c-12 -58 -18 -115.333 -18 -172c0 -68.667 24.333 -121.834 73 -159.5c48.667 -37.667 115.667 -56.5 201 -56.5zM1214 1532h-586l33 168h590z"/>
   <glyph glyph-name="umacron" horiz-adv-x="1251" unicode="ū" d="M512 1082l-118.001 -595.001c-17.333 -82 -26 -137 -26 -165c0 -86 50.667 -129 152 -129c67.333 0 129.5 27 186.5 81s93.167 121.333 108.5 202l118 606h282l-166 -851c-10.6748 -52.667 -23.3418 -129.667 -38.001 -231h-268c0 6 3.16699 34 9.5 84 s11.166 83.667 14.499 101h-3c-50.667 -71.333 -106.167 -123.166 -166.5 -155.499s-129.166 -48.5 -206.499 -48.5c-101.333 0 -177.666 24.333 -228.999 73s-77 119 -77 211c0 16.667 2.33301 43.5 7 80.5s9.33398 64.833 14.001 83.5l127 653h279zM1029 1203h-586l33 168 h590z"/>
   <glyph glyph-name="Ubreve" horiz-adv-x="1479" unicode="Ŭ" d="M688 211c110 0 193.5 25.332 250.5 75.999s96.833 135.334 119.5 254.001l168 868h295l-171 -879c-36.667 -187.333 -110 -325.833 -220 -415.5s-262.667 -134.5 -458 -134.5c-176 0 -312.167 39.167 -408.5 117.5s-144.5 189.5 -144.5 333.5 c0 29.333 2.5 64.5 7.5 105.5s10.167 73.833 15.5 98.5l148 774h295l-153 -810c-12 -58 -18 -115.333 -18 -172c0 -68.667 24.333 -121.834 73 -159.5c48.667 -37.667 115.667 -56.5 201 -56.5zM910 1520c-94.667 0 -170.5 27 -227.5 81s-85.5 128 -85.5 222h165 c0 -50 15.167 -89.833 45.5 -119.5s71.833 -44.5 124.5 -44.5c52.002 0 95.6689 12.667 131 38c35.333 25.333 62 67.333 80 126h164c-28 -102 -74.333 -178 -139 -228s-150.667 -75 -258 -75z"/>
   <glyph glyph-name="ubreve" horiz-adv-x="1251" unicode="ŭ" d="M512 1082l-118.001 -595.001c-17.333 -82 -26 -137 -26 -165c0 -86 50.667 -129 152 -129c67.333 0 129.5 27 186.5 81s93.167 121.333 108.5 202l118 606h282l-166 -851c-10.6748 -52.667 -23.3418 -129.667 -38.001 -231h-268c0 6 3.16699 34 9.5 84 s11.166 83.667 14.499 101h-3c-50.667 -71.333 -106.167 -123.166 -166.5 -155.499s-129.166 -48.5 -206.499 -48.5c-101.333 0 -177.666 24.333 -228.999 73s-77 119 -77 211c0 16.667 2.33301 43.5 7 80.5s9.33398 64.833 14.001 83.5l127 653h279zM736.999 1183 c-93.333 0 -168.831 26.167 -226.498 78.5c-57.667 52.3359 -86.5 121.169 -86.5 206.5l2 38h163c0 -49.333 15.167 -89.333 45.5 -120s69.833 -46 118.5 -46c52 0 97.167 14.5 135.5 43.5s65.5 69.833 81.5 122.5h164c-28.668 -109.333 -75.335 -190.5 -140.001 -243.5 c-64.667 -53 -150.334 -79.5 -257.001 -79.5z"/>
   <glyph glyph-name="Uring" horiz-adv-x="1479" unicode="Ů" d="M688 211c110 0 193.5 25.332 250.5 75.999s96.833 135.334 119.5 254.001l168 868h295l-171 -879c-36.667 -187.333 -110 -325.833 -220 -415.5s-262.667 -134.5 -458 -134.5c-176 0 -312.167 39.167 -408.5 117.5s-144.5 189.5 -144.5 333.5 c0 29.333 2.5 64.5 7.5 105.5s10.167 73.833 15.5 98.5l148 774h295l-153 -810c-12 -58 -18 -115.333 -18 -172c0 -68.667 24.333 -121.834 73 -159.5c48.667 -37.667 115.667 -56.5 201 -56.5zM1182 1724c0 -70 -24.5 -129.833 -73.5 -179.5s-109.167 -74.5 -180.5 -74.5 s-131.5 24.833 -180.5 74.5s-73.5 109.5 -73.5 179.5s24.833 129.833 74.5 179.5s109.5 74.5 179.5 74.5s129.833 -24.833 179.5 -74.5s74.5 -109.5 74.5 -179.5zM1055 1724c0 34 -12.167 63.333 -36.5 88s-54.5 37 -90.5 37c-34 0 -63.333 -12 -88 -36s-37 -53.667 -37 -89 c0 -37.333 12.333 -68 37 -92s54 -36 88 -36c35.333 0 65.333 12.333 90 37s37 55 37 91z"/>
   <glyph glyph-name="uring" horiz-adv-x="1251" unicode="ů" d="M512 1082l-118.001 -595.001c-17.333 -82 -26 -137 -26 -165c0 -86 50.667 -129 152 -129c67.333 0 129.5 27 186.5 81s93.167 121.333 108.5 202l118 606h282l-166 -851c-10.6748 -52.667 -23.3418 -129.667 -38.001 -231h-268c0 6 3.16699 34 9.5 84 s11.166 83.667 14.499 101h-3c-50.667 -71.333 -106.167 -123.166 -166.5 -155.499s-129.166 -48.5 -206.499 -48.5c-101.333 0 -177.666 24.333 -228.999 73s-77 119 -77 211c0 16.667 2.33301 43.5 7 80.5s9.33398 64.833 14.001 83.5l127 653h279zM983.999 1390 c0 -70 -24.5 -129.833 -73.5 -179.5s-109.167 -74.5 -180.5 -74.5s-131.5 24.833 -180.5 74.5s-73.5 109.5 -73.5 179.5s24.833 129.833 74.5 179.5s109.5 74.5 179.5 74.5s129.833 -24.833 179.5 -74.5s74.5 -109.5 74.5 -179.5zM856.999 1390 c0 34 -12.167 63.333 -36.5 88s-54.5 37 -90.5 37c-34 0 -63.333 -12 -88 -36s-37 -53.667 -37 -89c0 -37.333 12.333 -68 37 -92s54 -36 88 -36c35.333 0 65.333 12.333 90 37s37 55 37 91z"/>
   <glyph glyph-name="Uhungarumlaut" horiz-adv-x="1479" unicode="Ű" d="M688 211c110 0 193.5 25.332 250.5 75.999s96.833 135.334 119.5 254.001l168 868h295l-171 -879c-36.667 -187.333 -110 -325.833 -220 -415.5s-262.667 -134.5 -458 -134.5c-176 0 -312.167 39.167 -408.5 117.5s-144.5 189.5 -144.5 333.5 c0 29.333 2.5 64.5 7.5 105.5s10.167 73.833 15.5 98.5l148 774h295l-153 -810c-12 -58 -18 -115.333 -18 -172c0 -68.667 24.333 -121.834 73 -159.5c48.667 -37.667 115.667 -56.5 201 -56.5zM572 1530l10 31l227 248h261l-10 -43l-352 -236h-136zM977 1530v31l237 248 h261l-10 -43l-352 -236h-136z"/>
   <glyph glyph-name="uhungarumlaut" horiz-adv-x="1251" unicode="ű" d="M512 1082l-118.001 -595.001c-17.333 -82 -26 -137 -26 -165c0 -86 50.667 -129 152 -129c67.333 0 129.5 27 186.5 81s93.167 121.333 108.5 202l118 606h282l-166 -851c-10.6748 -52.667 -23.3418 -129.667 -38.001 -231h-268c0 6 3.16699 34 9.5 84 s11.166 83.667 14.499 101h-3c-50.667 -71.333 -106.167 -123.166 -166.5 -155.499s-129.166 -48.5 -206.499 -48.5c-101.333 0 -177.666 24.333 -228.999 73s-77 119 -77 211c0 16.667 2.33301 43.5 7 80.5s9.33398 64.833 14.001 83.5l127 653h279zM406.999 1183l10 31 l257 288h261l-10 -43l-372 -276h-146zM811.999 1183l10 31l257 288h261l-10 -43l-372 -276h-146z"/>
   <glyph glyph-name="Uogonek" horiz-adv-x="1479" unicode="Ų" d="M688 211c110 0 193.5 25.332 250.5 75.999s96.833 135.334 119.5 254.001l168 868h295l-171 -879c-36.667 -187.333 -110 -325.833 -220 -415.5s-262.667 -134.5 -458 -134.5c-176 0 -312.167 39.167 -408.5 117.5s-144.5 189.5 -144.5 333.5 c0 29.333 2.5 64.5 7.5 105.5s10.167 73.833 15.5 98.5l148 774h295l-153 -810c-12 -58 -18 -115.333 -18 -172c0 -68.667 24.333 -121.834 73 -159.5c48.667 -37.667 115.667 -56.5 201 -56.5zM713 -425.001c-60 0 -108.332 16.002 -144.999 48.002s-55 75.667 -55 131 c0 48.667 15.167 95.167 45.5 139.5s75.166 83.166 134.499 116.499h164c-40.667 -25.333 -75.167 -59.333 -103.5 -102s-42.5 -82.334 -42.5 -119.001c0 -25.333 7.33301 -44.333 22 -57s33.667 -19 57 -19c32.667 0 66.667 7.66699 102 23l-19 -127 c-52.667 -22.667 -106 -34 -160 -34z"/>
   <glyph glyph-name="uogonek" horiz-adv-x="1251" unicode="ų" d="M512 1082l-118.001 -595.001c-17.333 -82 -26 -137 -26 -165c0 -86 50.667 -129 152 -129c67.333 0 129.5 27 186.5 81s93.167 121.333 108.5 202l118 606h282l-166 -851c-10.6748 -52.667 -23.3418 -129.667 -38.001 -231h-268c0 6 3.16699 34 9.5 84 s11.166 83.667 14.499 101h-3c-50.667 -71.333 -106.167 -123.166 -166.5 -155.499s-129.166 -48.5 -206.499 -48.5c-101.333 0 -177.666 24.333 -228.999 73s-77 119 -77 211c0 16.667 2.33301 43.5 7 80.5s9.33398 64.833 14.001 83.5l127 653h279zM779.999 -425.001 c-60 0 -108.332 16.002 -144.999 48.002s-55 75.667 -55 131c0 48.667 15.167 95.167 45.5 139.5s75.166 83.166 134.499 116.499h164c-40.667 -25.333 -75.167 -59.333 -103.5 -102s-42.5 -82.334 -42.5 -119.001c0 -25.333 7.33301 -44.333 22 -57s33.667 -19 57 -19 c32.667 0 66.667 7.66699 102 23l-19 -127c-52.667 -22.667 -106 -34 -160 -34z"/>
   <glyph glyph-name="Wcircumflex" horiz-adv-x="1933" unicode="Ŵ" d="M1441 0h-350l-27 812l-4 220l-1 84c-40 -106.667 -70.5 -186.334 -91.5 -239.001s-145.5 -345 -373.5 -877h-355l-89 1409h280l36 -815c4.66699 -112 7 -227.333 7 -346l57 144l76 185l355 832h316l42 -1161c18 48.667 44.167 116.834 78.5 204.501 s164.5 406.5 390.5 956.5h291zM1483 1559l-5 -29h-149l-174 151h-4l-240 -151h-169l5 29l311 276h229z"/>
   <glyph glyph-name="wcircumflex" horiz-adv-x="1593" unicode="ŵ" d="M1207 0h-297l-43 660l-5 230c-35.333 -94.667 -67 -172 -95 -232l-302 -658h-297l-69 1082h258l14 -696v-131l27 68l52 123l294 636h301l42 -636l5 -191l53 132l291 695h266zM1271 1211l-5 -28h-150l-166 192h-4l-248 -192h-169l5 28l320 318h229z"/>
   <glyph glyph-name="Ycircumflex" horiz-adv-x="1366" unicode="Ŷ" d="M724 0h-294l112 578l-370 831h292l259 -605l474 605h323l-684 -831zM1214 1559l-5 -29h-149l-174 151h-4l-240 -151h-169l5 29l311 276h229z"/>
   <glyph glyph-name="ycircumflex" horiz-adv-x="1139" unicode="ŷ" d="M88 -425c-64.667 0 -122.333 5.99902 -173 17.999l38 196c26.667 -6 55.667 -9 87 -9c52 0 97.833 15.333 137.5 46s79.167 80.667 118.5 150l28 48l-212 1058h291l71 -497c4 -20.667 11.167 -80 21.5 -178s14.833 -150 13.5 -156l17 37l139 293l259 501h300l-654 -1139 c-71.333 -111.333 -129.5 -189.666 -174.5 -234.999s-92 -78.833 -141 -100.5s-104.5 -32.5 -166.5 -32.5zM1030 1211l-5 -28h-150l-166 192h-4l-248 -192h-169l5 28l320 318h229z"/>
   <glyph glyph-name="Ydieresis" horiz-adv-x="1366" unicode="Ÿ" d="M695 0h-294l112 578l-370 831h292l259 -605l474 605h323l-684 -831zM927 1530l43 219h217l-43 -219h-217zM494 1530l42 219h214l-43 -219h-213z"/>
   <glyph glyph-name="Zacute" horiz-adv-x="1251" unicode="Ź" d="M1082 0h-1130l40 209l927 969h-663l45 231h1014l-40 -205l-930 -973h782zM663 1530l7 31l270 247h267l-9 -43l-386 -235h-149z"/>
   <glyph glyph-name="zacute" horiz-adv-x="1024" unicode="ź" d="M-10 0l38 199l613 680h-440l40 203h769l-39 -201l-610 -676h527l-40 -205h-858zM504 1183l6 31l247 288h277l-8 -43l-376 -276h-146z"/>
   <glyph glyph-name="Zdotaccent" horiz-adv-x="1251" unicode="Ż" d="M1082 0h-1130l40 209l927 969h-663l45 231h1014l-40 -205l-930 -973h782zM657 1540l41 207h281l-41 -207h-281z"/>
   <glyph glyph-name="zdotaccent" horiz-adv-x="1024" unicode="ż" d="M-10 0l38 199l613 680h-440l40 203h769l-39 -201l-610 -676h527l-40 -205h-858zM519 1277l41 207h281l-41 -207h-281z"/>
   <glyph glyph-name="Zcaron" horiz-adv-x="1251" unicode="Ž" d="M1082 0h-1130l40 209l927 969h-663l45 231h1014l-40 -205l-930 -973h782zM902 1530h-229l-204 276l5 29h150l182 -152h4l232 152h169l-6 -29z"/>
   <glyph glyph-name="zcaron" horiz-adv-x="1024" unicode="ž" d="M-10 0l38 199l613 680h-440l40 203h769l-39 -201l-610 -676h527l-40 -205h-858zM742 1183h-229l-197 317l6 29h150l174 -193h4l240 193h169l-6 -29z"/>
   <glyph glyph-name="longs" horiz-adv-x="569" unicode="ſ" d="M659 1484c48.667 0 100.334 -5.66797 155 -17.001l-36 -181c-7.33887 1.33301 -21.6719 3.33301 -42.999 6c-21.333 2.66699 -39 4 -53 4c-44.667 0 -77 -10.667 -97 -32s-34.333 -53.666 -43 -96.999l-227 -1167h-280l233 1195c20 103.333 61.5 177.333 124.5 222 s151.833 67 266.499 67z"/>
   <glyph glyph-name="uni0180" horiz-adv-x="1251" unicode="ƀ" d="M799 1175l-248 -0.000976562c-39.333 -201.333 -60.333 -302 -63 -302h4c42 62.667 93.667 109.834 155 141.5c61.333 31.667 128.333 47.5 201 47.5c106.001 0 188.668 -31.5 248 -94.5c59.333 -63 89 -149.5 89 -259.5c0 -147.334 -21.167 -277.501 -63.5 -390.501 s-101.666 -197.5 -177.999 -253.5s-167.833 -84 -274.5 -84c-83.333 0 -151 17.333 -203 52s-88.667 83.334 -110 146.001h-2c-4 -17.333 -8.5 -35.833 -13.5 -55.5s-10 -38.167 -15 -55.5s-9.33301 -32.166 -13 -44.499c-3.6709 -12.333 -5.83789 -19.833 -6.5 -22.5h-271 c5.33301 16.667 21.666 91 48.999 223l185 952h-141l33 170h142l27 139h281l-27 -139h243zM728 866.999c-62.667 0 -111.665 -9.83398 -146.998 -29.501s-65.833 -50.667 -91.5 -93c-25.668 -42.333 -45.835 -97.333 -60.501 -165c-14.667 -67.667 -22 -127.167 -22 -178.5 c0 -71.333 17.667 -127.166 53 -167.499s84.666 -60.5 147.999 -60.5c88.667 0 158.167 43 208.5 129s75.5 203.333 75.5 352c0 74 -13.667 128 -41 162s-68.333 51 -123 51z"/>
   <glyph glyph-name="uni0181" horiz-adv-x="1630" unicode="Ɓ" d="M475 1195l-20.001 -0.00195312c-48 0 -84.667 -12.667 -110 -38s-38 -61.666 -38 -108.999c0 -24.667 4 -57 12 -97l-225 -17c-3.33301 25.333 -5 54.333 -5 87c0 132.667 31.5 230.5 94.5 293.5s160.5 94.5 292.5 94.5h625c167.333 0 294 -27.5 380 -82.5 s129 -136.167 129 -243.5c0 -91.334 -27.5 -166.167 -82.5 -224.499c-55 -58.333 -135.5 -98.5 -241.5 -120.5c90.667 -15.333 161.5 -50.5 212.5 -105.5s76.5 -122.167 76.5 -201.5c0 -140.667 -52.167 -247.667 -156.5 -321s-261.166 -110 -470.499 -110h-705z M579.999 218.998h328c139.333 0 236 16.833 290 50.5s81 89.5 81 167.5c0 60 -22.667 106 -68 138s-119.333 48 -222 48h-330zM700.999 840.998h294c116.667 0 199.5 15.333 248.5 46s73.5 81 73.5 151c0 53.333 -19 92 -57 116s-101.667 36 -191 36h-301z"/>
   <glyph glyph-name="uni0182" horiz-adv-x="1450" unicode="Ƃ" d="M869 848c154.667 0 276.833 -34.501 366.5 -103.501s134.5 -163.167 134.5 -282.5c0 -147.333 -54 -261.166 -162 -341.499s-258.667 -120.5 -452 -120.5h-720l273 1409h1059l-44 -227h-764l-65 -334h374zM374.999 229.999l390.999 0.000976562 c96.667 0 170.834 18.333 222.5 55c51.667 36.667 77.5 88.667 77.5 156c0 59.333 -20.667 104.166 -62 134.499c-41.334 30.333 -107.667 45.5 -198.999 45.5h-354z"/>
   <glyph glyph-name="uni0183" horiz-adv-x="1251" unicode="ƃ" d="M855 1102c106.001 0 188.669 -31.5029 248.001 -94.5029c59.333 -63 89 -149.5 89 -259.5c0 -134.667 -20.667 -265.834 -62 -393.501s-99.5 -222 -174.5 -283s-170.5 -91.5 -286.5 -91.5c-83.333 0 -151 17.333 -203 52s-88.667 83.334 -110 146.001h-2 c-4 -17.333 -8.5 -35.833 -13.5 -55.5s-10 -38.167 -15 -55.5s-9.33301 -32.166 -13 -44.499c-3.6709 -12.333 -5.83789 -19.833 -6.5 -22.5h-271c4 11.333 12.333 47.333 25 108s102.667 519.334 270 1376h781l-36 -213h-506c-46.667 -238.667 -71.334 -358 -74.001 -358h4 c42 62.668 93.667 109.835 155 141.501c61.333 31.667 128.333 47.5 201 47.5zM735.001 906.997c-54 0 -100.499 -11.6689 -139.499 -35.002s-72.167 -58.833 -99.5 -106.5s-49 -107.167 -65 -178.5c-16 -71.334 -24 -133.334 -24 -186 c0 -71.333 17.667 -127.166 53 -167.499s84.666 -60.5 147.999 -60.5c67.333 0 120 20.833 158 62.5s69.667 112.334 95 212.001s38 181.834 38 246.5c0 70 -11.833 123 -35.5 159s-66.5 54 -128.5 54z"/>
   <glyph glyph-name="uni0184" horiz-adv-x="1450" unicode="Ƅ" d="M36 0l193.999 1003l-118 203l6 36l411 167h75l-109 -561h374c154.667 0 276.834 -34.5 366.501 -103.5s134.5 -163.167 134.5 -282.5c0 -147.333 -54 -261.166 -162 -341.499s-258.667 -120.5 -452 -120.5h-720zM374.999 229.999l390.999 0.000976562 c96.667 0 170.834 18.333 222.5 55c51.667 36.667 77.5 88.667 77.5 156c0 59.333 -20.667 104.166 -62 134.499c-41.334 30.333 -107.667 45.5 -198.999 45.5h-354z"/>
   <glyph glyph-name="uni0185" horiz-adv-x="1251" unicode="ƅ" d="M35 0c2 6 4.66797 16.168 8.00098 30.501s7.16602 31.5 11.499 51.5s9 42 14 66s10.167 49 15.5 75l170 874l-112 193l5 35l392 159h72c-17.3359 -86.667 -32.1689 -161.167 -44.5 -223.5c-12.3379 -62.333 -22.6709 -114.5 -31 -156.5 c-8.33691 -42 -15.1699 -75.667 -20.499 -101c-5.33301 -25.3369 -9.5 -44.6699 -12.5 -58c-3 -13.333 -5 -22 -6 -26l-1.5 -6h4c18.667 28 40.167 53.667 64.5 77s51.333 43.166 81 59.499c29.667 16.3379 62.167 29.1709 97.5 38.5c35.333 9.33301 73 14 113 14 c54 0 102 -8.33301 144 -25c42 -16.6748 77.167 -40.3418 105.5 -71.001c28.333 -30.667 50 -67.834 65 -111.501s22.5 -92.5 22.5 -146.5v-14c0 -32 -1.66699 -66.667 -5 -104s-8.66602 -75.333 -15.999 -114c-18.667 -94.667 -42.667 -175.834 -72 -243.501 s-64.833 -123.167 -106.5 -166.5s-89.334 -75.166 -143.001 -95.499s-113.834 -30.5 -180.501 -30.5c-83.333 0 -151 17.333 -203 52s-88.667 83.334 -110 146.001h-2c-4 -17.333 -8.5 -35.833 -13.5 -55.5s-10 -38.167 -15 -55.5s-9.33301 -32.166 -13 -44.499 c-3.6709 -12.333 -5.83789 -19.833 -6.5 -22.5h-271zM735.001 907.001c-35.333 0 -68.834 -5.50098 -100.501 -16.501s-60.834 -29.833 -87.501 -56.5s-50.5 -62.834 -71.5 -108.501s-38.167 -102.834 -51.5 -171.501c-5.33301 -29.333 -9.5 -56.666 -12.5 -81.999 s-4.5 -49 -4.5 -71c0 -37.333 4.83301 -70.166 14.5 -98.499s23.334 -52.166 41.001 -71.499s38.834 -33.833 63.501 -43.5s52 -14.5 82 -14.5c34 0 64.5 5.16699 91.5 15.5s51.333 28.333 73 54s41 60.667 58 105s32.5 100.5 46.5 168.5 c7.33301 34 12.833 65.833 16.5 95.5s5.5 57.167 5.5 82.5c0 70 -11.833 123 -35.5 159s-66.5 54 -128.5 54z"/>
   <glyph glyph-name="uni0186" horiz-adv-x="1479" unicode="Ɔ" d="M782 1198c-176 0 -316.999 -89.332 -422.999 -267.999l-238 97c84 140.667 183.667 243 299 307s251 96 407 96c127.333 0 237.666 -23.167 330.999 -69.5s164.5 -111.833 213.5 -196.5s73.5 -182.334 73.5 -293.001c0 -172.667 -34.333 -327.167 -103 -463.5 s-166.5 -241.666 -293.5 -315.999s-274.833 -111.5 -443.5 -111.5c-154 0 -281.167 34.5 -381.5 103.5s-162.5 165.167 -186.5 288.5l274 71c12.667 -70 49.167 -126 109.5 -168s134.833 -63 223.5 -63c101.333 0 189.5 27.167 264.5 81.5s132.5 130.666 172.5 228.999 s60 210.833 60 337.5c0 107.333 -31.833 190.5 -95.5 249.5s-151.5 88.5 -263.5 88.5z"/>
   <glyph glyph-name="uni0187" horiz-adv-x="1479" unicode="Ƈ" d="M401 573c0 -115.333 28.502 -204.499 85.502 -267.499s138.5 -94.5 244.5 -94.5c177.333 0 316.666 86 417.999 258l227 -117c-69.333 -124 -160 -217 -272 -279s-243 -93 -393 -93c-128 0 -238 24 -330 72s-161.833 116.667 -209.5 206s-71.5 193 -71.5 311 c0 168 35 318.167 105 450.5s167.833 233.833 293.5 304.5s268.5 106 428.5 106c149.333 0 272.333 -31 369 -93l15 80c18.667 95.333 60.167 167.5 124.5 216.5s146.166 73.5 245.499 73.5c50 0 99.667 -5.66699 149 -17l-40 -204c-36.667 8 -65 12 -85 12 c-34.667 0 -64 -10 -88 -30s-41.333 -57 -52 -111l-62 -319l-274 -71c-19.333 71.335 -56.5 127.668 -111.5 168.999c-55 41.333 -121.5 62 -199.5 62c-161.333 0 -287.833 -56 -379.5 -168s-137.5 -264.333 -137.5 -457z"/>
   <glyph glyph-name="uni0188" horiz-adv-x="1139" unicode="ƈ" d="M825 718c-7.33301 127.333 -63.0029 191 -167.003 191c-71.334 0 -127.167 -24.5 -167.499 -73.5c-40.333 -49 -76.833 -135.833 -109.5 -260.5c-15.333 -76.667 -23 -132.667 -23 -168c0 -156 59.333 -234 178 -234c55.333 0 101 17.5 137 52.5s64.667 86.833 86 155.5 l271 -50c-70 -234 -240 -351 -510 -351c-146.667 0 -259.5 37.5 -338.5 112.5s-118.5 179.167 -118.5 312.5c0 130 26.333 252 79 366s122.834 197.667 210.501 251s196.834 80 327.501 80c90.667 0 170 -17.667 238 -53c18.667 93.3359 58.834 163.169 120.5 209.5 c61.667 46.333 139.5 69.5 233.5 69.5c50.667 0 100 -5.66699 148 -17l-39 -201c-36.667 8 -65 12 -85 12c-34.667 0 -64 -10 -88 -30s-41.333 -57 -52 -111l-47 -240z"/>
   <glyph glyph-name="uni0189" horiz-adv-x="1479" unicode="Ɖ" d="M734 1409c222 0 392 -51.666 510 -154.999s177 -252.333 177 -447c0 -157.333 -33 -296.333 -99 -417s-161.667 -215.834 -287 -285.501c-125.334 -69.667 -265.667 -104.5 -421 -104.5h-578l115 594h-128l42 219h129l116 596h424zM488 813.001h357.001l-44 -219h-355 l-71 -366h230c106.667 0 201.167 22.833 283.5 68.5s145.666 111.5 189.999 197.5s66.5 186 66.5 300c0 126 -35.167 222 -105.5 288s-171.5 99 -303.5 99h-176z"/>
   <glyph glyph-name="uni018A" horiz-adv-x="1623" unicode="Ɗ" d="M906 1409c222 0 391.999 -51.667 509.999 -155s177 -252.333 177 -447c0 -157.333 -33 -296.333 -99 -417s-161.667 -215.834 -287 -285.501s-265.666 -104.5 -420.999 -104.5h-546l232 1195h-17c-48 0 -84.667 -12.667 -110 -38s-38 -61.666 -38 -108.999 c0 -24.667 4 -57 12 -97l-225 -17c-3.33301 25.333 -5 54.333 -5 87c0 132.667 31.5 230.5 94.5 293.5s160.5 94.5 292.5 94.5h430zM578.999 228h198c106.667 0 201.167 22.833 283.5 68.5c82.3359 45.667 145.669 111.5 190 197.5c44.333 86 66.5 186 66.5 300 c0 126 -35.167 222 -105.5 288s-171.5 99 -303.5 99h-144z"/>
   <glyph glyph-name="uni018B" horiz-adv-x="1366" unicode="Ƌ" d="M33 370c0 96 24.166 179.667 72.499 251s115.833 125.833 202.5 163.5s187.667 56.5 303 56.5h409l66 341h-706l44 227h1001l-273 -1409h-672c-91.333 -0 -170.666 15.333 -237.999 46s-119 74 -155 130s-54 120.667 -54 194zM640.999 623 c-100.667 0 -176.833 -19.832 -228.5 -59.499s-77.5 -96.834 -77.5 -171.501c0 -115.333 78.333 -173 235 -173h329l79 404h-337z"/>
   <glyph glyph-name="uni018C" horiz-adv-x="1251" unicode="ƌ" d="M749 160c-47.333 -62 -98.5 -107.666 -153.5 -136.999s-122.833 -44 -203.5 -44c-102.667 0 -184 34 -244 102s-90 159 -90 273c0 127.333 21.333 252 64 374s102.5 214.833 179.5 278.5s169.833 95.5 278.5 95.5c82.667 0 150.834 -16.833 204.5 -50.5 c53.667 -33.667 90.167 -82.834 109.5 -147.501h5c2 21.333 5.83301 48.833 11.5 82.5s24.167 128.5 55.5 284.5h-506l46 213h780l-238 -1253c-13.333 -74.667 -23 -151.667 -29 -231h-281c0 20.667 1.5 47.5 4.5 80.5s6.5 59.5 10.5 79.5h-4zM515 172.001 c53.333 0 99.334 11.5 138.001 34.5s71.667 58.333 99 106s49.166 107.5 65.499 179.5s24.5 135 24.5 189c0 80 -15.667 138.167 -47 174.5s-78.333 54.5 -141 54.5c-68 0 -123.5 -23 -166.5 -69s-75.833 -113.333 -98.5 -202s-34 -170.667 -34 -246 c0 -147.333 53.333 -221 160 -221z"/>
   <glyph glyph-name="uni018D" horiz-adv-x="1250" unicode="ƍ" d="M1203 678c0 -173.333 -48.167 -319.166 -144.5 -437.499s-230.833 -195.5 -403.5 -231.5l298 -253l-35 -180h-923l40 203h537l-299 262c-52 46.667 -89.667 88.167 -113 124.5s-42 77.166 -56 122.499s-21 97.333 -21 156c0 126 27.5 239.167 82.5 339.5 s132.833 178.5 233.5 234.5s216 84 346 84c146 0 258.833 -37.333 338.5 -112s119.5 -178.667 119.5 -312zM567 192c68 0 127.334 20 178.001 60s91 99.167 121 177.5s45 164.833 45 259.5c0 70 -18.667 124.167 -56 162.5c-37.334 38.333 -89.667 57.5 -157 57.5 c-68.667 0 -126.834 -20.833 -174.501 -62.5s-84 -99.5 -109 -173.5s-37.5 -157.667 -37.5 -251c0 -77.333 17.167 -135 51.5 -173s80.5 -57 138.5 -57z"/>
   <glyph glyph-name="uni018E" horiz-adv-x="1366" unicode="Ǝ" d="M1401 1409l-273 -1409h-1108l44 228h813l69 354h-752l44 228h752l72 371h-854l45 228h1148z"/>
   <glyph glyph-name="uni018F" horiz-adv-x="1531" unicode="Ə" d="M700 206c101.333 0 188.5 35.667 261.5 107s125.5 171.333 157.5 300h-710c-4.66699 -29.333 -7 -60.333 -7 -93c0 -96.667 26.167 -173.167 78.5 -229.5s125.5 -84.5 219.5 -84.5zM265 1070c58 125.336 135.833 216.669 233.5 274c97.667 57.333 222.5 86 374.5 86 c180 0 324 -53.167 432 -159.5s162 -250.833 162 -433.5c0 -162.667 -35.833 -309.667 -107.5 -441s-170.167 -233.5 -295.5 -306.5c-125.334 -73 -265.667 -109.5 -421 -109.5c-108 0 -202.333 24.167 -283 72.5s-143 116 -187 203s-66 183.5 -66 289.5 c0 101.333 16 202.333 48 303h1006l2 55c0 86 -27.667 157 -83 213s-125.666 84 -210.999 84c-56 0 -103.333 -6.16699 -142 -18.5s-72.834 -31.333 -102.501 -57s-63.167 -68.167 -100.5 -127.5z"/>
   <glyph glyph-name="uni0190" horiz-adv-x="1316" unicode="Ɛ" d="M563 -20c-96.667 0 -182.999 15.667 -258.999 47s-134.667 74.5 -176 129.5s-62 117.167 -62 186.5c0 104.667 33.333 190.334 100 257.001s162.667 108.667 288 126c-70 20.667 -125 54.167 -165 100.5s-60 102.5 -60 168.5c0 84.667 23.5 160.167 70.5 226.5 s113.167 117.5 198.5 153.5s180.333 54 285 54c145.333 0 262 -33.333 350 -100c88 -66.668 145.333 -164.335 172 -293.001l-272 -60c-18 84.667 -48.833 145.167 -92.5 181.5s-101.834 54.5 -174.501 54.5c-78 0 -139.833 -18 -185.5 -54s-68.5 -88.333 -68.5 -157 c0 -51.333 21.667 -92.833 65 -124.5s109 -47.5 197 -47.5h59l-44 -227h-59c-132.667 0 -227.5 -16.833 -284.5 -50.5s-85.5 -88.5 -85.5 -164.5c0 -55.333 22.667 -99 68 -131s107 -48 185 -48c81.333 0 151.833 20.833 211.5 62.5s111.167 105.167 154.5 190.5l247 -132 c-66.6689 -124.667 -152.336 -214 -257 -268c-104.667 -54 -240 -81 -406 -81z"/>
   <glyph glyph-name="uni0191" horiz-adv-x="1251" unicode="Ƒ" d="M560 1181l-85.002 -436h668l-44 -228h-668l-118 -603c-24 -120.667 -67.167 -207.334 -129.5 -260.001s-155.166 -79 -278.499 -79c-49.333 0 -102.666 6.66699 -159.999 20l42 220c43.333 -8.66699 74.333 -13 93 -13c42.667 0 75.5 12.833 98.5 38.5 s39.5 64.834 49.5 117.501l281 1451h986l-44 -228h-691z"/>
   <glyph glyph-name="florin" horiz-adv-x="1139" unicode="ƒ" d="M756 892l-258.002 -1317h-280l258 1317h-158l37 190h158l22 113c20 103.333 61.5 177.333 124.5 222s151.833 67 266.5 67c48.667 0 100.334 -5.66699 155.001 -17l-36 -181c-7.33301 1.33301 -21.666 3.33301 -42.999 6s-39 4 -53 4c-44.667 0 -77 -10.667 -97 -32 s-34.333 -53.666 -43 -96.999l-16 -85h213l-37 -190h-213z"/>
   <glyph glyph-name="uni0193" horiz-adv-x="1593" unicode="Ɠ" d="M740 -19c-200 0 -356.666 52.834 -469.999 158.501s-170 253.5 -170 443.5c0 166 34.5 313.333 103.5 442s167.667 228.334 296 299.001s275.833 106 442.5 106c152 0 278.333 -34 379 -102l17 89c18.667 95.333 60.167 167.5 124.5 216.5 c64.3359 49 146.169 73.5 245.499 73.5c50 0 99.667 -5.66699 149 -17l-40 -204c-36.667 8 -65 12 -85 12c-34.667 0 -64 -10 -88 -30s-41.333 -57 -52 -111l-62 -318l-282 -78c-19.333 75.335 -56.666 133.668 -111.999 174.999c-55.333 41.333 -125.333 62 -210 62 c-106.667 0 -200 -25.167 -280 -75.5s-141.167 -121.333 -183.5 -213s-63.5 -197.5 -63.5 -317.5c0 -118 31.667 -211 95 -279s153.333 -102 270 -102c72 0 142 8.66699 210 26s126 40.666 174 69.999l46 228h-342l39 208h614l-105 -568 c-98 -68.667 -199.333 -118.167 -304 -148.5s-223.334 -45.5 -356.001 -45.5z"/>
   <glyph glyph-name="uni0194" horiz-adv-x="1271" unicode="Ɣ" d="M179 1409l308 0.000976562l165 -866l500 866h305l-710 -1139c41.333 -116.667 67.333 -198.167 78 -244.5s16 -86.833 16 -121.5c0 -101.333 -32.667 -181.5 -98 -240.5s-156.333 -88.5 -273 -88.5c-82 0 -148 22.667 -198 68s-75 104.666 -75 177.999 c0 56.667 17.667 118 53 184s101.333 154.333 198 265zM505 -217.999c34.667 0 60.001 11.999 76.001 35.999s24 53 24 87c0 42 -4.66699 78.333 -14 109s-18 57.667 -26 81l-40 -51c-57.333 -72 -86 -133.333 -86 -184c0 -21.333 5.66699 -39.666 17 -54.999 c11.334 -15.333 27.667 -23 48.999 -23z"/>
   <glyph glyph-name="uni0195" horiz-adv-x="1912" unicode="ƕ" d="M812 296c0 41.333 3.66895 84.8359 11.002 130.503s15.333 89.667 24 132s16.667 81.166 24 116.499s11 63.666 11 84.999c0 86 -50.667 129 -152 129c-67.333 0 -129.5 -27 -186.5 -81s-93.167 -121.333 -108.5 -202l-118 -606h-282l286 1484h280l-79 -405l-39 -182h3 c50.667 71.333 106.167 123.166 166.5 155.499s129.166 48.5 206.499 48.5c101.333 0 177.666 -24.333 228.999 -73s77 -119 77 -211c0 -52.667 -12 -137.667 -36 -255c-24 -114 -36 -182.333 -36 -205c0 -58 12.5 -100.167 37.5 -126.5s62.5 -39.5 112.5 -39.5 c126 0 205.333 85.667 238 257l124 634h280l-122 -626c-32 -164 -91.5 -284.333 -178.5 -361s-206.167 -115 -357.5 -115c-132 0 -234.167 27.333 -306.5 82s-108.5 132.667 -108.5 234z"/>
   <glyph glyph-name="uni0196" horiz-adv-x="569" unicode="Ɩ" d="M36 0l273 1409h295l-274 -1409h-294z"/>
   <glyph glyph-name="uni0197" horiz-adv-x="569" unicode="Ɨ" d="M53 847h143l109 562h296l-110 -562h155l-43 -221h-155l-122 -626h-295l122 626h-143z"/>
   <glyph glyph-name="uni0198" horiz-adv-x="1479" unicode="Ƙ" d="M995 0l-355 640l-211 -123l-101 -517h-292l220 1127c18.667 100 59.5 175.5 122.5 226.5s150.5 76.5 262.5 76.5c57.333 0 110.666 -5.66699 159.999 -17l-40 -204c-36.667 8 -65 12 -85 12c-34.667 0 -63.167 -10 -85.5 -30c-22.334 -20 -39.167 -57 -50.499 -111 l-66 -310l760 639h369l-747 -616l465 -793h-326z"/>
   <glyph glyph-name="uni0199" horiz-adv-x="1139" unicode="ƙ" d="M728 0l-187.998 496.999l-140 -75l-85 -422h-280l229 1181c19.334 102.667 59.167 178.834 119.5 228.501s145.166 74.5 254.499 74.5c57.333 0 110.666 -5.66699 159.999 -17l-40 -204c-36.667 8 -65 12 -85 12c-34.667 0 -63.667 -10 -87 -30 c-23.3359 -20 -40.6689 -57 -52 -111l-97 -500l465 448h322l-473 -422l275 -660h-298z"/>
   <glyph glyph-name="uni019A" horiz-adv-x="569" unicode="ƚ" d="M35 0l121 623h-153l41 204h151l128 657h281l-128 -657h171l-41 -204h-170l-121 -623h-280z"/>
   <glyph glyph-name="uni019B" horiz-adv-x="1139" unicode="ƛ" d="M178 1159l307 121l-42 204h298l18 -96l196 78l41 -173l-203 -80l233 -1213h-294l-114 724l-407 -724h-296l616 1034l-9 72l-304 -120z"/>
   <glyph glyph-name="uni019C" horiz-adv-x="1865" unicode="Ɯ" d="M1240 1409l-180.995 -933.002c-17.333 -88.667 -26 -146.334 -26 -173c0 -35.333 10.5 -62.833 31.5 -82.5s50.167 -29.5 87.5 -29.5c65.333 0 124.5 31.167 177.5 93.5s89.833 145.5 110.5 249.5l170 875h295l-273 -1408h-302l20 168h-4 c-40 -65.333 -85.5 -113.166 -136.5 -143.499s-114.167 -45.5 -189.5 -45.5c-48.667 0 -88.834 7.33301 -120.501 22s-57.834 35.334 -78.501 62.001s-38.667 67 -54 121h-7c-46.667 -56 -87.834 -97.167 -123.501 -123.5s-75 -46.5 -118 -60.5s-90.833 -21 -143.5 -21 c-100 0 -175.667 24.833 -227 74.5s-77 123.5 -77 221.5c0 38 4 78 12 120l197 1013h295l-181 -933c-15.333 -78 -23 -132.333 -23 -163c0 -42 9.66699 -72.833 29 -92.5s49 -29.5 89 -29.5c69.333 0 128.666 27.333 177.999 82s82.666 127 99.999 217l178 919h295z"/>
   <glyph glyph-name="uni019D" horiz-adv-x="1479" unicode="Ɲ" d="M310 1409l350.001 -0.00195312l377 -1141c11.333 90 25 175.333 41 256l174 885h262l-274 -1409h-356l-374 1131c-15.333 -108 -28 -187.667 -38 -239l-190 -969c-26 -131.333 -67.333 -222.166 -124 -272.499s-141.334 -75.5 -254.001 -75.5 c-49.333 0 -102.666 6.66699 -159.999 20l45 230c41.333 -8.66699 71.666 -13 90.999 -13c42.667 0 75.667 12.833 99 38.5s40 64.834 50 117.501z"/>
   <glyph glyph-name="uni019E" horiz-adv-x="1251" unicode="ƞ" d="M653 -425l203.001 1020c17.333 82.667 26 137.667 26 165c0 86 -50.667 129 -152 129c-67.333 0 -129.5 -27 -186.5 -81s-93.167 -121.333 -108.5 -202l-118 -606h-282l166 851c10.667 52.667 23.334 129.667 38 231h268c0 -6 -3.16699 -34 -9.5 -84 s-11.166 -83.667 -14.499 -101h3c50.667 71.333 106.167 123.166 166.5 155.499s129.166 48.5 206.499 48.5c101.333 0 177.666 -24.333 228.999 -73s77 -119 77 -211c0 -13.3359 -1.33301 -31.1689 -4 -53.499c-2.66699 -22.333 -5.5 -43 -8.5 -62 s-76.5 -394.5 -220.5 -1126.5h-279z"/>
   <glyph glyph-name="uni019F" horiz-adv-x="1593" unicode="Ɵ" d="M928 1430c195.333 0 349.333 -51.833 462 -155.5c112.667 -103.668 169 -244.835 169 -423.501c0 -164 -35 -313.667 -105 -449s-168.167 -239.5 -294.5 -312.5s-270.5 -109.5 -432.5 -109.5c-128.667 0 -240.5 24 -335.5 72s-167.333 116.833 -217 206.5 s-74.5 194.5 -74.5 314.5c0 156.667 35.167 302.834 105.5 438.5c70.333 135.667 167.833 239.334 292.5 311.001s268 107.5 430 107.5zM741 212c248 0 409 129.999 483 389.999h-824v-21c0 -123.333 30 -215.666 90 -276.999s143.667 -92 251 -92zM914 1197 c-240 0 -398 -120.667 -474 -362h815c-1.33301 115.333 -31.5 204.5 -90.5 267.5s-142.5 94.5 -250.5 94.5z"/>
   <glyph glyph-name="Ohorn" horiz-adv-x="1715" unicode="Ơ" d="M727 -20c-128.667 0 -240.503 24 -335.503 72s-167.333 116.833 -217 206.5s-74.5 194.5 -74.5 314.5c0 156.667 35.167 302.834 105.5 438.5c70.333 135.667 167.833 239.334 292.5 311.001s268 107.5 430 107.5c170 0 309.833 -40.167 419.5 -120.5 s176.834 -193.833 201.501 -340.5c54.667 18.667 94.334 43 119.001 73s41.334 65.667 50.001 107h-127l51 260h287l-42 -212c-18.667 -94.667 -54 -172 -106 -232s-126 -104.333 -222 -133c-3.33301 -163.333 -40.5 -310.833 -111.5 -442.5 s-168.833 -232.834 -293.5 -303.501s-267 -106 -427 -106zM913.997 1197c-108 0 -200 -25.001 -276 -75.001s-134.667 -125.333 -176 -226s-62 -205.667 -62 -315c0 -123.333 30 -215.666 90 -276.999s143.667 -92 251 -92s199 25 275 75s134.833 124.333 176.5 223 s62.5 204.334 62.5 317c0 117.333 -29.167 208.333 -87.5 273s-142.833 97 -253.5 97z"/>
   <glyph glyph-name="ohorn" horiz-adv-x="1375" unicode="ơ" d="M1185 683l-1.00098 -43c47.333 12 83.333 32.167 108 60.5s41.667 68.833 51 121.5h-107l51 260h267l-42 -212c-21.333 -107.333 -60.166 -191.833 -116.499 -253.5s-132.833 -101.5 -229.5 -119.5c-32 -157.333 -104.667 -282.833 -218 -376.5s-251 -140.5 -413 -140.5 c-145.333 0 -260.333 39 -345 117s-127 185.333 -127 322c0 134 26.5 252.667 79.5 356s128.667 183.5 227 240.5s209.833 85.5 334.5 85.5c155.333 0 274.333 -36.5 357 -109.5s124 -175.833 124 -308.5zM890.999 662c0 164.667 -69.333 246.999 -208 246.999 c-77.334 0 -138.667 -20.833 -184 -62.5s-80.166 -102.667 -104.499 -183s-36.5 -157.833 -36.5 -232.5c0 -172.667 69.333 -259 207.999 -259c74.667 0 133.834 18.833 177.5 56.5c43.667 37.667 78 94.834 103 171.501s39.833 164 44.5 262z"/>
   <glyph glyph-name="uni01A2" horiz-adv-x="1851" unicode="Ƣ" d="M1266 -425l312 1606h-255l-216 -1119c-47.333 -23.333 -111.166 -42.833 -191.499 -58.5s-156.833 -23.5 -229.5 -23.5c-185.333 0 -328.833 50.667 -430.5 152s-152.5 243.333 -152.5 426c0 173.333 33.667 326.166 101 458.499s163.833 234.333 289.5 306 s273.5 107.5 443.5 107.5c67.333 0 135.166 -7.66699 203.499 -23c68.3359 -15.333 125.169 -35.333 170.5 -60l524 78h73l-360 -1850h-282zM737 207.001c41.333 0 80.666 4.66699 117.999 14l188 967c-38.667 10 -78.334 15 -119.001 15 c-103.333 0 -194.666 -27.5 -273.999 -82.5s-140.166 -131.667 -182.499 -230s-63.5 -207.833 -63.5 -328.5c0 -236.667 111 -355 333 -355z"/>
   <glyph glyph-name="uni01A3" horiz-adv-x="1502" unicode="ƣ" d="M515 -20c-137.333 0 -244.669 39.5 -322.002 118.5s-116 186.167 -116 321.5c0 132 25.833 250.167 77.5 354.5s124.834 185 219.501 242s205.334 85.5 332.001 85.5c69.333 0 135.5 -8.5 198.5 -25.5s111.5 -37.833 145.5 -62.5l400 88h77l-297 -1527h-253l253 1302 h-194l-153 -826c-107.333 -47.333 -230 -71 -368 -71zM551.997 172c38 0 69.667 2.33301 95 7l139 720c-18 6.66699 -49.667 10 -95 10c-62.667 0 -118.667 -21.5 -168 -64.5s-87.833 -102.833 -115.5 -179.5s-41.5 -161 -41.5 -253c0 -160 62 -240 186 -240z"/>
   <glyph glyph-name="uni01A4" horiz-adv-x="1516" unicode="Ƥ" d="M1023 1409c164 0 291.499 -37.334 382.499 -112.001s136.5 -178 136.5 -310c0 -150 -51.167 -269.333 -153.5 -358s-239.166 -133 -410.499 -133h-338l-98 -496h-294l231 1195h-24c-48 0 -84.667 -12.667 -110 -38s-38 -61.666 -38 -108.999c0 -24.667 4 -57 12 -97 l-225 -17c-3.33301 25.333 -5 54.333 -5 87c0 132.667 31.5 230.5 94.5 293.5s160.5 94.5 292.5 94.5h547zM682.999 722.999h250c102.667 0 180 19.333 232 58s78 102 78 190c0 68 -21.333 119.833 -64 155.5s-104 53.5 -184 53.5h-223z"/>
   <glyph glyph-name="uni01A5" horiz-adv-x="1251" unicode="ƥ" d="M493 913c48.667 68.667 101.002 117.333 157.002 146s122 43 198 43c106.001 0 188.668 -31.5 248 -94.5c59.333 -63 89 -149.5 89 -259.5c0 -134.667 -20.667 -265.834 -62 -393.501s-99.5 -222 -174.5 -283s-170.5 -91.5 -286.5 -91.5c-83.333 0 -151 17.333 -203 52 s-88.667 83.334 -110 146.001h-2c-2 -19.333 -4.83301 -39.833 -8.5 -61.5s-38.167 -202.167 -103.5 -541.5h-280l307 1606c19.333 103.336 59.5 179.669 120.5 229c61 49.333 146.833 74 257.499 74c52.667 0 112.334 -6.66699 179 -20l-40 -204c-46 10 -79.667 15 -101 15 c-78.667 0 -127.334 -47 -146.001 -141l-43 -221h4zM728.002 906.999c-54 0 -100.498 -11.668 -139.498 -35.001s-72.167 -58.833 -99.5 -106.5s-49 -107.167 -65 -178.5c-16 -71.334 -24 -133.334 -24 -186c0 -71.333 17.667 -127.166 53 -167.499 s84.666 -60.5 147.999 -60.5c68.667 0 122.667 21.667 162 65s70.166 112 92.499 206s33.5 177.333 33.5 250c0 70.667 -12.833 123.834 -38.5 159.5c-25.667 35.667 -66.5 53.5 -122.5 53.5z"/>
   <glyph glyph-name="uni01A6" horiz-adv-x="1366" unicode="Ʀ" d="M965 -329l-311 688.001h-252l-71 -359h-295l271 1410h285l-33 -176h279c106 0 196.833 -16.333 272.5 -49c75.667 -32.6709 133.167 -79.3379 172.5 -140c39.333 -60.667 59 -132 59 -214c0 -110 -36.167 -203.333 -108.5 -280s-170.5 -124.334 -294.5 -143.001l352 -737 h-326zM749 589.001c96.667 0 169.834 19.5 219.5 58.5c49.667 39 74.5 94.5 74.5 166.5c0 61.333 -21.167 108.5 -63.5 141.5s-101.833 49.5 -178.5 49.5h-273l-81 -416h302z"/>
   <glyph glyph-name="uni01A7" horiz-adv-x="1366" unicode="Ƨ" d="M58 345c0 125.333 36.5 225.003 109.5 299.003s196.167 129.333 369.5 166l149 32c127.333 26.667 212.166 49.167 254.499 67.5s74.5 40.666 96.5 66.999s33 59.833 33 100.5c0 96 -79.333 144 -238 144c-84 0 -151.5 -15.333 -202.5 -46 c-51 -30.6689 -89.833 -76.3359 -116.5 -137l-278 39c52.667 129.333 127.334 220.5 224.001 273.5s230.667 79.5 402 79.5c152 0 273 -30.333 363 -91s135 -144 135 -250c0 -58.667 -7.66699 -109.334 -23 -152.001s-36.333 -79.667 -63 -111 c-26.667 -31.335 -59 -58.168 -97 -80.5c-38 -22.333 -82.167 -42 -132.5 -59c-50.334 -17 -129.167 -37.5 -236.5 -61.5c-59.333 -14 -116.333 -27.5 -171 -40.5s-103 -28.5 -145 -46.5s-75.667 -40.333 -101 -67s-38 -60.334 -38 -101c0 -61.333 23 -104.833 69 -130.5 s113.667 -38.5 203 -38.5c99.333 0 180.166 16.667 242.499 50s110.5 87.666 144.5 162.999l289 -50c-107.333 -256 -343.666 -384 -708.999 -384c-169.333 0 -300.5 32.333 -393.5 97s-139.5 154 -139.5 268z"/>
   <glyph glyph-name="uni01A8" horiz-adv-x="1139" unicode="ƨ" d="M35 270c0 73.334 15.334 134.169 46.001 182.502s75.5 88 134.5 119s157.167 60.167 294.5 87.5l125 24c64.668 12.667 111.835 28.5 141.5 47.5c29.667 19 44.5 44.833 44.5 77.5c0 41.333 -15.167 69.666 -45.5 84.999s-75.5 23 -135.5 23 c-67.333 0 -118.833 -10.667 -154.5 -32s-61.834 -54.333 -78.5 -99l-244 26c35.333 97.333 94.5 170.333 177.5 219s192.833 73 329.499 73c130.668 0 231.335 -24.5 302.001 -73.5c70.667 -49 106 -122.5 106 -220.5c0 -66 -16.5 -121.833 -49.5 -167.5 s-80.833 -83.5 -143.5 -113.5s-183.667 -64.333 -363 -103c-78 -16.667 -135 -36.5 -171 -59.5s-54 -51.833 -54 -86.5c0 -75.333 66.667 -113 200 -113c72 0 129.667 10.667 173 32s78.666 57.666 105.999 108.999l240 -37c-42 -104.667 -104.167 -179.167 -186.5 -223.5 s-198.833 -66.5 -349.5 -66.5c-139.333 0 -248.333 25.833 -327 77.5s-118 122.5 -118 212.5z"/>
   <glyph glyph-name="uni01A9" horiz-adv-x="1209" unicode="Ʃ" d="M-47 0l50 251l545 507l-346 435l41 216h999l-44 -228h-697l299 -373l-27 -134l-480 -446h781l-45 -228h-1076z"/>
   <glyph glyph-name="uni01AA" horiz-adv-x="737" unicode="ƪ" d="M152 1259c0 74 24.001 129.998 72.001 167.998s116 57 204 57c92.667 0 163.5 -23.667 212.5 -71s73.5 -112.666 73.5 -195.999c0 -41.333 -4.33301 -83.666 -13 -126.999l-227 -1158c-3.33301 -15.333 -5 -32 -5 -50c0 -60.667 32 -91 96 -91c12 0 31.5 1.33301 58.5 4 c27 2.66504 46.5 5.33203 58.5 8l-41 -211c-47.333 -11.333 -109.333 -17 -186 -17c-184 0 -276 76.667 -276 230c0 26.667 3.66699 59.667 11 99l232 1188c-26 -7.33301 -57 -11 -93 -11c-50.667 0 -92.834 16.167 -126.501 48.5s-50.5 75.5 -50.5 129.5zM284.001 1277 c0 -28 8.33301 -50.333 25 -67s39 -25 67 -25s50.333 8.33301 67 25s25 39 25 67s-8.33301 50.333 -25 67s-39 25 -67 25s-50.333 -8.33301 -67 -25s-25 -39 -25 -67z"/>
   <glyph glyph-name="uni01AB" horiz-adv-x="682" unicode="ƫ" d="M43 -206c46 -10 81.665 -14.999 106.998 -14.999c34.667 0 64.834 10 90.5 30c25.667 20 43.834 57 54.501 111l13 69c-60 9.33301 -107 32.166 -141 68.499s-51 86.833 -51 151.5c0 47.333 5.33301 99.666 16 156.999l102 526h-148l37 190h162l137 254h176l-48 -254h202 l-35 -190h-205l-104 -535c-7.33301 -37.333 -11 -67 -11 -89c0 -30.667 7.83301 -53.5 23.5 -68.5s36.834 -22.5 63.501 -22.5c21.333 0 57.333 4.33301 108 13l-58 -314c-18.667 -95.333 -58.5 -169.666 -119.5 -222.999s-143.5 -80 -247.5 -80 c-52.667 0 -107 6.66699 -163 20z"/>
   <glyph glyph-name="uni01AC" horiz-adv-x="1251" unicode="Ƭ" d="M1351 1181l-438 0.000976562l-230 -1181h-295l230 1181h-183c-98.667 0 -148 -44.333 -148 -133c0 -33.333 4 -70 12 -110l-225 -17c-3.33301 23.333 -5 56.666 -5 99.999c0 132.667 31.5 230.5 94.5 293.5s160.5 94.5 292.5 94.5h939z"/>
   <glyph glyph-name="uni01AD" horiz-adv-x="682" unicode="ƭ" d="M376 -16c-82.667 0 -146.666 19.501 -191.999 58.501s-68 94.5 -68 166.5c0 47.333 5.33301 99.666 16 156.999l102 526h-148l37 190h148l19 99c19.333 103.336 59.5 179.669 120.5 229c61 49.333 146.833 74 257.499 74c52.668 0 112.335 -6.66699 179 -20l-40 -194 c-46 10 -79.667 15 -101 15c-78.667 0 -127.334 -47 -146.001 -141l-10 -62h202l-35 -190h-205l-104 -535c-7.33301 -37.333 -11 -67 -11 -89c0 -30.667 7.83301 -53.5 23.5 -68.5s36.834 -22.5 63.501 -22.5c21.333 0 57.333 4.33301 108 13l-32 -182 c-54 -16 -115.333 -24 -184 -24z"/>
   <glyph glyph-name="uni01AE" horiz-adv-x="1251" unicode="Ʈ" d="M895 1181l-238.999 -1223c-4.66699 -23.333 -7 -44.333 -7 -63c0 -32 7.5 -55.5 22.5 -70.5s39.167 -22.5 72.5 -22.5c18.668 0 51.335 4.33301 98 13l-43 -220c-63.334 -13.333 -119.667 -20 -169 -20c-94.667 0 -165.334 20.833 -212.001 62.5s-70 106.834 -70 195.501 c0 45.333 4.66699 89 14 131l238 1217h-455l44 228h1206l-44 -228h-456z"/>
   <glyph glyph-name="Uhorn" horiz-adv-x="1656" unicode="Ư" d="M688 211c110 0 193.499 25.332 250.499 75.999s96.833 135.334 119.5 254.001l168 868h295l-92 -472c82.667 10.667 147.5 34 194.5 70s75.167 83.333 84.5 142h-127l51 260h287l-42 -212c-23.333 -117.333 -73.666 -209.833 -150.999 -277.5 s-185.333 -108.5 -324 -122.5l-52 -267c-36.667 -187.333 -110 -325.833 -220 -415.5s-262.667 -134.5 -458 -134.5c-176 0 -312.167 39.167 -408.5 117.5s-144.5 189.5 -144.5 333.5c0 59.333 7.66699 127.333 23 204l148 774h295l-153 -810c-12 -58 -18 -115.333 -18 -172 c0 -68.667 24.333 -121.834 73 -159.5c48.667 -37.667 115.667 -56.5 201 -56.5z"/>
   <glyph glyph-name="uhorn" horiz-adv-x="1462" unicode="ư" d="M512 1082l-117.999 -595.002c-17.333 -82 -26 -137 -26 -165c0 -86 50.667 -129 152 -129c67.333 0 129.666 27.333 186.999 82s93.333 121.667 108 201l118 606h282l-90 -459c90 6.66699 158 26.5 204 59.5s74 79.5 84 139.5h-127l51 260h267l-42 -212 c-17.333 -86.667 -45.833 -157.334 -85.5 -212.001s-88.834 -96.167 -147.5 -124.5c-58.667 -28.333 -135.667 -45.166 -231 -50.499c-22.6748 -116 -40.3418 -206.667 -53 -272c-12.667 -65.333 -24 -135.666 -34 -210.999h-268c0 6 3.16699 34 9.5 84 s11.166 83.667 14.499 101h-3c-50 -69.333 -105.167 -120.666 -165.5 -153.999c-60.334 -33.333 -129.501 -50 -207.501 -50c-101.333 0 -177.666 24.333 -228.999 73s-77 119 -77 211c0 16.667 2.33301 43.167 7 79.5s9.33398 64.5 14.001 84.5l127 653h279z"/>
   <glyph glyph-name="uni01B1" horiz-adv-x="1599" unicode="Ʊ" d="M697 -22c-116.667 0 -220.834 21.8311 -312.501 65.498s-162.334 105 -212.001 184s-74.5 168.167 -74.5 267.5c0 156 43.833 290.333 131.5 403s226.167 210.334 415.5 293.001c-76 -7.33301 -134.667 -11 -176 -11h-270l44 228h636l-60 -309 c-134 -60 -236.667 -135.833 -308 -227.5s-107 -195.167 -107 -310.5c0 -114 28.5 -201 85.5 -261s139.833 -90 248.5 -90c93.333 0 176.333 20.5 249 61.5s129 98 169 171s60 154.833 60 245.5c0 96.667 -19.333 177.5 -58 242.5c-38.667 65.002 -101 121.169 -187 168.5 l60 309h644l-44 -228h-268c-39.333 0 -100.666 3.66699 -183.999 11c102 -52 181.333 -123.333 238 -214s85 -190 85 -298c0 -139.333 -33.667 -262.166 -101 -368.499s-162.666 -188.333 -285.999 -246c-123.334 -57.667 -262.667 -86.5 -418 -86.5z"/>
   <glyph glyph-name="uni01B2" horiz-adv-x="1479" unicode="Ʋ" d="M611 -20c-156.667 0 -277.334 34.334 -362.001 103.001s-127 166.667 -127 294c0 47.333 5.33301 97.666 16 150.999l172 881h295l-167 -858c-8.66699 -42.667 -13 -82.334 -13 -119c0 -147.333 70.667 -221 212 -221c80 0 148.833 19.167 206.5 57.5 c57.667 38.334 108.5 98.667 152.5 181s82.5 189 115.5 320s49.5 223.167 49.5 276.5c0 50.667 -11 89.167 -33 115.5s-57.667 39.5 -107 39.5c-30 0 -67.667 -4.33301 -113 -13l42 220c62.667 13.333 141.334 20 236.001 20c91.333 0 160.5 -26 207.5 -78 s70.5 -128.333 70.5 -229c0 -96.667 -24.167 -229 -72.5 -397s-109 -306.5 -182 -415.5s-159.167 -191 -258.5 -246c-99.334 -55 -212.667 -82.5 -340 -82.5z"/>
   </font>
</defs>
</svg>
